<?xml version="1.0" encoding="iso-8859-1"?>
<!-- Generator: Adobe Illustrator 23.1.0, SVG Export Plug-In . SVG Version: 6.00 Build 0)  -->
<svg version="1.1" id="Capa_1" xmlns="http://www.w3.org/2000/svg" xmlns:xlink="http://www.w3.org/1999/xlink" x="0px" y="0px"
	 viewBox="0 0 512 512" style="enable-background:new 0 0 512 512;" xml:space="preserve">
<g>
	<path d="M429.411,442.259l4.736-4.736c2.929-2.929,2.928-7.678-0.001-10.607c-2.93-2.929-7.678-2.928-10.607,0l-4.736,4.736
		c-2.929,2.929-2.928,7.678,0.001,10.607C421.733,445.188,426.482,445.189,429.411,442.259z M134.06,357.421
		c-2.93-2.929-7.678-2.928-10.607,0c-2.929,2.929-2.928,7.678,0.001,10.607l4.736,4.736c2.929,2.928,7.678,2.929,10.607,0
		c2.929-2.929,2.928-7.678,0-10.607L134.06,357.421z M100.326,298.251l-4.736,4.736c-2.929,2.929-2.929,7.678,0,10.607
		c2.929,2.929,7.678,2.929,10.606,0l4.736-4.736c2.929-2.929,2.929-7.678,0-10.606C108.003,295.322,103.254,295.322,100.326,298.251
		z M296.231,432.356c-2.929,2.929-2.928,7.678,0,10.607l4.736,4.736c2.929,2.928,7.678,2.929,10.607,0
		c2.929-2.929,2.928-7.678,0-10.607l-4.736-4.736C303.908,429.427,299.16,429.427,296.231,432.356z M232.932,186.857l4.736-4.736
		c2.929-2.929,2.929-7.678,0-10.607c-2.929-2.929-7.678-2.929-10.607,0l-4.736,4.736c-2.929,2.929-2.929,7.678,0,10.606
		C225.255,189.786,230.003,189.786,232.932,186.857z M387.122,161.111l-4.736,4.736c-2.929,2.929-2.929,7.678,0,10.607
		c2.93,2.929,7.677,2.929,10.607,0.001l4.736-4.736c2.929-2.929,2.929-7.678,0-10.607
		C394.799,158.183,390.05,158.183,387.122,161.111z M217.731,65.978c5.032,4.384,5.046,12.188,0,16.585
		c-3.123,2.722-3.448,7.459-0.727,10.582c2.721,3.123,7.459,3.447,10.582,0.727c11.902-10.373,11.888-28.84,0-39.202
		c-5.032-4.384-5.047-12.188,0-16.584c3.123-2.722,3.448-7.459,0.727-10.582c-2.722-3.123-7.459-3.447-10.582-0.726
		c-5.672,4.944-8.926,12.088-8.926,19.601C208.806,53.89,212.059,61.034,217.731,65.978z M276.67,65.978
		c5.032,4.384,5.046,12.188,0,16.585c-3.122,2.722-3.448,7.459-0.727,10.582c2.721,3.123,7.459,3.447,10.582,0.727
		c11.901-10.373,11.889-28.84,0-39.202c-5.042-4.394-5.036-12.195,0-16.584c3.123-2.721,3.448-7.459,0.727-10.582
		c-2.721-3.122-7.459-3.448-10.582-0.727C264.767,37.148,264.781,55.617,276.67,65.978z M335.608,65.978
		c5.042,4.395,5.036,12.195,0,16.585c-3.123,2.721-3.448,7.458-0.727,10.582c2.722,3.123,7.46,3.448,10.582,0.727
		c11.903-10.372,11.889-28.841,0-39.202c-5.032-4.384-5.047-12.188,0-16.584c3.122-2.722,3.448-7.459,0.727-10.582
		c-2.722-3.123-7.458-3.447-10.582-0.726C323.707,37.148,323.719,55.616,335.608,65.978z M303.903,230.462
		c7.513,0,14.657-3.253,19.601-8.926c2.721-3.123,2.396-7.86-0.727-10.582c-3.123-2.721-7.861-2.396-10.582,0.727
		c-2.094,2.403-5.117,3.781-8.292,3.781c-3.176,0-6.198-1.378-8.292-3.781c-2.722-3.123-7.459-3.448-10.581-0.727
		c-3.123,2.721-3.448,7.458-0.727,10.581C289.245,227.209,296.39,230.462,303.903,230.462z M432.566,124.729H204.768
		c-4.142,0-7.5,3.358-7.5,7.5s3.358,7.5,7.5,7.5h227.798c35.529,0,64.434,28.905,64.434,64.434v76.46H205.559
		c-0.214-22.097,0.574-33.141-1.054-40.774c-6.16-37.711-38.954-66.589-78.38-66.589H69.583
		c11.153-20.416,32.717-33.531,56.542-33.531h43.243c4.142,0,7.5-3.358,7.5-7.5s-3.358-7.5-7.5-7.5h-43.243
		c-32.08,0-60.823,19.294-73.163,48.531h-20.84C14.41,173.26,0,187.669,0,205.381v11.42c0,17.712,14.41,32.122,32.122,32.122h14.569
		v125.962c0,26.827,21.825,48.652,48.652,48.652h95.216v14.88c0,26.827,21.825,48.652,48.652,48.652h155.373
		c4.142,0,7.5-3.358,7.5-7.5c0-4.142-3.358-7.5-7.5-7.5H239.211c-18.556,0-33.652-15.096-33.652-33.652V402.99H497v35.428
		c0,18.556-15.096,33.652-33.652,33.652h-32.621c-4.142,0-7.5,3.358-7.5,7.5c0,4.142,3.358,7.5,7.5,7.5h32.621
		c26.827,0,48.652-21.825,48.652-48.652V204.162C512,160.362,476.366,124.729,432.566,124.729z M32.122,233.923
		c-9.441,0-17.122-7.681-17.122-17.122v-11.42c0-9.441,7.681-17.122,17.122-17.122h94.003c29.001,0,53.581,19.262,61.637,45.663
		H32.122z M190.559,408.537H95.343c-18.556,0-33.652-15.096-33.652-33.652V248.923H190.44
		C190.669,252.867,190.51,242.7,190.559,408.537z M497,387.99H205.559v-20.334H497V387.99z M497,352.656H205.559v-21.699H497
		V352.656z M497,315.957H205.559v-20.334H497V315.957z M399.309,221.536c4.944,5.672,12.088,8.926,19.601,8.926
		c7.513,0,14.657-3.253,19.601-8.926c2.721-3.123,2.396-7.86-0.727-10.582c-3.124-2.721-7.86-2.396-10.582,0.727
		c-2.094,2.403-5.117,3.781-8.293,3.781c-3.176,0-6.198-1.378-8.292-3.781c-2.721-3.123-7.458-3.447-10.582-0.727
		C396.913,213.676,396.587,218.413,399.309,221.536z M372.189,235.646c0-6.351-4.828-11.5-10.783-11.5
		c-5.955,0-10.783,5.149-10.783,11.5c0,6.352,4.828,11.5,10.783,11.5C367.362,247.146,372.189,241.997,372.189,235.646z"/>
</g>
<g>
</g>
<g>
</g>
<g>
</g>
<g>
</g>
<g>
</g>
<g>
</g>
<g>
</g>
<g>
</g>
<g>
</g>
<g>
</g>
<g>
</g>
<g>
</g>
<g>
</g>
<g>
</g>
<g>
</g>
</svg>
