<?xml version="1.0" encoding="iso-8859-1"?>
<!-- Generator: Adobe Illustrator 23.1.0, SVG Export Plug-In . SVG Version: 6.00 Build 0)  -->
<svg version="1.1" id="Capa_1" xmlns="http://www.w3.org/2000/svg" xmlns:xlink="http://www.w3.org/1999/xlink" x="0px" y="0px"
	 viewBox="0 0 512 512" style="enable-background:new 0 0 512 512;" xml:space="preserve">
<g>
	<path d="M404.395,31.621c-6.744-3.257-13.579-6.277-20.316-8.977c-3.842-1.542-8.211,0.327-9.751,4.172
		c-1.541,3.845,0.327,8.211,4.173,9.752c6.418,2.572,12.936,5.452,19.37,8.559c17.792,8.595,23.63,31.085,12.251,47.294
		c-3.458,4.927-6.879,9.957-10.165,14.95c-3.885,5.903-10.683,9.132-17.754,8.418c-16.078-1.618-32.093-5.329-47.118-8.992
		c-10.918-2.663-21.462,5.598-21.462,16.856v15.334c0,7.758-6.311,14.07-14.07,14.07s-14.07-6.312-14.07-14.07v-27.869
		c0-8.938-6.949-16.532-15.819-17.287c-49.791-4.238-93.213,17.356-140.232,21.994c-6.866,0.677-13.493-2.513-17.315-8.325
		c-3.307-5.027-6.755-10.101-10.25-15.078C91,76.943,95.358,54.137,114.749,44.823C157.689,24.198,201.251,15,255.994,15
		c33.219,0,62.411,3.448,89.245,10.542c4.005,1.061,8.109-1.33,9.168-5.334c1.059-4.005-1.329-8.109-5.334-9.168
		C320.971,3.611,290.524,0,255.994,0c-57.106,0-102.67,9.654-147.739,31.302C80.746,44.516,73.254,77.771,89.59,101.04
		c3.407,4.854,6.77,9.801,9.994,14.703c6.173,9.385,16.442,14.955,27.438,15.148c16.784,28.501,29.338,56.155,37.411,82.39
		c-14.086,2.729-26.568,11.278-33.898,23.66c-12.942,21.859-19.504,49.826-19.504,83.122c0,30.741,6.053,64.309,23.766,89.757
		c7.408,10.643,19.396,17.219,32.398,17.898c-2.775,12.526-6.504,24.213-11.157,34.814c-8.639,19.683,1.958,41.964,21.646,47.956
		c3.948,1.2,8.147-1.013,9.359-4.992c1.206-3.963-1.029-8.153-4.992-9.359c-10.878-3.31-17.409-15.887-12.277-27.576
		c5.441-12.396,9.725-26.088,12.766-40.775h146.911c3.04,14.684,7.324,28.376,12.766,40.775c5.786,13.185-3.345,28.44-18.193,28.44
		h-108.71c-4.142,0-7.5,3.358-7.5,7.5s3.358,7.5,7.5,7.5h108.71c25.33,0,42.2-26.068,31.928-49.469
		c-4.653-10.603-8.383-22.29-11.157-34.814c13.002-0.679,24.989-7.255,32.398-17.898c17.684-25.406,23.766-58.936,23.766-89.757
		c0-33.297-6.563-61.264-19.504-83.122c-7.33-12.382-19.813-20.931-33.898-23.66c8.076-26.243,20.636-53.906,37.427-82.416
		c11.061-0.269,21.33-5.865,27.505-15.246c3.205-4.869,6.54-9.773,9.913-14.578C439.07,77.292,430.55,44.256,404.395,31.621z
		 M268.39,108.777c1.174,0.1,2.093,1.128,2.093,2.341v27.869c0,7.721,3.031,14.742,7.958,19.953
		c-3.382,15.023-6.971,34.743-7.781,53.401h-34.535c-1.391-31.261-10.95-70.845-20.685-99.234
		C234.084,109.217,250.098,107.217,268.39,108.777z M143.351,129.149c19.398-3.017,38.538-8.242,57.367-12.73
		c9.494,27.214,18.969,65.738,20.395,95.921h-41.285C171.993,185.758,159.743,157.842,143.351,129.149z M364.881,401.25
		c-5.028,7.223-13.371,11.535-22.317,11.535H169.425c-8.947,0-17.29-4.312-22.316-11.535c-6.993-10.046-14.957-26.175-18.784-50.404
		h255.34C379.837,375.075,371.873,391.204,364.881,401.25z M385.384,335.846h-258.78c-0.759-10.259-0.772-21.08,0.011-31.567
		h258.758C386.153,314.72,386.147,325.545,385.384,335.846z M368.545,244.583c7.298,12.326,12.379,27.479,15.098,44.696H128.346
		c2.718-17.217,7.799-32.371,15.097-44.697c10.725-18.116,30.875-17.282,30.719-17.24c1.546,0,168.063,0.001,163.679-0.001
		C350.488,227.348,362.252,233.952,368.545,244.583z M332.16,212.34h-46.49c0.723-15.469,3.491-31.845,6.348-45.279
		c18.519,4.976,36.605-9.075,36.605-28.074v-15.334c0-1.534,1.434-2.644,2.909-2.283c11.352,2.768,24.118,5.752,37.107,7.774
		C352.247,157.838,339.996,185.757,332.16,212.34z"/>
</g>
<g>
</g>
<g>
</g>
<g>
</g>
<g>
</g>
<g>
</g>
<g>
</g>
<g>
</g>
<g>
</g>
<g>
</g>
<g>
</g>
<g>
</g>
<g>
</g>
<g>
</g>
<g>
</g>
<g>
</g>
</svg>
