<?xml version="1.0" encoding="iso-8859-1"?>
<!-- Generator: Adobe Illustrator 23.1.0, SVG Export Plug-In . SVG Version: 6.00 Build 0)  -->
<svg version="1.1" id="Capa_1" xmlns="http://www.w3.org/2000/svg" xmlns:xlink="http://www.w3.org/1999/xlink" x="0px" y="0px"
	 viewBox="0 0 512 512" style="enable-background:new 0 0 512 512;" xml:space="preserve">
<g>
	<path d="M445.047,152.012h-10.725v-20.245h12.605c16.696,0,30.28-13.584,30.28-30.28V72.281c0-27.417-22.305-49.721-49.721-49.721
		H113.589c-4.143,0-7.5,3.358-7.5,7.5s3.357,7.5,7.5,7.5h313.898c19.146,0,34.721,15.576,34.721,34.721v29.206
		c0,8.426-6.855,15.28-15.28,15.28h-68.643V77.163c0-4.142-3.357-7.5-7.5-7.5c-4.143,0-7.5,3.358-7.5,7.5v39.604H263.5V77.163
		c0-4.142-3.357-7.5-7.5-7.5c-4.143,0-7.5,3.358-7.5,7.5v39.604h-99.784V77.163c0-4.142-3.357-7.5-7.5-7.5
		c-4.143,0-7.5,3.358-7.5,7.5v39.604H65.072c-8.426,0-15.28-6.854-15.28-15.28V72.281c0-17.195,12.303-31.618,29.254-34.294
		c4.092-0.646,6.885-4.486,6.238-8.578c-0.646-4.091-4.482-6.881-8.578-6.238C52.42,27.005,34.792,47.659,34.792,72.281v29.206
		c0,16.697,13.584,30.28,30.28,30.28h12.605v20.245H66.953C30.035,152.012,0,182.047,0,218.965v203.523
		c0,36.918,30.035,66.953,66.953,66.953h354.435c4.143,0,7.5-3.358,7.5-7.5s-3.357-7.5-7.5-7.5h-83.12v-44.987h106.779
		c20.945,0,39.667-9.674,51.953-24.781v17.815c0,24.443-17.331,45.825-41.208,50.842c-4.054,0.852-6.649,4.829-5.798,8.882
		c0.852,4.054,4.829,6.648,8.882,5.798C489.658,481.541,512,453.985,512,422.487V218.965
		C512,182.047,481.965,152.012,445.047,152.012z M92.678,131.767h326.645v20.245H92.678V131.767z M248.5,249.025
		c-18.611-12.231-42.288-11.279-59.768,0.844v-82.857H248.5V249.025z M263.5,167.012h59.768v82.857
		c-17.481-12.126-41.159-13.072-59.768-0.844V167.012z M173.732,474.44H66.953C38.306,474.44,15,451.134,15,422.487v-17.815
		c12.286,15.107,31.008,24.781,51.953,24.781h106.779V474.44z M173.732,414.453H66.953C38.306,414.453,15,391.147,15,362.5V218.965
		c0-28.647,23.306-51.953,51.953-51.953h106.779v99.17c-10.689,17.848-17.186,42.339-42.8,49.15
		c-14.513,3.859-17.385,23.247-4.619,31.201c11.043,6.88,27.461,14.625,47.419,16.582V414.453z M248.5,474.44h-59.768V363.425
		c21.385-1.209,41.426-9.447,59.768-24.531V474.44z M323.268,474.44H263.5V338.894c18.342,15.084,38.382,23.322,59.768,24.531
		V474.44z M330.768,348.551c-0.345,0-0.682,0.031-1.015,0.077c-20.465,0.316-44.463-7.102-68.323-32.14
		c-2.95-3.095-7.899-3.105-10.859,0c-23.863,25.04-47.863,32.456-68.33,32.139c-2.043-0.275-23.165,0.646-47.996-14.826
		c-1.617-1.008-1.294-3.485,0.543-3.974c38.532-10.246,43.973-50.005,57.199-63.232c13.74-13.738,36.2-15.453,51.895-2.36
		c7.022,5.857,17.214,5.857,24.236,0c15.746-13.135,38.2-11.331,51.893,2.36c13.244,13.242,18.647,52.98,57.2,63.232
		c1.833,0.487,2.162,2.965,0.543,3.974C361.748,343.775,344.044,348.551,330.768,348.551z M497,362.5
		c0,28.647-23.306,51.953-51.953,51.953H338.268v-51.347c19.958-1.956,36.377-9.694,47.419-16.574
		c12.743-7.94,9.917-27.336-4.619-31.201c-25.585-6.803-32.028-31.165-42.8-49.15v-99.17h106.779
		c28.647,0,51.953,23.306,51.953,51.953V362.5z"/>
</g>
<g>
</g>
<g>
</g>
<g>
</g>
<g>
</g>
<g>
</g>
<g>
</g>
<g>
</g>
<g>
</g>
<g>
</g>
<g>
</g>
<g>
</g>
<g>
</g>
<g>
</g>
<g>
</g>
<g>
</g>
</svg>
