<?xml version="1.0" encoding="iso-8859-1"?>
<!-- Generator: Adobe Illustrator 23.1.0, SVG Export Plug-In . SVG Version: 6.00 Build 0)  -->
<svg version="1.1" id="Capa_1" xmlns="http://www.w3.org/2000/svg" xmlns:xlink="http://www.w3.org/1999/xlink" x="0px" y="0px"
	 viewBox="0 0 512.002 512.002" style="enable-background:new 0 0 512.002 512.002;" xml:space="preserve">
<g>
	<path d="M341.759,279.261l-62.498,62.498c-2.929,2.929-2.929,7.678,0,10.606c2.929,2.929,7.678,2.929,10.606,0l62.498-62.497
		c2.929-2.929,2.929-7.678,0-10.607C349.437,276.332,344.688,276.332,341.759,279.261z M502.601,226.289
		c-6.731-4.349,9.675,6.251-30.031-19.405l23.13-23.13c12.396-12.396,12.396-32.566,0-44.962L373.209,16.301
		c-12.396-12.396-32.565-12.395-44.962,0l-23.13,23.13c-7.237-11.2-11.121-17.211-19.404-30.03
		c-7.111-11.006-22.55-12.626-31.797-3.379L45.559,214.378c-2.929,2.929-2.929,7.678,0,10.606c2.929,2.929,7.678,2.929,10.606,0
		L264.522,16.628c2.503-2.503,6.669-2.061,8.592,0.913l8.133,12.587L30.128,281.247l-12.587-8.133
		c-2.974-1.922-3.417-6.087-0.913-8.592l14.16-14.16c2.929-2.929,2.929-7.678,0-10.606c-2.929-2.929-7.678-2.929-10.606,0
		l-14.16,14.16c-9.266,9.266-7.606,24.7,3.378,31.797c11.243,7.265,18.792,12.142,30.031,19.404l-23.13,23.13
		c-12.396,12.396-12.396,32.566,0,44.962L138.793,495.7c12.397,12.397,32.567,12.395,44.962,0l23.13-23.13
		c25.397,39.305,16.872,26.111,19.404,30.03c7.11,11.004,22.546,12.631,31.797,3.379l201.023-201.023
		c2.929-2.929,2.929-7.678,0-10.607c-2.929-2.929-7.678-2.929-10.606,0L247.479,495.373c-2.51,2.509-6.673,2.056-8.591-0.913
		l-8.133-12.587l251.119-251.119l12.587,8.133c2.974,1.921,3.417,6.087,0.913,8.591l-21.284,21.284
		c-2.929,2.929-2.929,7.678,0,10.606c2.929,2.929,7.678,2.929,10.606,0l21.284-21.284
		C515.246,248.819,513.586,233.386,502.601,226.289z M222.428,468.987l-7.983-12.354c-2.593-4.015-8.231-4.605-11.603-1.233
		l-29.694,29.694c-6.548,6.547-17.201,6.547-23.749,0L26.907,362.602c-6.547-6.547-6.547-17.201,0-23.749l29.694-29.694
		c3.379-3.379,2.773-9.015-1.233-11.603l-12.355-7.983L289.574,43.014l7.983,12.354c2.578,3.991,8.211,4.627,11.603,1.233
		l29.694-29.694c6.548-6.548,17.201-6.548,23.749,0l122.492,122.492c6.547,6.547,6.547,17.201,0,23.749L455.4,202.842
		c-3.379,3.379-2.773,9.015,1.233,11.602l12.354,7.983L222.428,468.987z M348.512,120.563l-8.572,8.572
		c-11.6-6.634-26.757-5-36.585,4.828c-9.829,9.829-11.463,24.986-4.828,36.586l-30.648,30.648
		c-39.828-8.635-75.315,26.851-66.68,66.68l-30.648,30.648c-11.601-6.636-26.757-5-36.586,4.828
		c-9.829,9.829-11.463,24.986-4.828,36.585l-8.572,8.573c-11.835,11.835-11.835,31.091,0,42.926
		c11.834,11.834,31.09,11.835,42.926,0l8.572-8.572c11.599,6.633,26.756,5,36.585-4.828c9.829-9.829,11.463-24.986,4.828-36.586
		l30.648-30.648c39.828,8.637,75.315-26.852,66.68-66.68l30.648-30.648c11.6,6.634,26.758,4.999,36.586-4.828
		c9.829-9.829,11.463-24.986,4.828-36.586l8.572-8.572c11.835-11.835,11.835-31.091,0-42.926
		C379.603,108.728,360.347,108.729,348.512,120.563z M380.831,152.883l-13.134,13.134c-2.894,2.893-2.934,7.572-0.09,10.515
		c5.78,5.982,5.701,15.631-0.176,21.509c-5.878,5.878-15.527,5.957-21.51,0.176c-2.942-2.844-7.622-2.803-10.515,0.09l-38.239,38.24
		c-1.957,1.957-2.677,4.833-1.874,7.482c9.543,31.437-19.833,60.803-51.266,51.265c-2.648-0.803-5.524-0.083-7.481,1.874
		l-38.239,38.239c-2.893,2.893-2.934,7.572-0.09,10.515c5.78,5.983,5.701,15.632-0.176,21.509
		c-5.878,5.877-15.527,5.956-21.509,0.177c-2.943-2.844-7.622-2.803-10.515,0.09l-13.134,13.134c-5.986,5.987-15.726,5.986-21.713,0
		c-5.986-5.986-5.986-15.727,0-21.713l13.134-13.134c2.894-2.893,2.934-7.572,0.09-10.515c-9.283-9.609-2.607-25.97,11.02-25.97
		c3.852,0,7.708,1.426,10.667,4.284c2.943,2.844,7.622,2.804,10.515-0.09l38.239-38.239c1.957-1.957,2.677-4.833,1.874-7.481
		c-9.544-31.44,19.838-60.805,51.265-51.266c2.65,0.803,5.525,0.083,7.482-1.874l38.239-38.239c2.894-2.893,2.934-7.572,0.09-10.515
		c-5.78-5.983-5.701-15.632,0.176-21.509c5.877-5.878,15.526-5.956,21.509-0.177c2.944,2.844,7.623,2.804,10.515-0.09l13.134-13.134
		c5.986-5.986,15.727-5.986,21.713,0C386.818,137.156,386.818,146.896,380.831,152.883z"/>
</g>
<g>
</g>
<g>
</g>
<g>
</g>
<g>
</g>
<g>
</g>
<g>
</g>
<g>
</g>
<g>
</g>
<g>
</g>
<g>
</g>
<g>
</g>
<g>
</g>
<g>
</g>
<g>
</g>
<g>
</g>
</svg>
