<?xml version="1.0" encoding="iso-8859-1"?>
<!-- Generator: Adobe Illustrator 23.1.0, SVG Export Plug-In . SVG Version: 6.00 Build 0)  -->
<svg version="1.1" id="Capa_1" xmlns="http://www.w3.org/2000/svg" xmlns:xlink="http://www.w3.org/1999/xlink" x="0px" y="0px"
	 viewBox="0 0 512 512" style="enable-background:new 0 0 512 512;" xml:space="preserve">
<g>
	<path d="M292.028,272.035c0-4.157-3.37-7.527-7.527-7.527s-7.527,3.37-7.527,7.527c0,4.157,3.37,7.527,7.527,7.527
		S292.028,276.192,292.028,272.035z M367.868,466.548c27.892,0,50.583-25.155,50.583-56.074c0-30.919-22.691-56.074-50.583-56.074
		c-27.892,0-50.584,25.155-50.584,56.074C317.284,441.394,339.976,466.548,367.868,466.548z M367.868,369.401
		c19.621,0,35.583,18.426,35.583,41.074c0,22.648-15.963,41.074-35.583,41.074c-19.621,0-35.584-18.426-35.584-41.074
		C332.284,387.827,348.247,369.401,367.868,369.401z M167.309,271.327c-19.722-19.723-53.555-17.981-75.418,3.882
		c-21.863,21.863-23.604,55.695-3.882,75.418c20.164,20.165,54.052,17.483,75.418-3.882
		C185.29,324.882,187.031,291.049,167.309,271.327z M98.615,340.021c-13.873-13.874-12.132-38.19,3.882-54.205
		c14.959-14.958,39.459-18.628,54.204-3.882c14.472,14.472,11.429,38.894-3.882,54.205
		C136.805,352.153,112.49,353.894,98.615,340.021z M476.88,79.699c-7.172-7.173-21.033-4.419-46.346,9.207
		c-3.647,1.964-5.012,6.512-3.049,10.159c1.963,3.647,6.511,5.01,10.159,3.049c17.515-9.43,25.197-11.066,28.068-11.263
		c-0.131,1.745-0.811,5.272-3.473,11.7c-56.39,33.936-128.096,100.404-183.6,125.509c14.724-23.297,79.272-75.535,128.588-107.653
		c3.471-2.261,4.452-6.907,2.191-10.378c-2.261-3.47-6.907-4.452-10.378-2.191c-21.115,13.752-44.844,31.013-66.545,48.344
		c-3.745-33.461-9.609-68.398-16.148-95.798C303.65,7.174,293.108,0,284.47,0c-4.385,0-8.435,2.302-12.038,6.841
		c-24.333,30.661-46.77,203.241-37.382,243.492c0.481,2.062,0.998,4.112,1.546,6.141c-5.881,1.937-12.856,2.406-21.312,1.097
		c-1.386-0.214-2.578-1.009-3.271-2.18c-29.951-50.6-102.654-54.662-148.628-8.688c-38.513,38.513-44.05,99.53-7.515,136.064
		c10.669,10.668,24.212,18.258,39.168,21.948c4.01,0.99,8.084-1.453,9.079-5.485c0.992-4.022-1.463-8.086-5.485-9.079
		c-56.497-13.94-71.107-86.375-24.64-132.842c39.308-39.307,100.328-36.147,125.114,5.723c2.987,5.046,8.048,8.459,13.884,9.362
		c24.954,3.864,42.654-3.836,55.665-24.344c53.364-17.347,121.998-78.999,179.479-118.496
		c-31.681,53.198-96.947,134.258-121.24,149.364c-37.635,23.4-71.021,23.841-99.363,22.411c-9.594-0.482-18.307,6.283-20.23,15.741
		c-7.485,36.813-38.518,67.505-75.971,74.028c-4.081,0.71-6.813,4.595-6.102,8.676c0.706,4.053,4.566,6.816,8.676,6.102
		c43.656-7.604,79.406-43.073,88.096-85.817c0.458-2.251,2.51-3.862,4.777-3.748c12.344,0.62,25.585,0.905,39.7-0.657
		c9.142,11.413,18.974,20.767,27.535,28.506c1.683,1.522,1.996,4.113,0.728,6.028c-11.624,17.558-17.768,38.405-17.768,60.287
		c0,55.981,40.777,101.525,90.898,101.525c50.121,0,90.898-45.544,90.898-101.525c0-65.324-54.552-113.482-111.239-98.953
		c-1.318,0.337-2.724,0.057-3.855-0.771c-6.784-4.965-11.516-10.183-14.345-15.827c1.82-1.046,3.647-2.124,5.487-3.268
		c34.944-21.728,141.259-159.655,145.741-198.608C481.217,87.29,479.981,82.8,476.88,79.699z M284.485,15.777
		c2.575,2.932,9.529,13.973,18.47,53.224c6.516,28.603,12.308,65.133,15.654,98.518c-5.22,4.36-10.245,8.675-14.998,12.892
		c-9.038-51.67-14.078-110.17-24.948-153.9C281.33,20.075,283.344,17.101,284.485,15.777z M264.775,222.014
		c-1.186,2.085-5.623,16.525-14.852,26.007c-0.088-0.365-0.18-0.729-0.266-1.095c-6.458-27.691,4.554-130.867,19.886-191.346
		c7.75,41.789,12.561,91.97,21.013,136.824C278.333,204.086,269.093,214.434,264.775,222.014z M334.814,322.856
		c4.765,3.486,10.756,4.651,16.437,3.196c47.329-12.129,92.516,29.044,92.516,84.422c0,47.71-34.048,86.525-75.898,86.525
		c-41.851,0-75.898-38.815-75.898-86.525c0-18.928,5.282-36.912,15.276-52.006c5.327-8.046,3.962-18.981-3.175-25.435
		c-6.373-5.762-13.475-12.466-20.35-20.213c10.342-2.285,21.107-5.769,32.287-10.964
		C319.903,309.561,326.112,316.487,334.814,322.856z"/>
</g>
<g>
</g>
<g>
</g>
<g>
</g>
<g>
</g>
<g>
</g>
<g>
</g>
<g>
</g>
<g>
</g>
<g>
</g>
<g>
</g>
<g>
</g>
<g>
</g>
<g>
</g>
<g>
</g>
<g>
</g>
</svg>
