<?xml version="1.0" encoding="iso-8859-1"?>
<!-- Generator: Adobe Illustrator 23.1.0, SVG Export Plug-In . SVG Version: 6.00 Build 0)  -->
<svg version="1.1" id="Capa_1" xmlns="http://www.w3.org/2000/svg" xmlns:xlink="http://www.w3.org/1999/xlink" x="0px" y="0px"
	 viewBox="0 0 512.014 512.014" style="enable-background:new 0 0 512.014 512.014;" xml:space="preserve">
<g>
	<path d="M270.517,133.187c2.93,2.929,7.678,2.929,10.607,0c2.929-2.929,2.929-7.678,0-10.606c-9.855-9.856-25.893-9.855-35.748,0
		c-9.855,9.856-9.855,25.891,0,35.747c2.929,2.929,7.678,2.929,10.607,0c2.929-2.929,2.929-7.678,0-10.607
		c-4.007-4.007-4.007-10.527,0-14.534C259.991,129.18,266.511,129.18,270.517,133.187z M186.981,210.228
		c-4.13-0.293-7.712,2.836-7.996,6.969c-0.284,4.132,2.836,7.712,6.969,7.996c10.62,0.729,21.037-3.156,28.571-10.69
		c7.524-7.524,11.42-17.938,10.69-28.571c-0.284-4.133-3.872-7.245-7.996-6.969c-4.132,0.284-7.252,3.864-6.969,7.996
		c0.433,6.307-1.874,12.48-6.332,16.937C199.461,208.353,193.29,210.661,186.981,210.228z M43.823,389.614
		c-38.419-38.419-38.426-100.608,0-139.034L250.602,43.801c29.565-29.566,74.704-37.208,112.323-19.018
		c3.728,1.803,8.214,0.241,10.017-3.487c1.804-3.729,0.242-8.213-3.487-10.017C326.094-9.688,274.069-0.88,239.996,33.194
		L33.216,239.974c-44.282,44.281-44.288,115.958,0,160.247l41.447,41.447c2.929,2.929,7.678,2.929,10.606,0
		c2.929-2.929,2.929-7.678,0-10.606L43.823,389.614z M330.126,65.371l-19.308,19.308c-2.929,2.929-2.929,7.678,0,10.606
		c2.93,2.929,7.678,2.929,10.608,0l19.308-19.308c2.929-2.929,2.929-7.678,0-10.607C337.803,62.442,333.055,62.442,330.126,65.371z
		 M126.722,245.286c-2.929,2.929-2.929,7.678,0,10.606l10.847,10.847c2.929,2.929,7.678,2.929,10.606,0
		c2.929-2.929,2.929-7.678,0-10.607l-10.847-10.847C134.4,242.357,129.651,242.357,126.722,245.286z M501.754,134.705
		L400.243,33.194c-2.93-2.929-7.678-2.929-10.607,0c-2.929,2.929-2.929,7.678,0,10.606l101.511,101.511
		c7.829,7.829,7.829,20.568,0,28.398c-7.846,7.848-20.549,7.848-28.397,0l-40.94-40.939c-7.939-7.94-20.859-7.939-28.801,0
		l-22.155,22.156c-7.94,7.94-7.939,20.86,0,28.8l40.939,40.939c7.829,7.83,7.829,20.569,0.001,28.398
		c-7.831,7.83-20.569,7.829-28.398,0.001l-40.939-40.939c-7.958-7.958-20.842-7.96-28.802,0L291.5,234.28
		c-7.938,7.94-7.938,20.859,0,28.8l40.939,40.939c7.849,7.851,7.848,20.549-0.001,28.398c-7.828,7.829-20.568,7.829-28.397,0
		l-40.94-40.939c-7.96-7.959-20.841-7.96-28.8,0l-22.155,22.155c-7.958,7.958-7.961,20.841,0,28.8l40.938,40.939
		c7.849,7.849,7.849,20.549,0,28.398c-7.829,7.829-20.569,7.829-28.398,0l-40.939-40.939c-7.96-7.96-20.841-7.96-28.801,0
		l-22.155,22.155c-7.958,7.957-7.96,20.841,0,28.8l40.939,40.939c7.829,7.83,7.829,20.569,0,28.398
		c-7.848,7.847-20.549,7.848-28.398,0l-35.379-35.379c-2.929-2.929-7.678-2.929-10.606,0c-2.929,2.929-2.929,7.678,0,10.607
		l35.379,35.379c13.708,13.709,35.899,13.711,49.611,0c13.677-13.678,13.677-35.934,0-49.611l-40.939-40.938
		c-2.097-2.097-2.097-5.491,0-7.587l22.155-22.155c2.098-2.097,5.49-2.098,7.587,0l40.939,40.939
		c13.679,13.678,35.934,13.678,49.61,0c13.711-13.709,13.714-35.9,0.001-49.611l-40.939-40.94c-2.097-2.096-2.097-5.489,0-7.587
		l22.155-22.155c2.097-2.097,5.49-2.097,7.587,0l40.939,40.939c13.678,13.678,35.933,13.677,49.61,0
		c13.711-13.708,13.714-35.9,0.001-49.611l-40.939-40.938c-2.092-2.092-2.092-5.496,0-7.588l22.155-22.155
		c2.094-2.096,5.491-2.098,7.587,0l40.939,40.939c13.678,13.678,35.933,13.677,49.612-0.001c13.677-13.677,13.677-35.933,0-49.611
		l-40.939-40.939c-2.092-2.092-2.092-5.496,0-7.587l22.154-22.155c2.093-2.091,5.497-2.093,7.588-0.001l40.94,40.939
		c13.709,13.709,35.9,13.712,49.611,0C515.43,170.638,515.43,148.382,501.754,134.705z M95.308,310.796
		c-2.928-2.929-7.677-2.929-10.606,0l-19.309,19.308c-2.929,2.929-2.929,7.677,0,10.607c2.928,2.929,7.677,2.929,10.606,0
		l19.309-19.308C98.237,318.474,98.237,313.725,95.308,310.796z"/>
</g>
<g>
</g>
<g>
</g>
<g>
</g>
<g>
</g>
<g>
</g>
<g>
</g>
<g>
</g>
<g>
</g>
<g>
</g>
<g>
</g>
<g>
</g>
<g>
</g>
<g>
</g>
<g>
</g>
<g>
</g>
</svg>
