<?xml version="1.0" encoding="iso-8859-1"?>
<!-- Generator: Adobe Illustrator 23.1.0, SVG Export Plug-In . SVG Version: 6.00 Build 0)  -->
<svg version="1.1" id="Capa_1" xmlns="http://www.w3.org/2000/svg" xmlns:xlink="http://www.w3.org/1999/xlink" x="0px" y="0px"
	 viewBox="0 0 512.018 512.018" style="enable-background:new 0 0 512.018 512.018;" xml:space="preserve">
<g>
	<path d="M177.324,363.21c2.929-2.929,2.929-7.678,0-10.607L159.4,334.681c-2.93-2.93-7.678-2.929-10.607,0
		c-2.929,2.929-2.929,7.678,0,10.606l17.924,17.923C169.647,366.139,174.394,366.139,177.324,363.21z M101.011,382.463
		c-2.929,2.929-2.929,7.677,0,10.606l17.923,17.923c2.93,2.93,7.678,2.928,10.607,0c2.929-2.929,2.929-7.677,0-10.607
		l-17.923-17.923C108.688,379.534,103.94,379.534,101.011,382.463z M77.119,406.355c-2.929,2.929-2.929,7.678,0,10.606
		l17.924,17.923c2.93,2.93,7.678,2.928,10.607,0c2.929-2.929,2.929-7.678,0-10.607l-17.924-17.923
		C84.797,403.426,80.049,403.426,77.119,406.355z M124.902,358.572c-2.929,2.929-2.929,7.677,0,10.606l17.923,17.923
		c2.93,2.93,7.678,2.928,10.607,0c2.929-2.929,2.929-7.677,0-10.607l-17.923-17.923
		C132.581,355.643,127.833,355.642,124.902,358.572z M278.125,46.645l-36.759,36.759c-6.096,6.096-6.096,16.015,0,22.112
		l165.122,165.122c0.001,0,0.001,0.001,0.001,0.001c6.095,6.095,16.014,6.095,22.112-0.001l36.759-36.759
		c6.096-6.096,6.096-16.015,0-22.112L300.238,46.645C294.129,40.535,284.238,40.533,278.125,46.645z M417.995,260.03
		c-0.898,0.898,10.381,10.851-166.021-165.121c-0.248-0.248-0.248-0.652,0-0.9l13.076-13.076L431.07,246.955L417.995,260.03z
		 M454.753,223.272l-13.076,13.076L275.656,70.327c14.262-14.262,13.133-13.262,13.525-13.262c0.264,0,0.403,0.14,0.449,0.186
		C460.752,228.79,455.643,222.384,454.753,223.272z M500.003,193.87l-12.361-12.362c-2.929-2.929-7.678-2.93-10.607,0
		c-2.93,2.929-2.93,7.677-0.001,10.607l12.361,12.362c10.139,10.138,10.143,26.552,0,36.693l-53.504,53.504
		c-10.139,10.139-26.553,10.141-36.693,0c-2.673-2.673-178.956-178.957-181.867-181.868c-10.139-10.138-10.143-26.552,0-36.693
		l53.504-53.504c10.14-10.14,26.553-10.141,36.693,0l144.129,144.129c2.929,2.929,7.677,2.929,10.607,0
		c2.929-2.929,2.929-7.678,0-10.606L318.136,12.002c-16.004-16.003-41.904-16.004-57.908,0l-53.504,53.504
		c-16.001,16-16.003,41.902,0,57.906l64.484,64.484l-48.535,48.535l-0.625-0.626c-10.357-10.355-27.205-10.355-37.563,0
		L43.493,376.797c-2.929,2.929-2.929,7.678,0,10.606c2.93,2.929,7.678,2.929,10.607,0l90.562-90.561
		c22.004,0.295,41.494,6.906,52.543,17.956c11.051,11.05,17.662,30.539,17.958,52.543L92.869,489.637
		c-9.837,9.836-25.759,9.84-35.598,0l-34.903-34.903c-9.836-9.835-9.84-25.758-0.001-35.597l6.699-6.699
		c2.93-2.929,2.93-7.678,0.001-10.607c-2.929-2.928-7.678-2.929-10.606,0l-6.7,6.699c-15.662,15.663-15.662,41.148,0,56.811
		l34.903,34.903c15.7,15.699,41.109,15.701,56.812,0L276.198,327.52c10.355-10.356,10.355-27.206,0-37.561l-0.626-0.626
		l48.535-48.536l64.483,64.483c16.002,16.001,41.903,16.004,57.908,0l53.504-53.504C516.003,235.775,516.006,209.874,500.003,193.87
		z M265.591,316.913l-36.367,36.367c-2.519-20.284-9.978-37.655-21.411-49.089c-11.431-11.431-28.816-18.894-49.087-21.413
		l36.366-36.366c4.517-4.518,11.831-4.518,16.348,0c8.452,8.454-3.731-3.73,54.151,54.152
		C270.099,305.072,270.099,312.406,265.591,316.913z M264.965,278.725l-31.686-31.687l48.535-48.535L313.5,230.19L264.965,278.725z"
		/>
</g>
<g>
</g>
<g>
</g>
<g>
</g>
<g>
</g>
<g>
</g>
<g>
</g>
<g>
</g>
<g>
</g>
<g>
</g>
<g>
</g>
<g>
</g>
<g>
</g>
<g>
</g>
<g>
</g>
<g>
</g>
</svg>
