<?xml version="1.0" encoding="iso-8859-1"?>
<!-- Generator: Adobe Illustrator 23.1.0, SVG Export Plug-In . SVG Version: 6.00 Build 0)  -->
<svg version="1.1" id="Capa_1" xmlns="http://www.w3.org/2000/svg" xmlns:xlink="http://www.w3.org/1999/xlink" x="0px" y="0px"
	 viewBox="0 0 512.007 512.007" style="enable-background:new 0 0 512.007 512.007;" xml:space="preserve">
<g>
	<path d="M318.348,213.031c-2.929,2.929-2.929,7.678,0,10.606l12.814,12.814c1.464,1.464,3.384,2.197,5.303,2.197
		c1.919,0,3.839-0.732,5.303-2.197c2.929-2.929,2.929-7.678,0-10.606l-12.814-12.814
		C326.025,210.103,321.276,210.103,318.348,213.031z M373.378,219.704c1.92,0,3.839-0.732,5.303-2.197
		c2.929-2.929,2.929-7.678,0-10.606l-30.783-30.783c-2.929-2.929-7.678-2.929-10.606,0c-2.929,2.929-2.929,7.678,0,10.606
		l30.783,30.783C369.54,218.972,371.459,219.704,373.378,219.704z M83.618,202.399c-4.142,0-7.5,3.358-7.5,7.5v10.22
		c0,4.142,3.358,7.5,7.5,7.5c4.142,0,7.5-3.358,7.5-7.5v-10.22C91.118,205.757,87.76,202.399,83.618,202.399z M444.915,120.491
		l29.864-29.864c2.929-2.929,2.929-7.678,0-10.606c-2.929-2.929-7.678-2.929-10.606,0l-29.864,29.864
		c-2.929,2.929-2.929,7.678,0,10.606C437.237,123.421,441.986,123.42,444.915,120.491z M503.449,66.162L488.637,51.35
		c-11.408-11.409-29.875-11.411-41.286,0l-3.317,3.317c-2.929,2.929-2.929,7.678,0,10.606c2.929,2.929,7.678,2.929,10.606,0
		l3.317-3.317c5.547-5.546,14.525-5.548,20.073,0l14.812,14.813c5.546,5.545,5.548,14.524,0,20.072l-39.384,39.385
		c-19.018,19.018-19.539,36.881-19.999,52.642c-0.407,13.925-0.791,27.078-13.402,42.332c-3.906,4.724-8.482,9.849-13.62,15.299
		c-26.434-0.502-70.629,12.735-135.746,74.639c-3.065,2.914-7.801,2.862-10.782-0.118l-9.611-9.611
		c18.831-10.132,28.664-28.89,28.664-48.279c0-8.615-2.346-17.036-6.254-25.788c23.801-33.418,36.027-64.011,35.58-88.969
		c5.59-5.268,10.701-9.822,15.311-13.633c15.254-12.611,28.407-12.996,42.332-13.402c15.76-0.46,33.624-0.981,52.641-19.999
		l10.808-10.807c2.929-2.929,2.929-7.677,0-10.606c-2.929-2.93-7.678-2.929-10.606,0l-10.808,10.807
		c-14.804,14.804-27.626,15.178-42.472,15.612c-15.106,0.441-32.228,0.941-51.453,16.835
		c-17.039,14.088-39.409,36.572-68.226,68.582c-11.727-18.811-23.938-40.156-32.766-66.819c-6.64-20.054-16.886-37.23-29.63-49.67
		c-13.402-13.082-28.596-19.997-43.938-19.997c-15.342,0-30.536,6.915-43.938,19.997c-12.745,12.44-22.991,29.616-29.631,49.67
		c-10.603,32.024-26.088,56.39-39.751,77.888C11.545,225.832,0,243.998,0,263.132c0,15.871,6.626,30.824,18.179,41.024
		c6.618,5.843,17.025,12.075,32.477,14.312c-1.744,2.94-1.303,6.794,1.278,9.25c3.006,2.862,7.754,2.732,10.604-0.261
		c2.71-2.847,5.234-5.655,7.535-8.382c4.226-0.294,7.555-0.723,10.904-1.321c-0.85,1.824-1.789,3.665-2.844,5.536
		c-2.035,3.608-0.759,8.182,2.849,10.217c3.608,2.035,8.182,0.76,10.217-2.849c2.654-4.706,4.77-9.305,6.39-13.9
		c9.989,5.641,21.415,9.3,33.574,10.458c-13.054,15.987-24.289,29.831-34.643,42.54c-15.726,19.304-14.304,47.142,3.306,64.752
		l20.465,20.465c15.02,15.02,37.845,18.639,56.857,8.547c3.658-1.942,5.05-6.482,3.108-10.141
		c-1.942-3.658-6.483-5.049-10.141-3.108c-13.015,6.909-28.776,4.537-39.218-5.905l-20.465-20.465
		c-12.15-12.15-13.131-31.354-2.282-44.672c9.562-11.738,18.192-22.37,29.508-36.247c5.561,16.262-1.302,36.765,18.046,56.113
		c19.322,19.322,39.899,12.499,56.118,18.047c-5.208,4.245-10.18,8.29-14.848,12.089c-3.213,2.614-3.698,7.338-1.083,10.551
		c2.606,3.202,7.329,3.705,10.551,1.084c54.227-44.127,181.156-146.865,225.179-200.111c15.894-19.225,16.394-36.346,16.835-51.452
		c0.433-14.847,0.808-27.668,15.612-42.473l39.384-39.384C514.858,96.04,514.86,77.573,503.449,66.162z M291.694,164.683
		c-2.941,14.376-10.458,33.411-26.829,57.649c-3.226-5.536-6.853-11.294-10.723-17.389
		C268.017,189.46,280.557,176.017,291.694,164.683z M76.165,265.851c-0.837-4.057-4.803-6.664-8.861-5.83
		c-4.057,0.837-6.667,4.804-5.83,8.861c2.667,12.925,9.057,24.498,18.041,33.89c-17.235,3.375-37.964,2.009-51.409-9.861
		C19.777,285.557,15,274.703,15,263.132c0-14.771,10.512-31.312,23.821-52.253c13.43-21.132,30.144-47.432,41.331-81.219
		c11.76-35.518,35.603-59.381,59.329-59.381c23.727,0,47.57,23.863,59.329,59.381c21.976,66.372,65.152,103.589,65.152,133.472
		c0,11.571-4.777,22.425-13.107,29.779c-13.449,11.873-34.188,13.233-51.409,9.861c8.983-9.392,15.374-20.965,18.041-33.89
		c0.837-4.057-1.773-8.024-5.83-8.861c-4.054-0.835-8.024,1.772-8.861,5.83c-5.837,28.292-33.656,46.777-63.316,46.777
		C109.861,312.628,82.001,294.133,76.165,265.851z M224.758,406.584c-22.023-12.44-41.594-1.238-58.45-18.093
		c-16.872-16.873-5.624-36.366-18.089-58.442c0.859-1.05,1.727-2.11,2.592-3.166c12.623-1.647,24.375-6.002,34.442-12.457
		c0.743,0.262,1.494,0.513,2.251,0.753c1.68,5.124,3.954,10.225,6.918,15.48c2.035,3.608,6.61,4.883,10.217,2.849
		c3.608-2.035,4.883-6.609,2.849-10.217c-0.866-1.536-1.654-3.049-2.38-4.549c9.952,1.033,19.969,0.813,29.782-1.528l14.413,14.413
		c8.77,8.77,22.704,8.958,31.724,0.382c50.315-47.832,86.217-64.167,109.038-68.863C345.405,306.991,276.392,364.37,224.758,406.584
		z M192.975,219.834c0-2.395,1.948-4.343,4.343-4.343s4.343,1.948,4.343,4.343c0,4.142,3.358,7.5,7.5,7.5c4.142,0,7.5-3.358,7.5-7.5
		c0-10.666-8.677-19.343-19.343-19.343s-19.343,8.677-19.343,19.343c0,4.142,3.358,7.5,7.5,7.5
		C189.617,227.334,192.975,223.976,192.975,219.834z M159.137,214.403c-3.124-2.722-7.861-2.396-10.582,0.726
		c-2.291,2.629-5.599,4.137-9.075,4.137c-3.475,0-6.782-1.508-9.074-4.137c-2.722-3.123-7.459-3.448-10.581-0.726
		c-3.123,2.721-3.448,7.459-0.726,10.581c5.141,5.898,12.569,9.282,20.381,9.282c7.813,0,15.242-3.383,20.382-9.282
		C162.585,221.862,162.26,217.124,159.137,214.403z"/>
</g>
<g>
</g>
<g>
</g>
<g>
</g>
<g>
</g>
<g>
</g>
<g>
</g>
<g>
</g>
<g>
</g>
<g>
</g>
<g>
</g>
<g>
</g>
<g>
</g>
<g>
</g>
<g>
</g>
<g>
</g>
</svg>
