<?xml version="1.0" encoding="iso-8859-1"?>
<!-- Generator: Adobe Illustrator 23.1.0, SVG Export Plug-In . SVG Version: 6.00 Build 0)  -->
<svg version="1.1" id="Capa_1" xmlns="http://www.w3.org/2000/svg" xmlns:xlink="http://www.w3.org/1999/xlink" x="0px" y="0px"
	 viewBox="0 0 512.016 512.016" style="enable-background:new 0 0 512.016 512.016;" xml:space="preserve">
<g>
	<path d="M173.22,96.677c0,4.142,3.358,7.5,7.5,7.5c4.142,0,7.5-3.358,7.5-7.5c0-3.455,2.811-6.265,6.265-6.265
		c3.455,0,6.265,2.811,6.265,6.265c0,4.142,3.358,7.5,7.5,7.5s7.5-3.358,7.5-7.5c0-11.725-9.54-21.265-21.265-21.265
		C182.76,75.412,173.22,84.951,173.22,96.677z M296.265,96.677c0,4.142,3.358,7.5,7.5,7.5c4.142,0,7.5-3.358,7.5-7.5
		c0-3.455,2.811-6.265,6.265-6.265s6.265,2.811,6.265,6.265c0,4.142,3.358,7.5,7.5,7.5c4.142,0,7.5-3.358,7.5-7.5
		c0-11.725-9.54-21.265-21.265-21.265C305.805,75.412,296.265,84.951,296.265,96.677z M264.955,107.837
		c-2.259,2.593-5.52,4.08-8.947,4.08c-3.426,0-6.688-1.487-8.947-4.08c-2.722-3.123-7.459-3.447-10.582-0.727
		c-3.123,2.722-3.448,7.459-0.727,10.582c5.109,5.862,12.492,9.224,20.255,9.224c7.764,0,15.146-3.362,20.255-9.224
		c2.721-3.123,2.396-7.86-0.727-10.582C272.413,104.39,267.675,104.714,264.955,107.837z M182.549,316.751
		c-18.819-4.733-30.564-24.532-31.047-40.938c-0.122-4.14-3.556-7.416-7.717-7.276c-4.14,0.122-7.398,3.577-7.276,7.717
		c0.638,21.677,15.708,48.335,42.382,55.044c4.035,1.013,8.096-1.442,9.103-5.444C189.004,321.837,186.566,317.762,182.549,316.751z
		 M156.723,368.649c-2.929,2.929-2.929,7.678,0,10.606c11.577,11.577,26.29,16.37,44.328,12.336
		c4.042-0.904,6.586-4.914,5.682-8.957c-0.905-4.042-4.914-6.586-8.957-5.682c-16.219,3.628-25.145-3.001-30.447-8.303
		C164.401,365.721,159.652,365.721,156.723,368.649z M492.793,160.813c-41.422-11.015-58.666-44.892-73.88-74.781
		c-1.832-3.6-3.563-6.999-5.341-10.379c-1.929-3.666-6.465-5.075-10.129-3.146c-3.666,1.929-5.074,6.464-3.146,10.129
		c17.616,33.483,35.801,78.623,88.641,92.673c9.195,2.445,11.085,14.822,2.884,19.931c-31.958,19.911-68.618,31.01-105.931,28.985
		c-49.445-2.687-90.809-27.782-124.455-63.087c-2.948-3.095-7.9-3.105-10.858,0c-33.636,35.295-75.007,60.4-124.455,63.087
		c-37.016,2.012-73.703-8.906-105.93-28.984c-8.129-5.065-6.398-17.463,2.884-19.931c70.041-18.624,79.554-92.354,106.033-118.834
		c28.562-28.564,75.357-32.266,108.145-4.916c10.866,9.064,26.64,9.064,37.505,0c30.999-25.858,76.698-24.97,106.632,3.441
		c3.004,2.851,7.751,2.729,10.603-0.277c2.852-3.004,2.727-7.751-0.277-10.603c-33.885-32.161-88.234-36.055-126.567-4.08
		c-5.299,4.42-12.989,4.42-18.288,0c-38.893-32.443-94.45-28.086-128.36,5.828c-29.528,29.528-36.533,98.259-99.281,114.944
		c-21.91,5.826-26.258,35.135-6.961,47.158c12.948,8.067,29.894,16.774,49.948,22.986c-15.591,53.395-16.269,124.693,26.811,173.084
		c6.245,7.015,12.934,13.021,19.884,17.851c3.408,2.369,8.08,1.517,10.439-1.878c2.364-3.401,1.523-8.075-1.877-10.439
		c-5.981-4.157-11.782-9.375-17.242-15.508C61.123,350.145,62.157,284.32,76.7,234.848c31.446,7.148,63.211,5.989,93.187-3.432
		c13.328,18.915,40.2,45.424,86.12,45.424c45.921,0,72.792-26.509,86.12-45.424c29.881,9.391,61.643,10.605,93.188,3.433
		c14.543,49.472,15.577,115.296-23.525,159.219c-20.935,23.517-45.955,32.605-74.369,27.019c-3.381-0.669-6.788,1.063-8.245,4.19
		c-21.825,46.821-55.21,53.813-73.169,53.813s-51.344-6.991-73.169-53.813c-1.458-3.127-4.861-4.861-8.246-4.19
		c-9.242,1.818-18.227,2.095-26.708,0.821c-4.092-0.615-7.915,2.207-8.531,6.303c-0.615,4.096,2.207,7.915,6.303,8.531
		c8.4,1.261,17.157,1.268,26.102,0.025c17.261,33.705,46.241,57.323,84.247,57.323c37.947,0,66.951-23.55,84.248-57.325
		c31.263,4.32,59.768-6.919,82.738-32.723c43.08-48.391,42.402-119.687,26.813-173.082c20.054-6.212,37-14.921,49.948-22.988
		C519.069,195.936,514.68,166.634,492.793,160.813z M256.008,261.84c-36.691,0-59.252-19.872-71.433-35.768
		c25.155-10.378,49.038-26.75,71.433-49.037c22.395,22.286,46.277,38.658,71.432,49.037
		C315.26,241.968,292.699,261.84,256.008,261.84z M314.239,376.953c-4.039-0.902-8.052,1.64-8.957,5.682
		c-0.904,4.043,1.64,8.052,5.682,8.957c17.328,3.874,32.247-0.254,44.328-12.336c2.929-2.929,2.929-7.678,0-10.606
		c-2.929-2.929-7.678-2.929-10.607,0C339.383,373.952,330.457,380.583,314.239,376.953z M147.81,159.771
		c-18.013,14.588-39.431,20.801-58.766,17.049c-4.063-0.79-8.002,1.867-8.792,5.933c-0.789,4.066,1.867,8.002,5.933,8.792
		c25.181,4.889,50.989-3.858,71.064-20.117c3.219-2.606,3.715-7.33,1.108-10.548C155.751,157.66,151.028,157.164,147.81,159.771z
		 M353.657,160.879c-2.607,3.219-2.111,7.942,1.108,10.548c20.11,16.287,45.924,25,71.065,20.117
		c4.066-0.789,6.723-4.726,5.933-8.792c-0.789-4.066-4.727-6.726-8.792-5.933c-19.333,3.752-40.753-2.461-58.766-17.049
		C360.985,157.164,356.263,157.66,353.657,160.879z M333.125,331.298c26.674-6.708,41.744-33.367,42.382-55.044
		c0.122-4.141-3.136-7.596-7.276-7.717c-4.177-0.131-7.595,3.136-7.717,7.276c-0.483,16.407-12.228,36.205-31.047,40.938
		c-4.017,1.01-6.455,5.086-5.444,9.103C325.029,329.857,329.092,332.311,333.125,331.298z"/>
</g>
<g>
</g>
<g>
</g>
<g>
</g>
<g>
</g>
<g>
</g>
<g>
</g>
<g>
</g>
<g>
</g>
<g>
</g>
<g>
</g>
<g>
</g>
<g>
</g>
<g>
</g>
<g>
</g>
<g>
</g>
</svg>
