<?xml version="1.0" encoding="iso-8859-1"?>
<!-- Generator: Adobe Illustrator 23.1.0, SVG Export Plug-In . SVG Version: 6.00 Build 0)  -->
<svg version="1.1" id="Capa_1" xmlns="http://www.w3.org/2000/svg" xmlns:xlink="http://www.w3.org/1999/xlink" x="0px" y="0px"
	 viewBox="0 0 512 512" style="enable-background:new 0 0 512 512;" xml:space="preserve">
<g>
	<path d="M431.749,160.969h-25.745l6.513-74.032c3.258-37.012-23.478-69.88-60.401-74.208c-15.443-1.81-30.766,1.61-43.852,9.662
		C294.504,7.953,275.958,0,256,0c-19.959,0-38.504,7.953-52.264,22.391c-13.087-8.052-28.413-11.472-43.852-9.662
		c-9.492,1.113-18.458,4.106-26.65,8.899c-3.576,2.091-4.779,6.685-2.687,10.26c2.091,3.576,6.686,4.779,10.26,2.687
		c6.395-3.74,13.401-6.078,20.824-6.948c11.513-1.347,22.938,1.027,32.844,6.712c-7.715,12.446-11.42,26.916-10.575,41.931
		l8.903,158.192h-15.466c-11.458,0-21.921,4.323-29.857,11.417v-49.45c0-16.394-11.184-30.219-26.322-34.262l-6.733-76.547
		c-0.852-9.679,0.929-19.391,5.148-28.086c1.808-3.726,0.253-8.213-3.473-10.022c-3.727-1.808-8.213-0.253-10.022,3.473
		c-5.404,11.137-7.685,23.568-6.596,35.95l6.512,74.032H80.252c-19.554,0-35.462,15.908-35.462,35.462
		c0,14.718,11.974,26.692,26.692,26.692h10.753v47.852c0,20.629,16.783,37.412,37.412,37.412h14.21
		c0.637,1.581,1.486,3.049,2.504,4.386c-2.423,3.182-3.879,7.138-3.879,11.437c0.497,9.047-1.822,19.823,4.363,34.169h-20.628
		v-2.646c0-8.011-6.518-14.529-14.53-14.529H86.118c-11.293,0-20.479,9.187-20.479,20.479v8.393c0,11.293,9.187,20.48,20.479,20.48
		h15.568c8.012,0,14.53-6.518,14.53-14.529v-2.646h30.366c1.555,1.692,7.05,7.36,16.55,17.259
		c12.96,13.483,30.681,21.682,49.256,22.981v35.812h-34.354c-15.789,0-29.535,10.134-34.203,25.217l-4.081,13.184
		C136.033,499.844,144.993,512,157.569,512H301.91c4.143,0,7.5-3.358,7.5-7.5c0-4.142-3.357-7.5-7.5-7.5H157.569
		c-2.455,0-4.22-2.37-3.489-4.732l4.081-13.184c2.713-8.764,10.7-14.652,19.874-14.652h155.93c9.175,0,17.162,5.888,19.874,14.652
		l4.082,13.185c0.726,2.344-1.016,4.732-3.489,4.732h-16.897c-4.143,0-7.5,3.358-7.5,7.5c0,4.142,3.357,7.5,7.5,7.5h16.897
		c12.571,0,21.537-12.154,17.818-24.168l-4.081-13.184c-4.669-15.083-18.415-25.217-34.204-25.217h-34.353v-35.812
		c18.576-1.299,36.296-9.498,49.257-22.981l15.719-16.353c9.63-10.016,14.933-23.184,14.933-37.079V324.21
		c0-4.299-1.457-8.255-3.879-11.437c1.018-1.337,1.867-2.805,2.504-4.386h14.21c20.629,0,37.412-16.783,37.412-37.412v-47.852
		h10.753c14.718,0,26.691-11.974,26.691-26.692C467.21,176.877,451.303,160.969,431.749,160.969z M132.481,293.387h-12.834
		c-12.358,0-22.412-10.054-22.412-22.412v-47.852h35.246V293.387z M132.481,208.123H71.482c-6.447,0-11.692-5.245-11.692-11.692
		c0-11.283,9.179-20.462,20.462-20.462h31.767c11.283,0,20.462,9.179,20.462,20.462V208.123z M101.215,375.555H86.118
		c-3.021,0-5.479-2.458-5.479-5.48v-8.393c0-3.021,2.458-5.479,5.479-5.479h15.098V375.555z M256,15
		c32.972,0,58.965,27.69,57.123,60.428l-8.95,159.035h-96.345l-8.95-159.035C197.041,42.785,222.915,15,256,15z M284.611,449.431
		h-57.223v-35.608h57.223V449.431z M364.52,337.207c0,9.999-3.816,19.475-10.746,26.683l-15.72,16.353
		c-11.351,11.808-27.254,18.58-43.632,18.58h-76.844c-16.378,0-32.281-6.772-43.632-18.58
		c-16.247-16.958-15.723-16.234-17.476-18.323c-0.78-1.25-8.99-9.87-8.99-24.713V324.21c0-2.171,1.766-3.937,3.937-3.937h209.165
		c2.171,0,3.938,1.766,3.938,3.937V337.207z M364.52,301.336c0,2.171-1.767,3.937-3.938,3.937H151.418
		c-2.171,0-3.937-1.766-3.937-3.937V279.32c0-16.463,13.394-29.857,29.857-29.857h157.324c16.464,0,29.857,13.394,29.857,29.857
		V301.336z M364.52,196.431v49.45c-7.937-7.094-18.4-11.417-29.857-11.417h-15.465L328.1,76.271
		c0.845-15.015-2.861-29.486-10.576-41.931c9.906-5.686,21.331-8.063,32.845-6.712c28.841,3.38,49.75,29.051,47.206,57.995
		l-6.734,76.547C375.704,166.211,364.52,180.037,364.52,196.431z M414.766,270.975c0,12.358-10.054,22.412-22.412,22.412H379.52
		v-70.265h35.246V270.975z M440.519,208.123H379.52v-11.692c0-11.283,9.179-20.462,20.462-20.462h31.768
		c11.282,0,20.461,9.179,20.461,20.462C452.21,202.877,446.965,208.123,440.519,208.123z"/>
</g>
<g>
</g>
<g>
</g>
<g>
</g>
<g>
</g>
<g>
</g>
<g>
</g>
<g>
</g>
<g>
</g>
<g>
</g>
<g>
</g>
<g>
</g>
<g>
</g>
<g>
</g>
<g>
</g>
<g>
</g>
</svg>
