<?xml version="1.0" encoding="iso-8859-1"?>
<!-- Generator: Adobe Illustrator 23.1.0, SVG Export Plug-In . SVG Version: 6.00 Build 0)  -->
<svg version="1.1" id="Capa_1" xmlns="http://www.w3.org/2000/svg" xmlns:xlink="http://www.w3.org/1999/xlink" x="0px" y="0px"
	 viewBox="0 0 512 512" style="enable-background:new 0 0 512 512;" xml:space="preserve">
<g>
	<path d="M238.069,131.477c3.128,2.706,7.865,2.372,10.579-0.765c2.71-3.132,2.368-7.869-0.765-10.579
		c-35.699-30.888-75.813-30.888-90.915-30.888c-4.143,0-7.5,3.358-7.5,7.5c0,4.142,3.357,7.5,7.5,7.5
		C171.819,104.245,206.596,104.245,238.069,131.477z M461.465,226.504c-16.893-8.371-31.522-17.531-44.508-27.874l53.689-60.24
		c17.209-19.309,16.363-48.76-1.926-67.048c-10.338-10.336-26.93-10.756-37.777-0.954l-70.022,63.286
		c-10.915-16.377-20.901-31.813-34-47.31l-3.048-60.327C323.135,11.438,311.106,0,296.486,0c-19.517,0-36.714,11.425-44.49,28.665
		c-27.084-12.24-58.509-19.632-93.927-22.055c-4.123-0.293-7.712,2.838-7.994,6.971c-0.283,4.132,2.838,7.711,6.971,7.994
		c63.218,4.324,114.778,24.08,156.454,72.134c0.233,0.318,0.493,0.613,0.771,0.89c13.567,15.802,23.909,32.049,35.403,49.242
		l-19.771,17.87c-13.242-13.608-24.366-30.135-26.876-34.271c-2.149-3.541-6.765-4.669-10.303-2.519
		c-3.541,2.149-4.669,6.762-2.52,10.303c4.093,6.741,15.679,23.164,28.569,36.545l-30.34,27.421
		c-23.535-16.918-46.58-31.397-73.723-41.923c-35.442-13.745-74.002-19.239-117.902-16.79c-4.562,0.259-8.404-3.324-8.404-7.878
		V30.649c0-4.037,3.027-7.412,7.041-7.851c8.622-0.944,17.635-1.566,26.79-1.85c4.14-0.128,7.393-3.588,7.264-7.729
		c-0.127-4.14-3.559-7.38-7.728-7.265c-9.543,0.295-18.949,0.945-27.958,1.932c-11.635,1.274-20.408,11.06-20.408,22.762v101.949
		c0,13.467,11.395,23.578,24.239,22.855c62.703-3.496,105.811,10.056,142.05,30.121l-4.091,71.138
		c-8.157,7.059-19.346,11.715-29.164,14.056c-4.137-9.571-10.035-18.31-17.561-25.836c-34.595-34.595-93.091-32.387-130.401,4.921
		c-37.308,37.308-39.515,95.805-4.921,130.399c34.214,34.212,92.545,32.934,130.4-4.921c6.877-6.877,12.644-14.55,17.214-22.769
		c14.808-1.25,33.984-4.686,56.599-15.576c6.684,19.149,16.077,35.628,29.075,51.069C269.157,449.634,312.146,512,371.618,512
		c14.034,0,28.011-3.623,40.419-10.479c3.626-2.003,4.94-6.566,2.938-10.191c-2.003-3.627-6.566-4.94-10.191-2.938
		c-10.339,5.712-21.497,8.608-33.165,8.608c-40.653,0-73.727-36.196-73.727-80.686s33.073-80.686,73.727-80.686
		c40.653,0,73.727,36.196,73.727,80.686c0,18.5-5.867,36.575-16.521,50.896c-2.473,3.323-1.782,8.022,1.541,10.494
		c3.324,2.473,8.023,1.783,10.494-1.541c12.565-16.891,19.486-38.145,19.486-59.849c0-52.762-39.803-95.686-88.727-95.686
		c-10.772,0-21.1,2.083-30.66,5.891c-5.537-8.992-9.948-20.079-10.694-30.62l30.17-33.851c32.421,12.449,64.117,11.397,97.646,1.827
		C475.734,258.836,477.94,234.667,461.465,226.504z M265.438,35.342C270.716,23.126,282.778,15,296.486,15
		c6.623,0,12.072,5.181,12.406,11.795l2.147,42.503C294.997,53.685,279.88,43.177,265.438,35.342z M173.347,364.726
		c-30.725,30.727-79.71,34.398-109.186,4.921C35.415,340.9,37.622,291.92,69.082,260.46c30.969-30.969,80.009-34.1,109.186-4.921
		C207.648,284.917,204.177,333.898,173.347,364.726z M254.223,194.154c7.818,4.893,15.375,10.044,22.816,15.334
		c-16.871,15.737-20.723,17.492-25.119,24.714L254.223,194.154z M293.083,371.829c-9.58-12.721-16.685-26.381-21.898-41.995
		c9.511-5.552,19.533-12.429,30.019-20.998c5.304,0.186,10.534-0.799,15.338-2.821c1.891,9.15,6.26,19.357,10.993,27.28
		C312.942,342.342,300.951,355.739,293.083,371.829z M318.3,286.779c-4.659,5.226-11.599,7.807-18.561,6.9
		c-2.084-0.271-4.172,0.34-5.778,1.683c-25.382,21.219-52.64,36.423-85.682,41.259c5.904-17.208,6.704-35.249,2.872-51.577
		c25.918-6.551,42.738-20.748,52.594-41.227c1.185-2.462,2.827-4.65,4.88-6.506L441,81.517c4.916-4.441,12.433-4.251,17.112,0.432
		c12.674,12.673,13.261,33.082,1.336,46.462L318.3,286.779z M453.964,249.451c-30.746,8.776-57.336,8.981-82.768,0.522
		l35.764-40.128c13.985,11.225,29.705,21.112,47.844,30.099C459.025,242.035,458.476,248.163,453.964,249.451z M286.448,260.054
		c-4.283,0-7.754,3.472-7.754,7.754s3.472,7.754,7.754,7.754c4.283,0,7.754-3.472,7.754-7.754S290.731,260.054,286.448,260.054z
		 M332.246,416.314c0,23.216,17.662,42.103,39.372,42.103c21.71,0,39.373-18.888,39.373-42.103
		c0-23.216-17.663-42.104-39.373-42.104C349.908,374.21,332.246,393.098,332.246,416.314z M395.991,416.314
		c0,14.945-10.934,27.103-24.373,27.103c-13.438,0-24.372-12.159-24.372-27.103c0-14.945,10.934-27.104,24.372-27.104
		C385.058,389.21,395.991,401.369,395.991,416.314z M93.374,284.752c-16.416,16.417-17.282,42.261-1.932,57.612c0,0,0,0,0.001,0
		c15.395,15.396,41.243,14.437,57.612-1.931c16.415-16.415,17.282-42.26,1.932-57.612
		C135.546,267.38,109.783,268.343,93.374,284.752z M138.448,329.827c-10.565,10.566-26.894,11.434-36.399,1.931h0.001
		c-9.503-9.503-8.637-25.832,1.932-36.399c10.938-10.939,27.227-11.106,36.398-1.931
		C149.883,302.931,149.017,319.26,138.448,329.827z"/>
</g>
<g>
</g>
<g>
</g>
<g>
</g>
<g>
</g>
<g>
</g>
<g>
</g>
<g>
</g>
<g>
</g>
<g>
</g>
<g>
</g>
<g>
</g>
<g>
</g>
<g>
</g>
<g>
</g>
<g>
</g>
</svg>
