<?xml version="1.0" encoding="iso-8859-1"?>
<!-- Generator: Adobe Illustrator 23.1.0, SVG Export Plug-In . SVG Version: 6.00 Build 0)  -->
<svg version="1.1" id="Capa_1" xmlns="http://www.w3.org/2000/svg" xmlns:xlink="http://www.w3.org/1999/xlink" x="0px" y="0px"
	 viewBox="0 0 512.008 512.008" style="enable-background:new 0 0 512.008 512.008;" xml:space="preserve">
<g>
	<path d="M250.174,316.528h-22.146c-4.142,0-7.5,3.358-7.5,7.5c0,4.142,3.358,7.5,7.5,7.5h22.146c4.142,0,7.5-3.358,7.5-7.5
		C257.674,319.885,254.316,316.528,250.174,316.528z M511.367,446.268l-1.986-7.786c-3.953-15.501-17.886-26.327-33.883-26.327
		h-7.142V207.522h11.671c23.045,0,37.207-25.196,25.216-44.883l-21.026-34.522c-10.772-17.687-27.487-31.147-47.067-37.902
		c-3.916-1.354-8.185,0.728-9.536,4.644c-1.351,3.915,0.728,8.185,4.644,9.536c10.431,3.599,19.876,9.495,27.68,17.128h-71.73
		c-10.871-4.564-18.212-12.292-24.089-21.179h35.211c4.142,0,7.5-3.358,7.5-7.5s-3.358-7.5-7.5-7.5h-43.74
		c-5.008-9.744-10.06-20.622-17.199-27.761c-20.877-20.879-55.101-23.573-79.059-3.588c-1.929,1.608-4.73,1.608-6.658,0h0.001
		c-23.953-19.981-58.174-17.299-79.059,3.588c-7.1,7.1-11.997,17.638-17.199,27.761h-52.495c-30.568,0-58.587,16.101-74.058,39.55
		c-2.25,3.354-1.197,1.857-23.1,37.745c-11.989,19.686,2.169,44.883,25.217,44.883h11.671v204.634H36.51
		c-15.997,0-29.93,10.826-33.883,26.326l-1.986,7.787c-3.278,12.854,6.424,25.366,19.709,25.366h32.685c4.142,0,7.5-3.358,7.5-7.5
		s-3.358-7.5-7.5-7.5H20.35c-3.475,0-6.04-3.266-5.174-6.659l1.986-7.787c2.257-8.851,10.213-15.033,19.348-15.033h438.988
		c9.135,0,17.091,6.182,19.348,15.033l1.986,7.786c0.861,3.374-1.678,6.66-5.174,6.66H89.164c-4.142,0-7.5,3.358-7.5,7.5
		s3.358,7.5,7.5,7.5h402.493C504.924,471.634,514.649,459.141,511.367,446.268z M184.223,68.19
		c15.555-15.557,41.02-17.546,58.843-2.676c0,0,0,0,0,0c7.497,6.253,18.378,6.253,25.876,0c17.851-14.893,43.32-12.848,58.843,2.676
		c14.89,14.892,20.783,58.813,63.233,70.102c2.753,0.732,3.25,4.438,0.832,5.945c-21.118,13.158-76.101,37.607-130.417-19.388
		c-2.949-3.095-7.899-3.105-10.858,0c-54.316,56.997-109.298,32.546-130.417,19.388c-2.418-1.506-1.921-5.213,0.832-5.945
		C163.421,127.008,169.349,83.065,184.223,68.19z M103.921,100.344h43.967c-5.877,8.887-13.218,16.615-24.089,21.179H52.096
		C65.804,108.179,84.449,100.344,103.921,100.344z M31.98,192.522c-11.337,0-18.304-12.395-12.406-22.081l20.658-33.919h64.051
		c-2.198,8.066,1.019,16.132,7.941,20.445c15.093,9.404,39.255,20.275,68.689,18.679c27.181-1.477,52.41-13.243,75.089-35
		c22.606,21.686,49.573,35.157,80.896,35.157c26.797-0.001,48.794-10.059,62.882-18.837c6.931-4.318,10.137-12.389,7.941-20.445
		h64.051l20.658,33.919c5.897,9.681-1.065,22.081-12.405,22.081H31.98z M102.386,207.522l-43.735,43.735v-43.735H102.386z
		 M107.86,412.156H60.352l47.507-47.507V412.156z M107.86,343.436l-49.208,49.208v-53.506l49.208-49.208V343.436z M107.86,268.717
		l-49.208,49.208v-45.456l49.208-49.209V268.717z M166.642,412.156H122.86v-37.353h43.782V412.156z M296.559,412.156H181.642
		c0-15.099,0-111.645,0-126.737c0-12.169,9.901-22.07,22.071-22.07h70.776c12.169,0,22.07,9.901,22.07,22.07V412.156z
		 M374.911,412.156h-63.352v-37.353h63.352V412.156z M453.356,412.156h-63.446v-37.353h63.446V412.156z M453.356,316.528H379.26
		c-4.918,0-8.918-4-8.918-8.918v-43.523c0-4.917,4-8.917,8.918-8.917h74.097V316.528z M453.356,240.169H379.26
		c-13.189,0-23.918,10.73-23.918,23.917v43.523c0,13.189,10.729,23.918,23.918,23.918h74.097v28.276H311.559v-74.385
		c0-20.44-16.63-37.07-37.07-37.07h-70.776c-20.441,0-37.071,16.63-37.071,37.07v74.385H122.86V207.522h330.496V240.169z"/>
</g>
<g>
</g>
<g>
</g>
<g>
</g>
<g>
</g>
<g>
</g>
<g>
</g>
<g>
</g>
<g>
</g>
<g>
</g>
<g>
</g>
<g>
</g>
<g>
</g>
<g>
</g>
<g>
</g>
<g>
</g>
</svg>
