<?xml version="1.0" encoding="iso-8859-1"?>
<!-- Generator: Adobe Illustrator 23.1.0, SVG Export Plug-In . SVG Version: 6.00 Build 0)  -->
<svg version="1.1" id="Capa_1" xmlns="http://www.w3.org/2000/svg" xmlns:xlink="http://www.w3.org/1999/xlink" x="0px" y="0px"
	 viewBox="0 0 512.009 512.009" style="enable-background:new 0 0 512.009 512.009;" xml:space="preserve">
<g>
	<path d="M469.454,285.323c-18.438,13.866-39.897,22.242-65.217,25.446c4.725-8.78,7.299-18.779,7.299-29.145
		c0-41.148-49.077-79.789-73.881-154.706c-7.402-22.355-18.815-41.493-33.005-55.344c-29.952-29.236-66.339-29.608-96.549-0.716
		c-2.994,2.863-3.1,7.61-0.237,10.604c2.863,2.993,7.611,3.099,10.604,0.237c42.273-40.427,87.196-3.68,104.947,49.934
		c24.706,74.618,73.121,115.943,73.121,149.991c0,12.904-5.265,24.767-13.395,32.577c-15.393,15.075-40.823,16.986-61.704,12.439
		c10.571-10.619,18.098-23.876,21.167-38.751c0.837-4.057-1.773-8.024-5.83-8.861c-4.053-0.835-8.024,1.773-8.861,5.83
		c-6.67,32.323-38.414,53.193-71.909,53.193c-33.364,0-65.228-20.812-71.909-53.193c-0.837-4.057-4.803-6.665-8.861-5.83
		c-4.057,0.837-6.667,4.804-5.83,8.861c3.069,14.875,10.596,28.132,21.167,38.751c-20.978,4.567-46.335,2.591-61.686-12.421
		c-8.116-7.861-13.414-19.572-13.414-32.595c0-34.038,48.425-75.399,73.122-149.992c2.716-8.204,6.061-16.004,9.942-23.186
		c1.969-3.644,0.612-8.194-3.032-10.164c-3.643-1.969-8.194-0.613-10.164,3.032c-4.298,7.953-7.994,16.567-10.985,25.603
		c-24.68,74.541-73.882,113.744-73.882,154.706c0,10.365,2.574,20.365,7.299,29.145c-25.32-3.205-46.778-11.581-65.217-25.446
		c-18.896-14.21-45.414,1.269-42.304,24.612c7.411,55.643,38.376,109.089,87.278,135.292
		c53.032,28.415,113.679,18.753,168.475-7.251c59.938,28.489,125.505,36.948,180.818-0.175c3.439-2.309,4.356-6.968,2.048-10.407
		c-2.309-3.439-6.969-4.356-10.407-2.048c-45.258,30.375-103.754,29.534-169.164-2.434c-2.077-1.016-4.509-1.016-6.586,0
		c-59.898,29.273-114.568,32.417-158.099,9.092c-44.549-23.87-72.713-73.149-79.494-124.051
		c-1.358-10.19,10.149-16.863,18.42-10.644c23.764,17.87,53.032,27.816,87.002,29.631c0.957,0.433,19.676,21.444,64.471,15.852
		c6.981-0.872,13.609-2.439,19.776-4.647c14.536,9.422,32.275,14.906,51.216,14.906c18.941,0,36.68-5.484,51.216-14.906
		c11.014,3.945,23.132,5.602,34.553,5.602c24.909,0,40.553-8.735,49.681-16.794c0.004-0.004,0.008-0.008,0.012-0.012
		c33.97-1.815,63.239-11.761,87.003-29.631c8.253-6.205,19.781,0.426,18.42,10.644c-4.774,35.834-19.758,69.375-42.193,94.445
		c-2.762,3.087-2.499,7.828,0.587,10.59c3.094,2.768,7.834,2.492,10.59-0.587c24.422-27.29,40.717-63.681,45.884-102.467
		C514.87,286.583,488.338,271.121,469.454,285.323z M408.853,378.34c-18.006,10.822-37.415,16.075-57.68,15.589
		c-4.176-0.11-7.578,3.18-7.675,7.321c-0.097,4.141,3.181,7.577,7.321,7.675c23.133,0.547,45.268-5.413,65.76-17.729
		c3.55-2.134,4.699-6.741,2.565-10.292C417.012,377.355,412.404,376.205,408.853,378.34z M193.984,388.382
		c-25.05,7.622-49.003,7.408-71.19-0.635c-3.896-1.41-8.196,0.601-9.607,4.495c-1.411,3.895,0.601,8.196,4.495,9.608
		c26.402,9.569,53.693,9.09,80.669,0.883c3.962-1.206,6.198-5.396,4.992-9.358C202.137,389.411,197.95,387.177,193.984,388.382z
		 M75.955,356.969c-2.996-2.859-7.744-2.75-10.604,0.247c-2.86,2.997-2.75,7.744,0.247,10.604
		c4.744,4.528,10.578,9.892,17.875,15.335c3.327,2.482,8.025,1.786,10.496-1.526c2.477-3.32,1.793-8.019-1.526-10.496
		C85.805,366.182,80.596,361.4,75.955,356.969z"/>
</g>
<g>
</g>
<g>
</g>
<g>
</g>
<g>
</g>
<g>
</g>
<g>
</g>
<g>
</g>
<g>
</g>
<g>
</g>
<g>
</g>
<g>
</g>
<g>
</g>
<g>
</g>
<g>
</g>
<g>
</g>
</svg>
