<?xml version="1.0" encoding="iso-8859-1"?>
<!-- Generator: Adobe Illustrator 23.1.0, SVG Export Plug-In . SVG Version: 6.00 Build 0)  -->
<svg version="1.1" id="Capa_1" xmlns="http://www.w3.org/2000/svg" xmlns:xlink="http://www.w3.org/1999/xlink" x="0px" y="0px"
	 viewBox="0 0 512 512" style="enable-background:new 0 0 512 512;" xml:space="preserve">
<g>
	<path d="M495.055,276.317c3.163-4.833,5.009-10.6,5.009-16.794v-35.629c0-9.782-7.958-17.74-17.74-17.74h-48.947
		c-9.782,0-17.741,7.958-17.741,17.74v35.629c0,5.758,1.593,11.148,4.358,15.761h-43.139c31.229-58.561,29.99-136.072-4.203-193.181
		c-2.128-3.555-6.736-4.71-10.287-2.582c-3.554,2.127-4.71,6.733-2.582,10.287c32.986,55.094,32.74,130.727-0.189,185.476h-28.81
		c39.339-50.868,40.075-133.956-0.253-186.021c-40.932-52.841-108.135-52.832-149.059,0
		c-40.326,52.061-39.597,135.147-0.253,186.021h-28.834c-36.583-60.86-32.315-145.783,10.192-200.657
		c47.36-61.14,125.418-64.416,176.242-12.222c2.888,2.967,7.637,3.03,10.605,0.141c2.968-2.89,3.03-7.638,0.141-10.606
		C291.992-7.186,203.353-2.512,150.717,65.441c-44.557,57.521-50.507,144.367-15.568,209.843H88.508V209.62
		c0-5.72-2.404-10.879-6.241-14.553l-4.231-30.304c-1.049-7.511-7.559-13.174-15.142-13.174H45.537
		c-7.584,0-14.093,5.664-15.142,13.175l-4.231,30.304c-3.837,3.674-6.241,8.834-6.241,14.553v66C8.632,277.516,0,287.354,0,299.175
		v35.458c0,13.174,10.718,23.892,23.892,23.892h68.837L75.202,438.16c-1.026,4.662,2.517,9.114,7.332,9.114
		c3.444,0,6.546-2.387,7.317-5.889l18.236-82.86h47.328l-40.182,118.977c-1.758,5.208-6.632,8.706-12.128,8.706H84.459
		c-2.3,0-4.006-2.122-3.512-4.369l1.092-4.961c0.89-4.045-1.667-8.046-5.713-8.936c-4.041-0.89-8.046,1.667-8.937,5.713
		l-1.092,4.961c-2.554,11.606,6.283,22.592,18.161,22.592h18.646c11.935,0,22.521-7.598,26.34-18.906l41.803-123.777h169.504
		l41.803,123.776c3.818,11.309,14.403,18.907,26.34,18.907h18.646c11.893,0,20.714-11,18.161-22.593l-26.431-120.09h68.838
		c13.174,0,23.892-10.718,23.892-23.892v-35.458C512,288.417,504.851,279.3,495.055,276.317z M45.537,166.588
		c17.913,0.109,17.576-0.232,17.645,0.249l3.157,22.611H42.093C45.5,165.849,45.051,166.588,45.537,166.588z M34.923,209.62
		c0-2.852,2.32-5.171,5.172-5.171h28.242c2.912,0,5.171,2.411,5.171,5.171V235.4H34.923V209.62z M34.923,250.4h38.585v24.883H34.923
		V250.4z M165.666,343.525h-63.492c-0.013,0-0.025,0-0.037,0H23.892c-4.903,0-8.892-3.989-8.892-8.892v-35.458
		c0-4.903,3.989-8.892,8.892-8.892c18.825,0,124.415,0,141.775,0V343.525z M166.485,182.417c0-64.924,40.156-117.744,89.515-117.744
		c49.358,0,89.515,52.82,89.515,117.744c0,36.136-12.875,70.591-34.57,92.867H201.056
		C179.36,253.007,166.485,218.553,166.485,182.417z M331.333,343.525H180.666v-53.241h150.667V343.525z M430.636,223.893
		c0-1.511,1.229-2.74,2.741-2.74h48.947c1.511,0,2.74,1.23,2.74,2.74V237.4h-54.429V223.893z M430.636,252.4h54.429v7.122
		c0,8.691-7.07,15.761-15.762,15.761h-22.905c-8.691,0-15.762-7.07-15.762-15.761V252.4z M431.052,481.839
		c0.494,2.247-1.211,4.369-3.512,4.369h-18.646c-5.496,0-10.37-3.498-12.129-8.706l-40.182-118.977h47.327L431.052,481.839z
		 M497,334.633c0,4.903-3.988,8.892-8.892,8.892c-16.04,0-126.343,0-141.775,0v-53.241c15.366,0,126.454,0,141.775,0
		c4.903,0,8.892,3.989,8.892,8.892V334.633z M90.334,308.916c-4.412,0-7.988,3.576-7.988,7.988c0,4.412,3.576,7.988,7.988,7.988
		c4.412,0,7.988-3.577,7.988-7.988C98.322,312.493,94.745,308.916,90.334,308.916z M308.701,183.154c0.005,0,0.009,0,0.014,0
		c4.136,0,7.492-3.349,7.5-7.486l0.019-10.061c0.008-4.142-3.344-7.506-7.486-7.514c-0.005,0-0.009,0-0.014,0
		c-4.136,0-7.492,3.349-7.5,7.486l-0.019,10.062C301.207,179.783,304.559,183.147,308.701,183.154z M203.382,170.416
		c2.366,0.005,4.287,1.935,4.281,4.301c-0.009,4.142,3.342,7.507,7.484,7.516c0.006,0,0.011,0,0.017,0
		c4.134,0,7.491-3.347,7.499-7.484c0.023-10.661-8.586-19.31-19.249-19.333c-0.014,0-0.028,0-0.042,0
		c-10.618,0-19.268,8.626-19.291,19.249c-0.009,4.142,3.342,7.507,7.484,7.516c0.005,0,0.011,0,0.017,0
		c4.134,0,7.491-3.347,7.5-7.484c0.005-2.363,1.929-4.281,4.291-4.281C203.375,170.416,203.378,170.416,203.382,170.416z
		 M256,324.893c4.412,0,7.988-3.577,7.988-7.988c0-4.412-3.577-7.988-7.988-7.988c-4.412,0-7.988,3.576-7.988,7.988
		C248.011,321.316,251.588,324.893,256,324.893z M421.667,308.916c-4.412,0-7.988,3.576-7.988,7.988
		c0,4.412,3.577,7.988,7.988,7.988s7.988-3.577,7.988-7.988C429.655,312.493,426.079,308.916,421.667,308.916z M240.497,193.817
		c-1.105,3.992,1.236,8.124,5.229,9.229l9.53,2.637c6.712,1.856,13.471-0.997,16.837-7.06c3.137-5.65,2.344-12.31-1.895-16.998
		c4.261-4.67,5.082-11.327,1.969-16.991c-3.346-6.089-10.101-8.954-16.804-7.132l-9.542,2.595c-3.997,1.087-6.356,5.209-5.269,9.206
		c1.088,3.997,5.21,6.356,9.206,5.269l8.633-2.344c-2.393,2.513-3.753,5.874-3.76,9.364c-0.008,3.472,1.324,6.823,3.725,9.385
		l-8.628-2.387C245.734,187.484,241.602,189.825,240.497,193.817z"/>
</g>
<g>
</g>
<g>
</g>
<g>
</g>
<g>
</g>
<g>
</g>
<g>
</g>
<g>
</g>
<g>
</g>
<g>
</g>
<g>
</g>
<g>
</g>
<g>
</g>
<g>
</g>
<g>
</g>
<g>
</g>
</svg>
