<?xml version="1.0" encoding="iso-8859-1"?>
<!-- Generator: Adobe Illustrator 23.1.0, SVG Export Plug-In . SVG Version: 6.00 Build 0)  -->
<svg version="1.1" id="Capa_1" xmlns="http://www.w3.org/2000/svg" xmlns:xlink="http://www.w3.org/1999/xlink" x="0px" y="0px"
	 viewBox="0 0 512.013 512.013" style="enable-background:new 0 0 512.013 512.013;" xml:space="preserve">
<g>
	<path d="M495.625,101.953c-2.944-2.944-22.651-22.651-25.326-25.326c-7.44-7.441-19.489-7.445-26.931,0l-11.479,11.478
		c-2.93,2.929-2.93,7.678-0.001,10.607c2.929,2.928,7.678,2.929,10.606,0.001l11.48-11.48c1.581-1.579,4.136-1.58,5.717,0.001
		l14.973,14.973l-145.23,145.229l-9.754-9.754c-4.454-4.454-4.454-11.701,0-16.155l97.476-97.476c2.929-2.929,2.929-7.678,0-10.606
		c-2.93-2.929-7.678-2.929-10.608,0l-97.476,97.476c-10.302,10.302-10.302,27.065,0,37.368l8.913,8.913l-30.546,22.682
		c-8.364-1.744-7.378-0.667-85.032-0.994c-17.321,0-34.733-1.629-51.753-4.843l-73.253-13.832C37.236,252.626,0,283.422,0,324.369
		c0,28.639,19.146,54.365,46.561,62.561c3.967,1.186,8.147-1.069,9.334-5.037c1.187-3.969-1.068-8.148-5.037-9.334
		C29.745,366.246,15,346.43,15,324.368c0-31.481,28.621-55.268,59.62-49.415l73.253,13.832c17.935,3.387,36.283,5.104,54.536,5.104
		h75.386c17.756,0,32.202,14.446,32.202,32.202v16.364c0,17.756-14.446,32.202-32.202,32.202H83.89c-4.143,0-7.5,3.358-7.5,7.5
		c0,4.142,3.357,7.5,7.5,7.5h98.397c-6.144,10.831-3.775,23.189,3.931,30.895l12.959,12.958
		c11.886,11.888,31.831,9.191,40.121-5.455c7.713-13.623,16.842-26.518,27.134-38.399h11.363c26.027,0,47.202-21.175,47.202-47.202
		v-3.329c20.142-15.545,40.744-28.223,67.148-54.626l103.479-103.48C517.474,159.171,517.477,123.805,495.625,101.953z
		 M226.244,420.667c-3.395,6.001-11.578,7.122-16.461,2.238l-12.958-12.958c-3.306-3.305-4.005-8.454-1.702-12.521
		c1.433-2.532,2.95-5.101,4.579-7.768h47.309C239.332,399.482,232.365,409.856,226.244,420.667z M485.018,170.413l-103.479,103.48
		c-24.449,24.446-43.919,36.736-56.861,46.788c-1.635-14.256-9.643-26.595-21.099-34.098c32.422-24.085,30.587-22.665,31.159-23.238
		l150.532-150.532C500.992,128.804,500.935,154.497,485.018,170.413z M278.94,334.273c0-13.442-10.936-24.379-24.379-24.379
		c-13.442,0-24.379,10.936-24.379,24.379c0,13.442,10.936,24.379,24.379,24.379C268.004,358.652,278.94,347.715,278.94,334.273z
		 M245.183,334.273c0-5.171,4.207-9.379,9.379-9.379c5.172,0,9.379,4.207,9.379,9.379c0,5.171-4.207,9.379-9.379,9.379
		C249.39,343.652,245.183,339.444,245.183,334.273z"/>
</g>
<g>
</g>
<g>
</g>
<g>
</g>
<g>
</g>
<g>
</g>
<g>
</g>
<g>
</g>
<g>
</g>
<g>
</g>
<g>
</g>
<g>
</g>
<g>
</g>
<g>
</g>
<g>
</g>
<g>
</g>
</svg>
