<?xml version="1.0" encoding="iso-8859-1"?>
<!-- Generator: Adobe Illustrator 23.1.0, SVG Export Plug-In . SVG Version: 6.00 Build 0)  -->
<svg version="1.1" id="Capa_1" xmlns="http://www.w3.org/2000/svg" xmlns:xlink="http://www.w3.org/1999/xlink" x="0px" y="0px"
	 viewBox="0 0 511.947 511.947" style="enable-background:new 0 0 511.947 511.947;" xml:space="preserve">
<g>
	<path d="M71.86,399.404c-2.929,2.929-2.929,7.678,0,10.607l21.604,21.604c2.929,2.929,7.677,2.929,10.606,0
		c2.929-2.929,2.929-7.678,0-10.607l-21.604-21.604C79.537,396.475,74.788,396.475,71.86,399.404z M112.2,333.591
		c-15.94,15.94-15.942,41.741,0,57.682c15.94,15.94,41.741,15.942,57.682,0c15.94-15.939,15.942-41.741,0-57.682
		C153.943,317.651,128.142,317.649,112.2,333.591z M159.276,380.667c-10.054,10.056-26.414,10.055-36.469,0
		c-10.055-10.055-10.055-26.415,0-36.469c10.079-10.079,26.391-10.079,36.469,0C169.354,354.276,169.355,370.588,159.276,380.667z
		 M473.652,243.927c-1.946-1.946-3.967-3.809-6.047-5.603l13.762-13.762c18.047-18.047,18.048-47.414,0-65.461L344.372,22.107
		c-15.043-15.043-38.279-17.919-56.505-6.997c-3.553,2.129-4.707,6.735-2.578,10.289c2.129,3.553,6.734,4.709,10.288,2.578
		c12.315-7.38,28.018-5.432,38.188,4.737l2.572,2.572l-49.991,49.991c-12.428,12.429-12.428,32.651,0,45.079l81.028,81.028
		c-13.105,5.038-22.904,17.01-24.558,31.373L233.26,133.199c-12.19-12.2-12.187-32.042,0.009-44.239l31.247-31.247
		c2.929-2.929,2.929-7.678,0-10.607c-2.929-2.93-7.678-2.929-10.606,0l-31.248,31.247c-10.985,10.985-15.271,26.161-12.883,40.428
		c-16.64-3.154-35.81,6.303-57.995,28.488c-36.711,36.711-43.294,94.99-73.914,125.61l-60.561,60.561
		c-23.079,23.079-23.079,60.63,0,83.709l69.013,69.013c20.709,20.71,53.947,23.064,77.309,5.552
		c3.314-2.484,3.987-7.185,1.502-10.499c-2.483-3.314-7.185-3.988-10.499-1.502c-17.448,13.08-42.256,11.293-57.705-4.156
		l-69.013-69.013c-17.23-17.23-17.23-45.265,0-62.496l60.561-60.561c33.338-33.337,39.825-91.52,73.914-125.61
		c37.167-37.165,51.564-22.77,57.712-16.622c4.019,4.019,114.345,114.345,120.681,120.681c-6.304,42.35-23.24,79.146-57.587,116.084
		c-22.271,9.727-46.196,19.961-63.211,36.976l-33.843,33.843c-2.929,2.929-2.929,7.678,0,10.606c2.929,2.929,7.678,2.929,10.607,0
		l33.843-33.843c11.773-11.773,27.557-19.959,44.757-27.723c1.971,10.172,11.397,17.352,22.214,15.598
		c36.101-5.86,65.403-26.248,84.205-58.117c-2.557,17.372-7.37,35.103-14.543,53.596c-6.695,17.263,12.497,33.174,28.288,23.415
		c36.639-22.645,56.858-60.296,56.969-106.044c7.188,11.1,13.689,23.239,19.574,36.581c7.489,16.973,32.296,14.627,36.561-3.446
		C518.538,317.427,506.121,276.396,473.652,243.927z M470.76,169.707c12.199,12.2,12.199,32.049,0,44.249l-15.268,15.268
		c-10.299-6.718-21.769-11.857-34.094-15.299l46.79-46.79L470.76,169.707z M457.582,156.529L407.59,206.52
		c-1.52,1.52-3.293,2.693-5.264,3.534c-5.12-0.67-10.345-1.075-15.658-1.201c-2.707-1.698-3.244-2.798-10.715-10.105l61.924-61.924
		L457.582,156.529z M296.953,119.748c-6.58-6.579-6.58-17.286,0-23.866l49.991-49.991l19.705,19.705l-61.924,61.924L296.953,119.748
		z M315.331,138.126l61.924-61.924l19.705,19.705l-61.924,61.924L315.331,138.126z M365.347,188.142l-19.704-19.704l61.924-61.924
		l19.704,19.704L365.347,188.142z M387.627,419.612c-2.435,1.503-4.41,0.244-5.146-0.368c-0.718-0.597-2.279-2.266-1.271-4.863
		c12.733-32.832,19.494-66.043,17.343-101.329c1.44-6.414,2.387-12.803,2.824-19.13c0.615-8.906,11.405-13.189,18-7.115
		c5.621,5.177,11.014,10.747,16.248,16.86c1.231,7.146,1.862,14.63,1.862,22.284C437.487,367.064,420.246,399.451,387.627,419.612z
		 M494.018,356.016c-0.658,2.786-2.946,3.291-3.899,3.378c-0.929,0.085-3.214,0.01-4.34-2.54
		c-13.712-31.085-31.649-58.428-56.24-81.082c-15.813-14.563-41.645-4.344-43.126,17.115c-0.867,12.551-4.012,25.448-9.349,38.332
		c-15.733,37.983-44.055,61.308-81.904,67.451c-2.829,0.457-4.168-1.462-4.614-2.309c-0.434-0.827-1.239-2.966,0.687-4.981
		c40.255-42.127,62.615-88.566,66.387-145.808c0.791-12,10.956-21.554,23.143-21.751c30.354-0.489,60.564,8.991,82.284,30.711
		C492.117,283.605,502.827,318.697,494.018,356.016z M268.465,235.008c-15.939-15.94-41.741-15.943-57.682,0l-5.681,5.681
		l-17.205-17.205c-2.929-2.929-7.678-2.929-10.606,0c-2.929,2.929-2.929,7.678,0,10.606l17.205,17.205l-5.681,5.681
		c-15.903,15.903-15.903,41.779,0,57.682c15.902,15.902,41.778,15.904,57.682,0l5.681-5.681l17.205,17.205
		c2.929,2.929,7.678,2.929,10.607,0c2.929-2.929,2.929-7.678,0-10.606l-17.205-17.205l5.681-5.681
		C284.405,276.751,284.408,250.95,268.465,235.008z M257.859,282.084l-21.969,21.969c-10.077,10.077-26.39,10.079-36.469,0
		c-10.054-10.055-10.054-26.415,0-36.469l21.969-21.969c10.079-10.079,26.391-10.079,36.469,0
		C267.937,255.693,267.938,272.005,257.859,282.084z M230.953,261.914l-15.232,15.232c-2.929,2.929-2.929,7.678,0,10.606
		c2.929,2.929,7.678,2.929,10.607,0l15.232-15.232c2.929-2.929,2.929-7.678,0-10.606
		C238.63,258.986,233.881,258.986,230.953,261.914z"/>
</g>
<g>
</g>
<g>
</g>
<g>
</g>
<g>
</g>
<g>
</g>
<g>
</g>
<g>
</g>
<g>
</g>
<g>
</g>
<g>
</g>
<g>
</g>
<g>
</g>
<g>
</g>
<g>
</g>
<g>
</g>
</svg>
