<?xml version="1.0" encoding="iso-8859-1"?>
<!-- Generator: Adobe Illustrator 23.1.0, SVG Export Plug-In . SVG Version: 6.00 Build 0)  -->
<svg version="1.1" id="Capa_1" xmlns="http://www.w3.org/2000/svg" xmlns:xlink="http://www.w3.org/1999/xlink" x="0px" y="0px"
	 viewBox="0 0 512.001 512.001" style="enable-background:new 0 0 512.001 512.001;" xml:space="preserve">
<g>
	<path d="M273.091,343.035l-9.591,9.591v-30.872c0-4.142-3.357-7.5-7.5-7.5c-4.142,0-7.5,3.358-7.5,7.5v48.978
		c0,6.718,8.118,9.987,12.804,5.303l22.395-22.395c2.929-2.929,2.929-7.678,0-10.606
		C280.769,340.106,276.021,340.106,273.091,343.035z M461.986,101.033c-4.143,0-7.5,3.358-7.5,7.5v56.485h-91.175
		c-17.06-13.227-21.531-37.836-34.3-50.606c-18.707-18.704-49.295-21.037-70.672-3.207c-1.377,1.149-3.3,1.149-4.678,0
		c-21.421-17.868-52.008-15.458-70.67,3.207c-12.732,12.733-17.272,37.403-34.301,50.606H57.515V91.674
		c0-23.291,15.509-43.243,37.221-49.455v20.476c0,14.052,11.432,25.484,25.484,25.484c14.052,0,25.484-11.432,25.484-25.484V40.201
		h220.594v22.494c0,14.052,11.432,25.484,25.483,25.484c14.052,0,25.484-11.432,25.484-25.484V42.226
		c16.046,4.633,29.163,16.949,34.57,33.094c1.311,3.916,5.555,6.049,9.493,4.73c3.928-1.316,6.045-5.566,4.729-9.494
		c-7.444-22.224-26.198-38.835-48.793-43.798v-1.275C417.265,11.432,405.833,0,391.781,0c-13.957,0-25.323,11.28-25.476,25.201
		H145.697C145.544,11.28,134.177,0,120.22,0c-14.052,0-25.484,11.432-25.484,25.484v1.27c-30.198,6.571-52.221,33.38-52.221,64.92
		v257.432c0,36.654,29.82,66.474,66.473,66.474h12.999c4.621,13.822,11.4,26.917,20.239,38.905
		c2.459,3.334,7.155,4.044,10.487,1.586c3.334-2.458,4.044-7.153,1.586-10.487c-14.42-19.559-22.889-42.655-24.324-67.351h26.421
		c3.848,51.587,47.05,92.385,99.605,92.385s95.756-40.798,99.604-92.385h26.435C378.145,444.378,323.106,497,256.001,497
		c-28.782,0-55.888-9.431-78.388-27.272c-3.246-2.574-7.963-2.029-10.537,1.216c-2.574,3.246-2.029,7.963,1.216,10.537
		c76.306,60.508,190.433,27.183,221.676-65.901h13.045c36.653,0,66.473-29.82,66.473-66.474V108.533
		C469.486,104.391,466.129,101.033,461.986,101.033z M381.298,25.484c0-5.781,4.703-10.484,10.483-10.484
		c5.781,0,10.484,4.703,10.484,10.484v37.211c0,5.781-4.703,10.484-10.484,10.484c-5.78,0-10.483-4.703-10.483-10.484V25.484z
		 M109.736,25.484c0-5.781,4.703-10.484,10.484-10.484c5.781,0,10.484,4.703,10.484,10.484v37.211
		c0,5.781-4.703,10.484-10.484,10.484c-5.781,0-10.484-4.703-10.484-10.484C109.736,51.813,109.736,36.824,109.736,25.484z
		 M136.257,188.403c0.124-0.833,0.592-1.363,1.388-1.575c37.755-10.04,43.041-48.899,55.952-61.81
		c13.3-13.299,35.139-15.071,50.455-2.295c6.923,5.775,16.972,5.775,23.895,0c15.316-12.775,37.148-11.015,50.456,2.295
		c12.917,12.917,18.197,51.77,55.951,61.81c0.797,0.212,1.264,0.742,1.389,1.575c0.089,0.595,0.004,1.423-0.906,1.991
		c-18.359,11.439-66.162,32.692-113.407-16.884c-2.955-3.1-7.905-3.099-10.859,0c-47.245,49.575-95.048,28.323-113.408,16.884
		C136.253,189.827,136.168,188.998,136.257,188.403z M256.001,455.618c-46.766,0-84.882-38.034-84.885-84.892
		c0.004-46.803,38.082-84.879,84.885-84.879c46.806,0,84.885,38.08,84.885,84.885C340.885,417.538,302.806,455.618,256.001,455.618z
		 M355.605,363.232c-3.848-51.587-47.05-92.385-99.604-92.385s-95.757,40.798-99.605,92.385h-26.434
		c3.895-66.145,58.933-118.768,126.039-118.768s122.144,52.622,126.039,118.768H355.605z M454.486,349.106
		c0,28.383-23.091,51.474-51.473,51.474h-8.929c19.032-88.132-48.448-171.115-138.084-171.115
		c-89.562,0-157.038,82.762-138.101,171.115h-8.911c-28.382,0-51.473-23.091-51.473-51.474V180.018h66.077
		c-4.52,7.701-2.57,17.993,5.64,23.107c13.369,8.329,34.781,17.96,60.865,16.543c23.847-1.296,45.987-11.513,65.904-30.392
		c19.918,18.878,42.058,29.095,65.904,30.392c21.549,1.168,42.546-5.13,60.864-16.543c8.162-5.086,10.182-15.368,5.64-23.107h66.077
		V349.106z M168.447,72.987v15.383c0,4.142,3.358,7.5,7.5,7.5s7.5-3.358,7.5-7.5V72.987c0-4.142-3.358-7.5-7.5-7.5
		S168.447,68.845,168.447,72.987z M328.554,72.987v15.383c0,4.142,3.357,7.5,7.5,7.5s7.5-3.358,7.5-7.5V72.987
		c0-4.142-3.357-7.5-7.5-7.5S328.554,68.845,328.554,72.987z"/>
</g>
<g>
</g>
<g>
</g>
<g>
</g>
<g>
</g>
<g>
</g>
<g>
</g>
<g>
</g>
<g>
</g>
<g>
</g>
<g>
</g>
<g>
</g>
<g>
</g>
<g>
</g>
<g>
</g>
<g>
</g>
</svg>
