<?xml version="1.0" encoding="iso-8859-1"?>
<!-- Generator: Adobe Illustrator 23.1.0, SVG Export Plug-In . SVG Version: 6.00 Build 0)  -->
<svg version="1.1" id="Capa_1" xmlns="http://www.w3.org/2000/svg" xmlns:xlink="http://www.w3.org/1999/xlink" x="0px" y="0px"
	 viewBox="0 0 512 512" style="enable-background:new 0 0 512 512;" xml:space="preserve">
<g>
	<path d="M371.521,47.238l14.674-14.673c2.93-2.929,2.93-7.677,0.001-10.606c-2.929-2.929-7.678-2.93-10.606,0l-14.674,14.673
		c-2.93,2.929-2.93,7.677-0.001,10.606C363.842,50.166,368.591,50.168,371.521,47.238z M375.588,138.436
		c2.93,2.929,7.678,2.929,10.607,0c2.929-2.929,2.929-7.678,0-10.606l-14.674-14.674c-2.93-2.929-7.678-2.929-10.607,0
		c-2.929,2.929-2.929,7.678,0,10.606L375.588,138.436z M167.697,313.001c4.143,0,7.5-3.358,7.5-7.5c0-4.767,3.878-8.645,8.645-8.645
		c4.768,0,8.646,3.878,8.646,8.645c0,4.142,3.357,7.5,7.5,7.5c4.143,0,7.5-3.358,7.5-7.5c0-13.038-10.607-23.645-23.646-23.645
		s-23.645,10.607-23.645,23.645C160.197,309.644,163.555,313.001,167.697,313.001z M366.218,72.697c-4.143,0-7.5,3.358-7.5,7.5
		s3.357,7.5,7.5,7.5h19.271c4.143,0,7.5-3.358,7.5-7.5s-3.357-7.5-7.5-7.5H366.218z M312.013,313.001c4.143,0,7.5-3.358,7.5-7.5
		c0-4.767,3.878-8.645,8.645-8.645c4.768,0,8.646,3.878,8.646,8.645c0,4.142,3.357,7.5,7.5,7.5c4.143,0,7.5-3.358,7.5-7.5
		c0-13.038-10.607-23.645-23.646-23.645c-13.038,0-23.645,10.607-23.645,23.645C304.513,309.644,307.87,313.001,312.013,313.001z
		 M354.797,383.162c-23.689-6.299-25.931-33.229-38.966-46.267c-15.547-15.547-41.039-17.555-58.883-2.671
		c-0.559,0.466-1.338,0.466-1.896,0c-17.84-14.88-43.328-12.881-58.883,2.671c-13.011,13.014-15.294,39.972-38.966,46.267
		c-12.901,3.431-15.168,20.534-4.068,27.449c10.945,6.819,28.481,14.708,49.868,13.542c19.162-1.041,36.96-9.085,52.997-23.933
		c31.797,29.438,70.454,30.585,102.865,10.391C369.971,403.692,367.689,386.59,354.797,383.162z M350.934,397.879
		c-14.482,9.023-52.196,25.783-89.504-13.366c-2.95-3.095-7.899-3.105-10.859,0c-37.309,39.149-75.021,22.389-89.559,13.341
		c-0.018-0.05-0.003-0.174,0.047-0.197c30.909-8.219,35.788-40.229,45.718-50.157c10.198-10.198,26.928-11.552,38.666-1.759
		c6.119,5.103,14.998,5.103,21.115,0c11.758-9.809,28.486-8.422,38.666,1.759c9.891,9.889,14.85,41.96,45.738,50.134
		C350.991,397.681,351.006,397.805,350.934,397.879z M356.725,217.242v-45.704c0-14.416-11.729-26.145-26.145-26.145h-3.128V36.428
		C327.452,16.341,311.11,0,291.024,0h-55.406c-4.143,0-7.5,3.358-7.5,7.5s3.357,7.5,7.5,7.5h55.406
		c11.642,0,21.126,9.338,21.402,20.915c-29.166-8.209-58.137,13.832-58.137,44.054c0,30.195,28.954,52.287,58.163,44.046v21.379
		H199.548V36.428c0-6.025,2.434-11.603,6.852-15.706c3.035-2.819,3.211-7.564,0.393-10.599c-2.82-3.035-7.564-3.211-10.6-0.392
		c-7.4,6.872-11.645,16.603-11.645,26.697v108.966h-3.128c-14.416,0-26.145,11.729-26.145,26.145v45.704
		c-29.194,3.33-51.95,28.173-51.95,58.243v192.867c0,24.067,19.581,43.648,43.648,43.648h218.053
		c24.067,0,43.648-19.581,43.648-43.648V275.485C408.675,245.415,385.918,220.572,356.725,217.242z M269.289,79.969
		c0-22.207,22.918-37.092,43.163-28.138v20.638h-8.823c-4.143,0-7.5,3.358-7.5,7.5s3.357,7.5,7.5,7.5h8.823v20.638
		C292.22,117.056,269.289,102.187,269.289,79.969z M311.129,160.394h19.451c6.145,0,11.145,4.999,11.145,11.145v45.311h-30.596
		V160.394z M263.5,160.394h32.629v56.456H263.5V160.394z M215.871,160.394H248.5v56.456h-32.629V160.394z M170.275,171.538
		c0-6.145,4.999-11.145,11.145-11.145h19.451v56.456h-30.596V171.538z M393.675,421.595c0,13.551-9.617,25.355-22.867,28.066
		c-4.058,0.831-6.674,4.794-5.844,8.852c0.832,4.064,4.8,6.673,8.852,5.844c7.554-1.546,14.332-5.03,19.859-9.864v13.859
		c0,15.796-12.852,28.648-28.648,28.648H146.974c-15.797,0-28.648-12.852-28.648-28.648v-13.868
		c7.673,6.692,17.692,10.76,28.648,10.76h188.918c4.143,0,7.5-3.358,7.5-7.5c0-4.142-3.357-7.5-7.5-7.5H146.974
		c-15.797,0-28.648-12.852-28.648-28.648v-146.11c0-24.061,19.575-43.635,43.636-43.635h188.078
		c24.061,0,43.636,19.575,43.636,43.635V421.595z"/>
</g>
<g>
</g>
<g>
</g>
<g>
</g>
<g>
</g>
<g>
</g>
<g>
</g>
<g>
</g>
<g>
</g>
<g>
</g>
<g>
</g>
<g>
</g>
<g>
</g>
<g>
</g>
<g>
</g>
<g>
</g>
</svg>
