<?xml version="1.0" encoding="iso-8859-1"?>
<!-- Generator: Adobe Illustrator 23.1.0, SVG Export Plug-In . SVG Version: 6.00 Build 0)  -->
<svg version="1.1" id="Capa_1" xmlns="http://www.w3.org/2000/svg" xmlns:xlink="http://www.w3.org/1999/xlink" x="0px" y="0px"
	 viewBox="0 0 512 512" style="enable-background:new 0 0 512 512;" xml:space="preserve">
<g>
	<path d="M262.143,119.723c0-22.259-18.109-40.368-40.368-40.368c-22.26,0-40.369,18.109-40.369,40.368
		c0,22.259,18.109,40.369,40.369,40.369C244.034,160.091,262.143,141.982,262.143,119.723z M196.406,119.723
		c0-13.988,11.381-25.368,25.369-25.368s25.368,11.38,25.368,25.368c0,13.988-11.38,25.369-25.368,25.369
		S196.406,133.711,196.406,119.723z M356.843,72.261c19.922,0,36.13-16.208,36.13-36.13c0-19.922-16.208-36.13-36.13-36.13
		c-19.923,0-36.131,16.208-36.131,36.13C320.713,56.053,336.921,72.261,356.843,72.261z M356.843,15
		c11.651,0,21.13,9.479,21.13,21.13c0,11.651-9.479,21.13-21.13,21.13c-11.651,0-21.131-9.479-21.131-21.13
		C335.713,24.479,345.192,15,356.843,15z M450.165,145.149c-1.274-27.971-24.167-51.065-52.118-52.577
		c-20.953-1.132-40.49,9.459-50.949,27.648c-2.932,5.099-8.465,8.493-14.801,9.079c-11.686,1.081-22.883,5.015-32.67,11.34V76.967
		c0-19.05-15.498-34.549-34.549-34.549H195.27c-4.143,0-7.5,3.358-7.5,7.5s3.357,7.5,7.5,7.5h69.808
		c10.779,0,19.549,8.77,19.549,19.549v98.771c0,2.244-1.185,4.212-2.959,5.326c-0.974,0.577-1.983,0.965-3.332,0.965
		c-118.818-0.318-113.47,0.761-116.25-0.84c-2.158-1.377-3.163-3.309-3.163-5.45V76.967c0-5.611,2.417-10.959,6.632-14.674
		c3.108-2.738,3.407-7.478,0.669-10.585c-2.738-3.108-7.478-3.407-10.585-0.668c-7.445,6.561-11.716,16.011-11.716,25.928
		c0.324,104.187-0.749,99.347,0.896,104.852c-11.414,1.792-22.146,3.988-32.019,6.562c-30.042,7.831-51.023,35.043-51.023,66.177
		v207.175c0,27.718,22.55,50.268,50.267,50.268H311.57c4.143,0,7.5-3.358,7.5-7.5s-3.357-7.5-7.5-7.5H112.044
		c-19.446,0-35.267-15.821-35.267-35.268v-134.01c16.227-5.204,36.397-8.058,59.02-8.364v99.479
		c0,14.521,11.814,26.335,26.335,26.335h6.503c-9.356,7.229-17.5,11.463-21.46,14.185c-3.414,2.346-4.279,7.016-1.933,10.429
		c2.353,3.423,7.025,4.272,10.429,1.932c4.954-3.402,20.24-11.013,35.594-26.546h90.153c14.521,0,26.335-11.814,26.335-26.335
		v-53.834c18.705,5.135,42.606,7.107,59.021-3.366v100.094c0,14.451-8.655,27.29-22.05,32.71c-3.84,1.554-5.692,5.926-4.139,9.766
		c1.548,3.827,5.911,5.697,9.766,4.14c19.089-7.724,31.423-26.022,31.423-46.615V261.104c16.798-12.094,27.607-30.5,29.863-51.107
		c0.622-5.672,4.148-10.751,9.434-13.586C439.993,186.26,451.141,166.618,450.165,145.149z M135.797,292.806v11.549
		c-22.122,0.282-42.206,2.911-59.02,7.702v-57.5c0-24.309,16.369-45.553,39.807-51.662c12.1-3.154,25.609-5.715,40.158-7.636
		c2.599,1.132,5.462,1.769,8.473,1.769h49.061v69.444h-52.143C147.61,266.472,135.797,278.285,135.797,292.806z M292.753,418.837
		c0,6.25-5.085,11.335-11.335,11.335H162.131c-6.25,0-11.335-5.085-11.335-11.335v-93.103h141.956V418.837z M292.753,310.734
		H150.797v-17.928c0-6.25,5.085-11.335,11.335-11.335h119.286c6.25,0,11.335,5.085,11.335,11.335V310.734z M359.558,348.423
		c-10.35,7.307-30.31,7.585-51.806,0.945v-21.799c21.512-8.524,43.589-10.047,53.768-3.429c3.584,2.33,5.253,5.491,5.253,9.949
		C366.773,340.308,364.413,344.997,359.558,348.423z M366.773,309.891c-13.79-6.97-36.148-6.259-59.021,1.674v-18.759
		c0-14.521-11.813-26.335-26.335-26.335h-52.144v-69.444h49.062c3.011,0,5.874-0.637,8.473-1.769
		c14.549,1.921,28.058,4.482,40.158,7.636c23.438,6.109,39.807,27.354,39.807,51.662V309.891z M413.98,183.192
		c-9.644,5.173-16.094,14.583-17.254,25.171c-1.419,12.958-7.115,24.819-16.059,33.969c-4.672-25.829-23.888-47.167-49.918-53.952
		c-9.874-2.574-20.606-4.77-32.019-6.562c1.473-4.929,0.659-7.152,0.896-22.233c9.377-8.75,21.357-14.175,34.052-15.349
		c11.187-1.035,21.065-7.218,26.423-16.539c7.621-13.253,21.839-20.98,37.135-20.147c20.35,1.1,37.017,17.914,37.944,38.28
		C435.892,161.48,427.769,175.795,413.98,183.192z M206.434,403.516h30.681c4.143,0,7.5-3.358,7.5-7.5c0-4.142-3.357-7.5-7.5-7.5
		h-30.681c-4.143,0-7.5,3.358-7.5,7.5C198.934,400.158,202.292,403.516,206.434,403.516z M206.434,367.39h30.681
		c4.143,0,7.5-3.358,7.5-7.5c0-4.142-3.357-7.5-7.5-7.5h-30.681c-4.143,0-7.5,3.358-7.5,7.5
		C198.934,364.032,202.292,367.39,206.434,367.39z M229.529,119.723c0-4.283-3.472-7.754-7.754-7.754
		c-4.282,0-7.754,3.472-7.754,7.754s3.472,7.754,7.754,7.754C226.057,127.477,229.529,124.005,229.529,119.723z"/>
</g>
<g>
</g>
<g>
</g>
<g>
</g>
<g>
</g>
<g>
</g>
<g>
</g>
<g>
</g>
<g>
</g>
<g>
</g>
<g>
</g>
<g>
</g>
<g>
</g>
<g>
</g>
<g>
</g>
<g>
</g>
</svg>
