<?xml version="1.0" encoding="iso-8859-1"?>
<!-- Generator: Adobe Illustrator 23.1.0, SVG Export Plug-In . SVG Version: 6.00 Build 0)  -->
<svg version="1.1" id="Capa_1" xmlns="http://www.w3.org/2000/svg" xmlns:xlink="http://www.w3.org/1999/xlink" x="0px" y="0px"
	 viewBox="0 0 512 512" style="enable-background:new 0 0 512 512;" xml:space="preserve">
<g>
	<path d="M131.177,108.1c0-14.959-4.905-29.047-14.185-40.741c-2.574-3.245-7.292-3.787-10.537-1.213
		c-3.244,2.575-3.788,7.292-1.213,10.537c7.153,9.015,10.935,19.879,10.935,31.417c0,27.894-22.693,50.589-50.588,50.589
		C37.694,158.689,15,135.994,15,108.1c0-33.464,32.178-57.954,64.617-48.621c3.979,1.151,8.137-1.151,9.281-5.133
		c1.146-3.98-1.152-8.136-5.133-9.281C41.752,32.972,0,64.683,0,108.1c0,36.166,29.423,65.589,65.589,65.589
		C101.754,173.689,131.177,144.266,131.177,108.1z M272.242,344.884h-32.483c-4.143,0-7.5,3.357-7.5,7.5c0,4.143,3.357,7.5,7.5,7.5
		h32.483c4.143,0,7.5-3.357,7.5-7.5C279.742,348.241,276.385,344.884,272.242,344.884z M450.81,201.364
		c-33.74,0-61.19,27.45-61.19,61.19c0,41.003,39.783,70.534,79.091,58.528c3.962-1.21,6.192-5.401,4.982-9.363
		c-1.209-3.961-5.403-6.19-9.363-4.982c-29.671,9.058-59.71-13.219-59.71-44.183c0-25.47,20.721-46.19,46.19-46.19
		c25.47,0,46.19,20.721,46.19,46.19c0,9.591-2.91,18.784-8.415,26.588c-2.388,3.385-1.579,8.064,1.806,10.452
		c3.384,2.389,8.065,1.58,10.452-1.806C508.142,287.442,512,275.258,512,262.555C512,228.814,484.55,201.364,450.81,201.364z
		 M229.252,328.87h53.496c4.143,0,7.5-3.357,7.5-7.5c0-4.143-3.357-7.5-7.5-7.5h-53.496c-4.143,0-7.5,3.357-7.5,7.5
		C221.752,325.513,225.109,328.87,229.252,328.87z M372.494,356.275V196.709c0-27.395-18.754-50.488-44.097-57.126l-14.27-102.208
		c-2.166-15.519-15.615-27.221-31.285-27.221h-53.684c-15.67,0-29.119,11.702-31.285,27.221l-14.27,102.208
		c-24.81,6.498-43.286,28.771-44.053,55.407c-43.275-6.546-81.896,25.804-84.705,67.935c-0.988,14.815,2.401,29.37,9.803,42.091
		c2.467,4.239,1.906,9.692-1.394,13.57c-11.919,14.002-18.148,31.865-17.543,50.3c1.56,47.433,47.62,81.625,93.795,68.58v30.464
		c0,18.701,15.214,33.916,33.915,33.916h165.158c18.701,0,33.915-15.215,33.915-33.916v-4.998
		c22.549-7.241,38.918-28.405,38.918-53.328C411.412,384.681,395.043,363.517,372.494,356.275z M139.506,421.702
		c-37.616,13.671-77.502-13.73-78.803-53.308c-0.483-14.696,4.48-28.932,13.973-40.085c7.418-8.715,8.599-21.107,2.937-30.838
		c-5.892-10.125-8.59-21.727-7.801-33.548c2.248-33.714,34.201-60.481,69.694-53.727V421.702z M212.729,39.449
		c1.138-8.149,8.201-14.295,16.43-14.295h53.684c8.229,0,15.292,6.146,16.43,14.295l3.56,25.5h-93.664L212.729,39.449z
		 M207.074,79.949h97.852l8.058,57.712H199.016L207.074,79.949z M154.506,196.709c0-24.416,19.925-44.048,44.048-44.048
		c123.252,0.194,113.822-0.463,121.783,0.543c21.026,3.318,37.158,21.561,37.158,43.505v156.945
		c-7.354-0.271-14.336,0.847-20.977,3.234v-89.909c0-15.506-12.614-28.12-28.12-28.12h-6.513
		c-3.598-22.084-22.799-38.998-45.884-38.998s-42.287,16.914-45.885,38.998h-6.513c-15.506,0-28.12,12.614-28.12,28.12v101.85
		c0,15.506,12.614,28.12,28.12,28.12h97.264c-2.745,11.83-1.581,24.022,3.183,34.952H154.506
		C154.506,421.071,154.506,209.825,154.506,196.709z M256,292.856c23.085,0,42.287-16.914,45.884-38.998h6.513
		c7.234,0,13.12,5.886,13.12,13.12v98.081c-5.988,4.567-11.025,10.314-14.776,16.888H203.602c-7.234,0-13.12-5.886-13.12-13.12
		v-101.85c0-7.234,5.886-13.12,13.12-13.12h6.513C213.713,275.943,232.915,292.856,256,292.856z M224.502,246.358
		c0-17.368,14.13-31.498,31.498-31.498s31.498,14.13,31.498,31.498s-14.13,31.498-31.498,31.498S224.502,263.727,224.502,246.358z
		 M357.494,467.93c0,10.431-8.485,18.916-18.915,18.916H173.421c-10.43,0-18.915-8.485-18.915-18.916V446.9h159.173
		c10.829,12.104,26.585,19.287,43.815,18.653V467.93z M355.409,450.606c-22.609,0-41.003-18.394-41.003-41.003
		c0-22.609,18.393-41.003,41.003-41.003c22.609,0,41.003,18.394,41.003,41.003C396.412,432.213,378.019,450.606,355.409,450.606z"/>
</g>
<g>
</g>
<g>
</g>
<g>
</g>
<g>
</g>
<g>
</g>
<g>
</g>
<g>
</g>
<g>
</g>
<g>
</g>
<g>
</g>
<g>
</g>
<g>
</g>
<g>
</g>
<g>
</g>
<g>
</g>
</svg>
