<?xml version="1.0" encoding="iso-8859-1"?>
<!-- Generator: Adobe Illustrator 23.1.0, SVG Export Plug-In . SVG Version: 6.00 Build 0)  -->
<svg version="1.1" id="Capa_1" xmlns="http://www.w3.org/2000/svg" xmlns:xlink="http://www.w3.org/1999/xlink" x="0px" y="0px"
	 viewBox="0 0 512.006 512.006" style="enable-background:new 0 0 512.006 512.006;" xml:space="preserve">
<g>
	<path d="M243.13,427.454c18.624,21.076,51.367,27.159,78.879,21.372c38.476-8.092,57.607-45.503,42.569-78.657
		c-4.938-10.885-20.825-8.85-23.208,2.774c-1,4.874-4.104,8.345-9.227,10.314c-9.237,3.554-21.911,1.182-31.537-5.902
		c-24.128-17.754-40.578-14.535-57.477-7.804c-16.899-6.733-33.35-9.951-57.477,7.804c-9.626,7.083-22.3,9.454-31.538,5.902
		c-5.123-1.97-8.227-5.44-9.227-10.315c-2.387-11.637-18.274-13.646-23.208-2.773c-15.006,33.082,4.009,70.546,42.568,78.656
		C191.763,454.612,224.521,448.514,243.13,427.454z M132.84,383.501c10.353,20.001,40.836,21.292,61.704,5.936
		c20.741-15.265,32.309-10.443,45.702-4.862c1.846,0.77,3.924,0.77,5.77,0c13.393-5.582,24.959-10.402,45.702,4.862
		c13.792,10.149,31.776,13.219,45.811,7.821c7.222-2.777,12.675-7.543,15.892-13.758c5.471,21.65-7.296,44.926-34.498,50.646
		c-24.677,5.193-56.415-1.112-69.315-23.205c-2.887-4.944-10.057-4.958-12.953,0c-12.901,22.093-44.638,28.399-69.317,23.205
		C140.133,428.425,127.369,405.148,132.84,383.501z M348.047,171.684c-25.46-6.77-27.837-35.508-41.641-49.314
		c-16.544-16.542-43.374-18.318-61.964-2.81c-0.773,0.644-1.851,0.645-2.624,0c-18.772-15.66-45.597-13.557-61.964,2.811
		c-13.764,13.765-16.213,42.552-41.64,49.313c-13.311,3.538-15.652,21.186-4.198,28.322c34.741,21.644,75.687,19.879,109.115-11.292
		c33.512,31.251,74.516,32.848,109.113,11.293C363.706,192.864,361.346,175.218,348.047,171.684z M344.311,187.275
		c-15.495,9.652-55.845,27.591-95.752-14.285c-2.949-3.096-7.9-3.105-10.858,0c-39.908,41.875-80.257,23.94-95.753,14.285
		c-0.136-0.085-0.342-0.214-0.279-0.63c0.056-0.374,0.238-0.423,0.399-0.466c32.883-8.744,37.536-42.346,48.393-53.203
		c11.009-11.009,29.075-12.472,41.748-1.899c6.328,5.278,15.514,5.28,21.842,0c12.696-10.591,30.759-9.089,41.748,1.898
		c10.865,10.866,15.501,44.458,48.394,53.204c0.161,0.043,0.343,0.092,0.399,0.466C344.654,187.061,344.448,187.19,344.311,187.275z
		 M243.13,240.837c-24.132-13.41-77.927-5.097-100.309,26.065c-11.136,15.505-9.852,36.32,3.122,50.621
		c10.672,11.763,30.386,19.423,54.93,7.798c20.682,21.927,63.806,21.954,84.512,0c24.545,11.626,44.258,3.965,54.931-7.798
		c12.975-14.301,14.259-35.116,3.123-50.621C320.965,235.613,267.13,227.502,243.13,240.837z M329.207,307.444
		c-3.662,4.036-17.513,16.103-41.991,1.9c-3.383-1.963-7.703-0.998-9.929,2.216c-9.481,13.685-27.045,15.162-34.157,15.162
		c-7.112,0-24.676-1.478-34.157-15.162c-2.234-3.225-6.56-4.171-9.929-2.216c-24.478,14.202-38.329,2.138-41.991-1.9
		c-8.177-9.013-9.02-22.086-2.048-31.792c19.591-27.276,70.011-31.459,83.232-20.073c2.813,2.422,6.976,2.422,9.788,0
		c13.183-11.35,63.596-7.263,83.231,20.073C338.226,285.358,337.385,298.432,329.207,307.444z M453.966,50.959
		c-3.981-1.148-8.137,1.149-9.284,5.129c-1.147,3.98,1.149,8.136,5.129,9.283c15.776,4.549,26.794,19.207,26.794,35.646v358.89
		c0,20.453-16.64,37.093-37.092,37.093h-46.107c7.565-7.451,12.859-17.19,14.767-28.084h14.332
		c16.207,0,29.393-13.185,29.393-29.393V121.402c0-16.208-13.186-29.394-29.393-29.394h-14.332
		c-1.908-10.893-7.202-20.632-14.767-28.083h23.338c4.142,0,7.5-3.357,7.5-7.5s-3.358-7.5-7.5-7.5h-52.368V31.015
		C364.376,13.913,350.463,0,333.362,0h-42.275c-9.395,0-17.822,4.205-23.514,10.826C261.88,4.205,253.453,0,244.058,0h-42.275
		c-17.101,0-31.014,13.913-31.014,31.015v17.911H96.303c-41.507,0-75.902,33.763-75.902,75.901v311.271
		c0,36.251,25.817,68.168,63.081,74.798c9.201,1.573,14.93,0.969,20.634,1.105c4.142,0,7.5-3.357,7.5-7.5s-3.358-7.5-7.5-7.5
		c-7.246-0.041-8.132,0.095-11.825-0.147V64.073c4.279-0.28-12.215-0.084,264.584-0.147c20.453,0,37.092,16.64,37.092,37.092v358.89
		c0,20.453-16.64,37.093-37.092,37.093H140.177c-4.142,0-7.5,3.357-7.5,7.5s3.358,7.5,7.5,7.5c31.477,0,290.416,0,299.335,0
		c28.724,0,52.092-23.369,52.092-52.093v-358.89C491.604,77.933,476.127,57.348,453.966,50.959z M408.968,107.009h13.536
		c7.936,0,14.393,6.457,14.393,14.394v318.121c0,7.937-6.457,14.393-14.393,14.393h-13.536V107.009z M77.291,493.945
		c-24.297-8.006-41.89-30.904-41.89-57.847V124.827c0-26.943,17.593-49.84,41.89-57.846V493.945z M260.073,48.926h-74.304V31.015
		c0-8.83,7.184-16.015,16.014-16.015h42.275c8.831,0,16.015,7.185,16.015,16.015V48.926z M349.376,48.926h-74.303V31.015
		c0-8.83,7.184-16.015,16.014-16.015h42.275c8.83,0,16.014,7.185,16.014,16.015V48.926z"/>
</g>
<g>
</g>
<g>
</g>
<g>
</g>
<g>
</g>
<g>
</g>
<g>
</g>
<g>
</g>
<g>
</g>
<g>
</g>
<g>
</g>
<g>
</g>
<g>
</g>
<g>
</g>
<g>
</g>
<g>
</g>
</svg>
