<?xml version="1.0" encoding="iso-8859-1"?>
<!-- Generator: Adobe Illustrator 23.1.0, SVG Export Plug-In . SVG Version: 6.00 Build 0)  -->
<svg version="1.1" id="Capa_1" xmlns="http://www.w3.org/2000/svg" xmlns:xlink="http://www.w3.org/1999/xlink" x="0px" y="0px"
	 viewBox="0 0 512 512" style="enable-background:new 0 0 512 512;" xml:space="preserve">
<g>
	<path d="M193.551,244.761c-4.142,0-7.5,3.357-7.5,7.5v12c0,4.143,3.358,7.5,7.5,7.5c4.142,0,7.5-3.357,7.5-7.5v-12
		C201.051,248.118,197.693,244.761,193.551,244.761z M406.697,120.936c1.354-5.754,6.46-18.618,9.727-22.43
		c2.696-3.145,2.332-7.88-0.813-10.575c-3.144-2.697-7.88-2.332-10.575,0.813c-5.587,6.518-11.394,22.186-12.94,28.756
		c-0.949,4.032,1.551,8.069,5.583,9.019C401.728,127.469,405.752,124.953,406.697,120.936z M470.352,47.475
		C409.894,15.529,339.779,0,256,0c-52.822,0-99.312,6.034-142.127,18.447c-3.979,1.153-6.269,5.313-5.115,9.291
		c1.153,3.979,5.313,6.27,9.291,5.115C159.488,20.84,204.612,15,256,15c81.276,0,149.099,14.961,207.345,45.736
		c5.179,2.737,6.973,9.298,3.886,14.345c-32.291,52.8-45.312,100.42-52.08,133.576c-2.333-0.14,1.747-0.043-72.626-0.073
		c1.735-29.147,12.708-71.97,23.501-89.833c2.143-3.545,1.005-8.156-2.54-10.298c-3.546-2.144-8.156-1.004-10.298,2.54
		c-12.082,19.995-23.949,65.95-25.683,97.591H263.5V107.32c0-4.143-3.358-7.5-7.5-7.5c-4.142,0-7.5,3.357-7.5,7.5v101.264h-64.006
		c-1.734-31.641-13.6-77.595-25.683-97.591c-2.142-3.545-6.751-4.685-10.298-2.54c-3.545,2.142-4.683,6.753-2.54,10.298
		c10.793,17.863,21.766,60.686,23.501,89.833c-74.391,0.03-70.295-0.067-72.626,0.073C90.08,175.501,77.06,127.881,44.769,75.081
		c-3.081-5.038-1.303-11.603,3.886-14.345c11.612-6.136,23.798-11.722,36.219-16.603c3.855-1.515,5.752-5.868,4.237-9.724
		c-1.516-3.854-5.868-5.75-9.724-4.237c-12.938,5.084-25.636,10.905-37.74,17.302c-12.851,6.789-17.243,23.058-9.675,35.433
		c31.404,51.349,43.904,97.702,50.382,129.744c-11.714,6.067-19.742,18.296-19.742,32.372v23.963
		c0,31.902,25.954,57.857,57.857,57.857h69.274c7.218,13.988,16.848,24.767,16.848,40.06c0,23.762-20.528,30.525-20.528,88.25
		C186.063,493.605,216.732,512,256,512c14.385,0,27.081-2.379,37.735-7.07c3.791-1.67,5.511-6.096,3.841-9.887
		c-1.67-3.791-6.098-5.51-9.886-3.842C279.075,494.995,268.117,497,256,497c-16.518,0-54.937-4.078-54.937-41.848
		c0-3.918,0.1-7.563,0.285-10.972h109.303c0.522,9.616,0.742,17.634-1.972,25.485c-1.354,3.914,0.723,8.186,4.638,9.538
		c3.896,1.35,8.181-0.708,9.539-4.638c2.044-5.911,3.08-12.443,3.08-19.414c0-58.125-20.528-64.245-20.528-88.25
		c0-15.291,9.621-26.055,16.848-40.06h69.274c31.902,0,57.856-25.954,57.856-57.857v-23.963c0-14.077-8.029-26.306-19.742-32.372
		c6.479-32.042,18.978-78.395,50.382-129.744C487.595,70.534,483.204,54.264,470.352,47.475z M309.103,429.181H202.897
		c4.892-30.754,18.694-38.285,18.694-62.278c0-16.002-7.074-27.207-14.673-40.06h98.163c-7.578,12.816-14.673,23.916-14.673,40.06
		C290.409,390.82,304.224,398.512,309.103,429.181z M434.388,245.023v23.963c0,23.631-19.225,42.857-42.856,42.857H120.469
		c-23.631,0-42.856-19.226-42.856-42.857v-23.963c0-11.821,9.618-21.439,21.439-21.439h313.896
		C424.77,223.584,434.388,233.202,434.388,245.023z M277.392,258.249c-3.123-2.721-7.86-2.396-10.582,0.727
		c-2.73,3.133-6.67,4.929-10.81,4.929c-4.141,0-8.081-1.796-10.81-4.929c-2.721-3.123-7.459-3.447-10.582-0.727
		c-3.122,2.722-3.448,7.459-0.727,10.582c5.579,6.401,13.641,10.073,22.119,10.073c8.477,0,16.54-3.672,22.119-10.073
		C280.84,265.708,280.515,260.971,277.392,258.249z M192.487,97.688c3.846-1.539,5.716-5.903,4.178-9.75
		c-2.572-6.43-11.949-26.403-15.059-31.459c-2.17-3.526-6.791-4.629-10.318-2.457c-3.528,2.171-4.628,6.79-2.458,10.318
		c2.333,3.791,11.171,22.328,13.908,29.17C184.272,97.343,188.632,99.23,192.487,97.688z M318.449,244.761
		c-4.142,0-7.5,3.357-7.5,7.5v12c0,4.143,3.358,7.5,7.5,7.5s7.5-3.357,7.5-7.5v-12C325.949,248.118,322.591,244.761,318.449,244.761
		z"/>
</g>
<g>
</g>
<g>
</g>
<g>
</g>
<g>
</g>
<g>
</g>
<g>
</g>
<g>
</g>
<g>
</g>
<g>
</g>
<g>
</g>
<g>
</g>
<g>
</g>
<g>
</g>
<g>
</g>
<g>
</g>
</svg>
