<?xml version="1.0" encoding="iso-8859-1"?>
<!-- Generator: Adobe Illustrator 23.1.0, SVG Export Plug-In . SVG Version: 6.00 Build 0)  -->
<svg version="1.1" id="Capa_1" xmlns="http://www.w3.org/2000/svg" xmlns:xlink="http://www.w3.org/1999/xlink" x="0px" y="0px"
	 viewBox="0 0 512.021 512.021" style="enable-background:new 0 0 512.021 512.021;" xml:space="preserve">
<g>
	<path d="M456.248,316.8c-8.442-24.101-24.719-43.519-48.391-57.833c23.49-54.454-39.758-90.982-69.491-180.784
		c-7.467-22.552-18.979-41.856-33.293-55.828C290.09,7.731,273.13,0,256.026,0c-19.416,0-38.998,10.235-55.139,28.821
		c-2.716,3.128-2.382,7.864,0.745,10.581c3.129,2.716,7.866,2.381,10.581-0.745C225.461,23.401,241.021,15,256.026,15
		c27.286,0,54.653,27.286,68.1,67.897c24.92,75.266,73.802,117.021,73.802,151.4c0,13.382-5.53,25.939-15.172,34.452
		c-12.317,10.875-30.715,15.14-53.214,12.329c-2.606-0.325-5.143-0.767-7.613-1.31c10.705-10.722,18.327-24.122,21.43-39.162
		c0.837-4.057-1.773-8.023-5.83-8.861c-4.054-0.833-8.024,1.773-8.861,5.83c-6.425,31.14-36.975,53.741-72.642,53.741
		c-35.667,0-66.217-22.602-72.643-53.741c-0.837-4.058-4.805-6.665-8.861-5.83c-4.057,0.838-6.666,4.805-5.83,8.861
		c3.103,15.04,10.725,28.44,21.43,39.162c-2.469,0.544-5.008,0.984-7.614,1.309c-22.494,2.807-40.895-1.453-53.213-12.329
		c-9.642-8.513-15.171-21.07-15.171-34.452c0-34.38,48.877-76.123,73.802-151.4c1.778-5.373,3.841-10.616,6.129-15.585
		c1.733-3.763,0.088-8.217-3.674-9.95c-3.765-1.732-8.217-0.088-9.95,3.675c-2.522,5.476-4.792,11.244-6.746,17.146
		c-29.743,89.831-92.986,126.319-69.491,180.784C80.524,273.28,64.246,292.698,55.804,316.8
		C25.09,404.483,88.858,421.12,98.073,492.512c2.267,17.557,23.167,25.781,36.49,13.984c26.987-23.893,38.702-56.331,32.985-91.34
		c-3.456-21.167,7.346-32.725,17.017-38.692c17.17-10.595,42.464-10.315,57.581,0.636c8.303,6.015,19.459,6.013,27.76,0
		c15.12-10.951,40.412-11.23,57.581-0.636c9.671,5.968,20.474,17.524,17.017,38.692c-5.692,34.865,5.916,67.21,32.689,91.076
		c13.352,11.902,34.494,4.026,36.787-13.726c0.929-7.193,2.395-13.99,4.48-20.778c1.217-3.959-1.006-8.155-4.966-9.372
		c-3.951-1.216-8.155,1.006-9.372,4.966c-2.339,7.609-3.981,15.219-5.02,23.265c-0.749,5.806-7.554,8.349-11.929,4.448
		c-16.135-14.383-34.066-39.496-27.866-77.461c3.686-22.574-5.042-42.211-23.944-53.875c-22.324-13.777-54.25-13.24-74.257,1.252
		c-3.038,2.2-7.122,2.202-10.162,0c-20.007-14.491-51.931-15.029-74.258-1.252c-18.902,11.664-27.629,31.301-23.943,53.875
		c6.225,38.122-11.858,63.29-28.125,77.691c-4.209,3.726-10.93,1.059-11.67-4.674c-4.028-31.206-17.088-52.563-28.61-71.405
		c-17.23-28.177-30.84-50.433-14.379-97.428c7.234-20.652,21.312-37.393,41.851-49.867c17,21.998,45.012,27.514,72.557,24.072
		c7.051-0.88,13.747-2.465,19.977-4.698c14.665,9.514,32.566,15.052,51.681,15.052s37.016-5.538,51.681-15.052
		c6.23,2.233,12.925,3.818,19.976,4.698c27.693,3.458,55.643-2.186,72.557-24.073c20.54,12.475,34.617,29.215,41.851,49.867
		c19.055,54.399-2.204,75.567-22.488,110.987c-2.059,3.595-0.813,8.177,2.78,10.235c3.586,2.055,8.174,0.82,10.235-2.78
		C452.514,405.465,477.856,378.487,456.248,316.8z M256.026,401.489c-29.621,0-53.719,21.039-53.719,46.899
		c0,26.005,20.893,41.461,39.867,56.896c8.024,6.527,19.678,6.53,27.705,0c18.885-15.366,39.866-30.837,39.866-56.896
		C309.745,422.528,285.647,401.489,256.026,401.489z M260.414,493.647c-2.543,2.069-6.232,2.069-8.775,0
		c-16.385-13.334-34.331-26.056-34.331-45.259c0-17.59,17.369-31.899,38.719-31.899c21.35,0,38.719,14.31,38.719,31.899
		C294.745,467.691,276.513,480.556,260.414,493.647z M122.322,448.553c3.906,1.324,8.176-0.759,9.51-4.697
		c1.246-3.68,2.314-12.818-1.592-23.727c-1.396-3.898-5.69-5.933-9.59-4.531c-3.899,1.396-5.929,5.689-4.532,9.59
		c2.547,7.112,1.834,12.737,1.498,13.882C116.305,442.985,118.407,447.227,122.322,448.553z M392.674,408.286
		c3.932,1.332,8.184-0.777,9.512-4.693c6.7-19.757,4.696-58.454-20.884-78.768c-3.241-2.575-7.96-2.035-10.537,1.209
		c-2.576,3.244-2.035,7.962,1.209,10.537c18.821,14.946,21.411,46.268,16.007,62.203
		C386.65,402.697,388.752,406.956,392.674,408.286z M140.079,336.571c3.244-2.575,3.785-7.293,1.21-10.537
		c-2.577-3.244-7.294-3.786-10.538-1.209c-19.25,15.286-26.418,43.066-23.536,66.662c0.465,3.803,3.699,6.592,7.435,6.592
		c4.527,0,7.998-3.955,7.454-8.41C119.952,372.053,124.676,348.803,140.079,336.571z"/>
</g>
<g>
</g>
<g>
</g>
<g>
</g>
<g>
</g>
<g>
</g>
<g>
</g>
<g>
</g>
<g>
</g>
<g>
</g>
<g>
</g>
<g>
</g>
<g>
</g>
<g>
</g>
<g>
</g>
<g>
</g>
</svg>
