<?xml version="1.0" encoding="iso-8859-1"?>
<!-- Generator: Adobe Illustrator 23.1.0, SVG Export Plug-In . SVG Version: 6.00 Build 0)  -->
<svg version="1.1" id="Capa_1" xmlns="http://www.w3.org/2000/svg" xmlns:xlink="http://www.w3.org/1999/xlink" x="0px" y="0px"
	 viewBox="0 0 511.966 511.966" style="enable-background:new 0 0 511.966 511.966;" xml:space="preserve">
<g>
	<path d="M149.513,351.846l-21.4,21.4c-2.929,2.93-2.929,7.678,0,10.607c2.931,2.929,7.678,2.928,10.607,0l21.4-21.4
		c2.929-2.93,2.929-7.678,0-10.607C157.19,348.918,152.442,348.918,149.513,351.846z M363.306,356.833h-31.221
		c-4.143,0-7.5,3.357-7.5,7.5c0,4.143,3.357,7.5,7.5,7.5h31.221c4.143,0,7.5-3.357,7.5-7.5
		C370.806,360.19,367.449,356.833,363.306,356.833z M347.696,294.329c-38.6,0-70.003,31.403-70.003,70.004
		c0,38.6,31.403,70.003,70.003,70.003c38.601,0,70.004-31.403,70.004-70.003C417.7,325.732,386.297,294.329,347.696,294.329z
		 M347.696,419.336c-30.329,0-55.003-24.674-55.003-55.003s24.674-55.004,55.003-55.004s55.004,24.675,55.004,55.004
		S378.025,419.336,347.696,419.336z M500.535,162.389L362.326,24.18c-17.682-17.682-47.208-14.5-60.56,6.512
		c-13.02,20.491-27.347,38.557-43.688,55.087c-22.123-9.354-48.835-6.659-69.107,10.252c-2.706,2.258-6.636,2.259-9.342,0
		c-25.53-21.295-62.433-20.64-87.202,1.076c-3.114,2.73-3.426,7.47-0.695,10.584c2.732,3.115,7.468,3.427,10.584,0.695
		c19.119-16.76,47.765-17.47,67.705-0.836c8.274,6.901,20.284,6.899,28.559,0c21.286-17.759,51.682-15.348,70.221,3.192
		c17.53,17.527,24.309,68.371,73.111,81.348c4.238,1.127,5.055,6.836,1.305,9.173c-20.932,13.041-45.315,20.714-70.557,19.328
		c-29.949-1.627-57.852-15.796-82.931-42.112c-2.957-3.102-7.905-3.099-10.859,0c-27.943,29.321-62.487,46.607-102.962,41.349
		c-3.302-0.71-24.54-2.376-50.524-18.565c-3.758-2.342-2.923-8.049,1.306-9.173c33.562-8.925,47.532-36.358,57.732-56.39
		c1.879-3.691,0.411-8.207-3.28-10.087c-3.692-1.877-8.208-0.411-10.087,3.28c-9.904,19.451-21.131,41.497-48.22,48.7
		c-16.925,4.499-20.277,27.121-5.383,36.399c10.38,6.468,24.475,13.536,41.348,17.808c-19.945,20.23-37.61,43.223-53.581,70.751
		c-8.823,15.207-6.268,34.544,6.212,47.025L149.64,487.785c17.685,17.685,47.209,14.499,60.56-6.512
		c14.685-23.11,31.182-43.31,50.24-61.523c32.653,51.232,101.793,63.42,149.778,26.945c3.297-2.507,3.938-7.212,1.432-10.51
		c-2.506-3.296-7.211-3.939-10.51-1.432c-15.472,11.761-33.952,17.978-53.443,17.978c-48.743,0-88.398-39.655-88.398-88.398
		s39.655-88.399,88.398-88.399s88.399,39.656,88.399,88.399c0,16.323-4.482,32.268-12.962,46.108
		c-2.164,3.532-1.055,8.149,2.478,10.314c3.531,2.164,8.149,1.055,10.314-2.478c22.011-35.928,20.13-82.354-6.029-116.594
		c31.076-26.185,55.621-55.675,76.851-92.271C515.569,194.205,513.015,174.868,500.535,162.389z M22.038,338.969
		c-7.678-7.677-9.259-19.557-3.844-28.89c8.505-14.659,17.66-28.214,27.592-40.847c32.818,25.603,38.063,73.239,11.832,105.316
		L22.038,338.969z M197.54,473.228c-8.193,12.895-26.385,14.858-37.293,3.949l-28.21-28.21c24.3-22.497,61.053-26.063,89.187-8.756
		C212.826,450.584,204.96,461.551,197.54,473.228z M231.018,428.675c-34.225-22.299-79.816-18.23-109.586,9.688l-53.158-53.158
		c32.55-38.457,26.629-96.4-12.942-127.546c6.826-7.897,14.006-15.419,21.574-22.615c40.999,4.357,77.228-11.437,107.393-40.734
		c6.796,6.6,13.791,12.414,20.971,17.449c-14.608,15.779-24.15,34.687-27.012,53.694c-6.804,45.2,26.246,76.078,70.803,67.838
		c-7.336,23.26-6.364,49.264,4.034,72.755C245.346,413.271,238.007,420.801,231.018,428.675z M311.301,267.553
		c-23.655,8.925-43.203,26.285-54.961,48.396c-20.842,6.901-40.224,3.96-52.254-8.069c-20.166-20.165-13.76-59.435,14.162-87.987
		c31.902,17.681,67.149,20.358,100.991,9.146C320.549,241.003,317.791,254.541,311.301,267.553z M314.427,38.736
		c8.193-12.895,26.385-14.858,37.293-3.949l28.21,28.21c-24.299,22.496-61.052,26.063-89.185,8.757
		C299.13,61.399,306.986,50.446,314.427,38.736z M419.949,290.445c-24.741-24.199-58.515-33.544-90.28-27.936
		c4.628-13.346,6.009-26.877,3.914-39.095c6.653-3.025,12.545-6.293,17.565-9.421c14.916-9.292,11.511-31.908-5.382-36.399
		c-27.1-7.206-38.061-28.74-48.661-49.565c-8.178-16.067-13.095-25.488-25.536-34.594c3.199-3.314,6.32-6.691,9.374-10.13
		c34.082,22.205,79.681,18.358,109.597-9.697l53.152,53.152c-32.562,38.471-26.621,96.43,12.967,127.566
		C445.502,267.229,433.363,279.164,419.949,290.445z M493.772,201.886c-8.552,14.742-17.675,28.263-27.572,40.863
		c-32.828-25.592-38.094-73.241-11.852-105.332l35.58,35.58C497.606,180.673,499.186,192.553,493.772,201.886z M373.247,128.111
		l-21.4,21.4c-2.929,2.93-2.929,7.678,0,10.607c2.931,2.929,7.678,2.928,10.607,0l21.4-21.4c2.929-2.93,2.929-7.678,0-10.607
		C380.925,125.184,376.177,125.184,373.247,128.111z"/>
</g>
<g>
</g>
<g>
</g>
<g>
</g>
<g>
</g>
<g>
</g>
<g>
</g>
<g>
</g>
<g>
</g>
<g>
</g>
<g>
</g>
<g>
</g>
<g>
</g>
<g>
</g>
<g>
</g>
<g>
</g>
</svg>
