<?xml version="1.0" encoding="iso-8859-1"?>
<!-- Generator: Adobe Illustrator 23.1.0, SVG Export Plug-In . SVG Version: 6.00 Build 0)  -->
<svg version="1.1" id="Capa_1" xmlns="http://www.w3.org/2000/svg" xmlns:xlink="http://www.w3.org/1999/xlink" x="0px" y="0px"
	 viewBox="0 0 511.971 511.971" style="enable-background:new 0 0 511.971 511.971;" xml:space="preserve">
<g>
	<path d="M501.387,206.669L351.506,56.788c-31.238-31.236-81.797-31.242-113.038,0l-13.909,13.909
		c-10.199,10.199-25.737,13.014-38.662,7.001c-11.065-5.147-20.443-14.166-23.111-16.294
		c-11.499-10.232-24.511-24.004-40.432-39.949C94.518-6.423,49.269-7.045,21.484,20.07c-24.385,23.797-28.511,61.692-9.812,90.107
		c2.276,3.46,6.928,4.418,10.388,2.142c3.46-2.276,4.419-6.928,2.142-10.388C9.445,79.507,12.707,49.594,31.96,30.804
		C53.893,9.4,89.682,9.963,111.738,32.053c13.409,13.427,25.049,25.625,35.517,35.462l-79.604,79.604
		c-5.769-6.152-12.337-12.716-19.721-19.996c-2.949-2.907-7.697-2.876-10.606,0.075c-2.908,2.95-2.874,7.698,0.075,10.606
		c20.662,20.37,34.671,34.778,40.89,48.887c5.54,12.569,2.575,27.7-7.377,37.651l-13.966,13.966
		c-31.163,31.165-31.163,81.874,0,113.039l149.881,149.881c14.148,14.146,37.044,14.146,51.192,0
		c14.146-14.148,14.146-37.044,0-51.192l-70.704-70.704c-5.251-5.25-5.251-13.792,0-19.042l10.888-10.888
		c5.25-5.25,13.793-5.25,19.043,0l70.703,70.703c14.148,14.146,37.043,14.149,51.192,0c14.113-14.113,14.113-37.078,0-51.191
		l-70.704-70.704c-5.263-5.263-5.263-13.781,0.001-19.043l10.888-10.888c5.25-5.25,13.792-5.25,19.042,0l70.704,70.704
		c14.114,14.112,37.078,14.112,51.192,0c14.113-14.114,14.113-37.078,0-51.192l-70.704-70.704c-5.262-5.26-5.264-13.78,0-19.042
		l10.888-10.888c5.251-5.251,13.793-5.249,19.042,0l66.63,66.63c2.93,2.928,7.678,2.928,10.607,0c2.929-2.93,2.929-7.678,0-10.607
		l-66.63-66.63c-11.099-11.097-29.156-11.099-40.257,0l-10.888,10.888c-11.124,11.126-11.125,29.13,0,40.257l70.704,70.704
		c8.284,8.282,8.286,21.693,0.001,29.978c-8.267,8.265-21.714,8.264-29.978,0l-70.704-70.704c-11.099-11.097-29.156-11.099-40.257,0
		l-10.888,10.888c-11.126,11.128-11.125,29.131,0,40.258l70.703,70.704c8.266,8.265,8.266,21.712,0,29.977
		c-8.284,8.284-21.692,8.287-29.978-0.001l-70.704-70.703c-11.101-11.098-29.158-11.098-40.257,0l-10.888,10.888
		c-11.099,11.099-11.099,29.158,0,40.257l70.704,70.704c8.285,8.283,8.285,21.694,0,29.978c-8.283,8.285-21.694,8.285-29.978,0
		L67.554,340.741c-25.315-25.316-25.315-66.51,0-91.825L81.52,234.95c14.294-14.295,18.513-36.119,10.496-54.309
		c-3.278-7.435-8.104-14.641-14.397-22.275l80.888-80.888c7.113,5.856,13.965,10.518,21.064,13.821
		c18.618,8.657,40.958,4.641,55.596-9.995l13.909-13.91c25.372-25.374,66.445-25.379,91.823,0.001l149.881,149.881
		c11.501,11.5,6.169,30.999-9.143,35.37c-3.983,1.137-6.29,5.288-5.153,9.27c0.941,3.296,3.943,5.443,7.208,5.443
		c3.121,0,11.423-3.226,17.696-9.5C515.499,243.747,515.499,220.782,501.387,206.669z M252.927,145.869
		c2.931,2.929,7.678,2.928,10.607,0c2.929-2.93,2.929-7.678,0-10.607l-9.435-9.435c-2.93-2.928-7.678-2.928-10.607,0
		c-2.929,2.93-2.929,7.678,0,10.607L252.927,145.869z M91.218,91.059c11.052-11.05,11.053-28.937,0.001-39.991
		c-11.052-11.05-28.938-11.053-39.991,0c-11.049,11.051-11.054,28.938,0,39.99C62.277,102.11,80.165,102.112,91.218,91.059z
		 M61.835,61.675c5.186-5.188,13.587-5.191,18.776,0.001c5.188,5.188,5.192,13.588,0.001,18.776c0,0,0,0-0.001,0
		c-5.188,5.188-13.588,5.191-18.777,0C56.646,75.265,56.645,66.867,61.835,61.675z M207.532,176.233
		c-6.297,2.06-11.799,6.693-18.123,13.017c-7.768,7.768-23.93,23.931-6.034,41.829c14.225,14.223,36.712,15.581,50.079,2.216
		c13.194-13.195,12.2-35.66-2.217-50.077C223.869,175.849,215.901,173.5,207.532,176.233z M222.847,222.687
		c-7.346,7.348-20.296,6.354-28.864-2.215c-5.291-5.292-6.142-8.441,6.034-20.615c3.063-3.064,9.71-9.719,14.046-9.719
		c1.475,0,3.578,0.695,6.567,3.685v0.001C229.199,202.392,230.194,215.341,222.847,222.687z M125.986,243.335
		c-2.929,2.929-2.929,7.678,0.001,10.606l9.435,9.434c2.928,2.928,7.677,2.929,10.607-0.001c2.929-2.929,2.929-7.678-0.001-10.606
		l-9.435-9.434C133.664,240.406,128.915,240.405,125.986,243.335z"/>
</g>
<g>
</g>
<g>
</g>
<g>
</g>
<g>
</g>
<g>
</g>
<g>
</g>
<g>
</g>
<g>
</g>
<g>
</g>
<g>
</g>
<g>
</g>
<g>
</g>
<g>
</g>
<g>
</g>
<g>
</g>
</svg>
