<?xml version="1.0" encoding="iso-8859-1"?>
<!-- Generator: Adobe Illustrator 23.1.0, SVG Export Plug-In . SVG Version: 6.00 Build 0)  -->
<svg version="1.1" id="Capa_1" xmlns="http://www.w3.org/2000/svg" xmlns:xlink="http://www.w3.org/1999/xlink" x="0px" y="0px"
	 viewBox="0 0 512.014 512.014" style="enable-background:new 0 0 512.014 512.014;" xml:space="preserve">
<g>
	<path d="M467.076,275.024c-9.269,0-31.584,0.002-44.573,18.809c-10.206,1.122-22.154,1.82-36.242,2.116
		c2.784-21.043,6.627-42.239,11.918-63.06c4.688-18.447-5.476-36.574-21.999-43.282c-3.801-11.08-11.147-25.821-30.057-45.535
		c4.975-14.132,3.968-29.106-3.011-42.688c-6.618-12.879-17.798-22.785-29.983-26.868c-6.018-24.467-39.254-58.794-77.254-66.901
		c-10.122-2.159-20.165,4.332-22.386,14.472c-1.542,7.035-6.681,13.588-16.665,21.245c-3.287,2.521-3.908,7.229-1.387,10.516
		c2.521,3.286,7.228,3.906,10.516,1.387c8.747-6.709,19.174-16.174,22.189-29.938c0.461-2.104,2.525-3.454,4.604-3.012
		c33.458,7.139,62.997,38.89,66.138,57.2c-13.052,26.686-105.359,17.743-151.907,39.719c-0.145-14.055,6.567-27.642,29.463-43.796
		c3.384-2.388,4.192-7.067,1.805-10.451c-2.388-3.386-7.068-4.194-10.452-1.805c-20.004,14.113-39.533,32.823-35.098,64.838
		c-18.565,14.96-21.574,36.017-15.561,59.381c-21.069,3.418-35.385,24.26-29.983,45.518c3.836,15.095,7.109,31.408,9.795,48.664
		c-24.639-16.044-57.442-12.896-78.56,8.221v0.001c-24.51,24.51-24.513,64.183,0,88.696L131.44,491.529
		c13.329,13.328,32.938,16.633,49.401,9.892h147.995c4.142,0,7.5-3.357,7.5-7.5c0-4.142-3.358-7.5-7.5-7.5H200.805l5.948-5.948
		c8.858-8.859,13.286-20.495,13.286-32.131h164.26c-0.265,15.338-9.475,29.043-23.646,35.036c-3.815,1.613-5.6,6.014-3.986,9.829
		c1.613,3.814,6.014,5.6,9.829,3.985c19.943-8.435,32.829-27.875,32.829-49.526v-34.223c0-10.218-8.313-18.53-18.53-18.53h-1.536
		c0.197-8.869,0.48-17.481,0.847-25.862c17,0.209,30.698,0.927,42.398,2.218c12.988,18.809,35.304,18.811,44.574,18.811
		c24.779,0,44.938-25.807,44.938-57.528C512.014,300.831,491.855,275.024,467.076,275.024z M358.869,186.877H239.631
		c38.001-5.543,75.505-12.311,97.487-30.54C345.227,164.922,353.287,174.93,358.869,186.877z M134.192,148.414
		c13.551-21.691,55.438-26.666,92.394-31.055c36.436-4.327,71.039-8.437,83.828-27.849c7.708,3.261,14.952,10.158,19.357,18.73
		c5.455,10.615,5.873,22.407,1.24,33.343c-30.535,31.164-118.669,28.507-175.154,45.294h-23.309
		C127.693,170.587,128.228,157.96,134.192,148.414z M196.146,469.866l-11.056,11.056c-11.866,11.867-31.176,11.867-43.043,0
		L28.99,367.865c-18.647-18.645-18.651-48.831,0-67.483v0.001c21.143-21.143,56.312-17.84,73.157,6.847l40.147,58.839
		c20.727,30.376,39.676,45.832,53.851,60.756C208.013,438.69,208.012,457.999,196.146,469.866z M110.059,268.881h265.159
		c-6.35,36.542-9.902,77.627-10.965,126.031H185.468c-21.98-22.191-28.312-33.83-70.968-96.19
		C113.215,288.487,111.73,278.531,110.059,268.881z M380.793,409.913c1.946,0,3.53,1.584,3.53,3.53v19.898H217.507
		c-4.648-13.355-13.299-19.09-17.059-23.429H380.793z M378.032,253.881H107.271c-1.71-8.52-3.57-16.764-5.584-24.688
		c-3.509-13.807,7.09-27.316,21.49-27.316c0.153,0,209.664,0,238.975,0c14.415,0,24.996,13.523,21.489,27.316
		C381.605,237.208,379.739,245.429,378.032,253.881z M415.411,355.526c-10-0.815-21.315-1.295-34.544-1.467
		c0.882-15.1,2.071-29.416,3.574-43.07c11.6-0.208,21.856-0.677,30.972-1.417C411.745,323.068,411.742,342.02,415.411,355.526z
		 M467.076,375.08c-19.064,0-39.403-3.286-39.403-42.528c0-39.241,20.339-42.527,39.403-42.527
		c16.508,0,29.938,19.078,29.938,42.527C497.014,356.001,483.584,375.08,467.076,375.08z M242.664,340.66
		c8.796,0,17.16-3.809,22.948-10.45c2.721-3.123,2.396-7.86-0.727-10.582c-3.123-2.721-7.86-2.396-10.582,0.727
		c-2.938,3.372-7.181,5.306-11.64,5.306s-8.701-1.934-11.64-5.306c-2.721-3.122-7.459-3.447-10.582-0.727
		c-3.122,2.722-3.448,7.459-0.727,10.582C225.504,336.851,233.869,340.66,242.664,340.66z M177.069,332.854
		c4.142,0,7.5-3.357,7.5-7.5v-12c0-4.142-3.358-7.5-7.5-7.5c-4.142,0-7.5,3.358-7.5,7.5v12
		C169.569,329.497,172.927,332.854,177.069,332.854z M296.67,332.52c4.142,0,7.5-3.357,7.5-7.5c0-3.532,2.874-6.406,6.406-6.406
		s6.406,2.874,6.406,6.406c0,4.143,3.358,7.5,7.5,7.5s7.5-3.357,7.5-7.5c0-11.804-9.603-21.406-21.406-21.406
		s-21.406,9.602-21.406,21.406C289.17,329.163,292.528,332.52,296.67,332.52z"/>
</g>
<g>
</g>
<g>
</g>
<g>
</g>
<g>
</g>
<g>
</g>
<g>
</g>
<g>
</g>
<g>
</g>
<g>
</g>
<g>
</g>
<g>
</g>
<g>
</g>
<g>
</g>
<g>
</g>
<g>
</g>
</svg>
