<?xml version="1.0" encoding="iso-8859-1"?>
<!-- Generator: Adobe Illustrator 23.1.0, SVG Export Plug-In . SVG Version: 6.00 Build 0)  -->
<svg version="1.1" id="Capa_1" xmlns="http://www.w3.org/2000/svg" xmlns:xlink="http://www.w3.org/1999/xlink" x="0px" y="0px"
	 viewBox="0 0 512 512" style="enable-background:new 0 0 512 512;" xml:space="preserve">
<g>
	<path d="M470.906,255.983c0-82.18-66.858-149.038-149.038-149.038c-82.334,0-149.038,67.025-149.038,149.038
		c0,82.18,66.858,149.038,149.038,149.038C403.992,405.021,470.906,338.206,470.906,255.983z M298.21,124.036L189.921,232.325
		C199.753,177.341,243.226,133.868,298.21,124.036z M345.526,387.93l57.199-57.199c5.102-2.082,9.538-4.471,13.173-6.736
		c4.547-2.833,7.118-7.921,6.773-13.21l31.144-31.144C443.983,334.625,400.51,378.098,345.526,387.93z M327.298,299.199
		c-2.957-3.102-7.905-3.099-10.859,0c-32.748,34.36-65.824,20.959-79.591,12.723c19.097-5.656,27.127-21.435,33.025-33.022
		c2.574-5.059,5.006-9.836,7.642-12.471c9.026-9.028,23.873-10.267,34.31-1.563c5.818,4.855,14.268,4.855,20.088,0
		c10.407-8.682,25.26-7.491,34.309,1.563c2.635,2.635,5.067,7.412,7.642,12.471c5.898,11.587,13.931,27.365,33.026,33.022
		C393.122,320.156,360.045,333.561,327.298,299.199z M455.902,256.34l-42.062,42.062c-0.589-0.241-1.197-0.452-1.828-0.62
		c-13.538-3.6-19.254-14.829-24.781-25.688c-3.13-6.148-6.086-11.956-10.402-16.272c-14.451-14.453-38.068-16.206-54.524-2.475
		c-0.262,0.219-0.61,0.218-0.87,0.001c-16.494-13.761-40.107-11.945-54.526,2.473c-4.316,4.317-7.272,10.125-10.402,16.273
		c-5.527,10.859-11.243,22.088-24.779,25.688c-12.321,3.275-14.49,19.607-3.888,26.213c30.056,18.727,65.326,17.144,94.03-9.12
		c15.281,13.983,33.255,22.127,53.881,21.617l-53.524,53.525c-73.925,0.227-134.395-59.89-134.395-134.034
		c0-0.119,0.004-0.238,0.005-0.357l133.677-133.676C395.275,121.723,456.055,181.703,455.902,256.34z M321.868,65.851
		c-57.979,0-109.971,26.095-144.874,67.147H78.427c-0.193-20.237-11.514-38.377-29.654-47.432l-16.775-8.372
		C17.274,69.85,0,80.57,0,96.988v7.17c0,4.143,3.357,7.5,7.5,7.5s7.5-3.357,7.5-7.5v-7.17c0-5.289,5.566-8.736,10.301-6.371
		l16.774,8.372c13.176,6.576,21.361,19.809,21.361,34.534v244.92c0,14.726-8.186,27.958-21.36,34.534l-16.775,8.372
		C20.575,423.708,15,420.279,15,414.978V140.29c0-4.143-3.357-7.5-7.5-7.5s-7.5,3.357-7.5,7.5v274.689
		c0,16.417,17.273,27.139,31.998,19.793l16.776-8.372c18.139-9.054,29.46-27.195,29.653-47.432h98.567
		c65.246,76.742,178.513,89.476,258.865,29.201c3.314-2.486,3.984-7.188,1.499-10.501c-2.486-3.314-7.188-3.984-10.501-1.499
		c-30.476,22.862-66.78,34.946-104.989,34.946c-96.568,0-175.132-78.563-175.132-175.132S225.3,80.851,321.868,80.851
		S497,159.415,497,255.983c0,42.899-15.668,84.173-44.116,116.219c-2.75,3.098-2.469,7.838,0.629,10.588
		c3.099,2.751,7.838,2.468,10.588-0.629C494.989,347.367,512,302.556,512,255.983C512,151.144,426.707,65.851,321.868,65.851z
		 M78.437,195.831h63.058c-13.005,38.895-13.027,81.343,0,120.305H78.437V195.831z M147.234,331.135
		c5.004,11.583,11.129,22.571,18.235,32.832H78.437v-32.832H147.234z M147.234,180.831H78.437v-32.832h87.032
		C158.363,158.26,152.238,169.247,147.234,180.831z M255.79,213.869c-4.142,0-7.5,3.357-7.5,7.5v12.697c0,4.143,3.358,7.5,7.5,7.5
		c4.143,0,7.5-3.357,7.5-7.5v-12.697C263.29,217.226,259.933,213.869,255.79,213.869z M387.946,213.869c-4.143,0-7.5,3.357-7.5,7.5
		v12.697c0,4.143,3.357,7.5,7.5,7.5c4.143,0,7.5-3.357,7.5-7.5v-12.697C395.446,217.226,392.089,213.869,387.946,213.869z"/>
</g>
<g>
</g>
<g>
</g>
<g>
</g>
<g>
</g>
<g>
</g>
<g>
</g>
<g>
</g>
<g>
</g>
<g>
</g>
<g>
</g>
<g>
</g>
<g>
</g>
<g>
</g>
<g>
</g>
<g>
</g>
</svg>
