<?xml version="1.0" encoding="iso-8859-1"?>
<!-- Generator: Adobe Illustrator 23.1.0, SVG Export Plug-In . SVG Version: 6.00 Build 0)  -->
<svg version="1.1" id="Capa_1" xmlns="http://www.w3.org/2000/svg" xmlns:xlink="http://www.w3.org/1999/xlink" x="0px" y="0px"
	 viewBox="0 0 512.002 512.002" style="enable-background:new 0 0 512.002 512.002;" xml:space="preserve">
<g>
	<path d="M500.865,264.746c-21.06-6.846-33.414-20.647-56.065-33.009c-1.149-3.849-3.361-7.352-6.416-10.04L346.68,141
		c-3.257-2.866-6.938-4.976-10.819-6.339c-9.209-14.842-26.226-28.862-49.468-40.697c-23.337-11.883-51.265-20.504-78.638-24.276
		c-15.551-2.134-30.427,7.648-34.6,22.777c-6.233,22.597-35.09,33.915-62.55,47.422c-3.717,1.828-5.249,6.323-3.421,10.04
		c1.819,3.698,6.305,5.257,10.04,3.421c28.239-13.885,62.16-27.05,70.391-56.895c2.181-7.909,9.963-13.027,18.092-11.906
		c45.646,6.29,89.987,26.503,110.743,49.332c-5.491,1.436-10.672,4.294-14.942,8.563l-10.422,10.423
		c-8.75,8.749-11.584,21.329-8.348,32.558C220.85,202.56,119.083,199.025,60.943,230.63c-2.734-25.813,5.686-44.624,26.549-60.058
		c3.33-2.463,4.033-7.159,1.569-10.489c-2.464-3.332-7.16-4.031-10.49-1.569c-27.334,20.22-37.42,46.062-31.533,81.018
		c-6.66,5.033-12.467,10.769-17.248,17.341c-1.705,0.281-13.495-1.846-22.866,8.138c-4.88,5.2-7.321,11.968-6.871,19.057
		c4.107,64.76,29.433,115.684,87.683,146.556c14.792,7.84,31.845,11.983,49.317,11.983h153.684c17.473,0,34.526-4.143,49.316-11.983
		c3.449-1.827,6.837-3.756,10.071-5.731c3.535-2.16,4.65-6.776,2.49-10.311c-2.16-3.535-6.777-4.647-10.311-2.49
		c-2.975,1.817-6.095,3.593-9.275,5.278c-12.635,6.697-27.26,10.237-42.292,10.237H137.052c-15.032,0-29.657-3.54-42.292-10.237
		c-39.082-20.713-64.89-52.494-75.191-100.392h373.968c3.698,5.323,7.34,10.438,10.553,15.642
		c-7.277,23.414-18.701,42.619-34.884,58.605c-2.947,2.911-2.977,7.66-0.065,10.606c2.904,2.939,7.65,2.984,10.606,0.066
		c14.263-14.088,25.453-30.961,33.429-50.305c3.49,10.438,13.794,14.011,22.075,10.406c14.738-6.419,33.01-20.903,43.749-31.644
		c10.74-10.738,25.224-29.01,31.645-43.751C514.46,277.838,509.929,267.69,500.865,264.746z M301.693,163.47l10.422-10.423
		c6.708-6.706,17.538-7.052,24.655-0.786l12.575,11.065L311.972,200.7c-12.564-14.415-10.172-11.25-12.79-14.918
		C294.799,178.788,295.684,169.478,301.693,163.47z M290.367,198.853l51.055,58.019H49.705
		C96.818,212.274,220.067,219.71,290.367,198.853z M16.92,301.977c-0.848-6.061-1.485-12.338-1.898-18.859
		c-0.385-6.066,4.514-11.245,10.7-11.245c19.78,0,316.656,0,328.898,0l15.722,17.867c2.689,3.055,6.191,5.267,10.04,6.415
		c1.103,2.021,2.217,3.952,3.337,5.822H16.92z M391.156,280.134c-2.743,2.747-7.125,2.456-9.553-0.304l-59.701-67.846l38.727-38.728
		l67.846,59.702c2.766,2.432,3.047,6.81,0.305,9.553v-0.001L391.156,280.134z M496.892,280.614
		c-5.39,12.373-18.416,29.052-28.499,39.134c-10.082,10.083-26.761,23.109-39.133,28.498c-0.639,0.277-1.387,0.003-1.603-0.662
		c-7.066-21.739-19.594-34.242-30.938-53.103c4.649-2.492,5.657-4.695,17.95-16.643c6.742,8.206,12.103,16.379,16.561,25.277
		c1.845,3.684,6.345,5.212,10.065,3.346c3.703-1.855,5.201-6.361,3.346-10.064c-5.102-10.183-11.467-19.79-19.321-29.209
		l14.069-14.069c0-0.001,0-0.001,0-0.001c1.498-1.498,2.749-3.205,3.736-5.046c18.87,11.348,31.396,23.882,53.106,30.94
		C496.892,279.227,497.17,279.974,496.892,280.614z M131.662,346.923v12c0,4.143,3.358,7.5,7.5,7.5c4.142,0,7.5-3.357,7.5-7.5v-12
		c0-4.143-3.358-7.5-7.5-7.5C135.02,339.423,131.662,342.781,131.662,346.923z M213.894,345.364c-8.152,0-14.697,0.566-20.146,3.329
		c-5.04,2.556-11.048,8.133-11.048,20.19c0,18.755,13.994,34.013,31.194,34.013s31.193-15.258,31.193-34.013
		c0-12.057-6.008-17.634-11.047-20.19C228.592,345.93,222.046,345.364,213.894,345.364z M213.894,387.895
		c-8.929,0-16.194-8.529-16.194-19.013c0-5.907,0.655-8.519,16.194-8.519c15.538,0,16.193,2.611,16.193,8.519
		C230.088,379.366,222.824,387.895,213.894,387.895z M281.126,346.923v12c0,4.143,3.357,7.5,7.5,7.5c4.143,0,7.5-3.357,7.5-7.5v-12
		c0-4.143-3.357-7.5-7.5-7.5C284.483,339.423,281.126,342.781,281.126,346.923z"/>
</g>
<g>
</g>
<g>
</g>
<g>
</g>
<g>
</g>
<g>
</g>
<g>
</g>
<g>
</g>
<g>
</g>
<g>
</g>
<g>
</g>
<g>
</g>
<g>
</g>
<g>
</g>
<g>
</g>
<g>
</g>
</svg>
