<?xml version="1.0" encoding="iso-8859-1"?>
<!-- Generator: Adobe Illustrator 23.1.0, SVG Export Plug-In . SVG Version: 6.00 Build 0)  -->
<svg version="1.1" id="Capa_1" xmlns="http://www.w3.org/2000/svg" xmlns:xlink="http://www.w3.org/1999/xlink" x="0px" y="0px"
	 viewBox="0 0 512 512" style="enable-background:new 0 0 512 512;" xml:space="preserve">
<g>
	<path d="M277.156,195.207v-17.076c0-22.095-17.976-40.07-40.07-40.07h-4.646V98.828c0-16.984-13.818-30.803-30.803-30.803h-30.931
		c-16.984,0-30.803,13.818-30.803,30.803v39.232h-4.646c-22.095,0-40.07,17.976-40.07,40.07v17.076
		c-16.042,7.628-27.161,23.989-27.161,42.903v228.838c0,18.491,11.587,35.387,28.834,42.043c3.865,1.493,8.207-0.433,9.697-4.297
		c1.491-3.864-0.433-8.206-4.297-9.697c-11.505-4.44-19.234-15.712-19.234-28.049v-32.17H144.8
		c14.798,24.111,44.014,39.697,87.23,33.848c0-0.001,0-0.001,0-0.001c10.152-1.376,14.509-13.721,7.39-21.071
		c-3.168-3.271-6.11-7.612-8.695-12.775h58.592v32.17c0,16.571-13.482,30.053-30.053,30.053H135.239c-4.143,0-7.5,3.357-7.5,7.5
		s3.357,7.5,7.5,7.5h124.025c24.842,0,45.053-20.211,45.053-45.053V238.109C304.317,219.196,293.198,202.835,277.156,195.207z
		 M154.903,98.828c0-8.714,7.089-15.803,15.803-15.803h30.931c8.714,0,15.803,7.089,15.803,15.803v4.215h-12.703
		c-4.143,0-7.5,3.357-7.5,7.5c0,4.143,3.357,7.5,7.5,7.5h12.703v20.018h-62.536V98.828z M110.187,178.131
		c0-13.824,11.246-25.07,25.07-25.07c3.176,0,98.504,0.002,101.829,0c13.824,0,25.07,11.246,25.07,25.07v12.805
		c-1.747-0.196-3.52-0.306-5.318-0.306c-148.221,0.112-141.531-0.268-146.651,0.306V178.131z M203.575,205.63v44.923
		c0,5.548-4.513,10.062-10.061,10.062h-14.687c-5.548,0-10.061-4.514-10.061-10.062V205.63H203.575z M159.552,429.926
		c-12.105-17.069-14.57-41.264-6.341-59.832c5.524,10.948,12.984,21.078,20.728,28.085c4.313,3.907,11.26,1.605,12.39-4.105
		c1.824-9.216,9.034-25.571,21.281-35.378c-5.524,31.338-1.235,72.28,17.765,95.605
		C196.043,457.162,172.787,448.589,159.552,429.926z M289.317,419.777h-64.368c-5.313-18.272-6.776-41.664-1.244-64.897
		c2.435-10.226-8.406-18.224-17.446-13.268c-14.884,8.152-25.016,23.397-30.478,36.405c-3.832-4.991-7.351-10.748-10.197-16.768
		c-4.843-10.236-19.383-10.585-24.553-0.455c-8.937,17.522-9.812,39.656-3.239,58.982H83.025V238.109
		c0-17.909,14.57-32.48,32.479-32.48h38.263v44.923c0,13.819,11.242,25.062,25.061,25.062h14.687
		c13.818,0,25.061-11.242,25.061-25.062V205.63h38.263c17.909,0,32.48,14.57,32.48,32.48V419.777z M421.863,66.938
		c-1.039-0.763-1.553-2.146-1.309-3.522c1.412-7.941,1.034-15.91-1.124-23.687c-1.107-3.99-5.238-6.332-9.232-5.221
		c-3.991,1.107-6.329,5.24-5.221,9.232c1.553,5.597,1.825,11.334,0.809,17.051c-1.236,6.964,1.592,14.123,7.203,18.24
		c21.273,15.611,21.291,47.398,0.001,63.023c-5.615,4.12-8.442,11.28-7.202,18.24c4.205,23.655-14.137,45.791-38.507,45.791
		c-26.828,0-45.249-26.254-37.227-50.981c2.07-6.377-0.735-13.378-6.672-16.648c-53.083-29.227-49.945-27.27-49.945-27.913
		c0-0.414,0.245-0.549,0.362-0.613l49.583-27.302c5.935-3.268,8.741-10.268,6.673-16.646C322.038,41.26,340.445,15,367.281,15
		c6.822,0,13.235,1.657,19.06,4.926c3.613,2.028,8.184,0.742,10.211-2.871c2.026-3.612,0.741-8.184-2.871-10.211
		C385.702,2.366,376.573,0,367.281,0c-36.889,0-62.184,35.818-51.742,69.824L266.565,96.79c-10.822,5.959-10.823,21.547,0,27.507
		l48.973,26.965c-10.425,33.942,14.79,69.824,51.743,69.824c33.935,0,59.074-30.809,53.274-63.419
		c-0.245-1.375,0.268-2.756,1.309-3.519c13.845-10.161,22.11-26.462,22.11-43.605C443.975,93.399,435.709,77.099,421.863,66.938z
		 M204.32,305.145c-3.123-2.722-7.86-2.397-10.581,0.728c-1.911,2.193-4.67,3.451-7.568,3.451c-2.897,0-5.656-1.258-7.567-3.451
		c-2.721-3.124-7.459-3.449-10.581-0.728c-3.123,2.721-3.449,7.459-0.728,10.581c4.761,5.464,11.641,8.598,18.876,8.598
		c7.236,0,14.116-3.134,18.877-8.598C207.77,312.603,207.443,307.865,204.32,305.145z M236.322,293.949c-4.143,0-7.5,3.357-7.5,7.5
		v9.637c0,4.143,3.357,7.5,7.5,7.5c4.143,0,7.5-3.357,7.5-7.5v-9.637C243.822,297.307,240.465,293.949,236.322,293.949z
		 M136.02,293.949c-4.143,0-7.5,3.357-7.5,7.5v9.637c0,4.143,3.357,7.5,7.5,7.5c4.143,0,7.5-3.357,7.5-7.5v-9.637
		C143.52,297.307,140.163,293.949,136.02,293.949z"/>
</g>
<g>
</g>
<g>
</g>
<g>
</g>
<g>
</g>
<g>
</g>
<g>
</g>
<g>
</g>
<g>
</g>
<g>
</g>
<g>
</g>
<g>
</g>
<g>
</g>
<g>
</g>
<g>
</g>
<g>
</g>
</svg>
