<?xml version="1.0" encoding="iso-8859-1"?>
<!-- Generator: Adobe Illustrator 23.1.0, SVG Export Plug-In . SVG Version: 6.00 Build 0)  -->
<svg version="1.1" id="Capa_1" xmlns="http://www.w3.org/2000/svg" xmlns:xlink="http://www.w3.org/1999/xlink" x="0px" y="0px"
	 viewBox="0 0 511.983 511.983" style="enable-background:new 0 0 511.983 511.983;" xml:space="preserve">
<g>
	<path d="M248.667,177.505c28.872,1.224,54.004-19.392,58.119-48.215c0.265-1.856,1.792-3.333,3.714-3.595
		c24.416-3.322,42.215-24.443,41.401-49.128c-0.839-25.42-21.422-45.762-46.861-46.309c-20.767-0.459-39.337,12.383-46.255,31.924
		c-0.628,1.775-2.398,2.982-4.236,2.862c-15.069-0.968-30.169,4.367-41.434,14.627c-11.368,10.353-17.878,24.512-18.333,39.869
		C193.872,150.231,218.045,176.234,248.667,177.505z M209.774,119.983c0.334-11.255,5.106-21.633,13.439-29.222
		c8.115-7.39,19.118-11.463,30.377-10.749c8.525,0.56,16.467-4.729,19.333-12.824c4.673-13.2,17.1-21.942,31.07-21.942
		c0.24,0,0.481,0.003,0.723,0.008c17.184,0.371,31.625,14.64,32.192,31.808c0.56,16.971-11.663,31.489-28.431,33.771
		c-8.532,1.16-15.333,7.879-16.542,16.338c-3.003,21.037-21.324,36.248-42.647,35.349
		C226.833,161.586,209.107,142.505,209.774,119.983z M133.83,99.048c21.023,0,38.127-17.104,38.127-38.127
		c0-21.023-17.104-38.127-38.127-38.127c-21.023,0-38.127,17.103-38.127,38.127C95.703,81.944,112.807,99.048,133.83,99.048z
		 M133.83,37.794c12.752,0,23.127,10.375,23.127,23.127c0,12.752-10.375,23.127-23.127,23.127
		c-12.752,0-23.127-10.375-23.127-23.127C110.703,48.169,121.078,37.794,133.83,37.794z M501.523,70.341l-5.958-5.958
		c-13.946-13.945-36.64-13.945-50.586,0L275.416,233.947c-9.081-7.672-21.886-9.24-32.637-3.78l-23.909,12.141l-29.994-29.994
		c-3.52-3.52-8.056-5.655-12.946-6.131c6.861-56.322-47.419-101.74-102.116-83.633c-3.933,1.302-6.065,5.545-4.763,9.478
		c1.302,3.932,5.543,6.064,9.477,4.763c46.997-15.557,92.634,26.997,81.255,74.615c-1.641,1.449,1.303-1.338-21.87,21.776
		c-3.67,3.67-5.813,8.448-6.162,13.576c-13.336,6.254-27.499,11.856-39.516,15.601c-14.032,4.37-19.958,20.964-11.831,33.205
		c22.901,34.495,60.974,78.871,86.726,104.506c-32.482,15.303-70.727-0.863-83.339-33.561c-2.496-6.471-7.967-11.231-14.636-12.736
		C38.606,346.875,15,319.536,15,285.965c0-17.835,6.754-34.796,19.019-47.757c5.342-5.646,7.096-13.755,4.579-21.165
		c-7.15-21.044-2.811-45.134,12.867-62.542c2.772-3.078,2.524-7.82-0.554-10.593c-3.078-2.773-7.821-2.523-10.592,0.554
		c-19.438,21.583-24.761,51.391-15.925,77.405c0.723,2.128,0.236,4.439-1.272,6.031C8.212,243.656,0,264.279,0,285.965
		c0,39.978,27.932,73.879,65.854,82.438c1.777,0.4,3.252,1.71,3.942,3.502c16.654,43.18,68.103,62.082,108.725,39.149
		c23.061,21.67,59.433,52.946,91.823,74.449c12.259,8.141,28.84,2.185,33.206-11.831c3.743-12.017,9.347-26.184,15.603-39.525
		c4.947-0.341,9.798-2.379,13.572-6.152l20.867-20.867c8.316-8.316,8.319-21.779,0-30.096l-29.995-29.995l12.141-23.908
		c5.459-10.75,3.89-23.554-3.78-32.636l40.327-40.327c2.929-2.93,2.929-7.678,0-10.607c-2.929-2.928-7.678-2.928-10.606,0
		l-40.249,40.249l-35.331-35.33L455.586,74.99c8.099-8.1,21.275-8.1,29.373,0l5.958,5.957c8.098,8.099,8.098,21.275,0,29.373
		L386.959,214.279c-2.929,2.93-2.929,7.678,0,10.607c2.929,2.928,7.678,2.928,10.606,0l103.958-103.959
		C515.47,106.981,515.47,84.288,501.523,70.341z M289.23,469.21c-1.399,4.491-6.701,6.376-10.588,3.796
		c-37.906-25.166-81.499-64.135-101.552-84.189c-20.053-20.052-59.022-63.645-84.188-101.552c-2.582-3.889-0.696-9.188,3.795-10.588
		c12.045-3.752,26.096-9.259,39.455-15.425c1.767,2.271,0.528,0.684,29.974,30.237c-6.191,4.97-13.586,9.674-17.766,11.874
		c-3.665,1.93-5.072,6.466-3.142,10.131c1.923,3.654,6.454,5.078,10.13,3.143c4.849-2.553,13.852-8.201,21.436-14.488l38.183,38.183
		l-19.02,19.02c-2.929,2.93-2.929,7.678,0,10.607c2.93,2.929,7.678,2.928,10.607,0l19.021-19.02l38.183,38.183
		c-6.287,7.584-11.934,16.586-14.487,21.436c-1.93,3.665-0.523,8.201,3.142,10.131c3.68,1.938,8.209,0.508,10.13-3.142
		c2.201-4.18,6.904-11.574,11.874-17.765c29.473,29.366,27.995,28.234,30.237,29.973C298.487,443.116,292.981,457.168,289.23,469.21
		z M342.988,387.638c2.455,2.454,2.454,6.428,0,8.881l-20.867,20.867c-2.442,2.443-6.428,2.455-8.882,0
		C138.296,241.974,147.674,252.965,146.874,249.757c-0.532-2.45,0.181-4.505,1.646-5.969l20.868-20.868
		c2.454-2.453,6.426-2.454,8.881,0.001C186.691,231.341,336.338,380.988,342.988,387.638z M319.644,299.232
		c4.525,4.525,5.619,11.399,2.722,17.104l-9.924,19.543l-82.414-82.413l19.543-9.924c5.704-2.897,12.579-1.804,17.103,2.722
		C270.253,249.841,311.653,291.24,319.644,299.232z"/>
</g>
<g>
</g>
<g>
</g>
<g>
</g>
<g>
</g>
<g>
</g>
<g>
</g>
<g>
</g>
<g>
</g>
<g>
</g>
<g>
</g>
<g>
</g>
<g>
</g>
<g>
</g>
<g>
</g>
<g>
</g>
</svg>
