<?xml version="1.0" encoding="iso-8859-1"?>
<!-- Generator: Adobe Illustrator 23.1.0, SVG Export Plug-In . SVG Version: 6.00 Build 0)  -->
<svg version="1.1" id="Capa_1" xmlns="http://www.w3.org/2000/svg" xmlns:xlink="http://www.w3.org/1999/xlink" x="0px" y="0px"
	 viewBox="0 0 512.013 512.013" style="enable-background:new 0 0 512.013 512.013;" xml:space="preserve">
<g>
	<path d="M202.863,151.841c-2.412,2.768-5.893,4.354-9.551,4.354s-7.14-1.587-9.552-4.354c-2.721-3.124-7.459-3.448-10.581-0.728
		c-3.123,2.721-3.449,7.458-0.728,10.581c5.261,6.038,12.864,9.501,20.86,9.501c7.995,0,15.599-3.463,20.859-9.501
		c2.722-3.123,2.396-7.86-0.727-10.581C210.322,148.392,205.582,148.716,202.863,151.841z M328.252,151.841
		c-2.412,2.768-5.894,4.354-9.552,4.354s-7.139-1.587-9.551-4.354c-2.721-3.124-7.459-3.448-10.581-0.728
		c-3.123,2.721-3.449,7.458-0.727,10.581c5.261,6.038,12.864,9.501,20.859,9.501c7.996,0,15.6-3.463,20.86-9.501
		c2.722-3.123,2.396-7.86-0.728-10.581C335.711,148.392,330.972,148.716,328.252,151.841z M509.621,341.694
		c-7.968-23.597-33.651-36.313-57.251-28.345c-6.583,2.223-14.166,4.508-22.578,6.773c-10.392-59.27-11.823-135.455-3.726-205.812
		c0.474-4.115-2.478-7.835-6.594-8.309c-4.107-0.474-7.835,2.478-8.309,6.594c-5.68,49.364-6.75,101.607-3.399,149.157
		c-100.071,21.15-203.382,21.16-303.498,0.004c3.376-47.693,2.27-99.969-3.474-149.504l17.043-7.682
		c15.293-6.892,15.331-28.632,0.001-35.543l-9.86-4.444c3.297-2.66,7.18-4.549,11.427-5.494
		c39.851-8.865,93.471-14.594,136.602-14.594s96.751,5.729,136.604,14.594c10.225,2.274,18.233,9.965,20.898,20.071
		c1.054,3.999,5.152,6.398,9.164,5.34c4.006-1.057,6.396-5.159,5.34-9.164c-4.103-15.556-16.42-27.392-32.146-30.89
		c-40.829-9.082-95.728-14.951-139.86-14.951s-99.031,5.869-139.86,14.951c-7.617,1.695-14.482,5.351-20.03,10.573L89.788,40.98
		c-6.904-15.32-28.646-15.303-35.543-0.001l-8.016,17.784c-0.45,1-1.249,1.799-2.25,2.249l-17.783,8.016
		c-15.293,6.894-15.33,28.633,0,35.543l17.784,8.016c1,0.45,1.799,1.249,2.249,2.25l8.016,17.783
		c6.352,14.096,25.481,15.354,33.847,3.016c5.602,64.126,3.533,130.923-5.87,184.488c-8.412-2.265-15.997-4.551-22.581-6.774
		c-23.594-7.959-49.279,4.752-57.249,28.345c-7.99,23.655,4.687,49.263,28.344,57.252c35.133,11.866,79.167,20.36,81.679,20.36
		c3.541,0,6.691-2.518,7.364-6.126c0.76-4.071-1.926-7.988-5.998-8.748c-36.779-6.859-62.85-14.498-78.245-19.697
		c-15.799-5.336-24.27-22.439-18.933-38.24c5.323-15.759,22.476-24.252,38.241-18.934c40.713,13.751,117.826,29.808,201.162,29.808
		c62.122,0,142.142-9.874,201.161-29.807c15.763-5.321,32.919,3.171,38.242,18.933c5.337,15.798-3.13,32.903-18.934,38.24
		c-9.952,3.361-21.064,6.627-33.094,9.73l-6.793-15.07c-6.895-15.293-28.633-15.329-35.544,0l-8.015,17.784
		c-0.45,1-1.249,1.799-2.25,2.249c-17.854,8.159-18.207,7.955-20.801,9.714c-74.56,11.074-146.279,11.373-220.372,1.103
		c-4.103-0.58-7.891,2.295-8.459,6.398c-0.569,4.104,2.296,7.891,6.398,8.459c70.931,9.833,140.535,10.314,213.977,0.388
		c0.103,7.654,4.474,14.342,11.473,17.497l17.784,8.016c1.001,0.45,1.8,1.249,2.25,2.25l8.015,17.783
		c6.894,15.291,28.633,15.329,35.544,0l8.016-17.783v-0.001c0.45-1,1.249-1.799,2.249-2.249l17.783-8.016
		c15.32-6.904,15.302-28.646,0.001-35.543l-4.43-1.997c7.45-2.113,14.503-4.284,21.068-6.501
		C504.93,390.958,517.612,365.352,509.621,341.694z M87.465,103.607c-3.206,3.308-3.749,6.555-11.354,22.85
		c-1.584,3.514-6.589,3.555-8.191-0.001l-8.016-17.783c-1.955-4.34-5.423-7.808-9.762-9.763l-17.784-8.016
		c-3.524-1.588-3.549-6.591,0.001-8.191l17.782-8.016c4.34-1.955,7.808-5.423,9.763-9.762l8.016-17.784
		c1.584-3.514,6.589-3.555,8.191,0.001l8.016,17.782c2.095,4.651,5.894,8.02,9.762,9.763l17.783,8.016
		c3.515,1.584,3.558,6.589,0,8.191L93.89,98.91C91.423,100.022,89.251,101.636,87.465,103.607z M256.006,342.368
		c-60.55,0-117.606-8.626-159.204-18.549c2.629-14.779,4.706-30.55,6.232-46.988c73.896,15.397,148.722,19.616,224.155,12.331
		l6.375,48.737C309.095,340.66,282.899,342.368,256.006,342.368z M348.452,336.066l-6.344-48.503
		c22.722-2.63,45.268-6.231,66.888-10.736c1.522,16.468,3.596,32.244,6.216,46.991C395.894,328.427,373.243,332.751,348.452,336.066
		z M458.474,429.311l-17.784,8.016c-4.339,1.956-7.805,5.423-9.761,9.762l-8.016,17.783c-1.583,3.514-6.59,3.556-8.192,0
		l-8.015-17.782c-1.955-4.339-5.422-7.806-9.762-9.763l-17.785-8.016c-3.514-1.584-3.555-6.589,0.001-8.191l17.784-8.016
		c4.34-1.957,7.807-5.424,9.762-9.762l8.015-17.783c1.589-3.524,6.593-3.551,8.192,0l8.016,17.782
		c1.888,4.191,5.381,7.788,9.761,9.763l17.785,8.016C461.989,422.703,462.03,427.708,458.474,429.311z M244.25,177.524
		c0,6.925,5.264,12.538,11.757,12.538c6.493,0,11.757-5.613,11.757-12.538c0-6.925-5.264-12.539-11.757-12.539
		C249.513,164.985,244.25,170.599,244.25,177.524z"/>
</g>
<g>
</g>
<g>
</g>
<g>
</g>
<g>
</g>
<g>
</g>
<g>
</g>
<g>
</g>
<g>
</g>
<g>
</g>
<g>
</g>
<g>
</g>
<g>
</g>
<g>
</g>
<g>
</g>
<g>
</g>
</svg>
