<?xml version="1.0" encoding="iso-8859-1"?>
<!-- Generator: Adobe Illustrator 23.1.0, SVG Export Plug-In . SVG Version: 6.00 Build 0)  -->
<svg version="1.1" id="Capa_1" xmlns="http://www.w3.org/2000/svg" xmlns:xlink="http://www.w3.org/1999/xlink" x="0px" y="0px"
	 viewBox="0 0 512 512" style="enable-background:new 0 0 512 512;" xml:space="preserve">
<g>
	<path style="fill:#CDE9FA;" d="M293.745,186.802v-44.374h-135.27v44.374c0,9.445-5.127,18.188-13.445,22.66
		C74.059,247.62,36.931,334.323,36.931,412.904c0,41.135,13.131,68.496,35.427,86.555C82.495,507.669,95.23,512,108.275,512h235.669
		c13.045,0,25.78-4.331,35.917-12.541c22.296-18.059,35.427-45.42,35.427-86.555c0-78.581-37.128-165.284-108.098-203.442
		C298.872,204.99,293.745,196.247,293.745,186.802z"/>
	<rect x="158.474" y="142.428" style="fill:#A2DDFD;" width="135.27" height="38.128"/>
	<path style="fill:#A2DDFD;" d="M140.111,212.228c-67.762,39.453-103.18,123.933-103.18,200.677
		c0,41.134,13.131,68.496,35.427,86.555C82.495,507.669,95.23,512,108.275,512h102.562
		C123.698,457.648,119.141,281.901,140.111,212.228z"/>
	<path style="fill:#FFFFFF;" d="M226.109,334.714c-4.142,0-7.5-3.358-7.5-7.5V142.428c0-4.142,3.358-7.5,7.5-7.5
		c4.142,0,7.5,3.358,7.5,7.5v184.786C233.609,331.356,230.252,334.714,226.109,334.714z"/>
	<path style="fill:#A2DDFD;" d="M259.052,291.386c-58.544-30.921-148.074-27.025-189.573-4.958
		c-21.505,38.467-32.549,83.669-32.549,126.476c0,41.135,13.131,68.496,35.427,86.555C82.495,507.669,95.23,512,108.275,512h235.669
		c13.045,0,25.78-4.331,35.917-12.541c22.296-18.059,35.427-45.42,35.427-86.555c0-47.612-13.655-98.188-40.185-139.159
		C394.406,305.696,346.226,337.428,259.052,291.386z"/>
	<path style="fill:#7ACDF9;" d="M130.644,270.305c-24.25,2.383-45.941,8.028-61.164,16.122
		c-21.505,38.467-32.549,83.669-32.549,126.477c0,41.135,13.131,68.496,35.427,86.555C82.495,507.669,95.23,512,108.275,512h102.562
		C142.624,469.453,125.015,352.517,130.644,270.305z"/>
	<path style="fill:#F6EE86;" d="M333.952,142.428h-209.66c-15.885,0-28.763-12.878-28.763-28.763V91.122
		c0-26.371,18.623-49.071,44.485-54.226l182.29-36.332c17.793-3.546,34.385,10.065,34.385,28.208v90.918
		C356.689,132.248,346.51,142.428,333.952,142.428z"/>
	<path style="fill:#4E5660;" d="M397.63,28.773h-40.941v90.918h40.941c9.752,0,17.658-7.906,17.658-17.658V46.431
		C415.289,36.679,407.383,28.773,397.63,28.773z"/>
	<path style="fill:#F1D88C;" d="M220.309,20.893l-80.294,16.003C114.152,42.051,95.53,64.752,95.53,91.122v22.543
		c0,15.885,12.878,28.763,28.763,28.763h131.071C225.881,119.695,213.724,61.494,220.309,20.893z"/>
	<path style="fill:#7ACDF9;" d="M374.62,272.946c20.6,32.216-27.667,64.866-115.568,18.44
		C287.595,266.515,357.949,246.876,374.62,272.946z"/>
	<path style="fill:#A2DDFD;" d="M467.569,81.732h-16.431c-4.142,0-7.5-3.358-7.5-7.5s3.358-7.5,7.5-7.5h16.431
		c4.142,0,7.5,3.358,7.5,7.5S471.711,81.732,467.569,81.732z"/>
	<path style="fill:#A2DDFD;" d="M451.138,35.986c-1.919,0-3.839-0.732-5.303-2.197c-2.929-2.929-2.929-7.677,0-10.606l12.511-12.511
		c2.929-2.929,7.678-2.93,10.606,0c2.929,2.929,2.929,7.677,0,10.606l-12.511,12.511C454.977,35.253,453.058,35.986,451.138,35.986z
		"/>
	<path style="fill:#A2DDFD;" d="M463.649,139.989c-1.919,0-3.839-0.732-5.303-2.197l-12.511-12.511
		c-2.929-2.929-2.929-7.678,0-10.606c2.929-2.929,7.678-2.929,10.606,0l12.511,12.511c2.929,2.929,2.929,7.678,0,10.606
		C467.488,139.256,465.568,139.989,463.649,139.989z"/>
	<g>
		<g>
			<g>
				<ellipse style="fill:#FFFFFF;" cx="143.033" cy="420.255" rx="30.654" ry="24.411"/>
				<ellipse style="fill:#FFFFFF;" cx="309.186" cy="420.399" rx="30.654" ry="24.411"/>
			</g>
			<path style="fill:#4E5660;" d="M168.13,404.116c-0.002,0-0.004,0-0.006,0c-4.142-0.003-7.497-3.364-7.494-7.506l0.009-12.235
				c0.003-4.14,3.36-7.494,7.5-7.494c0.002,0,0.003,0,0.006,0c4.142,0.003,7.497,3.364,7.494,7.506l-0.009,12.235
				C175.627,400.762,172.27,404.116,168.13,404.116z"/>
			<path style="fill:#4E5660;" d="M298.553,404.244c-0.002,0-0.004,0-0.006,0c-4.142-0.003-7.497-3.364-7.494-7.506l0.009-12.235
				c0.003-4.14,3.36-7.494,7.5-7.494c0.002,0,0.003,0,0.006,0c4.142,0.003,7.497,3.364,7.494,7.506l-0.009,12.235
				C306.05,400.89,302.693,404.244,298.553,404.244z"/>
		</g>
		<path style="fill:#4E5660;" d="M156.257,385.5c-5.741,0-11.326-1.27-14.78-5.231c-2.722-3.122-2.397-7.86,0.725-10.582
			c3.016-2.629,7.54-2.417,10.297,0.417c2.318,0.982,10.515,0.068,17.184-1.942c3.96-1.193,8.148,1.046,9.347,5.008
			c1.199,3.962-1.035,8.145-4.996,9.347C170.088,383.714,163.064,385.5,156.257,385.5z M152.781,370.408
			c0.001,0.001,0.002,0.002,0.003,0.003C152.783,370.41,152.782,370.409,152.781,370.408z M152.347,370.031"/>
		<path style="fill:#4E5660;" d="M304.907,373.569c-2.303,0-4.575-1.057-6.045-3.053c-3.874-5.259-14.324,1.655-14.428,1.727
			c-3.411,2.329-8.075,1.473-10.419-1.927c-2.344-3.4-1.512-8.045,1.878-10.404c7.727-5.375,24.996-11.939,35.047,1.71
			c2.456,3.335,1.744,8.03-1.592,10.486C308.01,373.093,306.452,373.569,304.907,373.569z"/>
		<path style="fill:#4E5660;" d="M242.78,415.252c-7.889,0-24.072-0.03-36.497-5.109c-3.835-1.567-5.672-5.946-4.105-9.78
			c1.568-3.835,5.947-5.672,9.78-4.104c9.713,3.971,24.446,3.994,30.849,3.994c0.038,0,0.076,0,0.113,0h0.122
			c4.142,0,7.5,3.358,7.5,7.5c0,4.142-3.358,7.5-7.5,7.5h-0.122C242.875,415.252,242.827,415.252,242.78,415.252z"/>
	</g>
	<path style="fill:#F1D88C;" d="M299.751,81.732h-55.677c-4.142,0-7.5-3.358-7.5-7.5s3.358-7.5,7.5-7.5h55.677
		c4.142,0,7.5,3.358,7.5,7.5S303.893,81.732,299.751,81.732z"/>
</g>
<g>
</g>
<g>
</g>
<g>
</g>
<g>
</g>
<g>
</g>
<g>
</g>
<g>
</g>
<g>
</g>
<g>
</g>
<g>
</g>
<g>
</g>
<g>
</g>
<g>
</g>
<g>
</g>
<g>
</g>
</svg>
