<?xml version="1.0" encoding="iso-8859-1"?>
<!-- Generator: Adobe Illustrator 23.1.0, SVG Export Plug-In . SVG Version: 6.00 Build 0)  -->
<svg version="1.1" id="Capa_1" xmlns="http://www.w3.org/2000/svg" xmlns:xlink="http://www.w3.org/1999/xlink" x="0px" y="0px"
	 viewBox="0 0 512 512" style="enable-background:new 0 0 512 512;" xml:space="preserve">
<g>
	<g>
		<path style="fill:#F7DFB7;" d="M343.09,94.403c-2.093,0-4.174-0.871-5.657-2.572c-2.721-3.123-2.396-7.86,0.727-10.582
			c2.525-2.2,3.973-5.376,3.973-8.713c0-3.337-1.448-6.513-3.973-8.714c-5.794-5.049-9.118-12.346-9.118-20.021
			c0-7.674,3.323-14.972,9.118-20.022c3.123-2.721,7.861-2.396,10.582,0.727c2.721,3.123,2.396,7.86-0.727,10.582
			c-2.525,2.2-3.973,5.376-3.973,8.713c0,3.337,1.448,6.513,3.973,8.713c5.795,5.051,9.118,12.348,9.118,20.022
			c0,7.674-3.323,14.972-9.118,20.021C346.594,93.795,344.838,94.403,343.09,94.403z"/>
		<path style="fill:#F7DFB7;" d="M282.373,94.403c-2.093,0-4.174-0.871-5.657-2.573c-2.721-3.123-2.396-7.86,0.727-10.582
			c2.525-2.2,3.973-5.376,3.973-8.713c0-3.337-1.448-6.513-3.973-8.713c-5.794-5.049-9.118-12.347-9.118-20.021
			c0-7.674,3.323-14.972,9.118-20.022c3.123-2.721,7.86-2.396,10.582,0.727c2.721,3.123,2.396,7.86-0.727,10.582
			c-2.525,2.2-3.973,5.376-3.973,8.713c0,3.337,1.448,6.513,3.973,8.713c5.795,5.05,9.118,12.348,9.118,20.022
			c0,7.675-3.323,14.972-9.118,20.021C285.876,93.795,284.121,94.403,282.373,94.403z"/>
		<path style="fill:#F7DFB7;" d="M221.656,94.403c-2.093,0-4.174-0.871-5.657-2.573c-2.721-3.123-2.396-7.86,0.727-10.582
			c2.525-2.2,3.973-5.376,3.973-8.713c0-3.337-1.448-6.513-3.973-8.713c-5.794-5.05-9.118-12.348-9.118-20.021
			s3.323-14.971,9.118-20.021c3.122-2.722,7.86-2.397,10.581,0.726c2.722,3.122,2.396,7.86-0.726,10.582
			c-2.525,2.201-3.973,5.377-3.973,8.714c0,3.337,1.448,6.513,3.973,8.713c5.794,5.05,9.118,12.348,9.118,20.022
			c0,7.675-3.323,14.972-9.118,20.021C225.159,93.795,223.403,94.403,221.656,94.403z"/>
	</g>
	<path style="fill:#FBF1CF;" d="M266.591,424.618H90.494c-23.414,0-42.394-18.98-42.394-42.394V206.348h218.491V424.618z"/>
	<path style="fill:#F7DFB7;" d="M117.333,424.617h149.258v-218.27H129.279C145.502,245.996,158.154,350.626,117.333,424.617z"/>
	<path style="fill:#4E5660;" d="M339.223,244.733H25.365C11.356,244.733,0,233.377,0,219.369v-11.765
		c0-14.008,11.356-25.365,25.365-25.365h313.858c14.008,0,25.365,11.356,25.365,25.365v11.765
		C364.587,233.377,353.231,244.733,339.223,244.733z"/>
	<path style="fill:#3A4351;" d="M152.429,244.733h186.793c14.008,0,25.365-11.356,25.365-25.365v-11.765
		c0-14.008-11.356-25.365-25.365-25.365H122.205C133.946,188.61,149.991,217.869,152.429,244.733z"/>
	<path style="fill:#FBF1CF;" d="M52.133,182.239c10.006-29.087,37.589-49.996,70.072-49.996l0,0h315.69
		c40.927,0,74.105,33.178,74.105,74.105v241.325c0,23.414-18.98,42.394-42.394,42.394H238.704c-23.414,0-42.394-18.98-42.394-42.394
		V256.344c0-40.927-33.178-74.105-74.105-74.105L52.133,182.239z"/>
	<rect x="196.31" y="367.049" style="fill:#E0B799;" width="315.69" height="36.401"/>
	<rect x="196.31" y="292.842" style="fill:#E0B799;" width="315.69" height="36.401"/>
	<g>
		<g>
			<ellipse style="fill:#EDA1AB;" cx="289.12" cy="248.121" rx="27.846" ry="22.175"/>
			<ellipse style="fill:#EDA1AB;" cx="440.055" cy="248.121" rx="27.846" ry="22.175"/>
		</g>
		<path style="fill:#4E5660;" d="M305.349,233.215c-7.675,0-14.972-3.323-20.022-9.118c-2.721-3.123-2.396-7.86,0.727-10.582
			c3.122-2.721,7.86-2.396,10.581,0.727c2.2,2.525,5.376,3.973,8.713,3.973c3.337,0,6.513-1.448,8.713-3.973
			c2.722-3.123,7.458-3.447,10.582-0.727c3.123,2.722,3.448,7.459,0.727,10.582C320.32,229.892,313.023,233.215,305.349,233.215z"/>
		<path style="fill:#4E5660;" d="M423.826,233.215c-7.675,0-14.972-3.323-20.022-9.118c-2.721-3.123-2.396-7.86,0.727-10.582
			c3.123-2.721,7.86-2.396,10.582,0.727c2.2,2.525,5.376,3.973,8.713,3.973c3.337,0,6.513-1.448,8.713-3.973
			c2.72-3.124,7.457-3.448,10.581-0.727c3.123,2.721,3.448,7.458,0.727,10.582C438.798,229.892,431.501,233.215,423.826,233.215z"/>
		<ellipse style="fill:#4E5660;" cx="364.587" cy="238.781" rx="11.109" ry="11.847"/>
	</g>
	<g>
		<path style="fill:#F7DFB7;" d="M226.772,190.557c-1.919,0-3.838-0.732-5.303-2.196c-2.929-2.929-2.929-7.678,0-10.607l4.879-4.879
			c2.929-2.929,7.677-2.929,10.607-0.001c2.929,2.929,2.929,7.678,0.001,10.607l-4.879,4.879
			C230.612,189.825,228.692,190.557,226.772,190.557z"/>
		<path style="fill:#F7DFB7;" d="M391.663,179.84c-1.919,0-3.839-0.732-5.303-2.197c-2.929-2.929-2.929-7.678,0-10.607l4.879-4.879
			c2.929-2.929,7.678-2.929,10.606,0c2.929,2.929,2.929,7.678,0,10.607l-4.879,4.879C395.502,179.108,393.582,179.84,391.663,179.84
			z"/>
		<path style="fill:#F7DFB7;" d="M307.788,459.271c-1.919,0-3.839-0.732-5.303-2.197l-4.879-4.879
			c-2.929-2.929-2.929-7.678,0-10.606c2.929-2.929,7.678-2.929,10.606,0l4.879,4.879c2.929,2.929,2.929,7.678,0,10.606
			C311.627,458.538,309.707,459.271,307.788,459.271z"/>
		<path style="fill:#F7DFB7;" d="M129.795,382.075c-1.919,0-3.839-0.732-5.304-2.197l-4.879-4.879
			c-2.929-2.929-2.928-7.678,0.001-10.607c2.929-2.928,7.677-2.928,10.607,0l4.879,4.879c2.929,2.929,2.928,7.678,0,10.607
			C133.634,381.343,131.714,382.075,129.795,382.075z"/>
		<path style="fill:#F7DFB7;" d="M96.211,321.118c-1.919,0-3.839-0.732-5.304-2.197c-2.929-2.929-2.928-7.678,0-10.607l4.879-4.879
			c2.929-2.928,7.678-2.928,10.607,0c2.929,2.929,2.928,7.678,0,10.607l-4.879,4.879C100.05,320.386,98.131,321.118,96.211,321.118z
			"/>
		<path style="fill:#F7DFB7;" d="M429.181,453.668c-1.919,0-3.839-0.732-5.303-2.197c-2.929-2.929-2.929-7.678,0-10.606l4.879-4.879
			c2.929-2.929,7.678-2.929,10.607,0c2.929,2.929,2.929,7.678,0,10.606l-4.879,4.879C433.02,452.935,431.1,453.668,429.181,453.668z
			"/>
	</g>
</g>
<g>
</g>
<g>
</g>
<g>
</g>
<g>
</g>
<g>
</g>
<g>
</g>
<g>
</g>
<g>
</g>
<g>
</g>
<g>
</g>
<g>
</g>
<g>
</g>
<g>
</g>
<g>
</g>
<g>
</g>
</svg>
