<?xml version="1.0" encoding="iso-8859-1"?>
<!-- Generator: Adobe Illustrator 23.1.0, SVG Export Plug-In . SVG Version: 6.00 Build 0)  -->
<svg version="1.1" id="Capa_1" xmlns="http://www.w3.org/2000/svg" xmlns:xlink="http://www.w3.org/1999/xlink" x="0px" y="0px"
	 viewBox="0 0 512 512" style="enable-background:new 0 0 512 512;" xml:space="preserve">
<g>
	<path style="fill:#F6EE86;" d="M340.297,218.749c13.111-47.913,39.028-94.681,67.935-135.86
		c8.878-12.647,4.361-30.202-9.553-36.922C360.909,27.723,317.996,15.725,256,15.725S151.091,27.723,113.32,45.966
		c-13.914,6.721-18.431,24.275-9.553,36.922c28.908,41.18,54.825,87.947,67.935,135.86H340.297z"/>
	<path style="fill:#F1D88C;" d="M158.335,179.952c5.271,12.788,9.797,25.749,13.368,38.796h168.595
		c3.57-13.048,8.096-26.009,13.368-38.796H158.335z"/>
	<g>
		<path style="fill:#F1D88C;" d="M227.989,226.249c-4.142,0-7.5-3.358-7.5-7.5c0-40.282-16.388-97.144-27.464-122.89
			c-1.637-3.805,0.121-8.217,3.926-9.854c3.804-1.638,8.216,0.121,9.854,3.926c11.568,26.891,28.685,86.429,28.685,128.818
			C235.489,222.891,232.131,226.249,227.989,226.249z"/>
		<path style="fill:#F1D88C;" d="M278.651,226.249c-4.143,0-7.5-3.358-7.5-7.5c0-42.389,17.116-101.927,28.685-128.818
			c1.637-3.804,6.049-5.563,9.854-3.926c3.805,1.637,5.563,6.048,3.926,9.854c-11.076,25.746-27.464,82.608-27.464,122.89
			C286.151,222.891,282.794,226.249,278.651,226.249z"/>
	</g>
	<path style="fill:#FBF1CF;" d="M427.212,58.208c-3.01-11.573-10.917-21.196-21.693-26.402C359.978,9.809,313.864,0,256,0
		c-57.582,0-103.527,9.714-148.853,31.485c-8.592,4.127-15.734,10.936-19.776,19.568c-6.326,13.51-4.815,28.99,3.526,40.871
		c3.609,5.141,7.082,10.254,10.427,15.339c5.487,8.342,15.115,12.999,25.051,12.019C170.016,114.977,213.569,96.04,256,96.04
		c4.463,0,8.939,0.212,13.425,0.595c5.229,0.446,9.226,4.863,9.226,10.111v28.71c0,12.272,9.949,22.221,22.222,22.221h0
		c12.273,0,22.222-9.949,22.222-22.221v-15.797c0-6.578,6.162-11.416,12.553-9.858c16.482,4.018,33.033,7.778,49.597,9.444
		c10.11,1.017,19.93-3.623,25.517-12.111c3.319-5.043,6.764-10.113,10.342-15.21C428.002,82.096,430.228,69.807,427.212,58.208z"/>
	<path style="fill:#F7DFB7;" d="M107.147,31.485c-8.591,4.127-15.734,10.936-19.776,19.568c-6.326,13.51-4.815,28.99,3.526,40.871
		c3.609,5.141,7.082,10.254,10.427,15.339c5.487,8.342,15.115,12.999,25.051,12.019c30.399-2.999,60.755-13.092,90.72-18.945
		c-39.184-12.176-53.34-69.344-28.541-94.975C159.792,10.342,133.364,18.892,107.147,31.485z"/>
	<path style="fill:#E0B799;" d="M351.898,471.87c-14.041-31.99-17.629-66.812-17.629-86.603H177.73
		c0,19.791-3.587,54.613-17.629,86.603c-8.297,18.902,5.174,40.13,25.817,40.13h140.163C346.725,512,360.195,490.772,351.898,471.87
		z"/>
	<path style="fill:#D99A84;" d="M345.411,454.772c-8.702-26.711-11.142-53.206-11.142-69.505H177.73
		c0,16.3-2.439,42.794-11.142,69.505H345.411z"/>
	<path style="fill:#E0B799;" d="M345.182,425.243c11.664,0,22.669-5.622,29.332-15.195c17.621-25.315,23.098-58.2,23.098-88.052
		c0-27.41-4.618-57.378-19.015-81.695c-7.975-13.47-22.645-21.552-38.299-21.552H171.703c-15.654,0-30.324,8.082-38.299,21.552
		c-14.397,24.317-19.015,54.285-19.015,81.695c0,29.852,5.477,62.736,23.098,88.052c6.663,9.573,17.668,15.195,29.332,15.195
		H345.182z"/>
	<path style="fill:#D99A84;" d="M195.989,218.749h-24.286c-15.654,0-30.324,8.082-38.299,21.552
		c-14.397,24.317-19.015,54.285-19.015,81.695c0,29.851,5.477,62.736,23.098,88.052c6.663,9.573,17.668,15.195,29.332,15.195h69.421
		C171.49,381.292,177.97,275.366,195.989,218.749z"/>
	<g>
		<path style="fill:#E0B799;" d="M161.604,374.233c-13.017-4.547-27.47-4.567-40.763-0.637c1.34,4.815,2.923,9.551,4.771,14.168
			c10.153-2.902,21.14-2.831,31.046,0.63c15.75,5.501,26.372,18.503,30.318,36.849h15.297
			C197.859,400.269,183.158,381.762,161.604,374.233z"/>
		<path style="fill:#D99A84;" d="M387.938,260.297c-2.014-5.569-4.396-10.985-7.19-16.174
			c-37.476-3.606-52.376,16.666-65.773,34.896c-11.178,15.211-20.982,28.558-44.042,28.557c-2.617,0-5.408-0.172-8.389-0.533
			c-21.464-2.599-25.092-48.285-2.27-88.294H243.24c-14.736,29.843-16.613,61.034-9.215,80.269
			c5.119,13.312,14.607,21.45,26.716,22.917c3.665,0.444,7.112,0.653,10.37,0.653c30.458-0.002,43.931-18.33,55.95-34.686
			C340.51,269.602,352.313,253.561,387.938,260.297z"/>
		<path style="fill:#D99A84;" d="M389.239,379.919c-41.498-10.972-70.557-9.325-88.619,4.992
			c-13.424,10.64-17.888,26.037-19.004,40.333h15.073c1.018-10.648,4.355-21.529,13.248-28.578
			c13.733-10.887,38.52-11.781,73.765-2.695C385.826,389.415,387.662,384.717,389.239,379.919z"/>
	</g>
	<path style="fill:#4E5660;" d="M114.388,321.996c0,7.85,0.393,15.91,1.272,23.986H396.34c0.879-8.077,1.272-16.136,1.272-23.986
		c0-7.85-0.396-15.91-1.275-23.986H115.663C114.784,306.086,114.388,314.146,114.388,321.996z"/>
	<path style="fill:#3A4351;" d="M183.731,298.01h-68.068c-0.879,8.077-1.275,16.137-1.275,23.986c0,7.85,0.393,15.91,1.272,23.986
		h72.403C184.838,330.326,183.57,314.016,183.731,298.01z"/>
</g>
<g>
</g>
<g>
</g>
<g>
</g>
<g>
</g>
<g>
</g>
<g>
</g>
<g>
</g>
<g>
</g>
<g>
</g>
<g>
</g>
<g>
</g>
<g>
</g>
<g>
</g>
<g>
</g>
<g>
</g>
</svg>
