<?xml version="1.0" encoding="iso-8859-1"?>
<!-- Generator: Adobe Illustrator 23.1.0, SVG Export Plug-In . SVG Version: 6.00 Build 0)  -->
<svg version="1.1" id="Capa_1" xmlns="http://www.w3.org/2000/svg" xmlns:xlink="http://www.w3.org/1999/xlink" x="0px" y="0px"
	 viewBox="0 0 512 512" style="enable-background:new 0 0 512 512;" xml:space="preserve">
<g>
	<path style="fill:#A2DDFD;" d="M394.805,512c17.206,0,30.199-15.692,26.898-32.579C406.522,401.761,338.105,343.157,256,343.157
		S105.478,401.761,90.297,479.421C86.996,496.308,99.989,512,117.195,512H394.805z"/>
	<path style="fill:#7ACDF9;" d="M199.224,352.95c-55.39,19.775-97.429,67.653-108.927,126.47C86.996,496.308,99.989,512,117.195,512
		h115.155C197.34,484.622,180.949,394.012,199.224,352.95z"/>
	<path style="fill:#FBF1CF;" d="M256,416.149l-70.111,46.736c-11.006,7.337-25.929,1.035-28.344-11.97l-14.178-76.335L256,416.149z"
		/>
	<path style="fill:#FBF1CF;" d="M256,416.149l70.111,46.736c11.006,7.337,25.929,1.035,28.344-11.97l14.177-76.335L256,416.149z"/>
	<rect x="248.5" y="416.149" style="fill:#7ACDF9;" width="15" height="95.851"/>
	<path style="fill:#FFD3BD;" d="M0,235.433c0,38.35,32.834,69.439,81.082,69.439c38.35,0,69.439-31.089,69.439-69.439
		c0-38.35-31.089-69.439-69.439-69.439C32.834,165.994,0,197.083,0,235.433z"/>
	<path style="fill:#FFBE9D;" d="M512,235.433c0,38.35-32.834,69.439-81.082,69.439c-38.35,0-69.439-31.089-69.439-69.439
		c0-38.35,31.089-69.439,69.439-69.439C479.166,165.994,512,197.083,512,235.433z"/>
	<path style="fill:#FFD3BD;" d="M463.254,261.971c0,114.463-92.791,154.178-207.254,154.178S48.746,376.434,48.746,261.971
		S133.5,54.717,256,54.717S463.254,147.508,463.254,261.971z"/>
	<path style="fill:#FFBE9D;" d="M170.531,71.611C95.833,103.4,48.746,176.66,48.746,261.971
		c0,114.463,92.791,154.178,207.254,154.178c45.858,0,88.228-6.384,122.556-21.386C113.208,416.149,99.456,161.831,170.531,71.611z"
		/>
	<g>
		<g>
			<ellipse style="fill:#EDA1AB;" cx="137.071" cy="261.729" rx="43.882" ry="34.946"/>
			<ellipse style="fill:#EDA1AB;" cx="374.929" cy="261.729" rx="43.882" ry="34.946"/>
		</g>
		<path style="fill:#4E5660;" d="M162.645,235.589c-4.143,0-7.5-3.358-7.5-7.5V210.15c0-4.142,3.357-7.5,7.5-7.5
			c4.143,0,7.5,3.358,7.5,7.5v17.939C170.145,232.231,166.788,235.589,162.645,235.589z"/>
		<path style="fill:#4E5660;" d="M349.354,235.589c-4.143,0-7.5-3.358-7.5-7.5V210.15c0-4.142,3.357-7.5,7.5-7.5
			c4.143,0,7.5,3.358,7.5,7.5v17.939C356.854,232.231,353.497,235.589,349.354,235.589z"/>
	</g>
	<path style="fill:#4E5660;" d="M247.086,435.312c5.061,4.657,12.766,4.657,17.828,0c32.85-30.226,130.044-58.993,104.569-134.26
		c-16.391-48.425-65.787-57.907-113.482-57.907s-97.092,9.482-113.482,57.907C117.042,376.319,214.236,405.087,247.086,435.312z"/>
	<path style="fill:#FFFFFF;" d="M256,299.471c-11.6,0-22.632-5.024-30.267-13.785c-2.722-3.123-2.395-7.86,0.727-10.582
		c3.122-2.721,7.86-2.397,10.582,0.727c4.785,5.491,11.695,8.64,18.958,8.64s14.173-3.149,18.958-8.64
		c2.723-3.122,7.457-3.448,10.582-0.727c3.122,2.722,3.448,7.459,0.727,10.582C278.632,294.446,267.6,299.471,256,299.471z"/>
	<path style="fill:#4E5660;" d="M256,0c70.458,0,79.152,43.829,141.61,37.077c15.289-1.653,24.52,16.537,14.354,28.075
		C362.319,121.498,311.519,133.03,256,133.03c-51.558,0-93.354-9.446-93.354-53.416C162.646,35.645,204.442,0,256,0z"/>
	<path style="fill:#3A4351;" d="M277.404,90.8c-20.596,0-43.52-1.87-53.404-4.565c-3.996-1.09-6.352-5.213-5.262-9.209
		c1.09-3.997,5.216-6.35,9.209-5.262c13.562,3.699,56.483,5.678,75.62,2.488c4.097-0.68,7.95,2.08,8.632,6.165
		c0.681,4.086-2.08,7.95-6.165,8.631C298.707,90.269,288.386,90.8,277.404,90.8z"/>
</g>
<g>
</g>
<g>
</g>
<g>
</g>
<g>
</g>
<g>
</g>
<g>
</g>
<g>
</g>
<g>
</g>
<g>
</g>
<g>
</g>
<g>
</g>
<g>
</g>
<g>
</g>
<g>
</g>
<g>
</g>
</svg>
