<?xml version="1.0" encoding="iso-8859-1"?>
<!-- Generator: Adobe Illustrator 23.1.0, SVG Export Plug-In . SVG Version: 6.00 Build 0)  -->
<svg version="1.1" id="Capa_1" xmlns="http://www.w3.org/2000/svg" xmlns:xlink="http://www.w3.org/1999/xlink" x="0px" y="0px"
	 viewBox="0 0 512 512" style="enable-background:new 0 0 512 512;" xml:space="preserve">
<g>
	<path style="fill:#FBF1CF;" d="M450.753,488.759H61.247C27.421,488.759,0,461.338,0,427.512V217.847
		C0,184.021,27.421,156.6,61.247,156.6h389.505c33.826,0,61.247,27.421,61.247,61.247v209.665
		C512,461.338,484.579,488.759,450.753,488.759z"/>
	<path style="fill:#F7DFB7;" d="M61.248,156.6C27.421,156.6,0,184.021,0,217.847v209.665c0,33.826,27.421,61.247,61.248,61.247
		h106.381c-58.339-57.063-81.521-180.953-63.02-332.16H61.248z"/>
	<path style="fill:#A2DDFD;" d="M450.753,426.962H61.248C27.421,426.962,0,399.54,0,365.714v61.798
		c0,33.826,27.421,61.247,61.248,61.247h389.505c33.826,0,61.247-27.421,61.247-61.247v-61.798
		C512,399.54,484.578,426.962,450.753,426.962z"/>
	<path style="fill:#7ACDF9;" d="M0,365.714v61.798c0,33.826,27.421,61.247,61.248,61.247h106.381
		c-16.126-15.773-29.569-36.646-40.184-61.798H61.248C27.421,426.962,0,399.54,0,365.714z"/>
	<path style="fill:#4E5660;" d="M452.69,120.291H59.31c-12.961,0-23.468-10.507-23.468-23.467V66.736
		c0-24.022,19.473-43.495,43.495-43.495h353.325c24.022,0,43.495,19.474,43.495,43.495v30.088
		C476.158,109.784,465.651,120.291,452.69,120.291z"/>
	<path style="fill:#3A4351;" d="M196.889,23.241H79.337c-24.022,0-43.495,19.473-43.495,43.495v30.088
		c0,12.961,10.507,23.467,23.467,23.467h154.165C193.529,99.111,188,54.656,196.889,23.241z"/>
	<g>
		<path style="fill:#3A4351;" d="M256,127.791c-4.143,0-7.5-3.358-7.5-7.5V71.766c0-4.142,3.357-7.5,7.5-7.5
			c4.143,0,7.5,3.358,7.5,7.5v48.525C263.5,124.433,260.143,127.791,256,127.791z"/>
		<path style="fill:#4E5660;" d="M137.752,127.791c-4.143,0-7.5-3.358-7.5-7.5V71.766c0-4.142,3.357-7.5,7.5-7.5
			c4.143,0,7.5,3.358,7.5,7.5v48.525C145.252,124.433,141.895,127.791,137.752,127.791z"/>
		<path style="fill:#3A4351;" d="M374.248,127.791c-4.142,0-7.5-3.358-7.5-7.5V71.766c0-4.142,3.358-7.5,7.5-7.5
			c4.143,0,7.5,3.358,7.5,7.5v48.525C381.748,124.433,378.391,127.791,374.248,127.791z"/>
	</g>
	<rect x="80.022" y="120.291" style="fill:#7ACDF9;" width="351.956" height="36.309"/>
	<rect x="178.976" y="156.6" style="fill:#EDA1AB;" width="154.049" height="332.16"/>
	<rect x="248.5" y="156.6" style="fill:#FFFFFF;" width="15" height="332.16"/>
	<path style="fill:#4E5660;" d="M248.466,258.551c4.376,3.651,10.692,3.651,15.068,0c7.319-6.105,16.475-10.062,26.457-10.849
		c14.624-1.153,27.992,4.326,37.416,13.75c15.199,15.199,19.506,53.579,55.449,63.137c8.42,2.239,10.054,13.511,2.659,18.118
		c-32.466,20.228-83.24,29.493-129.515-19.064c-46.275,48.557-97.048,39.291-129.515,19.064c-7.395-4.607-5.761-15.88,2.659-18.118
		c35.942-9.557,40.25-47.937,55.449-63.137c9.424-9.424,22.792-14.904,37.416-13.75C231.99,248.489,241.147,252.446,248.466,258.551
		z"/>
</g>
<g>
</g>
<g>
</g>
<g>
</g>
<g>
</g>
<g>
</g>
<g>
</g>
<g>
</g>
<g>
</g>
<g>
</g>
<g>
</g>
<g>
</g>
<g>
</g>
<g>
</g>
<g>
</g>
<g>
</g>
</svg>
