<?xml version="1.0" encoding="iso-8859-1"?>
<!-- Generator: Adobe Illustrator 23.1.0, SVG Export Plug-In . SVG Version: 6.00 Build 0)  -->
<svg version="1.1" id="Capa_1" xmlns="http://www.w3.org/2000/svg" xmlns:xlink="http://www.w3.org/1999/xlink" x="0px" y="0px"
	 viewBox="0 0 512 512" style="enable-background:new 0 0 512 512;" xml:space="preserve">
<g>
	<path style="fill:#CDE9FA;" d="M505.85,231.881l-38.97-25.18l30.591-30.59c9.773-9.773,9.773-25.619,0-35.392L371.282,14.529
		c-9.773-9.773-25.619-9.773-35.392,0L305.299,45.12l-25.18-38.97c-4.648-7.194-14.747-8.267-20.803-2.211L3.939,259.316
		c-6.056,6.056-4.983,16.155,2.211,20.803l38.97,25.18l-30.59,30.591c-9.773,9.773-9.773,25.619,0,35.392l126.189,126.189
		c9.773,9.773,25.619,9.773,35.392,0l30.59-30.591l25.18,38.97c4.648,7.194,14.747,8.267,20.803,2.211l255.376-255.376
		C514.117,246.628,513.044,236.529,505.85,231.881z M390.061,155.233l-13.53,13.53c8.903,9.215,8.822,23.894-0.275,32.991l0,0
		c-9.096,9.096-23.775,9.178-32.991,0.275l-39.393,39.393c5.192,17.104,1.034,36.439-12.489,49.961
		c-13.522,13.522-32.857,17.681-49.962,12.489l-39.393,39.393c8.903,9.215,8.822,23.894-0.275,32.991
		c-9.096,9.097-23.776,9.178-32.991,0.275l-13.53,13.53c-9.194,9.194-24.1,9.194-33.294,0l0,0c-9.194-9.194-9.194-24.1,0-33.295
		l13.53-13.53c-8.903-9.215-8.822-23.894,0.275-32.991c9.096-9.096,23.775-9.178,32.991-0.275l39.393-39.393
		c-5.192-17.104-1.034-36.439,12.489-49.961c13.523-13.522,32.857-17.681,49.961-12.489l39.393-39.393
		c-8.903-9.215-8.822-23.894,0.275-32.991v0c9.096-9.096,23.775-9.178,32.991-0.275l13.53-13.53c9.194-9.194,24.101-9.194,33.295,0
		v0C399.255,131.133,399.255,146.039,390.061,155.233z"/>
	<path style="fill:#A2DDFD;" d="M487.64,220.115l-20.76-13.414l30.591-30.591c9.773-9.773,9.773-25.619,0-35.392L371.282,14.529
		c-9.773-9.773-25.619-9.773-35.392,0L305.299,45.12l-13.414-20.76L24.36,291.885l20.76,13.414L14.529,335.89
		c-9.773,9.773-9.773,25.619,0,35.392l126.189,126.189c9.773,9.773,25.619,9.773,35.392,0l30.59-30.591l13.414,20.76L487.64,220.115
		z M201.754,376.256c-9.096,9.097-23.776,9.178-32.991,0.275l-13.53,13.53c-9.194,9.194-24.1,9.194-33.294,0l0,0
		c-9.194-9.194-9.194-24.101,0-33.295l13.53-13.53c-8.903-9.215-8.822-23.894,0.275-32.991c9.097-9.096,23.775-9.178,32.991-0.275
		l39.393-39.393c-5.192-17.104-1.034-36.439,12.489-49.962c13.523-13.523,32.857-17.681,49.961-12.489l39.393-39.394
		c-8.903-9.215-8.822-23.894,0.275-32.99l0,0c9.096-9.096,23.776-9.178,32.991-0.275l13.53-13.53c9.194-9.194,24.1-9.194,33.295,0
		l0,0c9.194,9.194,9.194,24.101,0,33.295l-13.53,13.53c8.903,9.215,8.822,23.894-0.275,32.991l0,0
		c-9.096,9.096-23.775,9.178-32.991,0.275l-39.393,39.394c5.192,17.104,1.034,36.439-12.489,49.961
		c-13.522,13.522-32.857,17.681-49.962,12.489l-39.393,39.393C210.932,352.481,210.851,367.16,201.754,376.256z"/>
	<path style="fill:#7ACDF9;" d="M285.423,422.332c-25.917-26.221-47.768-60.08-65.612-96.848l0,0l-17.782,17.782
		c8.903,9.215,8.822,23.894-0.275,32.991c-9.096,9.097-23.776,9.178-32.991,0.275l-13.53,13.53c-9.194,9.194-24.1,9.194-33.294,0
		l0,0c-9.194-9.194-9.194-24.101,0-33.295l13.53-13.53c-8.903-9.215-8.822-23.894,0.275-32.991
		c9.097-9.096,23.775-9.178,32.991-0.275l31.06-31.06c-16.633-43.819-28.067-88.858-34.411-128.049L24.36,291.885l20.76,13.414
		L14.529,335.89c-9.773,9.773-9.773,25.619,0,35.392l126.189,126.189c9.773,9.773,25.619,9.773,35.392,0l30.59-30.591l13.414,20.76
		L285.423,422.332z"/>
	<path style="fill:#7ACDF9;" d="M285.426,357.31c-1.919,0-3.839-0.732-5.303-2.197c-2.929-2.929-2.929-7.678,0-10.606l64.384-64.384
		c2.929-2.929,7.678-2.929,10.606,0c2.929,2.929,2.929,7.678,0,10.607l-64.384,64.384
		C289.265,356.578,287.346,357.31,285.426,357.31z"/>
	<path style="fill:#A2DDFD;" d="M285.417,422.338l-65.302,65.302l11.766,18.21c4.648,7.194,14.747,8.267,20.803,2.211l61.303-61.303
		C303.968,439.679,294.446,431.473,285.417,422.338z"/>
	<path style="fill:#A2DDFD;" d="M165.379,150.866c-2.782-17.183-4.584-33.239-5.415-47.575L3.939,259.316
		c-6.056,6.056-4.983,16.155,2.211,20.803l18.21,11.766L165.379,150.866z"/>
</g>
<g>
</g>
<g>
</g>
<g>
</g>
<g>
</g>
<g>
</g>
<g>
</g>
<g>
</g>
<g>
</g>
<g>
</g>
<g>
</g>
<g>
</g>
<g>
</g>
<g>
</g>
<g>
</g>
<g>
</g>
</svg>
