<?xml version="1.0" encoding="iso-8859-1"?>
<!-- Generator: Adobe Illustrator 23.1.0, SVG Export Plug-In . SVG Version: 6.00 Build 0)  -->
<svg version="1.1" id="Capa_1" xmlns="http://www.w3.org/2000/svg" xmlns:xlink="http://www.w3.org/1999/xlink" x="0px" y="0px"
	 viewBox="0 0 512 512" style="enable-background:new 0 0 512 512;" xml:space="preserve">
<g>
	<path style="fill:#A2DDFD;" d="M302.341,357.296c-10.685,16.14-17.021,36.151-17.021,57.841c0,53.496,38.466,96.863,85.915,96.863
		s85.915-43.367,85.915-96.863s-38.466-96.863-85.915-96.863c-6.545,0-12.914,0.839-19.037,2.409
		c-3.609,0.925-7.446,0.156-10.452-2.044c-22.566-16.515-27.779-37.017-13.039-70.231C340.524,205.316,310.303,0,285.32,0
		c-24.982,0-53.524,204.942-43.387,248.407c10.75,46.094,35.161,71.674,58.398,92.683
		C304.921,345.239,305.756,352.137,302.341,357.296z M326.852,415.137c0-27.636,19.871-50.04,44.384-50.04
		s44.384,22.404,44.384,50.04c0,27.636-19.871,50.04-44.384,50.04S326.852,442.773,326.852,415.137z"/>
	<path style="fill:#7ACDF9;" d="M328.707,248.407C340.524,205.316,310.303,0,285.32,0c-4.661,0-9.446,7.14-14.08,19.027
		c18.605,72.485,20.909,190.262,51.32,246.573C323.937,260.267,325.978,254.556,328.707,248.407z"/>
	<path style="fill:#7ACDF9;" d="M241.933,248.407c7.875,33.767,23.083,56.518,39.789,74.535
		c19.498-3.695,34.805-9.945,47.196-16.515c-11.069-14.472-11.541-32.488-0.211-58.02c4.468-16.292,2.925-55.774-2.07-98.581
		c-29.773,24.035-58.771,50.574-68.32,67.338l-0.574,1.009l-0.418,1.084c-5.244,13.612-10.681,21.37-16.051,25.771
		C241.472,246.242,241.692,247.371,241.933,248.407z"/>
	<path style="fill:#CDE9FA;" d="M55.284,381.129c33.552,33.552,91.416,30.086,129.244-7.741
		c15.337-15.337,25.007-33.967,28.864-52.935c1.233-6.063,6.701-10.349,12.88-10.038c31.287,1.575,66.636,0.749,106.83-24.243
		C371.006,262.604,495.74,97.507,478.074,79.841c-17.665-17.665-184.215,106.145-206.329,144.971
		c-13.063,33.909-31.247,44.72-58.881,40.441c-3.681-0.57-6.938-2.74-8.836-5.945c-3.22-5.44-7.13-10.537-11.758-15.165
		c-33.552-33.552-91.416-30.086-129.244,7.741S21.732,347.577,55.284,381.129z M92.393,281.252
		c19.542-19.542,49.434-21.332,66.767-3.999c17.333,17.333,15.542,47.226-3.999,66.767c-19.542,19.542-49.434,21.332-66.767,3.999
		C71.061,330.686,72.851,300.794,92.393,281.252z"/>
	<path style="fill:#A2DDFD;" d="M271.745,224.812c22.114-38.826,188.664-162.636,206.329-144.971
		c3.296,3.296,1.631,11.728-3.498,23.411c-64.411,38.099-149.32,119.751-210.642,138.065
		C266.731,236.571,269.326,231.09,271.745,224.812z"/>
	<circle style="fill:#4E5660;" cx="285.352" cy="272.519" r="7.754"/>
</g>
<g>
</g>
<g>
</g>
<g>
</g>
<g>
</g>
<g>
</g>
<g>
</g>
<g>
</g>
<g>
</g>
<g>
</g>
<g>
</g>
<g>
</g>
<g>
</g>
<g>
</g>
<g>
</g>
<g>
</g>
</svg>
