<?xml version="1.0" encoding="iso-8859-1"?>
<!-- Generator: Adobe Illustrator 23.1.0, SVG Export Plug-In . SVG Version: 6.00 Build 0)  -->
<svg version="1.1" id="Capa_1" xmlns="http://www.w3.org/2000/svg" xmlns:xlink="http://www.w3.org/1999/xlink" x="0px" y="0px"
	 viewBox="0 0 512 512" style="enable-background:new 0 0 512 512;" xml:space="preserve">
<g>
	<path style="fill:#E0B799;" d="M31.927,399.104l104.575,104.575c11.096,11.096,29.086,11.096,40.181,0l0,0
		c11.096-11.096,11.096-29.086,0-40.182l-42.174-42.174c-5.176-5.176-5.176-13.567,0-18.743l22.824-22.824
		c5.176-5.176,13.567-5.176,18.743,0l42.174,42.174c11.096,11.096,29.086,11.096,40.181,0l0,0c11.096-11.096,11.096-29.086,0-40.182
		l-42.174-42.174c-5.176-5.176-5.176-13.567,0-18.743l22.824-22.824c5.176-5.176,13.567-5.176,18.743,0l42.175,42.174
		c11.096,11.096,29.086,11.096,40.181,0l0,0c11.096-11.096,11.096-29.086,0-40.182l-42.174-42.174
		c-5.176-5.176-5.176-13.567,0-18.743l22.824-22.824c5.176-5.176,13.567-5.176,18.743,0l42.174,42.175
		c11.096,11.096,29.086,11.096,40.182,0l0,0c11.096-11.096,11.096-29.086,0-40.182l-42.174-42.174
		c-5.176-5.176-5.176-13.567,0-18.743l22.824-22.824c5.176-5.176,13.567-5.176,18.743,0l42.174,42.174
		c11.096,11.096,29.086,11.096,40.181,0l0,0c11.096-11.096,11.096-29.086,0-40.182L399.104,31.927
		c-42.569-42.569-111.587-42.569-154.157,0l-213.02,213.02C-10.642,287.516-10.642,356.534,31.927,399.104z"/>
	<path style="fill:#D99A84;" d="M156.665,443.478l-22.157-22.156c-5.176-5.176-5.176-13.567,0-18.743l22.824-22.824
		c5.176-5.176,13.567-5.176,18.743,0l22.156,22.156l40.182-40.182l-22.156-22.156c-2.877-2.877-4.149-6.748-3.828-10.508
		c-45.135-41.578-67.536-106.834-61.926-202.695L31.927,244.947c-42.569,42.569-42.569,111.587,0,154.157l84.557,84.557
		L156.665,443.478z"/>
	<g>
		<path style="fill:#E0B799;" d="M84.193,277.28c18.527-22.55,7.53-54.112,1.864-86.463L73.21,203.665
			c5.24,26.377,11.331,49.564-0.606,64.093c-15.539,18.913-41.694,23.943-67.437,21.043c-1.539,4.824-2.735,9.735-3.586,14.693
			C32.688,307.415,64.656,301.06,84.193,277.28z"/>
		<path style="fill:#E0B799;" d="M135.546,401.542l10.894-10.894c-18.242-11.663-36.825-17.409-55.551-17.117
			c-22.917,0.362-43.383,9.502-61.59,22.844c0.859,0.92,1.73,1.833,2.627,2.73l8.061,8.061c14.109-9.886,31.671-18.33,51.138-18.637
			C105.878,388.293,120.735,392.657,135.546,401.542z"/>
		<path style="fill:#D99A84;" d="M417.377,50.2c-8.985,19.675-27.765,35.077-47.36,51.147
			c-34.611,28.385-72.907,59.806-53.706,119.43l4.52-4.52c2.404-2.404,5.501-3.676,8.648-3.847
			c-12.848-45.86,13.675-69.634,50.05-99.465c18.792-15.412,38.018-31.185,49.039-51.555L417.377,50.2z"/>
		<path style="fill:#D99A84;" d="M263.31,84.971c28.565-9.465,50.024-37.995,63.879-84.848c-5.267-0.248-10.548-0.115-15.8,0.397
			c-12.305,39.066-30.028,62.668-52.797,70.213c-16.281,5.395-33.36,1.932-48.149-4.301l-11.327,11.327
			C219.706,87.5,242.283,91.938,263.31,84.971z"/>
	</g>
	<g>
		<g>
			
				<ellipse transform="matrix(0.7071 -0.7071 0.7071 0.7071 -170.1044 190.5703)" style="fill:#FFFFFF;" cx="144.988" cy="300.621" rx="40.606" ry="32.337"/>
			
				<ellipse transform="matrix(0.7071 -0.7071 0.7071 0.7071 -14.4723 255.037)" style="fill:#FFFFFF;" cx="300.621" cy="144.988" rx="40.606" ry="32.336"/>
		</g>
		<path style="fill:#4E5660;" d="M139.429,269.095c-1.919,0-3.839-0.732-5.303-2.197l-11.174-11.174
			c-2.929-2.929-2.929-7.678,0-10.606c2.929-2.929,7.678-2.929,10.606,0l11.174,11.174c2.929,2.929,2.929,7.678,0,10.606
			C143.268,268.362,141.349,269.095,139.429,269.095z"/>
		<path style="fill:#4E5660;" d="M186.42,224.12c-0.863,0-1.727-0.029-2.594-0.089c-4.132-0.284-7.253-3.864-6.969-7.996
			c0.283-4.133,3.868-7.258,7.996-6.969c6.56,0.452,12.986-1.951,17.624-6.589c4.637-4.637,7.039-11.061,6.588-17.624
			c-0.284-4.132,2.836-7.712,6.969-7.996c4.133-0.279,7.712,2.836,7.996,6.969c0.748,10.889-3.243,21.553-10.946,29.258
			C205.993,220.175,196.393,224.12,186.42,224.12z"/>
		<path style="fill:#4E5660;" d="M250.491,157.41c-1.919,0-3.839-0.733-5.303-2.197c-10.064-10.064-10.064-26.441,0-36.505
			c4.876-4.875,11.358-7.561,18.253-7.561c6.896,0,13.377,2.685,18.253,7.561c2.929,2.929,2.929,7.678-0.001,10.607
			c-2.928,2.929-7.677,2.927-10.606,0c-2.042-2.043-4.757-3.167-7.646-3.167c-2.889,0-5.604,1.125-7.646,3.167
			c-4.216,4.216-4.216,11.076,0,15.292c2.929,2.929,2.929,7.678,0,10.607C254.33,156.678,252.41,157.41,250.491,157.41z"/>
	</g>
	<g>
		<path style="fill:#F1D88C;" d="M176.683,503.678L176.683,503.678c11.096-11.096,11.096-29.086,0-40.182l-20.018-20.018
			l-40.182,40.182l20.018,20.018C147.597,514.774,165.587,514.774,176.683,503.678z"/>
		<path style="fill:#F6EE86;" d="M340.18,340.181L340.18,340.181c11.096-11.096,11.096-29.086,0-40.182l-20.018-20.018
			l-40.182,40.182l20.018,20.018C311.095,351.276,329.085,351.276,340.18,340.181z"/>
		<path style="fill:#F1D88C;" d="M258.432,421.929L258.432,421.929c11.096-11.096,11.096-29.086,0-40.182l-20.018-20.018
			l-40.182,40.182l20.018,20.018C229.346,433.025,247.336,433.025,258.432,421.929z"/>
		<path style="fill:#F6EE86;" d="M421.929,258.432c11.096-11.096,11.096-29.086,0-40.182l-20.018-20.018l-40.182,40.182
			l20.018,20.018C392.843,269.528,410.833,269.528,421.929,258.432z"/>
		<path style="fill:#F6EE86;" d="M443.478,156.665l20.018,20.018c11.096,11.096,29.086,11.096,40.181,0
			c11.096-11.096,11.096-29.086,0-40.182l-20.018-20.018L443.478,156.665z"/>
	</g>
	<g>
		<path style="fill:#F6EE86;" d="M65.075,345.298c-1.919,0-3.839-0.732-5.303-2.197c-2.929-2.929-2.929-7.678,0-10.607
			l19.891-19.891c2.929-2.929,7.678-2.929,10.606,0c2.929,2.929,2.929,7.678,0,10.607l-19.891,19.891
			C68.914,344.565,66.995,345.298,65.075,345.298z"/>
		<path style="fill:#F6EE86;" d="M317.907,92.466c-1.919,0-3.839-0.732-5.304-2.197c-2.929-2.929-2.929-7.678,0-10.606
			l19.891-19.891c2.93-2.929,7.678-2.929,10.608,0c2.929,2.929,2.929,7.678,0,10.606l-19.891,19.891
			C321.746,91.733,319.826,92.466,317.907,92.466z"/>
	</g>
</g>
<g>
</g>
<g>
</g>
<g>
</g>
<g>
</g>
<g>
</g>
<g>
</g>
<g>
</g>
<g>
</g>
<g>
</g>
<g>
</g>
<g>
</g>
<g>
</g>
<g>
</g>
<g>
</g>
<g>
</g>
</svg>
