<?xml version="1.0" encoding="iso-8859-1"?>
<!-- Generator: Adobe Illustrator 23.1.0, SVG Export Plug-In . SVG Version: 6.00 Build 0)  -->
<svg version="1.1" id="Capa_1" xmlns="http://www.w3.org/2000/svg" xmlns:xlink="http://www.w3.org/1999/xlink" x="0px" y="0px"
	 viewBox="0 0 512 512" style="enable-background:new 0 0 512 512;" xml:space="preserve">
<g>
	<path style="fill:#4E5660;" d="M441.332,73.841h-97.768v46.993h97.768c7.567,0,13.701-6.134,13.701-13.701V87.543
		C455.033,79.976,448.898,73.841,441.332,73.841z"/>
	<rect x="343.563" y="73.841" style="fill:#3A4351;" width="55.735" height="46.993"/>
	<path style="fill:#4E5660;" d="M441.332,448.79h-97.768v-46.993h97.768c7.567,0,13.701,6.134,13.701,13.701v19.591
		C455.033,442.656,448.898,448.79,441.332,448.79z"/>
	<rect x="343.563" y="401.797" style="fill:#3A4351;" width="55.735" height="46.993"/>
	<path style="fill:#A2DDFD;" d="M287.367,0H140.313c-17.328,0-32.771,10.93-38.533,27.272l-9.37,26.578h242.861L325.9,27.272
		C320.138,10.93,304.695,0,287.367,0z"/>
	<path style="fill:#7ACDF9;" d="M181.672,0h-41.359c-17.328,0-32.771,10.93-38.533,27.272l-9.37,26.578h102.077
		C181.901,37.786,178.589,15.542,181.672,0z"/>
	<path style="fill:#A2DDFD;" d="M287.367,512H140.313c-17.328,0-32.771-10.93-38.533-27.272l-9.37-26.578h242.861l-9.371,26.578
		C320.138,501.07,304.695,512,287.367,512z"/>
	<path style="fill:#A2DDFD;" d="M287.367,512H140.313c-17.328,0-32.771-10.93-38.533-27.272l-9.37-26.578h242.861l-9.371,26.578
		C320.138,501.07,304.695,512,287.367,512z"/>
	<path style="fill:#7ACDF9;" d="M92.409,458.15l9.37,26.578C107.541,501.07,122.985,512,140.313,512h69.834
		c-15.899-8.67-27.342-25.704-26.555-53.85H92.409z"/>
	<rect x="108.814" y="140.826" style="fill:#FBF1CF;" width="210.053" height="251.611"/>
	<path style="fill:#F7DFB7;" d="M108.814,140.826v251.611H220.72c-45.665-60.407-65.933-187.296-66.649-251.611H108.814z"/>
	<polygon style="fill:#EDA1AB;" points="318.866,305.186 318.866,209.241 135.67,392.437 231.615,392.437 	"/>
	<path style="fill:#E1796E;" d="M220.72,392.437c-11.38-15.054-21.184-34.235-29.5-55.55l-55.55,55.55H220.72z"/>
	<polygon style="fill:#A2DDFD;" points="108.814,228.077 108.814,324.022 292.01,140.826 196.064,140.826 	"/>
	<path style="fill:#CDE9FA;" d="M341.348,140.826H86.332c-16.217,0-29.364-13.147-29.364-29.364V83.214
		c0-16.217,13.147-29.364,29.364-29.364h255.017c16.217,0,29.364,13.147,29.364,29.364v28.248
		C370.712,127.679,357.566,140.826,341.348,140.826z"/>
	<path style="fill:#CDE9FA;" d="M345.189,392.437H82.491c-14.096,0-25.524,11.427-25.524,25.524v14.666
		c0,14.096,11.427,25.524,25.524,25.524h262.698c14.096,0,25.524-11.427,25.524-25.524v-14.666
		C370.712,403.864,359.285,392.437,345.189,392.437z"/>
	<g>
		<g>
			<ellipse style="fill:#FFFFFF;" cx="147.169" cy="115.562" rx="24.6" ry="19.59"/>
			<ellipse style="fill:#FFFFFF;" cx="280.511" cy="115.562" rx="24.6" ry="19.59"/>
		</g>
		<path style="fill:#4E5660;" d="M161.506,104.203c-4.143,0-7.5-3.358-7.5-7.5V86.647c0-4.142,3.357-7.5,7.5-7.5
			c4.143,0,7.5,3.358,7.5,7.5v10.056C169.006,100.845,165.648,104.203,161.506,104.203z"/>
		<path style="fill:#4E5660;" d="M266.174,104.203c-4.142,0-7.5-3.358-7.5-7.5V86.647c0-4.142,3.358-7.5,7.5-7.5
			c4.143,0,7.5,3.358,7.5,7.5v10.056C273.674,100.845,270.316,104.203,266.174,104.203z"/>
		<path style="fill:#4E5660;" d="M213.84,110.189c-7.455,0-14.545-3.229-19.451-8.857c-2.722-3.122-2.398-7.86,0.726-10.582
			c3.122-2.722,7.861-2.396,10.581,0.726c2.058,2.36,5.026,3.714,8.145,3.714c3.118,0,6.087-1.354,8.145-3.714
			c2.721-3.123,7.459-3.447,10.581-0.726c3.123,2.722,3.447,7.46,0.726,10.582C228.385,106.961,221.295,110.189,213.84,110.189z"/>
	</g>
	<path style="fill:#7ACDF9;" d="M108.814,228.077v95.945l60.658-60.658c-6.394-28.847-10.71-57.675-13.114-82.832L108.814,228.077z"
		/>
</g>
<g>
</g>
<g>
</g>
<g>
</g>
<g>
</g>
<g>
</g>
<g>
</g>
<g>
</g>
<g>
</g>
<g>
</g>
<g>
</g>
<g>
</g>
<g>
</g>
<g>
</g>
<g>
</g>
<g>
</g>
</svg>
