<?xml version="1.0" encoding="iso-8859-1"?>
<!-- Generator: Adobe Illustrator 23.1.0, SVG Export Plug-In . SVG Version: 6.00 Build 0)  -->
<svg version="1.1" id="Capa_1" xmlns="http://www.w3.org/2000/svg" xmlns:xlink="http://www.w3.org/1999/xlink" x="0px" y="0px"
	 viewBox="0 0 512 512" style="enable-background:new 0 0 512 512;" xml:space="preserve">
<g>
	
		<rect x="243.112" y="194.998" transform="matrix(0.7071 0.7071 -0.7071 0.7071 248.5773 -123.9586)" style="fill:#A2DDFD;" width="61.617" height="86.164"/>
	
		<rect x="261.003" y="202.409" transform="matrix(0.7071 0.7071 -0.7071 0.7071 241.1667 -141.8496)" style="fill:#7ACDF9;" width="61.617" height="35.561"/>
	<path style="fill:#F6EE86;" d="M45.814,502.142L9.858,466.186c-13.144-13.144-13.144-34.455,0-47.599L187.794,240.65
		c7.668-7.668,20.1-7.668,27.769,0l55.786,55.787c7.668,7.668,7.668,20.1,0,27.768L93.413,502.142
		C80.269,515.286,58.958,515.286,45.814,502.142z"/>
	<path style="fill:#4E5660;" d="M138.125,290.32L9.858,418.587c-13.144,13.144-13.144,34.454,0,47.599l35.956,35.956
		c13.144,13.144,34.454,13.144,47.599,0L221.68,373.875c0.294-23.195-5.879-47.874-20.78-62.775
		C185.998,296.199,161.32,290.026,138.125,290.32z"/>
	<path style="fill:#3A4351;" d="M83.659,344.786L9.858,418.587c-13.144,13.144-13.144,34.454,0,47.599l35.956,35.956
		c13.144,13.144,34.454,13.144,47.599,0l26.08-26.08C87.134,445.736,78.103,388.676,83.659,344.786z"/>
	<g>
		<path style="fill:#FBF1CF;" d="M169.491,368.474c-1.919,0-3.839-0.732-5.304-2.197l-18.465-18.464
			c-2.929-2.929-2.929-7.677,0-10.606c2.93-2.929,7.678-2.93,10.607,0l18.465,18.464c2.929,2.929,2.929,7.677,0,10.606
			C173.33,367.741,171.41,368.474,169.491,368.474z"/>
		<path style="fill:#FBF1CF;" d="M144.878,393.086c-1.92,0-3.839-0.732-5.304-2.197l-18.464-18.464
			c-2.929-2.929-2.929-7.678,0-10.606c2.931-2.93,7.679-2.929,10.607,0l18.464,18.464c2.929,2.929,2.929,7.678-0.001,10.606
			C148.717,392.353,146.797,393.086,144.878,393.086z"/>
		<path style="fill:#FBF1CF;" d="M120.266,417.698c-1.92,0-3.839-0.732-5.304-2.197l-18.464-18.464
			c-2.929-2.929-2.929-7.678,0.001-10.606c2.929-2.929,7.678-2.929,10.606,0l18.464,18.464c2.929,2.929,2.929,7.678,0,10.607
			C124.104,416.966,122.185,417.698,120.266,417.698z"/>
		<path style="fill:#FBF1CF;" d="M95.653,442.311c-1.92,0-3.839-0.732-5.304-2.197L71.886,421.65c-2.929-2.929-2.929-7.678,0-10.606
			c2.931-2.929,7.679-2.929,10.608,0l18.464,18.464c2.929,2.929,2.929,7.678-0.001,10.606
			C99.492,441.579,97.572,442.311,95.653,442.311z"/>
	</g>
	<path style="fill:#4E5660;" d="M501.908,197.448L314.552,10.092c-13.456-13.456-35.272-13.456-48.728,0l-55.119,55.119
		c-13.456,13.456-13.456,35.272,0,48.727l187.356,187.356c13.456,13.456,35.272,13.456,48.727,0l55.119-55.119
		C515.364,232.72,515.364,210.904,501.908,197.448z"/>
	<path style="fill:#3A4351;" d="M324.2,19.74l-9.648-9.648c-13.456-13.456-35.272-13.456-48.727,0l-55.119,55.119
		c-13.456,13.456-13.456,35.272,0,48.727l111.052,111.053C302.685,169.812,310.133,85.492,324.2,19.74z"/>
	<path style="fill:#CDE9FA;" d="M416.499,265.606L246.394,95.501c-3.273-3.273-3.273-8.58,0-11.853l37.868-37.868
		c3.273-3.273,8.58-3.273,11.853,0L466.22,215.885c3.273,3.273,3.273,8.58,0,11.853l-37.868,37.868
		C425.079,268.879,419.772,268.879,416.499,265.606z"/>
	<polygon style="fill:#A2DDFD;" points="330.509,179.616 398.954,248.061 398.954,148.62 330.509,80.175 	"/>
	<path style="fill:#A2DDFD;" d="M416.499,265.606L246.394,95.501c-3.273-3.273-3.273-8.58,0-11.853l18.934-18.934l181.958,181.958
		l-18.934,18.934C425.079,268.879,419.772,268.879,416.499,265.606z"/>
	<polygon style="fill:#7ACDF9;" points="330.509,179.616 398.954,248.061 398.954,198.34 330.509,129.895 	"/>
</g>
<g>
</g>
<g>
</g>
<g>
</g>
<g>
</g>
<g>
</g>
<g>
</g>
<g>
</g>
<g>
</g>
<g>
</g>
<g>
</g>
<g>
</g>
<g>
</g>
<g>
</g>
<g>
</g>
<g>
</g>
</svg>
