<?xml version="1.0" encoding="iso-8859-1"?>
<!-- Generator: Adobe Illustrator 23.1.0, SVG Export Plug-In . SVG Version: 6.00 Build 0)  -->
<svg version="1.1" id="Capa_1" xmlns="http://www.w3.org/2000/svg" xmlns:xlink="http://www.w3.org/1999/xlink" x="0px" y="0px"
	 viewBox="0 0 512 512" style="enable-background:new 0 0 512 512;" xml:space="preserve">
<g>
	<path style="fill:#F6EE86;" d="M464.881,138.101c-33.843,33.843-3.658,60.699-33.918,97.3
		c-46.465,56.201-179.375,163.091-252.943,223.021c-16.747,13.642-41.089,12.395-56.363-2.879l-21.083-21.083
		c-15.274-15.274-16.521-39.616-2.879-56.363c59.93-73.569,166.82-206.478,223.021-252.943c36.601-30.26,63.457-0.075,97.3-33.918
		l40.573-40.573c8.728-8.728,22.878-8.728,31.606,0l15.259,15.259c8.728,8.728,8.728,22.878,0,31.606L464.881,138.101z"/>
	<path style="fill:#F1D88C;" d="M219.721,230.851c-44.137,51.147-89.849,107.748-122.025,147.247
		c-13.642,16.747-12.395,41.089,2.879,56.363l21.083,21.083c15.274,15.274,39.616,16.521,56.363,2.878
		c21.49-17.507,48.047-39.023,76.031-62.109C216.184,352.497,214.298,280.007,219.721,230.851z"/>
	<path style="fill:#4E5660;" d="M178.02,458.423c13.699-11.16,29.458-23.95,46.332-37.736c-22.02-16.301-44.892-1.385-66.214-22.707
		c-21.322-21.322-6.406-44.194-22.707-66.214c-13.786,16.874-26.576,32.633-37.736,46.332
		c-13.642,16.747-12.395,41.089,2.879,56.363l21.083,21.083C136.931,470.818,161.273,472.065,178.02,458.423z"/>
	<path style="fill:#4E5660;" d="M227.644,301.554l26.92,26.92c6.016,6.016,15.728,6.119,21.895,0.257
		c59.295-56.369,106.217-76.801,137.707-74.622c6.393-6.693,12.053-12.968,16.798-18.708c30.26-36.601,0.075-63.457,33.918-97.3
		l40.573-40.573c8.728-8.728,8.728-22.878,0-31.606l-15.259-15.259c-8.728-8.728-22.878-8.728-31.606,0l-40.573,40.573
		c-33.843,33.843-60.699,3.658-97.3,33.918c-5.739,4.745-12.015,10.405-18.708,16.798c2.179,31.49-18.253,78.412-74.622,137.707
		C221.525,285.826,221.628,295.538,227.644,301.554z"/>
	<path style="fill:#F6EE86;" d="M445.153,118.465c-1.919,0-3.839-0.732-5.303-2.197c-2.929-2.929-2.929-7.678,0-10.606
		l30.765-30.765c2.929-2.929,7.678-2.929,10.607,0c2.929,2.929,2.929,7.678,0,10.606l-30.765,30.765
		C448.992,117.733,447.072,118.465,445.153,118.465z"/>
	<g>
		<g>
			<path style="fill:#4E5660;" d="M199.301,336.646c-2.619,0-5.162-1.374-6.54-3.817c-11.42-20.249-11.035-35.407-10.753-46.475
				c0.042-1.622,0.082-3.189,0.082-4.711c0-4.142,3.358-7.5,7.5-7.5c4.142,0,7.5,3.358,7.5,7.5c0,1.646-0.042,3.34-0.087,5.092
				c-0.263,10.352-0.561,22.084,8.824,38.726c2.035,3.608,0.759,8.182-2.849,10.217
				C201.814,336.333,200.548,336.646,199.301,336.646z"/>
			<path style="fill:#4E5660;" d="M79.487,336.646c-1.248,0-2.513-0.312-3.677-0.969c-3.608-2.035-4.883-6.609-2.849-10.217
				c9.385-16.642,9.087-28.374,8.824-38.726c-0.045-1.753-0.087-3.446-0.087-5.092c0-4.142,3.358-7.5,7.5-7.5
				c4.142,0,7.5,3.358,7.5,7.5c0,1.523,0.04,3.09,0.082,4.711c0.281,11.067,0.666,26.225-10.753,46.475
				C84.648,335.272,82.105,336.646,79.487,336.646z"/>
			<path style="fill:#4E5660;" d="M51.102,331.814c-1.858,0-3.719-0.686-5.171-2.068c-3-2.856-3.117-7.604-0.26-10.603
				c18.792-19.737,23.018-31.857,24.6-40.21c0.77-4.069,4.693-6.745,8.765-5.973c4.07,0.771,6.744,4.695,5.973,8.765
				c-2.92,15.414-11.702,30.144-28.475,47.76C55.061,331.033,53.083,331.814,51.102,331.814z"/>
		</g>
		<path style="fill:#FFD3BD;" d="M150.992,263.374c0,27.253,20.9,45.584,51.031,49.347c48.141,6.012,69.906-22.093,69.906-49.347
			c0-34.509-44.787-71.299-67.51-139.929c-13.096-39.554-40.318-66.471-68.455-66.471S80.606,83.891,67.51,123.445
			C44.787,192.074,0,228.865,0,263.374c0,27.253,21.765,55.359,69.906,49.347c30.132-3.763,51.031-22.093,51.031-49.347H150.992z"/>
		<path style="fill:#FFBE9D;" d="M99.619,286.081c-54.908-8.904-62.557-58.12-53.372-114.611C24.347,211.242,0,237.93,0,263.374
			c0,27.253,21.765,55.359,69.906,49.347c19.254-2.405,34.727-10.766,43.397-23.594C109.664,287.999,105.143,286.976,99.619,286.081
			z"/>
		<path style="fill:#FFBE9D;" d="M268.927,280.519c-60.607,13.071-72.385-20.106-84.581-56.694H129.66v39.549h21.332
			c0,27.253,20.9,45.584,51.031,49.347C239.937,317.456,261.481,301.026,268.927,280.519z"/>
		<ellipse style="fill:#FFD3BD;" cx="135.965" cy="255.527" rx="74.054" ry="66.563"/>
	</g>
	<g>
		<path style="fill:#FFFFFF;" d="M376.921,218.41c-1.919,0-3.839-0.732-5.303-2.197L339.905,184.5
			c-2.929-2.929-2.929-7.678,0-10.607c2.929-2.929,7.678-2.929,10.606,0l31.712,31.712c2.929,2.929,2.929,7.678,0,10.607
			C380.76,217.677,378.84,218.41,376.921,218.41z"/>
		<path style="fill:#FFFFFF;" d="M338.894,237.926c-1.919,0-3.839-0.732-5.303-2.197l-13.201-13.201
			c-2.929-2.929-2.929-7.678,0-10.606c2.929-2.929,7.678-2.929,10.606,0l13.201,13.201c2.929,2.929,2.929,7.678,0,10.606
			C342.732,237.193,340.813,237.926,338.894,237.926z"/>
	</g>
	<g>
		<g>
			<ellipse style="fill:#EDA1AB;" cx="62.65" cy="240.066" rx="27.052" ry="21.543"/>
			<ellipse style="fill:#EDA1AB;" cx="209.28" cy="240.066" rx="27.052" ry="21.543"/>
		</g>
		<path style="fill:#4E5660;" d="M78.415,226.563c-4.142,0-7.5-3.358-7.5-7.5v-10.528c0-4.142,3.358-7.5,7.5-7.5
			c4.142,0,7.5,3.358,7.5,7.5v10.528C85.915,223.205,82.558,226.563,78.415,226.563z"/>
		<path style="fill:#4E5660;" d="M135.964,233.411c-7.982,0-15.573-3.457-20.827-9.485c-2.721-3.123-2.396-7.86,0.727-10.582
			c3.123-2.721,7.859-2.396,10.582,0.727c2.404,2.758,5.873,4.34,9.518,4.34c3.645,0,7.115-1.582,9.518-4.34
			c2.721-3.123,7.459-3.447,10.582-0.727c3.123,2.722,3.448,7.459,0.727,10.582C151.538,229.954,143.947,233.411,135.964,233.411z"
			/>
		<path style="fill:#4E5660;" d="M207.747,226.269c-4.142,0-7.5-3.358-7.5-7.5c0-2.592-2.108-4.701-4.7-4.701
			s-4.701,2.109-4.701,4.701c0,4.142-3.358,7.5-7.5,7.5c-4.142,0-7.5-3.358-7.5-7.5c0-10.863,8.838-19.701,19.701-19.701
			c10.863,0,19.7,8.838,19.7,19.701C215.247,222.912,211.889,226.269,207.747,226.269z"/>
	</g>
</g>
<g>
</g>
<g>
</g>
<g>
</g>
<g>
</g>
<g>
</g>
<g>
</g>
<g>
</g>
<g>
</g>
<g>
</g>
<g>
</g>
<g>
</g>
<g>
</g>
<g>
</g>
<g>
</g>
<g>
</g>
</svg>
