<?xml version="1.0" encoding="iso-8859-1"?>
<!-- Generator: Adobe Illustrator 23.1.0, SVG Export Plug-In . SVG Version: 6.00 Build 0)  -->
<svg version="1.1" id="Capa_1" xmlns="http://www.w3.org/2000/svg" xmlns:xlink="http://www.w3.org/1999/xlink" x="0px" y="0px"
	 viewBox="0 0 512 512" style="enable-background:new 0 0 512 512;" xml:space="preserve">
<g>
	<path style="fill:#4E5660;" d="M422.255,179.735H351.35v22.726c-13.636,33.635-45.253,67.269-95.35,67.269
		s-81.714-33.635-95.35-67.269v-22.726H89.744c-24.544,22.726-66.36,149.083,0,223.625c26.842,30.152,56.774,35.609,83.875,30.278
		c19.919,42.731,51.548,59.899,82.38,59.899s62.462-17.168,82.38-59.899c27.101,5.33,57.033-0.127,83.875-30.278
		C488.616,328.819,446.8,202.461,422.255,179.735z"/>
	<g>
		<path style="fill:#3A4351;" d="M113.253,260.478c26.398-0.001,52.253-5.249,77.034-15.466
			c-13.591-12.107-23.463-27.323-29.637-42.551v-22.726H89.744c-10.46,9.685-24.052,38.199-31.076,73.496
			C75.23,257.641,93.536,260.479,113.253,260.478z"/>
		<path style="fill:#3A4351;" d="M321.712,245.013c24.782,10.219,50.639,15.467,77.038,15.465
			c19.716-0.001,38.022-2.839,54.582-7.248c-7.024-35.297-20.616-63.81-31.076-73.495H351.35v22.726
			C345.176,217.689,335.303,232.906,321.712,245.013z"/>
	</g>
	<path style="fill:#4E5660;" d="M241.63,39.445c8.347,6.963,20.392,6.963,28.739,0c13.958-11.644,31.423-19.19,50.461-20.692
		c27.891-2.199,53.388,8.251,71.361,26.225c28.989,28.989,37.204,102.189,105.755,120.417c16.059,4.27,19.175,25.769,5.071,34.556
		C441.096,238.531,344.258,256.203,256,163.593c-88.258,92.61-185.096,74.938-247.017,36.359
		c-14.104-8.787-10.988-30.286,5.071-34.556C82.605,147.167,90.82,73.967,119.809,44.978c17.973-17.974,43.47-28.425,71.361-26.225
		C210.208,20.255,227.672,27.801,241.63,39.445z"/>
	<path style="fill:#3A4351;" d="M136.026,32.102c-5.891,3.67-11.334,7.993-16.217,12.876
		C90.82,73.967,82.605,147.167,14.054,165.395c-16.059,4.27-19.175,25.769-5.071,34.557c51.151,31.869,126.129,49.464,200.415,2.418
		C130.065,191.826,113.59,72.784,136.026,32.102z"/>
	<g>
		<g>
			<ellipse style="fill:#EDA1AB;" cx="175.258" cy="117.673" rx="29.792" ry="23.725"/>
			<ellipse style="fill:#EDA1AB;" cx="336.742" cy="117.673" rx="29.792" ry="23.725"/>
		</g>
		<path style="fill:#FFFFFF;" d="M206.801,99.356c-4.142,0-7.5-3.358-7.5-7.5c0-3.684-2.997-6.681-6.681-6.681
			s-6.68,2.997-6.68,6.681c0,4.142-3.358,7.5-7.5,7.5s-7.5-3.358-7.5-7.5c0-11.955,9.726-21.681,21.68-21.681
			c11.955,0,21.681,9.726,21.681,21.681C214.301,95.998,210.943,99.356,206.801,99.356z"/>
		<path style="fill:#FFFFFF;" d="M333.56,99.356c-4.142,0-7.5-3.358-7.5-7.5c0-3.684-2.997-6.681-6.68-6.681
			c-3.684,0-6.681,2.997-6.681,6.681c0,4.142-3.358,7.5-7.5,7.5c-4.142,0-7.5-3.358-7.5-7.5c0-11.955,9.726-21.681,21.681-21.681
			c11.955,0,21.68,9.726,21.68,21.681C341.06,95.998,337.702,99.356,333.56,99.356z"/>
		<path style="fill:#FFFFFF;" d="M256,122.783c-7.933,0-15.477-3.436-20.696-9.425c-2.721-3.122-2.396-7.86,0.727-10.581
			c3.123-2.721,7.861-2.396,10.582,0.727c2.37,2.72,5.792,4.28,9.388,4.28c3.595,0,7.017-1.56,9.388-4.28
			c2.722-3.123,7.459-3.448,10.582-0.726c3.123,2.721,3.448,7.459,0.726,10.582C271.476,119.348,263.932,122.783,256,122.783z"/>
	</g>
	<g>
		<path style="fill:#4E5660;" d="M95.601,190.746c-4.888,0-9.739-0.455-14.504-1.38c-4.066-0.789-6.723-4.726-5.933-8.792
			c0.789-4.066,4.729-6.721,8.792-5.933c19.986,3.878,42.117-2.538,60.725-17.61c3.218-2.607,7.941-2.11,10.549,1.108
			c2.607,3.219,2.11,7.942-1.108,10.549C136.376,183.058,115.685,190.746,95.601,190.746z"/>
		<path style="fill:#3A4351;" d="M416.399,190.746c-20.086,0-40.774-7.687-58.52-22.058c-3.219-2.607-3.715-7.33-1.108-10.549
			c2.607-3.219,7.331-3.715,10.549-1.108c18.609,15.071,40.742,21.49,60.725,17.61c4.066-0.789,8.003,1.867,8.792,5.933
			c0.79,4.066-1.867,8.003-5.933,8.792C426.14,190.29,421.286,190.746,416.399,190.746z"/>
		<path style="fill:#3A4351;" d="M178.446,333.568c-0.605,0-1.221-0.074-1.835-0.229c-27.372-6.884-42.837-34.244-43.491-56.493
			c-0.122-4.14,3.136-7.595,7.276-7.717c4.155-0.126,7.595,3.137,7.717,7.276c0.499,16.985,12.664,37.484,32.156,42.386
			c4.017,1.01,6.455,5.085,5.444,9.102C184.858,331.298,181.802,333.568,178.446,333.568z"/>
		<path style="fill:#3A4351;" d="M186.861,396.895c-12.551,0-23.604-4.713-32.982-14.091c-2.929-2.929-2.929-7.678,0-10.606
			c2.929-2.929,7.678-2.929,10.606,0c5.5,5.5,14.755,12.378,31.576,8.615c4.042-0.902,8.052,1.64,8.957,5.682
			c0.904,4.043-1.64,8.052-5.682,8.957C195.03,396.414,190.868,396.895,186.861,396.895z"/>
		<path style="fill:#3A4351;" d="M333.554,333.568c-3.356,0-6.412-2.27-7.268-5.673c-1.01-4.017,1.427-8.092,5.444-9.102
			c19.492-4.902,31.656-25.401,32.156-42.386c0.121-4.141,3.575-7.42,7.717-7.276c4.141,0.122,7.398,3.577,7.276,7.717
			c-0.654,22.249-16.119,49.609-43.491,56.493C334.775,333.494,334.16,333.568,333.554,333.568z"/>
		<path style="fill:#3A4351;" d="M325.139,396.895c-4.008,0-8.168-0.481-12.475-1.444c-4.042-0.904-6.586-4.914-5.682-8.957
			c0.905-4.042,4.917-6.582,8.957-5.682c16.819,3.762,26.075-3.115,31.576-8.615c2.929-2.929,7.678-2.929,10.607,0
			c2.929,2.929,2.929,7.678,0,10.606C348.745,392.181,337.688,396.895,325.139,396.895z"/>
	</g>
</g>
<g>
</g>
<g>
</g>
<g>
</g>
<g>
</g>
<g>
</g>
<g>
</g>
<g>
</g>
<g>
</g>
<g>
</g>
<g>
</g>
<g>
</g>
<g>
</g>
<g>
</g>
<g>
</g>
<g>
</g>
</svg>
