<?xml version="1.0" encoding="iso-8859-1"?>
<!-- Generator: Adobe Illustrator 23.1.0, SVG Export Plug-In . SVG Version: 6.00 Build 0)  -->
<svg version="1.1" id="Capa_1" xmlns="http://www.w3.org/2000/svg" xmlns:xlink="http://www.w3.org/1999/xlink" x="0px" y="0px"
	 viewBox="0 0 512 512" style="enable-background:new 0 0 512 512;" xml:space="preserve">
<g>
	<path style="fill:#A2DDFD;" d="M176.33,376.696h-72.06c-4.142,0-7.5-3.358-7.5-7.5c0-4.142,3.358-7.5,7.5-7.5h72.06
		c4.142,0,7.5,3.358,7.5,7.5C183.83,373.338,180.472,376.696,176.33,376.696z"/>
	<path style="fill:#3A4351;" d="M97.028,351.502H80.99c-7.385,0-13.371,5.986-13.371,13.371v8.646
		c0,7.385,5.987,13.371,13.371,13.371h16.038c3.999,0,7.242-3.242,7.242-7.242v-20.905
		C104.27,354.744,101.028,351.502,97.028,351.502z"/>
	<path style="fill:#3A4351;" d="M391.795,282.928l17.749-201.77c2.987-33.955-21.573-64.129-55.427-68.097h0
		c-37.447-4.389-70.339,24.873-70.339,62.576v207.291H391.795z"/>
	<path style="fill:#3A4351;" d="M120.205,282.928h108.017V75.637c0-37.703-32.892-66.965-70.339-62.576h0
		c-33.855,3.968-58.414,34.142-55.427,68.097L120.205,282.928z"/>
	<path style="fill:#4E5660;" d="M201.399,282.928h109.202l11.96-212.515C324.713,32.182,294.291,0,256,0h0
		c-38.291,0-68.712,32.182-66.561,70.412L201.399,282.928z"/>
	<path style="fill:#F6EE86;" d="M363.739,314.487H148.261c-6.507,0-11.782-5.275-11.782-11.782v-22.681
		c0-21.254,17.23-38.485,38.485-38.485h162.073c21.255,0,38.485,17.23,38.485,38.485v22.681
		C375.521,309.212,370.246,314.487,363.739,314.487z"/>
	<path style="fill:#F1D88C;" d="M217.707,241.539h-42.744c-21.255,0-38.485,17.23-38.485,38.485v22.681
		c0,6.507,5.275,11.782,11.782,11.782h84.454C218.053,298.279,211.076,260.263,217.707,241.539z"/>
	<path style="fill:#F1D88C;" d="M74.947,165.827h32.726c15.909,0,28.806,12.897,28.806,28.806v19.771H65.913
		c-10.919,0-19.771-8.852-19.771-19.771l0,0C46.141,178.724,59.038,165.827,74.947,165.827z"/>
	<path style="fill:#A2DDFD;" d="M115.531,302.242h20.948v-87.838H84.716v57.023C84.716,288.446,98.512,302.242,115.531,302.242z"/>
	<rect x="84.716" y="214.404" style="fill:#7ACDF9;" width="51.763" height="35.39"/>
	<path style="fill:#F1D88C;" d="M437.053,165.827h-32.726c-15.909,0-28.806,12.897-28.806,28.806v19.771h70.566
		c10.919,0,19.771-8.852,19.771-19.771l0,0C465.859,178.724,452.962,165.827,437.053,165.827z"/>
	<path style="fill:#A2DDFD;" d="M396.469,302.242h-20.948v-87.838h51.763v57.023C427.284,288.446,413.488,302.242,396.469,302.242z"
		/>
	<rect x="375.521" y="214.404" style="fill:#7ACDF9;" width="51.763" height="35.39"/>
	<rect x="218.798" y="410.86" style="fill:#A2DDFD;" width="74.403" height="52.135"/>
	<rect x="218.798" y="410.86" style="fill:#7ACDF9;" width="74.403" height="26.068"/>
	<path style="fill:#4E5660;" d="M357.402,512H154.598c-7.738,0-13.263-7.494-10.975-14.886l4.204-13.582
		c3.78-12.211,15.072-20.537,27.855-20.537h160.637c12.783,0,24.075,8.326,27.855,20.537l4.204,13.582
		C370.666,504.506,365.14,512,357.402,512z"/>
	<path style="fill:#4E5660;" d="M363.739,314.487H148.261c-6.507,0-11.782,5.275-11.782,11.782v13.389
		c0,12.245,4.74,24.015,13.226,32.843l16.194,16.847c13.212,13.744,31.454,21.512,50.519,21.512h79.164
		c19.065,0,37.307-7.768,50.519-21.512l16.194-16.847c8.486-8.828,13.226-20.598,13.226-32.843v-13.389
		C375.521,319.762,370.246,314.487,363.739,314.487z"/>
	<path style="fill:#3A4351;" d="M148.261,314.487c-6.507,0-11.782,5.275-11.782,11.782v13.389c0,12.245,4.74,24.015,13.226,32.843
		l16.194,16.847c13.212,13.744,31.454,21.512,50.519,21.512h41.171c-16.517-19.542-34.975-66.027-24.873-96.373H148.261z"/>
</g>
<g>
</g>
<g>
</g>
<g>
</g>
<g>
</g>
<g>
</g>
<g>
</g>
<g>
</g>
<g>
</g>
<g>
</g>
<g>
</g>
<g>
</g>
<g>
</g>
<g>
</g>
<g>
</g>
<g>
</g>
</svg>
