<?xml version="1.0" encoding="iso-8859-1"?>
<!-- Generator: Adobe Illustrator 23.1.0, SVG Export Plug-In . SVG Version: 6.00 Build 0)  -->
<svg version="1.1" id="Capa_1" xmlns="http://www.w3.org/2000/svg" xmlns:xlink="http://www.w3.org/1999/xlink" x="0px" y="0px"
	 viewBox="0 0 512 512" style="enable-background:new 0 0 512 512;" xml:space="preserve">
<g>
	<g>
		<g>
			<path style="fill:#F6EE86;" d="M372.301,245.91c2.566-26.884,21.357-83.954,33.796-115.01c3.15-7.864-0.294-16.851-7.934-20.511
				c-17.267-8.271-44.531-15.734-71.775-15.734c-27.244,0-54.508,7.463-71.775,15.734c-7.641,3.66-11.085,12.646-7.934,20.511
				c12.439,31.056,31.23,88.126,33.797,115.01H372.301z"/>
			<path style="fill:#F1D88C;" d="M271.115,202.985c4.741,16.727,8.339,32.221,9.36,42.925h91.826
				c1.022-10.704,4.62-26.198,9.36-42.925H271.115z"/>
			<g>
				<path style="fill:#F1D88C;" d="M314.986,246.192c-3.929,0-7.23-3.058-7.479-7.033c-1.095-17.526-6.591-56.999-10.891-78.213
					c-0.822-4.06,1.801-8.018,5.86-8.84c4.066-0.826,8.019,1.802,8.841,5.861c4.401,21.716,10.034,62.221,11.16,80.258
					c0.258,4.134-2.884,7.694-7.018,7.953C315.302,246.186,315.144,246.192,314.986,246.192z"/>
				<path style="fill:#F1D88C;" d="M337.791,246.192c-0.157,0-0.315-0.005-0.475-0.015c-4.134-0.258-7.275-3.819-7.018-7.953
					c1.126-18.038,6.759-58.542,11.16-80.258c0.823-4.06,4.783-6.684,8.841-5.861c4.06,0.823,6.683,4.781,5.86,8.84
					c-4.3,21.215-9.796,60.687-10.891,78.213C345.021,243.134,341.72,246.192,337.791,246.192z"/>
			</g>
		</g>
	</g>
	<path style="fill:#CDE9FA;" d="M311.734,13.277l23.717,23.717c4.221,4.222,4.221,11.066,0,15.287L179.645,208.088l-63.415-63.416
		L247.624,13.277C265.327-4.426,294.03-4.426,311.734,13.277z"/>
	<path style="fill:#A2DDFD;" d="M153.013,181.457l163.45-163.45l-4.729-4.729c-17.703-17.703-46.406-17.703-64.109,0
		L116.229,144.672L153.013,181.457z"/>
	<path style="fill:#E0B799;" d="M162.355,374.145L162.355,374.145c-29.888,0-54.117-24.229-54.117-54.117v-156.7
		c0-20.534,16.646-37.179,37.18-37.179h15.324c20.534,0,37.18,16.646,37.18,37.179v28.293c0,16.698,1.559,33.359,4.658,49.767
		l12.953,68.598C221.825,343.311,196.268,374.145,162.355,374.145z"/>
	<path style="fill:#D99A84;" d="M108.238,320.028c0,29.888,24.229,54.117,54.117,54.117l0,0c33.913,0,59.469-30.834,53.177-64.158
		l-12.953-68.598c-2.395-12.683-3.859-25.518-4.406-38.404h-89.935V320.028z"/>
	<path style="fill:#E0B799;" d="M331.503,512H180.497c-29.16,0-54.261-20.594-59.958-49.193L77.461,246.54
		c-2.284-11.468,6.489-22.161,18.182-22.161h320.713c11.693,0,20.466,10.693,18.182,22.161L391.46,462.807
		C385.764,491.406,360.663,512,331.503,512z"/>
	<path style="fill:#D99A84;" d="M95.643,224.379c-11.693,0-20.466,10.693-18.182,22.161l43.078,216.267
		C126.236,491.406,151.337,512,180.497,512h63.351c-73.946-55.931-72.283-207.877-65.701-287.621H95.643z"/>
	<path style="fill:#E0B799;" d="M215.744,512c-20.75-9.313-33.922-20.721-40.057-34.627c-5.886-13.343-5.602-29.044,0.922-50.911
		c5.441-18.244,4.09-34.86-4.02-49.386c-15.577-27.904-52.257-41.511-78.942-49.277l3.323,16.684
		c23.207,7.344,50.973,19.215,62.523,39.904c6.145,11.009,7.042,23.369,2.741,37.786c-8.642,28.97-12.17,63.341,23.597,89.826
		H215.744z"/>
	<path style="fill:#D99A84;" d="M392.208,459.056l2.983-14.977c-35.639-14.241-67.056-11.853-87.918,7.237
		c-16.266,14.885-23.446,38.267-19.661,60.683h15.26c-3.987-18.248,1.397-37.601,14.527-49.617
		C334.269,446.945,361.065,445.903,392.208,459.056z"/>
	<path style="fill:#D99A84;" d="M418.092,329.11c-14.776-0.001-27.048-3.565-37.123-10.781c-26.731-19.144-33.1-61.269-37.177-93.95
		h-15.116c4.413,35.683,11.065,82.872,43.559,106.145c11.838,8.478,26.194,12.984,42.887,13.494L418.092,329.11z"/>
	<path style="fill:#4E5660;" d="M416.357,224.379H95.643c-11.693,0-20.466,10.693-18.182,22.161l3.779,18.97h349.52l3.779-18.97
		C436.823,235.072,428.05,224.379,416.357,224.379z"/>
	<path style="fill:#3A4351;" d="M77.461,246.54l3.779,18.97h94.484c0.523-15,1.415-28.915,2.423-41.131H95.643
		C83.95,224.379,75.177,235.072,77.461,246.54z"/>
	<g>
		<g>
			<ellipse style="fill:#FFFFFF;" cx="165.809" cy="343.749" rx="33.279" ry="26.501"/>
			<ellipse style="fill:#FFFFFF;" cx="346.191" cy="343.749" rx="33.279" ry="26.501"/>
		</g>
		<path style="fill:#4E5660;" d="M185.204,325.737c-4.143,0-7.5-3.358-7.5-7.5v-13.604c0-4.142,3.357-7.5,7.5-7.5
			c4.143,0,7.5,3.358,7.5,7.5v13.604C192.704,322.379,189.347,325.737,185.204,325.737z"/>
		<path style="fill:#4E5660;" d="M326.796,325.737c-4.143,0-7.5-3.358-7.5-7.5v-13.604c0-4.142,3.357-7.5,7.5-7.5
			c4.143,0,7.5,3.358,7.5,7.5v13.604C334.296,322.379,330.938,325.737,326.796,325.737z"/>
	</g>
	<path style="fill:#4E5660;" d="M247.107,359.361c5.165,4.309,12.62,4.309,17.785,0c8.638-7.206,19.446-11.876,31.228-12.805
		c17.261-1.361,33.039,5.107,44.162,16.23c17.94,17.94,23.024,63.24,65.447,74.521c9.938,2.643,11.867,15.947,3.138,21.386
		c-38.321,23.875-98.249,34.812-152.869-22.501c-54.619,57.313-114.548,46.376-152.869,22.501c-8.728-5.438-6.8-18.743,3.138-21.386
		c42.423-11.281,47.507-56.581,65.447-74.521c11.123-11.123,26.902-17.591,44.162-16.23
		C227.661,347.485,238.469,352.155,247.107,359.361z"/>
</g>
<g>
</g>
<g>
</g>
<g>
</g>
<g>
</g>
<g>
</g>
<g>
</g>
<g>
</g>
<g>
</g>
<g>
</g>
<g>
</g>
<g>
</g>
<g>
</g>
<g>
</g>
<g>
</g>
<g>
</g>
</svg>
