<?xml version="1.0" encoding="iso-8859-1"?>
<!-- Generator: Adobe Illustrator 23.1.0, SVG Export Plug-In . SVG Version: 6.00 Build 0)  -->
<svg version="1.1" id="Capa_1" xmlns="http://www.w3.org/2000/svg" xmlns:xlink="http://www.w3.org/1999/xlink" x="0px" y="0px"
	 viewBox="0 0 512 512" style="enable-background:new 0 0 512 512;" xml:space="preserve">
<g>
	<path style="fill:#A2DDFD;" d="M242.65,258.339l12.545-218.183C256.491,17.615,275.148,0,297.726,0l0,0
		c10.932,0,19.945,8.569,20.497,19.487l12.078,239.057c0.199,3.943-0.383,7.737-1.609,11.236
		c-4.894,13.974-5.553,29.098-0.869,43.144c6.325,18.968,15.743,30.045,25.294,39.596l-47.485,47.487
		c-22.745-22.744-45.929-54.358-51.486-116.556C246.689,277.712,242.066,268.509,242.65,258.339z"/>
	<path style="fill:#F1D88C;" d="M291.448,421.152c0,50.174,37.464,90.848,83.678,90.848c46.214,0,83.678-40.674,83.678-90.848
		c0-50.174-37.464-90.848-83.678-90.848C328.912,330.304,291.448,370.978,291.448,421.152z M342.292,421.152
		c0-19.688,14.701-35.648,32.835-35.648c18.134,0,32.835,15.96,32.835,35.648c0,19.688-14.701,35.648-32.835,35.648
		C356.992,456.8,342.292,440.84,342.292,421.152z"/>
	<path style="fill:#4E5660;" d="M92.451,144.705c206.102-11.488,216.869,155.578,369.627,111.978
		c11.429-3.262,12.825-18.869,2.176-24.146C358.229,180.001,363.59,110.783,287.49,51.986C219.983-0.171,125.243,4.196,89.774,8.08
		c-8.048,0.881-14.138,7.673-14.138,15.768v105.026C75.636,138.008,83.331,145.213,92.451,144.705z"/>
	<path style="fill:#3A4351;" d="M382.686,260.176l44.316-49.723c-37.592-26.733-56.109-56.378-75.903-86.072l-78.349,70.813
		C311.153,221.479,341.78,250.084,382.686,260.176z"/>
	<path style="fill:#3A4351;" d="M137.935,6.042c-20.1-0.444-37.043,0.821-48.16,2.038c-8.048,0.881-14.138,7.673-14.138,15.768
		v105.026c0,9.134,7.695,16.339,16.815,15.831c37.425-2.086,68.405,1.719,94.969,9.078
		C144.904,113.427,134.344,44.438,137.935,6.042z"/>
	<path style="fill:#3A4351;" d="M344.99,187.125c-1.322,0-2.66-0.349-3.874-1.083c-21.701-13.124-44.699-46.391-49.67-54.582
		c-2.148-3.541-1.021-8.154,2.52-10.303c3.541-2.147,8.154-1.021,10.304,2.521c5.772,9.513,27.068,38.921,44.607,49.528
		c3.545,2.143,4.681,6.754,2.537,10.299C350.005,185.836,347.528,187.125,344.99,187.125z"/>
	<path style="fill:#3A4351;" d="M242.598,129.375c-1.739,0-3.486-0.601-4.904-1.828c-32.486-28.109-68.372-28.109-83.696-28.109
		c-4.143,0-7.5-3.358-7.5-7.5c0-4.142,3.357-7.5,7.5-7.5c15.534,0,56.799,0,93.511,31.765c3.133,2.71,3.475,7.447,0.765,10.579
		C246.789,128.497,244.699,129.375,242.598,129.375z"/>
	<path style="fill:#CDE9FA;" d="M325.966,292.849L471.374,129.7c15.022-16.855,14.285-42.503-1.68-58.468l0,0
		c-7.73-7.73-20.163-8.044-28.273-0.714L263.842,231.016c-2.929,2.647-5.2,5.742-6.808,9.083
		c-6.421,13.342-16.649,24.502-29.893,31.122c-17.885,8.94-32.377,10.113-45.884,10.113l-0.001,67.156
		c32.166,0.001,70.914-5.96,118.823-46.011C309.411,303.693,319.188,300.454,325.966,292.849z"/>
	
		<ellipse transform="matrix(0.7071 -0.7071 0.7071 0.7071 -105.4481 281.7557)" style="fill:#4E5660;" cx="287.385" cy="268.165" rx="7.988" ry="7.988"/>
	<path style="fill:#F1D88C;" d="M181.404,250.062c-32.678-32.678-87.93-30.409-123.409,5.07
		c-35.478,35.478-37.748,90.73-5.07,123.409c32.678,32.678,87.93,30.409,123.409-5.07
		C211.813,337.992,214.082,282.74,181.404,250.062z M91.958,339.508c-12.823-12.823-11.932-34.503,1.989-48.424
		c13.921-13.921,35.602-14.812,48.424-1.989c12.823,12.823,11.932,34.503-1.989,48.425
		C126.461,351.44,104.781,352.331,91.958,339.508z"/>
</g>
<g>
</g>
<g>
</g>
<g>
</g>
<g>
</g>
<g>
</g>
<g>
</g>
<g>
</g>
<g>
</g>
<g>
</g>
<g>
</g>
<g>
</g>
<g>
</g>
<g>
</g>
<g>
</g>
<g>
</g>
</svg>
