<?xml version="1.0" encoding="iso-8859-1"?>
<!-- Generator: Adobe Illustrator 23.1.0, SVG Export Plug-In . SVG Version: 6.00 Build 0)  -->
<svg version="1.1" id="Capa_1" xmlns="http://www.w3.org/2000/svg" xmlns:xlink="http://www.w3.org/1999/xlink" x="0px" y="0px"
	 viewBox="0 0 512 512" style="enable-background:new 0 0 512 512;" xml:space="preserve">
<g>
	<path style="fill:#4E5660;" d="M382.976,326.074c-9.341,0-16.913-7.573-16.913-16.914v-44.836c0-9.341,7.572-16.913,16.913-16.913
		h84.059v-49.085H78.038v226.263h388.997v-98.514H382.976z"/>
	<path style="fill:#3A4351;" d="M78.038,198.325v226.263h124.546c-39.769-60.757-47.844-155.547-49.097-226.263H78.038z"/>
	<rect x="78.038" y="370.656" style="fill:#E0B799;" width="388.997" height="53.932"/>
	<path style="fill:#D99A84;" d="M78.038,370.656v53.932h124.546c-10.455-15.973-18.702-34.311-25.228-53.932H78.038z"/>
	<rect x="378.722" y="370.656" style="fill:#D99A84;" width="15" height="53.933"/>
	<path style="fill:#4E5660;" d="M482.119,424.588H29.881c-12.934,0-24.222,8.771-27.419,21.304l-2.046,8.022
		c-2.133,8.363,4.186,16.496,12.817,16.496h485.532c8.631,0,14.95-8.132,12.817-16.496l-2.046-8.022
		C506.341,433.359,495.053,424.588,482.119,424.588z"/>
	<path style="fill:#3A4351;" d="M184.489,424.588H29.881c-12.934,0-24.222,8.77-27.419,21.304l-2.046,8.021
		c-2.133,8.363,4.186,16.496,12.817,16.496h191.844C194.38,461.978,182.4,441.126,184.489,424.588z"/>
	<path style="fill:#E0B799;" d="M412.672,87.913H99.328c-29.344,0-56.567,15.294-71.831,40.356l-21.66,35.564
		c-9.209,15.12,1.675,34.492,19.378,34.492h461.57c17.704,0,28.588-19.372,19.379-34.492l-21.66-35.564
		C469.239,103.207,442.017,87.913,412.672,87.913z"/>
	<path style="fill:#D99A84;" d="M181.912,87.913H99.328c-29.344,0-56.567,15.294-71.831,40.356l-21.66,35.564
		c-9.209,15.12,1.675,34.492,19.379,34.492H204.01C187.853,174.129,180.055,125.259,181.912,87.913z"/>
	<path style="fill:#9FE6E6;" d="M482.519,125.184c-15.568-23.222-41.729-37.271-69.846-37.271l-313.642-0.56
		c-28.117,0-53.982,14.608-69.549,37.83H482.519z"/>
	<rect x="44.965" y="198.325" style="fill:#FBF1CF;" width="66.146" height="226.263"/>
	<polygon style="fill:#EDA1AB;" points="44.965,415.414 111.111,349.268 111.111,272.295 44.965,338.441 	"/>
	<polygon style="fill:#A2DDFD;" points="44.965,269.76 111.111,203.613 111.111,198.325 44.965,198.325 	"/>
	<path style="fill:#A2DDFD;" d="M275.043,255.837h-72.912c-16.824,0-30.463,13.639-30.463,30.463v138.288h133.838V286.3
		C305.506,269.476,291.867,255.837,275.043,255.837z"/>
	<path style="fill:#7ACDF9;" d="M171.668,424.588h30.917c-13.756-21.016-23.715-46.105-30.917-72.86V424.588z"/>
	<path style="fill:#FFFFFF;" d="M249.994,333.574H227.18c-4.142,0-7.5-3.358-7.5-7.5c0-4.142,3.358-7.5,7.5-7.5h22.814
		c4.142,0,7.5,3.358,7.5,7.5C257.494,330.216,254.136,333.574,249.994,333.574z"/>
	<path style="fill:#A2DDFD;" d="M382.976,326.074h84.059v-78.663h-84.059c-9.341,0-16.913,7.572-16.913,16.913v44.836
		C366.062,318.501,373.635,326.074,382.976,326.074z"/>
	<path style="fill:#7ACDF9;" d="M382.976,326.074h84.059v-78.663h-6.671l-78.602,78.602
		C382.165,326.041,382.566,326.074,382.976,326.074z"/>
	<path style="fill:#4E5660;" d="M247.621,53.825c4.867,4.06,11.89,4.06,16.757,0c8.139-6.789,18.322-11.189,29.423-12.065
		c16.263-1.283,31.129,4.811,41.61,15.292c16.903,16.903,21.693,59.585,61.664,70.214c9.364,2.49,11.181,15.026,2.957,20.149
		c-36.105,22.495-92.57,32.799-144.032-21.2c-51.462,54-107.927,43.696-144.032,21.2c-8.224-5.124-6.407-17.659,2.957-20.149
		c39.971-10.629,44.761-53.31,61.664-70.214c10.48-10.48,25.347-16.574,41.61-15.292C229.299,42.635,239.482,47.035,247.621,53.825z
		"/>
</g>
<g>
</g>
<g>
</g>
<g>
</g>
<g>
</g>
<g>
</g>
<g>
</g>
<g>
</g>
<g>
</g>
<g>
</g>
<g>
</g>
<g>
</g>
<g>
</g>
<g>
</g>
<g>
</g>
<g>
</g>
</svg>
