<?xml version="1.0" encoding="iso-8859-1"?>
<!-- Generator: Adobe Illustrator 23.1.0, SVG Export Plug-In . SVG Version: 6.00 Build 0)  -->
<svg version="1.1" id="Capa_1" xmlns="http://www.w3.org/2000/svg" xmlns:xlink="http://www.w3.org/1999/xlink" x="0px" y="0px"
	 viewBox="0 0 512 512" style="enable-background:new 0 0 512 512;" xml:space="preserve">
<g>
	<path style="fill:#4E5660;" d="M256,434.93c154.52,75.518,242.853-27.054,255.814-124.349c2.303-17.292-17.337-28.644-31.279-18.16
		C402.007,351.473,291.509,303.063,256,303.063s-146.007,48.41-224.536-10.642c-13.942-10.484-33.582,0.868-31.279,18.16
		C13.146,407.876,101.48,510.448,256,434.93z"/>
	<path style="fill:#3A4351;" d="M436.251,314.579C365.109,335.786,285.201,303.063,256,303.063
		c-29.19,0-109.05,32.699-180.173,11.54c12.27,31.91,43.314,57.749,91.854,57.749c10.385,0,21.839-1.19,32.241-3.687
		c17.084,8.725,36.172,13.275,56.079,13.275c19.906,0,38.995-4.551,56.078-13.275c17.108,4.107,33.209,3.687,32.245,3.687
		c37.184,0,59.94-15.041,72.48-27.659C425.412,336.033,431.959,325.79,436.251,314.579z"/>
	<g>
		<path style="fill:#3A4351;" d="M155.313,413.384c-14.345,0-28.29-2.437-41.732-7.309c-3.895-1.412-5.907-5.713-4.496-9.607
			c1.412-3.895,5.713-5.908,9.607-4.496c22.905,8.303,47.628,8.524,73.481,0.658c3.965-1.206,8.153,1.03,9.358,4.992
			c1.206,3.963-1.029,8.153-4.992,9.358C182.509,411.249,168.736,413.384,155.313,413.384z"/>
		<path style="fill:#3A4351;" d="M82.874,388.338c-1.56,0-3.133-0.485-4.479-1.489c-7.509-5.603-13.512-11.121-18.393-15.781
			c-2.996-2.86-3.106-7.607-0.246-10.604c2.86-2.997,7.608-3.106,10.604-0.246c4.785,4.567,10.157,9.499,17.005,14.608
			c3.32,2.477,4.004,7.176,1.526,10.496C87.419,387.296,85.161,388.338,82.874,388.338z"/>
		<path style="fill:#3A4351;" d="M356.67,413.387c-0.994,0-1.99-0.012-2.988-0.035c-4.141-0.098-7.419-3.534-7.321-7.675
			c0.098-4.141,3.501-7.418,7.675-7.321c20.921,0.498,40.956-4.92,59.543-16.092c3.55-2.134,8.159-0.985,10.292,2.565
			c2.134,3.55,0.985,8.158-2.565,10.292C401.126,407.248,379.396,413.387,356.67,413.387z"/>
	</g>
	<path style="fill:#CB9D82;" d="M272.855,282.435c0,30.568,23.441,51.127,57.237,55.348c53.995,6.743,78.408-24.78,78.408-55.348
		c0-38.705-50.233-79.97-75.72-156.946C318.091,81.125,287.559,50.934,256,50.934s-62.091,30.191-76.78,74.555
		c-25.486,76.976-75.72,118.241-75.72,156.946c0,30.568,24.412,62.091,78.408,55.348c33.796-4.221,57.237-24.78,57.237-55.348
		H272.855z"/>
	<path style="fill:#B7856B;" d="M215.234,307.904c-61.586-9.987-70.165-65.188-59.862-128.549
		c-24.563,44.61-51.871,74.543-51.871,103.081c0,30.568,24.412,62.091,78.408,55.348c21.596-2.697,38.95-12.075,48.675-26.463
		C226.501,310.056,221.43,308.908,215.234,307.904z"/>
	<path style="fill:#B7856B;" d="M405.133,301.666c-67.977,14.661-81.188-22.551-94.867-63.589h-61.337v44.358h23.926
		c0,30.568,23.441,51.127,57.237,55.348C372.617,343.094,396.781,324.666,405.133,301.666z"/>
	<ellipse style="fill:#CB9D82;" cx="256" cy="273.634" rx="83.06" ry="74.658"/>
	<g>
		<path style="fill:#B7856B;" d="M292.433,251.897c-1.919,0-3.839-0.733-5.303-2.197c-2.929-2.929-2.929-7.678,0-10.607l4.406-4.406
			c2.929-2.929,7.678-2.929,10.607,0c2.929,2.929,2.929,7.678,0,10.606l-4.406,4.406
			C296.272,251.165,294.352,251.897,292.433,251.897z"/>
		<path style="fill:#B7856B;" d="M225.748,211.611c-1.919,0-3.839-0.732-5.303-2.197l-3.137-3.137
			c-2.929-2.929-2.929-7.678,0-10.607c2.929-2.929,7.678-2.929,10.606,0l3.137,3.137c2.929,2.929,2.929,7.678,0,10.606
			C229.587,210.878,227.668,211.611,225.748,211.611z"/>
	</g>
</g>
<g>
</g>
<g>
</g>
<g>
</g>
<g>
</g>
<g>
</g>
<g>
</g>
<g>
</g>
<g>
</g>
<g>
</g>
<g>
</g>
<g>
</g>
<g>
</g>
<g>
</g>
<g>
</g>
<g>
</g>
</svg>
