<?xml version="1.0" encoding="iso-8859-1"?>
<!-- Generator: Adobe Illustrator 23.1.0, SVG Export Plug-In . SVG Version: 6.00 Build 0)  -->
<svg version="1.1" id="Capa_1" xmlns="http://www.w3.org/2000/svg" xmlns:xlink="http://www.w3.org/1999/xlink" x="0px" y="0px"
	 viewBox="0 0 512 512" style="enable-background:new 0 0 512 512;" xml:space="preserve">
<g>
	<path style="fill:#F6EE86;" d="M452.144,283.578h23.597c13.234,0,23.963-10.729,23.963-23.963V222.91
		c0-5.826-4.723-10.55-10.55-10.55H438.73c-5.826,0-10.55,4.723-10.55,10.55v36.705
		C428.181,272.849,438.909,283.578,452.144,283.578z"/>
	<path style="fill:#F1D88C;" d="M489.154,212.361H438.73c-5.826,0-10.55,4.723-10.55,10.55v21.641h71.524V222.91
		C499.704,217.084,494.981,212.361,489.154,212.361z"/>
	<ellipse style="fill:#4E5660;" cx="256" cy="180.182" rx="140.196" ry="169.415"/>
	<path style="fill:#3A4351;" d="M348.059,307.941C216.656,281.015,163.731,122.31,202.009,24.009
		c-17.813,8.876-34.369,22.335-48.361,40.398c-50.26,64.884-50.221,166.716,0,231.55
		C205.371,362.73,292.131,366.734,348.059,307.941z"/>
	<ellipse style="fill:#A2DDFD;" cx="256" cy="180.182" rx="99.943" ry="129.024"/>
	<path style="fill:#7ACDF9;" d="M319.746,80.81L165.52,235.035c10.453,28.684,28.842,51.595,51.521,63.999l137.823-137.823
		C351.188,128.999,338.293,100.66,319.746,80.81z"/>
	<path style="fill:#E0B799;" d="M495.114,353.879H16.886C7.56,353.879,0,346.319,0,336.993v-36.528
		c0-9.326,7.56-16.886,16.886-16.886h478.227c9.326,0,16.886,7.56,16.886,16.886v36.528C512,346.319,504.44,353.879,495.114,353.879
		z"/>
	<rect x="170.667" y="283.578" style="fill:#D99A84;" width="170.667" height="70.301"/>
	<path style="fill:#4E5660;" d="M98.491,500.868H79.282c-7.303,0-12.733-6.755-11.163-13.887l29.294-133.102h65.731l-44.838,132.767
		C115.435,495.146,107.462,500.868,98.491,500.868z"/>
	<polygon style="fill:#3A4351;" points="90.262,386.368 152.171,386.368 163.144,353.879 97.412,353.879 	"/>
	<path style="fill:#4E5660;" d="M413.509,500.868h19.209c7.303,0,12.733-6.755,11.163-13.887l-29.294-133.102h-65.731
		l44.838,132.767C396.565,495.146,404.538,500.868,413.509,500.868z"/>
	<polygon style="fill:#3A4351;" points="414.587,353.879 348.856,353.879 359.829,386.368 421.738,386.368 	"/>
	<path style="fill:#F6EE86;" d="M57.067,156.149H39.185c-4.003,0-7.393,2.95-7.947,6.914l-5.203,37.268h44.182l-5.203-37.268
		C64.46,159.099,61.069,156.149,57.067,156.149z"/>
	<path style="fill:#EDA1AB;" d="M62.673,195.152H33.578c-7.209,0-13.054,5.845-13.054,13.054v68.683
		c0,3.694,2.995,6.689,6.689,6.689h41.824c3.694,0,6.689-2.995,6.689-6.689v-68.683C75.727,200.996,69.883,195.152,62.673,195.152z"
		/>
	<path style="fill:#E1796E;" d="M20.524,242.491v34.398c0,3.694,2.995,6.689,6.689,6.689h41.824c3.694,0,6.689-2.995,6.689-6.689
		v-34.398H20.524z"/>
	
		<ellipse transform="matrix(0.787 -0.6169 0.6169 0.787 -142.1085 225.8113)" style="fill:#4E5660;" cx="256" cy="318.728" rx="8.229" ry="8.229"/>
	
		<ellipse transform="matrix(0.2227 -0.9749 0.9749 0.2227 20.9171 663.6917)" style="fill:#4E5660;" cx="426.667" cy="318.728" rx="8.229" ry="8.229"/>
	
		<ellipse transform="matrix(0.6169 -0.787 0.787 0.6169 -218.1582 189.2589)" style="fill:#4E5660;" cx="85.334" cy="318.728" rx="8.229" ry="8.229"/>
	<g>
		<g>
			
				<ellipse transform="matrix(0.0022 -1 1 0.0022 -6.0629 378.9813)" style="fill:#FFFFFF;" cx="186.874" cy="192.529" rx="20.312" ry="25.506"/>
			
				<ellipse transform="matrix(0.0022 -1 1 0.0022 131.5836 517.5344)" style="fill:#FFFFFF;" cx="325.126" cy="192.831" rx="20.312" ry="25.506"/>
		</g>
		<path style="fill:#4E5660;" d="M310.306,180.715c-0.005,0-0.009,0-0.014,0c-4.143-0.008-7.494-3.372-7.486-7.514l0.02-10.365
			c0.008-4.137,3.364-7.486,7.5-7.486c0.005,0,0.009,0,0.014,0c4.143,0.008,7.494,3.372,7.486,7.514l-0.02,10.365
			C317.798,177.367,314.441,180.715,310.306,180.715z"/>
		<path style="fill:#4E5660;" d="M259.432,204.501c-1.363,0-2.752-0.186-4.139-0.569l-9.816-2.716
			c-3.992-1.105-6.333-5.236-5.229-9.228c1.105-3.992,5.24-6.333,9.228-5.229l9.72,2.689c-2.793-2.608-4.39-6.289-4.382-10.115
			c0.008-3.827,1.62-7.501,4.427-10.099l-9.732,2.647c-3.996,1.089-8.118-1.271-9.206-5.269c-1.087-3.997,1.272-8.118,5.269-9.206
			l9.83-2.673c6.807-1.849,13.658,1.059,17.054,7.239c3.192,5.809,2.307,12.647-2.138,17.394c4.424,4.767,5.278,11.608,2.06,17.403
			C269.653,201.676,264.747,204.501,259.432,204.501z M259.356,189.608C259.356,189.609,259.356,189.609,259.356,189.608
			C259.356,189.609,259.356,189.609,259.356,189.608z"/>
		<path style="fill:#4E5660;" d="M213.931,179.766c-0.006,0-0.011,0-0.017,0c-4.142-0.009-7.492-3.374-7.483-7.517
			c0.003-1.241-0.478-2.409-1.354-3.289c-0.876-0.879-2.042-1.365-3.283-1.368c-0.003,0-0.007,0-0.01,0
			c-2.558,0-4.641,2.078-4.646,4.637c-0.009,4.136-3.366,7.483-7.499,7.483c-0.006,0-0.011,0-0.017,0
			c-4.142-0.009-7.492-3.374-7.483-7.517c0.011-5.248,2.066-10.177,5.785-13.879c3.709-3.692,8.629-5.724,13.861-5.724
			c0.015,0,0.029,0,0.044,0c5.247,0.011,10.177,2.066,13.88,5.785c3.703,3.719,5.735,8.657,5.724,13.905
			C221.421,176.419,218.065,179.766,213.931,179.766z"/>
	</g>
</g>
<g>
</g>
<g>
</g>
<g>
</g>
<g>
</g>
<g>
</g>
<g>
</g>
<g>
</g>
<g>
</g>
<g>
</g>
<g>
</g>
<g>
</g>
<g>
</g>
<g>
</g>
<g>
</g>
<g>
</g>
</svg>
