<?xml version="1.0" encoding="iso-8859-1"?>
<!-- Generator: Adobe Illustrator 23.1.0, SVG Export Plug-In . SVG Version: 6.00 Build 0)  -->
<svg version="1.1" id="Capa_1" xmlns="http://www.w3.org/2000/svg" xmlns:xlink="http://www.w3.org/1999/xlink" x="0px" y="0px"
	 viewBox="0 0 512 512" style="enable-background:new 0 0 512 512;" xml:space="preserve">
<g>
	<path style="fill:#CDE9FA;" d="M497.394,102.761L471.303,76.67c-4.644-4.644-12.173-4.644-16.817,0L316.139,215.016
		c-7.613,7.613-7.613,19.956,0,27.569l18.211,18.211c20.858,20.858,54.676,20.858,75.534,0l87.51-87.51
		C516.869,153.812,516.869,122.236,497.394,102.761z"/>
	<path style="fill:#A2DDFD;" d="M497.393,173.287L390.791,279.89c-12.432,12.432-25.76,23.936-39.876,34.418l-49.8,36.978
		c-28.213,20.949-51.731,47.57-69.043,78.15l0,0c-6.017,10.63-20.509,12.6-29.146,3.963l-13.35-13.35
		c-5.873-5.872-7.106-14.941-3.014-22.169h0c20.638-36.456,48.674-68.191,82.308-93.165l62.782-46.618l160.54-160.54l5.203,5.203
		C516.869,122.236,516.869,153.812,497.393,173.287z"/>
	<path style="fill:#7ACDF9;" d="M339.121,323.064c-1.72-20.481-13.611-38.102-30.6-47.792l-39.652,29.443
		c-33.634,24.974-61.67,56.709-82.308,93.165h0c-1.437,2.538-2.203,5.304-2.356,8.078h62.951
		c15.058-20.828,33.235-39.285,53.958-54.673L339.121,323.064z"/>
	<path style="fill:#E0B799;" d="M0,326.425L0,326.425c0,32.879,26.654,59.533,59.533,59.533h218.92
		c22.589,0,40.901-18.312,40.901-40.901V328.2c0-22.589-18.312-40.901-40.901-40.901h-77.661c-18.369,0-36.698-1.715-54.748-5.124
		l-75.464-14.25C33.92,261.004,0,289.118,0,326.425z"/>
	<path style="fill:#D99A84;" d="M156.784,385.958c-27.519-29.029-41.949-78.991-44.318-110.123l-41.887-7.909
		C33.92,261.004,0,289.118,0,326.425v0c0,32.879,26.654,59.533,59.533,59.533H156.784z"/>
	<g>
		<path style="fill:#E0B799;" d="M72.895,324.136c-16.285-8.919-41.523-14.95-63.513-5.129c-3.296,1.472-6.395,3.251-9.321,5.295
			C0.036,325.008,0,325.711,0,326.425v0c0,5.487,0.758,10.795,2.147,15.84c3.917-4.126,8.362-7.335,13.351-9.563
			c16.98-7.583,37.063-2.601,50.191,4.589c20.203,11.063,39.04,23.402,48.706,48.667h15.86
			C119.428,352.311,95.352,336.434,72.895,324.136z"/>
		<path style="fill:#D99A84;" d="M245.799,287.299c-21.91,31.092-42.95,44.769-61.473,39.708
			c-10.758-2.939-21.087-12.464-29.085-26.82c-3.312-5.945-5.833-12.044-7.636-17.736c-0.52-0.095-1.042-0.178-1.561-0.276
			l-14.783-2.791c5.644,23.663,22.27,54.759,49.113,62.093c33.744,9.221,63.304-23.096,83.513-54.178H245.799z"/>
		<path style="fill:#D99A84;" d="M253.886,353.657c-11.316,9.116-18.345,20.635-23.251,32.301h16.479
			c3.872-7.681,8.962-14.804,16.182-20.62c13.084-10.539,31.692-15.043,55.483-13.47c0.372-2.216,0.575-4.489,0.575-6.811v-8.171
			C291.855,335.153,269.894,340.761,253.886,353.657z"/>
	</g>
	
		<ellipse transform="matrix(0.1593 -0.9872 0.9872 0.1593 -118.3604 534.2648)" style="fill:#F6EE86;" cx="254.518" cy="336.629" rx="17.388" ry="17.388"/>
</g>
<g>
</g>
<g>
</g>
<g>
</g>
<g>
</g>
<g>
</g>
<g>
</g>
<g>
</g>
<g>
</g>
<g>
</g>
<g>
</g>
<g>
</g>
<g>
</g>
<g>
</g>
<g>
</g>
<g>
</g>
</svg>
