<?xml version="1.0" encoding="iso-8859-1"?>
<!-- Generator: Adobe Illustrator 23.1.0, SVG Export Plug-In . SVG Version: 6.00 Build 0)  -->
<svg version="1.1" id="Capa_1" xmlns="http://www.w3.org/2000/svg" xmlns:xlink="http://www.w3.org/1999/xlink" x="0px" y="0px"
	 viewBox="0 0 512 512" style="enable-background:new 0 0 512 512;" xml:space="preserve">
<g>
	<path style="fill:#4E5660;" d="M91.023,415.067H70.32c-38.836,0-70.32-31.483-70.32-70.32v-17.464c0-4.952,4.014-8.966,8.966-8.966
		h24.2c4.952,0,8.966,4.014,8.966,8.966v17.464c0,15.569,12.621,28.189,28.189,28.189h20.703V415.067z"/>
	<path style="fill:#4E5660;" d="M420.977,415.067h20.703c38.836,0,70.32-31.483,70.32-70.32v-17.464
		c0-4.952-4.014-8.966-8.966-8.966h-24.2c-4.952,0-8.966,4.014-8.966,8.966v17.464c0,15.569-12.621,28.189-28.189,28.189h-20.703
		V415.067z"/>
	<path style="fill:#4E5660;" d="M318.71,159.813c-11.634,0-21.065-9.431-21.065-21.065V60.008c0-9.858-8.02-17.877-17.878-17.877
		h-47.532c-9.858,0-17.878,8.02-17.878,17.877v78.739c0,11.634-9.432,21.065-21.066,21.065s-21.065-9.431-21.065-21.065V60.008
		C172.225,26.92,199.145,0,232.234,0h47.532c33.089,0,60.009,26.92,60.009,60.008v78.739
		C339.775,150.381,330.344,159.813,318.71,159.813z"/>
	<path style="fill:#3A4351;" d="M232.234,42.131h47.532c9.858,0,17.878,8.02,17.878,17.877C297.644,26.937,289.401,0,256,0
		s-41.644,26.937-41.644,60.008C214.356,50.15,222.376,42.131,232.234,42.131z"/>
	<g>
		<path style="fill:#3A4351;" d="M318.71,159.813c11.634,0,21.065-9.431,21.065-21.065V79.041c-5.867-2.689-12.383-4.2-19.248-4.2
			h-22.883v63.907C297.644,150.381,307.076,159.813,318.71,159.813z"/>
		<path style="fill:#3A4351;" d="M193.29,159.813c11.634,0,21.065-9.431,21.065-21.065V74.841h-22.883
			c-6.865,0-13.38,1.511-19.248,4.2v59.707C172.225,150.381,181.657,159.813,193.29,159.813z"/>
	</g>
	<rect x="420.977" y="372.936" style="fill:#3A4351;" width="20.605" height="42.131"/>
	<rect x="70.419" y="372.936" style="fill:#3A4351;" width="20.604" height="42.131"/>
	<path style="fill:#E0B799;" d="M395.211,231.427c-27.016,0-48.917-21.901-48.917-48.917v-61.298
		c0-14.23-11.536-25.767-25.767-25.767H191.473c-14.23,0-25.767,11.536-25.767,25.767v61.298c0,27.016-21.901,48.918-48.918,48.918
		h0c-14.23,0-25.767,11.536-25.767,25.766v199.61c0,30.484,24.712,55.196,55.196,55.196h219.562
		c30.484,0,55.196-24.712,55.196-55.196v-199.61C420.978,242.963,409.441,231.427,395.211,231.427L395.211,231.427z"/>
	<path style="fill:#D99A84;" d="M163.28,197.727c-6.4,19.563-24.79,33.699-46.491,33.699l0,0c-14.23,0-25.767,11.536-25.767,25.766
		v199.61c0,30.484,24.712,55.196,55.196,55.196h118.027C160.937,465.026,161.627,293.006,163.28,197.727z"/>
	<path style="fill:#CDE9FA;" d="M229.723,375.69l-24.567,24.567l-41.629-41.629c-5.743-5.743-5.743-15.053,0-20.796l5.859-5.859
		c4.589-4.589,12.03-4.589,16.62,0L229.723,375.69z"/>
	<ellipse style="fill:#F6EE86;" cx="305.712" cy="356.187" rx="22.765" ry="29.771"/>
	<path style="fill:#4E5660;" d="M345.518,366.016H166.482c-7.045,0-12.756,5.711-12.756,12.756v24.265
		c0,24.039,19.488,43.527,43.527,43.527h117.493c24.039,0,43.527-19.488,43.527-43.527v-24.265
		C358.273,371.727,352.562,366.016,345.518,366.016z"/>
	<rect x="248.5" y="366.016" style="fill:#3A4351;" width="15" height="80.548"/>
	<g>
		<g>
			<ellipse style="fill:#FFFFFF;" cx="174.042" cy="289.025" rx="30.241" ry="24.082"/>
			<ellipse style="fill:#FFFFFF;" cx="337.958" cy="289.025" rx="30.241" ry="24.082"/>
			<path style="fill:#4E5660;" d="M256,263.438c-11.997,0-22.681-8.062-29.401,1.88c-6.816,10.085,8.45,25.723,29.401,25.723
				s36.217-15.638,29.401-25.723C278.681,255.377,267.997,263.438,256,263.438z"/>
		</g>
		<path style="fill:#4E5660;" d="M191.667,271.678c-7.282,0-14.208-3.154-19.001-8.652c-2.722-3.122-2.397-7.86,0.725-10.582
			c3.124-2.722,7.859-2.397,10.582,0.725c1.944,2.23,4.748,3.509,7.694,3.509c2.945,0,5.75-1.279,7.692-3.508
			c2.722-3.122,7.457-3.448,10.582-0.727c3.122,2.722,3.448,7.459,0.727,10.582C205.875,268.524,198.95,271.678,191.667,271.678z"/>
		<path style="fill:#4E5660;" d="M320.333,271.678c-7.283,0-14.208-3.154-19.001-8.653c-2.722-3.123-2.396-7.86,0.727-10.582
			c3.122-2.721,7.859-2.396,10.582,0.727c1.942,2.23,4.747,3.508,7.692,3.508c2.946,0,5.75-1.279,7.694-3.509
			c2.721-3.123,7.459-3.448,10.582-0.725c3.122,2.722,3.446,7.46,0.725,10.582C334.541,268.524,327.615,271.678,320.333,271.678z"/>
	</g>
</g>
<g>
</g>
<g>
</g>
<g>
</g>
<g>
</g>
<g>
</g>
<g>
</g>
<g>
</g>
<g>
</g>
<g>
</g>
<g>
</g>
<g>
</g>
<g>
</g>
<g>
</g>
<g>
</g>
<g>
</g>
</svg>
