<?xml version="1.0" encoding="iso-8859-1"?>
<!-- Generator: Adobe Illustrator 23.1.0, SVG Export Plug-In . SVG Version: 6.00 Build 0)  -->
<svg version="1.1" id="Capa_1" xmlns="http://www.w3.org/2000/svg" xmlns:xlink="http://www.w3.org/1999/xlink" x="0px" y="0px"
	 viewBox="0 0 512 512" style="enable-background:new 0 0 512 512;" xml:space="preserve">
<g>
	<g>
		<path style="fill:#E0B799;" d="M331.135,300.389v26.325c-32.33,0-46.801,19.574-46.801,44.987v35.777h-61.393v-35.777
			c0-25.413-14.471-44.987-46.801-44.987v-26.325H331.135z"/>
		<rect x="222.941" y="371.701" style="fill:#D99A84;" width="61.393" height="35.777"/>
		<path style="fill:#4E5660;" d="M282.137,392.985h-56.997c-6.693,0-12.119,5.426-12.119,12.119v77.928
			c0,15.998,12.969,28.967,28.968,28.967h23.3c15.998,0,28.968-12.969,28.968-28.967v-77.928
			C294.256,398.411,288.83,392.985,282.137,392.985z"/>
		<rect x="213.02" y="444.993" style="fill:#3A4351;" width="81.235" height="15"/>
		<path style="fill:#4E5660;" d="M333.711,326.714H173.565c-33.317,0-60.325-27.009-60.325-60.325V60.325
			C113.24,27.008,140.249,0,173.565,0h160.145c33.317,0,60.325,27.008,60.325,60.325v206.064
			C394.036,299.706,367.027,326.714,333.711,326.714z"/>
		<path style="fill:#3A4351;" d="M173.566,326.714h117.347C177.614,275.207,184.165,54.473,189.502,0h-15.937
			c-33.317,0-60.325,27.008-60.325,60.325v206.064C113.24,299.706,140.249,326.714,173.566,326.714z"/>
		<path style="fill:#A2DDFD;" d="M334.572,288.135H172.704c-11.534,0-20.885-9.35-20.885-20.885V59.464
			c0-11.534,9.35-20.885,20.885-20.885h161.868c11.534,0,20.885,9.35,20.885,20.885V267.25
			C355.457,278.785,346.106,288.135,334.572,288.135z"/>
	</g>
	<path style="fill:#7ACDF9;" d="M355.457,179.041L246.362,288.135h88.21c11.534,0,20.884-9.35,20.884-20.885V179.041z"/>
	<path style="fill:#7ACDF9;" d="M151.819,59.464v76.23l97.115-97.115h-76.23C161.17,38.579,151.819,47.93,151.819,59.464z"/>
	<g>
		<g>
			<ellipse style="fill:#FFFFFF;" cx="182.359" cy="171.884" rx="26.301" ry="20.945"/>
			<ellipse style="fill:#FFFFFF;" cx="324.917" cy="171.884" rx="26.301" ry="20.945"/>
		</g>
		<path style="fill:#4E5660;" d="M197.686,158.964c-4.142,0-7.5-3.358-7.5-7.5v-10.236c0-4.142,3.358-7.5,7.5-7.5
			c4.142,0,7.5,3.358,7.5,7.5v10.236C205.186,155.606,201.829,158.964,197.686,158.964z"/>
		<path style="fill:#4E5660;" d="M253.638,165.622c-7.821,0-15.258-3.387-20.405-9.292c-2.721-3.123-2.396-7.86,0.727-10.582
			c3.123-2.721,7.86-2.396,10.582,0.727c2.297,2.636,5.613,4.148,9.097,4.148c3.484,0,6.8-1.512,9.097-4.148
			c2.721-3.123,7.458-3.448,10.582-0.727c3.123,2.722,3.448,7.459,0.727,10.582C268.897,162.235,261.459,165.622,253.638,165.622z"
			/>
		<path style="fill:#4E5660;" d="M323.427,158.679c-4.142,0-7.5-3.358-7.5-7.5c0-2.405-1.956-4.362-4.362-4.362
			c-2.405,0-4.362,1.957-4.362,4.362c0,4.142-3.358,7.5-7.5,7.5c-4.142,0-7.5-3.358-7.5-7.5c0-10.676,8.686-19.362,19.362-19.362
			c10.676,0,19.362,8.686,19.362,19.362C330.927,155.321,327.569,158.679,323.427,158.679z"/>
	</g>
	<path style="fill:#F1D88C;" d="M411.7,277.228l-8.015,17.784c-4.246,9.42-17.622,9.42-21.868,0l-8.015-17.784
		c-1.202-2.668-3.338-4.804-6.006-6.006l-17.784-8.015c-9.42-4.246-9.42-17.622,0-21.868l17.784-8.015
		c2.668-1.202,4.803-3.338,6.006-6.006l8.015-17.784c4.246-9.42,17.622-9.42,21.868,0l8.015,17.784
		c1.202,2.668,3.338,4.804,6.006,6.006l17.784,8.015c9.42,4.246,9.42,17.622,0,21.868l-17.784,8.015
		C415.038,272.425,412.902,274.561,411.7,277.228z"/>
	<path style="fill:#F6EE86;" d="M134.38,70.607l-7.57,16.796c-4.01,8.897-16.643,8.897-20.653,0l-7.57-16.796
		c-1.135-2.52-3.153-4.537-5.672-5.672l-16.796-7.57c-8.897-4.01-8.897-16.643,0-20.653l16.796-7.57
		c2.519-1.135,4.537-3.153,5.672-5.672l7.57-16.796c4.01-8.897,16.643-8.897,20.653,0l7.57,16.796
		c1.135,2.519,3.153,4.537,5.672,5.672l16.796,7.57c8.897,4.01,8.897,16.643,0,20.653l-16.796,7.57
		C137.533,66.07,135.516,68.087,134.38,70.607z"/>
</g>
<g>
</g>
<g>
</g>
<g>
</g>
<g>
</g>
<g>
</g>
<g>
</g>
<g>
</g>
<g>
</g>
<g>
</g>
<g>
</g>
<g>
</g>
<g>
</g>
<g>
</g>
<g>
</g>
<g>
</g>
</svg>
