<?xml version="1.0" encoding="iso-8859-1"?>
<!-- Generator: Adobe Illustrator 23.1.0, SVG Export Plug-In . SVG Version: 6.00 Build 0)  -->
<svg version="1.1" id="Capa_1" xmlns="http://www.w3.org/2000/svg" xmlns:xlink="http://www.w3.org/1999/xlink" x="0px" y="0px"
	 viewBox="0 0 512 512" style="enable-background:new 0 0 512 512;" xml:space="preserve">
<g>
	<path style="fill:#4E5660;" d="M370.916,278.707L224.511,132.303c-13.594-13.594-33.811-19.446-70.38,17.124
		c-36.569,36.569-43.105,96.361-76.145,129.401l-62.39,62.39c-20.796,20.796-20.796,54.512,0,75.308l71.096,71.096
		c20.796,20.796,54.512,20.796,75.308,0l62.39-62.39c33.04-33.04,92.832-39.576,129.401-76.145
		C390.361,312.518,384.51,292.302,370.916,278.707z"/>
	<path style="fill:#F6EE86;" d="M275.279,330.312c-1.919,0-3.839-0.732-5.303-2.197l-94.872-94.872
		c-2.929-2.929-2.929-7.678,0-10.606c2.929-2.929,7.678-2.929,10.606,0l94.872,94.872c2.929,2.929,2.929,7.678,0,10.606
		C279.118,329.579,277.198,330.312,275.279,330.312z"/>
	<path style="fill:#3A4351;" d="M162.001,487.622l34.879-34.879c-78.785-45.668-88.92-171.246-63.842-275.085
		c-19.857,34.365-29.589,75.707-55.051,101.169l-62.39,62.39c-20.796,20.796-20.796,54.512,0,75.308l71.096,71.096
		C107.489,508.418,141.205,508.418,162.001,487.622z"/>
	<path style="fill:#3A4351;" d="M482.734,161.614l-8.015-8.015l-0.919,0.12L349.636,29.016l0.087-0.41L349.6,28.48l-7.995-7.995
		c-15.605-15.605-40.906-15.605-56.51,0L227.149,78.43c-15.605,15.605-15.605,40.906,0,56.51L368.278,276.07
		c15.605,15.605,40.905,15.605,56.51,0l57.945-57.945C498.339,202.519,498.339,177.219,482.734,161.614z"/>
	<path style="fill:#CDE9FA;" d="M474.621,153.501L349.718,28.598l-56.963,56.963c-9.806,9.806-9.806,25.706,0,35.512l89.391,89.391
		c9.806,9.807,25.706,9.807,35.512,0L474.621,153.501z"/>
	<g>
		
			<rect x="321.975" y="120.909" transform="matrix(0.7071 -0.7071 0.7071 0.7071 18.9794 302.6389)" style="fill:#A2DDFD;" width="105.67" height="15"/>
		
			<rect x="290.749" y="89.683" transform="matrix(0.7071 -0.7071 0.7071 0.7071 31.9135 271.4133)" style="fill:#A2DDFD;" width="105.669" height="15"/>
		
			<rect x="353.201" y="152.135" transform="matrix(0.7071 -0.7071 0.7071 0.7071 6.0453 333.8647)" style="fill:#A2DDFD;" width="105.669" height="15"/>
	</g>
	<path style="fill:#9FE6E6;" d="M263.407,239.812L263.407,239.812c-13.392-13.392-35.105-13.392-48.497,0l-22.632,22.632
		c-13.392,13.392-13.392,35.105,0,48.497v0c13.392,13.392,35.105,13.392,48.497,0l22.632-22.632
		C276.799,274.916,276.799,253.204,263.407,239.812z"/>
	<path style="fill:#FFFFFF;" d="M219.997,290.722c-1.919,0-3.839-0.732-5.303-2.197c-2.929-2.929-2.929-7.678,0-10.606
		l15.692-15.692c2.929-2.929,7.678-2.929,10.607,0c2.929,2.929,2.929,7.678,0,10.606L225.3,288.525
		C223.836,289.989,221.917,290.722,219.997,290.722z"/>
	<circle style="fill:#EDA1AB;" cx="137.6" cy="365.618" r="34.292"/>
	<path style="fill:#E1796E;" d="M146.593,398.706c-10.199-19.291-17.118-41.44-21.188-65.137c-4.393,1.669-8.514,4.262-12.053,7.8
		c-13.392,13.392-13.392,35.105,0,48.497C122.357,398.872,135.123,401.812,146.593,398.706z"/>
	<path style="fill:#FFFFFF;" d="M94.05,438.924c-1.919,0-3.839-0.732-5.303-2.197l-22.255-22.255c-2.929-2.929-2.929-7.678,0-10.607
		c2.929-2.929,7.678-2.929,10.607,0l22.255,22.255c2.929,2.929,2.929,7.678,0,10.606C97.889,438.192,95.969,438.924,94.05,438.924z"
		/>
	<g>
		<path style="fill:#D99A84;" d="M395.572,328.035c0-22.793-3.702-52.064-17.758-88.306c-4.234-10.916,7.917-20.911,17.876-14.755
			c33.665,20.807,55.029,55.703,55.029,103.061s-21.364,82.255-55.029,103.061c-9.96,6.156-22.11-3.839-17.876-14.755
			C391.87,380.098,395.572,350.827,395.572,328.035z"/>
		<path style="fill:#E0B799;" d="M384.431,215.1c-16.591,0.268-30.335,13.067-31.426,29.624c-1.892,28.711-9.321,54.3-16.069,70.593
			c-8.722,21.057-23.343,46.682-50.197,74.786c-8.089,8.466-0.688,22.351,10.87,20.475c39.064-6.341,72.154-30.405,90.277-74.157
			c5.961-14.392,9.269-28.422,10.201-41.913c1.08-15.638,19.956-23.1,31.486-12.481c2.186,2.013,4.256,4.006,6.219,5.969
			c16.116,16.116,34.196,39.431,49.884,74.996c4.726,10.713,20.386,9.189,23.076-2.207c9.091-38.516-0.478-78.297-33.965-111.784
			C449.876,224.09,416.003,214.59,384.431,215.1z"/>
	</g>
</g>
<g>
</g>
<g>
</g>
<g>
</g>
<g>
</g>
<g>
</g>
<g>
</g>
<g>
</g>
<g>
</g>
<g>
</g>
<g>
</g>
<g>
</g>
<g>
</g>
<g>
</g>
<g>
</g>
<g>
</g>
</svg>
