<?xml version="1.0" encoding="iso-8859-1"?>
<!-- Generator: Adobe Illustrator 23.1.0, SVG Export Plug-In . SVG Version: 6.00 Build 0)  -->
<svg version="1.1" id="Capa_1" xmlns="http://www.w3.org/2000/svg" xmlns:xlink="http://www.w3.org/1999/xlink" x="0px" y="0px"
	 viewBox="0 0 512 512" style="enable-background:new 0 0 512 512;" xml:space="preserve">
<g>
	<path style="fill:#FBF1CF;" d="M407.449,412.669H104.551c-33.553,0-60.753-27.2-60.753-60.753V86.715
		c0-33.553,27.2-60.753,60.753-60.753h302.899c33.553,0,60.753,27.2,60.753,60.753v265.201
		C468.203,385.469,441.003,412.669,407.449,412.669z"/>
	<path style="fill:#F7DFB7;" d="M104.551,25.962c-33.553,0-60.753,27.2-60.753,60.753v265.201c0,33.553,27.2,60.753,60.753,60.753
		h149.127c-119.275-98.095-109.24-285.912-99.738-386.708H104.551z"/>
	<path style="fill:#EDA1AB;" d="M468.203,169.998H43.797V86.715c0-33.553,27.2-60.753,60.753-60.753h302.899
		c33.553,0,60.753,27.2,60.753,60.753V169.998z"/>
	<path style="fill:#E1796E;" d="M153.939,25.962h-49.389c-33.553,0-60.753,27.2-60.753,60.753v83.283h106.274
		C146.591,115.843,150.303,64.532,153.939,25.962z"/>
	
		<ellipse transform="matrix(0.7071 -0.7071 0.7071 0.7071 -189.6152 290.6186)" style="fill:#E0B799;" cx="256" cy="374.195" rx="137.805" ry="137.805"/>
	<path style="fill:#D99A84;" d="M213.314,243.14c-55.211,17.971-95.119,69.849-95.119,131.055C118.195,450.303,179.892,512,256,512
		c35.933,0,68.65-13.758,93.182-36.288C162.884,472.591,175.871,299.762,213.314,243.14z"/>
	<path style="fill:#4E5660;" d="M118.195,374.195C118.195,450.303,179.892,512,256,512s137.805-61.697,137.805-137.805H118.195z"/>
	<path style="fill:#3A4351;" d="M195.847,374.195h-77.652C118.195,450.303,179.892,512,256,512c35.933,0,68.65-13.758,93.182-36.288
		C252.804,474.098,209.758,427.066,195.847,374.195z"/>
	
		<ellipse transform="matrix(0.7071 -0.7071 0.7071 0.7071 -189.6152 290.6186)" style="fill:#FFFFFF;" cx="256" cy="374.195" rx="95.173" ry="95.173"/>
	<path style="fill:#FBF1CF;" d="M199.024,297.954c-23.189,17.358-38.197,45.047-38.197,76.241c0,52.563,42.611,95.173,95.173,95.173
		c14.224,0,27.717-3.126,39.837-8.72C208.989,435.456,190.664,358.417,199.024,297.954z"/>
	<path style="fill:#4E5660;" d="M256,381.695c-4.142,0-7.5-3.358-7.5-7.5v-50.456c0-4.142,3.358-7.5,7.5-7.5
		c4.143,0,7.5,3.358,7.5,7.5v50.456C263.5,378.337,260.143,381.695,256,381.695z"/>
	<path style="fill:#EDA1AB;" d="M256,381.695c-1.919,0-3.839-0.732-5.303-2.197c-2.929-2.929-2.929-7.678,0-10.606l23.07-23.071
		c2.93-2.929,7.678-2.929,10.607,0c2.929,2.929,2.929,7.678,0,10.606l-23.07,23.071C259.839,380.963,257.919,381.695,256,381.695z"
		/>
	<g>
		<g>
			<ellipse style="fill:#FFFFFF;" cx="150.938" cy="113.029" rx="38.766" ry="30.871"/>
			<ellipse style="fill:#FFFFFF;" cx="361.062" cy="113.029" rx="38.766" ry="30.871"/>
		</g>
		<path style="fill:#4E5660;" d="M173.53,90.811c-4.142,0-7.5-3.358-7.5-7.5V67.464c0-4.142,3.358-7.5,7.5-7.5s7.5,3.358,7.5,7.5
			v15.847C181.03,87.453,177.672,90.811,173.53,90.811z"/>
		<path style="fill:#4E5660;" d="M338.47,90.811c-4.143,0-7.5-3.358-7.5-7.5V67.464c0-4.142,3.357-7.5,7.5-7.5
			c4.143,0,7.5,3.358,7.5,7.5v15.847C345.97,87.453,342.612,90.811,338.47,90.811z"/>
	</g>
	<path style="fill:#4E5660;" d="M248.641,112.768c4.275,3.566,10.444,3.566,14.719,0c7.149-5.964,16.093-9.828,25.843-10.597
		c14.284-1.126,27.342,4.226,36.547,13.431c14.847,14.847,19.054,52.336,54.162,61.672c8.225,2.187,9.82,13.198,2.597,17.698
		C350.797,214.73,301.201,223.78,256,176.35c-45.201,47.43-94.797,38.38-126.51,18.621c-7.223-4.5-5.627-15.511,2.597-17.698
		c35.108-9.336,39.316-46.825,54.162-61.672c9.205-9.205,22.263-14.558,36.547-13.431
		C232.548,102.939,241.492,106.804,248.641,112.768z"/>
	<path style="fill:#4E5660;" d="M116.121,75.388L116.121,75.388c-10.232,0-18.527-8.295-18.527-18.527V18.527
		C97.595,8.295,105.889,0,116.121,0l0,0c10.232,0,18.526,8.295,18.526,18.527v38.335C134.648,67.093,126.353,75.388,116.121,75.388z
		"/>
	<path style="fill:#4E5660;" d="M395.879,75.388L395.879,75.388c10.232,0,18.526-8.295,18.526-18.527V18.527
		C414.405,8.295,406.111,0,395.879,0l0,0c-10.232,0-18.527,8.295-18.527,18.527v38.335
		C377.352,67.093,385.647,75.388,395.879,75.388z"/>
</g>
<g>
</g>
<g>
</g>
<g>
</g>
<g>
</g>
<g>
</g>
<g>
</g>
<g>
</g>
<g>
</g>
<g>
</g>
<g>
</g>
<g>
</g>
<g>
</g>
<g>
</g>
<g>
</g>
<g>
</g>
</svg>
