<?xml version="1.0" encoding="iso-8859-1"?>
<!-- Generator: Adobe Illustrator 23.1.0, SVG Export Plug-In . SVG Version: 6.00 Build 0)  -->
<svg version="1.1" id="Capa_1" xmlns="http://www.w3.org/2000/svg" xmlns:xlink="http://www.w3.org/1999/xlink" x="0px" y="0px"
	 viewBox="0 0 512 512" style="enable-background:new 0 0 512 512;" xml:space="preserve">
<g>
	<path style="fill:#4E5660;" d="M332.831,149.782H179.169c-10.608,0-19.207,8.599-19.207,19.207v54.405h192.077v-54.405
		C352.038,158.381,343.439,149.782,332.831,149.782z"/>
	<g>
		<g>
			<path style="fill:#F6EE86;" d="M389.397,82.391h-19.853c-4.143,0-7.5-3.358-7.5-7.5c0-4.142,3.357-7.5,7.5-7.5h19.853
				c4.143,0,7.5,3.358,7.5,7.5C396.897,79.033,393.54,82.391,389.397,82.391z"/>
			<path style="fill:#F6EE86;" d="M369.545,42.974c-1.919,0-3.839-0.732-5.303-2.197c-2.93-2.929-2.93-7.677-0.001-10.606
				l15.116-15.117c2.93-2.929,7.678-2.93,10.607,0c2.929,2.929,2.929,7.677,0,10.606l-15.116,15.117
				C373.384,42.242,371.464,42.974,369.545,42.974z"/>
			<path style="fill:#F6EE86;" d="M384.661,136.924c-1.919,0-3.839-0.732-5.304-2.197l-15.116-15.116
				c-2.929-2.929-2.929-7.678,0-10.606c2.93-2.929,7.678-2.929,10.607,0l15.116,15.116c2.929,2.929,2.929,7.678,0,10.606
				C388.5,136.192,386.58,136.924,384.661,136.924z"/>
		</g>
	</g>
	<g>
		<rect x="248.5" y="149.782" style="fill:#3A4351;" width="15" height="73.612"/>
		<rect x="199.434" y="149.782" style="fill:#3A4351;" width="15" height="73.612"/>
		<rect x="297.566" y="149.782" style="fill:#3A4351;" width="15" height="73.612"/>
	</g>
	<path style="fill:#A2DDFD;" d="M292.081,0h-72.162c-16.459,0-29.801,13.342-29.801,29.801v119.981h131.764V29.801
		C321.882,13.342,308.54,0,292.081,0z"/>
	<path style="fill:#7ACDF9;" d="M216.562,0.193c-14.877,1.669-26.444,14.285-26.444,29.608v119.981h54.109
		C224.861,116.879,215.855,43.418,216.562,0.193z"/>
	<path style="fill:#7ACDF9;" d="M321.882,41.007c-5.973-3.651-12.986-5.768-20.501-5.768c-21.77,0-39.417,17.648-39.417,39.417
		c0,21.77,17.648,39.417,39.417,39.417c7.515,0,14.527-2.117,20.501-5.768V82.152l-1.625-0.589l0.025-13.77l1.599-0.61V41.007z"/>
	<path style="fill:#F6EE86;" d="M368.317,512H143.683c-20.567,0-37.239-16.672-37.239-37.239V276.073
		c0-29.094,23.585-52.679,52.679-52.679h193.755c29.094,0,52.679,23.585,52.679,52.679v198.688
		C405.556,495.328,388.884,512,368.317,512z"/>
	<path style="fill:#F1D88C;" d="M185.876,223.394h-26.753c-29.094,0-52.679,23.585-52.679,52.679v198.688
		c0,20.567,16.672,37.239,37.239,37.239h88.123C179.621,462.482,182.804,306.736,185.876,223.394z"/>
	<path style="fill:#A2DDFD;" d="M368.317,463.832H143.683c-20.566,0-37.239-16.673-37.239-37.239v48.168
		c0,20.567,16.672,37.239,37.239,37.239h224.635c20.566,0,37.239-16.672,37.239-37.239v-48.168
		C405.556,447.16,388.884,463.832,368.317,463.832z"/>
	<path style="fill:#7ACDF9;" d="M106.444,426.593v48.168c0,20.567,16.672,37.239,37.239,37.239h88.123
		c-11.87-11.264-20.882-28.011-27.674-48.168h-60.449C123.116,463.832,106.444,447.16,106.444,426.593z"/>
	<path style="fill:#4E5660;" d="M250.073,342.517c3.443,2.872,8.411,2.872,11.854,0c5.757-4.803,12.961-7.915,20.813-8.535
		c11.504-0.907,22.02,3.403,29.433,10.817c11.957,11.957,15.345,42.149,43.62,49.667c6.624,1.761,7.909,10.629,2.092,14.253
		c-25.54,15.912-65.482,23.201-101.884-14.996c-36.403,38.198-76.344,30.909-101.884,14.996c-5.817-3.624-4.532-12.492,2.092-14.253
		c28.274-7.518,31.663-37.71,43.619-49.667c7.413-7.413,17.93-11.724,29.433-10.817
		C237.113,334.602,244.316,337.714,250.073,342.517z"/>
	<g>
		<g>
			<ellipse style="fill:#EDA1AB;" cx="161.3" cy="337.276" rx="34.942" ry="27.826"/>
			<ellipse style="fill:#EDA1AB;" cx="350.7" cy="337.276" rx="34.942" ry="27.826"/>
		</g>
		<path style="fill:#4E5660;" d="M198.296,314.496c-4.143,0-7.5-3.358-7.5-7.5c0-5.035-4.097-9.132-9.132-9.132
			c-5.035,0-9.131,4.097-9.131,9.132c0,4.142-3.357,7.5-7.5,7.5c-4.143,0-7.5-3.358-7.5-7.5c0-13.306,10.825-24.132,24.131-24.132
			c13.307,0,24.132,10.826,24.132,24.132C205.796,311.138,202.439,314.496,198.296,314.496z"/>
		<path style="fill:#4E5660;" d="M346.967,314.496c-4.143,0-7.5-3.358-7.5-7.5c0-5.035-4.097-9.132-9.132-9.132
			c-5.035,0-9.131,4.097-9.131,9.132c0,4.142-3.357,7.5-7.5,7.5s-7.5-3.358-7.5-7.5c0-13.306,10.825-24.132,24.131-24.132
			c13.307,0,24.132,10.826,24.132,24.132C354.467,311.138,351.109,314.496,346.967,314.496z"/>
	</g>
	<path style="fill:#A2DDFD;" d="M321.882,82.156h-16.815c-4.143,0-7.5-3.358-7.5-7.5c0-4.142,3.357-7.5,7.5-7.5h16.815V82.156z"/>
</g>
<g>
</g>
<g>
</g>
<g>
</g>
<g>
</g>
<g>
</g>
<g>
</g>
<g>
</g>
<g>
</g>
<g>
</g>
<g>
</g>
<g>
</g>
<g>
</g>
<g>
</g>
<g>
</g>
<g>
</g>
</svg>
