<?xml version="1.0" encoding="iso-8859-1"?>
<!-- Generator: Adobe Illustrator 23.1.0, SVG Export Plug-In . SVG Version: 6.00 Build 0)  -->
<svg version="1.1" id="Capa_1" xmlns="http://www.w3.org/2000/svg" xmlns:xlink="http://www.w3.org/1999/xlink" x="0px" y="0px"
	 viewBox="0 0 512 512" style="enable-background:new 0 0 512 512;" xml:space="preserve">
<g>
	<path style="fill:#FBF1CF;" d="M448.306,142.156c-1.14-25.024-21.376-45.448-46.39-46.8c-19.377-1.048-36.467,9.132-45.371,24.619
		c-4.4,7.652-12.445,12.382-21.234,13.196c-33.899,3.136-61.033,31.691-61.086,67.03c-0.054,36.613,29.744,66.948,66.353,67.512
		c35.348,0.544,64.366-26.069,68.076-59.945c0.936-8.548,6.168-15.899,13.746-19.964
		C438.479,179.179,449.205,161.877,448.306,142.156z"/>
	<path style="fill:#F7DFB7;" d="M400.842,232.553c-7.827-30.621-31.684-55.421-63.288-63.659c-3.221-0.839-6.521-1.642-9.897-2.406
		c-5.082-1.15-8.686-5.678-8.686-10.888v-18.795c-26.002,9.305-44.893,34.218-44.745,63.844
		c0.182,36.511,29.978,66.574,66.487,67.065C366.734,268.063,389.294,253.688,400.842,232.553z"/>
	<circle style="fill:#FBF1CF;" cx="359.887" cy="29.494" r="29.494"/>
	<path style="fill:#CDE9FA;" d="M377.843,254.514c0-28.511-19.196-53.506-46.786-60.698c-33.03-8.61-72.403-12.315-110.315-12.315
		s-77.286,3.706-110.315,12.315c-27.59,7.192-46.786,32.186-46.786,60.698v213.428C63.641,492.274,83.367,512,107.7,512h226.085
		c24.333,0,44.059-19.726,44.059-44.059V254.514z"/>
	<path style="fill:#A2DDFD;" d="M150.325,186.074c-13.927,1.92-27.37,4.477-39.898,7.742c-27.59,7.192-46.786,32.186-46.786,60.698
		v213.428C63.641,492.274,83.367,512,107.7,512h139.595C156.268,468.586,143.052,277.883,150.325,186.074z"/>
	<path style="fill:#7ACDF9;" d="M377.843,336.447c0,34.214-54.044,38.743-106.173,6.955
		C309.857,309.953,377.843,302.233,377.843,336.447z"/>
	<path style="fill:#A2DDFD;" d="M271.67,343.402c-43.693-26.643-147.869-41.252-208.029-19.04v143.579
		C63.641,492.274,83.367,512,107.7,512h226.085c24.333,0,44.058-19.726,44.058-44.059V336.446
		C377.843,370.66,323.799,375.19,271.67,343.402z"/>
	<path style="fill:#7ACDF9;" d="M153.313,313.94c-32.491-1.638-64.833,1.251-89.672,10.422v143.579
		C63.641,492.274,83.367,512,107.7,512h139.595C189.442,484.408,163.02,397.324,153.313,313.94z"/>
	<path style="fill:#FFFFFF;" d="M148.273,479.362c-2.387,0-4.733-1.136-6.188-3.252c-2.347-3.414-1.481-8.083,1.933-10.429
		c1.328-0.913,2.965-1.902,5.036-3.155c17.556-10.613,64.188-38.804,64.188-115.776v-165.25c0-4.142,3.357-7.5,7.5-7.5
		c4.143,0,7.5,3.358,7.5,7.5v165.25c0,36.425-9.617,67.368-28.585,91.968c-15.517,20.124-33.292,30.871-42.842,36.644
		c-1.789,1.081-3.333,2.015-4.301,2.68C151.217,478.935,149.737,479.362,148.273,479.362z"/>
	<path style="fill:#4E5660;" d="M265.352,43.698h-89.22c-15.39,0-27.865,12.476-27.865,27.865v101.751
		c0,7.846,6.361,14.207,14.207,14.207H279.01c7.846,0,14.207-6.361,14.207-14.207V71.563
		C293.217,56.174,280.741,43.698,265.352,43.698z"/>
	<path style="fill:#3A4351;" d="M203.722,43.698h-27.589c-15.39,0-27.866,12.476-27.866,27.865v101.751
		c0,7.846,6.361,14.207,14.207,14.207h77.342C198.798,153.524,199.47,96.69,203.722,43.698z"/>
	<path style="fill:#FBF1CF;" d="M282.185,274.514H159.298c-10.716,0-19.403,8.687-19.403,19.403v129.835
		c0,10.716,8.687,19.403,19.403,19.403h122.887c10.716,0,19.403-8.687,19.403-19.403V293.917
		C301.588,283.201,292.901,274.514,282.185,274.514z"/>
	<path style="fill:#F7DFB7;" d="M159.298,443.155h27.073c-22.387-47.691-32.864-110.162-36.351-166.281
		c-6.032,3.29-10.125,9.688-10.125,17.043v129.835C139.896,434.468,148.583,443.155,159.298,443.155z"/>
	<rect x="139.895" y="312.613" style="fill:#4E5660;" width="161.692" height="15"/>
	<g>
		<path style="fill:#A2DDFD;" d="M236.545,370.525h-31.606c-4.143,0-7.5-3.358-7.5-7.5c0-4.142,3.357-7.5,7.5-7.5h31.606
			c4.143,0,7.5,3.358,7.5,7.5C244.045,367.168,240.687,370.525,236.545,370.525z"/>
		<path style="fill:#EDA1AB;" d="M236.545,407.742h-31.606c-4.143,0-7.5-3.358-7.5-7.5c0-4.142,3.357-7.5,7.5-7.5h31.606
			c4.143,0,7.5,3.358,7.5,7.5C244.045,404.384,240.687,407.742,236.545,407.742z"/>
	</g>
	
		<ellipse transform="matrix(0.9732 -0.2298 0.2298 0.9732 -20.6566 53.8087)" style="fill:#CDE9FA;" cx="220.742" cy="115.61" rx="33.86" ry="33.86"/>
	<path style="fill:#A2DDFD;" d="M201.817,87.528c-9.011,6.084-14.935,16.391-14.935,28.082c0,15.608,10.563,28.741,24.928,32.661
		C204.545,129.747,202.042,108.919,201.817,87.528z"/>
	
		<ellipse transform="matrix(0.9732 -0.2298 0.2298 0.9732 -20.6565 53.8085)" style="fill:#4E5660;" cx="220.742" cy="115.61" rx="7.988" ry="7.988"/>
</g>
<g>
</g>
<g>
</g>
<g>
</g>
<g>
</g>
<g>
</g>
<g>
</g>
<g>
</g>
<g>
</g>
<g>
</g>
<g>
</g>
<g>
</g>
<g>
</g>
<g>
</g>
<g>
</g>
<g>
</g>
</svg>
