<?xml version="1.0" encoding="iso-8859-1"?>
<!-- Generator: Adobe Illustrator 23.1.0, SVG Export Plug-In . SVG Version: 6.00 Build 0)  -->
<svg version="1.1" id="Capa_1" xmlns="http://www.w3.org/2000/svg" xmlns:xlink="http://www.w3.org/1999/xlink" x="0px" y="0px"
	 viewBox="0 0 512 512" style="enable-background:new 0 0 512 512;" xml:space="preserve">
<g>
	<path style="fill:#A2DDFD;" d="M24.227,14.615l-9.612,9.612c-19.486,19.486-19.486,51.08,0,70.566l93.96,93.96l80.178-80.178
		l-93.96-93.96C75.307-4.872,43.713-4.872,24.227,14.615z"/>
	
		<rect x="75.044" y="107.801" transform="matrix(0.7071 -0.7071 0.7071 0.7071 -54.5677 131.7381)" style="fill:#7ACDF9;" width="113.389" height="47.874"/>
	<path style="fill:#7ACDF9;" d="M72.003,79.503c-1.919,0-3.839-0.732-5.303-2.197L54.462,65.067c-2.929-2.929-2.929-7.678,0-10.607
		c2.929-2.928,7.678-2.929,10.607,0.001L77.306,66.7c2.929,2.929,2.929,7.678,0,10.606C75.842,78.771,73.922,79.503,72.003,79.503z"
		/>
	<path style="fill:#A2DDFD;" d="M485.447,231.204L231.204,485.447L100.787,355.031c-33.396-33.396-33.396-87.542,0-120.939
		l133.305-133.305c33.396-33.396,87.542-33.396,120.939,0L485.447,231.204z"/>
	<path style="fill:#7ACDF9;" d="M229.965,104.914L100.787,234.092c-33.396,33.396-33.396,87.542,0,120.939l130.416,130.417
		l63.967-63.967C210.611,351.123,187.364,209.476,229.965,104.914z"/>
	<g>
		<g>
			
				<ellipse transform="matrix(0.7071 -0.7071 0.7071 0.7071 -165.3849 226.5197)" style="fill:#FFFFFF;" cx="190.742" cy="312.898" rx="31.872" ry="25.381"/>
			
				<ellipse transform="matrix(0.7071 -0.7071 0.7071 0.7071 -43.2294 277.1193)" style="fill:#FFFFFF;" cx="312.898" cy="190.742" rx="31.872" ry="25.381"/>
			<path style="fill:#4E5660;" d="M249.994,226.068c-7.393-7.393-18.743-8.031-25.35-1.424c-6.607,6.607-5.969,17.956,1.424,25.35
				c7.393,7.393,18.743,8.03,25.35,1.424C258.024,244.81,257.387,233.461,249.994,226.068z"/>
		</g>
		<path style="fill:#4E5660;" d="M172.853,294.974c-1.919,0-3.839-0.732-5.303-2.196l-8.742-8.741
			c-2.929-2.929-2.929-7.678,0-10.606c2.929-2.93,7.678-2.929,10.606-0.001l8.742,8.741c2.929,2.929,2.929,7.678,0,10.607
			C176.691,294.241,174.772,294.974,172.853,294.974z"/>
		<path style="fill:#4E5660;" d="M287.473,180.353c-1.919,0-3.839-0.732-5.303-2.196l-8.741-8.741c-2.929-2.93-2.929-7.678,0-10.607
			c2.929-2.928,7.678-2.928,10.607,0l8.741,8.741c2.929,2.93,2.929,7.678,0,10.607C291.312,179.62,289.393,180.353,287.473,180.353z
			"/>
	</g>
	<path style="fill:#CDE9FA;" d="M504.223,249.98c-10.37,10.37-27.182,10.37-37.551,0L336.255,119.563
		c-22.99-22.99-60.398-22.99-83.388,0L119.563,252.867c-22.99,22.99-22.99,60.398,0,83.388L249.98,466.672
		c10.37,10.37,10.37,27.182,0,37.551c-10.37,10.369-27.182,10.369-37.551,0L82.012,373.806c-43.696-43.696-43.696-114.794,0-158.49
		L215.316,82.012c43.696-43.696,114.794-43.696,158.49,0l130.417,130.417C514.592,222.798,514.592,239.61,504.223,249.98z"/>
	<path style="fill:#A2DDFD;" d="M119.563,336.255c-22.99-22.99-22.99-60.398,0-83.388l60.185-60.185
		c-19.145-6.443-29.344-32.623-20.436-54.666l-77.3,77.3c-43.696,43.696-43.696,114.794,0,158.49l130.417,130.417
		c10.369,10.369,27.182,10.369,37.551,0c10.37-10.37,10.37-27.182,0-37.551L119.563,336.255z"/>
	<path style="fill:#7ACDF9;" d="M240.494,409.218c-1.919,0-3.839-0.732-5.303-2.196c-2.929-2.93-2.929-7.678,0-10.607
		L396.415,235.19c2.929-2.928,7.678-2.928,10.606,0c2.929,2.93,2.929,7.678,0,10.607L245.797,407.022
		C244.333,408.485,242.414,409.218,240.494,409.218z"/>
	<path style="fill:#3A4351;" d="M417.651,89.903c-12.951,12.951-26.632,31.566-37.403,59.91
		c-5.874,15.457-27.956,14.977-32.918-0.796c-12.701-40.372-7.396-78.795,21.623-107.813
		c29.018-29.018,67.441-34.324,107.813-21.623c15.773,4.962,16.253,27.044,0.796,32.918
		C449.218,63.271,430.602,76.952,417.651,89.903z"/>
	<path style="fill:#4E5660;" d="M420.616,168.333c-17.627,0-39.608,3.358-66.228,15.317c-14.517,6.522-29.219-8.833-21.861-22.945
		c18.832-36.119,48.592-58.658,88.089-58.658c39.498,0,69.258,22.539,88.089,58.658c7.357,14.112-7.344,29.466-21.861,22.945
		C460.223,171.691,438.243,168.333,420.616,168.333z"/>
</g>
<g>
</g>
<g>
</g>
<g>
</g>
<g>
</g>
<g>
</g>
<g>
</g>
<g>
</g>
<g>
</g>
<g>
</g>
<g>
</g>
<g>
</g>
<g>
</g>
<g>
</g>
<g>
</g>
<g>
</g>
</svg>
