<?xml version="1.0" encoding="iso-8859-1"?>
<!-- Generator: Adobe Illustrator 23.1.0, SVG Export Plug-In . SVG Version: 6.00 Build 0)  -->
<svg version="1.1" id="Capa_1" xmlns="http://www.w3.org/2000/svg" xmlns:xlink="http://www.w3.org/1999/xlink" x="0px" y="0px"
	 viewBox="0 0 512 512" style="enable-background:new 0 0 512 512;" xml:space="preserve">
<g>
	<path style="fill:#CDE9FA;" d="M512,171.618c0-16.672-9.798-31.055-23.949-37.707c-2.833-1.332-4.518-4.306-4.009-7.395
		c3.851-23.385-14.207-45.498-38.729-45.498c-24.714,0-42.813,22.44-38.648,45.942c0.604,3.408-1.362,6.775-4.667,7.802
		c-31.6,9.819-63.314,8.723-76.021,8.723v56.263c12.708,0,44.421-1.095,76.022,8.723c3.305,1.027,5.27,4.394,4.667,7.802
		c-4.16,23.49,13.921,45.942,38.648,45.942c24.55,0,42.571-22.14,38.729-45.497c-0.508-3.089,1.176-6.064,4.009-7.395
		C502.202,202.673,512,188.29,512,171.618z"/>
	<path style="fill:#A2DDFD;" d="M377.355,140.465c-22.343,3.611-42.018,3.022-51.379,3.022v56.263
		c10.821,0,35.424-0.789,62.003,5.037C379.025,188.838,375.038,164.652,377.355,140.465z"/>
	<path style="fill:#4E5660;" d="M211.863,325.177h-45.512V223.242h71.715v75.731C238.067,313.445,226.335,325.177,211.863,325.177z"
		/>
	<path style="fill:#F6EE86;" d="M205.591,392.606c-15.432-58.198-17.251-123.059-17.251-154.582H57.566
		c0,30.625,1.716,92.715,15.964,149.592c5.267,21.025,24.032,35.856,45.706,35.856h62.489
		C197.865,423.471,209.727,408.206,205.591,392.606z"/>
	<path style="fill:#3A4351;" d="M72.312,448.692l-11.57-11.57c-3.794-3.794-4.242-9.794-1.052-14.109l26.757-36.203
		c3.94-5.33,11.698-5.909,16.384-1.222l21.016,21.016c4.687,4.687,4.108,12.445-1.222,16.384l-36.203,26.757
		C82.106,452.934,76.106,452.486,72.312,448.692z"/>
	<path style="fill:#4E5660;" d="M73.53,387.615c5.267,21.025,24.032,35.855,45.706,35.855h62.489
		c16.14,0,28.002-15.264,23.866-30.865c-1.545-5.827-2.948-11.722-4.232-17.642H70.587C71.505,379.199,72.48,383.422,73.53,387.615z
		"/>
	<path style="fill:#F1D88C;" d="M190.43,295.958c-1.732-23.524-2.09-43.993-2.09-57.935H57.566c0,14.121,0.368,34.938,2.158,58.842
		c16.564,6.766,34.584,10.314,53.256,10.314C145.861,307.18,170.481,302.284,190.43,295.958z"/>
	<path style="fill:#EDA1AB;" d="M131.993,346.529c-4.142,0-7.5-3.357-7.5-7.5v-13.793c0-4.143,3.358-7.5,7.5-7.5
		c4.142,0,7.5,3.357,7.5,7.5v13.793C139.493,343.172,136.135,346.529,131.993,346.529z"/>
	<path style="fill:#F6EE86;" d="M357.451,230.39c0,7.481-6.065,13.546-13.546,13.546h-66.908
		c-54.598,0-74.083,39.168-164.016,39.168C48.91,283.104,0,233.19,0,171.618C0,110.047,48.91,60.133,112.98,60.133
		c89.933,0,109.419,39.168,164.016,39.168h66.908c7.481,0,13.546,6.065,13.546,13.546V230.39z"/>
	<path style="fill:#F1D88C;" d="M87.278,62.917C36.281,74.212,0,118.59,0,171.618c0,61.572,48.91,111.486,112.98,111.486
		c13.786,0,25.91-0.923,36.766-2.482C40.375,251.611,40.98,119.529,87.278,62.917z"/>
	<path style="fill:#9FE6E6;" d="M242.396,147.492h-21.045c-7.513,0-13.604,6.091-13.604,13.604v21.045
		c0,7.513,6.091,13.604,13.604,13.604h21.045c7.513,0,13.604-6.091,13.604-13.604v-21.045
		C256,153.582,249.909,147.492,242.396,147.492z"/>
	<g>
		<path style="fill:#4E5660;" d="M155.751,179.118H71.213c-4.142,0-7.5-3.357-7.5-7.5c0-4.143,3.358-7.5,7.5-7.5h84.539
			c4.142,0,7.5,3.357,7.5,7.5C163.251,175.761,159.894,179.118,155.751,179.118z"/>
		<path style="fill:#4E5660;" d="M139.335,137.269H87.629c-4.142,0-7.5-3.357-7.5-7.5c0-4.143,3.358-7.5,7.5-7.5h51.706
			c4.142,0,7.5,3.357,7.5,7.5C146.835,133.911,143.477,137.269,139.335,137.269z"/>
		<path style="fill:#4E5660;" d="M139.335,220.968H87.629c-4.142,0-7.5-3.357-7.5-7.5c0-4.143,3.358-7.5,7.5-7.5h51.706
			c4.142,0,7.5,3.357,7.5,7.5C146.835,217.61,143.477,220.968,139.335,220.968z"/>
	</g>
	<path style="fill:#4E5660;" d="M343.904,99.3h-26.527v144.636h26.527c7.481,0,13.546-6.065,13.546-13.546V112.847
		C357.451,105.365,351.386,99.3,343.904,99.3z"/>
</g>
<g>
</g>
<g>
</g>
<g>
</g>
<g>
</g>
<g>
</g>
<g>
</g>
<g>
</g>
<g>
</g>
<g>
</g>
<g>
</g>
<g>
</g>
<g>
</g>
<g>
</g>
<g>
</g>
<g>
</g>
</svg>
