<?xml version="1.0" encoding="iso-8859-1"?>
<!-- Generator: Adobe Illustrator 23.1.0, SVG Export Plug-In . SVG Version: 6.00 Build 0)  -->
<svg version="1.1" id="Capa_1" xmlns="http://www.w3.org/2000/svg" xmlns:xlink="http://www.w3.org/1999/xlink" x="0px" y="0px"
	 viewBox="0 0 512 512" style="enable-background:new 0 0 512 512;" xml:space="preserve">
<g>
	<path style="fill:#F6EE86;" d="M342.33,394.926H169.67c-18.314,0-33.676-13.82-35.605-32.033L99.385,35.496
		C97.376,16.528,112.245,0,131.319,0h249.361c19.074,0,33.944,16.528,31.934,35.496l-34.68,327.397
		C376.006,381.105,360.644,394.926,342.33,394.926z"/>
	<path style="fill:#F1D88C;" d="M131.319,0c-19.074,0-33.943,16.528-31.934,35.496l34.68,327.397
		c1.929,18.212,17.291,32.033,35.605,32.033h90.404c-0.091-0.046-0.174-0.091-0.265-0.137
		C163.595,346.111,142.471,124.837,155.059,0H131.319z"/>
	<path style="fill:#A2DDFD;" d="M126.9,295.254l7.165,67.639c1.929,18.212,17.291,32.033,35.605,32.033h172.66
		c18.314,0,33.676-13.82,35.605-32.033l7.165-67.639H126.9z"/>
	<path style="fill:#7ACDF9;" d="M134.065,362.893c1.929,18.212,17.291,32.033,35.605,32.033h90.404
		c-0.091-0.046-0.174-0.091-0.265-0.137c-32.854-16.622-56.951-53.373-73.942-99.535H126.9L134.065,362.893z"/>
	<path style="fill:#A2DDFD;" d="M380.681,0H131.319c-19.074,0-33.943,16.528-31.934,35.496l2.594,24.49h308.042l2.594-24.49
		C414.624,16.528,399.754,0,380.681,0z"/>
	<g>
		<rect x="248.5" style="fill:#7ACDF9;" width="15" height="59.985"/>
		<rect x="164.019" style="fill:#7ACDF9;" width="15" height="59.985"/>
		<rect x="332.981" style="fill:#7ACDF9;" width="15" height="59.985"/>
	</g>
	<path style="fill:#4E5660;" d="M341.568,512H170.432c-18.211,0-32.974-14.763-32.974-32.974v-78.779
		c0-7.744,6.278-14.022,14.022-14.022H360.52c7.744,0,14.022,6.278,14.022,14.022v78.779C374.542,497.237,359.779,512,341.568,512z"
		/>
	<path style="fill:#3A4351;" d="M295.756,461.495c-3.915,0-7.534-2.113-9.424-5.542c-5.893-10.688-17.263-17.931-30.332-17.931
		c-13.068,0-24.439,7.243-30.332,17.931c-1.891,3.429-5.509,5.542-9.425,5.542h-78.785v17.53c0,18.211,14.763,32.974,32.974,32.974
		h171.135c18.211,0,32.974-14.763,32.974-32.974v-17.53H295.756z"/>
	<path style="fill:#4E5660;" d="M302.543,351.341c-89.018,12.056-112.143-63.915-90.817-105.725
		c2.536-4.972,9.704-4.77,12.091,0.276c5.84,12.345,13.937,23.415,21.984,30.699c2.324-11.739,12.963-37.087,33.674-48.43
		c3.748-2.053,8.128,1.241,7.138,5.398c-8.228,34.556-3.856,84.789,19.211,108.603C308.927,345.366,306.964,350.742,302.543,351.341
		z"/>
	<g>
		<g>
			<ellipse style="fill:#EDA1AB;" cx="173.951" cy="162.969" rx="30.274" ry="24.109"/>
			<ellipse style="fill:#EDA1AB;" cx="338.049" cy="162.969" rx="30.274" ry="24.109"/>
			<path style="fill:#4E5660;" d="M280.409,144.445c0-15.085-10.928-16.502-24.409-16.502c-13.48,0-24.409,1.417-24.409,16.502
				c0,15.085,10.928,27.313,24.409,27.313C269.48,171.758,280.409,159.53,280.409,144.445z"/>
		</g>
		<path style="fill:#4E5660;" d="M179.013,141.686c-4.142,0-7.5-3.357-7.5-7.5v-12.362c0-4.142,3.358-7.5,7.5-7.5
			c4.142,0,7.5,3.358,7.5,7.5v12.362C186.513,138.328,183.155,141.686,179.013,141.686z"/>
		<path style="fill:#4E5660;" d="M332.987,141.686c-4.143,0-7.5-3.357-7.5-7.5v-12.362c0-4.142,3.357-7.5,7.5-7.5s7.5,3.358,7.5,7.5
			v12.362C340.487,138.328,337.13,141.686,332.987,141.686z"/>
	</g>
	<path style="fill:#7ACDF9;" d="M131.319,0c-19.074,0-33.943,16.528-31.934,35.496l2.594,24.49h49.85
		c0.272-21.493,1.392-41.765,3.23-59.985H131.319z"/>
</g>
<g>
</g>
<g>
</g>
<g>
</g>
<g>
</g>
<g>
</g>
<g>
</g>
<g>
</g>
<g>
</g>
<g>
</g>
<g>
</g>
<g>
</g>
<g>
</g>
<g>
</g>
<g>
</g>
<g>
</g>
</svg>
