<?xml version="1.0" encoding="iso-8859-1"?>
<!-- Generator: Adobe Illustrator 23.1.0, SVG Export Plug-In . SVG Version: 6.00 Build 0)  -->
<svg version="1.1" id="Capa_1" xmlns="http://www.w3.org/2000/svg" xmlns:xlink="http://www.w3.org/1999/xlink" x="0px" y="0px"
	 viewBox="0 0 512 512" style="enable-background:new 0 0 512 512;" xml:space="preserve">
<g>
	<g>
		<path style="fill:#FBF1CF;" d="M394.805,478.742c17.206,0,30.199-15.692,26.898-32.579
			C406.522,368.503,338.105,309.899,256,309.899S105.478,368.503,90.297,446.163c-3.301,16.887,9.692,32.579,26.898,32.579H394.805z
			"/>
		<path style="fill:#F7DFB7;" d="M216.836,314.475c-63.973,15.196-113.851,66.782-126.539,131.688
			c-3.301,16.887,9.692,32.579,26.898,32.579h135.489h0C218.91,452.332,201.611,357.971,216.836,314.475z"/>
		<rect x="147.514" y="337.423" style="fill:#4E5660;" width="51.671" height="81.965"/>
		
			<rect x="312.815" y="337.423" transform="matrix(-1 -1.224647e-16 1.224647e-16 -1 677.3004 756.812)" style="fill:#4E5660;" width="51.671" height="81.965"/>
		<rect x="147.514" y="419.389" style="fill:#E0B799;" width="216.971" height="59.354"/>
		<path style="fill:#D99A84;" d="M220.339,419.389h-72.825v59.354h105.17C238.695,467.803,227.536,445.202,220.339,419.389z"/>
		<path style="fill:#CB9D82;" d="M0,202.176c0,38.35,32.834,69.439,81.082,69.439c38.35,0,69.439-31.089,69.439-69.439
			c0-38.35-31.089-69.439-69.439-69.439C32.834,132.737,0,163.826,0,202.176z"/>
		<path style="fill:#B7856B;" d="M512,202.176c0,38.35-32.834,69.439-81.082,69.439c-38.35,0-69.439-31.089-69.439-69.439
			c0-38.35,31.089-69.439,69.439-69.439C479.166,132.737,512,163.826,512,202.176z"/>
		<path style="fill:#FFD3BD;" d="M463.254,228.713c0,114.463-92.791,154.179-207.254,154.179S48.746,343.176,48.746,228.713
			S133.5,33.257,256,33.257S463.254,114.25,463.254,228.713z"/>
		<path style="fill:#CB9D82;" d="M463.254,228.713c0,114.463-92.791,154.179-207.254,154.179S48.746,343.176,48.746,228.713
			S133.5,33.257,256,33.257S463.254,114.25,463.254,228.713z"/>
		<path style="fill:#B7856B;" d="M378.556,361.506c-252.885,20.381-277.253-209.652-217.461-309.4
			C91.891,82.44,48.746,147.054,48.746,228.713c0,114.463,92.791,154.179,207.254,154.179
			C301.858,382.892,344.228,376.508,378.556,361.506L378.556,361.506z"/>
		<g>
			<g>
				<ellipse style="fill:#FFFFFF;" cx="137.071" cy="228.471" rx="43.882" ry="34.946"/>
				<ellipse style="fill:#FFFFFF;" cx="374.929" cy="228.471" rx="43.882" ry="34.946"/>
			</g>
			<path style="fill:#4E5660;" d="M162.645,202.331c-4.143,0-7.5-3.357-7.5-7.5v-17.939c0-4.143,3.357-7.5,7.5-7.5
				c4.143,0,7.5,3.357,7.5,7.5v17.939C170.145,198.974,166.788,202.331,162.645,202.331z"/>
			<path style="fill:#4E5660;" d="M349.354,202.331c-4.143,0-7.5-3.357-7.5-7.5v-17.939c0-4.143,3.357-7.5,7.5-7.5
				c4.143,0,7.5,3.357,7.5,7.5v17.939C356.854,198.974,353.497,202.331,349.354,202.331z"/>
		</g>
	</g>
	<path style="fill:#4E5660;" d="M256,33.257c-115.624,0-197.604,72.161-206.446,176.51c17.944,7.89,40.811,7.56,46.321-23.905
		c5.612-32.043,37.261-77.591,79.662-101.447c3.775-2.124,8.02-3.274,12.352-3.274h136.222c4.332,0,8.577,1.15,12.352,3.274
		c42.401,23.856,74.05,69.405,79.662,101.447c5.511,31.465,28.377,31.795,46.321,23.905C453.604,105.418,371.624,33.257,256,33.257z
		"/>
	<path style="fill:#4E5660;" d="M249.48,211.21c3.787,3.159,9.253,3.159,13.04,0c6.333-5.283,14.258-8.707,22.896-9.389
		c12.655-0.998,24.224,3.744,32.379,11.9c13.153,13.154,16.881,46.367,47.985,54.638c7.287,1.938,8.701,11.693,2.301,15.68
		c-28.096,17.505-72.036,25.524-112.082-16.498c-40.046,42.021-83.986,34.003-112.082,16.498c-6.4-3.987-4.986-13.742,2.301-15.68
		c31.104-8.271,34.832-41.485,47.985-54.638c8.155-8.156,19.724-12.897,32.379-11.9C235.222,202.503,243.146,205.927,249.48,211.21z
		"/>
</g>
<g>
</g>
<g>
</g>
<g>
</g>
<g>
</g>
<g>
</g>
<g>
</g>
<g>
</g>
<g>
</g>
<g>
</g>
<g>
</g>
<g>
</g>
<g>
</g>
<g>
</g>
<g>
</g>
<g>
</g>
</svg>
