<?xml version="1.0" encoding="iso-8859-1"?>
<!-- Generator: Adobe Illustrator 23.1.0, SVG Export Plug-In . SVG Version: 6.00 Build 0)  -->
<svg version="1.1" id="Capa_1" xmlns="http://www.w3.org/2000/svg" xmlns:xlink="http://www.w3.org/1999/xlink" x="0px" y="0px"
	 viewBox="0 0 512 512" style="enable-background:new 0 0 512 512;" xml:space="preserve">
<g>
	<path style="fill:#CDE9FA;" d="M192.969,268.326c0-38.627-32.056-69.767-71.016-68.269c-34.644,1.332-63.163,28.999-65.469,63.592
		c-0.95,14.251,2.479,27.637,9.067,38.96c4.254,7.311,3.253,16.433-2.23,22.874c-10.607,12.461-16.819,28.779-16.234,46.557
		c1.169,35.544,30.04,64.593,65.577,65.965c38.965,1.504,71.027-29.638,71.027-68.269c0-12.593-3.412-24.384-9.357-34.511
		c-4.242-7.226-3.027-16.302,2.399-22.687C186.858,300.622,192.969,285.188,192.969,268.326z"/>
	<path style="fill:#A2DDFD;" d="M192.969,268.326c0-38.627-32.056-69.767-71.016-68.269c-5.275,0.203-10.406,1.024-15.326,2.38
		c26.185,26.725,18.724,77.5,10.299,100.44c-1.772,4.827-1.58,10.125,0.512,14.822c10.541,23.662,14.851,85.702-28.273,115.084
		c7.295,3.062,15.212,4.903,23.499,5.223c38.965,1.504,71.027-29.638,71.027-68.269c0-12.507-3.366-24.223-9.236-34.303
		c-4.258-7.311-3.202-16.448,2.277-22.895C186.858,300.622,192.969,285.188,192.969,268.326z"/>
	<circle style="fill:#CDE9FA;" cx="59.842" cy="103.636" r="59.842"/>
	<path style="fill:#A2DDFD;" d="M106.004,141.717c-62.381,14.047-95.658-50.678-73.626-91.244C13.15,60.427,0,80.49,0,103.636
		c0,33.05,26.792,59.842,59.842,59.842C78.424,163.477,95.028,155.007,106.004,141.717z"/>
	
		<ellipse transform="matrix(0.7071 -0.7071 0.7071 0.7071 -52.0329 399.8867)" style="fill:#CDE9FA;" cx="456.689" cy="262.753" rx="55.311" ry="55.311"/>
	<path style="fill:#A2DDFD;" d="M499.356,297.951c-57.658,12.983-88.415-46.841-68.051-84.335
		c-17.772,9.2-29.927,27.743-29.927,49.137c0,30.547,24.764,55.311,55.311,55.311C473.865,318.063,489.211,310.234,499.356,297.951z
		"/>
	<path style="fill:#F6EE86;" d="M283.652,10.461h-55.304c-12.379,0-22.865,9.124-24.577,21.384l-16.092,115.26h136.644
		l-16.092-115.26C306.518,19.585,296.032,10.461,283.652,10.461z"/>
	<path style="fill:#EDA1AB;" d="M315.18,141.816H196.82c-29.329,0-53.104,23.776-53.104,53.104v279.406
		c0,15.029,12.184,27.213,27.213,27.213h170.143c15.029,0,27.213-12.184,27.213-27.213V194.92
		C368.284,165.591,344.509,141.816,315.18,141.816z"/>
	<path style="fill:#E1796E;" d="M185.281,143.087c-23.778,5.271-41.565,26.468-41.565,51.833v279.406
		c0,15.029,12.184,27.213,27.213,27.213h102.11C201.112,432.808,175.576,329.308,185.281,143.087z"/>
	<path style="fill:#FBF1CF;" d="M309.978,393.476H202.022c-11.732,0-21.243-9.511-21.243-21.243V267.31
		c0-11.732,9.511-21.243,21.243-21.243h107.957c11.732,0,21.243,9.511,21.243,21.243v104.923
		C331.221,383.965,321.71,393.476,309.978,393.476z"/>
	<path style="fill:#F7DFB7;" d="M180.779,267.31v104.923c0,11.732,9.51,21.242,21.242,21.242h4.283
		c-12.572-38.095-19.777-83.246-22.131-137.658C182.034,259.132,180.779,263.072,180.779,267.31z"/>
	
		<ellipse transform="matrix(0.7071 -0.7071 0.7071 0.7071 -99.0153 253.0909)" style="fill:#E1796E;" cx="256" cy="246.068" rx="40.175" ry="40.175"/>
	<path style="fill:#F6EE86;" d="M143.716,444.936v29.39c0,15.029,12.184,27.213,27.213,27.213h170.143
		c15.029,0,27.213-12.184,27.213-27.213v-29.39H143.716z"/>
	<path style="fill:#F1D88C;" d="M228.873,444.936h-85.157v29.39c0,15.029,12.184,27.213,27.213,27.213h102.11
		C255.658,484.93,240.994,466.282,228.873,444.936z"/>
	<g>
		<path style="fill:#4E5660;" d="M283.555,330.844h-55.109c-4.143,0-7.5-3.358-7.5-7.5c0-4.143,3.357-7.5,7.5-7.5h55.109
			c4.143,0,7.5,3.357,7.5,7.5C291.055,327.486,287.697,330.844,283.555,330.844z"/>
		<path style="fill:#4E5660;" d="M272.731,362.793h-33.463c-4.143,0-7.5-3.358-7.5-7.5c0-4.143,3.357-7.5,7.5-7.5h33.463
			c4.143,0,7.5,3.357,7.5,7.5C280.231,359.435,276.874,362.793,272.731,362.793z"/>
	</g>
	<circle style="fill:#CDE9FA;" cx="358.409" cy="414.239" r="49.967"/>
	<path style="fill:#A2DDFD;" d="M396.954,446.037c-52.087,11.729-79.873-42.316-61.476-76.187
		c-16.055,8.311-27.035,25.063-27.035,44.39c0,27.596,22.371,49.967,49.967,49.967C373.926,464.206,387.789,457.133,396.954,446.037
		z"/>
	<path style="fill:#F1D88C;" d="M228.348,10.461c-12.379,0-22.865,9.124-24.577,21.384l-4.896,35.064h114.25l-4.896-35.064
		c-1.712-12.26-12.198-21.384-24.577-21.384H228.348z"/>
</g>
<g>
</g>
<g>
</g>
<g>
</g>
<g>
</g>
<g>
</g>
<g>
</g>
<g>
</g>
<g>
</g>
<g>
</g>
<g>
</g>
<g>
</g>
<g>
</g>
<g>
</g>
<g>
</g>
<g>
</g>
</svg>
