<?xml version="1.0" encoding="iso-8859-1"?>
<!-- Generator: Adobe Illustrator 23.1.0, SVG Export Plug-In . SVG Version: 6.00 Build 0)  -->
<svg version="1.1" id="Capa_1" xmlns="http://www.w3.org/2000/svg" xmlns:xlink="http://www.w3.org/1999/xlink" x="0px" y="0px"
	 viewBox="0 0 512 512" style="enable-background:new 0 0 512 512;" xml:space="preserve">
<g>
	<path style="fill:#F6EE86;" d="M267.919,50.402H175.92V24.224C175.92,10.845,186.765,0,200.144,0h43.551
		c13.379,0,24.224,10.845,24.224,24.224V50.402z"/>
	<path style="fill:#EDA1AB;" d="M359.918,50.402h-91.999V24.224C267.919,10.845,278.764,0,292.143,0h43.55
		c13.379,0,24.224,10.845,24.224,24.224V50.402z"/>
	<rect x="267.919" y="30.421" style="fill:#E1796E;" width="91.999" height="19.981"/>
	<path style="fill:#7ACDF9;" d="M445.048,50.402H106.144V512h338.904c25.371,0,45.938-20.567,45.938-45.938V96.34
		C490.986,70.969,470.419,50.402,445.048,50.402z"/>
	<path style="fill:#FBF1CF;" d="M427.527,94.786H79.621v372.83h347.905c12.456,0,22.554-10.098,22.554-22.554V117.34
		C450.08,104.883,439.983,94.786,427.527,94.786z"/>
	<path style="fill:#A2DDFD;" d="M359.918,50.402H91.48c-4.044,0-8.002,0.359-11.859,1.013v459.572
		C83.479,511.641,87.437,512,91.48,512h268.437c25.371,0,45.938-20.567,45.938-45.938V96.34
		C405.856,70.969,385.289,50.402,359.918,50.402z"/>
	<path style="fill:#7ACDF9;" d="M122.889,50.402H91.48c-4.044,0-8.002,0.359-11.859,1.013v459.571
		C83.479,511.641,87.437,512,91.48,512h144.141C115.868,430.908,109.591,180.194,122.889,50.402z"/>
	<path style="fill:#4E5660;" d="M339.799,271.738c-22.676-31.571-79.771-36.915-97.061-22.027
		c-17.289-14.888-74.384-9.544-97.06,22.027c-20.231,28.167,10.803,71.845,55.521,45.898c10.137,14.631,27.61,18.946,41.539,18.946
		c13.929,0,31.402-4.315,41.539-18.946C328.996,343.584,360.03,299.905,339.799,271.738z"/>
	<path style="fill:#4E5660;" d="M242.739,419.514c14.78,25.312,49.791,33.855,79.67,27.57c35.258-7.416,51.685-41.005,38.408-70.277
		c-1.978-4.362-8.341-3.475-9.303,1.217c-4.283,20.889-33.854,24.146-54.143,9.217c-24.036-17.688-38.831-12.501-54.632-5.917
		c-15.801-6.584-30.596-11.771-54.632,5.917c-20.288,14.929-49.86,11.672-54.143-9.217c-0.962-4.692-7.325-5.578-9.303-1.217
		c-13.277,29.272,3.149,62.862,38.408,70.277C192.947,453.369,227.958,444.826,242.739,419.514z"/>
	<path style="fill:#3A4351;" d="M124.661,376.807c-13.277,29.272,3.149,62.862,38.408,70.277c5.122,1.077,10.395,1.708,15.691,1.904
		c-9.574-16.228-17.773-34.098-24.761-53.108c-9.981-1.796-17.965-7.76-20.034-17.856
		C133.002,373.332,126.639,372.445,124.661,376.807z"/>
	<path style="fill:#4E5660;" d="M236.437,121.374c3.66,3.053,8.942,3.053,12.603,0c6.121-5.106,13.779-8.415,22.128-9.074
		c12.231-0.965,23.411,3.618,31.293,11.5c12.712,12.712,16.314,44.812,46.375,52.805c7.042,1.873,8.409,11.3,2.224,15.154
		c-27.154,16.918-69.619,24.667-108.321-15.944c-38.703,40.611-81.168,32.862-108.321,15.944
		c-6.185-3.853-4.819-13.281,2.224-15.154c30.061-7.993,33.663-40.093,46.375-52.805c7.882-7.882,19.062-12.465,31.293-11.5
		C222.658,112.959,230.316,116.268,236.437,121.374z"/>
	<path style="fill:#F6EE86;" d="M79.621,51.415c-33.268,5.641-58.607,34.579-58.607,69.453v320.665
		c0,34.874,25.34,63.812,58.607,69.453V51.415z"/>
	<rect x="175.92" y="30.421" style="fill:#F1D88C;" width="91.999" height="19.981"/>
</g>
<g>
</g>
<g>
</g>
<g>
</g>
<g>
</g>
<g>
</g>
<g>
</g>
<g>
</g>
<g>
</g>
<g>
</g>
<g>
</g>
<g>
</g>
<g>
</g>
<g>
</g>
<g>
</g>
<g>
</g>
</svg>
