<?xml version="1.0" encoding="iso-8859-1"?>
<!-- Generator: Adobe Illustrator 23.1.0, SVG Export Plug-In . SVG Version: 6.00 Build 0)  -->
<svg version="1.1" id="Capa_1" xmlns="http://www.w3.org/2000/svg" xmlns:xlink="http://www.w3.org/1999/xlink" x="0px" y="0px"
	 viewBox="0 0 512 512" style="enable-background:new 0 0 512 512;" xml:space="preserve">
<g>
	<path style="fill:#F6EE86;" d="M422.218,236.511c5.118-24.09,12.05-87.759,57.98-162.859c5.486-8.971,2.312-20.727-6.986-25.64
		C400.925,9.817,324.025,0,256,0S111.075,9.817,38.788,48.012c-9.298,4.913-12.472,16.669-6.986,25.64
		c45.929,75.1,52.862,138.769,57.98,162.859H422.218z"/>
	<path style="fill:#F1D88C;" d="M77.582,179.53c7.008,25.744,9.803,45.701,12.2,56.98h332.436c2.396-11.279,5.191-31.237,12.2-56.98
		H77.582z"/>
	<g>
		<path style="fill:#F1D88C;" d="M256,222.379c-4.142,0-7.5-3.357-7.5-7.5V102.833c0-4.143,3.358-7.5,7.5-7.5
			c4.142,0,7.5,3.357,7.5,7.5v112.046C263.5,219.021,260.142,222.379,256,222.379z"/>
		<path style="fill:#F1D88C;" d="M174.842,222.379c-4.142,0-7.5-3.357-7.5-7.5c0-29.646-12.362-80.308-24.495-100.387
			c-2.143-3.545-1.005-8.156,2.54-10.298c3.546-2.145,8.156-1.004,10.298,2.54c13.453,22.264,26.657,75.831,26.657,108.145
			C182.342,219.021,178.984,222.379,174.842,222.379z"/>
		<path style="fill:#F1D88C;" d="M337.158,222.379c-4.142,0-7.5-3.357-7.5-7.5c0-32.314,13.204-85.881,26.657-108.145
			c2.142-3.545,6.753-4.685,10.298-2.54c3.545,2.142,4.683,6.753,2.54,10.298c-12.133,20.079-24.495,70.741-24.495,100.387
			C344.658,219.021,341.3,222.379,337.158,222.379z"/>
		<path style="fill:#F1D88C;" d="M187.703,93.238c-2.977,0-5.793-1.784-6.966-4.717c-2.821-7.054-11.938-26.174-14.344-30.085
			c-2.171-3.527-1.071-8.147,2.456-10.318c3.529-2.171,8.148-1.069,10.318,2.457c2.999,4.874,12.595,25.118,15.498,32.376
			c1.538,3.846-0.333,8.211-4.179,9.749C189.573,93.065,188.63,93.238,187.703,93.238z"/>
		<path style="fill:#F1D88C;" d="M403.73,122.592c-0.569,0-1.146-0.065-1.724-0.201c-4.032-0.949-6.532-4.986-5.583-9.019
			c1.589-6.751,7.551-22.842,13.282-29.528c2.696-3.146,7.43-3.511,10.576-0.814c3.145,2.696,3.509,7.431,0.813,10.575
			c-3.384,3.948-8.67,17.254-10.069,23.202C410.212,120.262,407.132,122.592,403.73,122.592z"/>
	</g>
	<path style="fill:#E0B799;" d="M323.955,301.15c0,27.64-24.781,41.46-24.781,69.099c0,27.64,21.147,32.566,21.147,90.914
		C320.321,496.686,291.523,512,256,512s-64.321-15.314-64.321-50.837c0-58.348,21.147-63.274,21.147-90.914
		c0-27.64-24.781-41.46-24.781-69.099H323.955z"/>
	<path style="fill:#D99A84;" d="M208.141,349.807h95.717c7.183-15.95,20.097-28.703,20.097-48.658h-135.91
		C188.045,321.105,200.959,333.858,208.141,349.807z"/>
	<path style="fill:#D99A84;" d="M305.966,395.993c-2.209-4.742-4.165-9.183-5.404-14.158c-17.943,10.28-28.57,26.403-31.691,48.231
		c-4.071,28.468,13.253,49.87,37.363,65.956c3.647-3.389,6.699-7.335,9.009-11.887c-15.615-10.205-35.007-27.583-31.524-51.946
		C286.051,415.888,293.286,403.987,305.966,395.993z"/>
	<path style="fill:#D99A84;" d="M225.361,375.182c-4.078,4.683-9.286,7.992-14.939,10.167c-1.899,5.812-4.696,11.132-7.555,17.467
		c12.507-2.004,24.864-7.516,33.806-17.783c19.137-21.973,14.837-55.594,5.658-83.883h-15.823
		C238.482,335.029,238.126,360.525,225.361,375.182z"/>
	<path style="fill:#4E5660;" d="M191.679,461.163C191.679,496.686,220.477,512,256,512s64.321-15.314,64.321-50.837
		c0-7.088-0.314-13.382-0.862-19.029H192.541C191.993,447.781,191.679,454.075,191.679,461.163z"/>
	<path style="fill:#E0B799;" d="M395.622,321.255H116.378c-28.65,0-51.876-23.226-51.876-51.876v-24.687
		c0-16.465,13.348-29.813,29.813-29.813h323.37c16.465,0,29.813,13.348,29.813,29.813v24.687
		C447.498,298.029,424.272,321.255,395.622,321.255z"/>
	<path style="fill:#D99A84;" d="M94.315,214.879c-16.465,0-29.813,13.348-29.813,29.813v24.687c0,28.65,23.226,51.876,51.876,51.876
		h96.71c-26.269-20.192-31.163-63.561-26.214-106.376H94.315z"/>
	<path style="fill:#D99A84;" d="M357.548,272.775c-13.075,14.094-10.775,32.949-7.364,48.48h15.381
		c-3.096-13.278-5.881-28.728,2.979-38.278c12.974-13.986,47.447-13.626,78.796-9.739c0.094-1.275,0.158-2.559,0.158-3.859V258.14
		C401.329,252.582,371.811,257.4,357.548,272.775z"/>
	<path style="fill:#E0B799;" d="M132.221,259.741c-12.414,9.55-35.142,8.14-67.719-4.153v13.791c0,0.721,0.025,1.437,0.054,2.151
		c24.469,8.597,56.371,15.819,76.809,0.102c13.735-10.563,19.721-29.611,17.889-56.753h-15.002
		C146.005,237.175,141.982,252.235,132.221,259.741z"/>
	<g>
		<g>
			<ellipse style="fill:#FFFFFF;" cx="174.042" cy="287.693" rx="30.241" ry="24.082"/>
			<ellipse style="fill:#FFFFFF;" cx="337.958" cy="287.693" rx="30.241" ry="24.082"/>
		</g>
		<path style="fill:#4E5660;" d="M191.667,272.011c-4.142,0-7.5-3.357-7.5-7.5v-12.362c0-4.143,3.358-7.5,7.5-7.5
			c4.142,0,7.5,3.357,7.5,7.5v12.362C199.167,268.653,195.809,272.011,191.667,272.011z"/>
		<path style="fill:#4E5660;" d="M320.333,272.011c-4.142,0-7.5-3.357-7.5-7.5v-12.362c0-4.143,3.358-7.5,7.5-7.5s7.5,3.357,7.5,7.5
			v12.362C327.833,268.653,324.476,272.011,320.333,272.011z"/>
		<path style="fill:#4E5660;" d="M256,279.369c-8.669,0-16.912-3.754-22.615-10.299c-2.721-3.123-2.396-7.86,0.727-10.582
			c3.123-2.721,7.86-2.396,10.582,0.727c2.854,3.275,6.975,5.154,11.307,5.154c4.331,0,8.452-1.879,11.307-5.154
			c2.721-3.123,7.458-3.448,10.582-0.727c3.123,2.722,3.448,7.459,0.727,10.582C272.912,275.615,264.668,279.369,256,279.369z"/>
	</g>
</g>
<g>
</g>
<g>
</g>
<g>
</g>
<g>
</g>
<g>
</g>
<g>
</g>
<g>
</g>
<g>
</g>
<g>
</g>
<g>
</g>
<g>
</g>
<g>
</g>
<g>
</g>
<g>
</g>
<g>
</g>
</svg>
