<?xml version="1.0" encoding="iso-8859-1"?>
<!-- Generator: Adobe Illustrator 23.1.0, SVG Export Plug-In . SVG Version: 6.00 Build 0)  -->
<svg version="1.1" id="Capa_1" xmlns="http://www.w3.org/2000/svg" xmlns:xlink="http://www.w3.org/1999/xlink" x="0px" y="0px"
	 viewBox="0 0 512 512" style="enable-background:new 0 0 512 512;" xml:space="preserve">
<g>
	<path style="fill:#E0B799;" d="M246.234,374.497c5.816,4.213,13.716,4.213,19.532,0c32.363-23.441,97.567-5.716,89.007,46.708
		c-6.489,39.744,10.729,68.572,31.191,86.812c9.137,8.145,23.527,2.778,25.094-9.362c9.857-76.341,74.18-91.064,43.915-177.467
		c-31.61-90.241-171.838-89.518-198.973-68.88c-27.135-20.637-167.363-21.361-198.973,68.88
		c-30.266,86.405,34.061,101.126,43.915,177.472c1.545,11.968,15.772,17.609,24.807,9.611
		c20.587-18.226,37.997-47.137,31.478-87.067C148.667,368.781,213.871,351.056,246.234,374.497z"/>
	<path style="fill:#D99A84;" d="M420.763,274.136C367.207,232.23,277.174,236.205,256,252.309
		c-21.174-16.104-111.206-20.079-164.762,21.826c3.059,5.021,6.7,9.707,10.916,13.949c11.065,11.133,31.274,24.402,64.708,24.402
		c11.126,0,23.213-1.436,34.086-4.524c16.508,9.215,35.681,14.203,55.117,14.203c19.686,0,38.488-4.877,55.022-14.193
		c10.798,3.065,22.872,4.514,34.053,4.514c33.434,0,53.643-13.269,64.707-24.401C414.064,283.843,417.704,279.157,420.763,274.136z"
		/>
	<path style="fill:#D99A84;" d="M110.358,402.141c-3.736,0-6.971-2.788-7.436-6.592c-1.412-11.558-0.374-24.125,2.923-35.388
		c4.046-13.822,11.391-25.262,21.239-33.082c3.242-2.578,7.96-2.035,10.538,1.209c2.576,3.244,2.034,7.962-1.21,10.537
		c-15.937,12.656-20.826,36.695-18.601,54.905c0.502,4.111-2.424,7.852-6.535,8.354
		C110.968,402.122,110.661,402.141,110.358,402.141z"/>
	<path style="fill:#D99A84;" d="M399.254,413.067c-0.799,0-1.611-0.129-2.41-0.399c-3.923-1.33-6.023-5.589-4.693-9.512
		c5.589-16.479,2.907-48.869-16.563-64.331c-3.244-2.576-3.785-7.294-1.209-10.537c2.576-3.243,7.296-3.785,10.537-1.209
		c26.269,20.86,28.322,60.603,21.44,80.896C405.296,411.099,402.379,413.067,399.254,413.067z"/>
	<path style="fill:#FFD3BD;" d="M273.011,233.643c0,30.851,23.658,51.6,57.767,55.86c54.495,6.806,79.133-25.009,79.133-55.86
		c0-39.063-50.698-80.71-76.421-158.399C318.666,30.47,287.851,0,256,0s-62.666,30.47-77.49,75.245
		c-25.722,77.688-76.421,119.335-76.421,158.399c0,30.851,24.638,62.666,79.133,55.86c34.109-4.26,57.767-25.009,57.767-55.86
		H273.011z"/>
	<path style="fill:#FFBE9D;" d="M214.857,259.347c-62.156-10.08-70.815-65.791-60.416-129.739
		c-24.79,45.023-52.352,75.232-52.352,104.035c0,30.851,24.638,62.666,79.133,55.86c21.796-2.722,39.311-12.186,49.126-26.708
		C226.228,261.519,221.11,260.361,214.857,259.347z"/>
	<path style="fill:#FFBE9D;" d="M406.513,253.052c-68.606,14.797-81.94-22.76-95.745-64.177h-61.904v44.769h24.147
		c0,30.851,23.658,51.6,57.767,55.86C373.696,294.863,398.083,276.265,406.513,253.052z"/>
	<ellipse style="fill:#FFD3BD;" cx="256" cy="224.761" rx="83.829" ry="75.349"/>
	<g>
		<path style="fill:#FFBE9D;" d="M220.739,239.882c-1.919,0-3.838-0.732-5.303-2.196c-2.929-2.929-2.929-7.678-0.001-10.606
			l4.447-4.447c2.929-2.93,7.677-2.929,10.607-0.001c2.929,2.929,2.929,7.678,0,10.606l-4.447,4.447
			C224.579,239.149,222.659,239.882,220.739,239.882z"/>
		<path style="fill:#FFBE9D;" d="M245.159,146.817c-1.919,0-3.838-0.732-5.303-2.196l-3.167-3.166
			c-2.929-2.929-2.93-7.678-0.001-10.606c2.929-2.93,7.678-2.929,10.606-0.001l3.167,3.166c2.929,2.929,2.93,7.678,0.001,10.606
			C248.998,146.085,247.078,146.817,245.159,146.817z"/>
		<path style="fill:#FFBE9D;" d="M295.303,219.104c-1.919,0-3.839-0.732-5.304-2.196l-3.167-3.167c-2.929-2.93-2.929-7.678,0-10.607
			c2.93-2.928,7.678-2.928,10.608,0l3.167,3.167c2.929,2.93,2.929,7.678,0,10.607C299.142,218.371,297.222,219.104,295.303,219.104z
			"/>
	</g>
	<path style="fill:#E0B799;" d="M208.386,454.195c0,23.436,20.107,37.889,38.219,52.619c5.472,4.45,13.319,4.45,18.79,0
		c18.111-14.73,38.219-29.183,38.219-52.619c0-22.417-21.318-40.589-47.614-40.589C229.703,413.607,208.386,431.779,208.386,454.195
		z"/>
	<path style="fill:#D99A84;" d="M120.74,454.548c-0.798,0-1.61-0.128-2.408-0.398c-3.915-1.327-6.018-5.571-4.704-9.488
		c0.353-1.184,1.109-7.029-1.546-14.444c-1.397-3.899,0.633-8.192,4.532-9.589c3.901-1.4,8.193,0.633,9.59,4.532
		c4.003,11.179,2.914,20.529,1.639,24.293C126.784,452.578,123.866,454.548,120.74,454.548z"/>
</g>
<g>
</g>
<g>
</g>
<g>
</g>
<g>
</g>
<g>
</g>
<g>
</g>
<g>
</g>
<g>
</g>
<g>
</g>
<g>
</g>
<g>
</g>
<g>
</g>
<g>
</g>
<g>
</g>
<g>
</g>
</svg>
