<?xml version="1.0" encoding="iso-8859-1"?>
<!-- Generator: Adobe Illustrator 23.1.0, SVG Export Plug-In . SVG Version: 6.00 Build 0)  -->
<svg version="1.1" id="Capa_1" xmlns="http://www.w3.org/2000/svg" xmlns:xlink="http://www.w3.org/1999/xlink" x="0px" y="0px"
	 viewBox="0 0 512 512" style="enable-background:new 0 0 512 512;" xml:space="preserve">
<g>
	<path style="fill:#9FE6E6;" d="M151.911,489.335c14.678,14.678,39.27,12.133,50.403-5.388
		c41.847-65.859,92.488-101.015,148.537-133.096c59.79-34.223,113.427-71.944,156.798-146.703
		c7.355-12.678,5.184-28.739-5.18-39.103l-142.38-142.38c-14.678-14.678-39.271-12.133-50.403,5.388
		c-41.847,65.859-92.488,101.015-148.537,133.096c-59.79,34.223-113.426,71.944-156.798,146.703
		c-7.355,12.678-5.184,28.739,5.18,39.103L151.911,489.335z"/>
	<path style="fill:#7CCADC;" d="M202.314,483.947c11.79-18.556,24.279-34.673,37.39-48.973
		c-82.197-63.421-98.032-207.799-85.597-269.755C97.148,198.407,46.012,236.042,4.351,307.852
		c-7.355,12.678-5.184,28.739,5.18,39.103l142.38,142.38C166.589,504.013,191.181,501.468,202.314,483.947z"/>
	<path style="fill:#9FE6E6;" d="M117.442,454.866l34.469,34.469c14.678,14.678,39.271,12.133,50.403-5.388
		c9.315-14.661,19.069-27.792,29.219-39.715C197.046,417.608,147.099,421.609,117.442,454.866z"/>
	<path style="fill:#7CCADC;" d="M394.558,57.134l-34.469-34.469c-14.678-14.678-39.271-12.133-50.403,5.388
		c-9.315,14.661-19.069,27.792-29.219,39.715C314.954,94.392,364.901,90.39,394.558,57.134z"/>
	
		<ellipse transform="matrix(0.7071 -0.7071 0.7071 0.7071 -106.0387 256)" style="fill:#7CCADC;" cx="256" cy="256" rx="83.335" ry="61.525"/>
	<path style="fill:#9FE6E6;" d="M51.925,389.349c37.905-37.905,31.166-101.112-13.938-130.22
		c-11.798,14.368-23.042,30.461-33.669,48.782c-7.342,12.658-5.136,28.695,5.211,39.042L51.925,389.349z"/>
	<path style="fill:#7CCADC;" d="M460.074,122.651c-37.905,37.905-31.166,101.112,13.939,130.22
		c11.798-14.368,23.042-30.461,33.669-48.782c7.342-12.658,5.136-28.695-5.211-39.042L460.074,122.651z"/>
	<circle style="fill:#E0B799;" cx="350.481" cy="367.62" r="98.793"/>
	<path style="fill:#D99A84;" d="M306.003,279.388c-32.219,16.274-54.315,49.671-54.315,88.233c0,54.562,44.231,98.793,98.793,98.793
		c29.346,0,55.698-12.8,73.793-33.115C297.888,430.943,290.028,324.468,306.003,279.388z"/>
	
		<ellipse transform="matrix(0.7071 -0.7071 0.7071 0.7071 -157.2933 355.5011)" style="fill:#F6EE86;" cx="350.481" cy="367.62" rx="64.39" ry="64.39"/>
	<path style="fill:#F1D88C;" d="M300.223,327.391c-8.835,11.023-14.131,25.004-14.131,40.23c0,35.561,28.828,64.39,64.39,64.39
		c9.418,0,18.354-2.039,26.417-5.672C322.213,409.618,302.806,365.882,300.223,327.391z"/>
	<path style="fill:#4E5660;" d="M172.392,97.154c5.67,4.73,13.852,4.73,19.522,0c9.482-7.91,21.345-13.036,34.278-14.056
		c18.947-1.494,36.266,5.605,48.475,17.815c19.692,19.692,25.272,69.417,71.839,81.799c10.909,2.901,13.026,17.505,3.445,23.474
		c-42.063,26.207-107.845,38.212-167.798-24.699c-59.953,62.91-125.735,50.905-167.798,24.699
		c-9.581-5.969-7.464-20.573,3.445-23.474c46.567-12.383,52.147-62.107,71.839-81.799c12.209-12.21,29.529-19.309,48.475-17.815
		C151.047,84.118,162.91,89.244,172.392,97.154z"/>
	<path style="fill:#D99A84;" d="M366.563,375.12h-32.163c-4.143,0-7.5-3.357-7.5-7.5s3.357-7.5,7.5-7.5h32.163
		c4.143,0,7.5,3.357,7.5,7.5S370.705,375.12,366.563,375.12z"/>
	<path style="fill:#7CCADC;" d="M360.221,159.279c-1.919,0-3.839-0.732-5.304-2.196c-2.929-2.93-2.929-7.678,0-10.607l22.046-22.046
		c2.93-2.928,7.678-2.928,10.607,0c2.929,2.93,2.929,7.678,0,10.607l-22.046,22.046C364.06,158.547,362.14,159.279,360.221,159.279z
		"/>
	<path style="fill:#9FE6E6;" d="M129.733,389.767c-1.919,0-3.839-0.732-5.304-2.196c-2.929-2.93-2.929-7.678,0-10.607l22.046-22.046
		c2.93-2.928,7.678-2.928,10.607,0c2.929,2.93,2.929,7.678,0,10.607l-22.046,22.046
		C133.572,389.034,131.652,389.767,129.733,389.767z"/>
</g>
<g>
</g>
<g>
</g>
<g>
</g>
<g>
</g>
<g>
</g>
<g>
</g>
<g>
</g>
<g>
</g>
<g>
</g>
<g>
</g>
<g>
</g>
<g>
</g>
<g>
</g>
<g>
</g>
<g>
</g>
</svg>
