<?xml version="1.0" encoding="iso-8859-1"?>
<!-- Generator: Adobe Illustrator 23.1.0, SVG Export Plug-In . SVG Version: 6.00 Build 0)  -->
<svg version="1.1" id="Capa_1" xmlns="http://www.w3.org/2000/svg" xmlns:xlink="http://www.w3.org/1999/xlink" x="0px" y="0px"
	 viewBox="0 0 512 512" style="enable-background:new 0 0 512 512;" xml:space="preserve">
<g>
	<path style="fill:#E0B799;" d="M503.341,210.682L348.937,56.278c-29.139-29.139-76.383-29.139-105.523,0l-14.329,14.329
		c-12.769,12.769-32.178,16.371-48.552,8.755c-19.799-9.209-39.037-30.812-67.67-59.488C87.339-5.691,45.668-6.713,19.814,18.518
		c-26.223,25.591-26.417,67.597-0.583,93.431c29.609,29.609,51.795,49.196,60.777,69.574c7.094,16.094,3.231,34.931-9.206,47.367
		l-14.388,14.388c-29.139,29.139-29.139,76.383,0,105.522l154.404,154.404c11.545,11.545,30.264,11.545,41.81,0l0,0
		c11.545-11.545,11.545-30.264,0-41.81l-72.838-72.838c-8.435-8.435-8.435-22.11,0-30.545l11.217-11.217
		c8.435-8.435,22.11-8.435,30.545,0l72.838,72.838c11.546,11.545,30.265,11.545,41.81,0l0,0c11.545-11.545,11.545-30.264,0-41.81
		l-72.838-72.838c-8.435-8.435-8.435-22.11,0-30.545l11.216-11.216c8.435-8.435,22.11-8.435,30.545,0l72.838,72.838
		c11.545,11.545,30.264,11.545,41.81,0c11.545-11.545,11.545-30.264,0-41.81l-72.838-72.838c-8.435-8.435-8.435-22.11,0-30.545
		l11.216-11.216c8.435-8.435,22.11-8.435,30.545,0l72.838,72.838c11.545,11.545,30.264,11.545,41.81,0l0,0
		C514.886,240.946,514.886,222.227,503.341,210.682z M80.793,80.656c-8.359,8.359-21.912,8.359-30.271,0
		c-8.359-8.359-8.359-21.912,0-30.271c8.359-8.359,21.912-8.359,30.271,0C89.153,58.745,89.153,72.297,80.793,80.656z"/>
	<path style="fill:#D99A84;" d="M179.791,388.557c-8.435-8.435-8.435-22.11,0-30.545l6.169-6.169
		c-62.851-90.973-66.674-226.035-64.278-323.077c-2.843-2.882-5.775-5.845-8.818-8.893C87.339-5.691,45.668-6.713,19.814,18.518
		c-26.223,25.591-26.417,67.597-0.583,93.431c29.609,29.609,51.795,49.196,60.777,69.574c7.094,16.094,3.231,34.931-9.206,47.367
		l-14.388,14.388c-29.139,29.139-29.139,76.383,0,105.522l154.404,154.404c11.545,11.545,30.264,11.545,41.81,0l0,0
		c11.545-11.545,11.545-30.264,0-41.81L179.791,388.557z M80.793,80.656c-8.359,8.359-21.912,8.359-30.271,0
		c-8.359-8.359-8.359-21.912,0-30.271c8.359-8.359,21.912-8.359,30.271,0C89.153,58.745,89.153,72.297,80.793,80.656z"/>
	<g>
		<path style="fill:#E0B799;" d="M116.669,323.128c4.941-41.459-11.298-75.736-44.164-96.052c-0.55,0.617-1.114,1.225-1.703,1.814
			l-9.164,9.164c30.024,17.046,44.5,46.678,40.136,83.299c-3.392,28.476-6.804,49.055-5.727,67.08l19.047,19.047
			C107.166,385.897,111.903,363.1,116.669,323.128z"/>
		<path style="fill:#D99A84;" d="M193.905,344.388c4.378-3.071,9.63-4.336,14.733-3.778c-1.649-12.351,0.648-27.049,10.041-46.248
			c7.857-16.06,16.573-24.317,25.907-24.543c0.128-0.003,0.256-0.004,0.385-0.004c5.055,0,10.684,2.389,16.515,6.802
			c0.576-0.753,1.188-1.487,1.876-2.176l8.711-8.711c-11.665-9.23-21.507-11.068-27.849-10.907
			c-15.377,0.371-28.506,11.456-39.02,32.946C193.771,311.139,191.493,329.309,193.905,344.388z"/>
		<path style="fill:#D99A84;" d="M103.917,12.369c-4.347-3.056-8.981-5.545-13.798-7.458c-6.692,28.743-2.389,61.06,12.23,88.815
			c12.559,23.843,31.393,40.534,51.674,45.794c36.125,9.372,70.704-10.393,77.086-70.937l-2.024,2.024
			c-4.354,4.354-9.48,7.639-14.994,9.78c-6.626,31.824-24.595,52.837-56.302,44.614c-16.203-4.202-31.572-18.149-42.168-38.265
			C103.549,63.816,99.437,36.529,103.917,12.369z"/>
		<path style="fill:#D99A84;" d="M364.578,71.919L353.879,61.22c-43.235,33.434-45.801,87.76-0.322,123.027
			c3.383-3.024,5.909-7.147,12.3-9.534C324.014,144.878,327.017,99.751,364.578,71.919z"/>
	</g>
	<g>
		<g>
			<path style="fill:#F6EE86;" d="M461.531,252.492c11.545,11.545,30.264,11.545,41.81,0l0,0c11.545-11.545,11.545-30.264,0-41.81
				l-24.508-24.508l-41.81,41.81L461.531,252.492z"/>
			<path style="fill:#F6EE86;" d="M377.961,336.062c11.545,11.545,30.264,11.545,41.81,0c11.545-11.545,11.545-30.264,0-41.81
				l-24.508-24.508l-41.81,41.81L377.961,336.062z"/>
			<path style="fill:#F6EE86;" d="M336.199,419.633L336.199,419.633c11.546-11.546,11.546-30.264,0-41.81l-24.508-24.508
				l-41.81,41.81l24.507,24.508C305.935,431.179,324.654,431.179,336.199,419.633z"/>
			<path style="fill:#F1D88C;" d="M252.628,503.204L252.628,503.204c11.546-11.546,11.546-30.264,0-41.81l-24.508-24.508
				l-41.81,41.81l24.508,24.508C222.364,514.749,241.083,514.749,252.628,503.204z"/>
		</g>
	</g>
	<g>
		<g>
			
				<ellipse transform="matrix(0.7071 -0.7071 0.7071 0.7071 -155.7055 193.6518)" style="fill:#FFFFFF;" cx="155.907" cy="284.78" rx="33.66" ry="26.805"/>
			
				<ellipse transform="matrix(0.7071 -0.7071 0.7071 0.7071 -26.6947 247.0932)" style="fill:#FFFFFF;" cx="284.917" cy="155.77" rx="33.66" ry="26.805"/>
			<path style="fill:#4E5660;" d="M225.038,186.522c-11.859-11.86-21.565-4.382-32.163,6.216
				c-10.598,10.598-18.075,20.304-6.216,32.163c11.859,11.859,30.065,12.882,40.663,2.283S236.898,198.381,225.038,186.522z"/>
		</g>
		<path style="fill:#4E5660;" d="M137.257,265.672c-1.919,0-3.839-0.732-5.304-2.196l-9.719-9.719c-2.929-2.93-2.929-7.678,0-10.607
			c2.93-2.928,7.678-2.928,10.607,0l9.719,9.719c2.929,2.93,2.929,7.678,0,10.607C141.096,264.94,139.176,265.672,137.257,265.672z"
			/>
		<path style="fill:#4E5660;" d="M258.31,144.619c-1.919,0-3.839-0.732-5.304-2.196l-9.719-9.719c-2.929-2.93-2.929-7.678,0-10.607
			c2.93-2.928,7.678-2.928,10.607,0l9.719,9.719c2.929,2.93,2.929,7.678,0,10.607C262.148,143.887,260.229,144.619,258.31,144.619z"
			/>
	</g>
	<path style="fill:#4E5660;" d="M112.864,19.873C87.339-5.691,45.668-6.713,19.814,18.518
		c-26.223,25.591-26.417,67.597-0.583,93.431c16.978,16.978,31.508,30.658,42.515,43.084l93.424-93.423
		C142.934,50.771,129.482,36.517,112.864,19.873z M80.793,80.656c-8.359,8.359-21.912,8.359-30.271,0
		c-8.359-8.359-8.359-21.912,0-30.271c8.359-8.359,21.912-8.359,30.271,0C89.153,58.745,89.153,72.297,80.793,80.656z"/>
	<path style="fill:#3A4351;" d="M121.682,28.765c-2.842-2.881-5.776-5.845-8.818-8.892C87.339-5.691,45.668-6.713,19.814,18.518
		c-26.223,25.591-26.417,67.597-0.583,93.431c16.978,16.978,31.508,30.658,42.515,43.084l59.768-59.768
		C120.947,71.899,121.171,49.466,121.682,28.765z M80.793,80.656c-8.359,8.359-21.912,8.359-30.271,0
		c-8.359-8.359-8.359-21.912,0-30.271c8.359-8.359,21.912-8.359,30.271,0C89.153,58.745,89.153,72.297,80.793,80.656z"/>
</g>
<g>
</g>
<g>
</g>
<g>
</g>
<g>
</g>
<g>
</g>
<g>
</g>
<g>
</g>
<g>
</g>
<g>
</g>
<g>
</g>
<g>
</g>
<g>
</g>
<g>
</g>
<g>
</g>
<g>
</g>
</svg>
