<?xml version="1.0" encoding="iso-8859-1"?>
<!-- Generator: Adobe Illustrator 23.1.0, SVG Export Plug-In . SVG Version: 6.00 Build 0)  -->
<svg version="1.1" id="Capa_1" xmlns="http://www.w3.org/2000/svg" xmlns:xlink="http://www.w3.org/1999/xlink" x="0px" y="0px"
	 viewBox="0 0 512 512" style="enable-background:new 0 0 512 512;" xml:space="preserve">
<g>
	<path style="fill:#FBF1CF;" d="M308.087,75.203c-1.884-22.198-36.057-59.356-74.446-67.547c-6.3-1.344-12.524,2.713-13.902,9.006
		c-8.688,39.656-95.473,47.109-82.377,110.849l170.725-2.039V75.203z"/>
	<path style="fill:#F7DFB7;" d="M339.793,142.486c14.558-31.795-8.842-62.837-31.706-67.283
		c-19.9,55.769-238.914-4.735-180.507,128.453l211.61,1.821L339.793,142.486z"/>
	<path style="fill:#FBF1CF;" d="M111.07,279.72c-53.662-129.317,172.483-76.534,228.723-137.234
		c28.151,28.151,56.306,66.858,21.116,137.234H111.07z"/>
	<path style="fill:#F7DFB7;" d="M461.362,373.916c-30.021-11.322-91.381-9.09-119.609-9.09V304.86
		c28.228,0,89.588,2.232,119.609-9.09V373.916z"/>
	<path style="fill:#FBF1CF;" d="M425.113,334.843c0,46.853,27.018,51.538,48.319,51.538S512,363.307,512,334.843
		c0-28.464-17.267-51.538-38.568-51.538S425.113,287.99,425.113,334.843z"/>
	<path style="fill:#FBF1CF;" d="M394.968,230.269c-17.361,68.311-19.924,142.911-20.103,199.317
		c-0.084,26.315-21.471,47.583-47.786,47.583H157.416c-26.315,0-47.702-21.268-47.786-47.583
		c-0.179-56.407-2.742-131.007-20.103-199.317c-4.874-19.18,9.837-37.771,29.627-37.771h246.188
		C385.131,192.499,399.842,211.09,394.968,230.269z"/>
	<path style="fill:#F7DFB7;" d="M119.154,192.499c-19.789,0-34.501,18.591-29.627,37.771
		c17.36,68.311,19.924,142.911,20.103,199.317c0.084,26.315,21.471,47.583,47.786,47.583h86.4
		c-75.167-64.215-79.966-212.705-73.012-284.671H119.154z"/>
	<path style="fill:#9FE6E6;" d="M365.341,192.499H119.154c-19.789,0-34.501,18.591-29.627,37.771
		c2.618,10.303,4.895,20.751,6.883,31.256h291.676c1.988-10.505,4.264-20.953,6.883-31.256
		C399.842,211.09,385.131,192.499,365.341,192.499z"/>
	<g>
		<g>
			<ellipse style="fill:#EDA1AB;" cx="156.16" cy="352.091" rx="31.765" ry="25.296"/>
			<ellipse style="fill:#EDA1AB;" cx="328.335" cy="352.091" rx="31.765" ry="25.296"/>
		</g>
		<path style="fill:#4E5660;" d="M174.672,334.929c-4.142,0-7.5-3.357-7.5-7.5v-12.361c0-4.143,3.358-7.5,7.5-7.5
			c4.142,0,7.5,3.357,7.5,7.5v12.361C182.172,331.571,178.814,334.929,174.672,334.929z"/>
		<path style="fill:#4E5660;" d="M242.248,342.971c-8.995,0-17.549-3.897-23.47-10.689c-2.721-3.123-2.396-7.86,0.727-10.582
			c3.123-2.721,7.86-2.396,10.582,0.727c3.071,3.523,7.503,5.545,12.162,5.545s9.091-2.022,12.162-5.545
			c2.722-3.123,7.459-3.447,10.582-0.727c3.123,2.722,3.448,7.459,0.727,10.582C259.797,339.074,251.243,342.971,242.248,342.971z"
			/>
		<path style="fill:#4E5660;" d="M326.535,334.584c-4.142,0-7.5-3.357-7.5-7.5c0-3.764-3.062-6.825-6.826-6.825
			c-3.764,0-6.826,3.061-6.826,6.825c0,4.143-3.358,7.5-7.5,7.5s-7.5-3.357-7.5-7.5c0-12.034,9.791-21.825,21.826-21.825
			c12.035,0,21.826,9.791,21.826,21.825C334.035,331.227,330.677,334.584,326.535,334.584z"/>
	</g>
	<path style="fill:#CDE9FA;" d="M395.908,453.432v-35.256c0-6.275-5.087-11.362-11.362-11.362h-231.61v94.269h195.322
		C374.574,501.082,395.908,479.748,395.908,453.432z"/>
	<path style="fill:#A2DDFD;" d="M152.935,446.401h242.972v7.03c0,26.316-21.334,47.65-47.65,47.65H152.935V446.401z"/>
	<path style="fill:#A2DDFD;" d="M152.936,501.082h55.82l5.174-5.175c23.088-23.088,23.093-60.46,0-83.552l-5.542-5.542h-55.452
		V501.082z"/>
	<path style="fill:#7ACDF9;" d="M152.935,501.082h55.82l5.174-5.175c12.865-12.865,19.218-30.824,16.79-49.506h-77.785
		L152.935,501.082z"/>
	<path style="fill:#E0B799;" d="M16.661,296.24L16.661,296.24c-22.215,22.215-22.215,58.232,0,80.446L133.13,493.155
		c15.262,15.262,40.006,15.262,55.268,0l11.39-11.39c15.262-15.262,15.262-40.006,0-55.268l-21.029-21.029
		c-12.411-12.411-23.636-25.954-33.528-40.452l-41.359-60.614C83.78,274.956,41.867,271.034,16.661,296.24z"/>
	<path style="fill:#D99A84;" d="M69.495,281.01c-18.246-4.127-38.311,0.707-52.834,15.23h0c-22.215,22.215-22.215,58.232,0,80.446
		l69.827,69.827C59.617,401.783,58.952,328.658,69.495,281.01z"/>
	<path style="fill:#D99A84;" d="M206.364,473.021c2.518-4.556,4.059-9.505,4.62-14.545c-35.665-3.587-59.377-17.45-70.563-41.297
		c-9.949-21.21-7.707-45.944-2.235-62.488l-10.128-14.844c-9.631,19.984-14.65,55.065-1.217,83.702
		C142.633,457.214,176.311,469.355,206.364,473.021z"/>
	<path style="fill:#E0B799;" d="M24.685,384.71l11.46,11.46c10.051-24.406,24.718-52.453,13.388-78.828
		c-4.584-10.672-12.929-19.771-25.267-27.497c-2.663,1.872-5.21,4.001-7.605,6.395h0c-1.362,1.362-2.638,2.777-3.833,4.237
		c11.617,6.537,19.177,14.068,22.923,22.786C43.858,342.136,32.926,365.331,24.685,384.71z"/>
	<path style="fill:#7CCADC;" d="M170.804,192.499h-51.65c-19.789,0-34.501,18.591-29.627,37.771
		c2.618,10.303,4.895,20.751,6.883,31.256h72.387C167.974,235.208,168.991,211.26,170.804,192.499z"/>
</g>
<g>
</g>
<g>
</g>
<g>
</g>
<g>
</g>
<g>
</g>
<g>
</g>
<g>
</g>
<g>
</g>
<g>
</g>
<g>
</g>
<g>
</g>
<g>
</g>
<g>
</g>
<g>
</g>
<g>
</g>
</svg>
