<?xml version="1.0" encoding="iso-8859-1"?>
<!-- Generator: Adobe Illustrator 23.1.0, SVG Export Plug-In . SVG Version: 6.00 Build 0)  -->
<svg version="1.1" id="Capa_1" xmlns="http://www.w3.org/2000/svg" xmlns:xlink="http://www.w3.org/1999/xlink" x="0px" y="0px"
	 viewBox="0 0 512 512" style="enable-background:new 0 0 512 512;" xml:space="preserve">
<g>
	<path style="fill:#EDA1AB;" d="M195.619,302.51c-23.989,7.63-82.094,56.755-144.356,64.921c-13.4,1.757-26.478-5.466-32.195-17.711
		C8.845,327.825,0,291.778,0,256s8.845-71.825,19.068-93.719c5.717-12.245,18.795-19.469,32.195-17.712
		c62.262,8.165,120.367,57.291,144.356,64.921V302.51z"/>
	<path style="fill:#E1796E;" d="M125.028,341.704c31.137-16.288,56.639-34.756,70.591-39.194v-93.02
		c-10.302-3.277-26.907-14.209-47.419-26.26C154.136,222.609,157.292,289.837,125.028,341.704z"/>
	<path style="fill:#E1796E;" d="M172.152,263.5H81.131c-4.142,0-7.5-3.357-7.5-7.5c0-4.143,3.358-7.5,7.5-7.5h91.021
		c4.142,0,7.5,3.357,7.5,7.5C179.652,260.143,176.294,263.5,172.152,263.5z"/>
	<path style="fill:#EDA1AB;" d="M316.381,302.51c23.989,7.63,82.094,56.755,144.356,64.921c13.4,1.757,26.478-5.466,32.195-17.711
		C503.155,327.825,512,291.778,512,256s-8.845-71.825-19.068-93.719c-5.717-12.245-18.796-19.469-32.195-17.712
		c-62.262,8.165-120.367,57.291-144.356,64.921V302.51z"/>
	<path style="fill:#E1796E;" d="M386.972,341.704c-31.137-16.288-56.639-34.756-70.591-39.194v-93.02
		c10.302-3.277,26.907-14.209,47.418-26.26C357.864,222.609,354.708,289.837,386.972,341.704z"/>
	<path style="fill:#E1796E;" d="M430.869,263.5h-91.021c-4.142,0-7.5-3.357-7.5-7.5c0-4.143,3.358-7.5,7.5-7.5h91.021
		c4.142,0,7.5,3.357,7.5,7.5C438.369,260.143,435.011,263.5,430.869,263.5z"/>
	<path style="fill:#FBF1CF;" d="M339.848,211.558c0-6.144-3.451-11.791-8.961-14.508c-18.929-9.331-46.685-14.933-74.887-14.933
		s-55.958,5.602-74.887,14.933c-5.51,2.716-8.961,8.364-8.961,14.508v83.1c0,6.143,3.451,11.791,8.961,14.508
		c18.929,9.331,46.685,14.933,74.887,14.933s55.958-5.602,74.887-14.933c5.51-2.716,8.961-8.364,8.961-14.508V211.558z"/>
	<g>
		<path style="fill:#EDA1AB;" d="M248.5,182.266c-12.837,0.451-25.422,2.03-36.959,4.576v132.534
			c11.537,2.546,24.122,4.124,36.959,4.576V182.266z"/>
		<path style="fill:#EDA1AB;" d="M263.5,182.266v141.686c12.836-0.451,25.422-2.03,36.959-4.576V186.841
			C288.922,184.295,276.336,182.717,263.5,182.266z"/>
	</g>
</g>
<g>
</g>
<g>
</g>
<g>
</g>
<g>
</g>
<g>
</g>
<g>
</g>
<g>
</g>
<g>
</g>
<g>
</g>
<g>
</g>
<g>
</g>
<g>
</g>
<g>
</g>
<g>
</g>
<g>
</g>
</svg>
