<?xml version="1.0" encoding="iso-8859-1"?>
<!-- Generator: Adobe Illustrator 23.1.0, SVG Export Plug-In . SVG Version: 6.00 Build 0)  -->
<svg version="1.1" id="Capa_1" xmlns="http://www.w3.org/2000/svg" xmlns:xlink="http://www.w3.org/1999/xlink" x="0px" y="0px"
	 viewBox="0 0 512 512" style="enable-background:new 0 0 512 512;" xml:space="preserve">
<g>
	<path style="fill:#E0B799;" d="M434.55,164.075l-59.781-24.735v113.182c0,23.975-19.62,44.052-43.591,43.593
		c-19.501-0.373-35.806-13.802-40.537-31.91c-1.67-6.392-7.46-10.839-14.067-10.839h-41.15c-6.607,0-12.397,4.447-14.067,10.839
		c-4.731,18.108-21.036,31.537-40.537,31.91c-23.97,0.459-43.59-19.618-43.59-43.593V139.34L77.45,164.075
		C33.791,199.633,0,279.5,0,334.055c0,30.179,22.802,55.771,54.419,64.826c7.364,31.212,39.508,54.71,78.049,54.71
		c19.929,0,38.133-6.297,52.1-16.679c15.227,23.296,41.523,38.701,71.431,38.701c29.908,0,56.203-15.405,71.431-38.701
		c13.967,10.383,32.172,16.679,52.1,16.679c38.542,0,70.685-23.497,78.05-54.71C489.198,389.826,512,364.234,512,334.055
		C512,279.5,478.209,199.633,434.55,164.075z"/>
	<g>
		<path style="fill:#D99A84;" d="M470.578,206.238c-10.687-16.794-22.911-31.48-36.028-42.163l-59.781-24.735v88.416
			c6.674,1.003,13.457,1.537,20.291,1.537C422.673,229.293,449.013,221.179,470.578,206.238z"/>
		<path style="fill:#D99A84;" d="M116.939,229.293c6.834,0,13.618-0.533,20.292-1.537V139.34l-59.78,24.735
			c-13.117,10.683-25.342,25.369-36.029,42.164C62.987,221.179,89.326,229.293,116.939,229.293z"/>
	</g>
	<g>
		<path style="fill:#D99A84;" d="M94.382,341.145c-10.16,0-19.938-4.018-27.161-11.242c-7.848-7.847-11.913-18.71-11.15-29.804
			c0.284-4.132,3.874-7.239,7.997-6.968c4.132,0.284,7.252,3.864,6.968,7.997c-0.465,6.765,2.011,13.387,6.792,18.168
			c4.782,4.781,11.404,7.267,18.17,6.793c4.133-0.282,7.712,2.835,7.996,6.969c0.284,4.133-2.837,7.712-6.969,7.996
			C96.142,341.114,95.261,341.145,94.382,341.145z"/>
		<path style="fill:#D99A84;" d="M195.642,384.634c-11.099,0-21.654-4.807-28.959-13.188c-2.721-3.123-2.396-7.86,0.727-10.582
			c3.123-2.721,7.86-2.396,10.582,0.727c4.455,5.112,10.888,8.044,17.65,8.044c6.762,0,13.196-2.932,17.651-8.044
			c2.722-3.123,7.459-3.448,10.581-0.727c3.123,2.722,3.448,7.46,0.726,10.582C217.295,379.827,206.74,384.634,195.642,384.634z"/>
		<path style="fill:#D99A84;" d="M326.978,362.855c-11.1,0-21.655-4.808-28.959-13.189c-2.722-3.123-2.396-7.86,0.727-10.582
			c3.122-2.721,7.86-2.395,10.582,0.727c4.455,5.112,10.888,8.044,17.65,8.044c6.762,0,13.195-2.932,17.65-8.044
			c2.722-3.123,7.46-3.448,10.582-0.727c3.123,2.722,3.447,7.46,0.727,10.582C348.632,358.049,338.077,362.855,326.978,362.855z"/>
		<path style="fill:#D99A84;" d="M415.827,337.428c-0.879,0-1.759-0.03-2.642-0.091c-4.133-0.284-7.253-3.864-6.969-7.996
			c0.284-4.132,3.872-7.237,7.996-6.969c6.772,0.468,13.388-2.011,18.169-6.793c4.782-4.781,7.258-11.403,6.793-18.169
			c-0.284-4.132,2.836-7.712,6.969-7.996c4.133-0.273,7.713,2.836,7.996,6.969c0.762,11.092-3.303,21.955-11.15,29.804
			C435.765,333.409,425.986,337.428,415.827,337.428z"/>
	</g>
	<path style="fill:#E0B799;" d="M395.061,36.387c-57.012,0-85.097,14.053-127.91,29.197c-7.215,2.552-15.086,2.552-22.301,0
		c-42.813-15.144-70.898-29.197-127.91-29.197c-51.449,0-93.158,36.265-93.158,81s41.708,81,93.158,81
		c25.026,0,47.745-8.582,64.482-22.544c2.549-2.127,6.255-2.153,8.829-0.057c17.204,14.011,40.317,22.6,65.749,22.6
		s48.545-8.589,65.749-22.6c2.574-2.097,6.28-2.07,8.829,0.056c16.737,13.962,39.456,22.544,64.482,22.544
		c51.449,0,93.158-36.265,93.158-81S446.51,36.387,395.061,36.387z"/>
	<path style="fill:#D99A84;" d="M127.002,36.542c-3.256-0.1-6.604-0.154-10.063-0.154c-51.449,0-93.158,36.265-93.158,81
		s41.708,81,93.158,81c22.437,0,43.016-6.903,59.096-18.392C99.909,170.997,97.742,70.56,127.002,36.542z"/>
	<g>
		<g>
			<ellipse style="fill:#FFFFFF;" cx="175.258" cy="141.967" rx="29.792" ry="23.725"/>
			<ellipse style="fill:#FFFFFF;" cx="336.742" cy="141.967" rx="29.792" ry="23.725"/>
		</g>
		<path style="fill:#4E5660;" d="M206.801,123.649c-4.142,0-7.5-3.357-7.5-7.5c0-3.684-2.997-6.681-6.681-6.681
			c-3.684,0-6.68,2.997-6.68,6.681c0,4.143-3.358,7.5-7.5,7.5c-4.142,0-7.5-3.357-7.5-7.5c0-11.955,9.726-21.681,21.68-21.681
			c11.955,0,21.681,9.725,21.681,21.681C214.301,120.292,210.943,123.649,206.801,123.649z"/>
		<path style="fill:#4E5660;" d="M333.56,123.649c-4.143,0-7.5-3.357-7.5-7.5c0-3.684-2.997-6.681-6.681-6.681
			s-6.68,2.997-6.68,6.681c0,4.143-3.357,7.5-7.5,7.5c-4.143,0-7.5-3.357-7.5-7.5c0-11.955,9.726-21.681,21.68-21.681
			c11.955,0,21.681,9.725,21.681,21.681C341.06,120.292,337.702,123.649,333.56,123.649z"/>
		<path style="fill:#4E5660;" d="M256,147.076c-7.934,0-15.477-3.436-20.697-9.426c-2.721-3.123-2.395-7.86,0.728-10.581
			c3.124-2.722,7.86-2.396,10.582,0.728c2.37,2.72,5.791,4.279,9.387,4.279c3.596,0,7.018-1.56,9.388-4.279
			c2.721-3.124,7.459-3.448,10.581-0.728c3.123,2.721,3.449,7.458,0.728,10.581C271.477,143.641,263.934,147.076,256,147.076z"/>
	</g>
</g>
<g>
</g>
<g>
</g>
<g>
</g>
<g>
</g>
<g>
</g>
<g>
</g>
<g>
</g>
<g>
</g>
<g>
</g>
<g>
</g>
<g>
</g>
<g>
</g>
<g>
</g>
<g>
</g>
<g>
</g>
</svg>
