<?xml version="1.0" encoding="iso-8859-1"?>
<!-- Generator: Adobe Illustrator 23.1.0, SVG Export Plug-In . SVG Version: 6.00 Build 0)  -->
<svg version="1.1" id="Capa_1" xmlns="http://www.w3.org/2000/svg" xmlns:xlink="http://www.w3.org/1999/xlink" x="0px" y="0px"
	 viewBox="0 0 512 512" style="enable-background:new 0 0 512 512;" xml:space="preserve">
<g>
	<circle style="fill:#E0B799;" cx="256" cy="268.513" r="214.378"/>
	<path style="fill:#D99A84;" d="M386.582,438.525C116.362,401.79,105.652,191.839,156.178,78.762
		C88.064,114.67,41.622,186.162,41.622,268.513c0,118.398,95.98,214.378,214.378,214.378
		C305.147,482.891,350.422,466.34,386.582,438.525z"/>
	<path style="fill:#D99A84;" d="M465.476,222.799c-13.212-60.822-52.231-112.007-105.023-141.522
		c-8.829,14.425-13.921,31.385-13.921,49.536c0,52.48,42.544,95.024,95.024,95.024C449.818,225.837,457.834,224.781,465.476,222.799
		z"/>
	
		<ellipse transform="matrix(0.7071 -0.7071 0.7071 0.7071 -114.8865 259.6649)" style="fill:#FFFFFF;" cx="256" cy="268.513" rx="162.505" ry="162.505"/>
	<path style="fill:#FBF1CF;" d="M93.495,268.513c0,89.749,72.756,162.505,162.505,162.505c19.06,0,37.349-3.292,54.343-9.321
		c-149.382-47.838-186.915-163.61-176.126-260.764C108.88,189.591,93.495,227.253,93.495,268.513z"/>
	<path style="fill:#D99A84;" d="M126.832,169.89c29.695-38.833,76.506-63.882,129.168-63.882l-18.321-75.234
		c-82.63-16.082-100.93,59.391-148.068,59.391L126.832,169.89z"/>
	<circle style="fill:#E0B799;" cx="70.444" cy="130.813" r="70.444"/>
	<circle style="fill:#F6EE86;" cx="70.444" cy="130.813" r="29.175"/>
	<path style="fill:#D99A84;" d="M385.168,169.89c-29.695-38.833-76.506-63.882-129.168-63.882l18.321-75.234
		c82.63-16.082,100.93,59.391,148.068,59.391L385.168,169.89z"/>
	<circle style="fill:#E0B799;" cx="441.556" cy="130.813" r="70.444"/>
	<circle style="fill:#F6EE86;" cx="441.556" cy="130.813" r="29.175"/>
	<ellipse style="fill:#F6EE86;" cx="256" cy="73.297" rx="40.375" ry="55.015"/>
	<path style="fill:#F6EE86;" d="M264.969,408.342h-17.938c-9.143,0-16.872,6.771-18.074,15.834l-6.492,48.91
		c-1.45,10.927,7.052,20.632,18.074,20.632h30.922c11.023,0,19.525-9.705,18.074-20.632l-6.492-48.91
		C281.841,415.113,274.112,408.342,264.969,408.342z"/>
	<path style="fill:#4E5660;" d="M239.162,285.351l-63.418-63.418c-9.298-9.299-9.298-24.377,0-33.676
		c9.299-9.299,24.377-9.299,33.676,0l63.418,63.418c9.298,9.299,9.298,24.377,0,33.676
		C263.541,294.649,248.461,294.651,239.162,285.351z"/>
	<path style="fill:#EDA1AB;" d="M239.163,285.351c-9.299-9.299-9.3-24.376-0.001-33.675l40.374-40.375
		c9.299-9.299,24.376-9.3,33.675-0.001s9.3,24.376,0.001,33.675l-40.374,40.376C263.539,294.649,248.463,294.651,239.163,285.351z"
		/>
	<g>
		<path style="fill:#4E5660;" d="M256,152.939c-4.143,0-7.5-3.357-7.5-7.5v-7.873c0-4.143,3.357-7.5,7.5-7.5
			c4.143,0,7.5,3.357,7.5,7.5v7.873C263.5,149.582,260.143,152.939,256,152.939z"/>
		<path style="fill:#4E5660;" d="M132.927,276.013h-7.873c-4.143,0-7.5-3.357-7.5-7.5s3.357-7.5,7.5-7.5h7.873
			c4.143,0,7.5,3.357,7.5,7.5S137.069,276.013,132.927,276.013z"/>
		<path style="fill:#4E5660;" d="M256,406.959c-4.143,0-7.5-3.357-7.5-7.5v-7.873c0-4.143,3.357-7.5,7.5-7.5
			c4.143,0,7.5,3.357,7.5,7.5v7.873C263.5,403.602,260.143,406.959,256,406.959z"/>
		<path style="fill:#4E5660;" d="M386.946,276.013h-7.873c-4.143,0-7.5-3.357-7.5-7.5s3.357-7.5,7.5-7.5h7.873
			c4.143,0,7.5,3.357,7.5,7.5S391.089,276.013,386.946,276.013z"/>
	</g>
</g>
<g>
</g>
<g>
</g>
<g>
</g>
<g>
</g>
<g>
</g>
<g>
</g>
<g>
</g>
<g>
</g>
<g>
</g>
<g>
</g>
<g>
</g>
<g>
</g>
<g>
</g>
<g>
</g>
<g>
</g>
</svg>
