<?xml version="1.0" encoding="iso-8859-1"?>
<!-- Generator: Adobe Illustrator 23.1.0, SVG Export Plug-In . SVG Version: 6.00 Build 0)  -->
<svg version="1.1" id="Capa_1" xmlns="http://www.w3.org/2000/svg" xmlns:xlink="http://www.w3.org/1999/xlink" x="0px" y="0px"
	 viewBox="0 0 512 512" style="enable-background:new 0 0 512 512;" xml:space="preserve">
<g>
	<rect x="65.351" y="137.03" style="fill:#E0B799;" width="159.198" height="49.276"/>
	<path style="fill:#D99A84;" d="M114.215,186.306h110.334V137.03h-86.82C127.963,152.277,120.029,168.808,114.215,186.306z"/>
	<rect x="65.351" y="325.694" style="fill:#E0B799;" width="159.198" height="49.276"/>
	<path style="fill:#D99A84;" d="M137.729,374.97h86.82v-49.275H114.215C120.029,343.192,127.963,359.723,137.729,374.97z"/>
	<path style="fill:#3A4351;" d="M21.788,433.27l17.281-8.625c16.105-8.038,26.281-24.49,26.281-42.489V129.844
		c0-17.999-10.176-34.452-26.281-42.489L21.788,78.73C11.774,73.732,0,81.015,0,92.207v327.587
		C0,430.985,11.774,438.268,21.788,433.27z"/>
	<circle style="fill:#4E5660;" cx="323.856" cy="256" r="188.144"/>
	<path style="fill:#3A4351;" d="M473.234,370.38C250.424,405.383,179.007,161.454,240.657,87.22
		C178.482,117.927,135.712,181.964,135.712,256c0,103.909,84.235,188.144,188.144,188.144
		C384.733,444.144,438.846,415.223,473.234,370.38z"/>
	<circle style="fill:#FBF1CF;" cx="323.856" cy="256" r="145.81"/>
	<path style="fill:#F7DFB7;" d="M239.275,137.217c-37.062,26.438-61.229,69.787-61.229,118.783
		c0,80.529,65.281,145.81,145.81,145.81c38.464,0,73.442-14.901,99.497-39.236C292.454,347.405,233.118,222.681,239.275,137.217z"/>
	<path style="fill:#A2DDFD;" d="M320.246,110.235c-77.661,1.887-140.268,64.494-142.155,142.155L320.246,110.235z"/>
	<path style="fill:#7ACDF9;" d="M178.092,252.391l64.553-64.553c-3.396-17.588-4.51-34.776-3.37-50.614
		C203.127,163.01,179.246,204.881,178.092,252.391z"/>
	<path style="fill:#EDA1AB;" d="M469.621,259.609L327.465,401.764C405.126,399.878,467.733,337.27,469.621,259.609z"/>
	<path style="fill:#E1796E;" d="M377.299,351.931l-49.834,49.834c37.04-0.9,70.649-15.62,95.886-39.19
		C406.87,360.664,391.524,357.018,377.299,351.931z"/>
	<g>
		<g>
			<ellipse style="fill:#EDA1AB;" cx="237.135" cy="257.951" rx="31.998" ry="25.482"/>
			<ellipse style="fill:#EDA1AB;" cx="410.577" cy="257.951" rx="31.998" ry="25.482"/>
		</g>
		<path style="fill:#4E5660;" d="M255.784,240.922c-4.143,0-7.5-3.357-7.5-7.5v-13.081c0-4.143,3.357-7.5,7.5-7.5s7.5,3.357,7.5,7.5
			v13.081C263.284,237.564,259.927,240.922,255.784,240.922z"/>
		<path style="fill:#4E5660;" d="M391.929,240.922c-4.143,0-7.5-3.357-7.5-7.5v-13.081c0-4.143,3.357-7.5,7.5-7.5
			c4.143,0,7.5,3.357,7.5,7.5v13.081C399.429,237.564,396.071,240.922,391.929,240.922z"/>
	</g>
	<path style="fill:#4E5660;" d="M318.459,259.218c3.135,2.615,7.66,2.615,10.795,0c5.243-4.374,11.803-7.208,18.954-7.772
		c10.476-0.826,20.053,3.099,26.804,9.851c10.889,10.889,13.974,38.383,39.723,45.23c6.032,1.604,7.202,9.679,1.905,12.98
		c-23.258,14.491-59.632,21.129-92.783-13.657c-33.151,34.786-69.524,28.148-92.783,13.657c-5.298-3.301-4.127-11.376,1.905-12.98
		c25.749-6.847,28.834-34.342,39.723-45.23c6.751-6.751,16.328-10.677,26.804-9.851C306.656,252.01,313.216,254.845,318.459,259.218
		z"/>
</g>
<g>
</g>
<g>
</g>
<g>
</g>
<g>
</g>
<g>
</g>
<g>
</g>
<g>
</g>
<g>
</g>
<g>
</g>
<g>
</g>
<g>
</g>
<g>
</g>
<g>
</g>
<g>
</g>
<g>
</g>
</svg>
