<?xml version="1.0" encoding="iso-8859-1"?>
<!-- Generator: Adobe Illustrator 23.1.0, SVG Export Plug-In . SVG Version: 6.00 Build 0)  -->
<svg version="1.1" id="Capa_1" xmlns="http://www.w3.org/2000/svg" xmlns:xlink="http://www.w3.org/1999/xlink" x="0px" y="0px"
	 viewBox="0 0 512 512" style="enable-background:new 0 0 512 512;" xml:space="preserve">
<g>
	<path style="fill:#E0B799;" d="M189.072,368.152C17.709,391.36-26.806,245.113,14.247,164.627
		c4.882-9.572,18.68-9.182,23.275,0.531c11.242,23.765,26.829,45.076,42.319,59.096c4.475-22.597,24.955-71.393,64.824-93.23
		c7.215-3.952,15.646,2.388,13.74,10.391c-15.84,66.521-7.423,163.223,36.982,209.065
		C201.362,356.65,197.584,366.999,189.072,368.152z"/>
	<path style="fill:#D99A84;" d="M195.387,350.48c-12.024-12.413-21.404-28.561-28.384-46.823
		c-5.697,2.314-10.929,5.763-15.408,10.242l-49.881,49.88c24.34,6.905,53.348,8.979,87.358,4.373
		C197.584,367,201.362,356.65,195.387,350.48z"/>
	<path style="fill:#F1D88C;" d="M301.09,315.463c-23.573,10.339-45.255,25.43-72.771,52.947l-32.344-32.344
		c27.517-27.516,42.608-49.198,52.947-72.771L301.09,315.463z"/>
	<path style="fill:#4E5660;" d="M228.633,368.725l-32.973-32.973c-6.133-6.133-16.078-6.133-22.211,0l-60.85,60.85
		c-10.438,10.438-10.438,27.361,0,37.798l17.386,17.386c10.438,10.438,27.361,10.438,37.798,0l60.85-60.85
		C234.767,384.803,234.767,374.858,228.633,368.725z"/>
	
		<rect x="159.219" y="358.644" transform="matrix(0.7071 -0.7071 0.7071 0.7071 -232.3612 234.3622)" style="fill:#F6EE86;" width="15" height="78.043"/>
	<path style="fill:#3A4351;" d="M249.544,230.215c-1.919,0-3.839-0.732-5.303-2.197l-25.189-25.189
		c-2.929-2.929-2.929-7.678,0-10.606c2.929-2.928,7.678-2.929,10.607,0.001l25.188,25.189c2.929,2.929,2.929,7.678,0,10.606
		C253.383,229.482,251.463,230.215,249.544,230.215z"/>
	<path style="fill:#3A4351;" d="M305.179,174.58c-1.919,0-3.839-0.732-5.303-2.196l-25.189-25.188c-2.929-2.93-2.929-7.678,0-10.607
		c2.929-2.928,7.678-2.928,10.607,0l25.189,25.188c2.929,2.93,2.929,7.678,0,10.607C309.018,173.848,307.098,174.58,305.179,174.58z
		"/>
	<path style="fill:#3A4351;" d="M360.812,118.946c-1.919,0-3.839-0.732-5.303-2.196l-25.189-25.188
		c-2.929-2.93-2.929-7.678,0-10.607c2.929-2.928,7.678-2.928,10.606,0l25.188,25.189c2.929,2.93,2.929,7.678,0,10.607
		C364.651,118.214,362.732,118.946,360.812,118.946z"/>
	<circle style="fill:#F6EE86;" cx="210.325" cy="183.495" r="19.842"/>
	<circle style="fill:#F6EE86;" cx="265.959" cy="127.861" r="19.842"/>
	<circle style="fill:#F6EE86;" cx="321.593" cy="72.227" r="19.842"/>
	<path style="fill:#3A4351;" d="M366.859,347.529c-1.919,0-3.839-0.732-5.303-2.196l-25.189-25.189
		c-2.929-2.93-2.929-7.678,0-10.607c2.929-2.928,7.678-2.928,10.606,0l25.189,25.189c2.929,2.93,2.929,7.678,0,10.607
		C370.698,346.797,368.779,347.529,366.859,347.529z"/>
	<path style="fill:#3A4351;" d="M422.493,291.895c-1.919,0-3.839-0.732-5.303-2.196l-25.188-25.189
		c-2.929-2.93-2.929-7.678,0-10.607c2.929-2.928,7.678-2.928,10.606,0l25.189,25.188c2.929,2.93,2.929,7.678,0,10.607
		C426.332,291.163,424.413,291.895,422.493,291.895z"/>
	<path style="fill:#3A4351;" d="M478.127,236.262c-1.919,0-3.839-0.732-5.303-2.196l-25.189-25.189
		c-2.929-2.93-2.929-7.678,0-10.607c2.929-2.928,7.678-2.928,10.606,0l25.189,25.189c2.929,2.93,2.929,7.678,0,10.607
		C481.966,235.529,480.046,236.262,478.127,236.262z"/>
	<circle style="fill:#F6EE86;" cx="380.89" cy="354.06" r="19.842"/>
	<circle style="fill:#F6EE86;" cx="436.524" cy="298.426" r="19.842"/>
	<circle style="fill:#F6EE86;" cx="492.158" cy="242.792" r="19.842"/>
	<path style="fill:#4E5660;" d="M474.323,148.37l-58.307-58.308c-9.339-9.339-24.48-9.339-33.819,0L228.16,244.099
		c-9.339,9.339-9.339,24.48,0,33.819l58.307,58.307c9.339,9.339,24.48,9.339,33.819,0l154.036-154.036
		C483.662,172.85,483.662,157.709,474.323,148.37z"/>
	<path style="fill:#3A4351;" d="M295.001,177.258l-66.841,66.841c-9.339,9.339-9.339,24.48,0,33.819l58.307,58.308
		c9.339,9.339,24.48,9.339,33.819,0l28.993-28.993C316.186,284.878,291.611,233.602,295.001,177.258z"/>
	<circle style="fill:#F6EE86;" cx="295.608" cy="268.777" r="19.842"/>
	<circle style="fill:#F6EE86;" cx="351.242" cy="213.144" r="19.842"/>
	<circle style="fill:#F6EE86;" cx="406.876" cy="157.51" r="19.842"/>
	<g>
		<path style="fill:#D99A84;" d="M103.29,331.679c-1,0-2.017-0.201-2.992-0.626c-20.997-9.149-45.074-35.919-50.055-51.416
			c-1.268-3.943,0.901-8.167,4.845-9.436c3.941-1.269,8.167,0.901,9.436,4.846c3.388,10.538,24.311,34.647,41.767,42.254
			c3.797,1.655,5.534,6.074,3.879,9.872C108.94,329.994,106.184,331.679,103.29,331.679z"/>
		<path style="fill:#D99A84;" d="M116.935,266.262c-3.571,0-6.735-2.559-7.377-6.197c-1.611-9.129-2.43-31.827,0.006-45.238
			c0.74-4.076,4.643-6.781,8.72-6.038c4.076,0.74,6.779,4.645,6.039,8.72c-2.182,12.007-1.223,32.984,0.006,39.949
			c0.72,4.079-2.003,7.97-6.082,8.69C117.807,266.225,117.368,266.262,116.935,266.262z"/>
	</g>
</g>
<g>
</g>
<g>
</g>
<g>
</g>
<g>
</g>
<g>
</g>
<g>
</g>
<g>
</g>
<g>
</g>
<g>
</g>
<g>
</g>
<g>
</g>
<g>
</g>
<g>
</g>
<g>
</g>
<g>
</g>
</svg>
