<?xml version="1.0" encoding="iso-8859-1"?>
<!-- Generator: Adobe Illustrator 23.1.0, SVG Export Plug-In . SVG Version: 6.00 Build 0)  -->
<svg version="1.1" id="Capa_1" xmlns="http://www.w3.org/2000/svg" xmlns:xlink="http://www.w3.org/1999/xlink" x="0px" y="0px"
	 viewBox="0 0 512 512" style="enable-background:new 0 0 512 512;" xml:space="preserve">
<g>
	<path style="fill:#FBF1CF;" d="M328.773,36.651c-4.632,1.265-9.538-0.609-12.131-4.65C304.292,12.754,282.704,0,258.137,0
		s-46.155,12.754-58.505,32.002c-2.593,4.041-7.499,5.915-12.131,4.65c-39.521-10.793-80.54,18.783-80.54,61.697
		c0,33.698,26.165,61.465,59.436,63.715c5.629,0.381,10.598,3.798,12.767,9.007l36.436,87.479l37.796-83.515
		c1.845-4.076,7.634-4.076,9.479,0l37.796,83.515l36.436-87.478c2.169-5.208,7.138-8.626,12.767-9.006
		c33.298-2.249,59.437-30.047,59.437-63.716C409.313,55.423,368.287,25.861,328.773,36.651z"/>
	<path style="fill:#F7DFB7;" d="M237.292,210.622c-10.131-20.567-17.4-47.92-21.463-67.688c-1.483-7.214-7.497-12.5-14.811-13.374
		c-40.679-4.863-51.631-68.912-25.988-95c-35.225-2.326-68.068,25.389-68.068,63.79c0,33.758,26.259,61.565,59.616,63.727
		c5.565,0.361,10.444,3.847,12.588,8.995l36.436,87.479L237.292,210.622z"/>
	<path style="fill:#A2DDFD;" d="M318.601,219.791H197.674c-9.27,0-16.786,7.515-16.786,16.786v41.953h154.498v-41.953
		C335.387,227.306,327.871,219.791,318.601,219.791z"/>
	<g>
		<path style="fill:#7ACDF9;" d="M258.137,286.029c-4.142,0-7.5-3.357-7.5-7.5v-24.218c0-4.143,3.358-7.5,7.5-7.5
			c4.142,0,7.5,3.357,7.5,7.5v24.218C265.637,282.672,262.279,286.029,258.137,286.029z"/>
		<path style="fill:#7ACDF9;" d="M219.152,286.029c-4.142,0-7.5-3.357-7.5-7.5v-24.218c0-4.143,3.358-7.5,7.5-7.5
			c4.142,0,7.5,3.357,7.5,7.5v24.218C226.652,282.672,223.294,286.029,219.152,286.029z"/>
		<path style="fill:#7ACDF9;" d="M297.122,286.029c-4.142,0-7.5-3.357-7.5-7.5v-24.218c0-4.143,3.358-7.5,7.5-7.5s7.5,3.357,7.5,7.5
			v24.218C304.622,282.672,301.264,286.029,297.122,286.029z"/>
	</g>
	<path style="fill:#CDE9FA;" d="M337.953,494.492H178.322c-13.406,0-24.274-10.868-24.274-24.274V302.804
		c0-13.406,10.868-24.274,24.274-24.274h159.631c13.406,0,24.274,10.868,24.274,24.274v167.414
		C362.227,483.624,351.359,494.492,337.953,494.492z"/>
	<path style="fill:#A2DDFD;" d="M206.486,278.529h-28.164c-13.406,0-24.274,10.868-24.274,24.274v167.414
		c0,13.406,10.868,24.274,24.274,24.274h67.194C214.464,458.173,198.713,369.533,206.486,278.529z"/>
	<path style="fill:#A2DDFD;" d="M154.048,454.66v15.558c0,13.406,10.868,24.274,24.274,24.274h159.631
		c13.406,0,24.274-10.868,24.274-24.274V454.66H154.048z"/>
	<path style="fill:#7ACDF9;" d="M154.048,454.66v15.558c0,13.406,10.868,24.274,24.274,24.274h67.194
		c-8.375-9.796-15.634-23.404-21.622-39.832H154.048z"/>
	<circle style="fill:#EDA1AB;" cx="258.137" cy="347.044" r="22.78"/>
	<path style="fill:#FFFFFF;" d="M280.918,414.042h-45.561c-4.142,0-7.5-3.357-7.5-7.5c0-4.143,3.358-7.5,7.5-7.5h45.561
		c4.142,0,7.5,3.357,7.5,7.5C288.418,410.685,285.06,414.042,280.918,414.042z"/>
	<path style="fill:#FBF1CF;" d="M378.261,405.562c23.66,0,54.386,41.419,71.374,73.673c5.237,9.944,0.08,22.249-10.688,25.466
		c-15.039,4.494-35.189,7.299-60.686,7.299s-45.647-2.805-60.686-7.299c-10.768-3.217-15.925-15.522-10.688-25.466
		C323.874,446.981,354.601,405.562,378.261,405.562z"/>
	<path style="fill:#F7DFB7;" d="M351.288,418.991c-16.794,14.859-33.452,39.454-44.401,60.244
		c-5.237,9.944-0.08,22.249,10.688,25.466c15.039,4.494,35.189,7.299,60.686,7.299c5.475,0,10.687-0.137,15.671-0.384
		C350.822,499.028,335.779,450.774,351.288,418.991z"/>
	<g>
		<g>
			<ellipse style="fill:#EDA1AB;" cx="173.024" cy="122.065" rx="31.765" ry="25.296"/>
			<ellipse style="fill:#EDA1AB;" cx="345.199" cy="122.065" rx="31.765" ry="25.296"/>
		</g>
		<path style="fill:#4E5660;" d="M191.536,104.903c-4.142,0-7.5-3.357-7.5-7.5V85.041c0-4.143,3.358-7.5,7.5-7.5
			c4.142,0,7.5,3.357,7.5,7.5v12.362C199.036,101.546,195.678,104.903,191.536,104.903z"/>
		<path style="fill:#4E5660;" d="M259.111,112.944c-8.996,0-17.55-3.896-23.47-10.688c-2.721-3.123-2.396-7.86,0.727-10.582
			c3.123-2.721,7.859-2.396,10.582,0.727c3.07,3.523,7.503,5.544,12.162,5.544c4.659,0,9.091-2.021,12.162-5.544
			c2.722-3.123,7.459-3.447,10.582-0.727c3.122,2.722,3.448,7.459,0.727,10.582C276.661,109.049,268.107,112.944,259.111,112.944z"
			/>
		<path style="fill:#4E5660;" d="M343.399,104.559c-4.142,0-7.5-3.357-7.5-7.5c0-3.764-3.062-6.826-6.826-6.826
			c-3.764,0-6.826,3.063-6.826,6.826c0,4.143-3.358,7.5-7.5,7.5s-7.5-3.357-7.5-7.5c0-12.035,9.791-21.826,21.826-21.826
			c12.035,0,21.826,9.791,21.826,21.826C350.899,101.201,347.541,104.559,343.399,104.559z"/>
	</g>
	<g>
		
			<ellipse transform="matrix(0.9734 -0.229 0.229 0.9734 -95.4655 94.7643)" style="fill:#F7DFB7;" cx="360.644" cy="458.781" rx="7.988" ry="7.988"/>
		
			<ellipse transform="matrix(0.7071 -0.7071 0.7071 0.7071 -219.4277 425.3153)" style="fill:#F7DFB7;" cx="403.687" cy="477.53" rx="7.988" ry="7.988"/>
	</g>
	<circle style="fill:#F7DFB7;" cx="53.524" cy="36.894" r="25.214"/>
	
		<ellipse transform="matrix(0.7071 -0.7071 0.7071 0.7071 -118.4176 135.0205)" style="fill:#FBF1CF;" cx="103.775" cy="210.453" rx="21.27" ry="21.27"/>
	<circle style="fill:#FBF1CF;" cx="458.476" cy="25.214" r="25.214"/>
</g>
<g>
</g>
<g>
</g>
<g>
</g>
<g>
</g>
<g>
</g>
<g>
</g>
<g>
</g>
<g>
</g>
<g>
</g>
<g>
</g>
<g>
</g>
<g>
</g>
<g>
</g>
<g>
</g>
<g>
</g>
</svg>
