<?xml version="1.0" encoding="iso-8859-1"?>
<!-- Generator: Adobe Illustrator 23.1.0, SVG Export Plug-In . SVG Version: 6.00 Build 0)  -->
<svg version="1.1" id="Capa_1" xmlns="http://www.w3.org/2000/svg" xmlns:xlink="http://www.w3.org/1999/xlink" x="0px" y="0px"
	 viewBox="0 0 512 512" style="enable-background:new 0 0 512 512;" xml:space="preserve">
<g>
	<path style="fill:#FBF1CF;" d="M338.42,153.903c-3.145-37.068-67.422-73.121-133.177-82.184
		c-12.242-1.687-23.855,5.953-27.141,17.866C161.574,149.51,27.35,136.022,49.228,242.507l289.192-3.454V153.903z"/>
	<path style="fill:#F7DFB7;" d="M392.127,267.874c24.66-53.857-14.977-106.44-53.707-113.971
		c-33.708,94.468-404.697-8.02-305.761,217.588l358.447,3.084L392.127,267.874z"/>
	<path style="fill:#CDE9FA;" d="M0.038,284.426c4.576,72.151,34.803,117.383,86.236,144.642
		c14.505,7.688,30.771,11.446,47.187,11.446h158.322c16.417,0,32.682-3.758,47.187-11.446
		c51.433-27.259,81.66-72.491,86.236-144.642c0.682-10.748-7.965-19.799-18.734-19.799H18.772
		C8.003,264.627-0.644,273.678,0.038,284.426z"/>
	<path style="fill:#A2DDFD;" d="M18.772,264.627c-10.769,0-19.416,9.051-18.734,19.799c4.576,72.151,34.803,117.383,86.236,144.642
		c14.505,7.688,30.771,11.446,47.187,11.446h57.333c-45.42-23.896-70.246-94.19-60.868-175.887H18.772z"/>
	<path style="fill:#A2DDFD;" d="M406.473,264.627H18.772c-10.769,0-19.416,9.051-18.734,19.799
		c0.592,9.336,1.623,18.212,3.064,26.667h419.042c1.441-8.454,2.472-17.331,3.064-26.667
		C425.889,273.678,417.243,264.627,406.473,264.627z"/>
	<path style="fill:#7ACDF9;" d="M129.926,264.627H18.772c-10.769,0-19.416,9.051-18.734,19.799
		c0.592,9.336,1.623,18.212,3.064,26.667h125.149C127.563,296.217,128.088,280.642,129.926,264.627z"/>
	<path style="fill:#F6EE86;" d="M429.457,229.69c34.851,13.621,48.036,33.445,76.41,42.669c5.021,1.632,7.486,7.245,5.377,12.085
		c-6.216,14.269-20.648,32.362-30.978,42.692c-10.33,10.33-28.423,24.762-42.692,30.978c-4.841,2.109-10.453-0.355-12.086-5.377
		c-9.224-28.374-29.048-41.559-42.669-76.41L429.457,229.69z"/>
	<path style="fill:#F1D88C;" d="M443.431,308.579c-2.749,0-5.396-1.517-6.711-4.143c-7.017-14.003-16.409-26.648-29.559-39.798
		c-2.929-2.93-2.929-7.678,0-10.607c2.93-2.928,7.678-2.928,10.607,0c14.32,14.321,24.604,28.202,32.361,43.686
		c1.855,3.703,0.358,8.209-3.346,10.064C445.706,308.322,444.56,308.579,443.431,308.579z"/>
	<path style="fill:#E0B799;" d="M439.457,247.569l-38.759,38.759c-5.91,5.91-15.584,5.602-21.105-0.673l-83.132-94.473
		c-9.164-10.415-8.662-26.157,1.147-35.966l10.738-10.738c9.809-9.809,25.552-10.311,35.966-1.147l94.473,83.132
		C445.059,231.985,445.368,241.658,439.457,247.569z"/>
	<path style="fill:#D99A84;" d="M330.856,137.071c-7.992-1.198-16.402,1.298-22.511,7.407l-10.738,10.738
		c-9.809,9.809-10.311,25.551-1.147,35.966l49.079,55.774C328.717,211.666,326.031,158.338,330.856,137.071z"/>
	<path style="fill:#D99A84;" d="M404.327,282.699l12.315-12.315c-5.105-16.722-13.531-27.538-25.164-32.193
		c-12.895-5.162-28.557-2.49-46.689,7.912l10.18,11.568c10.17-5.382,21.83-9.196,30.936-5.554
		C394.635,255.611,400.821,265.898,404.327,282.699z"/>
	<path style="fill:#D99A84;" d="M420.978,210.794l-14.184-12.481c-24.024,3.849-42.12,0.525-52.898-9.884
		c-4.074-3.935-15.858-18.115-12.032-46.986c-4.363-3.016-9.403-4.548-14.463-4.636c-3.952,25.761,1.808,48.632,16.074,62.411
		C363.317,218.383,394.069,217.027,420.978,210.794z"/>
	<path style="fill:#4E5660;" d="M297.608,155.216c-9.809,9.809-10.312,25.551-1.147,35.966l16.84,19.138l50.148-50.148
		l-19.138-16.84c-10.414-9.164-26.157-8.662-35.966,1.147L297.608,155.216z"/>
	<path style="fill:#3A4351;" d="M330.856,137.071c-7.992-1.198-16.402,1.298-22.511,7.407l-10.738,10.738
		c-9.809,9.809-10.312,25.551-1.147,35.966l16.841,19.138l17.5-17.5C327.823,170.095,328.206,148.751,330.856,137.071z"/>
	<g>
		<g>
			<ellipse style="fill:#FFFFFF;" cx="130.574" cy="390.815" rx="30.274" ry="24.109"/>
			<ellipse style="fill:#FFFFFF;" cx="294.671" cy="390.815" rx="30.274" ry="24.109"/>
			<path style="fill:#4E5660;" d="M237.031,372.291c0-15.085-10.928-16.502-24.409-16.502c-13.48,0-24.408,1.417-24.408,16.502
				c0,15.085,10.928,27.313,24.408,27.313C226.103,399.604,237.031,387.376,237.031,372.291z"/>
		</g>
		<path style="fill:#4E5660;" d="M135.635,369.531c-4.142,0-7.5-3.358-7.5-7.5V349.67c0-4.143,3.358-7.5,7.5-7.5
			c4.142,0,7.5,3.357,7.5,7.5v12.361C143.135,366.174,139.777,369.531,135.635,369.531z"/>
		<path style="fill:#4E5660;" d="M289.61,369.531c-4.143,0-7.5-3.358-7.5-7.5V349.67c0-4.143,3.357-7.5,7.5-7.5
			c4.142,0,7.5,3.357,7.5,7.5v12.361C297.11,366.174,293.753,369.531,289.61,369.531z"/>
	</g>
</g>
<g>
</g>
<g>
</g>
<g>
</g>
<g>
</g>
<g>
</g>
<g>
</g>
<g>
</g>
<g>
</g>
<g>
</g>
<g>
</g>
<g>
</g>
<g>
</g>
<g>
</g>
<g>
</g>
<g>
</g>
</svg>
