<?xml version="1.0" encoding="iso-8859-1"?>
<!-- Generator: Adobe Illustrator 23.1.0, SVG Export Plug-In . SVG Version: 6.00 Build 0)  -->
<svg version="1.1" id="Capa_1" xmlns="http://www.w3.org/2000/svg" xmlns:xlink="http://www.w3.org/1999/xlink" x="0px" y="0px"
	 viewBox="0 0 512 512" style="enable-background:new 0 0 512 512;" xml:space="preserve">
<g>
	<path style="fill:#9FE6E6;" d="M394.805,497.912c17.206,0,30.199-15.692,26.898-32.579
		C406.522,387.673,338.105,329.069,256,329.069S105.478,387.673,90.297,465.333c-3.301,16.887,9.692,32.579,26.898,32.579H394.805z"
		/>
	<polygon style="fill:#FFFFFF;" points="331.047,354.383 331.047,408.885 295.299,454.488 256,497.912 216.702,454.488 
		180.954,408.885 180.954,354.383 	"/>
	<path style="fill:#7CCADC;" d="M199.224,338.863c-55.39,19.775-97.429,67.653-108.927,126.47
		c-3.301,16.887,9.692,32.579,26.898,32.579h115.155C197.34,470.535,180.949,379.924,199.224,338.863z"/>
	<path style="fill:#FBF1CF;" d="M256,497.912c-7.939-23.207-40.363-87.746-80.837-128.559l-25.465,59.882
		c-3.489,8.204,0.59,17.661,8.96,20.733C188.187,460.807,241.973,482.749,256,497.912z"/>
	<path style="fill:#FBF1CF;" d="M256,497.912c7.939-23.207,40.363-87.746,80.837-128.559l25.465,59.882
		c3.489,8.204-0.59,17.661-8.96,20.733C323.814,460.807,270.028,482.749,256,497.912z"/>
	<path style="fill:#FFD3BD;" d="M0,221.345c0,38.35,32.834,69.439,81.082,69.439c38.35,0,69.439-31.089,69.439-69.439
		c0-38.35-31.089-69.439-69.439-69.439C32.834,151.906,0,182.995,0,221.345z"/>
	<path style="fill:#FFBE9D;" d="M512,221.345c0,38.35-32.834,69.439-81.082,69.439c-38.35,0-69.439-31.089-69.439-69.439
		c0-38.35,31.089-69.439,69.439-69.439C479.166,151.906,512,182.995,512,221.345z"/>
	<path style="fill:#FFD3BD;" d="M463.254,247.883c0,114.463-92.791,154.179-207.254,154.179S48.746,362.346,48.746,247.883
		S133.5,40.629,256,40.629S463.254,133.42,463.254,247.883z"/>
	<path style="fill:#FFBE9D;" d="M170.531,57.523c-74.697,31.79-121.784,105.05-121.784,190.36
		c0,114.463,92.791,154.179,207.254,154.179c45.858,0,88.228-6.384,122.556-21.386C113.208,402.061,99.456,147.743,170.531,57.523z"
		/>
	<g>
		<g>
			<ellipse style="fill:#EDA1AB;" cx="137.071" cy="247.641" rx="43.882" ry="34.946"/>
			<ellipse style="fill:#EDA1AB;" cx="374.929" cy="247.641" rx="43.882" ry="34.946"/>
		</g>
		<path style="fill:#4E5660;" d="M162.645,221.501c-4.143,0-7.5-3.357-7.5-7.5v-17.939c0-4.143,3.357-7.5,7.5-7.5
			c4.143,0,7.5,3.357,7.5,7.5v17.939C170.145,218.144,166.788,221.501,162.645,221.501z"/>
		<path style="fill:#4E5660;" d="M349.354,221.501c-4.143,0-7.5-3.357-7.5-7.5v-17.939c0-4.143,3.357-7.5,7.5-7.5
			c4.143,0,7.5,3.357,7.5,7.5v17.939C356.854,218.144,353.497,221.501,349.354,221.501z"/>
	</g>
	<path style="fill:#4E5660;" d="M263.633,27.548c116.169-49.991,202.381,50.174,207.679,121.961
		c1.259,17.058-19.25,26.582-31.509,14.653C388.71,114.446,315.646,76.501,265.1,102.507c-5.726,2.946-12.474,2.946-18.2,0
		c-50.546-26.006-123.61,11.938-174.703,61.655c-12.258,11.928-32.767,2.404-31.509-14.653
		c5.297-71.786,91.509-171.952,207.678-121.961C253.234,29.642,258.766,29.642,263.633,27.548z"/>
	<g>
		<path style="fill:#3A4351;" d="M129.612,78.67c-2.317,0-4.604-1.071-6.071-3.09c-2.437-3.35-1.695-8.041,1.654-10.477
			c8.725-6.345,32.48-21.004,64.631-20.403c4.141,0.082,7.433,3.505,7.352,7.646c-0.081,4.091-3.423,7.353-7.496,7.353
			c-0.05,0-0.1,0-0.15-0.001c-0.576-0.012-1.15-0.018-1.721-0.018c-26.724,0-46.451,12.215-53.793,17.554
			C132.686,78.203,131.143,78.67,129.612,78.67z"/>
		<path style="fill:#3A4351;" d="M412.27,103.339c-2.034,0-4.06-0.822-5.54-2.442c-9.011-9.868-29.568-23.952-37.705-27.568
			c-3.785-1.682-5.49-6.114-3.808-9.899c1.682-3.785,6.114-5.491,9.899-3.808c9.425,4.189,32.003,19.456,42.689,31.16
			c2.793,3.06,2.578,7.803-0.48,10.596C415.887,102.69,414.075,103.339,412.27,103.339z"/>
	</g>
	<path style="fill:#4E5660;" d="M256,297.949c72.847,73.196,144.736,16.982,147.147-34.611c0.293-6.28-6.557-10.515-11.96-7.3
		c-38.966,23.19-89.63-43.525-135.188-14.575c-45.558-28.95-96.222,37.765-135.188,14.575c-5.402-3.215-12.253,1.02-11.96,7.3
		C111.264,314.931,183.153,371.145,256,297.949z"/>
</g>
<g>
</g>
<g>
</g>
<g>
</g>
<g>
</g>
<g>
</g>
<g>
</g>
<g>
</g>
<g>
</g>
<g>
</g>
<g>
</g>
<g>
</g>
<g>
</g>
<g>
</g>
<g>
</g>
<g>
</g>
</svg>
