<?xml version="1.0" encoding="iso-8859-1"?>
<!-- Generator: Adobe Illustrator 23.1.0, SVG Export Plug-In . SVG Version: 6.00 Build 0)  -->
<svg version="1.1" id="Capa_1" xmlns="http://www.w3.org/2000/svg" xmlns:xlink="http://www.w3.org/1999/xlink" x="0px" y="0px"
	 viewBox="0 0 512 512" style="enable-background:new 0 0 512 512;" xml:space="preserve">
<g>
	<path style="fill:#CDE9FA;" d="M236.515,142.228H131.612c-18.531,0-33.553,15.022-33.553,33.553v45.3h172.009v-45.3
		C270.068,157.25,255.046,142.228,236.515,142.228z"/>
	<rect x="98.059" y="177.534" style="fill:#A2DDFD;" width="172.009" height="43.547"/>
	<path style="fill:#A2DDFD;" d="M224.002,142.228h-79.876V94.084c0-13.258,10.748-24.006,24.006-24.006h31.864
		c13.258,0,24.006,10.748,24.006,24.006V142.228z"/>
	<path style="fill:#F6EE86;" d="M259.363,512H108.764c-21.366,0-38.686-17.32-38.686-38.686V237.57
		c0-22.746,18.44-41.186,41.186-41.186h145.598c22.746,0,41.186,18.44,41.186,41.186v235.745
		C298.049,494.68,280.729,512,259.363,512z"/>
	<path style="fill:#F1D88C;" d="M108.764,512h150.599c5.512,0,10.75-1.16,15.495-3.237
		c-170.781-50.747-151.31-231.295-147.171-312.379h-16.422c-22.746,0-41.186,18.44-41.186,41.186v235.745
		C70.078,494.68,87.399,512,108.764,512z"/>
	<path style="fill:#A2DDFD;" d="M70.078,432.446v40.868c0,21.366,17.32,38.686,38.686,38.686h150.599
		c21.366,0,38.686-17.32,38.686-38.686v-40.868H70.078z"/>
	<path style="fill:#7ACDF9;" d="M108.764,512h150.599c5.512,0,10.75-1.16,15.495-3.237c-52.175-15.503-86.595-43.119-109.117-76.316
		H70.078v40.868C70.078,494.68,87.399,512,108.764,512z"/>
	<path style="fill:#4E5660;" d="M230.27,467.385c-84.127,11.393-105.98-60.403-85.826-99.915c2.397-4.699,9.171-4.508,11.426,0.261
		c5.519,11.667,13.171,22.129,20.776,29.012c2.197-11.094,12.251-35.049,31.824-45.769c3.542-1.94,7.681,1.173,6.745,5.101
		c-7.776,32.657-3.644,80.13,18.155,102.635C236.303,461.738,234.448,466.819,230.27,467.385z"/>
	<path style="fill:#3A4351;" d="M196.629,467.286c-28.474-24.709-46.01-55.654-56.605-88.376
		C130.615,412.655,146.523,458.99,196.629,467.286z"/>
	<path style="fill:#CDE9FA;" d="M441.922,106.153c0-15.887-7.727-29.962-19.623-38.692c-3.488-2.56-5.141-6.95-4.384-11.21
		C423.002,27.624,401.051,0,370.64,0c-33.071,0-55.503,32.401-45.699,62.632c0.999,3.081-0.414,6.434-3.251,7.996l-51.08,28.125
		c-5.831,3.211-5.831,11.589,0,14.8l51.08,28.125c2.837,1.562,4.25,4.915,3.251,7.996c-9.812,30.245,12.642,62.632,45.699,62.632
		c30.357,0,52.373-27.591,47.275-56.253c-0.758-4.259,0.896-8.649,4.384-11.208C434.195,136.115,441.922,122.04,441.922,106.153z"/>
	<path style="fill:#A2DDFD;" d="M270.611,113.553l51.079,28.125c2.837,1.562,4.25,4.916,3.251,7.997
		c-9.812,30.245,12.642,62.631,45.699,62.631c18.672,0,34.176-10.446,42.168-25.151c-46.904,7.353-61.332-30.379-52.455-50.686
		c1.222-2.796-0.12-6.007-2.985-7.058c-23.106-8.475-38.429-33.002-33.705-60.429c-0.542,0.651-1.198,1.219-1.973,1.646
		l-51.08,28.125C264.78,101.964,264.78,110.343,270.611,113.553z"/>
	<g>
		<g>
			<ellipse style="fill:#EDA1AB;" cx="118.245" cy="331.366" rx="24.286" ry="19.34"/>
			<ellipse style="fill:#EDA1AB;" cx="249.882" cy="331.366" rx="24.286" ry="19.34"/>
		</g>
		<path style="fill:#4E5660;" d="M132.398,320.249c-4.143,0-7.5-3.357-7.5-7.5v-9.928c0-4.143,3.358-7.5,7.5-7.5
			c4.143,0,7.5,3.357,7.5,7.5v9.928C139.898,316.892,136.541,320.249,132.398,320.249z"/>
		<path style="fill:#4E5660;" d="M235.729,320.249c-4.143,0-7.5-3.357-7.5-7.5v-9.928c0-4.143,3.357-7.5,7.5-7.5s7.5,3.357,7.5,7.5
			v9.928C243.229,316.892,239.871,320.249,235.729,320.249z"/>
		<path style="fill:#4E5660;" d="M184.064,326.158c-7.388,0-14.414-3.199-19.275-8.777c-2.722-3.123-2.396-7.86,0.727-10.582
			c3.122-2.722,7.859-2.396,10.582,0.727c2.012,2.309,4.916,3.633,7.967,3.633c3.052,0,5.955-1.324,7.967-3.632
			c2.721-3.124,7.458-3.449,10.581-0.728c3.123,2.721,3.449,7.458,0.728,10.581C198.479,322.959,191.453,326.158,184.064,326.158z"
			/>
	</g>
	<path style="fill:#7ACDF9;" d="M224.002,113.653h-20.813c-4.143,0-7.5-3.357-7.5-7.5s3.357-7.5,7.5-7.5h20.813V113.653z"/>
	<path style="fill:#7ACDF9;" d="M209.72,196.383h-51.312v54.005c0,9.991,8.1,18.091,18.091,18.091h15.13
		c9.991,0,18.091-8.1,18.091-18.091V196.383z"/>
</g>
<g>
</g>
<g>
</g>
<g>
</g>
<g>
</g>
<g>
</g>
<g>
</g>
<g>
</g>
<g>
</g>
<g>
</g>
<g>
</g>
<g>
</g>
<g>
</g>
<g>
</g>
<g>
</g>
<g>
</g>
</svg>
