<?xml version="1.0" encoding="iso-8859-1"?>
<!-- Generator: Adobe Illustrator 23.1.0, SVG Export Plug-In . SVG Version: 6.00 Build 0)  -->
<svg version="1.1" id="Capa_1" xmlns="http://www.w3.org/2000/svg" xmlns:xlink="http://www.w3.org/1999/xlink" x="0px" y="0px"
	 viewBox="0 0 512 512" style="enable-background:new 0 0 512 512;" xml:space="preserve">
<g>
	<path style="fill:#FBF1CF;" d="M306.353,31.184c-18.529-0.399-34.38,11.3-40.202,27.743c-1.796,5.071-6.772,8.422-12.14,8.079
		c-27.719-1.771-52.502,19.836-53.355,48.659c-0.809,27.321,20.8,50.632,48.11,51.766c26.291,1.091,48.331-18.017,51.904-43.042
		c0.767-5.373,5.055-9.536,10.433-10.268c20.635-2.807,36.691-20.846,35.97-42.7C346.349,49.497,328.284,31.657,306.353,31.184z"/>
	<path style="fill:#F7DFB7;" d="M239.772,68.168c-21.456,4.907-38.413,23.745-39.116,47.498c-0.809,27.321,20.8,50.632,48.11,51.766
		c22.037,0.915,41.08-12.366,48.772-31.423C238.927,147.68,226.854,89.094,239.772,68.168z"/>
	<circle style="fill:#FBF1CF;" cx="130.143" cy="55.048" r="31.551"/>
	<path style="fill:#FBF1CF;" d="M158.331,279.043c-1.226-12.5-5.362-24.14-11.706-34.256c12.972-13.79,20.638-32.628,19.687-53.265
		c-1.718-37.275-31.946-67.517-69.22-69.244c-41.758-1.934-76.22,31.348-76.22,72.68c0,8.189,1.354,16.062,3.849,23.408
		c1.659,4.884,0.532,10.262-3.013,14.008C8.256,246.591,0,265.769,0,286.884c0,37.798,26.431,69.403,61.816,77.388
		c4.383,0.989,7.953,4.173,9.57,8.365c10.405,26.978,36.783,46.016,67.55,45.497c37.783-0.637,68.805-31.33,69.822-69.105
		C209.644,316.098,188.119,288.062,158.331,279.043z"/>
	<path style="fill:#F7DFB7;" d="M158.331,279.043c-0.096-0.976-0.215-1.945-0.346-2.91C54.49,269.032,31.417,177.693,47.242,138.931
		c-16.101,13.346-26.371,33.481-26.371,56.028c0,8.189,1.354,16.062,3.849,23.408c1.659,4.884,0.532,10.262-3.013,14.009
		C8.256,246.591,0,265.769,0,286.884c0,37.798,26.432,69.403,61.816,77.388c4.383,0.989,7.953,4.173,9.57,8.365
		c10.405,26.979,36.783,46.017,67.55,45.498c37.783-0.637,68.805-31.33,69.822-69.105
		C209.644,316.098,188.119,288.062,158.331,279.043z"/>
	<path style="fill:#F6EE86;" d="M322.559,419.361c-10.949,20.256-19.929,42.481-24.949,58.596
		c-2.967,9.524-14.247,13.566-22.558,8.049c-37.469-24.875-82.65-64.545-105.807-87.702
		c-23.157-23.157-62.827-68.339-87.702-105.807c-5.517-8.31-1.475-19.591,8.049-22.558c16.116-5.02,38.341-14,58.596-24.949
		L322.559,419.361z"/>
	<g>
		<path style="fill:#F1D88C;" d="M199.6,375.449c-1.919,0-3.839-0.732-5.303-2.196c-2.929-2.93-2.929-7.678,0-10.607l25.058-25.058
			c2.929-2.928,7.678-2.928,10.606,0c2.929,2.93,2.929,7.678,0,10.607l-25.058,25.058
			C203.439,374.717,201.519,375.449,199.6,375.449z"/>
		<path style="fill:#F1D88C;" d="M148.718,319.145c-2.695,0-5.3-1.457-6.643-4.008c-1.93-3.665-0.523-8.201,3.142-10.131
			c5.754-3.029,17.41-10.654,24.155-17.399c2.93-2.93,7.677-2.929,10.607-0.001c2.929,2.929,2.929,7.678,0.001,10.607
			c-8.375,8.376-21.481,16.754-27.774,20.067C151.091,318.867,149.896,319.145,148.718,319.145z"/>
		<path style="fill:#F1D88C;" d="M255.898,426.339c-1.178,0-2.373-0.278-3.488-0.865c-3.665-1.931-5.072-6.466-3.142-10.131
			c3.314-6.295,11.693-19.401,20.066-27.774c2.929-2.929,7.678-2.928,10.607,0.001c2.929,2.929,2.928,7.678,0,10.607
			c-6.745,6.744-14.37,18.4-17.4,24.155C261.198,424.882,258.593,426.339,255.898,426.339z"/>
	</g>
	<path style="fill:#A2DDFD;" d="M309.502,427.736L139.813,258.047c-5.544-5.544-5.544-14.533,0-20.077l21.497-21.497
		c5.544-5.544,14.533-5.544,20.077,0l169.689,169.689c5.544,5.544,5.544,14.533,0,20.077l-21.497,21.497
		C324.035,433.28,315.046,433.28,309.502,427.736z"/>
	<path style="fill:#7ACDF9;" d="M239.712,274.798l-58.325-58.325c-5.544-5.544-14.533-5.544-20.077,0l-21.497,21.497
		c-5.544,5.544-5.544,14.533,0,20.077l102.001,102.001C228.854,337.133,222.938,301.236,239.712,274.798z"/>
	<path style="fill:#CDE9FA;" d="M327.029,295.089L272.46,240.52c-7.012-7.012-17.739-8.719-26.581-4.229l-29.627,15.045
		l99.961,99.961l15.045-29.627C335.747,312.828,334.041,302.101,327.029,295.089z"/>
	<path style="fill:#E0B799;" d="M503.47,70.216l-6.138-6.137c-11.373-11.373-29.813-11.373-41.186,0L276.082,244.142l47.324,47.324
		L503.47,111.402C514.843,100.029,514.843,81.589,503.47,70.216z"/>
	<path style="fill:#D99A84;" d="M322.082,198.143l-45.999,45.999l47.324,47.324l11.276-11.276
		C320.539,258.136,316.001,225.502,322.082,198.143z"/>
	<path style="fill:#D99A84;" d="M363.74,208.773c25.962-15.672,20.858-41.113,14.094-66.383l-12.344,12.344
		c4.875,20.41,4.775,32.579-9.502,41.197c-9.489,5.727-23.564,9.63-39.87,8.175L303,217.225
		C326.034,222.207,348.267,218.113,363.74,208.773z"/>
	<path style="fill:#D99A84;" d="M434.168,125.83c-15.741,23.836-16.009,42.359-12.349,67.223l13.469-13.469
		c-1.414-16.482,0.724-29.329,11.396-45.489c14.553-22.037,37.174-27.28,55.929-21.836l0.857-0.857
		c3.552-3.552,5.995-7.794,7.328-12.294C481.677,88.389,450.866,100.542,434.168,125.83z"/>
</g>
<g>
</g>
<g>
</g>
<g>
</g>
<g>
</g>
<g>
</g>
<g>
</g>
<g>
</g>
<g>
</g>
<g>
</g>
<g>
</g>
<g>
</g>
<g>
</g>
<g>
</g>
<g>
</g>
<g>
</g>
</svg>
