<?xml version="1.0" encoding="iso-8859-1"?>
<!-- Generator: Adobe Illustrator 23.1.0, SVG Export Plug-In . SVG Version: 6.00 Build 0)  -->
<svg version="1.1" id="Capa_1" xmlns="http://www.w3.org/2000/svg" xmlns:xlink="http://www.w3.org/1999/xlink" x="0px" y="0px"
	 viewBox="0 0 512 512" style="enable-background:new 0 0 512 512;" xml:space="preserve">
<g>
	<path style="fill:#4E5660;" d="M507.332,267.249L507.332,267.249c-1.673-19.128-18.537-33.278-37.665-31.605l-101.014,8.838
		l89.807-41.878c17.402-8.115,24.931-28.801,16.816-46.203l0,0c-8.115-17.402-28.801-24.931-46.203-16.817l-97.667,45.543
		l80.544-80.544c13.577-13.577,13.577-35.591,0-49.168l0,0c-13.577-13.577-35.591-13.577-49.168,0l-88.874,88.874l44.216-94.82
		c8.115-17.402,0.586-38.088-16.816-46.203l0,0c-17.402-8.115-38.088-0.586-46.203,16.816l-49.492,106.136l-22.078-60.659
		c-8.136-22.353-32.852-33.878-55.205-25.742l0,0c-22.353,8.136-33.878,32.852-25.742,55.205l28.193,77.459
		c4.715,12.954,1.498,27.467-8.25,37.215l-64.916,64.916l180.981,180.981L372.748,321.44c5.321-5.321,12.347-8.598,19.844-9.253
		l83.135-7.273C494.855,303.24,509.005,286.377,507.332,267.249z"/>
	<path style="fill:#3A4351;" d="M57.614,274.611l180.981,180.981l39.869-39.868c-119.143-61.318-102.414-172.506-98.858-216.114
		c0.41-5.024-0.678-10.034-3.058-14.478c-14.245-26.607-38.425-98.72-27.995-147.558c-6.614-0.856-13.524-0.196-20.224,2.243h0
		c-22.353,8.136-33.878,32.852-25.742,55.205l28.193,77.459c4.715,12.955,1.498,27.467-8.25,37.215L57.614,274.611z"/>
	<path style="fill:#4E5660;" d="M211.22,503.771c-30.321-26.235-63.805-55.938-103.162-95.295
		c-39.372-39.373-69.068-72.85-95.295-103.164C0.565,291.215,2.106,269.898,16.204,257.7c14.098-12.198,35.414-10.658,47.612,3.441
		c25.399,29.356,54.121,61.741,91.979,99.598c37.843,37.843,70.234,66.572,99.598,91.98c14.098,12.198,15.638,33.514,3.439,47.612
		C246.636,514.427,225.316,515.97,211.22,503.771z"/>
	<g>
		<g>
			<path style="fill:#EDA1AB;" d="M180.888,256.193c-9.784,9.793-27.684,7.773-39.982-4.513
				c-12.298-12.286-14.336-30.184-4.553-39.978c9.784-9.794,27.685-7.773,39.983,4.512
				C188.633,228.5,190.672,246.399,180.888,256.193z"/>
			<path style="fill:#EDA1AB;" d="M257.05,332.279c-9.784,9.794-7.745,27.692,4.553,39.978
				c12.298,12.286,30.199,14.306,39.982,4.513c9.784-9.794,7.746-27.693-4.552-39.978
				C284.735,324.506,266.834,322.485,257.05,332.279z"/>
			<path style="fill:#FFFFFF;" d="M248.805,308.025c13.476-13.49,4.97-24.52-7.085-36.563c-12.055-12.043-23.094-20.538-36.57-7.048
				c-13.476,13.49-14.628,34.188-2.573,46.23C214.633,322.687,235.329,321.514,248.805,308.025z"/>
		</g>
		<path style="fill:#FFFFFF;" d="M287.128,329.292c-1.924,0-3.848-0.735-5.313-2.207c-2.923-2.935-2.914-7.683,0.02-10.607
			l8.758-8.725c2.935-2.925,7.684-2.916,10.607,0.021c2.923,2.935,2.914,7.683-0.02,10.607l-8.758,8.725
			C290.958,328.563,289.043,329.292,287.128,329.292z"/>
		<path style="fill:#FFFFFF;" d="M206.652,247.216c-1.925,0-3.849-0.736-5.315-2.208c-2.922-2.936-2.912-7.685,0.023-10.606
			c2.73-2.719,2.741-7.152,0.022-9.882c-1.316-1.323-3.069-2.054-4.936-2.058c-0.005,0-0.01,0-0.016,0
			c-1.861,0-3.611,0.723-4.93,2.036c-2.936,2.922-7.684,2.912-10.607-0.022c-2.922-2.936-2.912-7.685,0.023-10.607
			c4.15-4.133,9.658-6.407,15.513-6.407c0.017,0,0.032,0,0.048,0c5.874,0.013,11.39,2.311,15.534,6.474
			c4.144,4.162,6.419,9.688,6.406,15.562c-0.013,5.873-2.312,11.39-6.474,15.533C210.481,246.487,208.566,247.216,206.652,247.216z"
			/>
	</g>
</g>
<g>
</g>
<g>
</g>
<g>
</g>
<g>
</g>
<g>
</g>
<g>
</g>
<g>
</g>
<g>
</g>
<g>
</g>
<g>
</g>
<g>
</g>
<g>
</g>
<g>
</g>
<g>
</g>
<g>
</g>
</svg>
