<?xml version="1.0" encoding="iso-8859-1"?>
<!-- Generator: Adobe Illustrator 23.1.0, SVG Export Plug-In . SVG Version: 6.00 Build 0)  -->
<svg version="1.1" id="Capa_1" xmlns="http://www.w3.org/2000/svg" xmlns:xlink="http://www.w3.org/1999/xlink" x="0px" y="0px"
	 viewBox="0 0 512 512" style="enable-background:new 0 0 512 512;" xml:space="preserve">
<g>
	<circle style="fill:#A2DDFD;" cx="235.597" cy="149.516" r="149.516"/>
	<circle style="fill:#7ACDF9;" cx="235.597" cy="149.516" r="116.59"/>
	<path style="fill:#CDE9FA;" d="M360.682,512h-250.17c-13.493,0-24.431-10.938-24.431-24.431V282.641h299.031v204.928
		C385.113,501.062,374.175,512,360.682,512z"/>
	<path style="fill:#A2DDFD;" d="M385.113,341.823v-59.182H86.082v204.929c0,13.493,10.938,24.431,24.431,24.431h87.604
		c-19.504-36.029-29.521-105.559-29.728-164.59c-0.018-4.992,4.686-8.654,9.512-7.379c1.566,0.414,3.133,0.831,4.695,1.247
		c18.014,4.798,36.641,9.76,53.001,9.76c16.36,0,34.987-4.962,53.001-9.76c15.383-4.098,31.291-8.334,42.146-8.334
		c5.865,0,12.888,1.812,20.323,3.729c9.44,2.435,20.139,5.195,31.862,5.195C383.662,341.869,384.387,341.844,385.113,341.823z"/>
	<path style="fill:#3A4351;" d="M291.031,512H180.163v-50.025c0-12.334,9.998-22.332,22.332-22.332h66.204
		c12.334,0,22.332,9.999,22.332,22.332V512z"/>
	<path style="fill:#4E5660;" d="M291.031,512H180.163v-17.331c0-10.41,8.439-18.848,18.848-18.848h73.171
		c10.41,0,18.848,8.439,18.848,18.848V512z"/>
	<path style="fill:#3A4351;" d="M251.524,195.408c10.83,10.83,26.398,22.271,50.102,31.279c12.926,4.912,12.525,23.378-0.666,27.528
		c-33.762,10.622-65.894,6.185-90.161-18.083c-24.267-24.267-28.704-56.399-18.082-90.161c4.15-13.191,22.616-13.592,27.528-0.666
		C229.252,169.01,240.694,184.577,251.524,195.408z"/>
	<path style="fill:#3A4351;" d="M390.374,90.917c-10.83,10.83-22.271,26.398-31.28,50.102c-4.912,12.926-23.378,12.525-27.528-0.666
		c-10.621-33.762-6.185-65.894,18.082-90.161c24.267-24.267,56.399-28.704,90.161-18.083c13.191,4.15,13.592,22.616,0.666,27.528
		C416.773,68.646,401.205,80.087,390.374,90.917z"/>
	<path style="fill:#4E5660;" d="M392.854,156.507c-14.741,0-33.123,2.809-55.385,12.81c-12.14,5.454-24.435-7.387-18.282-19.188
		c15.748-30.206,40.636-49.054,73.667-49.054c33.031,0,57.918,18.849,73.667,49.054c6.153,11.801-6.141,24.642-18.282,19.188
		C425.976,159.315,407.595,156.507,392.854,156.507z"/>
	<path style="fill:#4E5660;" d="M375.217,222.436c46.688,0,66.849,63.997,40.321,86.28c-30.877,25.937-57.653,3.624-84.794,3.624
		c-27.141,0-67.858,18.094-95.147,18.094c-27.289,0-68.006-18.094-95.147-18.094c-27.141,0-53.917,22.313-84.794-3.624
		c-26.527-22.283-6.367-86.28,40.321-86.28H375.217z"/>
	<g>
		<g>
			<ellipse style="fill:#FFFFFF;" cx="153.64" cy="400.743" rx="30.241" ry="24.082"/>
			<ellipse style="fill:#FFFFFF;" cx="317.555" cy="400.743" rx="30.241" ry="24.082"/>
			<path style="fill:#4E5660;" d="M235.597,375.156c-11.997,0-22.681-8.062-29.401,1.88c-6.816,10.085,8.45,25.723,29.401,25.723
				c20.951,0,36.217-15.638,29.401-25.723C258.278,367.094,247.594,375.156,235.597,375.156z"/>
		</g>
		<path style="fill:#4E5660;" d="M171.264,383.396c-7.283,0-14.208-3.153-19.001-8.652c-2.721-3.123-2.396-7.86,0.727-10.582
			c3.122-2.721,7.86-2.396,10.582,0.727c1.942,2.229,4.747,3.508,7.692,3.508c2.946,0,5.751-1.278,7.693-3.508
			c2.722-3.123,7.459-3.447,10.582-0.727c3.122,2.722,3.448,7.459,0.727,10.582C185.473,380.242,178.547,383.396,171.264,383.396z"
			/>
		<path style="fill:#4E5660;" d="M299.931,383.396c-7.283,0-14.209-3.153-19.001-8.652c-2.722-3.123-2.396-7.86,0.727-10.582
			c3.122-2.721,7.859-2.396,10.582,0.727c1.942,2.229,4.746,3.508,7.692,3.508c2.946,0,5.75-1.278,7.692-3.508
			c2.722-3.122,7.458-3.447,10.582-0.727c3.122,2.722,3.448,7.459,0.727,10.582C314.14,380.242,307.214,383.396,299.931,383.396z"/>
	</g>
	<path style="fill:#3A4351;" d="M95.977,222.436c-46.688,0-66.849,63.997-40.321,86.28c30.877,25.937,57.653,3.624,84.794,3.624
		c9.885,0,21.572,2.403,33.754,5.455c-20.853-16.234-27.961-58.321-13.723-95.359H95.977z"/>
</g>
<g>
</g>
<g>
</g>
<g>
</g>
<g>
</g>
<g>
</g>
<g>
</g>
<g>
</g>
<g>
</g>
<g>
</g>
<g>
</g>
<g>
</g>
<g>
</g>
<g>
</g>
<g>
</g>
<g>
</g>
</svg>
