<?xml version="1.0" encoding="iso-8859-1"?>
<!-- Generator: Adobe Illustrator 23.1.0, SVG Export Plug-In . SVG Version: 6.00 Build 0)  -->
<svg version="1.1" id="Capa_1" xmlns="http://www.w3.org/2000/svg" xmlns:xlink="http://www.w3.org/1999/xlink" x="0px" y="0px"
	 viewBox="0 0 512 512" style="enable-background:new 0 0 512 512;" xml:space="preserve">
<g>
	<path style="fill:#F6EE86;" d="M438.095,369.355c-25.359-84.35-23.459-203.572-11.581-282.964
		c2.82-18.851-9.505-36.656-28.111-40.795C357.168,36.423,301.72,30.378,256,30.378s-101.168,6.045-142.403,15.218
		c-18.606,4.139-30.931,21.944-28.111,40.795c11.878,79.392,13.778,198.614-11.581,282.964H438.095z"/>
	<path style="fill:#F1D88C;" d="M170.443,36.019c-20.252,2.519-39.769,5.779-56.846,9.577C94.991,49.735,82.666,67.54,85.486,86.391
		c11.878,79.392,13.778,198.614-11.581,282.964h142.848C160.594,295.046,148.648,142.481,170.443,36.019z"/>
	<path style="fill:#4E5660;" d="M426.514,86.391c2.82-18.851-9.505-36.656-28.111-40.795C357.168,36.424,301.72,30.378,256,30.378
		s-101.168,6.045-142.403,15.218c-18.606,4.139-30.931,21.944-28.111,40.795c7.597,50.779,11.097,117.846,6.009,181.667l0.011,0.018
		c45.965,10.185,104.15,17.99,164.494,17.99s118.528-7.805,164.494-17.99l0.011-0.015
		C415.417,204.239,418.917,137.171,426.514,86.391z"/>
	<path style="fill:#3A4351;" d="M91.495,268.058l0.011,0.018c25.368,5.621,54.462,10.514,85.582,13.773
		c-20.653-76.587-21.715-172.222-6.645-245.83c-20.252,2.519-39.769,5.779-56.846,9.578C94.991,49.735,82.666,67.54,85.486,86.391
		C93.083,137.17,96.583,204.237,91.495,268.058z"/>
	<path style="fill:#EDA1AB;" d="M347.483,369.355h90.612c-9.138-30.397-14.734-65.322-17.601-101.28
		c-25.063,5.554-53.775,10.387-84.474,13.646L347.483,369.355z"/>
	<path style="fill:#4E5660;" d="M256,430.315c-94.224,0-180.384-17.76-229.597-34.382c-20.309-6.859-31.21-28.88-24.352-49.187
		c6.86-20.307,28.88-31.204,49.187-24.352C92.626,336.371,171.086,352.694,256,352.694s163.374-16.323,204.762-30.301
		c20.306-6.854,42.329,4.043,49.187,24.352c6.858,20.307-4.043,42.329-24.352,49.187C436.384,412.554,350.224,430.315,256,430.315z"
		/>
	<g>
		<g>
			<ellipse style="fill:#EDA1AB;" cx="173.72" cy="185.331" rx="30.36" ry="24.177"/>
			<ellipse style="fill:#EDA1AB;" cx="338.28" cy="185.331" rx="30.36" ry="24.177"/>
		</g>
		<path style="fill:#FFFFFF;" d="M191.413,168.402c-8.172,0-15.942-3.539-21.318-9.71c-2.722-3.123-2.395-7.86,0.728-10.581
			c3.122-2.721,7.86-2.396,10.581,0.728c2.527,2.9,6.176,4.563,10.01,4.563s7.482-1.664,10.011-4.564
			c2.722-3.123,7.46-3.448,10.582-0.727c3.123,2.722,3.448,7.459,0.726,10.582C207.354,164.863,199.584,168.402,191.413,168.402z"/>
		<path style="fill:#FFFFFF;" d="M320.587,168.402c-8.171,0-15.941-3.539-21.319-9.709c-2.722-3.123-2.397-7.86,0.727-10.582
			c3.122-2.721,7.859-2.396,10.582,0.727c2.528,2.9,6.177,4.564,10.011,4.564c3.834,0,7.482-1.663,10.01-4.563
			c2.721-3.125,7.459-3.449,10.581-0.728c3.123,2.721,3.449,7.458,0.728,10.581C336.529,164.863,328.759,168.402,320.587,168.402z"
			/>
		<path style="fill:#FFFFFF;" d="M268.111,175.148c0-7.134-5.423-12.917-12.112-12.917c-6.689,0-12.111,5.783-12.111,12.917
			c0,7.134,5.423,12.917,12.111,12.917C262.689,188.065,268.111,182.282,268.111,175.148z"/>
	</g>
	<path style="fill:#A2DDFD;" d="M85.978,107.393l-8.257,18.32c-4.374,9.704-18.154,9.704-22.528,0l-8.257-18.32
		c-1.239-2.748-3.439-4.949-6.187-6.187l-18.32-8.257c-9.704-4.374-9.704-18.154,0-22.528l18.32-8.257
		c2.748-1.239,4.948-3.439,6.187-6.187l8.257-18.32c4.374-9.704,18.154-9.704,22.528,0l8.257,18.32
		c1.239,2.748,3.439,4.949,6.187,6.187l18.32,8.257c9.704,4.374,9.704,18.154,0,22.528l-18.32,8.257
		C89.417,102.445,87.216,104.645,85.978,107.393z"/>
	<path style="fill:#7ACDF9;" d="M443.246,456.023l-8.257,18.32c-4.374,9.704-18.154,9.704-22.528,0l-8.257-18.32
		c-1.239-2.748-3.439-4.948-6.187-6.187l-18.32-8.257c-9.704-4.374-9.704-18.154,0-22.528l18.32-8.257
		c2.748-1.239,4.949-3.439,6.187-6.187l8.257-18.32c4.374-9.704,18.154-9.704,22.528,0l8.257,18.32
		c1.239,2.748,3.439,4.948,6.187,6.187l18.32,8.257c9.704,4.374,9.704,18.154,0,22.528l-18.32,8.257
		C446.685,451.074,444.484,453.275,443.246,456.023z"/>
	<path style="fill:#3A4351;" d="M228.648,352.132c-74.136-2.961-140.511-17.276-177.41-29.738
		c-20.307-6.852-42.327,4.045-49.187,24.352c-6.858,20.307,4.043,42.329,24.352,49.187c44.308,14.965,118.57,30.846,201.696,33.864
		C207.135,412.296,208.52,365.51,228.648,352.132z"/>
</g>
<g>
</g>
<g>
</g>
<g>
</g>
<g>
</g>
<g>
</g>
<g>
</g>
<g>
</g>
<g>
</g>
<g>
</g>
<g>
</g>
<g>
</g>
<g>
</g>
<g>
</g>
<g>
</g>
<g>
</g>
</svg>
