<?xml version="1.0" encoding="iso-8859-1"?>
<!-- Generator: Adobe Illustrator 23.1.0, SVG Export Plug-In . SVG Version: 6.00 Build 0)  -->
<svg version="1.1" id="Capa_1" xmlns="http://www.w3.org/2000/svg" xmlns:xlink="http://www.w3.org/1999/xlink" x="0px" y="0px"
	 viewBox="0 0 512 512" style="enable-background:new 0 0 512 512;" xml:space="preserve">
<g>
	<path style="fill:#E0B799;" d="M393.589,322.061H118.411l-15.319,97.399c-5.703,36.258,22.325,69.038,59.028,69.038h187.76
		c36.703,0,64.731-32.781,59.029-69.038L393.589,322.061z"/>
	<path style="fill:#D99A84;" d="M396.326,339.459l-2.736-17.398H118.411l-15.319,97.399c-5.703,36.258,22.325,69.038,59.028,69.038
		h82.751c-40.996-32.977-51.531-94.912-50.999-141.046c0.051-4.435,3.675-7.994,8.111-7.994H396.326z"/>
	<g>
		<path style="fill:#7CCADC;" d="M252.459,189.146c-6.623-32.49-49.107-100.235-136.695-135.474
			c-9.723-3.912-19.056,6.469-14.241,15.778c21.539,41.641,52.828,113.592,57.302,154.603L252.459,189.146z"/>
		<path style="fill:#9FE6E6;" d="M239.437,258.528c0,23.521-21.981,42.589-49.096,42.589c-69.321,0-63.535-103.704-182.691-96.194
			c-6.944,0.438-10.387-8.206-5.028-12.643C114.986,99.254,239.437,189.14,239.437,258.528z"/>
		<path style="fill:#7CCADC;" d="M183.579,175.253c-4.157,25.883-6.464,50.701-6.464,72.519c0,20.418,8.388,38.969,21.993,52.654
			c22.929-3.588,40.329-20.974,40.329-41.898C239.437,229.353,217.434,196.555,183.579,175.253z"/>
		<path style="fill:#7CCADC;" d="M259.541,189.146c6.623-32.49,49.107-100.235,136.695-135.474
			c9.723-3.912,19.056,6.469,14.24,15.778c-21.539,41.641-52.828,113.592-57.302,154.603L259.541,189.146z"/>
		<path style="fill:#9FE6E6;" d="M272.563,258.528c0,23.521,21.981,42.589,49.096,42.589c69.321,0,63.535-103.704,182.691-96.194
			c6.944,0.438,10.387-8.206,5.028-12.643C397.014,99.254,272.563,189.14,272.563,258.528z"/>
		<path style="fill:#7CCADC;" d="M272.563,258.528c0,20.924,17.4,38.311,40.329,41.898c13.605-13.685,21.993-32.236,21.993-52.654
			c0-21.818-2.306-46.636-6.464-72.519C294.566,196.555,272.563,229.353,272.563,258.528z"/>
		<path style="fill:#9FE6E6;" d="M197.719,247.772c0-62.976,20.303-153.33,49.137-218.325c3.517-7.927,14.77-7.927,18.287,0
			c28.835,64.995,49.138,155.349,49.138,218.325c0,30.666-26.093,55.525-58.281,55.525S197.719,278.438,197.719,247.772z"/>
	</g>
	<path style="fill:#4E5660;" d="M419.401,322.061H92.599c-14.828,0-26.848-12.021-26.848-26.848v-11.983
		c0-14.828,12.02-26.848,26.848-26.848h326.802c14.828,0,26.848,12.02,26.848,26.848v11.983
		C446.25,310.041,434.229,322.061,419.401,322.061z"/>
	<g>
		<path style="fill:#D99A84;" d="M224.752,362.733h-13.68c-4.143,0-7.5-3.357-7.5-7.5s3.357-7.5,7.5-7.5h13.68
			c4.143,0,7.5,3.357,7.5,7.5S228.895,362.733,224.752,362.733z"/>
		<path style="fill:#D99A84;" d="M365.34,366.38h-11.771c-4.143,0-7.5-3.357-7.5-7.5c0-4.143,3.357-7.5,7.5-7.5h11.771
			c4.143,0,7.5,3.357,7.5,7.5C372.84,363.022,369.482,366.38,365.34,366.38z"/>
	</g>
	<g>
		<g>
			<path style="fill:#FFFFFF;" d="M204.226,425.018c0,13.315-13.554,24.109-30.274,24.109c-16.72,0-30.274-10.794-30.274-24.109
				c0-13.315,13.554-24.109,30.274-24.109C190.671,400.909,204.226,411.703,204.226,425.018z"/>
			<path style="fill:#FFFFFF;" d="M307.774,425.018c0,13.315,13.554,24.109,30.274,24.109c16.72,0,30.274-10.794,30.274-24.109
				c0-13.315-13.554-24.109-30.274-24.109C321.328,400.909,307.774,411.703,307.774,425.018z"/>
			<path style="fill:#4E5660;" d="M280.409,406.494c0-15.085-10.928-16.502-24.409-16.502c-13.48,0-24.409,1.417-24.409,16.502
				c0,15.085,10.928,27.313,24.409,27.313C269.48,433.807,280.409,421.579,280.409,406.494z"/>
		</g>
		<path style="fill:#4E5660;" d="M179.013,403.735c-4.143,0-7.5-3.357-7.5-7.5v-12.362c0-4.142,3.357-7.5,7.5-7.5
			c4.143,0,7.5,3.358,7.5,7.5v12.362C186.513,400.378,183.155,403.735,179.013,403.735z"/>
		<path style="fill:#4E5660;" d="M332.987,403.735c-4.143,0-7.5-3.357-7.5-7.5v-12.362c0-4.142,3.357-7.5,7.5-7.5s7.5,3.358,7.5,7.5
			v12.362C340.487,400.378,337.13,403.735,332.987,403.735z"/>
	</g>
	<g>
		<path style="fill:#7CCADC;" d="M256,205.673c-4.143,0-7.5-3.357-7.5-7.5V145.83c0-4.143,3.357-7.5,7.5-7.5
			c4.143,0,7.5,3.357,7.5,7.5v52.343C263.5,202.315,260.143,205.673,256,205.673z"/>
		<path style="fill:#7CCADC;" d="M43.85,179.502c-1.919,0-3.839-0.732-5.304-2.196l-13.238-13.238c-2.929-2.93-2.929-7.678,0-10.607
			c2.93-2.928,7.678-2.928,10.607,0l13.238,13.238c2.929,2.93,2.929,7.678,0,10.607C47.688,178.769,45.769,179.502,43.85,179.502z"
			/>
		<path style="fill:#7CCADC;" d="M91.369,168.165c-4.143,0-7.5-3.357-7.5-7.5v-20.19c0-4.143,3.357-7.5,7.5-7.5
			c4.143,0,7.5,3.357,7.5,7.5v20.19C98.869,164.808,95.512,168.165,91.369,168.165z"/>
		<path style="fill:#9FE6E6;" d="M151.507,85.955c-1.919,0-3.839-0.732-5.304-2.196c-2.929-2.93-2.929-7.678,0-10.607l13.654-13.654
			c2.93-2.928,7.678-2.928,10.607,0c2.929,2.93,2.929,7.678,0,10.607l-13.654,13.654C155.346,85.223,153.426,85.955,151.507,85.955z
			"/>
		<path style="fill:#7CCADC;" d="M468.15,179.502c-1.919,0-3.839-0.732-5.304-2.196c-2.929-2.93-2.929-7.678,0-10.607l13.238-13.238
			c2.93-2.928,7.678-2.928,10.607,0c2.929,2.93,2.929,7.678,0,10.607l-13.238,13.238
			C471.989,178.769,470.069,179.502,468.15,179.502z"/>
		<path style="fill:#7CCADC;" d="M420.631,168.165c-4.143,0-7.5-3.357-7.5-7.5v-20.19c0-4.143,3.357-7.5,7.5-7.5
			c4.143,0,7.5,3.357,7.5,7.5v20.19C428.131,164.808,424.773,168.165,420.631,168.165z"/>
		<path style="fill:#9FE6E6;" d="M360.493,85.955c-1.919,0-3.839-0.732-5.304-2.196l-13.654-13.654
			c-2.929-2.93-2.929-7.678,0-10.607c2.93-2.928,7.678-2.928,10.607,0l13.654,13.654c2.929,2.93,2.929,7.678,0,10.607
			C364.332,85.223,362.412,85.955,360.493,85.955z"/>
	</g>
</g>
<g>
</g>
<g>
</g>
<g>
</g>
<g>
</g>
<g>
</g>
<g>
</g>
<g>
</g>
<g>
</g>
<g>
</g>
<g>
</g>
<g>
</g>
<g>
</g>
<g>
</g>
<g>
</g>
<g>
</g>
</svg>
