<?xml version="1.0" encoding="iso-8859-1"?>
<!-- Generator: Adobe Illustrator 23.1.0, SVG Export Plug-In . SVG Version: 6.00 Build 0)  -->
<svg version="1.1" id="Capa_1" xmlns="http://www.w3.org/2000/svg" xmlns:xlink="http://www.w3.org/1999/xlink" x="0px" y="0px"
	 viewBox="0 0 512 512" style="enable-background:new 0 0 512 512;" xml:space="preserve">
<g>
	<path style="fill:#CDE9FA;" d="M296.279,188.829v-43.074H164.971v43.074c0,9.168-4.977,17.655-13.052,21.996
		C83.029,247.865,46.989,332.028,46.989,408.307c0,39.93,12.746,66.489,34.389,84.019c9.84,7.97,22.202,12.174,34.865,12.174
		h228.765c12.663,0,25.025-4.204,34.865-12.174c21.643-17.53,34.389-44.089,34.389-84.019c0-76.279-36.04-160.442-104.931-197.482
		C301.256,206.484,296.279,197.997,296.279,188.829z"/>
	<rect x="164.971" y="145.755" style="fill:#A2DDFD;" width="131.307" height="37.011"/>
	<path style="fill:#A2DDFD;" d="M147.146,213.509C81.368,251.807,46.989,333.812,46.989,408.307
		c0,39.929,12.746,66.489,34.389,84.019c9.84,7.97,22.202,12.174,34.865,12.174H215.8
		C131.214,451.74,126.79,281.142,147.146,213.509z"/>
	<path style="fill:#FFFFFF;" d="M230.625,332.627c-4.142,0-7.5-3.358-7.5-7.5V145.755c0-4.142,3.358-7.5,7.5-7.5
		c4.142,0,7.5,3.358,7.5,7.5v179.372C238.125,329.269,234.767,332.627,230.625,332.627z"/>
	<path style="fill:#A2DDFD;" d="M262.603,290.349c-56.829-30.015-143.736-26.233-184.019-4.813
		c-20.875,37.34-31.595,81.217-31.595,122.771c0,39.93,12.746,66.489,34.389,84.019c9.84,7.97,22.203,12.174,34.865,12.174h228.765
		c12.663,0,25.025-4.204,34.865-12.174c21.643-17.53,34.389-44.089,34.389-84.019c0-46.217-13.255-95.312-39.007-135.082
		C393.991,304.24,347.223,335.042,262.603,290.349z"/>
	<path style="fill:#7ACDF9;" d="M137.956,269.886c-23.539,2.313-44.595,7.793-59.372,15.65
		c-20.875,37.34-31.595,81.217-31.595,122.771c0,39.93,12.746,66.489,34.389,84.019c9.84,7.97,22.203,12.174,34.865,12.174H215.8
		C149.586,463.199,132.492,349.689,137.956,269.886z"/>
	<path style="fill:#F6EE86;" d="M335.309,145.755H131.791c-15.42,0-27.92-12.5-27.92-27.92V95.952
		c0-25.598,18.077-47.634,43.181-52.637L324.002,8.048c17.272-3.442,33.378,9.77,33.378,27.382v88.255
		C357.379,135.873,347.498,145.755,335.309,145.755z"/>
	<path style="fill:#4E5660;" d="M397.121,35.429h-39.741v88.255h39.741c9.467,0,17.141-7.674,17.141-17.141V52.57
		C414.262,43.104,406.587,35.429,397.121,35.429z"/>
	<path style="fill:#F1D88C;" d="M224.994,27.781l-77.942,15.535c-25.104,5.003-43.181,27.039-43.181,52.637v21.882
		c0,15.42,12.5,27.92,27.92,27.92h127.231C230.404,123.688,218.602,67.192,224.994,27.781z"/>
	<path style="fill:#7ACDF9;" d="M374.784,272.449c19.996,31.272-26.857,62.966-112.182,17.9
		C290.309,266.207,358.602,247.142,374.784,272.449z"/>
	<g>
		<g>
			<g>
				<ellipse style="fill:#FFFFFF;" cx="149.983" cy="415.442" rx="29.756" ry="23.696"/>
				<ellipse style="fill:#FFFFFF;" cx="311.268" cy="415.582" rx="29.756" ry="23.696"/>
			</g>
		</g>
	</g>
	<path d="M302.109,72.057h-54.046c-4.142,0-7.5,3.358-7.5,7.5s3.358,7.5,7.5,7.5h54.046c4.142,0,7.5-3.358,7.5-7.5
		S306.251,72.057,302.109,72.057z M465.011,72.057h-15.95c-4.142,0-7.5,3.358-7.5,7.5s3.358,7.5,7.5,7.5h15.95
		c4.142,0,7.5-3.358,7.5-7.5S469.153,72.057,465.011,72.057z M300.961,373.244h-0.005c-4.14,0-7.497,3.354-7.5,7.495l-0.009,11.876
		c-0.003,4.142,3.352,7.503,7.495,7.505h0.005c4.14,0,7.497-3.354,7.5-7.495l0.009-11.876
		C308.458,376.607,305.103,373.247,300.961,373.244z M454.364,40.454l12.144-12.144c2.929-2.929,2.929-7.678,0-10.607
		c-2.929-2.93-7.678-2.929-10.606,0l-12.144,12.145c-2.929,2.929-2.929,7.678,0,10.606
		C446.686,43.383,451.435,43.383,454.364,40.454z M414.262,71.127c-4.142,0-7.5,3.358-7.5,7.5v27.916
		c0,5.316-4.325,9.641-9.641,9.641H364.88V42.929h32.241c3.074,0,5.893,1.416,7.735,3.885c2.478,3.321,7.178,4.002,10.497,1.526
		c3.32-2.478,4.003-7.177,1.526-10.497c-4.633-6.208-12.018-9.914-19.758-9.914h-33.045c-4.038-18.749-22.459-31.044-41.54-27.237
		L145.586,35.96c-28.517,5.684-49.215,30.915-49.215,59.993v21.882c0,19.531,15.89,35.42,35.42,35.42h25.68v35.574
		c0,6.474-3.488,12.372-9.104,15.39C77.515,242.315,39.489,328.473,39.489,408.307c0,40.201,12.158,69.59,37.168,89.847
		c6.953,5.632,14.943,9.625,23.748,11.867c4.022,1.025,8.099-1.411,9.119-5.417c1.023-4.014-1.403-8.097-5.417-9.119
		c-6.691-1.704-12.75-4.728-18.008-8.987c-21.271-17.227-31.61-42.804-31.61-78.191c0-39.631,10.143-81.614,29.516-117.127
		c40.229-20.086,122.512-21.972,175.096,5.801c26.857,14.185,52.606,22.205,74.465,23.192c18.214,0.824,39.241-3.284,48.97-18.617
		c15.628,32.549,24.227,70.292,24.227,106.75c0,35.387-10.339,60.963-31.609,78.191C366.791,493.27,356.085,497,345.008,497H137.28
		c-4.142,0-7.5,3.358-7.5,7.5s3.358,7.5,7.5,7.5h207.728c14.503,0,28.561-4.917,39.586-13.846
		c25.01-20.257,37.168-49.646,37.168-89.847c0-80.018-38.141-166.053-108.88-204.087c-5.615-3.018-9.103-8.916-9.103-15.39v-35.574
		h31.53c13.715,0,25.276-9.386,28.605-22.071h33.208c13.587,0,24.641-11.054,24.641-24.641V78.627
		C421.762,74.485,418.404,71.127,414.262,71.127z M368.37,276.352c0.122,0.185,0.241,0.373,0.362,0.559
		c0.036,0.063,0.065,0.129,0.103,0.191c3.018,4.996,5.319,12.326-0.861,18.871c-6.179,6.545-18.479,9.903-33.733,9.214
		c-16.799-0.759-36.449-6.304-57.352-16.105C305.747,270.599,357.171,259.351,368.37,276.352z M305.779,217.431
		c16.549,8.898,31.655,20.982,44.894,35.794c-28.997-2.324-67.797,12.046-89.028,28.247
		c-48.536-23.61-117.925-25.555-164.437-11.465c16.069-22.615,35.841-40.52,58.264-52.576c10.486-5.638,17.001-16.597,17.001-28.602
		v-35.574h116.307v35.574C288.779,200.834,295.293,211.793,305.779,217.431z M349.88,123.684c0,8.034-6.537,14.571-14.571,14.571
		H131.791c-11.26,0-20.42-9.161-20.42-20.42V95.952c0-21.948,15.623-40.992,37.147-45.282l176.95-35.268
		c12.668-2.524,24.412,7.189,24.412,20.026V123.684z M454.364,118.66c-2.929-2.929-7.678-2.929-10.606,0
		c-2.929,2.929-2.929,7.678,0,10.606l12.144,12.144c2.929,2.929,7.678,2.929,10.606,0c2.929-2.929,2.929-7.678,0-10.606
		L454.364,118.66z M247.063,410.806c4.142,0,7.5-3.358,7.5-7.5c0-4.142-3.358-7.5-7.5-7.5h-0.12c-6.101-0.002-20.526,0-29.97-3.861
		c-3.836-1.567-8.213,0.27-9.781,4.104c-1.567,3.835,0.27,8.213,4.104,9.781C222.244,410.306,235.761,410.793,247.063,410.806z
		 M185.136,369.665c-1.204-3.964-5.392-6.203-9.355-4.997c-6.222,1.889-14.212,2.798-16.488,1.902
		c-2.762-2.798-7.259-2.997-10.262-0.379c-3.122,2.722-3.446,7.46-0.725,10.582c3.402,3.901,8.89,5.149,14.519,5.149
		c1.344,0,2.695-0.074,4.028-0.197l-0.008,10.766c-0.003,4.142,3.352,7.503,7.494,7.506h0.006c4.14,0,7.497-3.354,7.5-7.494
		l0.009-11.876c0.001-0.76-0.114-1.494-0.324-2.186C184.604,376.781,186.19,373.137,185.136,369.665z M313.148,358.396
		c-9.856-13.382-26.761-6.97-34.323-1.708c-3.389,2.358-4.221,7.002-1.877,10.402c2.343,3.4,7.008,4.257,10.418,1.929
		c0.099-0.068,10.069-6.665,13.704-1.727c2.457,3.336,7.152,4.047,10.487,1.591C314.891,366.426,315.604,361.731,313.148,358.396z"
		/>
</g>
<g>
</g>
<g>
</g>
<g>
</g>
<g>
</g>
<g>
</g>
<g>
</g>
<g>
</g>
<g>
</g>
<g>
</g>
<g>
</g>
<g>
</g>
<g>
</g>
<g>
</g>
<g>
</g>
<g>
</g>
</svg>
