<?xml version="1.0" encoding="iso-8859-1"?>
<!-- Generator: Adobe Illustrator 23.1.0, SVG Export Plug-In . SVG Version: 6.00 Build 0)  -->
<svg version="1.1" id="Capa_1" xmlns="http://www.w3.org/2000/svg" xmlns:xlink="http://www.w3.org/1999/xlink" x="0px" y="0px"
	 viewBox="0 0 512 512" style="enable-background:new 0 0 512 512;" xml:space="preserve">
<g>
	<path style="fill:#FBF1CF;" d="M266.281,416.037H95.343c-22.728,0-41.152-18.424-41.152-41.152V204.162h212.09V416.037z"/>
	<path style="fill:#F7DFB7;" d="M121.395,416.037h144.885V204.162H132.992C148.739,242.649,161.02,344.213,121.395,416.037z"/>
	<path style="fill:#4E5660;" d="M336.785,241.423H32.121C18.523,241.423,7.5,230.4,7.5,216.801v-11.42
		c0-13.598,11.023-24.621,24.621-24.621h304.663c13.598,0,24.621,11.023,24.621,24.621v11.42
		C361.406,230.4,350.383,241.423,336.785,241.423z"/>
	<path style="fill:#3A4351;" d="M155.464,241.423h181.321c13.598,0,24.621-11.023,24.621-24.621v-11.42
		c0-13.598-11.023-24.622-24.621-24.622h-210.66C137.522,186.944,153.097,215.346,155.464,241.423z"/>
	<path style="fill:#FBF1CF;" d="M58.105,180.76c9.713-28.235,36.488-48.532,68.02-48.532l0,0h306.441
		c39.728,0,71.934,32.206,71.934,71.934v234.255c0,22.728-18.424,41.152-41.152,41.152H239.211
		c-22.728,0-41.152-18.424-41.152-41.152V252.694c0-39.728-32.206-71.934-71.934-71.934H58.105z"/>
	<rect x="198.059" y="360.156" style="fill:#E0B799;" width="306.441" height="35.334"/>
	<rect x="198.059" y="288.122" style="fill:#E0B799;" width="306.441" height="35.334"/>
	<g>
		<g>
			<ellipse style="fill:#EDA1AB;" cx="288.15" cy="244.712" rx="27.03" ry="21.525"/>
			<ellipse style="fill:#EDA1AB;" cx="434.663" cy="244.712" rx="27.03" ry="21.525"/>
		</g>
	</g>
	<g>
		<path style="fill:#F7DFB7;" d="M227.629,189.054c-1.919,0-3.839-0.732-5.303-2.197c-2.929-2.929-2.929-7.678,0-10.606l4.736-4.736
			c2.929-2.929,7.678-2.929,10.607,0c2.929,2.929,2.929,7.678,0,10.607l-4.736,4.736
			C231.468,188.321,229.548,189.054,227.629,189.054z"/>
		<path style="fill:#F7DFB7;" d="M387.688,178.65c-1.919,0-3.839-0.732-5.304-2.197c-2.929-2.929-2.928-7.678,0-10.607l4.736-4.736
			c2.929-2.928,7.677-2.928,10.607,0c2.929,2.929,2.928,7.678,0,10.607l-4.736,4.736C391.527,177.918,389.607,178.65,387.688,178.65
			z"/>
		<path style="fill:#F7DFB7;" d="M306.271,449.895c-1.919,0-3.838-0.732-5.303-2.196l-4.736-4.736
			c-2.929-2.929-2.929-7.678,0-10.607c2.929-2.929,7.677-2.929,10.607,0l4.736,4.736c2.929,2.929,2.929,7.678,0,10.607
			C310.11,449.163,308.19,449.895,306.271,449.895z"/>
		<path style="fill:#F7DFB7;" d="M133.493,374.961c-1.919,0-3.838-0.732-5.303-2.196l-4.736-4.736
			c-2.929-2.929-2.929-7.678-0.001-10.607c2.929-2.929,7.677-2.929,10.607,0l4.736,4.736c2.929,2.929,2.929,7.678,0,10.607
			C137.332,374.229,135.413,374.961,133.493,374.961z"/>
		<path style="fill:#F7DFB7;" d="M100.893,315.79c-1.92,0-3.839-0.733-5.303-2.197c-2.929-2.929-2.929-7.678,0-10.607l4.736-4.736
			c2.929-2.929,7.678-2.929,10.606,0c2.929,2.929,2.929,7.678,0,10.606l-4.736,4.736C104.732,315.057,102.812,315.79,100.893,315.79
			z"/>
		<path style="fill:#F7DFB7;" d="M424.107,444.456c-1.919,0-3.838-0.732-5.303-2.196c-2.929-2.929-2.929-7.678-0.001-10.607
			l4.736-4.736c2.929-2.929,7.677-2.929,10.607,0c2.929,2.929,2.929,7.678,0.001,10.607l-4.736,4.736
			C427.947,443.724,426.027,444.456,424.107,444.456z"/>
	</g>
	<path d="M276.67,65.978c5.032,4.384,5.046,12.188,0,16.585c-3.122,2.722-3.448,7.459-0.727,10.582
		c2.721,3.123,7.459,3.447,10.582,0.727c11.901-10.373,11.889-28.84,0-39.202c-5.042-4.394-5.036-12.195,0-16.584
		c3.123-2.721,3.448-7.459,0.727-10.582c-2.721-3.122-7.459-3.448-10.582-0.727C264.767,37.148,264.781,55.617,276.67,65.978z
		 M217.731,65.978c5.032,4.384,5.046,12.188,0,16.585c-3.123,2.722-3.448,7.459-0.727,10.582c2.721,3.123,7.459,3.447,10.582,0.727
		c11.902-10.373,11.888-28.84,0-39.202c-5.032-4.384-5.047-12.188,0-16.584c3.123-2.722,3.448-7.459,0.727-10.582
		c-2.722-3.123-7.459-3.447-10.582-0.726c-5.672,4.944-8.926,12.088-8.926,19.601C208.806,53.89,212.059,61.034,217.731,65.978z
		 M335.608,65.978c5.042,4.395,5.036,12.195,0,16.585c-3.123,2.721-3.448,7.458-0.727,10.582c2.722,3.123,7.459,3.448,10.582,0.727
		c11.903-10.372,11.889-28.841,0-39.202c-5.032-4.384-5.047-12.188,0-16.584c3.122-2.722,3.448-7.459,0.727-10.582
		c-2.722-3.123-7.458-3.447-10.582-0.726C323.707,37.149,323.719,55.616,335.608,65.978z M372.189,235.646
		c0-6.351-4.828-11.5-10.783-11.5c-5.955,0-10.783,5.149-10.783,11.5c0,6.352,4.828,11.5,10.783,11.5
		C367.362,247.146,372.189,241.997,372.189,235.646z M418.909,230.462c7.513,0,14.657-3.253,19.601-8.926
		c2.721-3.123,2.396-7.86-0.727-10.582c-3.124-2.721-7.86-2.396-10.582,0.727c-2.094,2.403-5.117,3.781-8.293,3.781
		c-3.176,0-6.198-1.378-8.292-3.781c-2.721-3.123-7.458-3.447-10.582-0.727c-3.123,2.722-3.448,7.459-0.727,10.582
		C404.252,227.209,411.396,230.462,418.909,230.462z M303.903,230.462c7.513,0,14.657-3.253,19.601-8.926
		c2.721-3.123,2.396-7.86-0.727-10.582c-3.123-2.721-7.861-2.396-10.582,0.727c-2.094,2.403-5.117,3.781-8.292,3.781
		c-3.176,0-6.198-1.378-8.292-3.781c-2.722-3.123-7.459-3.448-10.581-0.727c-3.123,2.721-3.448,7.458-0.727,10.581
		C289.245,227.209,296.39,230.462,303.903,230.462z M432.566,124.729H204.768c-4.142,0-7.5,3.358-7.5,7.5s3.358,7.5,7.5,7.5h227.798
		c35.529,0,64.434,28.905,64.434,64.434v76.46H205.559c-0.214-22.097,0.574-33.141-1.054-40.774
		c-6.16-37.711-38.954-66.589-78.38-66.589H69.583c11.153-20.416,32.717-33.531,56.542-33.531h43.243c4.142,0,7.5-3.358,7.5-7.5
		s-3.358-7.5-7.5-7.5h-43.243c-32.08,0-60.823,19.294-73.163,48.531h-20.84C14.41,173.26,0,187.669,0,205.381v11.42
		c0,17.712,14.41,32.122,32.122,32.122h14.569v125.962c0,26.827,21.825,48.652,48.652,48.652h95.216v14.88
		c0,26.827,21.825,48.652,48.652,48.652h155.373c4.142,0,7.5-3.358,7.5-7.5c0-4.142-3.358-7.5-7.5-7.5H239.211
		c-18.556,0-33.652-15.096-33.652-33.652V402.99H497v35.428c0,18.556-15.096,33.652-33.652,33.652h-32.621
		c-4.142,0-7.5,3.358-7.5,7.5c0,4.142,3.358,7.5,7.5,7.5h32.621c26.827,0,48.652-21.825,48.652-48.652V204.162
		C512,160.362,476.366,124.729,432.566,124.729z M32.122,233.923c-9.441,0-17.122-7.681-17.122-17.122v-11.42
		c0-9.441,7.681-17.122,17.122-17.122h94.003c29.001,0,53.581,19.262,61.637,45.663H32.122z M190.559,408.537H95.343
		c-18.556,0-33.652-15.096-33.652-33.652V248.923H190.44C190.669,252.867,190.51,242.7,190.559,408.537z M497,387.99H205.559
		v-20.334H497V387.99z M497,352.656H205.559v-21.699H497V352.656z M497,315.957H205.559v-20.334H497V315.957z"/>
</g>
<g>
</g>
<g>
</g>
<g>
</g>
<g>
</g>
<g>
</g>
<g>
</g>
<g>
</g>
<g>
</g>
<g>
</g>
<g>
</g>
<g>
</g>
<g>
</g>
<g>
</g>
<g>
</g>
<g>
</g>
</svg>
