<?xml version="1.0" encoding="iso-8859-1"?>
<!-- Generator: Adobe Illustrator 23.1.0, SVG Export Plug-In . SVG Version: 6.00 Build 0)  -->
<svg version="1.1" id="Capa_1" xmlns="http://www.w3.org/2000/svg" xmlns:xlink="http://www.w3.org/1999/xlink" x="0px" y="0px"
	 viewBox="0 0 512 512" style="enable-background:new 0 0 512 512;" xml:space="preserve">
<g>
	<path style="fill:#F6EE86;" d="M337.822,219.84c12.727-46.51,37.884-91.907,65.945-131.88c8.618-12.277,4.234-29.317-9.273-35.84
		c-36.665-17.709-78.321-29.356-138.5-29.356S154.159,34.41,117.494,52.12c-13.507,6.524-17.891,23.564-9.273,35.84
		c28.061,39.973,53.219,85.37,65.945,131.88H337.822z"/>
	<path style="fill:#F1D88C;" d="M161.19,182.18c5.117,12.413,9.51,24.995,12.976,37.66h163.655
		c3.466-12.665,7.859-25.247,12.976-37.66H161.19z"/>
	<path style="fill:#FBF1CF;" d="M422.19,64.002c-2.922-11.234-10.597-20.575-21.057-25.628C356.926,17.022,312.163,7.5,255.994,7.5
		c-55.895,0-100.494,9.429-144.492,30.563c-8.34,4.006-15.273,10.616-19.197,18.994c-6.141,13.115-4.674,28.141,3.423,39.674
		c3.503,4.99,6.874,9.953,10.122,14.89c5.326,8.097,14.673,12.619,24.317,11.667c42.362-4.179,84.639-22.562,125.827-22.562
		c4.332,0,8.677,0.206,13.032,0.577c5.075,0.432,8.956,4.721,8.956,9.814v27.869c0,11.913,9.657,21.57,21.57,21.57h0
		c11.913,0,21.571-9.657,21.571-21.57v-15.334c0-6.386,5.981-11.082,12.185-9.569c15.999,3.901,32.065,7.55,48.144,9.168
		c9.814,0.987,19.346-3.517,24.769-11.756c3.222-4.895,6.566-9.817,10.039-14.764C422.957,87.191,425.118,75.262,422.19,64.002z"/>
	<path style="fill:#F7DFB7;" d="M111.502,38.062c-8.34,4.006-15.273,10.616-19.197,18.995c-6.141,13.115-4.674,28.141,3.423,39.674
		c3.503,4.99,6.874,9.953,10.122,14.89c5.326,8.097,14.673,12.619,24.317,11.667c29.508-2.911,58.975-12.709,88.062-18.39
		c-38.036-11.819-51.777-67.313-27.705-92.192C162.605,17.539,136.951,25.839,111.502,38.062z"/>
	<path style="fill:#E0B799;" d="M349.083,465.545c-13.63-31.053-17.112-64.854-17.112-84.066H180.018
		c0,19.211-3.482,53.013-17.112,84.066c-8.054,18.349,5.022,38.955,25.06,38.955h136.057
		C344.061,504.5,357.137,483.894,349.083,465.545z"/>
	<path style="fill:#D99A84;" d="M342.786,448.949c-8.447-25.929-10.815-51.647-10.815-67.469H180.018
		c0,15.822-2.368,41.54-10.815,67.469H342.786z"/>
	<path style="fill:#E0B799;" d="M342.563,420.285c11.322,0,22.004-5.458,28.473-14.75c17.104-24.574,22.421-56.495,22.421-85.472
		c0-26.607-4.483-55.697-18.458-79.302c-7.742-13.076-21.982-20.921-37.177-20.921H174.166c-15.195,0-29.436,7.845-37.177,20.921
		c-13.975,23.604-18.458,52.694-18.458,79.302c0,28.977,5.317,60.898,22.421,85.472c6.468,9.292,17.15,14.75,28.473,14.75H342.563z"
		/>
	<path style="fill:#D99A84;" d="M197.741,219.84h-23.575c-15.195,0-29.436,7.845-37.177,20.921
		c-13.975,23.604-18.458,52.694-18.458,79.302c0,28.977,5.317,60.898,22.421,85.472c6.468,9.292,17.15,14.75,28.473,14.75h67.388
		C173.96,377.621,180.25,274.799,197.741,219.84z"/>
	<g>
		<path style="fill:#E0B799;" d="M164.364,370.769c-12.636-4.414-26.666-4.433-39.569-0.618c1.301,4.674,2.838,9.271,4.631,13.753
			c9.856-2.817,20.521-2.748,30.137,0.611c15.289,5.34,25.599,17.961,29.43,35.77h14.849
			C199.556,396.042,185.286,378.077,164.364,370.769z"/>
		<path style="fill:#D99A84;" d="M384.066,260.171c-1.955-5.406-4.267-10.663-6.98-15.7c-36.378-3.501-50.842,16.177-63.846,33.874
			c-10.85,14.765-20.368,27.721-42.752,27.72c-2.54,0-5.25-0.167-8.143-0.518c-20.836-2.523-24.357-46.87-2.203-85.708h-16.536
			c-14.304,28.968-16.126,59.245-8.945,77.917c4.969,12.922,14.179,20.822,25.934,22.246c3.558,0.431,6.904,0.634,10.066,0.634
			c29.566-0.002,42.644-17.793,54.311-33.669C338.028,269.203,349.485,253.633,384.066,260.171z"/>
		<path style="fill:#D99A84;" d="M385.329,376.288c-40.282-10.651-68.49-9.052-86.022,4.845
			c-13.031,10.328-17.364,25.274-18.447,39.151h14.631c0.989-10.336,4.228-20.899,12.86-27.74
			c13.331-10.568,37.392-11.436,71.604-2.616C382.016,385.507,383.799,380.946,385.329,376.288z"/>
	</g>
	<path style="fill:#4E5660;" d="M118.531,320.063c0,7.62,0.381,15.444,1.234,23.283h272.458c0.853-7.84,1.234-15.663,1.234-23.283
		c0-7.62-0.384-15.444-1.237-23.284H119.768C118.915,304.619,118.531,312.443,118.531,320.063z"/>
	<path style="fill:#3A4351;" d="M185.843,296.779h-66.074c-0.853,7.84-1.237,15.664-1.237,23.284c0,7.62,0.381,15.443,1.234,23.284
		h70.282C186.916,328.148,185.686,312.316,185.843,296.779z"/>
	<path d="M404.395,31.621c-6.744-3.257-13.579-6.277-20.316-8.977c-3.842-1.542-8.211,0.327-9.751,4.172
		c-1.541,3.845,0.327,8.211,4.173,9.752c6.418,2.572,12.936,5.452,19.37,8.559c17.792,8.595,23.63,31.085,12.251,47.294
		c-3.458,4.927-6.879,9.957-10.165,14.95c-3.885,5.903-10.683,9.132-17.754,8.418c-16.078-1.618-32.093-5.329-47.118-8.992
		c-10.918-2.663-21.462,5.598-21.462,16.856v15.334c0,7.758-6.311,14.07-14.07,14.07s-14.07-6.312-14.07-14.07v-27.869
		c0-8.938-6.949-16.532-15.819-17.287c-49.791-4.238-93.213,17.356-140.232,21.994c-6.866,0.677-13.493-2.513-17.315-8.325
		c-3.307-5.027-6.755-10.101-10.25-15.078C91,76.943,95.358,54.137,114.749,44.823C157.689,24.198,201.251,15,255.994,15
		c33.219,0,62.411,3.448,89.245,10.542c4.005,1.061,8.109-1.33,9.168-5.334c1.059-4.005-1.329-8.109-5.334-9.168
		C320.971,3.611,290.524,0,255.994,0c-57.106,0-102.67,9.654-147.739,31.302C80.746,44.516,73.254,77.771,89.59,101.04
		c3.407,4.854,6.77,9.801,9.994,14.703c6.173,9.385,16.442,14.955,27.438,15.148c16.784,28.501,29.338,56.155,37.411,82.39
		c-14.086,2.729-26.568,11.278-33.898,23.66c-12.942,21.859-19.504,49.826-19.504,83.122c0,30.741,6.053,64.309,23.766,89.757
		c7.408,10.643,19.396,17.219,32.398,17.898c-2.775,12.526-6.504,24.213-11.157,34.814c-8.639,19.683,1.958,41.964,21.646,47.956
		c3.948,1.2,8.147-1.013,9.359-4.992c1.206-3.963-1.029-8.153-4.992-9.359c-10.878-3.31-17.409-15.887-12.277-27.576
		c5.441-12.396,9.725-26.088,12.766-40.775h146.911c3.04,14.684,7.324,28.376,12.766,40.775c5.786,13.185-3.345,28.44-18.193,28.44
		h-108.71c-4.142,0-7.5,3.358-7.5,7.5s3.358,7.5,7.5,7.5h108.71c25.33,0,42.2-26.068,31.928-49.469
		c-4.653-10.603-8.383-22.29-11.157-34.814c13.002-0.679,24.989-7.255,32.398-17.898c17.684-25.406,23.766-58.936,23.766-89.757
		c0-33.297-6.563-61.264-19.504-83.122c-7.33-12.382-19.813-20.931-33.898-23.66c8.076-26.243,20.636-53.906,37.427-82.416
		c11.061-0.269,21.33-5.865,27.505-15.246c3.205-4.869,6.54-9.773,9.913-14.578C439.07,77.292,430.55,44.256,404.395,31.621z
		 M268.39,108.777c1.174,0.1,2.093,1.128,2.093,2.341v27.869c0,7.721,3.031,14.742,7.958,19.953
		c-3.382,15.023-6.971,34.743-7.781,53.401h-34.535c-1.391-31.261-10.95-70.845-20.685-99.234
		C234.084,109.217,250.098,107.217,268.39,108.777z M143.351,129.149c19.398-3.017,38.538-8.242,57.367-12.73
		c9.494,27.214,18.969,65.738,20.395,95.921h-41.285C171.993,185.758,159.743,157.842,143.351,129.149z M364.881,401.25
		c-5.028,7.223-13.371,11.535-22.317,11.535H169.425c-8.947,0-17.29-4.312-22.316-11.535c-6.993-10.046-14.957-26.175-18.784-50.404
		h255.34C379.837,375.075,371.873,391.204,364.881,401.25z M385.384,335.846h-258.78c-0.759-10.259-0.772-21.08,0.011-31.567
		h258.758C386.153,314.72,386.147,325.545,385.384,335.846z M368.545,244.583c7.298,12.326,12.379,27.479,15.098,44.696H128.346
		c2.718-17.217,7.799-32.371,15.097-44.697c10.725-18.116,30.875-17.282,30.719-17.24c1.546,0,168.063,0.001,163.679-0.001
		C350.488,227.348,362.252,233.952,368.545,244.583z M332.16,212.34h-46.49c0.723-15.469,3.491-31.845,6.348-45.279
		c18.519,4.976,36.605-9.075,36.605-28.074v-15.334c0-1.534,1.434-2.644,2.909-2.283c11.352,2.768,24.118,5.752,37.107,7.774
		C352.247,157.838,339.996,185.757,332.16,212.34z"/>
</g>
<g>
</g>
<g>
</g>
<g>
</g>
<g>
</g>
<g>
</g>
<g>
</g>
<g>
</g>
<g>
</g>
<g>
</g>
<g>
</g>
<g>
</g>
<g>
</g>
<g>
</g>
<g>
</g>
<g>
</g>
</svg>
