<?xml version="1.0" encoding="iso-8859-1"?>
<!-- Generator: Adobe Illustrator 23.1.0, SVG Export Plug-In . SVG Version: 6.00 Build 0)  -->
<svg version="1.1" id="Capa_1" xmlns="http://www.w3.org/2000/svg" xmlns:xlink="http://www.w3.org/1999/xlink" x="0px" y="0px"
	 viewBox="0 0 512 512" style="enable-background:new 0 0 512 512;" xml:space="preserve">
<g>
	<path style="fill:#A2DDFD;" d="M390.738,504.5c16.702,0,29.315-15.233,26.11-31.625C402.112,397.49,335.699,340.603,256,340.603
		S109.888,397.49,95.152,472.875c-3.204,16.392,9.408,31.625,26.11,31.625H390.738z"/>
	<path style="fill:#7ACDF9;" d="M200.887,350.11c-53.767,19.196-94.575,65.671-105.736,122.765
		c-3.204,16.392,9.408,31.625,26.11,31.625h111.782C199.058,477.924,183.148,389.968,200.887,350.11z"/>
	<path style="fill:#FBF1CF;" d="M256,411.457l-68.057,45.367c-10.684,7.122-25.169,1.004-27.514-11.62l-13.762-74.099L256,411.457z"
		/>
	<path style="fill:#FBF1CF;" d="M256,411.457l68.057,45.367c10.684,7.122,25.169,1.004,27.514-11.62l13.762-74.099L256,411.457z"/>
	<path style="fill:#FFD3BD;" d="M7.5,236.036c0,37.227,31.872,67.405,78.706,67.405c37.227,0,67.405-30.178,67.405-67.405
		c0-37.226-30.178-67.404-67.405-67.404C39.372,168.631,7.5,198.809,7.5,236.036z"/>
	<path style="fill:#FFBE9D;" d="M504.5,236.036c0,37.227-31.872,67.405-78.706,67.405c-37.227,0-67.405-30.178-67.405-67.405
		c0-37.226,30.178-67.404,67.405-67.404C472.628,168.631,504.5,198.809,504.5,236.036z"/>
	<path style="fill:#FFD3BD;" d="M457.182,261.796c0,111.11-90.072,149.661-201.182,149.661S54.818,372.905,54.818,261.796
		c0-111.11,82.27-201.182,201.182-201.182S457.182,150.686,457.182,261.796z"/>
	<path style="fill:#FFBE9D;" d="M173.035,77.013C100.525,107.871,54.818,178.985,54.818,261.796
		c0,111.109,90.072,149.661,201.182,149.661c44.514,0,85.644-6.197,118.965-20.759C117.392,411.457,104.042,164.589,173.035,77.013z
		"/>
	<g>
		<g>
			<path style="fill:#EDA1AB;" d="M183.152,261.561c0,18.735-19.071,33.922-42.597,33.922c-23.526,0-42.597-15.187-42.597-33.922
				c0-18.734,19.071-33.922,42.597-33.922C164.081,227.639,183.152,242.827,183.152,261.561z"/>
			<path style="fill:#EDA1AB;" d="M328.848,261.561c0,18.735,19.071,33.922,42.597,33.922c23.526,0,42.597-15.187,42.597-33.922
				c0-18.734-19.071-33.922-42.597-33.922C347.919,227.639,328.848,242.827,328.848,261.561z"/>
		</g>
	</g>
	<path style="fill:#4E5660;" d="M247.347,430.059c4.913,4.521,12.392,4.521,17.306,0c31.888-29.34,126.234-57.265,101.505-130.326
		c-15.911-47.007-63.86-56.211-110.158-56.211s-94.247,9.204-110.158,56.211C121.113,372.794,215.459,400.719,247.347,430.059z"/>
	<path style="fill:#4E5660;" d="M256,7.5c68.394,0,76.833,42.545,137.462,35.991c14.841-1.604,23.802,16.052,13.934,27.252
		c-48.191,54.696-97.503,65.889-151.395,65.889c-50.048,0-90.619-9.169-90.619-51.851C165.381,42.1,205.952,7.5,256,7.5z"/>
	<path d="M285.546,284.96c2.722-3.122,2.397-7.86-0.727-10.582c-3.123-2.721-7.859-2.396-10.582,0.727
		c-4.604,5.282-11.251,8.312-18.237,8.312s-13.634-3.03-18.237-8.312c-2.723-3.123-7.46-3.447-10.582-0.727
		c-3.123,2.722-3.448,7.46-0.727,10.582c7.453,8.552,18.223,13.457,29.546,13.457C267.323,298.417,278.093,293.512,285.546,284.96z
		 M441.061,162.197c-12.561-24.316-29.888-45.816-51.374-63.282c7.98-6.882,15.745-14.598,23.336-23.213
		c14.378-16.319,1.262-41.995-20.366-39.667c-11.108,1.2-21.03,0.715-30.335-1.486c-4.03-0.953-8.071,1.542-9.025,5.573
		c-0.953,4.031,1.542,8.071,5.572,9.025c10.99,2.598,22.569,3.188,35.399,1.801c8.038-0.874,12.841,8.776,7.501,14.838
		C352.715,121.459,302.72,129.133,256,129.133c-28.034,0-47.391-2.93-60.914-9.22c-15.149-7.046-22.205-18.209-22.205-35.131
		C172.881,46.304,210.168,15,256,15c29.193,0,45.984,7.654,67.627,19.309c3.647,1.965,8.196,0.599,10.159-3.048
		c1.964-3.647,0.6-8.195-3.048-10.159C307.284,8.471,288.466,0,256,0c-50.471,0-92.156,33.098-97.528,75.493
		c-38.137,19.174-68.195,49.586-87.386,86.681C27.177,168.219,0,200.014,0,236.036c0,31.544,20.46,58.376,52.494,69.443
		c10.018,39.2,34.538,68.856,72.913,88.056c-19.034,22.363-31.983,49.085-37.616,77.902C83.677,492.476,99.856,512,121.262,512
		h14.005c4.143,0,7.5-3.358,7.5-7.5s-3.357-7.5-7.5-7.5h-14.005c-11.998,0-21.045-10.94-18.75-22.685
		c5.418-27.713,18.246-53.317,37.197-74.369c1.664,0.666,3.343,1.32,5.049,1.951l8.298,44.678
		c3.321,17.885,23.872,26.608,39.048,16.491l46.238-30.822c4.285,3.409,5.656,5.457,10.159,7.271V497h-76.153
		c-4.143,0-7.5,3.358-7.5,7.5s3.357,7.5,7.5,7.5h218.392c21.441,0,37.577-19.559,33.471-40.564
		c-5.633-28.817-18.583-55.539-37.616-77.902c38.336-19.181,62.885-48.818,72.913-88.056C491.54,294.412,512,267.579,512,236.036
		C512,200.417,485.246,168.344,441.061,162.197z M49.046,287.834C-1.04,263.24,4.416,194.368,63.326,178.986
		C48.598,215.013,44.509,255.01,49.046,287.834z M183.783,450.584c-6.178,4.118-14.609,0.636-15.98-6.749l-6.805-36.639
		c16.578,4.743,34.867,8.062,54.795,9.939c3.233,1.982,6.378,3.935,9.373,5.862L183.783,450.584z M252.426,424.54
		c-32.897-30.269-122.04-55.747-99.479-122.403c11.803-34.872,44.549-51.115,103.053-51.115s91.25,16.242,103.053,51.115
		c22.561,66.654-66.524,92.08-99.479,122.403C257.537,426.414,254.463,426.414,252.426,424.54z M296.207,417.135
		c19.928-1.877,38.217-5.196,54.795-9.939l-6.805,36.64c-1.355,7.301-9.731,10.913-15.978,6.748l-41.384-27.586
		C289.83,421.071,292.974,419.117,296.207,417.135z M409.488,474.315c2.291,11.728-6.735,22.685-18.75,22.685H263.5v-57.486
		c4.499-1.812,5.849-3.842,10.159-7.271l46.238,30.822c15.135,10.091,35.717,1.441,39.047-16.49l8.298-44.678
		c1.706-0.631,3.385-1.285,5.049-1.951C391.242,420.998,404.071,446.601,409.488,474.315z M327.255,397.523
		c32.38-22.29,62.134-52.548,46.007-100.195c-16.711-49.37-65.205-61.306-117.262-61.306c-52.078,0-100.555,11.948-117.262,61.306
		c-16.127,47.647,13.626,77.905,46.007,100.195c-76.21-15.266-122.426-57.926-122.426-135.727
		c0-72.31,36.491-136.087,95.998-169.246c5.098,44.545,53.005,51.583,97.684,51.583c45.658,0,84.487-8.214,121.685-35.633
		c47.607,37.326,71.997,94.019,71.997,153.297C449.682,340.162,402.87,382.376,327.255,397.523z M462.954,287.834
		c4.467-32.318,0.629-72.509-14.148-108.811C507.698,194.507,512.917,263.3,462.954,287.834z M165.381,203.993
		c-4.143,0-7.5,3.358-7.5,7.5v17.413c0,4.142,3.357,7.5,7.5,7.5c4.143,0,7.5-3.358,7.5-7.5v-17.413
		C172.881,207.351,169.523,203.993,165.381,203.993z M302.138,79.359c-18.168,3.029-60.467,1.093-73.311-2.41
		c-3.991-1.088-8.119,1.266-9.209,5.262c-1.09,3.997,1.266,8.12,5.262,9.209c15.439,4.21,59.211,6.153,79.725,2.734
		c4.085-0.681,6.846-4.545,6.165-8.631C310.088,81.439,306.233,78.677,302.138,79.359z M346.619,203.993c-4.143,0-7.5,3.358-7.5,7.5
		v17.413c0,4.142,3.357,7.5,7.5,7.5c4.143,0,7.5-3.358,7.5-7.5v-17.413C354.119,207.351,350.762,203.993,346.619,203.993z"/>
</g>
<g>
</g>
<g>
</g>
<g>
</g>
<g>
</g>
<g>
</g>
<g>
</g>
<g>
</g>
<g>
</g>
<g>
</g>
<g>
</g>
<g>
</g>
<g>
</g>
<g>
</g>
<g>
</g>
<g>
</g>
</svg>
