<?xml version="1.0" encoding="iso-8859-1"?>
<!-- Generator: Adobe Illustrator 23.1.0, SVG Export Plug-In . SVG Version: 6.00 Build 0)  -->
<svg version="1.1" id="Capa_1" xmlns="http://www.w3.org/2000/svg" xmlns:xlink="http://www.w3.org/1999/xlink" x="0px" y="0px"
	 viewBox="0 0 512 512" style="enable-background:new 0 0 512 512;" xml:space="preserve">
<g>
	<path style="fill:#FBF1CF;" d="M445.047,481.94H66.953c-32.835,0-59.453-26.618-59.453-59.453V218.965
		c0-32.835,26.618-59.453,59.453-59.453h378.094c32.835,0,59.453,26.618,59.453,59.453v203.522
		C504.5,455.322,477.882,481.94,445.047,481.94z"/>
	<path style="fill:#F7DFB7;" d="M66.953,159.512c-32.835,0-59.453,26.618-59.453,59.453v203.522
		c0,32.835,26.618,59.453,59.453,59.453h103.264c-56.63-55.391-79.133-175.652-61.174-322.429H66.953z"/>
	<path style="fill:#A2DDFD;" d="M445.047,421.953H66.953C34.118,421.953,7.5,395.335,7.5,362.5v59.987
		c0,32.835,26.618,59.453,59.453,59.453h378.094c32.835,0,59.453-26.618,59.453-59.453V362.5
		C504.5,395.335,477.882,421.953,445.047,421.953z"/>
	<path style="fill:#7ACDF9;" d="M7.5,362.5v59.987c0,32.835,26.618,59.453,59.453,59.453h103.264
		c-15.653-15.311-28.702-35.572-39.007-59.987H66.953C34.118,421.953,7.5,395.335,7.5,362.5z"/>
	<path style="fill:#4E5660;" d="M446.928,124.267H65.072c-12.581,0-22.78-10.199-22.78-22.78V72.281
		c0-23.318,18.903-42.221,42.221-42.221h342.974c23.318,0,42.221,18.903,42.221,42.221v29.206
		C469.708,114.068,459.509,124.267,446.928,124.267z"/>
	<path style="fill:#3A4351;" d="M198.621,30.06H84.513c-23.318,0-42.221,18.903-42.221,42.221v29.206
		c0,12.581,10.199,22.78,22.78,22.78H214.72C195.359,103.708,189.992,60.554,198.621,30.06z"/>
	<rect x="85.178" y="124.267" style="fill:#7ACDF9;" width="341.645" height="35.245"/>
	<rect x="181.232" y="159.512" style="fill:#EDA1AB;" width="149.535" height="322.429"/>
	<rect x="248.5" y="159.512" style="fill:#FFFFFF;" width="15" height="322.429"/>
	<path style="fill:#4E5660;" d="M248.687,258.476c4.248,3.544,10.379,3.544,14.627,0c7.104-5.926,15.993-9.767,25.682-10.531
		c14.195-1.119,27.172,4.2,36.319,13.347c14.754,14.754,18.935,52.009,53.824,61.287c8.173,2.173,9.759,13.115,2.581,17.588
		c-31.515,19.635-80.801,28.629-125.72-18.505c-44.919,47.134-94.205,38.14-125.72,18.505c-7.178-4.472-5.592-15.414,2.581-17.588
		c34.889-9.277,39.07-46.533,53.824-61.287c9.148-9.148,22.124-14.467,36.319-13.347
		C232.694,248.709,241.582,252.55,248.687,258.476z"/>
	<path d="M445.047,152.012h-10.725v-20.245h12.605c16.696,0,30.28-13.584,30.28-30.28V72.281c0-27.417-22.305-49.721-49.721-49.721
		H113.589c-4.143,0-7.5,3.358-7.5,7.5s3.357,7.5,7.5,7.5h313.898c19.146,0,34.721,15.576,34.721,34.721v29.206
		c0,8.426-6.855,15.28-15.28,15.28h-68.643V77.163c0-4.142-3.357-7.5-7.5-7.5c-4.143,0-7.5,3.358-7.5,7.5v39.604H263.5V77.163
		c0-4.142-3.357-7.5-7.5-7.5c-4.143,0-7.5,3.358-7.5,7.5v39.604h-99.784V77.163c0-4.142-3.357-7.5-7.5-7.5
		c-4.143,0-7.5,3.358-7.5,7.5v39.604H65.072c-8.426,0-15.28-6.854-15.28-15.28V72.281c0-17.195,12.303-31.618,29.254-34.294
		c4.092-0.646,6.885-4.486,6.238-8.578c-0.646-4.091-4.482-6.881-8.578-6.238C52.42,27.005,34.792,47.659,34.792,72.281v29.206
		c0,16.697,13.584,30.28,30.28,30.28h12.605v20.245H66.953C30.035,152.012,0,182.047,0,218.965v203.523
		c0,36.918,30.035,66.953,66.953,66.953h354.435c4.143,0,7.5-3.358,7.5-7.5s-3.357-7.5-7.5-7.5h-83.12v-44.987h106.779
		c20.945,0,39.667-9.674,51.953-24.781v17.815c0,24.443-17.331,45.825-41.208,50.842c-4.054,0.852-6.649,4.829-5.798,8.882
		c0.852,4.054,4.829,6.648,8.882,5.798C489.658,481.541,512,453.985,512,422.487V218.965
		C512,182.047,481.965,152.012,445.047,152.012z M92.678,131.767h326.645v20.245H92.678V131.767z M323.268,167.012v82.857
		c-19.086-13.239-45.562-13.163-64.759,2.848c-1.477,1.232-3.541,1.232-5.018,0c0,0,0,0-0.001,0
		c-19.199-16.016-45.674-16.083-64.758-2.848v-82.857H323.268z M173.732,474.44H66.953C38.306,474.44,15,451.134,15,422.487v-17.815
		c12.286,15.107,31.008,24.781,51.953,24.781h106.779V474.44z M173.732,414.453H66.953C38.306,414.453,15,391.147,15,362.5V218.965
		c0-28.647,23.306-51.953,51.953-51.953h106.779v99.17c-10.689,17.848-17.186,42.339-42.8,49.15
		c-14.513,3.859-17.385,23.247-4.619,31.201c11.043,6.88,27.461,14.625,47.419,16.582V414.453z M323.268,474.44H188.732V363.425
		c24.338-1.376,46.935-11.848,67.268-31.164c20.332,19.316,42.93,29.788,67.268,31.164V474.44z M330.768,348.551
		c-0.345,0-0.682,0.031-1.015,0.077c-20.465,0.316-44.463-7.102-68.323-32.14c-2.95-3.095-7.899-3.105-10.859,0
		c-23.863,25.04-47.863,32.456-68.33,32.139c-2.043-0.275-23.165,0.646-47.996-14.826c-1.617-1.008-1.294-3.485,0.543-3.974
		c38.532-10.246,43.973-50.005,57.199-63.232c13.74-13.738,36.2-15.453,51.895-2.36c7.022,5.857,17.214,5.857,24.236,0
		c15.746-13.135,38.2-11.331,51.893,2.36c13.244,13.242,18.647,52.98,57.2,63.232c1.833,0.487,2.162,2.965,0.543,3.974
		C361.748,343.775,344.044,348.551,330.768,348.551z M497,362.5c0,28.647-23.306,51.953-51.953,51.953H338.268v-51.347
		c19.958-1.956,36.377-9.694,47.419-16.574c12.743-7.94,9.917-27.336-4.619-31.201c-25.585-6.803-32.029-31.165-42.8-49.15v-99.17
		h106.779c28.647,0,51.953,23.306,51.953,51.953V362.5z"/>
</g>
<g>
</g>
<g>
</g>
<g>
</g>
<g>
</g>
<g>
</g>
<g>
</g>
<g>
</g>
<g>
</g>
<g>
</g>
<g>
</g>
<g>
</g>
<g>
</g>
<g>
</g>
<g>
</g>
<g>
</g>
</svg>
