<?xml version="1.0" encoding="iso-8859-1"?>
<!-- Generator: Adobe Illustrator 23.1.0, SVG Export Plug-In . SVG Version: 6.00 Build 0)  -->
<svg version="1.1" id="Capa_1" xmlns="http://www.w3.org/2000/svg" xmlns:xlink="http://www.w3.org/1999/xlink" x="0px" y="0px"
	 viewBox="0 0 512.014 512.014" style="enable-background:new 0 0 512.014 512.014;" xml:space="preserve">
<g>
	<path style="fill:#E0B799;" d="M38.52,394.917L140.03,496.428c10.771,10.771,28.233,10.771,39.004,0l0,0
		c10.771-10.771,10.771-28.234,0-39.005l-40.939-40.939c-5.024-5.024-5.024-13.17,0-18.194l22.155-22.155
		c5.024-5.024,13.17-5.024,18.194,0l40.939,40.939c10.771,10.771,28.234,10.771,39.004,0l0,0c10.771-10.771,10.771-28.234,0-39.005
		l-40.939-40.939c-5.024-5.024-5.024-13.17,0-18.194l22.155-22.155c5.024-5.024,13.17-5.024,18.194,0l40.939,40.939
		c10.771,10.771,28.233,10.771,39.004,0l0,0c10.771-10.771,10.771-28.234,0-39.005l-40.939-40.939
		c-5.024-5.024-5.024-13.17,0-18.194l22.155-22.155c5.024-5.024,13.17-5.024,18.194,0l40.939,40.939
		c10.771,10.771,28.234,10.771,39.004,0l0,0c10.771-10.771,10.771-28.234,0-39.004l-40.939-40.939
		c-5.024-5.024-5.024-13.17,0-18.194l22.155-22.155c5.024-5.024,13.17-5.024,18.194,0l40.939,40.939
		c10.771,10.771,28.234,10.771,39.004,0l0,0c10.771-10.771,10.771-28.234,0-39.005L394.939,38.497
		c-41.322-41.322-108.318-41.322-149.64,0L38.52,245.277C-2.802,286.599-2.802,353.595,38.52,394.917z"/>
	<path style="fill:#D99A84;" d="M159.603,437.992l-21.507-21.507c-5.024-5.024-5.024-13.17,0-18.194l22.155-22.155
		c5.024-5.024,13.17-5.024,18.194,0l21.507,21.507l39.005-39.005L217.45,337.13c-2.793-2.793-4.028-6.55-3.715-10.201
		c-43.813-40.36-65.557-103.704-60.112-196.756L38.519,245.277c-41.322,41.322-41.322,108.318,0,149.64l82.079,82.079
		L159.603,437.992z"/>
	<g>
		<path style="fill:#E0B799;" d="M89.255,276.662c17.984-21.89,7.31-52.526,1.81-83.93l-12.472,12.472
			c5.086,25.604,10.999,48.113-0.588,62.215c-15.083,18.359-40.473,23.242-65.461,20.427c-1.494,4.683-2.655,9.449-3.481,14.262
			C39.259,305.915,70.29,299.746,89.255,276.662z"/>
		<path style="fill:#E0B799;" d="M139.103,397.283l10.575-10.575c-17.707-11.321-35.746-16.899-53.924-16.616
			c-22.245,0.351-42.112,9.224-59.785,22.174c0.834,0.893,1.68,1.779,2.55,2.65l7.825,7.825
			c13.696-9.597,30.743-17.793,49.639-18.091C110.304,384.423,124.726,388.659,139.103,397.283z"/>
		<path style="fill:#D99A84;" d="M412.677,56.235c-8.722,19.099-26.952,34.049-45.972,49.649
			c-33.597,27.553-70.771,58.054-52.133,115.931l4.387-4.387c2.333-2.333,5.34-3.569,8.395-3.735
			c-12.472-44.517,13.275-67.594,48.584-96.551c18.242-14.96,36.904-30.272,47.602-50.044L412.677,56.235z"/>
		<path style="fill:#D99A84;" d="M263.123,89.987c27.729-9.188,48.558-36.882,62.008-82.363c-5.113-0.241-10.239-0.112-15.337,0.385
			c-11.945,37.922-29.148,60.832-51.25,68.156c-15.804,5.236-32.383,1.876-46.738-4.175l-10.995,10.995
			C220.798,92.442,242.713,96.75,263.123,89.987z"/>
	</g>
	<g>
		<g>
			
				<ellipse transform="matrix(0.7071 -0.7071 0.7071 0.7071 -168.2242 192.511)" style="fill:#FFFFFF;" cx="148.269" cy="299.319" rx="39.416" ry="31.389"/>
			
				<ellipse transform="matrix(0.7071 -0.7071 0.7071 0.7071 -17.1508 255.0868)" style="fill:#FFFFFF;" cx="299.342" cy="148.246" rx="39.416" ry="31.389"/>
		</g>
	</g>
	<g>
		<path style="fill:#F1D88C;" d="M179.035,496.428L179.035,496.428c10.771-10.771,10.771-28.234,0-39.005l-19.431-19.431
			l-39.005,39.005l19.432,19.431C150.801,507.198,168.264,507.198,179.035,496.428z"/>
		<path style="fill:#F6EE86;" d="M337.742,337.72L337.742,337.72c10.771-10.771,10.771-28.234,0-39.005l-19.431-19.431
			l-39.005,39.004l19.432,19.432C309.509,348.491,326.971,348.491,337.742,337.72z"/>
		<path style="fill:#F1D88C;" d="M258.388,417.074L258.388,417.074c10.771-10.771,10.771-28.234,0-39.004l-19.432-19.432
			l-39.005,39.005l19.432,19.431C230.155,427.845,247.618,427.845,258.388,417.074z"/>
		<path style="fill:#F6EE86;" d="M417.096,258.366c10.771-10.771,10.771-28.234,0-39.004l-19.431-19.432l-39.005,39.005
			l19.431,19.432C388.862,269.137,406.325,269.137,417.096,258.366z"/>
		<path style="fill:#F6EE86;" d="M438.014,159.581l19.432,19.432c10.771,10.771,28.234,10.771,39.004,0
			c10.771-10.771,10.771-28.234,0-39.004l-19.431-19.432L438.014,159.581z"/>
	</g>
	<path d="M270.517,133.187c2.93,2.929,7.678,2.929,10.607,0c2.929-2.929,2.929-7.678,0-10.606c-9.855-9.856-25.893-9.855-35.748,0
		c-9.855,9.856-9.855,25.891,0,35.747c2.929,2.929,7.678,2.929,10.607,0c2.929-2.929,2.929-7.678,0-10.607
		c-4.007-4.007-4.007-10.527,0-14.534C259.991,129.18,266.511,129.18,270.517,133.187z M186.981,210.228
		c-4.13-0.293-7.712,2.836-7.996,6.969c-0.284,4.132,2.836,7.712,6.969,7.996c10.62,0.729,21.037-3.156,28.571-10.69
		c7.524-7.524,11.42-17.938,10.69-28.571c-0.284-4.133-3.872-7.245-7.996-6.969c-4.132,0.284-7.252,3.864-6.969,7.996
		c0.433,6.307-1.874,12.48-6.332,16.937C199.461,208.353,193.29,210.661,186.981,210.228z M43.823,389.614
		c-38.419-38.419-38.426-100.608,0-139.034L250.602,43.801c29.565-29.566,74.704-37.208,112.323-19.018
		c3.728,1.803,8.214,0.241,10.017-3.487c1.804-3.729,0.242-8.213-3.487-10.017C326.094-9.688,274.069-0.88,239.996,33.194
		L33.216,239.974c-44.282,44.281-44.288,115.958,0,160.247l41.447,41.447c2.929,2.929,7.678,2.929,10.606,0
		c2.929-2.929,2.929-7.678,0-10.606L43.823,389.614z M330.126,65.371l-19.308,19.308c-2.929,2.929-2.929,7.678,0,10.606
		c2.93,2.929,7.678,2.929,10.608,0l19.308-19.308c2.929-2.929,2.929-7.678,0-10.607C337.803,62.442,333.055,62.442,330.126,65.371z
		 M126.722,245.286c-2.929,2.929-2.929,7.678,0,10.606l10.847,10.847c2.929,2.929,7.678,2.929,10.606,0
		c2.929-2.929,2.929-7.678,0-10.607l-10.847-10.847C134.4,242.357,129.651,242.357,126.722,245.286z M501.754,134.705
		L400.243,33.194c-2.93-2.929-7.678-2.929-10.607,0c-2.929,2.929-2.929,7.678,0,10.606l101.511,101.511
		c7.829,7.829,7.829,20.568,0,28.398c-7.846,7.848-20.549,7.848-28.397,0l-40.94-40.939c-7.939-7.94-20.859-7.939-28.801,0
		l-22.155,22.156c-7.94,7.94-7.939,20.86,0,28.8l40.939,40.939c7.829,7.83,7.829,20.569,0.001,28.398
		c-7.831,7.83-20.569,7.829-28.398,0.001l-40.939-40.939c-7.958-7.958-20.842-7.96-28.802,0L291.5,234.28
		c-7.938,7.94-7.938,20.859,0,28.8l40.939,40.939c7.849,7.851,7.848,20.549-0.001,28.398c-7.828,7.829-20.568,7.829-28.397,0
		l-40.94-40.939c-7.96-7.959-20.841-7.96-28.8,0l-22.155,22.155c-7.958,7.958-7.961,20.841,0,28.8l40.938,40.939
		c7.849,7.849,7.849,20.549,0,28.398c-7.829,7.829-20.569,7.829-28.398,0l-40.939-40.939c-7.96-7.96-20.841-7.96-28.801,0
		l-22.155,22.155c-7.958,7.957-7.96,20.841,0,28.8l40.939,40.939c7.829,7.83,7.829,20.569,0,28.398
		c-7.848,7.847-20.549,7.848-28.398,0l-35.379-35.379c-2.929-2.929-7.678-2.929-10.606,0c-2.929,2.929-2.929,7.678,0,10.607
		l35.379,35.379c13.708,13.709,35.899,13.711,49.611,0c13.677-13.678,13.677-35.934,0-49.611l-40.939-40.938
		c-2.097-2.097-2.097-5.491,0-7.587l22.155-22.155c2.098-2.097,5.49-2.098,7.587,0l40.939,40.939
		c13.679,13.678,35.934,13.678,49.61,0c13.711-13.709,13.714-35.9,0.001-49.611l-40.939-40.94c-2.097-2.096-2.097-5.489,0-7.587
		l22.155-22.155c2.097-2.097,5.49-2.097,7.587,0l40.939,40.939c13.678,13.678,35.933,13.677,49.61,0
		c13.711-13.708,13.714-35.9,0.001-49.611l-40.939-40.938c-2.092-2.092-2.092-5.496,0-7.588l22.155-22.155
		c2.094-2.096,5.491-2.098,7.587,0l40.939,40.939c13.678,13.678,35.933,13.677,49.612-0.001c13.677-13.677,13.677-35.933,0-49.611
		l-40.939-40.939c-2.092-2.092-2.092-5.496,0-7.587l22.154-22.155c2.093-2.091,5.497-2.093,7.588-0.001l40.94,40.939
		c13.709,13.709,35.9,13.712,49.611,0C515.43,170.638,515.43,148.382,501.754,134.705z M95.308,310.796
		c-2.928-2.929-7.677-2.929-10.606,0l-19.309,19.308c-2.929,2.929-2.929,7.677,0,10.607c2.928,2.929,7.677,2.929,10.606,0
		l19.309-19.308C98.237,318.474,98.237,313.725,95.308,310.796z"/>
</g>
<g>
</g>
<g>
</g>
<g>
</g>
<g>
</g>
<g>
</g>
<g>
</g>
<g>
</g>
<g>
</g>
<g>
</g>
<g>
</g>
<g>
</g>
<g>
</g>
<g>
</g>
<g>
</g>
<g>
</g>
</svg>
