<?xml version="1.0" encoding="iso-8859-1"?>
<!-- Generator: Adobe Illustrator 23.1.0, SVG Export Plug-In . SVG Version: 6.00 Build 0)  -->
<svg version="1.1" id="Capa_1" xmlns="http://www.w3.org/2000/svg" xmlns:xlink="http://www.w3.org/1999/xlink" x="0px" y="0px"
	 viewBox="0 0 512 512" style="enable-background:new 0 0 512 512;" xml:space="preserve">
<g>
	<path style="fill:#4E5660;" d="M435.902,79.178h-94.904v45.616h94.904c7.345,0,13.3-5.955,13.3-13.3V92.478
		C449.202,85.133,443.247,79.178,435.902,79.178z"/>
	<rect x="340.998" y="79.178" style="fill:#3A4351;" width="54.102" height="45.616"/>
	<path style="fill:#4E5660;" d="M435.902,443.142h-94.904v-45.616h94.904c7.345,0,13.3,5.954,13.3,13.3v19.017
		C449.202,437.187,443.247,443.142,435.902,443.142z"/>
	<rect x="340.998" y="397.526" style="fill:#3A4351;" width="54.102" height="45.616"/>
	<path style="fill:#A2DDFD;" d="M286.448,7.5H143.702c-16.82,0-31.811,10.61-37.404,26.473l-9.096,25.799h235.746l-9.096-25.799
		C318.259,18.11,303.268,7.5,286.448,7.5z"/>
	<path style="fill:#7ACDF9;" d="M183.849,7.5h-40.147c-16.82,0-31.811,10.61-37.404,26.473l-9.096,25.799h99.087
		C184.072,44.179,180.857,22.586,183.849,7.5z"/>
	<path style="fill:#A2DDFD;" d="M286.448,504.5H143.702c-16.82,0-31.811-10.61-37.404-26.473l-9.096-25.799h235.746l-9.096,25.799
		C318.259,493.89,303.268,504.5,286.448,504.5z"/>
	<path style="fill:#A2DDFD;" d="M286.448,504.5H143.702c-16.82,0-31.811-10.61-37.404-26.473l-9.096-25.799h235.746l-9.096,25.799
		C318.259,493.89,303.268,504.5,286.448,504.5z"/>
	<path style="fill:#7ACDF9;" d="M97.202,452.228l9.096,25.799c5.593,15.863,20.584,26.473,37.404,26.473h67.788
		c-15.433-8.416-26.541-24.951-25.777-52.272H97.202z"/>
	<rect x="113.126" y="144.2" style="fill:#FBF1CF;" width="203.899" height="244.239"/>
	<path style="fill:#F7DFB7;" d="M113.126,144.2V388.44h108.627c-44.327-58.637-64.001-181.809-64.697-244.239H113.126z"/>
	<polygon style="fill:#EDA1AB;" points="317.024,303.745 317.024,210.611 139.195,388.44 232.33,388.44 	"/>
	<path style="fill:#E1796E;" d="M221.753,388.44c-11.047-14.613-20.563-33.232-28.635-53.923l-53.923,53.923H221.753z"/>
	<polygon style="fill:#A2DDFD;" points="113.126,228.895 113.126,322.029 290.955,144.2 197.82,144.2 	"/>
	<path style="fill:#CDE9FA;" d="M338.848,144.2H91.302c-15.742,0-28.504-12.762-28.504-28.504v-27.42
		c0-15.742,12.762-28.504,28.504-28.504h247.546c15.742,0,28.504,12.762,28.504,28.504v27.42
		C367.352,131.439,354.59,144.2,338.848,144.2z"/>
	<path style="fill:#CDE9FA;" d="M342.576,388.44H87.574c-13.683,0-24.776,11.093-24.776,24.776v14.236
		c0,13.683,11.093,24.776,24.776,24.776h255.001c13.683,0,24.776-11.093,24.776-24.776v-14.236
		C367.352,399.532,356.259,388.44,342.576,388.44z"/>
	<g>
		<g>
			<ellipse style="fill:#FFFFFF;" cx="150.357" cy="119.676" rx="23.879" ry="19.016"/>
			<ellipse style="fill:#FFFFFF;" cx="279.793" cy="119.676" rx="23.879" ry="19.016"/>
		</g>
	</g>
	<path style="fill:#7ACDF9;" d="M113.126,228.895v93.134l58.881-58.881c-6.207-28.002-10.397-55.985-12.729-80.405L113.126,228.895z
		"/>
	<path d="M265.876,84.108c-4.143,0-7.5,3.358-7.5,7.5v9.762c0,4.142,3.357,7.5,7.5,7.5c4.143,0,7.5-3.358,7.5-7.5v-9.762
		C273.376,87.466,270.019,84.108,265.876,84.108z M324.524,303.74c0-15.501,0-136.737,0-152.04h14.323
		c13.868,0,25.922-7.887,31.934-19.406h65.12c11.469,0,20.8-9.331,20.8-20.799V92.478c0-11.469-9.331-20.8-20.8-20.8h-65.12
		c-6.012-11.519-18.066-19.406-31.934-19.406h-0.591l-7.33-20.792C324.287,12.65,306.413,0,286.448,0H163.274
		c-4.143,0-7.5,3.358-7.5,7.5s3.357,7.5,7.5,7.5h123.174c13.615,0,25.804,8.627,30.331,21.467l5.572,15.805H107.799l5.572-15.805
		c2.936-8.324,9.25-15.148,17.324-18.721c3.788-1.676,5.5-6.105,3.823-9.894c-1.676-3.788-6.107-5.5-9.894-3.823
		c-11.838,5.239-21.097,15.244-25.4,27.45l-7.331,20.792h-0.591c-19.852,0-36.004,16.151-36.004,36.004v27.42
		c0,19.853,16.151,36.004,36.004,36.004h14.323c0,26.068,0,202.077,0,229.24H87.574c-17.797,0-32.275,14.479-32.275,32.276v14.236
		c0,17.797,14.478,32.276,32.275,32.276h4.32l7.331,20.793C105.863,499.35,123.737,512,143.702,512h127.594
		c4.143,0,7.5-3.358,7.5-7.5s-3.357-7.5-7.5-7.5H143.702c-13.615,0-25.804-8.627-30.331-21.467l-5.572-15.805h214.553l-5.572,15.805
		c-2.533,7.184-7.554,13.254-14.139,17.094c-3.578,2.086-4.787,6.679-2.701,10.257c2.077,3.561,6.663,4.797,10.258,2.701
		c9.652-5.628,17.015-14.53,20.729-25.064l7.33-20.793c1.866-0.309,15.208,2.06,26.735-9.086h70.91c11.469,0,20.8-9.331,20.8-20.799
		v-19.017c0-11.469-9.331-20.8-20.8-20.8h-70.911c-5.81-5.618-13.713-9.085-22.414-9.085h-18.052v-77.19
		C324.524,303.747,324.524,303.743,324.524,303.74z M374.811,86.678h61.09c3.198,0,5.8,2.602,5.8,5.8v19.017
		c0,3.198-2.602,5.799-5.8,5.799h-61.09C374.874,115.867,374.873,88.102,374.811,86.678z M435.901,405.025
		c3.198,0,5.8,2.602,5.8,5.8v19.017c0,3.198-2.602,5.799-5.8,5.799h-62.105c0.687-2.617,1.056-5.361,1.056-8.19
		c-0.232-12.428,0.611-16.078-1.056-22.426H435.901z M342.576,395.94c9.525,0,17.275,7.75,17.275,17.276v14.236
		c0,9.526-7.75,17.276-17.275,17.276H87.574c-9.525,0-17.275-7.75-17.275-17.276v-14.236c0-9.526,7.75-17.276,17.275-17.276H342.576
		z M200.927,151.7h71.921L120.626,303.922v-71.92L200.927,151.7z M120.626,210.788V151.7h59.087L120.626,210.788z M294.062,151.7
		h15.462v55.804L136.088,380.94h-15.462v-55.804L294.062,151.7z M229.223,380.94h-71.921l152.223-152.222v71.92L229.223,380.94z
		 M309.524,321.852v59.088h-59.088L309.524,321.852z M91.303,136.7c-11.582,0-21.004-9.422-21.004-21.004v-27.42
		c0-11.582,9.422-21.004,21.004-21.004c0.103,0,238.472,0.003,247.545,0c11.582,0,21.004,9.422,21.004,21.004v27.42
		c0,11.582-9.422,21.004-21.004,21.004H91.303z M164.274,84.108c-4.143,0-7.5,3.358-7.5,7.5v9.762c0,4.142,3.357,7.5,7.5,7.5
		c4.143,0,7.5-3.358,7.5-7.5v-9.762C171.774,87.466,168.417,84.108,164.274,84.108z M233.396,95.426
		c-3.122-2.722-7.86-2.396-10.582,0.726c-1.954,2.243-4.775,3.529-7.739,3.529s-5.785-1.287-7.739-3.529
		c-2.723-3.123-7.46-3.448-10.582-0.726c-3.123,2.721-3.448,7.459-0.727,10.582c4.805,5.512,11.747,8.674,19.048,8.674
		c7.301,0,14.243-3.162,19.048-8.674C236.845,102.885,236.52,98.147,233.396,95.426z"/>
</g>
<g>
</g>
<g>
</g>
<g>
</g>
<g>
</g>
<g>
</g>
<g>
</g>
<g>
</g>
<g>
</g>
<g>
</g>
<g>
</g>
<g>
</g>
<g>
</g>
<g>
</g>
<g>
</g>
<g>
</g>
</svg>
