<?xml version="1.0" encoding="iso-8859-1"?>
<!-- Generator: Adobe Illustrator 23.1.0, SVG Export Plug-In . SVG Version: 6.00 Build 0)  -->
<svg version="1.1" id="Capa_1" xmlns="http://www.w3.org/2000/svg" xmlns:xlink="http://www.w3.org/1999/xlink" x="0px" y="0px"
	 viewBox="0 0 512.018 512.018" style="enable-background:new 0 0 512.018 512.018;" xml:space="preserve">
<g>
	
		<rect x="243.484" y="196.794" transform="matrix(0.7071 0.7071 -0.7071 0.7071 248.7998 -123.4274)" style="fill:#A2DDFD;" width="59.812" height="83.64"/>
	
		<rect x="260.851" y="203.988" transform="matrix(0.7071 0.7071 -0.7071 0.7071 241.6062 -140.7942)" style="fill:#7ACDF9;" width="59.812" height="34.519"/>
	<path style="fill:#F6EE86;" d="M51.967,494.94l-34.903-34.903c-12.759-12.759-12.759-33.445,0-46.204l172.723-172.723
		c7.443-7.443,19.512-7.443,26.955,0l54.152,54.152c7.443,7.443,7.443,19.512,0,26.955L98.171,494.94
		C85.412,507.699,64.726,507.699,51.967,494.94z"/>
	<path style="fill:#4E5660;" d="M141.573,289.324L17.064,413.833c-12.759,12.759-12.759,33.445,0,46.204l34.903,34.903
		c12.759,12.759,33.445,12.759,46.204,0l124.509-124.509c0.286-22.516-5.707-46.471-20.172-60.936
		C188.044,295.03,164.089,289.038,141.573,289.324z"/>
	<path style="fill:#3A4351;" d="M88.703,342.194l-71.639,71.638c-12.759,12.759-12.759,33.445,0,46.204l34.903,34.903
		c12.759,12.759,33.445,12.759,46.204,0l25.316-25.316C92.077,440.187,83.31,384.798,88.703,342.194z"/>
	<g>
		<path style="fill:#FBF1CF;" d="M172.02,365.407c-1.919,0-3.839-0.732-5.304-2.197l-17.924-17.923
			c-2.929-2.929-2.929-7.677,0-10.606c2.93-2.929,7.678-2.93,10.607,0l17.924,17.923c2.929,2.929,2.929,7.677,0,10.607
			C175.859,364.675,173.939,365.407,172.02,365.407z"/>
		<path style="fill:#FBF1CF;" d="M148.129,389.299c-1.92,0-3.839-0.732-5.304-2.197l-17.923-17.923
			c-2.929-2.929-2.929-7.678,0-10.606c2.931-2.93,7.679-2.929,10.607,0l17.923,17.923c2.929,2.929,2.929,7.678,0,10.607
			C151.968,388.566,150.048,389.299,148.129,389.299z"/>
		<path style="fill:#FBF1CF;" d="M124.237,413.19c-1.92,0-3.839-0.732-5.304-2.197l-17.923-17.923
			c-2.929-2.929-2.929-7.678,0-10.606c2.93-2.929,7.678-2.929,10.607,0l17.923,17.923c2.929,2.929,2.929,7.678,0,10.607
			C128.076,412.457,126.156,413.19,124.237,413.19z"/>
		<path style="fill:#FBF1CF;" d="M100.347,437.081c-1.919,0-3.839-0.732-5.304-2.197l-17.924-17.923
			c-2.929-2.929-2.929-7.677,0-10.606c2.93-2.929,7.678-2.929,10.607,0l17.924,17.923c2.929,2.929,2.929,7.677,0,10.607
			C104.185,436.349,102.266,437.081,100.347,437.081z"/>
	</g>
	<path style="fill:#4E5660;" d="M494.699,199.173L312.832,17.305c-13.061-13.062-34.238-13.062-47.3,0l-53.504,53.504
		c-13.062,13.062-13.062,34.238,0,47.3l181.867,181.867c13.062,13.061,34.238,13.061,47.3,0l53.504-53.504
		C507.76,233.411,507.76,212.234,494.699,199.173z"/>
	<path style="fill:#3A4351;" d="M322.197,26.671l-9.365-9.365c-13.062-13.062-34.238-13.062-47.3,0L212.028,70.81
		c-13.062,13.062-13.062,34.238,0,47.3l107.799,107.799C301.312,172.346,308.542,90.496,322.197,26.671z"/>
	<path style="fill:#CDE9FA;" d="M411.792,265.334L246.67,100.212c-3.177-3.177-3.177-8.328,0-11.506l36.759-36.759
		c3.177-3.177,8.328-3.177,11.505,0L460.056,217.07c3.177,3.177,3.177,8.328,0,11.505l-36.759,36.759
		C420.12,268.511,414.969,268.511,411.792,265.334z"/>
	<polygon style="fill:#A2DDFD;" points="328.321,181.863 394.761,248.303 394.761,151.775 328.321,85.335 	"/>
	<path style="fill:#A2DDFD;" d="M411.792,265.334L246.67,100.212c-3.177-3.177-3.177-8.328,0-11.506l18.379-18.379l176.627,176.627
		l-18.379,18.379C420.12,268.511,414.969,268.511,411.792,265.334z"/>
	<polygon style="fill:#7ACDF9;" points="328.321,181.863 394.761,248.303 394.761,200.039 328.321,133.599 	"/>
	<path d="M500.003,193.87l-12.361-12.362c-2.929-2.929-7.678-2.93-10.607,0c-2.93,2.929-2.93,7.677-0.001,10.607l12.361,12.362
		c10.139,10.138,10.143,26.552,0,36.693l-53.504,53.504c-10.139,10.139-26.553,10.141-36.693,0
		c-2.673-2.673-178.957-178.957-181.867-181.868c-10.139-10.138-10.143-26.552,0-36.693l53.504-53.504
		c10.141-10.14,26.553-10.141,36.693,0l144.129,144.129c2.929,2.929,7.677,2.929,10.607,0c2.929-2.929,2.929-7.678,0-10.606
		L318.136,12.002c-16.004-16.003-41.904-16.004-57.908,0l-53.504,53.504c-16,16-16.003,41.902,0,57.906l64.484,64.484
		l-48.535,48.535l-0.625-0.626c-10.357-10.355-27.205-10.355-37.563,0L43.493,376.797c-2.929,2.929-2.929,7.678,0,10.606
		c2.93,2.929,7.678,2.929,10.607,0l90.562-90.561c22.004,0.295,41.494,6.906,52.543,17.956
		c11.051,11.05,17.662,30.539,17.958,52.543L92.869,489.637c-9.837,9.836-25.759,9.84-35.598,0l-34.903-34.903
		c-9.836-9.835-9.84-25.758-0.001-35.597l6.699-6.699c2.93-2.929,2.93-7.678,0.001-10.607c-2.929-2.928-7.678-2.929-10.606,0
		l-6.7,6.699c-15.662,15.663-15.662,41.148,0,56.811l34.903,34.903c15.7,15.699,41.11,15.701,56.812,0L276.198,327.52
		c10.355-10.356,10.355-27.206,0-37.561l-0.626-0.626l48.535-48.536l64.483,64.483c16.002,16.001,41.903,16.004,57.908,0
		l53.504-53.504C516.003,235.775,516.006,209.874,500.003,193.87z M265.591,316.913l-36.367,36.367
		c-2.519-20.284-9.978-37.655-21.411-49.089c-11.431-11.431-28.816-18.894-49.087-21.413l36.366-36.366
		c4.517-4.518,11.831-4.518,16.348,0c8.452,8.454-3.731-3.73,54.151,54.152C270.099,305.072,270.099,312.406,265.591,316.913z
		 M264.965,278.725l-31.686-31.687l48.535-48.535L313.5,230.19L264.965,278.725z M278.125,46.645l-36.759,36.759
		c-6.096,6.096-6.096,16.015,0,22.112l165.122,165.122c0.001,0,0.001,0.001,0.001,0.001c6.095,6.095,16.014,6.096,22.112-0.001
		l36.759-36.759c6.096-6.096,6.096-16.015,0-22.112L300.238,46.645C294.129,40.535,284.238,40.533,278.125,46.645z M417.995,260.03
		c-0.898,0.898,10.381,10.851-166.021-165.121c-0.248-0.248-0.248-0.652,0-0.9l13.076-13.076L431.07,246.955L417.995,260.03z
		 M454.753,223.272l-13.076,13.076L275.656,70.327c14.262-14.262,13.133-13.262,13.525-13.262c0.264,0,0.403,0.14,0.449,0.186
		C460.752,228.79,455.643,222.384,454.753,223.272z"/>
</g>
<g>
</g>
<g>
</g>
<g>
</g>
<g>
</g>
<g>
</g>
<g>
</g>
<g>
</g>
<g>
</g>
<g>
</g>
<g>
</g>
<g>
</g>
<g>
</g>
<g>
</g>
<g>
</g>
<g>
</g>
</svg>
