<?xml version="1.0" encoding="iso-8859-1"?>
<!-- Generator: Adobe Illustrator 23.1.0, SVG Export Plug-In . SVG Version: 6.00 Build 0)  -->
<svg version="1.1" id="Capa_1" xmlns="http://www.w3.org/2000/svg" xmlns:xlink="http://www.w3.org/1999/xlink" x="0px" y="0px"
	 viewBox="0 0 512 512" style="enable-background:new 0 0 512 512;" xml:space="preserve">
<g>
	<path style="fill:#3A4351;" d="M101.686,348.704H86.118c-7.168,0-12.979,5.811-12.979,12.979v8.393
		c0,7.168,5.811,12.979,12.979,12.979h15.568c3.882,0,7.03-3.147,7.03-7.03v-20.292
		C108.716,351.851,105.568,348.704,101.686,348.704z"/>
	<path style="fill:#3A4351;" d="M387.817,282.139L405.046,86.28c2.9-32.961-20.94-62.25-53.803-66.102l0,0
		c-36.35-4.26-68.278,24.144-68.278,60.743v201.218H387.817z"/>
	<path style="fill:#3A4351;" d="M124.184,282.139h104.853V80.921c0-36.599-31.929-65.003-68.278-60.743v0
		c-32.863,3.852-56.703,33.141-53.804,66.102L124.184,282.139z"/>
	<path style="fill:#4E5660;" d="M202.999,282.139h106.002l11.61-206.289C322.7,38.739,293.17,7.5,256,7.5l0,0
		c-37.169,0-66.699,31.239-64.611,68.349L202.999,282.139z"/>
	<path style="fill:#F6EE86;" d="M360.583,312.773H151.418c-6.316,0-11.437-5.121-11.437-11.437V279.32
		c0-20.632,16.725-37.357,37.357-37.357h157.325c20.632,0,37.357,16.725,37.357,37.357v22.016
		C372.02,307.653,366.899,312.773,360.583,312.773z"/>
	<path style="fill:#F1D88C;" d="M218.83,241.963h-41.492c-20.632,0-37.357,16.725-37.357,37.357v22.016
		c0,6.316,5.12,11.437,11.437,11.437h81.98C219.165,297.04,212.392,260.138,218.83,241.963z"/>
	<path style="fill:#F1D88C;" d="M80.252,168.469h31.767c15.443,0,27.962,12.519,27.962,27.962v19.192H71.482
		c-10.599,0-19.192-8.593-19.192-19.192l0,0C52.29,180.988,64.809,168.469,80.252,168.469z"/>
	<path style="fill:#A2DDFD;" d="M119.646,300.887h20.335v-85.265H89.734v55.353C89.734,287.495,103.126,300.887,119.646,300.887z"/>
	<rect x="89.734" y="215.623" style="fill:#7ACDF9;" width="50.246" height="34.353"/>
	<path style="fill:#F1D88C;" d="M431.749,168.469h-31.767c-15.443,0-27.962,12.519-27.962,27.962v19.192h68.499
		c10.599,0,19.192-8.593,19.192-19.192l0,0C459.711,180.988,447.192,168.469,431.749,168.469z"/>
	<path style="fill:#A2DDFD;" d="M392.354,300.887H372.02v-85.265h50.246v55.353C422.266,287.495,408.874,300.887,392.354,300.887z"
		/>
	<rect x="372.02" y="215.623" style="fill:#7ACDF9;" width="50.246" height="34.353"/>
	<rect x="219.888" y="406.323" style="fill:#A2DDFD;" width="72.223" height="50.608"/>
	<rect x="219.888" y="406.323" style="fill:#7ACDF9;" width="72.223" height="25.304"/>
	<path style="fill:#4E5660;" d="M354.432,504.5H157.569c-7.511,0-12.875-7.275-10.654-14.45l4.081-13.184
		c3.669-11.853,14.631-19.935,27.039-19.935h155.931c12.408,0,23.37,8.082,27.039,19.935l4.081,13.184
		C367.307,497.225,361.943,504.5,354.432,504.5z"/>
	<path style="fill:#4E5660;" d="M360.583,312.773H151.418c-6.316,0-11.437,5.121-11.437,11.437v12.997
		c0,11.887,4.601,23.312,12.838,31.881l15.72,16.353c12.825,13.342,30.533,20.882,49.039,20.882h76.844
		c18.506,0,36.214-7.54,49.039-20.882l15.72-16.353c8.238-8.569,12.838-19.994,12.838-31.881V324.21
		C372.02,317.894,366.899,312.773,360.583,312.773z"/>
	<path style="fill:#3A4351;" d="M151.418,312.773c-6.316,0-11.437,5.121-11.437,11.437v12.997c0,11.887,4.601,23.312,12.838,31.881
		l15.72,16.353c12.825,13.342,30.533,20.882,49.039,20.882h39.964c-16.033-18.969-33.95-64.093-24.144-93.55H151.418z"/>
	<path d="M431.749,160.969h-25.745l6.513-74.032c3.258-37.012-23.478-69.88-60.401-74.208c-15.443-1.81-30.766,1.61-43.852,9.662
		C294.504,7.953,275.958,0,256,0c-19.959,0-38.504,7.953-52.264,22.391c-13.087-8.052-28.413-11.472-43.852-9.662
		c-9.492,1.113-18.458,4.106-26.65,8.899c-3.576,2.091-4.779,6.685-2.687,10.26c2.091,3.576,6.686,4.779,10.26,2.687
		c6.395-3.74,13.401-6.078,20.824-6.948c11.513-1.347,22.938,1.027,32.844,6.712c-7.715,12.446-11.42,26.916-10.575,41.931
		l8.903,158.192h-15.466c-11.458,0-21.921,4.323-29.857,11.417v-49.45c0-16.394-11.184-30.219-26.322-34.262l-6.733-76.547
		c-0.852-9.679,0.929-19.391,5.148-28.086c1.808-3.726,0.253-8.213-3.473-10.022c-3.727-1.808-8.213-0.253-10.022,3.473
		c-5.404,11.137-7.685,23.568-6.596,35.95l6.512,74.032H80.252c-19.554,0-35.462,15.908-35.462,35.462
		c0,14.718,11.974,26.692,26.692,26.692h10.753v47.852c0,20.629,16.783,37.412,37.412,37.412h14.21
		c0.637,1.581,1.486,3.049,2.504,4.386c-2.423,3.182-3.879,7.138-3.879,11.437c0.497,9.047-1.822,19.823,4.363,34.169h-20.628
		v-2.646c0-8.011-6.518-14.529-14.53-14.529H86.118c-11.293,0-20.479,9.187-20.479,20.479v8.393c0,11.293,9.187,20.48,20.479,20.48
		h15.568c8.012,0,14.53-6.518,14.53-14.529v-2.646h30.366c1.555,1.692,7.05,7.36,16.55,17.259
		c12.96,13.483,30.681,21.682,49.256,22.981v35.812h-34.354c-15.789,0-29.535,10.134-34.203,25.217l-4.081,13.184
		C136.033,499.844,144.993,512,157.569,512H301.91c4.143,0,7.5-3.358,7.5-7.5c0-4.142-3.357-7.5-7.5-7.5H157.569
		c-2.455,0-4.22-2.37-3.489-4.732l4.081-13.184c2.713-8.764,10.7-14.652,19.874-14.652h155.93c9.175,0,17.162,5.888,19.874,14.652
		l4.082,13.185c0.726,2.344-1.016,4.732-3.489,4.732h-16.897c-4.143,0-7.5,3.358-7.5,7.5c0,4.142,3.357,7.5,7.5,7.5h16.897
		c12.571,0,21.537-12.154,17.818-24.168l-4.081-13.184c-4.669-15.083-18.415-25.217-34.204-25.217h-34.353v-35.812
		c18.576-1.299,36.296-9.498,49.257-22.981l15.719-16.353c9.63-10.016,14.933-23.184,14.933-37.079V324.21
		c0-4.299-1.457-8.255-3.879-11.437c1.018-1.337,1.867-2.805,2.504-4.386h14.21c20.629,0,37.412-16.783,37.412-37.412v-47.852
		h10.753c14.718,0,26.691-11.974,26.691-26.692C467.21,176.877,451.303,160.969,431.749,160.969z M132.481,293.387h-12.834
		c-12.358,0-22.412-10.054-22.412-22.412v-47.852h35.246V293.387z M132.481,208.123H71.482c-6.447,0-11.692-5.245-11.692-11.692
		c0-11.283,9.179-20.462,20.462-20.462h31.767c11.283,0,20.462,9.179,20.462,20.462V208.123z M101.215,375.555H86.118
		c-3.021,0-5.479-2.458-5.479-5.48v-8.393c0-3.021,2.458-5.479,5.479-5.479h15.098V375.555z M256,15
		c32.972,0,58.965,27.69,57.123,60.428l-8.95,159.035h-96.345l-8.95-159.035C197.041,42.785,222.915,15,256,15z M284.611,449.431
		h-57.223v-35.608h57.223V449.431z M364.52,337.207c0,9.999-3.816,19.475-10.746,26.683l-15.72,16.353
		c-11.351,11.808-27.254,18.58-43.632,18.58h-76.844c-16.378,0-32.281-6.772-43.632-18.58
		c-16.247-16.958-15.723-16.234-17.476-18.323c-0.78-1.25-8.99-9.87-8.99-24.713V324.21c0-2.171,1.766-3.937,3.937-3.937h209.165
		c2.171,0,3.938,1.766,3.938,3.937V337.207z M364.52,301.336c0,2.171-1.767,3.937-3.938,3.937H151.418
		c-2.171,0-3.937-1.766-3.937-3.937V279.32c0-16.463,13.394-29.857,29.857-29.857h157.324c16.464,0,29.857,13.394,29.857,29.857
		V301.336z M364.52,196.431v49.45c-7.937-7.094-18.4-11.417-29.857-11.417h-15.465L328.1,76.271
		c0.845-15.015-2.861-29.486-10.576-41.931c9.906-5.686,21.331-8.063,32.845-6.712c28.841,3.38,49.75,29.051,47.206,57.995
		l-6.734,76.547C375.704,166.211,364.52,180.037,364.52,196.431z M414.766,270.975c0,12.358-10.054,22.412-22.412,22.412H379.52
		v-70.265h35.246V270.975z M440.519,208.123H379.52v-11.692c0-11.283,9.179-20.462,20.462-20.462h31.768
		c11.282,0,20.461,9.179,20.461,20.462C452.21,202.877,446.965,208.123,440.519,208.123z"/>
</g>
<g>
</g>
<g>
</g>
<g>
</g>
<g>
</g>
<g>
</g>
<g>
</g>
<g>
</g>
<g>
</g>
<g>
</g>
<g>
</g>
<g>
</g>
<g>
</g>
<g>
</g>
<g>
</g>
<g>
</g>
</svg>
