<?xml version="1.0" encoding="iso-8859-1"?>
<!-- Generator: Adobe Illustrator 23.1.0, SVG Export Plug-In . SVG Version: 6.00 Build 0)  -->
<svg version="1.1" id="Capa_1" xmlns="http://www.w3.org/2000/svg" xmlns:xlink="http://www.w3.org/1999/xlink" x="0px" y="0px"
	 viewBox="0 0 512.011 512.011" style="enable-background:new 0 0 512.011 512.011;" xml:space="preserve">
<g>
	<g>
		<g>
			<path style="fill:#F6EE86;" d="M368.898,246.217c2.491-26.097,20.731-81.495,32.806-111.64c3.058-7.634-0.285-16.357-7.702-19.91
				c-16.761-8.028-43.226-15.273-69.672-15.273c-26.446,0-52.911,7.244-69.672,15.273c-7.417,3.553-10.76,12.276-7.702,19.91
				c12.075,30.146,30.315,85.544,32.806,111.64H368.898z"/>
			<path style="fill:#F1D88C;" d="M270.676,204.549c4.602,16.237,8.094,31.277,9.086,41.668h89.135
				c0.992-10.39,4.484-25.43,9.086-41.668H270.676z"/>
		</g>
	</g>
	<path style="fill:#CDE9FA;" d="M310.104,20.4l23.022,23.022c4.098,4.098,4.098,10.741,0,14.839L181.885,209.503l-61.558-61.558
		L247.873,20.4C265.058,3.215,292.919,3.215,310.104,20.4z"/>
	<path style="fill:#A2DDFD;" d="M156.034,183.652L314.695,24.991l-4.591-4.591c-17.185-17.185-45.047-17.185-62.231,0
		L120.327,147.945L156.034,183.652z"/>
	<path style="fill:#E0B799;" d="M165.102,370.695L165.102,370.695c-29.012,0-52.531-23.519-52.531-52.531V166.055
		c0-19.932,16.158-36.09,36.09-36.09h14.875c19.932,0,36.09,16.158,36.09,36.09v27.464c0,16.209,1.514,32.382,4.521,48.309
		l12.574,66.589C222.829,340.764,198.022,370.695,165.102,370.695z"/>
	<path style="fill:#D99A84;" d="M112.571,318.164c0,29.012,23.519,52.531,52.531,52.531l0,0c32.919,0,57.727-29.931,51.619-62.278
		l-12.574-66.589c-2.325-12.311-3.746-24.771-4.277-37.279h-87.3V318.164z"/>
	<path style="fill:#E0B799;" d="M329.294,504.511H182.713c-28.306,0-52.671-19.991-58.201-47.751L82.696,246.828
		c-2.217-11.132,6.299-21.512,17.649-21.512h311.317c11.351,0,19.867,10.38,17.649,21.512L387.495,456.76
		C381.966,484.52,357.6,504.511,329.294,504.511z"/>
	<path style="fill:#D99A84;" d="M100.345,225.317c-11.351,0-19.867,10.38-17.649,21.512l41.816,209.931
		c5.53,27.76,29.895,47.751,58.201,47.751h61.495c-71.78-54.293-70.165-201.787-63.776-279.194H100.345z"/>
	<path style="fill:#E0B799;" d="M216.927,504.511c-20.142-9.04-32.928-20.114-38.883-33.613
		c-5.713-12.952-5.438-28.193,0.895-49.419c5.282-17.71,3.97-33.839-3.902-47.939c-15.121-27.086-50.726-40.295-76.63-47.833
		l3.226,16.195c22.527,7.128,49.479,18.652,60.691,38.735c5.965,10.687,6.836,22.684,2.661,36.679
		c-8.389,28.121-11.814,61.485,22.906,87.194H216.927z"/>
	<path style="fill:#D99A84;" d="M388.221,453.118l2.896-14.538c-34.595-13.824-65.091-11.505-85.343,7.025
		c-15.79,14.449-22.759,37.146-19.085,58.906h14.813c-3.87-17.713,1.357-36.5,14.102-48.164
		C331.98,441.362,357.991,440.351,388.221,453.118z"/>
	<path style="fill:#D99A84;" d="M413.346,326.979c-14.343-0.001-26.256-3.461-36.035-10.465
		c-25.948-18.583-32.13-59.474-36.088-91.198H326.55c4.283,34.637,10.741,80.445,42.283,103.035
		c11.491,8.23,25.426,12.603,41.631,13.099L413.346,326.979z"/>
	<path style="fill:#4E5660;" d="M411.662,225.317H100.345c-11.351,0-19.867,10.38-17.649,21.512l3.668,18.415h339.28l3.668-18.415
		C431.529,235.697,423.013,225.317,411.662,225.317z"/>
	<path style="fill:#3A4351;" d="M82.696,246.828l3.668,18.415h91.716c0.508-14.56,1.373-28.068,2.352-39.926h-80.087
		C88.994,225.317,80.478,235.697,82.696,246.828z"/>
	<g>
		<g>
			<ellipse style="fill:#FFFFFF;" cx="168.455" cy="341.189" rx="32.304" ry="25.725"/>
			<ellipse style="fill:#FFFFFF;" cx="343.552" cy="341.189" rx="32.304" ry="25.725"/>
		</g>
	</g>
	<path style="fill:#4E5660;" d="M247.371,356.344c5.014,4.183,12.25,4.183,17.264,0c8.385-6.995,18.876-11.528,30.313-12.43
		c16.755-1.321,32.071,4.957,42.869,15.754c17.414,17.415,22.349,61.388,63.53,72.338c9.647,2.565,11.519,15.48,3.046,20.759
		c-37.198,23.176-95.371,33.792-148.39-21.842c-53.019,55.634-111.192,45.017-148.39,21.842c-8.473-5.279-6.601-18.194,3.046-20.759
		c41.181-10.95,46.116-54.923,63.53-72.338c10.797-10.797,26.114-17.075,42.869-15.754
		C228.495,344.816,238.986,349.349,247.371,356.344z"/>
	<path d="M411.663,217.817h-29.507c6.806-26.37,18.021-59.257,26.51-80.452c4.521-11.287-0.497-24.228-11.425-29.462
		c-1.814-0.87-3.735-1.729-5.707-2.556c-3.82-1.599-8.215,0.198-9.815,4.019c-1.601,3.82,0.198,8.215,4.019,9.816
		c1.743,0.73,3.434,1.487,5.024,2.249c3.824,1.832,5.572,6.381,3.98,10.357c-9.071,22.647-21.202,58.41-28.06,86.029h-21.615
		c2.27-18.639,5.648-40.562,8.378-54.032c0.823-4.059-1.801-8.018-5.86-8.84c-4.058-0.822-8.018,1.801-8.841,5.861
		c-2.886,14.238-6.472,37.629-8.785,57.011h-11.257c-2.314-19.382-5.9-42.773-8.785-57.011c-0.822-4.059-4.779-6.685-8.84-5.861
		c-4.06,0.823-6.684,4.78-5.861,8.84c2.729,13.469,6.107,35.392,8.378,54.032H281.98c-6.166-24.904-15.982-54.117-23.525-74.277
		l33.082-33.082c21.615-4.544,41.17-4.718,62.549-0.626c4.061,0.78,7.998-1.887,8.776-5.956c0.779-4.068-1.888-7.998-5.956-8.776
		c-17.411-3.333-32.63-3.865-47.51-2.501l29.034-29.034c7.015-7.015,7.015-18.43,0-25.446l-23.022-23.022
		c-20.127-20.126-52.707-20.132-72.838,0l-110.761,110.76c-15.692,6.603-26.738,22.134-26.738,40.198v51.762
		c-1.984,0.344-14.975-2.21-24.437,9.324c-4.862,5.926-6.792,13.636-5.294,21.153c2.136,10.725,33.893,170.158,35.054,175.986
		c-0.549,0.164-1.098,0.328-1.662,0.478c-16.011,4.258-19.124,25.626-5.084,34.372c4.623,2.88,10.054,5.889,16.188,8.672
		c9.447,26.199,34.796,44.209,62.877,44.209h7.474c4.143,0,7.5-3.358,7.5-7.5c0-4.142-3.357-7.5-7.5-7.5h-7.474
		c-16.976,0-32.667-8.484-42.232-21.846c38.69,10.152,79.491,1.134,115.523-33.604c36.08,34.785,76.924,43.734,115.519,33.609
		c-9.566,13.359-25.254,21.841-42.228,21.841H225.004c-4.143,0-7.5,3.358-7.5,7.5c0,4.142,3.357,7.5,7.5,7.5h104.291
		c28.08,0,53.429-18.009,62.876-44.207c6.135-2.783,11.565-5.794,16.189-8.674c14.063-8.761,10.903-30.121-5.084-34.372
		c-0.565-0.15-1.113-0.314-1.662-0.478c21.742-109.157,12.137-60.938,35.054-175.986
		C439.813,232.507,427.728,217.817,411.663,217.817z M266.503,217.817h-58.188c-0.742-7.668-1.137-15.359-1.179-22.959
		l39.636-39.636C253.657,174.2,261.33,197.785,266.503,217.817z M327.823,48.725c1.167,1.167,1.167,3.066,0,4.233
		c-12.978,12.978-107.414,107.414-120.696,120.697c-0.35-4.768,1.478-14.327-4.212-26.276L314.695,35.598L327.823,48.725z
		 M253.177,25.703c14.01-14.012,36.556-14.279,50.893-0.695L194.083,134.996c-15.912-15.652-34.461-12.016-37.668-12.532
		L253.177,25.703z M120.071,166.055c0-15.765,12.826-28.59,28.591-28.59h14.875c15.765,0,28.59,12.825,28.59,28.59
		c0.194,22.551-0.575,33.227,1.118,51.762h-73.174V166.055z M400.427,446.399c-18.966,11.817-41.025,18.757-63.889,17.509
		c-27.109-1.473-52.379-14.312-75.105-38.16c-1.416-1.485-3.378-2.326-5.43-2.326c-2.052,0-4.014,0.84-5.43,2.326
		c-22.727,23.848-47.996,36.686-75.105,38.16c-22.721,1.241-44.796-5.613-63.889-17.509c-2.933-1.827-2.269-6.273,1.008-7.145
		c44.848-11.925,50.994-58.372,66.906-74.283c16.633-16.635,43.929-18.838,63.073-2.868c7.787,6.495,19.088,6.496,26.873,0
		c19.108-15.94,46.401-13.804,63.073,2.868c15.872,15.871,22.104,62.37,66.906,74.283
		C402.695,440.125,403.361,444.571,400.427,446.399z M387.616,417.763c-23.364-15.594-28.626-47.529-44.495-63.398
		c-21.999-22-58.051-24.833-83.29-3.78c-2.217,1.851-5.437,1.851-7.654,0c-25.236-21.05-61.285-18.225-83.29,3.78
		c-15.836,15.836-21.163,47.825-44.495,63.398l-28.886-145.02h320.997L387.616,417.763z M421.956,245.364l-2.466,12.379H92.517
		l-2.466-12.38c-1.294-6.498,3.68-12.546,10.293-12.546c53.668,0,288.514,0.001,311.318,0
		C418.29,232.817,423.247,238.877,421.956,245.364z M187.282,323.925c4.143,0,7.5-3.358,7.5-7.5V303.22c0-4.142-3.357-7.5-7.5-7.5
		c-4.143,0-7.5,3.358-7.5,7.5v13.206C179.782,320.568,183.139,323.925,187.282,323.925z M324.725,323.925c4.143,0,7.5-3.358,7.5-7.5
		V303.22c0-4.142-3.357-7.5-7.5-7.5c-4.143,0-7.5,3.358-7.5,7.5v13.206C317.225,320.568,320.583,323.925,324.725,323.925z"/>
</g>
<g>
</g>
<g>
</g>
<g>
</g>
<g>
</g>
<g>
</g>
<g>
</g>
<g>
</g>
<g>
</g>
<g>
</g>
<g>
</g>
<g>
</g>
<g>
</g>
<g>
</g>
<g>
</g>
<g>
</g>
</svg>
