<?xml version="1.0" encoding="iso-8859-1"?>
<!-- Generator: Adobe Illustrator 23.1.0, SVG Export Plug-In . SVG Version: 6.00 Build 0)  -->
<svg version="1.1" id="Capa_1" xmlns="http://www.w3.org/2000/svg" xmlns:xlink="http://www.w3.org/1999/xlink" x="0px" y="0px"
	 viewBox="0 0 512.008 512.008" style="enable-background:new 0 0 512.008 512.008;" xml:space="preserve">
<g>
	<path style="fill:#4E5660;" d="M379.26,324.027c-9.067,0-16.418-7.351-16.418-16.418v-43.523c0-9.067,7.35-16.418,16.418-16.418
		h81.597v-47.647H83.256v219.634h377.601v-95.628H379.26z"/>
	<path style="fill:#3A4351;" d="M83.256,200.022v219.634h120.898c-38.604-58.978-46.442-150.99-47.659-219.634H83.256z"/>
	<rect x="83.256" y="367.303" style="fill:#E0B799;" width="377.601" height="52.352"/>
	<path style="fill:#D99A84;" d="M83.256,367.303v52.352h120.898c-10.149-15.505-18.154-33.306-24.489-52.352H83.256z"/>
	<path style="fill:#4E5660;" d="M475.498,419.656H36.51c-12.556,0-23.513,8.514-26.615,20.68l-1.986,7.786
		c-2.07,8.118,4.063,16.013,12.441,16.013h471.308c8.378,0,14.512-7.894,12.441-16.013l-1.986-7.786
		C499.011,428.169,488.054,419.656,475.498,419.656z"/>
	<path style="fill:#3A4351;" d="M186.588,419.656H36.51c-12.556,0-23.513,8.514-26.615,20.68l-1.986,7.786
		c-2.07,8.118,4.063,16.013,12.442,16.013h186.223C196.189,455.95,184.561,435.709,186.588,419.656z"/>
	<path style="fill:#E0B799;" d="M408.086,92.844H103.922c-28.484,0-54.91,14.846-69.726,39.174L13.17,166.54
		c-8.939,14.677,1.626,33.482,18.811,33.482h448.047c17.185,0,27.75-18.805,18.811-33.482l-21.026-34.522
		C462.996,107.69,436.571,92.844,408.086,92.844z"/>
	<path style="fill:#D99A84;" d="M184.086,92.844h-80.164c-28.484,0-54.91,14.846-69.726,39.174L13.17,166.54
		c-8.939,14.677,1.626,33.482,18.811,33.482h173.557C189.853,176.534,182.283,129.096,184.086,92.844z"/>
	<path style="fill:#9FE6E6;" d="M475.886,129.023c-15.111-22.542-40.507-36.179-67.8-36.179H103.922
		c-27.293,0-52.689,13.637-67.8,36.179H475.886z"/>
	<rect x="51.151" y="200.022" style="fill:#FBF1CF;" width="64.208" height="219.634"/>
	<polygon style="fill:#EDA1AB;" points="51.151,410.75 115.36,346.542 115.36,271.824 51.151,336.032 	"/>
	<polygon style="fill:#A2DDFD;" points="51.151,269.363 115.36,205.155 115.36,200.022 51.151,200.022 	"/>
	<path style="fill:#A2DDFD;" d="M274.489,255.848h-70.776c-16.331,0-29.571,13.239-29.571,29.571v134.237h129.917V285.419
		C304.059,269.087,290.82,255.848,274.489,255.848z"/>
	<path style="fill:#7ACDF9;" d="M174.142,419.656h30.011c-13.353-20.4-23.02-44.755-30.011-70.725V419.656z"/>
	<path style="fill:#FFFFFF;" d="M250.174,331.528h-22.146c-4.142,0-7.5-3.358-7.5-7.5s3.358-7.5,7.5-7.5h22.146
		c4.142,0,7.5,3.358,7.5,7.5S254.316,331.528,250.174,331.528z"/>
	<path style="fill:#A2DDFD;" d="M379.26,324.027h81.597v-76.358H379.26c-9.067,0-16.418,7.35-16.418,16.418v43.523
		C362.842,316.677,370.192,324.027,379.26,324.027z"/>
	<path style="fill:#7ACDF9;" d="M379.26,324.027h81.597v-76.358h-6.476l-76.299,76.299
		C378.472,323.996,378.862,324.027,379.26,324.027z"/>
	<path style="fill:#4E5660;" d="M247.871,59.755c4.724,3.941,11.542,3.941,16.266,0c7.9-6.591,17.785-10.862,28.561-11.712
		c15.786-1.245,30.217,4.67,40.391,14.843c16.408,16.408,21.057,57.839,59.857,68.157c9.09,2.417,10.853,14.585,2.87,19.559
		c-35.048,21.836-89.858,31.839-139.812-20.579c-49.954,52.418-104.765,42.415-139.812,20.579
		c-7.983-4.974-6.219-17.142,2.87-19.559c38.8-10.317,43.45-51.749,59.857-68.157c10.173-10.173,24.604-16.088,40.391-14.843
		C230.085,48.893,239.97,53.164,247.871,59.755z"/>
	<path d="M511.367,446.268l-1.986-7.786c-3.953-15.501-17.886-26.327-33.883-26.327h-7.142V207.522h11.671
		c23.045,0,37.207-25.196,25.216-44.883l-21.026-34.522c-10.772-17.687-27.487-31.147-47.067-37.902
		c-3.916-1.354-8.185,0.728-9.536,4.644c-1.351,3.915,0.728,8.185,4.644,9.536c10.431,3.599,19.876,9.495,27.68,17.128h-71.73
		c-10.871-4.564-18.212-12.292-24.089-21.179h35.211c4.142,0,7.5-3.358,7.5-7.5s-3.358-7.5-7.5-7.5h-43.74
		c-5.008-9.744-10.061-20.622-17.199-27.761c-20.877-20.879-55.101-23.573-79.059-3.588c-1.929,1.608-4.73,1.608-6.658,0h0.001
		c-23.953-19.981-58.174-17.299-79.059,3.588c-7.1,7.1-11.997,17.638-17.199,27.761h-52.495c-30.568,0-58.587,16.101-74.058,39.55
		c-2.25,3.354-1.198,1.857-23.1,37.745c-11.989,19.685,2.169,44.883,25.217,44.883h11.671v204.634H36.51
		c-15.997,0-29.93,10.826-33.883,26.326l-1.986,7.787c-3.278,12.854,6.424,25.366,19.709,25.366h32.685c4.142,0,7.5-3.358,7.5-7.5
		c0-4.142-3.358-7.5-7.5-7.5H20.35c-3.475,0-6.04-3.266-5.174-6.659l1.986-7.787c2.257-8.851,10.213-15.033,19.348-15.033h438.988
		c9.135,0,17.091,6.182,19.348,15.033l1.986,7.786c0.861,3.374-1.678,6.66-5.174,6.66H89.165c-4.142,0-7.5,3.358-7.5,7.5
		c0,4.142,3.358,7.5,7.5,7.5h402.493C504.924,471.634,514.649,459.141,511.367,446.268z M184.223,68.19
		c15.555-15.557,41.02-17.546,58.843-2.676c0,0,0,0,0,0c7.497,6.253,18.378,6.253,25.876,0c17.851-14.893,43.32-12.848,58.843,2.676
		c14.89,14.892,20.783,58.813,63.233,70.102c2.753,0.732,3.25,4.438,0.832,5.945c-21.118,13.158-76.101,37.607-130.417-19.388
		c-2.949-3.095-7.899-3.105-10.858,0c-54.316,56.997-109.298,32.546-130.417,19.388c-2.418-1.506-1.921-5.213,0.832-5.945
		C163.421,127.008,169.349,83.065,184.223,68.19z M103.921,100.344h43.967c-5.877,8.887-13.218,16.615-24.089,21.179H52.096
		C65.804,108.179,84.449,100.344,103.921,100.344z M31.981,192.522c-11.337,0-18.304-12.395-12.406-22.081l20.658-33.919h64.051
		c-2.198,8.066,1.018,16.132,7.941,20.445c15.093,9.404,39.255,20.275,68.689,18.679c27.181-1.477,52.41-13.243,75.089-35
		c22.606,21.686,49.573,35.157,80.896,35.157c26.797-0.001,48.794-10.059,62.882-18.837c6.931-4.318,10.137-12.389,7.941-20.445
		h64.051l20.658,33.919c5.897,9.681-1.065,22.081-12.405,22.081H31.981z M102.386,207.522l-43.735,43.735v-43.735H102.386z
		 M107.86,412.156H60.353l47.507-47.507V412.156z M107.86,343.436l-49.208,49.208v-53.506l49.208-49.208V343.436z M107.86,268.717
		l-49.208,49.208v-45.456l49.208-49.208V268.717z M166.642,412.156H122.86v-37.352h43.782V412.156z M296.559,412.156H181.642
		c0-15.099,0-111.645,0-126.737c0-12.169,9.901-22.07,22.071-22.07h70.776c12.169,0,22.07,9.901,22.07,22.07V412.156z
		 M374.911,412.156h-63.352v-37.352h63.352V412.156z M453.356,412.156h-63.446v-37.352h63.446V412.156z M453.356,316.528H379.26
		c-4.918,0-8.918-4-8.918-8.918v-43.523c0-4.917,4-8.918,8.918-8.918h74.097V316.528z M453.356,240.169H379.26
		c-13.189,0-23.918,10.73-23.918,23.918v43.523c0,13.189,10.729,23.918,23.918,23.918h74.097v28.276H311.559v-74.385
		c0-20.44-16.63-37.07-37.07-37.07h-70.776c-20.441,0-37.071,16.63-37.071,37.07v74.385H122.86V207.522h330.496V240.169z"/>
</g>
<g>
</g>
<g>
</g>
<g>
</g>
<g>
</g>
<g>
</g>
<g>
</g>
<g>
</g>
<g>
</g>
<g>
</g>
<g>
</g>
<g>
</g>
<g>
</g>
<g>
</g>
<g>
</g>
<g>
</g>
</svg>
