<?xml version="1.0" encoding="iso-8859-1"?>
<!-- Generator: Adobe Illustrator 23.1.0, SVG Export Plug-In . SVG Version: 6.00 Build 0)  -->
<svg version="1.1" id="Capa_1" xmlns="http://www.w3.org/2000/svg" xmlns:xlink="http://www.w3.org/1999/xlink" x="0px" y="0px"
	 viewBox="0 0 512.013 512.013" style="enable-background:new 0 0 512.013 512.013;" xml:space="preserve">
<g>
	<path style="fill:#CDE9FA;" d="M490.322,107.257L464.995,81.93c-4.508-4.508-11.817-4.508-16.325,0L314.377,216.224
		c-7.39,7.39-7.39,19.371,0,26.761l17.677,17.678c20.247,20.247,53.074,20.247,73.321,0l84.946-84.946
		C509.226,156.812,509.226,126.161,490.322,107.257z"/>
	<path style="fill:#A2DDFD;" d="M490.321,175.716l-103.48,103.48c-12.068,12.068-25.006,23.235-38.708,33.409l-48.341,35.895
		c-27.387,20.336-50.216,46.176-67.02,75.861h0c-5.841,10.318-19.908,12.231-28.292,3.847l-12.959-12.959
		c-5.701-5.701-6.897-14.504-2.926-21.519l0,0c20.033-35.388,47.248-66.193,79.896-90.435l60.943-45.253l155.836-155.836l5.05,5.05
		C509.226,126.161,509.226,156.812,490.321,175.716z"/>
	<path style="fill:#7ACDF9;" d="M336.686,321.106c-1.67-19.881-13.212-36.986-29.703-46.392l-38.491,28.581
		c-32.648,24.243-59.863,55.048-79.896,90.435l0,0c-1.395,2.464-2.138,5.148-2.287,7.841h61.107
		c14.617-20.218,32.261-38.134,52.377-53.071L336.686,321.106z"/>
	<path style="fill:#E0B799;" d="M7.5,324.368L7.5,324.368c0,31.916,25.873,57.789,57.789,57.789h212.506
		c21.927,0,39.702-17.775,39.702-39.702v-16.364c0-21.927-17.775-39.702-39.702-39.702h-75.386c-17.831,0-35.623-1.665-53.144-4.974
		l-73.253-13.832C40.426,260.863,7.5,288.154,7.5,324.368z"/>
	<path style="fill:#D99A84;" d="M159.691,382.158c-26.712-28.179-40.72-76.677-43.019-106.897l-40.66-7.678
		C40.426,260.863,7.5,288.154,7.5,324.368v0c0,31.916,25.873,57.789,57.789,57.789H159.691z"/>
	<g>
		<path style="fill:#E0B799;" d="M78.259,322.146c-15.808-8.658-40.307-14.512-61.652-4.979c-3.2,1.429-6.208,3.156-9.048,5.139
			c-0.024,0.686-0.058,1.369-0.058,2.062v0c0,5.326,0.735,10.478,2.084,15.376c3.802-4.006,8.117-7.12,12.96-9.283
			c16.483-7.36,35.977-2.524,48.721,4.455c19.611,10.739,37.896,22.716,47.279,47.241h15.396
			C123.429,349.496,100.058,334.083,78.259,322.146z"/>
		<path style="fill:#D99A84;" d="M246.098,286.389c-21.268,30.181-41.691,43.457-59.672,38.545
			c-10.443-2.853-20.469-12.099-28.233-26.035c-3.215-5.771-5.662-11.691-7.413-17.216c-0.505-0.092-1.011-0.173-1.516-0.268
			l-14.35-2.71c5.479,22.97,21.617,53.154,47.674,60.274c32.756,8.951,61.449-22.42,81.067-52.591H246.098z"/>
		<path style="fill:#D99A84;" d="M253.947,350.803c-10.984,8.849-17.808,20.03-22.569,31.355h15.996
			c3.759-7.456,8.7-14.37,15.708-20.016c12.7-10.23,30.763-14.603,53.857-13.076c0.361-2.151,0.558-4.358,0.558-6.611v-7.932
			C290.804,332.841,269.487,338.284,253.947,350.803z"/>
	</g>
	
		<ellipse transform="matrix(0.2314 -0.9729 0.9729 0.2314 -129.5483 504.5658)" style="fill:#F6EE86;" cx="254.562" cy="334.273" rx="16.879" ry="16.879"/>
	<path d="M495.625,101.953c-2.944-2.944-22.651-22.651-25.326-25.326c-7.44-7.441-19.489-7.445-26.931,0l-11.479,11.478
		c-2.93,2.929-2.93,7.678-0.001,10.607c2.929,2.928,7.678,2.929,10.606,0.001l11.48-11.48c1.581-1.579,4.136-1.58,5.717,0.001
		l14.973,14.973l-145.23,145.229l-9.754-9.754c-4.454-4.454-4.454-11.701,0-16.155l97.476-97.476c2.929-2.929,2.929-7.678,0-10.606
		c-2.93-2.929-7.678-2.929-10.608,0l-97.476,97.476c-10.302,10.302-10.302,27.065,0,37.368l8.913,8.913l-30.546,22.682
		c-8.364-1.744-7.378-0.667-85.032-0.994c-17.321,0-34.733-1.629-51.753-4.843l-73.253-13.832C37.236,252.626,0,283.422,0,324.369
		c0,28.639,19.146,54.365,46.561,62.561c3.967,1.186,8.147-1.069,9.334-5.037c1.187-3.969-1.068-8.148-5.037-9.334
		C29.745,366.246,15,346.43,15,324.368c0-31.481,28.621-55.268,59.62-49.415l73.253,13.832c17.935,3.387,36.283,5.104,54.536,5.104
		h75.386c17.756,0,32.202,14.446,32.202,32.202v16.364c0,17.756-14.446,32.202-32.202,32.202H83.89c-4.143,0-7.5,3.358-7.5,7.5
		c0,4.142,3.357,7.5,7.5,7.5h98.397c-6.144,10.831-3.775,23.189,3.931,30.895l12.959,12.958
		c11.886,11.888,31.831,9.191,40.121-5.455c7.713-13.623,16.842-26.518,27.134-38.399h11.363c26.027,0,47.202-21.175,47.202-47.202
		v-3.329c20.142-15.545,40.744-28.223,67.148-54.626l103.479-103.48C517.474,159.171,517.477,123.805,495.625,101.953z
		 M226.244,420.667c-3.395,6.001-11.578,7.122-16.461,2.238l-12.958-12.958c-3.306-3.305-4.005-8.454-1.702-12.521
		c1.433-2.532,2.95-5.101,4.579-7.768h47.309C239.332,399.482,232.365,409.856,226.244,420.667z M485.018,170.413l-103.479,103.48
		c-24.449,24.446-43.919,36.736-56.861,46.788c-1.635-14.256-9.643-26.595-21.099-34.098c32.422-24.085,30.587-22.665,31.159-23.238
		l150.532-150.532C500.992,128.804,500.935,154.497,485.018,170.413z M278.94,334.273c0-13.442-10.936-24.379-24.379-24.379
		c-13.442,0-24.379,10.936-24.379,24.379c0,13.442,10.936,24.379,24.379,24.379C268.004,358.652,278.94,347.715,278.94,334.273z
		 M245.183,334.273c0-5.171,4.207-9.379,9.379-9.379c5.172,0,9.379,4.207,9.379,9.379c0,5.171-4.207,9.379-9.379,9.379
		C249.39,343.652,245.183,339.444,245.183,334.273z"/>
</g>
<g>
</g>
<g>
</g>
<g>
</g>
<g>
</g>
<g>
</g>
<g>
</g>
<g>
</g>
<g>
</g>
<g>
</g>
<g>
</g>
<g>
</g>
<g>
</g>
<g>
</g>
<g>
</g>
<g>
</g>
</svg>
