<?xml version="1.0" encoding="iso-8859-1"?>
<!-- Generator: Adobe Illustrator 23.1.0, SVG Export Plug-In . SVG Version: 6.00 Build 0)  -->
<svg version="1.1" id="Capa_1" xmlns="http://www.w3.org/2000/svg" xmlns:xlink="http://www.w3.org/1999/xlink" x="0px" y="0px"
	 viewBox="0 0 512 512" style="enable-background:new 0 0 512 512;" xml:space="preserve">
<g>
	<g>
		<path style="fill:#E0B799;" d="M328.934,299.089v25.554c-31.383,0-45.43,19.001-45.43,43.669v34.729H223.91v-34.729
			c0-24.668-14.047-43.669-45.43-43.669v-25.554H328.934z"/>
		<rect x="223.91" y="368.312" style="fill:#D99A84;" width="59.595" height="34.729"/>
		<path style="fill:#4E5660;" d="M281.371,388.972h-55.327c-6.497,0-11.764,5.267-11.764,11.764v75.645
			c0,15.53,12.589,28.119,28.119,28.119h22.618c15.53,0,28.119-12.589,28.119-28.119v-75.645
			C293.135,394.239,287.868,388.972,281.371,388.972z"/>
		<path style="fill:#4E5660;" d="M331.434,324.643H175.981c-32.341,0-58.558-26.217-58.558-58.558V66.058
			c0-32.341,26.217-58.558,58.558-58.558h155.453c32.341,0,58.558,26.217,58.558,58.558v200.027
			C389.992,298.425,363.774,324.643,331.434,324.643z"/>
		<path style="fill:#3A4351;" d="M175.981,324.643H289.89C179.911,274.644,186.27,60.377,191.451,7.5h-15.47
			c-32.341,0-58.558,26.217-58.558,58.558v200.027C117.423,298.425,143.64,324.643,175.981,324.643z"/>
		<path style="fill:#A2DDFD;" d="M332.27,287.194H175.144c-11.196,0-20.273-9.076-20.273-20.273V65.222
			c0-11.196,9.076-20.273,20.273-20.273H332.27c11.196,0,20.273,9.076,20.273,20.273v201.699
			C352.543,278.117,343.467,287.194,332.27,287.194z"/>
	</g>
	<path style="fill:#7ACDF9;" d="M352.543,181.295L246.645,287.194h85.626c11.196,0,20.273-9.076,20.273-20.273V181.295z"/>
	<path style="fill:#7ACDF9;" d="M154.872,65.222v73.997l94.269-94.269h-73.997C163.948,44.949,154.872,54.026,154.872,65.222z"/>
	<g>
		<g>
			<ellipse style="fill:#FFFFFF;" cx="184.516" cy="174.348" rx="25.53" ry="20.331"/>
			<ellipse style="fill:#FFFFFF;" cx="322.898" cy="174.348" rx="25.53" ry="20.331"/>
		</g>
	</g>
	<path style="fill:#F1D88C;" d="M407.138,276.607l-7.78,17.263c-4.121,9.144-17.106,9.144-21.227,0l-7.78-17.263
		c-1.167-2.589-3.241-4.663-5.83-5.83l-17.263-7.78c-9.144-4.121-9.144-17.106,0-21.227l17.263-7.78
		c2.59-1.167,4.663-3.241,5.83-5.83l7.78-17.263c4.121-9.144,17.106-9.144,21.227,0l7.78,17.263c1.167,2.589,3.241,4.663,5.83,5.83
		l17.263,7.78c9.144,4.121,9.144,17.106,0,21.227l-17.263,7.78C410.379,271.944,408.306,274.017,407.138,276.607z"/>
	<path style="fill:#F6EE86;" d="M137.943,76.038l-7.348,16.304c-3.892,8.636-16.156,8.636-20.048,0l-7.348-16.304
		c-1.102-2.446-3.061-4.404-5.506-5.506l-16.304-7.348c-8.636-3.892-8.636-16.156,0-20.048l16.304-7.348
		c2.446-1.102,4.404-3.061,5.506-5.506l7.348-16.304c3.892-8.636,16.156-8.636,20.048,0l7.348,16.304
		c1.102,2.446,3.061,4.404,5.506,5.506l16.304,7.348c8.636,3.892,8.636,16.156,0,20.048l-16.304,7.348
		C141.004,71.635,139.045,73.593,137.943,76.038z"/>
	<path d="M253.707,168.489c7.656,0,14.936-3.315,19.973-9.095c2.722-3.122,2.397-7.86-0.726-10.581
		c-3.123-2.722-7.861-2.397-10.581,0.726c-2.189,2.511-5.347,3.951-8.666,3.951c-3.319,0-6.477-1.44-8.665-3.95
		c-2.721-3.124-7.46-3.449-10.582-0.727c-3.123,2.721-3.448,7.459-0.727,10.582C238.771,165.174,246.051,168.489,253.707,168.489z
		 M298.423,161.75c4.142,0,7.5-3.358,7.5-7.5c0-2.213,1.801-4.014,4.014-4.014c2.213,0,4.014,1.801,4.014,4.014
		c0,4.142,3.358,7.5,7.5,7.5c4.142,0,7.5-3.358,7.5-7.5c0-10.484-8.53-19.014-19.014-19.014c-10.484,0-19.014,8.53-19.014,19.014
		C290.923,158.392,294.281,161.75,298.423,161.75z M199.395,162.027c4.142,0,7.5-3.358,7.5-7.5v-9.936c0-4.142-3.358-7.5-7.5-7.5
		c-4.142,0-7.5,3.358-7.5,7.5v9.936C191.895,158.669,195.253,162.027,199.395,162.027z M433.313,234.932l-17.263-7.78
		c-0.922-0.416-1.658-1.153-2.074-2.074l-7.78-17.263c-1.846-4.095-4.928-7.267-8.704-9.191V77.943c0-4.142-3.358-7.5-7.5-7.5
		c-4.142,0-7.5,3.358-7.5,7.5v119.629c-4.908,1.667-8.961,5.278-11.198,10.243l-7.781,17.263c-0.888,1.969-2.673,2.239-3.47,2.703
		V65.222c0-15.314-12.459-27.772-27.773-27.772c-163.695,0.454-157.967-1.058-165.432,1.298c-3.166-2.519-4.559-2.511-20.307-9.797
		c-1.657-0.747-1.891-2.253-2.264-2.891C153.268,18.897,164.35,15,175.981,15h155.453c20.304,0,38.678,12.024,46.81,30.633
		c1.668,3.814,6.1,5.521,9.876,3.869c3.795-1.659,5.528-6.08,3.869-9.875C381.468,15.554,357.699,0,331.434,0H175.981
		c-13.78,0-26.958,4.235-38.024,12.059l-0.524-1.164c-6.539-14.51-27.169-14.544-33.723,0L96.361,27.2
		c-0.351,0.777-0.972,1.399-1.75,1.75l-16.304,7.348c-14.51,6.539-14.544,27.169,0,33.723l16.305,7.349
		c0.778,0.351,1.399,0.972,1.75,1.75l7.348,16.304c1.41,3.129,3.571,5.696,6.214,7.557v163.104
		c0,36.425,29.633,66.058,66.058,66.058h2.5c33.001,0,37.929,22.661,37.929,36.169v15.768c-5.747,3.337-9.63,9.546-9.63,16.656
		v75.645c0,7.862,2.512,15.317,7.264,21.56c2.51,3.295,7.214,3.933,10.511,1.425c3.296-2.509,3.934-7.215,1.425-10.511
		c-2.747-3.608-4.199-7.922-4.199-12.474v-22.145h63.855v22.145c0,11.37-9.249,20.619-20.619,20.619h-12.992
		c-4.142,0-7.5,3.358-7.5,7.5c0,4.142,3.358,7.5,7.5,7.5h12.992c19.64,0,35.619-15.978,35.619-35.619v-75.645
		c0-7.111-3.883-13.319-9.63-16.657v-15.768c0-40.647,39.714-35.768,40.429-36.169c20.269,0,39.069-9.152,51.556-24.783
		c9.108,2.814,19.085-1.263,23.206-10.409l7.78-17.262c0.416-0.922,1.152-1.66,2.074-2.075l17.263-7.78
		C448.329,263.066,448.366,241.716,433.313,234.932z M162.372,70.23l0.463-0.209c6.757-3.045,11.122-9.664,10.874-17.477
		c1.663-0.188-9.223-0.051,158.561-0.095c7.043,0,12.773,5.729,12.773,12.772v169.319l-0.867,0.391
		c-15.017,6.768-15.053,28.118,0,34.902l0.465,0.21c-1.399,5.536-6.407,9.65-12.371,9.65H175.144
		c-7.043,0-12.772-5.729-12.772-12.772V70.23z M117.384,89.26l-7.348-16.304c-1.856-4.118-5.146-7.407-9.262-9.262L84.47,56.346
		c-2.734-1.232-2.766-5.125,0-6.373l16.304-7.348c4.118-1.856,7.407-5.146,9.262-9.262l7.349-16.305
		c1.232-2.734,5.125-2.766,6.372,0l7.348,16.305c1.856,4.117,5.145,7.406,9.262,9.262l16.304,7.348c2.73,1.231,2.775,5.122,0,6.373
		l-16.303,7.348c-4.117,1.855-7.406,5.144-9.263,9.261c0,0,0,0,0,0.001l-7.348,16.304C122.514,92.019,118.626,92.013,117.384,89.26z
		 M285.635,439.236h-63.855v-38.5c0-2.351,1.913-4.264,4.264-4.264c0.101,0,60.093,0.005,56.186,0.087
		c1.941,0.398,3.405,2.12,3.405,4.177V439.236z M276.005,368.312v13.16H231.41v-13.16c0-15.057-4.625-27.384-12.998-36.169h70.59
		C280.63,340.927,276.005,353.255,276.005,368.312z M331.434,317.143H175.981c-28.153,0-51.058-22.905-51.058-51.058V105.809
		c5.498-1.297,10.095-5.028,12.509-10.385l7.349-16.304h-0.001c0.704-1.557,2.222-1.906,2.591-2.129v189.93
		c0,15.314,12.458,27.772,27.772,27.772H332.27c12.04,0,22.311-7.703,26.154-18.438c2.17,1.166,4.12,1.286,5.089,3.433
		c5.2,11.512,7.404,16.495,8.08,17.87C361.941,309.893,347.274,317.143,331.434,317.143z M427.15,256.159l-17.263,7.78
		c-4.26,1.92-7.665,5.324-9.586,9.585c0,0,0,0,0,0.001l-7.78,17.263c-1.24,2.749-4.549,3.062-6.421,1.503
		c-1.373-1.375,0.026,0.812-8.911-18.766c-1.921-4.262-5.326-7.666-9.586-9.586l-17.262-7.78c-3.24-1.46-3.279-6.074,0-7.552
		c10.017-4.515,6.961-3.137,17.262-7.78c4.261-1.92,7.666-5.325,9.586-9.587l7.78-17.262c0.771-1.71,2.32-2.527,4.032-2.429
		c0.131,0.017,0.262,0.032,0.395,0.043c0.95,0.139,2.341,0.647,3.125,2.386l7.78,17.264c1.921,4.261,5.326,7.665,9.586,9.585
		l17.262,7.78C430.389,250.067,430.428,254.681,427.15,256.159z"/>
</g>
<g>
</g>
<g>
</g>
<g>
</g>
<g>
</g>
<g>
</g>
<g>
</g>
<g>
</g>
<g>
</g>
<g>
</g>
<g>
</g>
<g>
</g>
<g>
</g>
<g>
</g>
<g>
</g>
<g>
</g>
</svg>
