<?xml version="1.0" encoding="iso-8859-1"?>
<!-- Generator: Adobe Illustrator 23.1.0, SVG Export Plug-In . SVG Version: 6.00 Build 0)  -->
<svg version="1.1" id="Capa_1" xmlns="http://www.w3.org/2000/svg" xmlns:xlink="http://www.w3.org/1999/xlink" x="0px" y="0px"
	 viewBox="0 0 511.947 511.947" style="enable-background:new 0 0 511.947 511.947;" xml:space="preserve">
<g>
	<path style="fill:#4E5660;" d="M367.521,278.067L225.406,135.952c-13.196-13.196-32.82-18.876-68.318,16.622
		s-41.842,93.538-73.914,125.61l-60.562,60.562c-20.187,20.187-20.187,52.915,0,73.102l69.013,69.013
		c20.187,20.186,52.915,20.186,73.102,0l60.562-60.562c32.072-32.072,90.113-38.417,125.61-73.914S380.717,291.263,367.521,278.067z
		"/>
	<path style="fill:#3A4351;" d="M164.727,480.861l33.857-33.857c-76.477-44.33-86.315-166.229-61.972-267.025
		c-19.275,33.358-28.723,73.489-53.438,98.205l-60.562,60.562c-20.187,20.187-20.187,52.915,0,73.102l69.013,69.013
		C111.812,501.048,144.541,501.048,164.727,480.861z"/>
	<path style="fill:#3A4351;" d="M476.063,164.404L339.069,27.41c-15.148-15.148-39.707-15.148-54.855,0l-56.248,56.248
		c-15.148,15.148-15.148,39.707,0,54.855l136.994,136.994c15.148,15.148,39.707,15.148,54.855,0l56.248-56.248
		C491.211,204.111,491.211,179.552,476.063,164.404z"/>
	<path style="fill:#CDE9FA;" d="M468.188,156.529L346.944,35.285L291.65,90.58c-9.519,9.519-9.519,24.953,0,34.472l86.772,86.772
		c9.519,9.519,24.953,9.519,34.472,0L468.188,156.529z"/>
	<path style="fill:#9FE6E6;" d="M263.162,240.311L263.162,240.311c-13-13-34.076-13-47.076,0l-21.969,21.969
		c-13,13-13,34.076,0,47.076l0,0c13,13,34.076,13,47.076,0l21.969-21.969C276.162,274.387,276.162,253.311,263.162,240.311z"/>
	<circle style="fill:#EDA1AB;" cx="141.041" cy="362.432" r="33.288"/>
	<path style="fill:#E1796E;" d="M149.77,394.551c-9.9-18.726-16.617-40.226-20.567-63.228c-4.264,1.62-8.265,4.137-11.7,7.572
		c-13,13-13,34.076,0,47.076C126.245,394.711,138.636,397.565,149.77,394.551z"/>
	<path style="fill:#FFFFFF;" d="M98.766,433.81c-1.919,0-3.839-0.733-5.303-2.197L71.86,410.01c-2.929-2.929-2.929-7.678,0-10.606
		c2.929-2.929,7.678-2.929,10.606,0l21.604,21.603c2.929,2.929,2.929,7.678,0,10.607C102.605,433.078,100.686,433.81,98.766,433.81z
		"/>
	<g>
		<path style="fill:#D99A84;" d="M391.455,325.949c0-22.125-3.594-50.538-17.238-85.719c-4.11-10.596,7.685-20.298,17.353-14.323
			c32.679,20.197,53.417,54.071,53.417,100.042s-20.738,79.845-53.417,100.042c-9.668,5.975-21.462-3.727-17.353-14.323
			C387.862,376.488,391.455,348.074,391.455,325.949z"/>
		<path style="fill:#E0B799;" d="M380.64,216.323c-16.105,0.26-29.446,12.684-30.505,28.756
			c-1.836,27.87-9.048,52.709-15.599,68.524c-8.466,20.44-22.659,45.315-48.727,72.595c-7.852,8.218-0.668,21.696,10.551,19.875
			c37.919-6.155,70.04-29.514,87.632-71.984c5.787-13.97,8.997-27.589,9.902-40.686c1.048-15.18,19.371-22.423,30.564-12.115
			c2.122,1.955,4.132,3.888,6.037,5.794c15.644,15.644,33.194,38.276,48.422,72.799c4.587,10.4,19.789,8.92,22.4-2.142
			c8.824-37.388-0.464-76.003-32.97-108.509C444.168,225.05,411.287,215.828,380.64,216.323z"/>
	</g>
	<path d="M112.2,333.591c-15.94,15.94-15.942,41.741,0,57.682c15.94,15.94,41.741,15.942,57.682,0
		c15.94-15.939,15.942-41.741,0-57.682C153.943,317.651,128.142,317.648,112.2,333.591z M159.276,380.667
		c-10.054,10.056-26.414,10.055-36.469,0c-10.055-10.055-10.055-26.414,0-36.469c10.079-10.079,26.391-10.079,36.469,0
		C169.354,354.276,169.355,370.588,159.276,380.667z M230.953,261.914l-15.232,15.232c-2.929,2.929-2.929,7.678,0,10.606
		c2.929,2.929,7.678,2.929,10.607,0l15.232-15.232c2.929-2.929,2.929-7.678,0-10.606
		C238.63,258.986,233.881,258.986,230.953,261.914z M473.652,243.927c-1.946-1.946-3.967-3.809-6.047-5.603l13.762-13.762
		c18.047-18.047,18.048-47.414,0-65.461L344.372,22.107c-15.043-15.043-38.279-17.919-56.505-6.997
		c-3.553,2.129-4.707,6.735-2.578,10.288c2.129,3.553,6.734,4.709,10.288,2.578c12.315-7.38,28.018-5.432,38.188,4.737l2.572,2.572
		l-49.991,49.991c-12.428,12.429-12.428,32.651,0,45.079c5.924,5.924,64.512,64.512,81.028,81.028
		c-13.105,5.038-22.904,17.01-24.558,31.373L233.26,133.199c-12.19-12.2-12.187-32.042,0.009-44.239l31.247-31.247
		c2.929-2.929,2.929-7.678,0-10.606c-2.929-2.93-7.678-2.929-10.606,0l-31.248,31.247c-10.985,10.985-15.271,26.161-12.883,40.428
		c-16.64-3.154-35.81,6.303-57.995,28.488c-36.711,36.711-43.294,94.99-73.914,125.61l-60.561,60.561
		c-23.079,23.079-23.079,60.63,0,83.708l69.013,69.013c20.709,20.71,53.947,23.064,77.309,5.552c3.314-2.484,3.987-7.185,1.502-10.5
		c-2.483-3.314-7.185-3.988-10.499-1.502c-17.448,13.08-42.256,11.293-57.705-4.156l-69.013-69.013
		c-17.23-17.23-17.23-45.265,0-62.496l60.561-60.561c33.338-33.337,39.825-91.52,73.914-125.61
		c37.167-37.165,51.564-22.77,57.712-16.622c4.019,4.019,114.345,114.345,120.681,120.681c-6.304,42.35-23.24,79.146-57.587,116.084
		c-22.271,9.727-46.196,19.961-63.211,36.976l-33.843,33.843c-2.929,2.929-2.929,7.678,0,10.606c2.929,2.929,7.678,2.929,10.607,0
		l33.843-33.843c11.773-11.773,27.557-19.959,44.757-27.723c1.971,10.172,11.397,17.352,22.214,15.598
		c36.101-5.86,65.403-26.248,84.205-58.117c-2.557,17.372-7.37,35.103-14.543,53.596c-6.695,17.262,12.497,33.174,28.288,23.415
		c36.639-22.645,56.858-60.296,56.969-106.044c7.188,11.1,13.689,23.239,19.574,36.581c7.489,16.973,32.296,14.627,36.561-3.446
		C518.538,317.427,506.121,276.396,473.652,243.927z M470.76,169.707c12.199,12.2,12.199,32.049,0,44.249l-15.268,15.268
		c-10.299-6.718-21.769-11.857-34.094-15.299l46.79-46.79L470.76,169.707z M457.582,156.529L407.59,206.52
		c-1.52,1.52-3.293,2.693-5.264,3.534c-5.12-0.67-10.345-1.075-15.658-1.201c-2.707-1.698-3.244-2.798-10.715-10.105l61.924-61.924
		L457.582,156.529z M296.953,119.748c-6.58-6.579-6.58-17.286,0-23.866l49.991-49.991l19.705,19.705l-61.924,61.924L296.953,119.748
		z M315.331,138.126l61.924-61.924l19.705,19.705l-61.924,61.924L315.331,138.126z M365.347,188.142l-19.704-19.704l61.924-61.924
		l19.704,19.704L365.347,188.142z M387.627,419.612c-2.435,1.503-4.41,0.244-5.146-0.368c-0.718-0.597-2.279-2.266-1.271-4.863
		c12.733-32.832,19.494-66.043,17.343-101.329c1.44-6.414,2.387-12.803,2.824-19.13c0.615-8.906,11.405-13.189,18-7.115
		c5.621,5.177,11.014,10.747,16.248,16.86c1.231,7.147,1.862,14.63,1.862,22.284C437.487,367.064,420.246,399.451,387.627,419.612z
		 M494.018,356.016c-0.658,2.786-2.946,3.29-3.899,3.378c-0.929,0.085-3.214,0.01-4.34-2.54
		c-13.712-31.085-31.649-58.428-56.24-81.082c-15.813-14.563-41.645-4.344-43.126,17.115c-0.867,12.551-4.012,25.448-9.349,38.332
		c-15.733,37.983-44.055,61.308-81.904,67.451c-2.829,0.457-4.168-1.462-4.614-2.309c-0.434-0.827-1.239-2.966,0.687-4.981
		c40.255-42.127,62.615-88.566,66.387-145.808c0.791-12,10.956-21.554,23.143-21.751c30.354-0.489,60.564,8.991,82.284,30.711
		C492.117,283.605,502.827,318.697,494.018,356.016z M268.465,235.008c-15.939-15.94-41.741-15.943-57.682,0l-5.681,5.681
		l-17.205-17.205c-2.929-2.929-7.678-2.929-10.606,0c-2.929,2.929-2.929,7.678,0,10.606l17.205,17.205l-5.681,5.681
		c-15.903,15.903-15.903,41.779,0,57.682c15.902,15.902,41.778,15.904,57.682,0l5.681-5.681l17.205,17.205
		c2.929,2.929,7.678,2.929,10.607,0c2.929-2.929,2.929-7.678,0-10.606l-17.205-17.205l5.681-5.681
		C284.405,276.751,284.408,250.95,268.465,235.008z M257.859,282.084l-21.969,21.969c-10.077,10.077-26.39,10.079-36.469,0
		c-10.054-10.055-10.054-26.415,0-36.469l21.969-21.969c10.079-10.079,26.391-10.079,36.469,0
		C267.937,255.693,267.938,272.005,257.859,282.084z"/>
</g>
<g>
</g>
<g>
</g>
<g>
</g>
<g>
</g>
<g>
</g>
<g>
</g>
<g>
</g>
<g>
</g>
<g>
</g>
<g>
</g>
<g>
</g>
<g>
</g>
<g>
</g>
<g>
</g>
<g>
</g>
</svg>
