<?xml version="1.0" encoding="iso-8859-1"?>
<!-- Generator: Adobe Illustrator 23.1.0, SVG Export Plug-In . SVG Version: 6.00 Build 0)  -->
<svg version="1.1" id="Capa_1" xmlns="http://www.w3.org/2000/svg" xmlns:xlink="http://www.w3.org/1999/xlink" x="0px" y="0px"
	 viewBox="0 0 512.001 512.001" style="enable-background:new 0 0 512.001 512.001;" xml:space="preserve">
<g>
	<path style="fill:#FBF1CF;" d="M403.013,408.079H108.988c-32.57,0-58.973-26.403-58.973-58.973V91.674
		c0-32.57,26.403-58.973,58.973-58.973h294.025c32.57,0,58.973,26.403,58.973,58.973v257.432
		C461.986,381.676,435.583,408.079,403.013,408.079z"/>
	<path style="fill:#F7DFB7;" d="M108.988,32.701c-32.57,0-58.973,26.403-58.973,58.973v257.432c0,32.57,26.403,58.973,58.973,58.973
		h144.758c-115.78-95.221-106.04-277.535-96.816-375.379H108.988z"/>
	<path style="fill:#EDA1AB;" d="M461.986,172.518H50.015V91.674c0-32.57,26.403-58.973,58.973-58.973h294.025
		c32.57,0,58.973,26.403,58.973,58.973V172.518z"/>
	<path style="fill:#E1796E;" d="M156.93,32.701h-47.942c-32.57,0-58.973,26.403-58.973,58.973v80.843h103.161
		C149.797,119.95,153.4,70.142,156.93,32.701z"/>
	<circle style="fill:#E0B799;" cx="256.001" cy="370.732" r="133.768"/>
	<path style="fill:#D99A84;" d="M214.565,243.517c-53.594,17.445-92.332,67.802-92.332,127.216
		c0,73.878,59.89,133.768,133.768,133.768c34.881,0,66.639-13.355,90.452-35.225C165.613,466.246,178.219,298.48,214.565,243.517z"
		/>
	<path style="fill:#4E5660;" d="M122.233,370.732c0,73.878,59.89,133.768,133.768,133.768s133.768-59.89,133.768-133.768H122.233z"
		/>
	<path style="fill:#3A4351;" d="M197.61,370.732h-75.377c0,73.878,59.89,133.768,133.768,133.768
		c34.881,0,66.639-13.355,90.452-35.225C252.898,467.708,211.113,422.054,197.61,370.732z"/>
	
		<ellipse transform="matrix(0.7071 -0.7071 0.7071 0.7071 -187.1665 289.6048)" style="fill:#FFFFFF;" cx="256.001" cy="370.732" rx="92.385" ry="92.385"/>
	<path style="fill:#FBF1CF;" d="M200.694,296.725c-22.51,16.849-37.078,43.727-37.078,74.007c0,51.023,41.362,92.385,92.385,92.385
		c13.808,0,26.905-3.034,38.67-8.464C210.367,430.199,192.579,355.417,200.694,296.725z"/>
	<g>
		<g>
			<ellipse style="fill:#FFFFFF;" cx="154.016" cy="117.217" rx="37.63" ry="29.967"/>
			<ellipse style="fill:#FFFFFF;" cx="357.985" cy="117.217" rx="37.63" ry="29.967"/>
		</g>
	</g>
	<path style="fill:#4E5660;" d="M248.857,116.964c4.149,3.462,10.138,3.462,14.287,0c6.939-5.789,15.622-9.54,25.086-10.287
		c13.866-1.093,26.541,4.102,35.477,13.038c14.412,14.412,18.496,50.803,52.575,59.865c7.984,2.123,9.533,12.811,2.521,17.18
		c-30.784,19.18-78.926,27.965-122.803-18.076c-43.877,46.041-92.019,37.255-122.803,18.076c-7.012-4.369-5.463-15.057,2.521-17.18
		c34.08-9.062,38.164-45.453,52.575-59.865c8.935-8.936,21.611-14.131,35.477-13.038
		C233.235,107.424,241.918,111.175,248.857,116.964z"/>
	<path style="fill:#4E5660;" d="M120.22,80.679L120.22,80.679c-9.932,0-17.984-8.052-17.984-17.984V25.484
		c0-9.932,8.052-17.984,17.984-17.984l0,0c9.932,0,17.984,8.052,17.984,17.984v37.211C138.204,72.627,130.152,80.679,120.22,80.679z
		"/>
	<path style="fill:#4E5660;" d="M391.781,80.679L391.781,80.679c9.932,0,17.984-8.052,17.984-17.984V25.484
		c0-9.932-8.052-17.984-17.984-17.984l0,0c-9.932,0-17.984,8.052-17.984,17.984v37.211
		C373.798,72.627,381.849,80.679,391.781,80.679z"/>
	<path d="M273.091,343.035l-9.591,9.591v-30.872c0-4.142-3.357-7.5-7.5-7.5c-4.142,0-7.5,3.358-7.5,7.5v48.978
		c0,6.718,8.118,9.987,12.804,5.303l22.395-22.395c2.929-2.929,2.929-7.678,0-10.606
		C280.769,340.106,276.021,340.106,273.091,343.035z M461.986,101.033c-4.143,0-7.5,3.358-7.5,7.5v56.485h-91.175
		c-17.06-13.227-21.531-37.836-34.3-50.606c-18.707-18.704-49.295-21.037-70.672-3.207c-1.377,1.149-3.3,1.149-4.678,0
		c-21.421-17.868-52.008-15.458-70.67,3.207c-12.732,12.733-17.272,37.403-34.301,50.606H57.515V91.674
		c0-23.291,15.509-43.243,37.221-49.455v20.476c0,14.052,11.432,25.484,25.484,25.484c14.052,0,25.484-11.432,25.484-25.484V40.201
		h220.594v22.494c0,14.052,11.432,25.484,25.483,25.484c14.052,0,25.484-11.432,25.484-25.484V42.226
		c16.046,4.633,29.163,16.949,34.57,33.094c1.311,3.916,5.555,6.049,9.493,4.73c3.928-1.316,6.045-5.566,4.729-9.494
		c-7.444-22.224-26.198-38.835-48.793-43.798v-1.275C417.265,11.432,405.833,0,391.781,0c-13.957,0-25.323,11.28-25.476,25.201
		H145.697C145.544,11.28,134.177,0,120.22,0c-14.052,0-25.484,11.432-25.484,25.484v1.27c-30.198,6.571-52.221,33.38-52.221,64.92
		v257.432c0,36.654,29.82,66.474,66.473,66.474h12.999c4.621,13.822,11.4,26.917,20.239,38.905
		c2.459,3.334,7.155,4.044,10.487,1.586c3.334-2.458,4.044-7.153,1.586-10.487c-14.42-19.559-22.889-42.655-24.324-67.351h26.421
		c3.848,51.587,47.05,92.385,99.605,92.385s95.756-40.798,99.604-92.385h26.435C378.145,444.378,323.106,497,256.001,497
		c-28.782,0-55.888-9.431-78.388-27.272c-3.246-2.574-7.963-2.029-10.537,1.216c-2.574,3.246-2.029,7.963,1.216,10.537
		c76.306,60.508,190.433,27.183,221.676-65.901h13.045c36.653,0,66.473-29.82,66.473-66.474V108.533
		C469.486,104.391,466.129,101.033,461.986,101.033z M381.298,25.484c0-5.781,4.703-10.484,10.483-10.484
		c5.781,0,10.484,4.703,10.484,10.484v37.211c0,5.781-4.703,10.484-10.484,10.484c-5.78,0-10.483-4.703-10.483-10.484V25.484z
		 M109.736,25.484c0-5.781,4.703-10.484,10.484-10.484c5.781,0,10.484,4.703,10.484,10.484v37.211
		c0,5.781-4.703,10.484-10.484,10.484c-5.781,0-10.484-4.703-10.484-10.484C109.736,51.813,109.736,36.824,109.736,25.484z
		 M136.257,188.403c0.124-0.833,0.592-1.363,1.388-1.575c37.755-10.04,43.041-48.899,55.952-61.81
		c13.3-13.299,35.139-15.071,50.455-2.295c6.923,5.775,16.972,5.775,23.895,0c15.316-12.775,37.148-11.015,50.456,2.295
		c12.917,12.917,18.197,51.77,55.951,61.81c0.797,0.212,1.264,0.742,1.389,1.575c0.089,0.595,0.004,1.423-0.906,1.991
		c-18.359,11.439-66.162,32.692-113.407-16.884c-2.955-3.1-7.905-3.099-10.859,0c-47.245,49.575-95.048,28.323-113.408,16.884
		C136.253,189.827,136.168,188.998,136.257,188.403z M256.001,455.618c-46.766,0-84.882-38.034-84.885-84.892
		c0.004-46.803,38.082-84.879,84.885-84.879c46.806,0,84.885,38.08,84.885,84.885C340.885,417.538,302.806,455.618,256.001,455.618z
		 M355.605,363.232c-3.848-51.587-47.05-92.385-99.604-92.385s-95.757,40.798-99.605,92.385h-26.434
		c3.895-66.145,58.933-118.768,126.039-118.768s122.144,52.622,126.039,118.768H355.605z M454.486,349.106
		c0,28.383-23.091,51.474-51.473,51.474h-8.929c19.032-88.132-48.448-171.115-138.084-171.115
		c-89.562,0-157.038,82.762-138.101,171.115h-8.911c-28.382,0-51.473-23.091-51.473-51.474V180.018h66.077
		c-4.52,7.701-2.57,17.993,5.64,23.107c13.369,8.329,34.781,17.96,60.865,16.543c23.847-1.296,45.987-11.513,65.904-30.392
		c19.918,18.878,42.058,29.095,65.904,30.392c21.549,1.168,42.546-5.13,60.864-16.543c8.162-5.086,10.182-15.368,5.64-23.107h66.077
		V349.106z M168.447,72.987v15.383c0,4.142,3.358,7.5,7.5,7.5s7.5-3.358,7.5-7.5V72.987c0-4.142-3.358-7.5-7.5-7.5
		S168.447,68.845,168.447,72.987z M328.554,72.987v15.383c0,4.142,3.357,7.5,7.5,7.5s7.5-3.358,7.5-7.5V72.987
		c0-4.142-3.357-7.5-7.5-7.5S328.554,68.845,328.554,72.987z"/>
</g>
<g>
</g>
<g>
</g>
<g>
</g>
<g>
</g>
<g>
</g>
<g>
</g>
<g>
</g>
<g>
</g>
<g>
</g>
<g>
</g>
<g>
</g>
<g>
</g>
<g>
</g>
<g>
</g>
<g>
</g>
</svg>
