<?xml version="1.0" encoding="iso-8859-1"?>
<!-- Generator: Adobe Illustrator 23.1.0, SVG Export Plug-In . SVG Version: 6.00 Build 0)  -->
<svg version="1.1" id="Capa_1" xmlns="http://www.w3.org/2000/svg" xmlns:xlink="http://www.w3.org/1999/xlink" x="0px" y="0px"
	 viewBox="0 0 512 512" style="enable-background:new 0 0 512 512;" xml:space="preserve">
<g>
	<path style="fill:#FBF1CF;" d="M442.672,145.491c-1.106-24.291-20.75-44.116-45.031-45.429
		c-18.809-1.017-35.398,8.864-44.042,23.898c-4.271,7.428-12.08,12.02-20.612,12.809c-32.906,3.044-59.245,30.762-59.296,65.066
		c-0.053,35.541,28.873,64.987,64.409,65.534c34.312,0.528,62.48-25.305,66.081-58.189c0.909-8.298,5.988-15.433,13.344-19.379
		C433.132,181.429,443.544,164.634,442.672,145.491z"/>
	<path style="fill:#F7DFB7;" d="M396.598,233.24c-7.597-29.724-30.755-53.797-61.434-61.794c-3.126-0.815-6.33-1.594-9.607-2.335
		c-4.933-1.117-8.431-5.512-8.431-10.569v-18.245c-25.241,9.033-43.577,33.215-43.434,61.973c0.177,35.442,29.1,64.624,64.539,65.1
		C363.489,267.71,385.389,253.756,396.598,233.24z"/>
	<circle style="fill:#FBF1CF;" cx="356.843" cy="36.13" r="28.63"/>
	<path style="fill:#CDE9FA;" d="M374.273,254.557c0-27.676-18.634-51.938-45.415-58.919c-32.062-8.357-70.282-11.955-107.083-11.955
		s-75.021,3.597-107.083,11.955c-26.781,6.981-45.415,31.243-45.415,58.919v207.175c0,23.62,19.148,42.768,42.768,42.768h219.461
		c23.62,0,42.768-19.148,42.768-42.768V254.557z"/>
	<path style="fill:#A2DDFD;" d="M153.42,188.122c-13.519,1.864-26.568,4.346-38.729,7.515
		c-26.781,6.981-45.415,31.243-45.415,58.919v207.175c0,23.62,19.148,42.768,42.768,42.768h135.505
		C159.189,462.358,146.361,277.242,153.42,188.122z"/>
	<path style="fill:#7ACDF9;" d="M374.273,334.09c0,33.212-52.46,37.608-103.063,6.751
		C308.279,308.372,374.273,300.878,374.273,334.09z"/>
	<path style="fill:#A2DDFD;" d="M271.21,340.841c-42.413-25.863-143.537-40.044-201.934-18.482v139.373
		c0,23.62,19.148,42.768,42.768,42.768h219.461c23.62,0,42.768-19.148,42.768-42.768V334.09
		C374.273,367.301,321.812,371.698,271.21,340.841z"/>
	<path style="fill:#7ACDF9;" d="M156.321,312.242c-31.539-1.59-62.933,1.215-87.044,10.117v139.373
		c0,23.62,19.148,42.768,42.768,42.768h135.505C191.391,477.716,165.743,393.184,156.321,312.242z"/>
	<path style="fill:#FFFFFF;" d="M151.429,473.038c-2.387,0-4.733-1.137-6.188-3.252c-2.347-3.414-1.481-8.083,1.933-10.429
		c1.294-0.89,2.885-1.852,4.899-3.069c17.012-10.284,62.201-37.603,62.201-112.196V183.683c0-4.142,3.357-7.5,7.5-7.5
		c4.143,0,7.5,3.358,7.5,7.5v160.409c0,35.408-9.352,65.49-27.794,89.409c-15.087,19.567-32.365,30.012-41.647,35.624
		c-1.732,1.047-3.23,1.952-4.163,2.594C154.373,472.61,152.893,473.038,151.429,473.038z"/>
	<path style="fill:#4E5660;" d="M265.078,49.918h-86.606c-14.939,0-27.049,12.11-27.049,27.049v98.77
		c0,7.616,6.174,13.79,13.791,13.79h113.123c7.616,0,13.79-6.174,13.79-13.79v-98.77C292.127,62.028,280.016,49.918,265.078,49.918z
		"/>
	<path style="fill:#3A4351;" d="M205.253,49.918h-26.781c-14.939,0-27.049,12.11-27.049,27.049v98.77
		c0,7.616,6.174,13.79,13.79,13.79h75.077C200.474,156.527,201.126,101.357,205.253,49.918z"/>
	<path style="fill:#FBF1CF;" d="M281.418,273.972H162.131c-10.402,0-18.834,8.432-18.834,18.834v126.032
		c0,10.402,8.432,18.834,18.834,18.834h119.287c10.402,0,18.834-8.432,18.834-18.834V292.806
		C300.252,282.404,291.82,273.972,281.418,273.972z"/>
	<path style="fill:#F7DFB7;" d="M162.131,437.672h26.28c-21.731-46.294-31.902-106.934-35.286-161.41
		c-5.855,3.194-9.828,9.404-9.828,16.544v126.032C143.297,429.239,151.729,437.672,162.131,437.672z"/>
	
		<ellipse transform="matrix(0.9732 -0.2298 0.2298 0.9732 -21.5739 54.156)" style="fill:#CDE9FA;" cx="221.775" cy="119.723" rx="32.868" ry="32.868"/>
	<path style="fill:#A2DDFD;" d="M203.404,92.464c-8.747,5.906-14.498,15.911-14.498,27.259c0,15.151,10.254,27.899,24.198,31.704
		C206.053,133.446,203.623,113.228,203.404,92.464z"/>
	<path d="M206.434,367.39h30.681c4.143,0,7.5-3.358,7.5-7.5c0-4.142-3.357-7.5-7.5-7.5h-30.681c-4.143,0-7.5,3.358-7.5,7.5
		C198.934,364.032,202.292,367.39,206.434,367.39z M356.843,72.261c19.922,0,36.13-16.208,36.13-36.13
		c0-19.922-16.208-36.13-36.13-36.13c-19.923,0-36.131,16.208-36.131,36.13C320.713,56.053,336.921,72.261,356.843,72.261z
		 M356.843,15c11.651,0,21.13,9.479,21.13,21.13c0,11.651-9.479,21.13-21.13,21.13c-11.651,0-21.131-9.479-21.131-21.13
		C335.713,24.479,345.192,15,356.843,15z M206.434,403.516h30.681c4.143,0,7.5-3.358,7.5-7.5c0-4.142-3.357-7.5-7.5-7.5h-30.681
		c-4.143,0-7.5,3.358-7.5,7.5C198.934,400.158,202.292,403.516,206.434,403.516z M229.529,119.723c0-4.283-3.472-7.754-7.754-7.754
		c-4.282,0-7.754,3.472-7.754,7.754s3.472,7.754,7.754,7.754C226.057,127.477,229.529,124.005,229.529,119.723z M262.143,119.723
		c0-22.259-18.109-40.368-40.368-40.368c-22.26,0-40.369,18.109-40.369,40.368c0,22.259,18.109,40.369,40.369,40.369
		C244.034,160.091,262.143,141.982,262.143,119.723z M196.406,119.723c0-13.988,11.381-25.368,25.369-25.368
		s25.368,11.38,25.368,25.368c0,13.988-11.38,25.369-25.368,25.369S196.406,133.711,196.406,119.723z M450.165,145.149
		c-1.274-27.971-24.167-51.065-52.118-52.577c-20.953-1.132-40.49,9.459-50.949,27.648c-2.932,5.099-8.465,8.493-14.801,9.079
		c-11.686,1.081-22.883,5.015-32.67,11.34V76.967c0-19.05-15.498-34.549-34.549-34.549H195.27c-4.143,0-7.5,3.358-7.5,7.5
		s3.357,7.5,7.5,7.5h69.808c10.779,0,19.549,8.77,19.549,19.549v98.771c0,2.244-1.185,4.212-2.959,5.326
		c-0.974,0.577-1.982,0.965-3.332,0.965c-118.818-0.318-113.47,0.761-116.25-0.84c-2.158-1.377-3.163-3.309-3.163-5.45V76.967
		c0-5.611,2.417-10.959,6.632-14.674c3.108-2.738,3.407-7.478,0.669-10.585c-2.738-3.108-7.478-3.407-10.585-0.668
		c-7.445,6.561-11.716,16.011-11.716,25.928c0.324,104.187-0.749,99.347,0.896,104.852c-11.414,1.792-22.146,3.988-32.019,6.562
		c-30.042,7.831-51.023,35.043-51.023,66.177v207.175c0,27.718,22.55,50.268,50.267,50.268H311.57c4.143,0,7.5-3.358,7.5-7.5
		s-3.357-7.5-7.5-7.5H112.044c-19.446,0-35.267-15.821-35.267-35.268v-134.01c16.227-5.204,36.397-8.058,59.02-8.364v99.479
		c0,14.521,11.814,26.335,26.335,26.335h119.286c14.521,0,26.335-11.814,26.335-26.335v-53.834
		c18.705,5.135,42.606,7.107,59.021-3.366v100.094c0,14.451-8.655,27.29-22.05,32.71c-3.84,1.554-5.692,5.926-4.139,9.766
		c1.548,3.827,5.911,5.697,9.766,4.14c19.089-7.724,31.423-26.022,31.423-46.615V261.104c16.798-12.094,27.607-30.5,29.863-51.107
		c0.622-5.672,4.148-10.751,9.434-13.586C439.993,186.26,451.141,166.618,450.165,145.149z M292.753,418.837
		c0,6.25-5.085,11.335-11.335,11.335H162.131c-6.25,0-11.335-5.085-11.335-11.335v-93.103h141.956V418.837z M292.753,310.734
		H150.797v-17.928c0-6.25,5.085-11.335,11.335-11.335h119.286c6.25,0,11.335,5.085,11.335,11.335V310.734z M359.558,348.423
		c-10.35,7.307-30.31,7.585-51.806,0.945v-21.799c21.512-8.524,43.589-10.047,53.768-3.429c3.584,2.33,5.253,5.491,5.253,9.949
		C366.773,340.308,364.413,344.997,359.558,348.423z M366.773,309.891c-13.79-6.97-36.148-6.259-59.021,1.674v-18.759
		c0-14.521-11.813-26.335-26.335-26.335H162.131c-14.521,0-26.335,11.813-26.335,26.335v11.549
		c-22.122,0.282-42.206,2.911-59.02,7.702v-57.5c0-24.309,16.369-45.553,39.807-51.662c12.1-3.154,25.609-5.715,40.158-7.636
		c2.599,1.132,5.462,1.769,8.473,1.769h113.122c3.011,0,5.874-0.637,8.473-1.769c14.549,1.921,28.058,4.482,40.158,7.636
		c23.438,6.109,39.807,27.354,39.807,51.662V309.891z M413.98,183.192c-9.644,5.173-16.094,14.583-17.254,25.171
		c-1.419,12.958-7.115,24.819-16.059,33.969c-4.672-25.829-23.888-47.167-49.918-53.952c-9.874-2.574-20.606-4.77-32.019-6.562
		c1.473-4.929,0.659-7.152,0.896-22.233c9.377-8.75,21.357-14.175,34.052-15.349c11.187-1.035,21.065-7.218,26.423-16.539
		c7.621-13.253,21.839-20.98,37.135-20.147c20.35,1.1,37.017,17.914,37.944,38.28C435.892,161.48,427.769,175.795,413.98,183.192z"
		/>
</g>
<g>
</g>
<g>
</g>
<g>
</g>
<g>
</g>
<g>
</g>
<g>
</g>
<g>
</g>
<g>
</g>
<g>
</g>
<g>
</g>
<g>
</g>
<g>
</g>
<g>
</g>
<g>
</g>
<g>
</g>
</svg>
