<?xml version="1.0" encoding="iso-8859-1"?>
<!-- Generator: Adobe Illustrator 23.1.0, SVG Export Plug-In . SVG Version: 6.00 Build 0)  -->
<svg version="1.1" id="Capa_1" xmlns="http://www.w3.org/2000/svg" xmlns:xlink="http://www.w3.org/1999/xlink" x="0px" y="0px"
	 viewBox="0 0 512.02 512.02" style="enable-background:new 0 0 512.02 512.02;" xml:space="preserve">
<g>
	<path style="fill:#A2DDFD;" d="M31.029,21.691l-9.33,9.33c-18.916,18.915-18.916,49.583,0,68.499l91.208,91.208l77.829-77.829
		L99.528,21.691C80.613,2.776,49.945,2.776,31.029,21.691z"/>
	
		<rect x="80.358" y="112.148" transform="matrix(0.7071 -0.7071 0.7071 0.7071 -56.0753 135.3889)" style="fill:#7ACDF9;" width="110.067" height="46.471"/>
	<path style="fill:#A2DDFD;" d="M478.737,231.935L231.943,478.73L105.347,352.134c-32.418-32.418-32.418-84.978,0-117.396
		l129.399-129.399c32.418-32.418,84.978-32.418,117.396,0L478.737,231.935z"/>
	<path style="fill:#7ACDF9;" d="M230.74,109.345L105.347,234.738c-32.418,32.418-32.418,84.978,0,117.396L231.943,478.73
		l62.093-62.093C211.953,348.341,189.387,210.844,230.74,109.345z"/>
	<g>
		<g>
			
				<ellipse transform="matrix(0.7071 -0.7071 0.7071 0.7071 -163.6465 227.3963)" style="fill:#FFFFFF;" cx="192.667" cy="311.236" rx="30.938" ry="24.637"/>
			
				<ellipse transform="matrix(0.7071 -0.7071 0.7071 0.7071 -45.0695 276.5092)" style="fill:#FFFFFF;" cx="311.244" cy="192.659" rx="30.938" ry="24.637"/>
			
				<ellipse transform="matrix(0.7071 -0.7071 0.7071 0.7071 -98.8132 238.5701)" style="fill:#4E5660;" cx="238.57" cy="238.562" rx="16.423" ry="18.377"/>
		</g>
	</g>
	<path style="fill:#CDE9FA;" d="M496.963,250.161c-10.066,10.066-26.385,10.066-36.451,0L333.916,123.565
		c-22.316-22.316-58.628-22.316-80.945,0L123.573,252.964c-22.317,22.317-22.316,58.629,0,80.945l126.596,126.596
		c10.066,10.066,10.066,26.385,0,36.451c-10.066,10.066-26.385,10.066-36.451,0L87.122,370.36
		c-42.416-42.416-42.415-111.431,0-153.847L216.521,87.114c42.415-42.415,111.431-42.416,153.847,0L496.963,213.71
		C507.029,223.776,507.029,240.095,496.963,250.161z"/>
	<path style="fill:#A2DDFD;" d="M123.573,333.909c-22.316-22.316-22.317-58.628,0-80.945l58.422-58.422
		c-18.584-6.254-28.484-31.668-19.837-53.065l-75.036,75.036c-42.415,42.415-42.416,111.431,0,153.847l126.596,126.596
		c10.066,10.066,26.385,10.066,36.451,0c10.066-10.066,10.066-26.385,0-36.451L123.573,333.909z"/>
	<path style="fill:#3A4351;" d="M412.928,94.774c-12.571,12.571-25.852,30.642-36.308,58.155
		c-5.702,15.004-27.137,14.538-31.953-0.773c-12.329-39.189-7.179-76.486,20.989-104.654s65.465-33.318,104.654-20.989
		c15.311,4.817,15.777,26.251,0.773,31.953C443.57,68.922,425.499,82.202,412.928,94.774z"/>
	<path style="fill:#4E5660;" d="M415.806,170.906c-17.111,0-38.447,3.26-64.288,14.869c-14.092,6.331-28.362-8.574-21.22-22.272
		c18.28-35.061,47.168-56.939,85.509-56.939s67.229,21.878,85.509,56.939c7.142,13.699-7.129,28.603-21.221,22.272
		C454.253,174.166,432.917,170.906,415.806,170.906z"/>
	<path d="M502.267,208.406l-13.701-13.701c16.229-1.134,27.655-18.833,19.399-34.67c-3.344-6.412-7.053-12.441-11.024-17.919
		c-2.431-3.354-7.12-4.1-10.474-1.67c-3.353,2.432-4.101,7.121-1.669,10.475c3.542,4.886,6.862,10.285,9.867,16.049
		c3.838,7.363-3.865,15.39-11.497,11.965c-46.097-20.711-88.616-20.715-134.723-0.001c-7.623,3.431-15.337-4.598-11.497-11.964
		c12.583-24.136,36.479-52.906,78.858-52.906c16.859,0,32.186,4.602,45.555,13.678c3.427,2.327,8.091,1.436,10.417-1.992
		c2.327-3.428,1.435-8.092-1.993-10.418c-14.987-10.175-31.986-15.617-50.571-16.209c14.484-14.189,32.332-25.208,54.534-33.646
		c21.695-8.244,20.866-39.181-1.187-46.118c-21.252-6.686-41.462-8.339-60.069-4.913c-28.897,5.32-52.389,23.258-66.634,45.802
		c-44.561-22.521-98.933-14.144-134.64,21.563l-20.482,20.482l-85.904-85.905c-21.81-21.809-57.296-21.809-79.105,0l-9.33,9.331
		c-21.86,21.859-21.863,57.242,0,79.105l85.904,85.904l-20.481,20.481c-45.34,45.341-45.34,119.114,0,164.454l69.392,69.393
		c2.93,2.929,7.678,2.928,10.607,0c2.929-2.93,2.929-7.678,0-10.607l-69.392-69.393c-39.491-39.491-39.491-103.748,0-143.239
		c14.969-14.969,109.071-109.07,129.399-129.398c31.036-31.037,78.258-38.369,117.026-18.909
		c-5.033,11.665-7.701,24.298-7.974,37.718c-24.959-17.75-60.314-15.859-83.207,7.034L118.269,247.66
		c-25.265,25.265-25.266,66.284,0,91.552l126.596,126.597c7.142,7.141,7.143,18.702,0,25.844c-7.125,7.127-18.719,7.127-25.845,0
		l-32.185-32.186c-2.929-2.928-7.678-2.928-10.606,0c-2.929,2.93-2.929,7.678,0,10.607l32.185,32.186
		c12.973,12.972,34.084,12.974,47.058-0.001c11.347-11.347,12.62-28.518,4.699-41.151l200.951-200.951
		c12.888,8.045,30.02,6.431,41.145-4.692C515.27,242.461,515.273,221.412,502.267,208.406z M370.959,52.806
		c31.238-31.24,70.046-27.65,97.101-19.139c8.511,2.678,8.73,14.608,0.359,17.788c-28.284,10.748-52.086,26.144-70.886,49.232
		c-18.531,3.388-35.769,12.175-50.685,27.1C342.953,98.32,351.152,72.613,370.959,52.806z M112.907,180.121L27.002,94.217
		c-15.998-15.997-16-41.893,0-57.892l9.33-9.33c15.961-15.961,41.932-15.961,57.893,0l85.904,85.904L112.907,180.121z
		 M250.168,449.897L128.876,328.604c-19.403-19.402-19.403-50.935,0-70.337l129.399-129.398c19.403-19.403,50.935-19.405,70.338,0
		l3.768,3.768c0.515,3.294,1.151,6.623,1.928,9.99c-3.838,5.35-7.4,11.151-10.662,17.409c-10.43,20.007,10.367,41.83,30.944,32.581
		c9.511-4.273,18.769-7.557,27.879-9.891l67.435,67.436L250.168,449.897z M491.66,244.857c-7.124,7.124-18.714,7.126-25.84,0.004
		c-0.107-0.107-28.95-28.951-65.51-65.511c19.724-2.384,38.587-0.178,57.582,5.895l33.768,33.768
		C498.802,226.154,498.803,237.716,491.66,244.857z M70.83,60.216c-2.929-2.93-7.678-2.929-10.607-0.001
		c-2.929,2.929-2.929,7.678,0,10.606l11.879,11.88c2.928,2.929,7.677,2.93,10.606,0.001c2.929-2.929,2.929-7.678,0-10.606
		L70.83,60.216z M281.261,180.597c2.93,2.929,7.678,2.928,10.607,0c2.929-2.93,2.929-7.678,0-10.607l-8.485-8.485
		c-2.929-2.928-7.678-2.928-10.606,0c-2.929,2.93-2.929,7.678,0,10.607L281.261,180.597z M256.868,256.859
		c9.327-9.327,8.707-25.124-1.382-35.213c-10.09-10.091-25.886-10.71-35.214-1.383c-9.327,9.328-8.707,25.124,1.382,35.215
		C231.709,265.531,247.51,266.218,256.868,256.859z M232.261,244.872c-4.241-4.241-4.861-10.522-1.382-14.001
		c3.724-3.725,10.068-2.551,14,1.381c0.001,0,0.001,0.001,0.001,0.001c4.241,4.24,4.861,10.521,1.382,14
		C242.781,249.733,236.5,249.111,232.261,244.872z M172.119,272.767c-2.929-2.928-7.678-2.928-10.606,0
		c-2.929,2.93-2.929,7.678,0,10.607l8.485,8.485c2.93,2.929,7.678,2.928,10.606,0c2.929-2.93,2.929-7.678,0-10.608L172.119,272.767z
		 M235.658,402.757c2.93,2.929,7.678,2.928,10.607,0l156.5-156.5c2.929-2.93,2.929-7.678,0-10.607
		c-2.929-2.928-7.678-2.928-10.606,0l-156.5,156.5C232.729,395.079,232.729,399.827,235.658,402.757z"/>
</g>
<g>
</g>
<g>
</g>
<g>
</g>
<g>
</g>
<g>
</g>
<g>
</g>
<g>
</g>
<g>
</g>
<g>
</g>
<g>
</g>
<g>
</g>
<g>
</g>
<g>
</g>
<g>
</g>
<g>
</g>
</svg>
