<?xml version="1.0" encoding="iso-8859-1"?>
<!-- Generator: Adobe Illustrator 23.1.0, SVG Export Plug-In . SVG Version: 6.00 Build 0)  -->
<svg version="1.1" id="Capa_1" xmlns="http://www.w3.org/2000/svg" xmlns:xlink="http://www.w3.org/1999/xlink" x="0px" y="0px"
	 viewBox="0 0 512 512" style="enable-background:new 0 0 512 512;" xml:space="preserve">
<g>
	<path style="fill:#CDE9FA;" d="M504.5,174.073c0-16.184-9.511-30.145-23.248-36.602c-2.75-1.292-4.385-4.18-3.892-7.178
		c3.738-22.7-13.791-44.165-37.595-44.165c-23.99,0-41.558,21.783-37.516,44.596c0.586,3.308-1.322,6.577-4.53,7.574
		c-30.675,9.531-61.459,8.468-73.794,8.468v54.615c12.336,0,43.12-1.063,73.794,8.468c3.208,0.997,5.116,4.266,4.53,7.574
		c-4.038,22.801,13.513,44.596,37.516,44.596c23.831,0,41.324-21.491,37.594-44.164c-0.493-2.999,1.142-5.886,3.892-7.179
		C494.989,204.218,504.5,190.256,504.5,174.073z"/>
	<path style="fill:#A2DDFD;" d="M373.799,143.832c-21.688,3.505-40.787,2.934-49.873,2.934v54.615
		c10.504,0,34.386-0.766,60.186,4.89C375.421,190.788,371.551,167.311,373.799,143.832z"/>
	<path style="fill:#4E5660;" d="M213.156,323.133h-44.178v-98.948h69.614v73.512C238.592,311.745,227.204,323.133,213.156,323.133z"
		/>
	<path style="fill:#F6EE86;" d="M207.067,388.586c-14.98-56.493-16.745-119.454-16.745-150.054H63.379
		c0,29.728,1.666,89.999,15.496,145.209c5.112,20.409,23.328,34.805,44.367,34.805h60.659
		C199.568,418.547,211.083,403.73,207.067,388.586z"/>
	<path style="fill:#3A4351;" d="M77.693,443.029l-11.231-11.231c-3.683-3.683-4.118-9.507-1.022-13.696l25.973-35.142
		c3.824-5.174,11.355-5.736,15.904-1.186l20.4,20.4c4.549,4.549,3.988,12.08-1.186,15.904l-35.142,25.973
		C87.2,447.147,81.376,446.712,77.693,443.029z"/>
	<path style="fill:#4E5660;" d="M78.876,383.742c5.112,20.409,23.328,34.805,44.367,34.805h60.659
		c15.667,0,27.182-14.817,23.166-29.96c-1.5-5.656-2.861-11.378-4.108-17.125H76.019C76.91,375.572,77.856,379.671,78.876,383.742z"
		/>
	<path style="fill:#F1D88C;" d="M192.351,294.77c-1.681-22.835-2.029-42.704-2.029-56.237H63.379
		c0,13.707,0.358,33.915,2.095,57.118c16.079,6.567,33.571,10.012,51.696,10.012C149.088,305.663,172.987,300.91,192.351,294.77z"/>
	<path style="fill:#EDA1AB;" d="M135.626,344.08c-4.142,0-7.5-3.357-7.5-7.5v-13.39c0-4.143,3.358-7.5,7.5-7.5
		c4.142,0,7.5,3.357,7.5,7.5v13.39C143.126,340.723,139.768,344.08,135.626,344.08z"/>
	<path style="fill:#F6EE86;" d="M354.478,231.123c0,7.262-5.887,13.149-13.149,13.149h-64.948c-52.998,0-71.913,38.02-159.211,38.02
		c-62.193,0-109.67-48.452-109.67-108.219s47.477-108.22,109.67-108.22c87.299,0,106.213,38.02,159.211,38.02h64.948
		c7.262,0,13.149,5.887,13.149,13.149V231.123z"/>
	<path style="fill:#F1D88C;" d="M92.221,68.556C42.718,79.52,7.5,122.598,7.5,174.073c0,59.768,47.477,108.22,109.67,108.22
		c13.382,0,25.151-0.896,35.688-2.409C46.692,251.722,47.279,123.51,92.221,68.556z"/>
	<path style="fill:#9FE6E6;" d="M242.794,150.653h-20.428c-7.293,0-13.206,5.912-13.206,13.206v20.428
		c0,7.293,5.912,13.206,13.206,13.206h20.428c7.293,0,13.206-5.912,13.206-13.206v-20.428
		C256,156.565,250.088,150.653,242.794,150.653z"/>
	<path style="fill:#4E5660;" d="M341.329,103.874h-25.75v140.398h25.75c7.262,0,13.149-5.887,13.149-13.149v-114.1
		C354.479,109.761,348.591,103.874,341.329,103.874z"/>
	<path d="M92.561,140.949h50.191c4.142,0,7.5-3.357,7.5-7.5c0-4.143-3.358-7.5-7.5-7.5H92.561c-4.142,0-7.5,3.357-7.5,7.5
		C85.061,137.592,88.419,140.949,92.561,140.949z M158.688,166.573H76.626c-4.142,0-7.5,3.357-7.5,7.5c0,4.143,3.358,7.5,7.5,7.5
		h82.062c4.142,0,7.5-3.357,7.5-7.5C166.188,169.931,162.83,166.573,158.688,166.573z M142.753,207.196H92.561
		c-4.142,0-7.5,3.357-7.5,7.5c0,4.143,3.358,7.5,7.5,7.5h50.191c4.142,0,7.5-3.357,7.5-7.5
		C150.253,210.554,146.895,207.196,142.753,207.196z M512,174.073c0-18.335-10.637-35.236-27.14-43.191
		c1.016-6.738,0.515-13.455-1.49-19.977c-1.218-3.96-5.416-6.183-9.373-4.965c-3.96,1.218-6.182,5.414-4.965,9.373
		c1.38,4.489,1.693,9.119,0.928,13.761c-1.024,6.218,2.308,12.462,8.102,15.184C489.566,149.666,497,161.369,497,174.073
		s-7.434,24.406-18.939,29.814c-5.793,2.724-9.124,8.968-8.101,15.183c3.025,18.393-11.282,35.447-30.194,35.447
		c-19.224,0-33.374-17.471-30.13-35.788c1.247-7.042-2.918-13.939-9.69-16.044c-11.498-3.573-24.247-6.072-37.967-7.469v-42.287
		c13.72-1.398,26.469-3.897,37.968-7.469c6.771-2.104,10.936-9.002,9.689-16.044c-3.911-22.068,17.029-41.11,39.005-34.495
		c3.968,1.196,8.15-1.05,9.345-5.017c1.195-3.967-1.051-8.15-5.018-9.345c-32.514-9.803-63.515,18.065-58.216,50.805
		c-9.93,3.026-20.931,5.186-32.774,6.475v-20.816c0-11.386-9.263-20.649-20.649-20.649h-64.947
		c-50.337,0-70.484-38.021-159.211-38.021C51.467,58.354,0,109.184,0,174.073c0,42.872,22.471,79.601,56.666,99.594
		c1.859,42.081,6.874,79.718,14.935,111.897c0.691,2.758,1.595,5.414,2.675,7.965l-14.868,20.116
		c-5.345,7.232-4.608,17.098,1.75,23.456l11.231,11.232c6.362,6.361,16.227,7.093,23.457,1.749l32.52-24.035h34.218
		c4.142,0,7.5-3.357,7.5-7.5c0-4.143-3.358-7.5-7.5-7.5h-39.343c-17.543,0-32.795-11.978-37.091-29.128
		c-0.244-0.975-0.477-1.972-0.715-2.958h111.521c0.912,3.922,1.861,7.781,2.86,11.548c1.806,6.808-0.979,13.994-6.929,17.883
		c-3.468,2.266-4.442,6.914-2.176,10.381c2.262,3.462,6.909,4.445,10.381,2.176c11.376-7.434,16.689-21.212,13.223-34.284
		c-4.757-17.938-8.302-37.187-10.793-56.031h9.633c18.161,0,32.936-14.774,32.936-32.936v-41.1c9.285-2.933,18.98-4.824,30.29-4.824
		h64.947c11.386,0,20.649-9.264,20.649-20.649v-20.817c11.843,1.289,22.845,3.449,32.774,6.475
		c-4.424,27.348,16.784,52.736,45.014,52.736c28.1,0,49.167-25.115,45.094-52.254C501.363,209.31,512,192.409,512,174.073z
		 M106.71,423.402L86.932,438.02c-1.213,0.896-2.868,0.772-3.936-0.293l-11.231-11.232c-1.067-1.066-1.19-2.722-0.294-3.935
		l11.282-15.264C89.08,414.742,97.365,420.338,106.71,423.402z M82.103,363.961c-5.022-24.795-8.384-52.521-10.047-82.763
		c13.824,5.545,29.041,8.594,45.114,8.594c28.098,0,49.261-3.791,66.78-9.018c1.615,30.279,4.892,58.129,9.793,83.187H82.103z
		 M231.092,297.697c0,9.89-8.046,17.936-17.936,17.936H201.74c-1.352-12.739-2.359-26.032-3.02-39.847
		c12.108-4.55,22.081-9.307,32.372-13.601V297.697z M308.08,236.772h-31.698c-55.282,0-73.645,38.02-159.211,38.02
		C59.878,274.792,15,230.551,15,174.073c0-56.478,44.878-100.72,102.17-100.72c85.649,0,103.815,38.021,159.211,38.021h31.698
		V236.772z M346.978,231.123c0,3.115-2.534,5.649-5.649,5.649h-18.25V111.374h18.25c3.115,0,5.649,2.534,5.649,5.649V231.123z
		 M242.794,143.153h-20.429c-11.417,0-20.706,9.288-20.706,20.705v20.429c0,11.417,9.289,20.706,20.706,20.706h20.429
		c11.417,0,20.706-9.289,20.706-20.706v-20.429C263.5,152.441,254.211,143.153,242.794,143.153z M248.5,184.287
		c0,3.146-2.56,5.706-5.706,5.706h-20.429c-3.146,0-5.706-2.56-5.706-5.706v-20.429c0-3.145,2.56-5.705,5.706-5.705h20.429
		c3.146,0,5.706,2.56,5.706,5.705V184.287z"/>
</g>
<g>
</g>
<g>
</g>
<g>
</g>
<g>
</g>
<g>
</g>
<g>
</g>
<g>
</g>
<g>
</g>
<g>
</g>
<g>
</g>
<g>
</g>
<g>
</g>
<g>
</g>
<g>
</g>
<g>
</g>
</svg>
