<?xml version="1.0" encoding="iso-8859-1"?>
<!-- Generator: Adobe Illustrator 23.1.0, SVG Export Plug-In . SVG Version: 6.00 Build 0)  -->
<svg version="1.1" id="Capa_1" xmlns="http://www.w3.org/2000/svg" xmlns:xlink="http://www.w3.org/1999/xlink" x="0px" y="0px"
	 viewBox="0 0 512 512" style="enable-background:new 0 0 512 512;" xml:space="preserve">
<g>
	<path style="fill:#F6EE86;" d="M339.8,390.856H172.198c-17.777,0-32.689-13.416-34.562-31.094L103.972,41.956
		C102.022,23.544,116.456,7.5,134.971,7.5h242.056c18.515,0,32.949,16.044,30.999,34.456l-33.664,317.806
		C372.489,377.44,357.577,390.856,339.8,390.856z"/>
	<path style="fill:#F1D88C;" d="M134.971,7.5c-18.515,0-32.949,16.044-30.999,34.456l33.664,317.806
		c1.873,17.679,16.784,31.094,34.562,31.094h87.756c-0.088-0.045-0.169-0.088-0.258-0.133
		C166.302,343.47,145.796,128.679,158.016,7.5H134.971z"/>
	<path style="fill:#A2DDFD;" d="M130.682,294.104l6.955,65.657c1.873,17.679,16.784,31.094,34.562,31.094H339.8
		c17.778,0,32.689-13.416,34.562-31.094l6.955-65.657H130.682z"/>
	<path style="fill:#7ACDF9;" d="M137.636,359.762c1.873,17.679,16.784,31.094,34.562,31.094h87.756
		c-0.088-0.045-0.169-0.088-0.258-0.133c-31.892-16.135-55.283-51.809-71.776-96.618h-57.239L137.636,359.762z"/>
	<path style="fill:#A2DDFD;" d="M377.027,7.5H134.971c-18.515,0-32.949,16.044-30.999,34.456l2.518,23.772h299.017l2.518-23.772
		C409.976,23.544,395.542,7.5,377.027,7.5z"/>
	<path style="fill:#4E5660;" d="M339.06,504.5H172.938c-17.678,0-32.008-14.331-32.008-32.008v-76.471
		c0-7.517,6.094-13.612,13.611-13.612h202.915c7.517,0,13.612,6.094,13.612,13.612v76.471
		C371.068,490.169,356.737,504.5,339.06,504.5z"/>
	<path style="fill:#3A4351;" d="M294.59,455.475c-3.801,0-7.313-2.052-9.148-5.38c-5.72-10.375-16.758-17.406-29.443-17.406
		c-12.685,0-23.723,7.031-29.443,17.406c-1.835,3.328-5.348,5.38-9.148,5.38H140.93v17.017c0,17.678,14.331,32.008,32.008,32.008
		H339.06c17.678,0,32.008-14.331,32.008-32.008v-17.017H294.59z"/>
	<path style="fill:#4E5660;" d="M301.179,348.548c-86.41,11.703-108.857-62.043-88.156-102.628c2.462-4.827,9.42-4.63,11.736,0.268
		c5.669,11.984,13.529,22.729,21.34,29.8c2.256-11.395,12.584-36,32.687-47.012c3.638-1.993,7.889,1.204,6.928,5.24
		c-7.987,33.543-3.743,82.305,18.648,105.421C307.376,342.747,305.47,347.966,301.179,348.548z"/>
	<g>
		<g>
			<ellipse style="fill:#EDA1AB;" cx="176.354" cy="165.694" rx="29.387" ry="23.403"/>
			<ellipse style="fill:#EDA1AB;" cx="335.644" cy="165.694" rx="29.387" ry="23.403"/>
			<path style="fill:#4E5660;" d="M279.693,147.713c0-14.643-10.608-16.019-23.693-16.019c-13.086,0-23.693,1.376-23.693,16.019
				c0,14.643,10.608,26.513,23.693,26.513C269.085,174.226,279.693,162.356,279.693,147.713z"/>
		</g>
	</g>
	<path style="fill:#7ACDF9;" d="M134.971,7.5c-18.515,0-32.949,16.044-30.999,34.456l2.518,23.772h48.39
		c0.264-20.863,1.352-40.541,3.135-58.228H134.971z"/>
	<path d="M255.999,181.727c17.2,0,31.193-15.259,31.193-34.014c0-12.057-6.008-17.634-11.047-20.19
		c-5.449-2.763-11.995-3.329-20.146-3.329c-8.152,0-14.697,0.566-20.146,3.329c-5.04,2.556-11.047,8.133-11.047,20.19
		C224.806,166.468,238.799,181.727,255.999,181.727z M255.999,139.194c15.538,0,16.193,2.611,16.193,8.519
		c0,10.484-7.265,19.014-16.193,19.014c-8.929,0-16.193-8.529-16.193-19.014C239.806,141.806,240.46,139.194,255.999,139.194z
		 M377.026,0H149.13c-4.142,0-7.5,3.357-7.5,7.5s3.358,7.5,7.5,7.5h17.363v43.228h-53.255l-1.807-17.062
		c-0.834-7.874,2.306-15.609,8.398-20.692c3.181-2.653,3.608-7.383,0.954-10.563c-2.654-3.182-7.384-3.608-10.563-0.954
		c-9.944,8.297-15.067,20.929-13.705,33.79c6.682,63.079,26.548,250.632,33.663,317.806c0.84,7.931,3.843,15.295,8.629,21.443
		c-3.332,3.734-5.377,8.64-5.377,14.026v76.472c0,21.785,17.723,39.508,39.508,39.508h143.535c4.143,0,7.5-3.357,7.5-7.5
		s-3.357-7.5-7.5-7.5H172.938c-13.514,0-24.508-10.994-24.508-24.508v-9.518h68.978c6.546,0,12.568-3.548,15.716-9.259
		c9.931-18.008,35.82-18.011,45.751-0.001c3.148,5.712,9.171,9.26,15.717,9.26h68.978v9.518c0,9.805-5.819,18.646-14.826,22.523
		c-3.805,1.639-5.561,6.051-3.923,9.854c1.638,3.804,6.048,5.562,9.855,3.923c14.516-6.25,23.895-20.499,23.895-36.301v-76.472
		c0-5.386-2.045-10.292-5.377-14.026c4.786-6.147,7.789-13.511,8.628-21.443c6.819-64.371,26.868-253.648,33.664-317.806
		C417.898,19.953,400.016,0,377.026,0z M263.499,15h67.007v43.228h-67.007V15z M181.493,15h67.006v43.228h-67.006V15z
		 M363.568,447.975h-68.978c-1.081,0-2.07-0.575-2.581-1.501c-15.623-28.337-56.394-28.342-72.022,0.001
		c-0.51,0.925-1.499,1.5-2.58,1.5H148.43v-51.954c0-3.406,2.786-6.111,6.111-6.111c215.983,0.1,203.033-0.242,204.698,0.267
		c2.825,0.971,4.329,3.335,4.329,5.844V447.975z M366.903,358.972c-0.647,6.103-3.277,11.687-7.486,16.037
		c-1.443-0.134-205.074-0.163-206.838,0c-4.209-4.35-6.839-9.934-7.486-16.037l-6.077-57.367h62.97
		c11,36.819,45.687,61.759,100.196,54.376c10.403-1.409,14.839-14.054,7.565-21.562c-6.798-7.019-12.623-18.632-16.302-32.814
		h79.533L366.903,358.972z M296.056,341.608c-31.578,3.28-56.638-5.839-70.861-25.893c-13.077-18.439-15.592-44.688-6.372-64.577
		c5.859,11.85,13.896,22.854,22.243,30.409c4.315,3.905,11.26,1.608,12.39-4.104c1.988-10.04,9.98-28.035,23.578-38.396
		C270.849,272.526,275.36,316.87,296.056,341.608z M374.569,286.604h-84.041c-2.103-15.65-1.675-33.195,2.481-50.651
		c2.49-10.454-8.588-18.615-17.826-13.556c-15.919,8.719-26.671,25.162-32.346,38.998c-4.253-5.442-8.161-11.779-11.299-18.415
		c-4.986-10.538-19.911-10.831-25.197-0.469c-6.717,13.168-9.107,28.815-7.406,44.093h-61.506L114.827,73.228h282.344
		L374.569,286.604z M400.567,41.166l-1.807,17.062h-53.254V15h31.52C390.995,15,402.06,27.06,400.567,41.166z M330.731,145.255
		c4.143,0,7.5-3.357,7.5-7.5v-12c0-4.143-3.357-7.5-7.5-7.5s-7.5,3.357-7.5,7.5v12C323.231,141.898,326.589,145.255,330.731,145.255
		z M181.267,145.255c4.142,0,7.5-3.357,7.5-7.5v-12c0-4.143-3.358-7.5-7.5-7.5c-4.142,0-7.5,3.357-7.5,7.5v12
		C173.767,141.898,177.125,145.255,181.267,145.255z"/>
</g>
<g>
</g>
<g>
</g>
<g>
</g>
<g>
</g>
<g>
</g>
<g>
</g>
<g>
</g>
<g>
</g>
<g>
</g>
<g>
</g>
<g>
</g>
<g>
</g>
<g>
</g>
<g>
</g>
<g>
</g>
</svg>
