<?xml version="1.0" encoding="iso-8859-1"?>
<!-- Generator: Adobe Illustrator 23.1.0, SVG Export Plug-In . SVG Version: 6.00 Build 0)  -->
<svg version="1.1" id="Capa_1" xmlns="http://www.w3.org/2000/svg" xmlns:xlink="http://www.w3.org/1999/xlink" x="0px" y="0px"
	 viewBox="0 0 512 512" style="enable-background:new 0 0 512 512;" xml:space="preserve">
<g>
	<g>
		<path style="fill:#FBF1CF;" d="M390.738,472.217c16.702,0,29.315-15.232,26.11-31.625C402.112,365.207,335.699,308.32,256,308.32
			S109.888,365.207,95.152,440.592c-3.204,16.392,9.408,31.625,26.11,31.625H390.738z"/>
		<path style="fill:#F7DFB7;" d="M217.984,312.762c-62.098,14.751-110.516,64.825-122.832,127.83
			c-3.204,16.392,9.408,31.625,26.11,31.625h131.519h0C219.997,446.58,203.205,354.983,217.984,312.762z"/>
		<rect x="150.693" y="335.038" style="fill:#4E5660;" width="50.157" height="79.564"/>
		
			<rect x="311.15" y="335.038" transform="matrix(-1 -1.224647e-16 1.224647e-16 -1 672.4577 749.6397)" style="fill:#4E5660;" width="50.157" height="79.564"/>
		<rect x="150.693" y="414.602" style="fill:#E0B799;" width="210.615" height="57.615"/>
		<path style="fill:#D99A84;" d="M221.384,414.602h-70.691v57.615h102.089C239.202,461.598,228.37,439.659,221.384,414.602z"/>
		<path style="fill:#CB9D82;" d="M7.5,203.753c0,37.227,31.872,67.405,78.706,67.405c37.227,0,67.404-30.178,67.404-67.405
			c0-37.227-30.178-67.405-67.404-67.405C39.372,136.348,7.5,166.526,7.5,203.753z"/>
		<path style="fill:#B7856B;" d="M504.5,203.753c0,37.227-31.872,67.405-78.706,67.405c-37.227,0-67.405-30.178-67.405-67.405
			c0-37.227,30.178-67.405,67.405-67.405C472.628,136.348,504.5,166.526,504.5,203.753z"/>
		<path style="fill:#FFD3BD;" d="M457.182,229.513c0,111.11-90.072,149.662-201.182,149.662S54.818,340.622,54.818,229.513
			S137.089,39.783,256,39.783S457.182,118.403,457.182,229.513z"/>
		<path style="fill:#CB9D82;" d="M457.182,229.513c0,111.11-90.072,149.662-201.182,149.662S54.818,340.622,54.818,229.513
			S137.089,39.783,256,39.783S457.182,118.403,457.182,229.513z"/>
		<path style="fill:#B7856B;" d="M374.965,358.415c-245.476,19.784-269.13-203.51-211.09-300.336
			C96.699,87.525,54.818,150.245,54.818,229.513c0,111.11,90.072,149.662,201.182,149.662
			C300.514,379.174,341.644,372.978,374.965,358.415L374.965,358.415z"/>
		<g>
			<g>
				<ellipse style="fill:#FFFFFF;" cx="140.556" cy="229.278" rx="42.597" ry="33.922"/>
				<ellipse style="fill:#FFFFFF;" cx="371.445" cy="229.278" rx="42.597" ry="33.922"/>
			</g>
		</g>
	</g>
	<path style="fill:#4E5660;" d="M256,39.783c-112.236,0-191.815,70.047-200.398,171.339c17.418,7.659,39.615,7.338,44.964-23.205
		c5.447-31.104,36.17-75.318,77.328-98.475c3.665-2.062,7.785-3.178,11.99-3.178h132.231c4.205,0,8.326,1.117,11.99,3.178
		c41.159,23.157,71.881,67.371,77.328,98.475c5.349,30.543,27.546,30.864,44.964,23.205C447.815,109.83,368.236,39.783,256,39.783z"
		/>
	<path style="fill:#4E5660;" d="M249.671,212.522c3.676,3.067,8.982,3.067,12.658,0c6.148-5.129,13.84-8.452,22.225-9.114
		c12.285-0.969,23.514,3.634,31.431,11.551c12.768,12.768,16.386,45.009,46.579,53.038c7.073,1.881,8.446,11.35,2.234,15.22
		C337.525,300.21,294.873,307.993,256,267.203c-38.873,40.79-81.525,33.006-108.798,16.014c-6.212-3.87-4.84-13.34,2.234-15.22
		c30.193-8.029,33.811-40.269,46.579-53.038c7.916-7.917,19.146-12.52,31.431-11.551
		C235.831,204.07,243.523,207.394,249.671,212.522z"/>
	<path d="M346.619,204.123c4.143,0,7.5-3.357,7.5-7.5V179.21c0-4.143-3.357-7.5-7.5-7.5c-4.143,0-7.5,3.357-7.5,7.5v17.413
		C339.119,200.766,342.477,204.123,346.619,204.123z M439.46,129.684c-7.55-13.24-16.751-25.504-27.543-36.636
		c-2.882-2.974-7.631-3.049-10.604-0.165c-2.975,2.883-3.049,7.631-0.165,10.604c25.467,26.273,42.574,60.914,47.245,102.643
		c-16.753,5.222-26.412-1.472-29.571-19.507c-5.474-31.256-35.736-78.229-81.039-103.719c-4.817-2.709-10.234-4.142-15.667-4.142
		h-132.23c-5.433,0-10.85,1.433-15.668,4.143c-45.302,25.488-75.564,72.462-81.038,103.718
		c-3.063,17.484-12.325,24.871-29.548,19.515C74.363,111.494,150.442,47.283,256,47.283c45.113,0,86.211,11.787,118.852,34.086
		c3.421,2.34,8.087,1.457,10.423-1.962c2.337-3.42,1.459-8.087-1.962-10.423C348.169,44.974,304.146,32.283,256,32.283
		c-77.283,0-146.739,32.965-183.283,97.382C27.843,135.126,0,167.296,0,203.753c0,31.535,20.449,58.361,52.468,69.433
		c10.29,40.402,35.659,69.395,72.934,88.071c-19.031,22.361-31.979,49.082-37.611,77.896c-4.114,21.043,12.069,40.564,33.471,40.564
		h41.816c4.143,0,7.5-3.357,7.5-7.5s-3.357-7.5-7.5-7.5h-4.886v-42.615h195.615v42.615H199.015c-4.143,0-7.5,3.357-7.5,7.5
		s3.357,7.5,7.5,7.5h191.724c21.442,0,37.578-19.559,33.471-40.564c-5.632-28.814-18.58-55.534-37.611-77.896
		c37.274-18.676,62.643-47.669,72.934-88.071C491.551,262.114,512,235.288,512,203.753C512,167.108,483.97,135.175,439.46,129.684z
		 M49.049,255.553c-50.376-24.734-44.576-94.337,15.236-109.116C48.924,181.258,44.378,221.624,49.049,255.553z M143.192,464.717
		h-21.931c-11.998,0-21.045-10.941-18.75-22.686c5.416-27.706,18.24-53.304,37.183-74.352c1.157,0.464,2.321,0.922,3.498,1.369
		V464.717z M193.35,407.102h-35.157v-32.984c10.968,3.288,22.693,5.933,35.157,7.932V407.102z M303.65,407.102H208.35v-22.999
		c30.033,3.434,65.227,3.438,95.301,0V407.102z M353.808,407.102H318.65V382.05c12.464-1.999,24.189-4.644,35.157-7.932V407.102z
		 M409.488,442.03c2.291,11.728-6.735,22.686-18.75,22.686h-21.931v-95.67c1.177-0.447,2.341-0.905,3.499-1.369
		C391.249,388.728,404.072,414.326,409.488,442.03z M256,371.674c-111.054,0-197.783-38.371-193.514-150.285
		c22.041,5.423,40.637-4.6,45.468-32.178c4.947-28.253,33.837-70.851,73.617-93.232c2.577-1.449,5.452-2.216,8.313-2.216h132.23
		c2.861,0,5.736,0.767,8.313,2.215c39.781,22.383,68.671,64.98,73.618,93.233c4.831,27.574,23.405,37.598,45.475,32.166
		C453.731,333.463,366.863,371.674,256,371.674z M462.951,255.553c4.538-32.965,0.639-73.547-15.029-109.061
		C507.682,161.421,513.166,230.897,462.951,255.553z M165.381,204.123c4.143,0,7.5-3.357,7.5-7.5V179.21c0-4.143-3.357-7.5-7.5-7.5
		c-4.143,0-7.5,3.357-7.5,7.5v17.413C157.881,200.766,161.238,204.123,165.381,204.123z M364.492,260.749
		c-26.462-7.036-28.989-36.876-43.203-51.093c-16.871-16.871-44.48-18.982-63.764-2.894c-0.898,0.75-2.152,0.75-3.051,0
		c-19.296-16.096-46.898-13.969-63.764,2.894c-14.195,14.198-16.755,44.061-43.203,51.093c-13.416,3.569-16.07,21.484-4.271,28.834
		c35.896,22.366,78.23,20.505,112.764-11.82c34.372,32.175,76.661,34.317,112.764,11.82
		C380.545,282.243,377.926,264.323,364.492,260.749z M360.832,276.853c-16.089,10.022-57.979,28.645-99.402-14.823
		c-2.957-3.102-7.905-3.099-10.859,0c-41.423,43.466-83.313,24.848-99.402,14.823c-0.149-0.094-0.499-0.312-0.409-0.912
		c0.083-0.557,0.422-0.646,0.604-0.695c33.89-9.012,38.675-43.704,49.955-54.981c6.71-6.712,16.024-10.13,25.537-9.378
		c10.852,0.856,17.14,6.871,18.012,7.396c6.45,5.381,15.814,5.38,22.267-0.001c13.189-11.003,32.035-9.532,43.548,1.982
		c11.284,11.281,16.065,45.97,49.955,54.981c0.183,0.049,0.522,0.139,0.605,0.695C361.331,276.541,360.981,276.759,360.832,276.853z
		"/>
</g>
<g>
</g>
<g>
</g>
<g>
</g>
<g>
</g>
<g>
</g>
<g>
</g>
<g>
</g>
<g>
</g>
<g>
</g>
<g>
</g>
<g>
</g>
<g>
</g>
<g>
</g>
<g>
</g>
<g>
</g>
</svg>
