<?xml version="1.0" encoding="iso-8859-1"?>
<!-- Generator: Adobe Illustrator 23.1.0, SVG Export Plug-In . SVG Version: 6.00 Build 0)  -->
<svg version="1.1" id="Capa_1" xmlns="http://www.w3.org/2000/svg" xmlns:xlink="http://www.w3.org/1999/xlink" x="0px" y="0px"
	 viewBox="0 0 512 512" style="enable-background:new 0 0 512 512;" xml:space="preserve">
<g>
	<path style="fill:#CDE9FA;" d="M194.815,267.965c0-37.496-31.117-67.724-68.936-66.269c-33.629,1.293-61.312,28.15-63.551,61.729
		c-0.922,13.833,2.406,26.827,8.802,37.819c4.129,7.096,3.158,15.952-2.164,22.204c-10.296,12.096-16.326,27.935-15.758,45.193
		c1.135,34.503,29.16,62.701,63.656,64.033c37.824,1.46,68.946-28.77,68.946-66.269c0-12.224-3.312-23.67-9.083-33.5
		c-4.118-7.014-2.938-15.825,2.329-22.022C188.884,299.315,194.815,284.333,194.815,267.965z"/>
	<path style="fill:#A2DDFD;" d="M194.815,267.965c0-37.496-31.117-67.724-68.936-66.269c-5.121,0.197-10.101,0.994-14.877,2.31
		c25.417,25.942,18.175,75.23,9.998,97.497c-1.721,4.685-1.534,9.828,0.497,14.388c10.232,22.969,14.416,83.191-27.445,111.712
		c7.082,2.972,14.766,4.759,22.811,5.07c37.824,1.46,68.946-28.77,68.946-66.269c0-12.14-3.267-23.513-8.965-33.298
		c-4.133-7.097-3.108-15.966,2.211-22.224C188.884,299.315,194.815,284.333,194.815,267.965z"/>
	
		<ellipse transform="matrix(0.7071 -0.7071 0.7071 0.7071 -57.2275 78.0397)" style="fill:#CDE9FA;" cx="65.589" cy="108.1" rx="58.088" ry="58.088"/>
	<path style="fill:#A2DDFD;" d="M110.398,145.065C49.845,158.7,17.543,95.872,38.93,56.495C20.265,66.157,7.5,85.632,7.5,108.1
		c0,32.081,26.007,58.089,58.089,58.089C83.627,166.188,99.744,157.966,110.398,145.065z"/>
	
		<ellipse transform="matrix(0.3827 -0.9239 0.9239 0.3827 35.7233 578.5735)" style="fill:#CDE9FA;" cx="450.81" cy="262.555" rx="53.69" ry="53.69"/>
	<path style="fill:#A2DDFD;" d="M492.227,296.722c-55.969,12.603-85.824-45.469-66.057-81.864
		c-17.252,8.931-29.05,26.931-29.05,47.697c0,29.652,24.038,53.69,53.69,53.69C467.482,316.245,482.379,308.645,492.227,296.722z"/>
	<path style="fill:#F6EE86;" d="M282.842,17.655h-53.684c-12.017,0-22.195,8.856-23.857,20.758L189.68,150.295H322.32
		L306.699,38.412C305.038,26.511,294.859,17.655,282.842,17.655z"/>
	<path style="fill:#EDA1AB;" d="M313.446,145.161H198.554c-28.47,0-51.549,23.079-51.549,51.549v271.22
		c0,14.589,11.827,26.416,26.416,26.416h165.158c14.589,0,26.416-11.827,26.416-26.416v-271.22
		C364.995,168.24,341.915,145.161,313.446,145.161z"/>
	<path style="fill:#E1796E;" d="M187.353,146.395c-23.081,5.117-40.347,25.693-40.347,50.314v271.22
		c0,14.589,11.827,26.416,26.416,26.416h99.119C202.72,427.628,177.932,327.16,187.353,146.395z"/>
	<path style="fill:#FBF1CF;" d="M308.397,389.448H203.603c-11.388,0-20.62-9.232-20.62-20.62V266.979
		c0-11.388,9.232-20.62,20.62-20.62h104.794c11.388,0,20.62,9.232,20.62,20.62v101.849
		C329.017,380.216,319.785,389.448,308.397,389.448z"/>
	<path style="fill:#F7DFB7;" d="M182.983,266.979v101.849c0,11.388,9.232,20.62,20.62,20.62h4.157
		c-12.204-36.979-19.198-80.807-21.482-133.625C184.201,259.041,182.983,262.864,182.983,266.979z"/>
	
		<ellipse transform="matrix(0.7071 -0.7071 0.7071 0.7071 -99.2211 253.1761)" style="fill:#E1796E;" cx="256" cy="246.359" rx="38.998" ry="38.998"/>
	<path style="fill:#F6EE86;" d="M147.005,439.401v28.529c0,14.589,11.827,26.416,26.416,26.416h165.158
		c14.589,0,26.416-11.827,26.416-26.416v-28.529H147.005z"/>
	<path style="fill:#F1D88C;" d="M229.668,439.401h-82.662v28.529c0,14.589,11.827,26.416,26.416,26.416h99.119
		C255.668,478.223,241.433,460.121,229.668,439.401z"/>
	
		<ellipse transform="matrix(0.9732 -0.2298 0.2298 0.9732 -84.5999 92.6135)" style="fill:#CDE9FA;" cx="355.409" cy="409.603" rx="48.503" ry="48.503"/>
	<path style="fill:#A2DDFD;" d="M392.825,440.469c-50.561,11.385-77.533-41.076-59.675-73.955
		c-15.585,8.068-26.243,24.329-26.243,43.089c0,26.787,21.716,48.503,48.503,48.503
		C370.471,458.106,383.928,451.241,392.825,440.469z"/>
	<path style="fill:#F1D88C;" d="M229.158,17.655c-12.017,0-22.196,8.856-23.857,20.758l-4.752,34.037h110.903l-4.753-34.037
		c-1.662-11.901-11.84-20.758-23.857-20.758H229.158z"/>
	<path d="M131.177,108.1c0-14.959-4.905-29.047-14.185-40.741c-2.574-3.245-7.292-3.787-10.537-1.213
		c-3.244,2.575-3.788,7.292-1.213,10.537c7.153,9.015,10.935,19.879,10.935,31.417c0,27.894-22.693,50.589-50.588,50.589
		C37.694,158.689,15,135.994,15,108.1c0-33.464,32.178-57.954,64.617-48.621c3.979,1.151,8.137-1.151,9.281-5.133
		c1.146-3.98-1.152-8.136-5.133-9.281C41.752,32.972,0,64.683,0,108.1c0,36.166,29.423,65.589,65.589,65.589
		C101.754,173.689,131.177,144.266,131.177,108.1z M272.242,344.884h-32.483c-4.143,0-7.5,3.357-7.5,7.5c0,4.143,3.357,7.5,7.5,7.5
		h32.483c4.143,0,7.5-3.357,7.5-7.5C279.742,348.241,276.385,344.884,272.242,344.884z M450.81,201.364
		c-33.74,0-61.19,27.45-61.19,61.19c0,41.003,39.783,70.534,79.091,58.528c3.962-1.21,6.192-5.401,4.982-9.363
		c-1.209-3.961-5.403-6.19-9.363-4.982c-29.671,9.058-59.71-13.219-59.71-44.183c0-25.47,20.721-46.19,46.19-46.19
		c25.47,0,46.19,20.721,46.19,46.19c0,9.591-2.91,18.784-8.415,26.588c-2.388,3.385-1.579,8.064,1.806,10.452
		c3.384,2.389,8.065,1.58,10.452-1.806C508.142,287.442,512,275.258,512,262.555C512,228.814,484.55,201.364,450.81,201.364z
		 M229.252,328.87h53.496c4.143,0,7.5-3.357,7.5-7.5c0-4.143-3.357-7.5-7.5-7.5h-53.496c-4.143,0-7.5,3.357-7.5,7.5
		C221.752,325.513,225.109,328.87,229.252,328.87z M372.494,356.275V196.709c0-27.395-18.754-50.488-44.097-57.126l-14.27-102.208
		c-2.166-15.519-15.615-27.221-31.285-27.221h-53.684c-15.67,0-29.119,11.702-31.285,27.221l-14.27,102.208
		c-24.81,6.498-43.286,28.771-44.053,55.407c-43.275-6.546-81.896,25.804-84.705,67.935c-0.988,14.815,2.401,29.37,9.803,42.091
		c2.467,4.239,1.906,9.692-1.394,13.57c-11.919,14.002-18.148,31.865-17.543,50.3c1.56,47.433,47.62,81.625,93.795,68.58v30.464
		c0,18.701,15.214,33.916,33.915,33.916h165.158c18.701,0,33.915-15.215,33.915-33.916v-4.998
		c22.549-7.241,38.918-28.405,38.918-53.328C411.412,384.681,395.043,363.517,372.494,356.275z M139.506,421.702
		c-37.616,13.671-77.502-13.73-78.803-53.308c-0.483-14.696,4.48-28.932,13.973-40.085c7.418-8.715,8.599-21.107,2.937-30.838
		c-5.892-10.125-8.59-21.727-7.801-33.548c2.248-33.714,34.201-60.481,69.694-53.727V421.702z M212.729,39.449
		c1.138-8.149,8.201-14.295,16.43-14.295h53.684c8.229,0,15.292,6.146,16.43,14.295l3.56,25.5h-93.664L212.729,39.449z
		 M207.074,79.949h97.852l8.058,57.712H199.016L207.074,79.949z M154.506,196.709c0-24.416,19.925-44.048,44.048-44.048
		c123.252,0.194,113.822-0.463,121.783,0.543c21.026,3.318,37.158,21.561,37.158,43.505v156.945
		c-7.354-0.271-14.336,0.847-20.977,3.234v-89.909c0-15.506-12.614-28.12-28.12-28.12h-6.513
		c-3.598-22.084-22.799-38.998-45.884-38.998s-42.287,16.914-45.885,38.998h-6.513c-15.506,0-28.12,12.614-28.12,28.12v101.85
		c0,15.506,12.614,28.12,28.12,28.12h97.264c-2.745,11.83-1.581,24.022,3.183,34.952H154.506
		C154.506,421.071,154.506,209.825,154.506,196.709z M256,292.856c23.085,0,42.287-16.914,45.884-38.998h6.513
		c7.234,0,13.12,5.886,13.12,13.12v98.081c-5.988,4.567-11.025,10.314-14.776,16.888H203.602c-7.234,0-13.12-5.886-13.12-13.12
		v-101.85c0-7.234,5.886-13.12,13.12-13.12h6.513C213.713,275.943,232.915,292.856,256,292.856z M224.502,246.358
		c0-17.368,14.13-31.498,31.498-31.498s31.498,14.13,31.498,31.498s-14.13,31.498-31.498,31.498S224.502,263.727,224.502,246.358z
		 M357.494,467.93c0,10.431-8.485,18.916-18.915,18.916H173.421c-10.43,0-18.915-8.485-18.915-18.916V446.9h159.173
		c10.829,12.104,26.585,19.287,43.815,18.653V467.93z M355.409,450.606c-22.609,0-41.003-18.394-41.003-41.003
		c0-22.609,18.393-41.003,41.003-41.003c22.609,0,41.003,18.394,41.003,41.003C396.412,432.213,378.019,450.606,355.409,450.606z"/>
</g>
<g>
</g>
<g>
</g>
<g>
</g>
<g>
</g>
<g>
</g>
<g>
</g>
<g>
</g>
<g>
</g>
<g>
</g>
<g>
</g>
<g>
</g>
<g>
</g>
<g>
</g>
<g>
</g>
<g>
</g>
</svg>
