<?xml version="1.0" encoding="iso-8859-1"?>
<!-- Generator: Adobe Illustrator 23.1.0, SVG Export Plug-In . SVG Version: 6.00 Build 0)  -->
<svg version="1.1" id="Capa_1" xmlns="http://www.w3.org/2000/svg" xmlns:xlink="http://www.w3.org/1999/xlink" x="0px" y="0px"
	 viewBox="0 0 512.006 512.006" style="enable-background:new 0 0 512.006 512.006;" xml:space="preserve">
<g>
	<path style="fill:#F6EE86;" d="M267.572,56.425h-89.304V31.014c0-12.987,10.528-23.514,23.514-23.514h42.275
		c12.987,0,23.514,10.528,23.514,23.514V56.425z"/>
	<path style="fill:#EDA1AB;" d="M356.876,56.425h-89.304V31.014c0-12.987,10.528-23.514,23.514-23.514h42.275
		c12.987,0,23.514,10.528,23.514,23.514V56.425z"/>
	<rect x="267.572" y="37.029" style="fill:#E1796E;" width="89.304" height="19.396"/>
	<path style="fill:#7ACDF9;" d="M439.512,56.425H110.537V504.5h328.975c24.628,0,44.592-19.965,44.592-44.592v-358.89
		C484.104,76.39,464.14,56.425,439.512,56.425z"/>
	<path style="fill:#FBF1CF;" d="M422.504,99.509H84.792v361.908h337.713c12.091,0,21.893-9.802,21.893-21.893V121.402
		C444.397,109.311,434.595,99.509,422.504,99.509z"/>
	<path style="fill:#A2DDFD;" d="M356.876,56.425H96.303c-37.777,0-68.402,30.625-68.402,68.402v311.271
		c0,37.777,30.625,68.402,68.402,68.402h260.573c24.628,0,44.592-19.965,44.592-44.592v-358.89
		C401.468,76.39,381.504,56.425,356.876,56.425z"/>
	<path style="fill:#7ACDF9;" d="M126.791,56.425H96.303c-3.925,0-7.767,0.349-11.512,0.984v446.107
		c3.745,0.635,7.586,0.984,11.512,0.984h139.918C119.976,425.784,113.883,182.415,126.791,56.425z"/>
	<path style="fill:#4E5660;" d="M337.347,271.277c-22.012-30.646-77.434-35.834-94.217-21.382
		c-16.783-14.452-72.205-9.265-94.217,21.382c-19.638,27.342,10.486,69.74,53.895,44.553c9.84,14.202,26.801,18.391,40.322,18.391
		s30.482-4.189,40.322-18.391C326.861,341.018,356.985,298.619,337.347,271.277z"/>
	<path style="fill:#4E5660;" d="M243.13,414.724c14.347,24.57,48.332,32.863,77.336,26.763c34.225-7.198,50.17-39.804,37.282-68.218
		c-1.92-4.234-8.097-3.373-9.03,1.181c-4.157,20.277-32.863,23.439-52.556,8.947c-23.332-17.169-37.694-12.135-53.032-5.743
		c-15.338-6.392-29.7-11.426-53.032,5.743c-19.694,14.492-48.399,11.33-52.556-8.947c-0.934-4.554-7.11-5.415-9.03-1.181
		c-12.888,28.415,3.057,61.02,37.282,68.218C194.798,447.586,228.783,439.294,243.13,414.724z"/>
	<path style="fill:#3A4351;" d="M128.511,373.268c-12.888,28.415,3.057,61.02,37.282,68.218c4.972,1.046,10.09,1.658,15.231,1.848
		c-9.294-15.753-17.253-33.099-24.036-51.552c-9.689-1.743-17.438-7.533-19.447-17.333
		C136.608,369.895,130.432,369.034,128.511,373.268z"/>
	<path style="fill:#4E5660;" d="M237.013,125.318c3.553,2.964,8.68,2.964,12.233,0c5.942-4.957,13.376-8.169,21.48-8.808
		c11.872-0.936,22.726,3.512,30.376,11.163c12.34,12.34,15.836,43.499,45.017,51.258c6.836,1.818,8.162,10.969,2.159,14.71
		c-26.358,16.422-67.579,23.945-105.148-15.477c-37.569,39.422-78.79,31.899-105.148,15.477c-6.004-3.74-4.677-12.892,2.159-14.71
		c29.18-7.759,32.677-38.918,45.017-51.258c7.651-7.651,18.504-12.1,30.376-11.163C223.638,117.149,231.072,120.361,237.013,125.318
		z"/>
	<path style="fill:#F6EE86;" d="M84.792,57.409c-32.293,5.476-56.89,33.566-56.89,67.418v311.271
		c0,33.852,24.597,61.943,56.89,67.418V57.409z"/>
	<rect x="178.269" y="37.029" style="fill:#F1D88C;" width="89.304" height="19.396"/>
	<path d="M243.13,427.454c18.624,21.076,51.367,27.159,78.879,21.372c38.476-8.092,57.607-45.503,42.569-78.657
		c-4.938-10.885-20.825-8.85-23.208,2.774c-1,4.874-4.104,8.345-9.227,10.314c-9.237,3.554-21.911,1.182-31.537-5.902
		c-24.128-17.754-40.578-14.535-57.477-7.804c-16.899-6.733-33.35-9.951-57.477,7.804c-9.626,7.083-22.3,9.454-31.538,5.902
		c-5.123-1.97-8.227-5.44-9.227-10.315c-2.387-11.637-18.274-13.646-23.208-2.773c-15.006,33.082,4.009,70.546,42.568,78.656
		C191.763,454.612,224.521,448.514,243.13,427.454z M132.84,383.501c10.353,20.001,40.836,21.292,61.704,5.936
		c20.741-15.265,32.309-10.443,45.702-4.862c1.846,0.77,3.924,0.77,5.77,0c13.393-5.582,24.959-10.402,45.702,4.862
		c13.792,10.149,31.776,13.219,45.811,7.821c7.222-2.777,12.675-7.543,15.892-13.758c5.471,21.65-7.296,44.926-34.498,50.646
		c-24.677,5.193-56.415-1.112-69.315-23.205c-2.887-4.944-10.057-4.958-12.953,0c-12.901,22.093-44.638,28.399-69.317,23.205
		C140.133,428.425,127.369,405.148,132.84,383.501z M348.047,171.684c-25.46-6.77-27.837-35.508-41.641-49.314
		c-16.544-16.542-43.374-18.318-61.964-2.81c-0.773,0.644-1.851,0.645-2.624,0c-18.772-15.66-45.597-13.557-61.964,2.811
		c-13.764,13.765-16.213,42.552-41.64,49.313c-13.311,3.538-15.652,21.186-4.198,28.322c34.741,21.644,75.687,19.879,109.115-11.292
		c33.512,31.251,74.516,32.848,109.113,11.293C363.706,192.864,361.346,175.218,348.047,171.684z M344.311,187.275
		c-15.495,9.652-55.845,27.591-95.752-14.285c-2.949-3.096-7.9-3.105-10.858,0c-39.908,41.875-80.257,23.94-95.753,14.285
		c-0.136-0.085-0.342-0.214-0.279-0.63c0.056-0.374,0.238-0.423,0.399-0.466c32.883-8.744,37.536-42.346,48.393-53.203
		c11.009-11.009,29.075-12.472,41.748-1.899c6.328,5.278,15.514,5.28,21.842,0c12.696-10.591,30.759-9.089,41.748,1.898
		c10.865,10.866,15.501,44.458,48.394,53.204c0.161,0.043,0.343,0.092,0.399,0.466C344.654,187.061,344.448,187.19,344.311,187.275z
		 M243.13,240.837c-24.132-13.41-77.927-5.097-100.309,26.065c-11.136,15.505-9.852,36.32,3.122,50.621
		c10.672,11.763,30.386,19.423,54.93,7.798c20.682,21.927,63.806,21.954,84.512,0c24.545,11.626,44.258,3.965,54.931-7.798
		c12.975-14.301,14.259-35.116,3.123-50.621C320.965,235.613,267.13,227.502,243.13,240.837z M329.207,307.444
		c-3.662,4.036-17.513,16.103-41.991,1.9c-3.383-1.963-7.703-0.998-9.929,2.216c-9.481,13.685-27.045,15.162-34.157,15.162
		c-7.112,0-24.676-1.478-34.157-15.162c-2.234-3.225-6.56-4.171-9.929-2.216c-24.478,14.202-38.329,2.138-41.991-1.9
		c-8.177-9.013-9.02-22.086-2.048-31.792c19.591-27.276,70.011-31.459,83.232-20.073c2.813,2.422,6.976,2.422,9.788,0
		c13.183-11.35,63.596-7.263,83.231,20.073C338.226,285.358,337.385,298.432,329.207,307.444z M453.966,50.959
		c-3.981-1.148-8.137,1.149-9.284,5.129c-1.147,3.98,1.149,8.136,5.129,9.283c15.776,4.549,26.794,19.207,26.794,35.646v358.89
		c0,20.453-16.64,37.093-37.092,37.093h-46.107c7.565-7.451,12.859-17.19,14.767-28.084h14.332
		c16.207,0,29.393-13.185,29.393-29.393V121.402c0-16.208-13.186-29.394-29.393-29.394h-14.332
		c-1.908-10.893-7.202-20.632-14.767-28.083h23.338c4.142,0,7.5-3.357,7.5-7.5s-3.358-7.5-7.5-7.5h-52.368V31.015
		C364.376,13.913,350.463,0,333.362,0h-42.275c-9.395,0-17.822,4.205-23.514,10.826C261.88,4.205,253.453,0,244.058,0h-42.275
		c-17.101,0-31.014,13.913-31.014,31.015v17.911H96.303c-41.507,0-75.902,33.763-75.902,75.901v311.271
		c0,36.251,25.817,68.168,63.081,74.798c9.201,1.573,14.93,0.969,20.634,1.105c4.142,0,7.5-3.357,7.5-7.5s-3.358-7.5-7.5-7.5
		c-7.246-0.041-8.132,0.095-11.825-0.147V64.073c4.279-0.28-12.215-0.084,264.584-0.147c20.453,0,37.092,16.64,37.092,37.092v358.89
		c0,20.453-16.64,37.093-37.092,37.093H140.177c-4.142,0-7.5,3.357-7.5,7.5s3.358,7.5,7.5,7.5c31.477,0,290.416,0,299.335,0
		c28.724,0,52.092-23.369,52.092-52.093v-358.89C491.604,77.933,476.127,57.348,453.966,50.959z M408.968,107.009h13.536
		c7.936,0,14.393,6.457,14.393,14.394v318.121c0,7.937-6.457,14.393-14.393,14.393h-13.536V107.009z M77.291,493.945
		c-24.297-8.006-41.89-30.904-41.89-57.847V124.827c0-26.943,17.593-49.84,41.89-57.846V493.945z M260.073,48.926h-74.304V31.015
		c0-8.83,7.184-16.015,16.014-16.015h42.275c8.831,0,16.015,7.185,16.015,16.015V48.926z M349.376,48.926h-74.303V31.015
		c0-8.83,7.184-16.015,16.014-16.015h42.275c8.83,0,16.014,7.185,16.014,16.015V48.926z"/>
</g>
<g>
</g>
<g>
</g>
<g>
</g>
<g>
</g>
<g>
</g>
<g>
</g>
<g>
</g>
<g>
</g>
<g>
</g>
<g>
</g>
<g>
</g>
<g>
</g>
<g>
</g>
<g>
</g>
<g>
</g>
</svg>
