<?xml version="1.0" encoding="iso-8859-1"?>
<!-- Generator: Adobe Illustrator 23.1.0, SVG Export Plug-In . SVG Version: 6.00 Build 0)  -->
<svg version="1.1" id="Capa_1" xmlns="http://www.w3.org/2000/svg" xmlns:xlink="http://www.w3.org/1999/xlink" x="0px" y="0px"
	 viewBox="0 0 511.971 511.971" style="enable-background:new 0 0 511.971 511.971;" xml:space="preserve">
<g>
	<path style="fill:#E0B799;" d="M496.083,211.972L346.202,62.091c-28.286-28.286-74.145-28.286-102.431,0L229.862,76
		c-12.395,12.395-31.236,15.891-47.129,8.498c-19.219-8.939-37.893-29.909-65.687-57.745C92.268,1.939,51.819,0.946,26.722,25.438
		C1.267,50.279,1.079,91.054,26.156,116.131c28.742,28.742,50.277,47.755,58.996,67.536c6.886,15.623,3.136,33.907-8.936,45.98
		L62.25,243.613c-28.286,28.285-28.286,74.145,0,102.431l149.881,149.881c11.207,11.207,29.378,11.207,40.585,0l0,0
		c11.207-11.207,11.207-29.378,0-40.585l-70.704-70.704c-8.188-8.188-8.188-21.462,0-29.65l10.888-10.888
		c8.188-8.188,21.462-8.188,29.65,0l70.704,70.704c11.207,11.207,29.378,11.207,40.585,0l0,0c11.207-11.207,11.207-29.378,0-40.585
		l-70.704-70.704c-8.188-8.188-8.188-21.462,0-29.65l10.888-10.888c8.188-8.188,21.462-8.188,29.65,0l70.704,70.704
		c11.207,11.207,29.378,11.207,40.585,0c11.207-11.207,11.207-29.378,0-40.585l-70.704-70.704c-8.188-8.188-8.188-21.462,0-29.65
		l10.888-10.888c8.188-8.188,21.462-8.188,29.65,0l70.704,70.704c11.207,11.207,29.378,11.207,40.585,0l0,0
		C507.29,241.35,507.29,223.179,496.083,211.972z M85.915,85.756c-8.114,8.114-21.27,8.114-29.384,0
		c-8.114-8.114-8.114-21.27,0-29.384c8.114-8.114,21.27-8.114,29.384,0C94.029,64.486,94.029,77.642,85.915,85.756z"/>
	<path style="fill:#D99A84;" d="M182.012,384.636c-8.188-8.188-8.188-21.462,0-29.65l5.988-5.988
		c-61.009-88.308-64.721-219.413-62.395-313.612c-2.76-2.797-5.605-5.673-8.56-8.632C92.268,1.939,51.819,0.946,26.722,25.438
		C1.267,50.279,1.079,91.054,26.156,116.131c28.742,28.742,50.277,47.755,58.996,67.536c6.886,15.623,3.136,33.907-8.936,45.98
		L62.25,243.613c-28.286,28.285-28.286,74.145,0,102.431l149.881,149.881c11.207,11.207,29.378,11.207,40.585,0l0,0
		c11.207-11.207,11.207-29.378,0-40.585L182.012,384.636z M85.915,85.756c-8.114,8.114-21.27,8.114-29.384,0
		c-8.114-8.114-8.114-21.27,0-29.384c8.114-8.114,21.27-8.114,29.384,0C94.029,64.486,94.029,77.642,85.915,85.756z"/>
	<g>
		<path style="fill:#E0B799;" d="M120.739,321.124c4.796-40.245-10.967-73.517-42.87-93.238c-0.534,0.599-1.081,1.189-1.653,1.76
			l-8.896,8.895c29.144,16.546,43.196,45.311,38.96,80.859c-3.293,27.642-6.605,47.617-5.559,65.115l18.489,18.489
			C111.515,382.054,116.113,359.925,120.739,321.124z"/>
		<path style="fill:#D99A84;" d="M195.713,341.761c4.25-2.981,9.348-4.209,14.301-3.668c-1.601-11.989,0.628-26.256,9.747-44.893
			c7.626-15.589,16.088-23.605,25.148-23.824c0.124-0.003,0.248-0.004,0.374-0.004c4.907,0,10.371,2.319,16.031,6.603
			c0.559-0.731,1.153-1.444,1.821-2.112l8.456-8.456c-11.324-8.959-20.877-10.744-27.033-10.587
			c-14.926,0.36-27.671,11.12-37.876,31.981C195.583,309.486,193.371,327.124,195.713,341.761z"/>
		<path style="fill:#D99A84;" d="M108.361,19.469c-4.22-2.966-8.718-5.382-13.393-7.24C88.472,40.131,92.648,71.5,106.84,98.442
			c12.191,23.144,30.473,39.347,50.16,44.452c35.067,9.097,68.633-10.088,74.827-68.859L229.862,76
			c-4.226,4.226-9.202,7.415-14.555,9.494c-6.432,30.892-23.874,51.289-54.653,43.307c-15.728-4.079-30.647-17.618-40.932-37.144
			C108.003,69.409,104.013,42.922,108.361,19.469z"/>
		<path style="fill:#D99A84;" d="M361.385,77.274L351,66.889c-41.968,32.455-44.46,85.189-0.313,119.423
			c3.284-2.936,5.736-6.938,11.939-9.254C322.01,148.096,324.925,104.291,361.385,77.274z"/>
	</g>
	<g>
		<g>
			<path style="fill:#F6EE86;" d="M455.498,252.557c11.207,11.207,29.378,11.207,40.585,0l0,0c11.207-11.207,11.207-29.378,0-40.585
				l-23.79-23.79l-40.585,40.585L455.498,252.557z"/>
			<path style="fill:#F6EE86;" d="M374.376,333.679c11.207,11.207,29.378,11.207,40.585,0c11.207-11.207,11.207-29.378,0-40.585
				l-23.789-23.79l-40.585,40.585L374.376,333.679z"/>
			<path style="fill:#F6EE86;" d="M333.838,414.802L333.838,414.802c11.207-11.207,11.207-29.378,0-40.585l-23.79-23.789
				l-40.585,40.585l23.789,23.79C304.461,426.009,322.631,426.009,333.838,414.802z"/>
			<path style="fill:#F1D88C;" d="M252.716,495.924L252.716,495.924c11.207-11.207,11.207-29.378,0-40.585l-23.79-23.79
				l-40.585,40.585l23.79,23.79C223.338,507.132,241.509,507.132,252.716,495.924z"/>
		</g>
	</g>
	<g>
		<g>
			<path style="fill:#FFFFFF;" d="M181.931,260.796c10.161,10.161,8.055,28.743-4.705,41.503
				c-12.76,12.76-31.341,14.867-41.503,4.705c-10.161-10.161-8.055-28.743,4.705-41.503
				C153.189,252.741,171.77,250.634,181.931,260.796z"/>
			
				<ellipse transform="matrix(0.7071 -0.7071 0.7071 0.7071 -28.9965 247.3338)" style="fill:#FFFFFF;" cx="284.058" cy="158.669" rx="32.674" ry="26.02"/>
			<path style="fill:#4E5660;" d="M225.934,188.52c-11.512-11.512-20.934-4.254-31.221,6.034
				c-10.288,10.288-17.546,19.709-6.034,31.221c11.512,11.512,29.184,12.504,39.471,2.216S237.446,200.032,225.934,188.52z"/>
		</g>
	</g>
	<path style="fill:#4E5660;" d="M117.046,26.754C92.268,1.939,51.819,0.946,26.722,25.438C1.267,50.279,1.079,91.054,26.156,116.131
		c16.48,16.48,30.585,29.76,41.27,41.821l90.687-90.686C146.235,56.746,133.177,42.91,117.046,26.754z M85.915,85.756
		c-8.114,8.114-21.27,8.114-29.384,0c-8.114-8.114-8.114-21.27,0-29.384c8.114-8.114,21.27-8.114,29.384,0
		C94.029,64.486,94.029,77.642,85.915,85.756z"/>
	<path style="fill:#3A4351;" d="M125.605,35.385c-2.759-2.796-5.607-5.674-8.56-8.632C92.268,1.939,51.819,0.946,26.722,25.438
		C1.267,50.279,1.079,91.054,26.156,116.131c16.48,16.48,30.585,29.76,41.27,41.821l58.017-58.017
		C124.892,77.255,125.109,55.48,125.605,35.385z M85.915,85.756c-8.114,8.114-21.27,8.114-29.384,0
		c-8.114-8.114-8.114-21.27,0-29.384c8.114-8.114,21.27-8.114,29.384,0C94.029,64.486,94.029,77.642,85.915,85.756z"/>
	<path d="M501.387,206.669L351.506,56.788c-31.238-31.236-81.797-31.242-113.038,0l-13.909,13.909
		c-10.199,10.199-25.737,13.014-38.662,7.001c-11.065-5.147-20.443-14.166-23.111-16.294
		c-11.499-10.232-24.511-24.004-40.432-39.949C94.518-6.423,49.269-7.045,21.484,20.07c-24.385,23.797-28.511,61.692-9.812,90.107
		c2.276,3.46,6.928,4.418,10.388,2.142c3.46-2.276,4.419-6.928,2.142-10.388C9.445,79.507,12.707,49.594,31.96,30.804
		C53.893,9.4,89.682,9.963,111.738,32.053c13.409,13.427,25.049,25.625,35.517,35.462l-79.604,79.604
		c-5.769-6.152-12.337-12.716-19.721-19.996c-2.949-2.907-7.697-2.876-10.606,0.075c-2.908,2.95-2.874,7.698,0.075,10.606
		c20.662,20.37,34.671,34.778,40.89,48.887c5.54,12.569,2.575,27.7-7.377,37.651l-13.966,13.966
		c-31.163,31.165-31.163,81.874,0,113.039l149.881,149.881c14.148,14.146,37.044,14.146,51.192,0
		c14.146-14.148,14.146-37.044,0-51.192l-70.704-70.704c-5.251-5.25-5.251-13.792,0-19.042l10.888-10.888
		c5.25-5.25,13.793-5.25,19.043,0l70.703,70.703c14.148,14.146,37.043,14.149,51.192,0c14.113-14.113,14.113-37.078,0-51.191
		l-70.704-70.704c-5.263-5.263-5.263-13.781,0.001-19.043l10.888-10.888c5.25-5.25,13.792-5.25,19.042,0l70.704,70.704
		c14.114,14.112,37.078,14.112,51.192,0c14.113-14.114,14.113-37.078,0-51.192l-70.704-70.704c-5.262-5.26-5.264-13.78,0-19.042
		l10.888-10.888c5.251-5.251,13.793-5.249,19.042,0l66.63,66.63c2.93,2.928,7.678,2.928,10.607,0c2.929-2.93,2.929-7.678,0-10.607
		l-66.63-66.63c-11.099-11.097-29.156-11.099-40.257,0l-10.888,10.888c-11.124,11.126-11.125,29.13,0,40.257l70.704,70.704
		c8.284,8.282,8.286,21.693,0.001,29.978c-8.267,8.265-21.714,8.264-29.978,0l-70.704-70.704c-11.099-11.097-29.156-11.099-40.257,0
		l-10.888,10.888c-11.126,11.128-11.125,29.131,0,40.258l70.703,70.704c8.266,8.265,8.266,21.712,0,29.977
		c-8.284,8.284-21.692,8.287-29.978-0.001l-70.704-70.703c-11.101-11.098-29.158-11.098-40.257,0l-10.888,10.888
		c-11.099,11.099-11.099,29.158,0,40.257l70.704,70.704c8.285,8.283,8.285,21.694,0,29.978c-8.283,8.285-21.694,8.285-29.978,0
		L67.554,340.741c-25.315-25.316-25.315-66.51,0-91.825L81.52,234.95c14.294-14.295,18.513-36.119,10.496-54.309
		c-3.278-7.435-8.104-14.641-14.397-22.275l80.888-80.888c7.113,5.856,13.965,10.518,21.064,13.821
		c18.618,8.657,40.958,4.641,55.596-9.995l13.909-13.91c25.372-25.374,66.445-25.379,91.823,0.001l149.881,149.881
		c11.501,11.5,6.169,30.999-9.143,35.37c-3.983,1.137-6.29,5.288-5.153,9.27c0.941,3.296,3.943,5.443,7.208,5.443
		c3.121,0,11.423-3.226,17.696-9.5C515.499,243.747,515.499,220.782,501.387,206.669z M252.927,145.869
		c2.931,2.929,7.678,2.928,10.607,0c2.929-2.93,2.929-7.678,0-10.607l-9.435-9.435c-2.93-2.928-7.678-2.928-10.607,0
		c-2.929,2.93-2.929,7.678,0,10.607L252.927,145.869z M91.218,91.059c11.052-11.05,11.053-28.937,0.001-39.991
		c-11.052-11.05-28.938-11.053-39.991,0c-11.049,11.051-11.054,28.938,0,39.99C62.277,102.11,80.165,102.112,91.218,91.059z
		 M61.835,61.675c5.186-5.188,13.587-5.191,18.776,0.001c5.188,5.188,5.192,13.588,0.001,18.776c0,0,0,0-0.001,0
		c-5.188,5.188-13.588,5.191-18.777,0C56.646,75.265,56.645,66.867,61.835,61.675z M207.532,176.233
		c-6.297,2.06-11.799,6.693-18.123,13.017c-7.768,7.768-23.93,23.931-6.034,41.829c14.225,14.223,36.712,15.581,50.079,2.216
		c13.194-13.195,12.2-35.66-2.217-50.077C223.869,175.849,215.901,173.5,207.532,176.233z M222.847,222.687
		c-7.346,7.348-20.296,6.354-28.864-2.215c-5.291-5.292-6.142-8.441,6.034-20.615c3.063-3.064,9.71-9.719,14.046-9.719
		c1.475,0,3.578,0.695,6.567,3.685v0.001C229.199,202.392,230.194,215.341,222.847,222.687z M125.986,243.335
		c-2.929,2.929-2.929,7.678,0.001,10.606l9.435,9.434c2.928,2.928,7.677,2.929,10.607-0.001c2.929-2.929,2.929-7.678-0.001-10.606
		l-9.435-9.434C133.664,240.406,128.915,240.405,125.986,243.335z"/>
</g>
<g>
</g>
<g>
</g>
<g>
</g>
<g>
</g>
<g>
</g>
<g>
</g>
<g>
</g>
<g>
</g>
<g>
</g>
<g>
</g>
<g>
</g>
<g>
</g>
<g>
</g>
<g>
</g>
<g>
</g>
</svg>
