<?xml version="1.0" encoding="iso-8859-1"?>
<!-- Generator: Adobe Illustrator 23.1.0, SVG Export Plug-In . SVG Version: 6.00 Build 0)  -->
<svg version="1.1" id="Capa_1" xmlns="http://www.w3.org/2000/svg" xmlns:xlink="http://www.w3.org/1999/xlink" x="0px" y="0px"
	 viewBox="0 0 512 512" style="enable-background:new 0 0 512 512;" xml:space="preserve">
<g>
	<path style="fill:#EDA1AB;" d="M197.388,301.147c-23.286,7.406-79.689,55.092-140.127,63.019
		c-13.007,1.706-25.702-5.306-31.252-17.193C16.086,325.72,7.5,290.73,7.5,256s8.586-69.72,18.509-90.974
		c5.55-11.887,18.245-18.898,31.252-17.193c60.438,7.926,116.84,55.612,140.127,63.019V301.147z"/>
	<path style="fill:#E1796E;" d="M128.865,339.193c30.224-15.811,54.98-33.738,68.523-38.046v-90.295
		c-10-3.181-26.118-13.793-46.029-25.491C157.12,223.587,160.184,288.845,128.865,339.193z"/>
	<path style="fill:#EDA1AB;" d="M314.612,301.147c23.286,7.406,79.689,55.092,140.127,63.019
		c13.007,1.706,25.702-5.306,31.252-17.193C495.914,325.72,504.5,290.73,504.5,256s-8.586-69.72-18.509-90.974
		c-5.55-11.887-18.245-18.898-31.252-17.193c-60.438,7.926-116.84,55.612-140.127,63.019V301.147z"/>
	<path style="fill:#E1796E;" d="M383.135,339.193c-30.224-15.811-54.98-33.738-68.522-38.046v-90.295
		c10-3.181,26.118-13.793,46.029-25.491C354.88,223.587,351.816,288.845,383.135,339.193z"/>
	<path style="fill:#FBF1CF;" d="M337.391,212.86c0-5.964-3.35-11.446-8.699-14.083c-18.375-9.058-45.317-14.496-72.693-14.496
		c-27.376,0-54.318,5.438-72.693,14.496c-5.349,2.637-8.699,8.119-8.699,14.083v80.665c0,5.964,3.35,11.446,8.699,14.083
		c18.375,9.058,45.317,14.496,72.693,14.496c27.376,0,54.318-5.438,72.693-14.496c5.349-2.637,8.699-8.119,8.699-14.083V212.86z"/>
	<path style="fill:#EDA1AB;" d="M212.843,317.519c13.375,2.952,28.195,4.586,43.157,4.586c14.961,0,29.782-1.634,43.157-4.586
		V188.867c-13.374-2.951-28.195-4.586-43.157-4.586c-14.961,0-29.782,1.634-43.157,4.586V317.519z"/>
	<path d="M505.473,200.179c-0.932-4.037-4.964-6.552-8.994-5.621c-4.036,0.932-6.553,4.958-5.622,8.994
		C494.876,220.962,497,239.099,497,256c0,36.66-9.591,70.21-17.805,87.801c-4.147,8.882-13.807,14.191-23.481,12.929
		c-42.742-5.605-82.708-31.633-114.624-50.509c2.42-3.719,3.802-8.12,3.802-12.695V263.5h80.854c4.142,0,7.5-3.357,7.5-7.5
		s-3.358-7.5-7.5-7.5h-80.854v-35.64c0-2.91-0.566-5.749-1.593-8.39c32.773-19.535,71.001-43.768,112.416-49.2
		c9.673-1.263,19.333,4.046,23.48,12.928c0.386,0.828,0.771,1.678,1.152,2.548c1.661,3.794,6.083,5.523,9.878,3.862
		c3.794-1.661,5.524-6.084,3.862-9.878c-0.43-0.983-0.864-1.942-1.3-2.877c-6.993-14.979-22.678-23.595-39.023-21.456
		c-45.54,5.973-86.122,32.247-120.279,52.452c-12.374-7.296-43.08-16.067-77.485-16.067c-34.475,0-65.104,8.769-77.485,16.068
		c-30.341-17.948-73.333-46.296-120.278-52.452c-16.354-2.143-32.03,6.478-39.023,21.456C7.542,186.851,0,223.806,0,256
		s7.542,69.149,19.213,94.146c6.974,14.938,22.628,23.604,39.023,21.456c9.685-1.271,19.882-3.611,30.309-6.956
		c3.944-1.266,6.115-5.489,4.85-9.433c-1.266-3.944-5.488-6.114-9.433-4.851c-9.571,3.071-18.883,5.213-27.677,6.366
		c-9.676,1.271-19.334-4.046-23.48-12.929C24.591,326.21,15,292.66,15,256s9.591-70.21,17.805-87.801
		c4.147-8.881,13.808-14.192,23.481-12.929c41.529,5.447,80.499,30.176,112.416,49.2c-1.027,2.641-1.593,5.48-1.593,8.39v35.64
		H86.254c-4.142,0-7.5,3.357-7.5,7.5s3.358,7.5,7.5,7.5h80.854v30.025c0,4.575,1.382,8.976,3.802,12.695
		c-15.728,9.302-33.149,20.395-53.609,30.442c-3.718,1.826-5.253,6.32-3.426,10.038c1.813,3.692,6.291,5.264,10.038,3.427
		c23.857-11.716,44.122-25.026,59.845-34.033c40.443,17.895,103.866,17.974,144.486,0c29.214,16.733,75.289,48.921,125.521,55.509
		c16.434,2.152,32.066-6.556,39.023-21.456C504.458,325.149,512,288.194,512,256C512,237.98,509.743,218.678,505.473,200.179z
		 M205.343,307.911c-11.698-3.331-18.756-7.05-18.656-7c-2.951-1.47-4.579-4.393-4.579-7.385V212.86
		c0-3.116,1.772-6.004,4.515-7.355c5.485-2.704,11.814-5.063,18.72-7.029V307.911z M248.5,314.449
		c-9.657-0.362-19.182-1.413-28.157-3.069V195.006c8.975-1.656,18.499-2.706,28.157-3.069V314.449z M291.657,311.38
		c-8.975,1.656-18.5,2.707-28.157,3.069V191.938c9.657,0.362,19.182,1.413,28.157,3.069V311.38z M329.892,293.525
		c0,3.008-1.654,5.943-4.584,7.388c-5.469,2.69-11.773,5.039-18.651,6.997V198.475c6.906,1.966,13.235,4.325,18.719,7.029
		c2.743,1.353,4.516,4.24,4.516,7.357V293.525z"/>
</g>
<g>
</g>
<g>
</g>
<g>
</g>
<g>
</g>
<g>
</g>
<g>
</g>
<g>
</g>
<g>
</g>
<g>
</g>
<g>
</g>
<g>
</g>
<g>
</g>
<g>
</g>
<g>
</g>
<g>
</g>
</svg>
