<?xml version="1.0" encoding="iso-8859-1"?>
<!-- Generator: Adobe Illustrator 23.1.0, SVG Export Plug-In . SVG Version: 6.00 Build 0)  -->
<svg version="1.1" id="Capa_1" xmlns="http://www.w3.org/2000/svg" xmlns:xlink="http://www.w3.org/1999/xlink" x="0px" y="0px"
	 viewBox="0 0 512 512" style="enable-background:new 0 0 512 512;" xml:space="preserve">
<g>
	<path style="fill:#E0B799;" d="M429.319,166.77l-58.029-24.01v109.866c0,23.272-19.046,42.761-42.313,42.316
		c-18.93-0.362-34.757-13.398-39.35-30.975c-1.621-6.205-7.241-10.521-13.654-10.521h-39.944c-6.413,0-12.033,4.316-13.655,10.521
		c-4.592,17.577-20.419,30.613-39.35,30.975c-23.268,0.445-42.313-19.044-42.313-42.316V142.76l-58.029,24.01
		C40.3,201.287,7.5,278.813,7.5,331.771c0,29.294,22.134,54.137,52.825,62.927c7.149,30.298,38.35,53.107,75.763,53.107
		c19.345,0,37.016-6.112,50.574-16.191c14.781,22.613,40.306,37.567,69.338,37.567s54.557-14.954,69.338-37.567
		c13.558,10.079,31.229,16.191,50.574,16.191c37.413,0,68.614-22.809,75.763-53.107c30.691-8.79,52.825-33.632,52.825-62.927
		C504.5,278.813,471.699,201.287,429.319,166.77z"/>
	<g>
		<path style="fill:#D99A84;" d="M464.292,207.698c-10.374-16.302-22.24-30.558-34.973-40.928l-58.029-24.01v85.825
			c6.478,0.974,13.063,1.492,19.697,1.492C417.79,230.077,443.358,222.201,464.292,207.698z"/>
		<path style="fill:#D99A84;" d="M121.013,230.077c6.634,0,13.219-0.518,19.697-1.492V142.76l-58.029,24.01
			c-12.733,10.37-24.599,24.626-34.973,40.928C68.642,222.201,94.209,230.077,121.013,230.077z"/>
	</g>
	<path style="fill:#E0B799;" d="M390.987,42.823c-55.342,0-82.604,13.641-124.163,28.341c-7.003,2.477-14.644,2.477-21.647,0
		c-41.559-14.7-68.821-28.341-124.163-28.341c-49.942,0-90.428,35.202-90.428,78.627c0,43.424,40.486,78.627,90.428,78.627
		c24.293,0,46.347-8.33,62.593-21.883c2.475-2.064,6.071-2.09,8.57-0.055c16.7,13.6,39.136,21.938,63.823,21.938
		c24.687,0,47.123-8.338,63.823-21.938c2.499-2.035,6.096-2.01,8.57,0.055c16.247,13.553,38.301,21.883,62.593,21.883
		c49.942,0,90.428-35.202,90.428-78.627C481.415,78.026,440.929,42.823,390.987,42.823z"/>
	<path style="fill:#D99A84;" d="M130.781,42.973c-3.16-0.098-6.41-0.15-9.768-0.15c-49.942,0-90.428,35.202-90.428,78.627
		c0,43.425,40.486,78.627,90.428,78.627c21.78,0,41.756-6.7,57.365-17.853C104.482,173.489,102.378,75.995,130.781,42.973z"/>
	<g>
		<g>
			<ellipse style="fill:#FFFFFF;" cx="177.623" cy="145.31" rx="28.919" ry="23.03"/>
			<ellipse style="fill:#FFFFFF;" cx="334.377" cy="145.31" rx="28.92" ry="23.03"/>
		</g>
	</g>
	<path d="M341.866,337.214c-4.282,4.915-10.467,7.733-16.968,7.733c-6.5,0-12.685-2.819-16.968-7.734
		c-2.723-3.122-7.46-3.447-10.582-0.727c-3.122,2.722-3.448,7.459-0.727,10.582c7.133,8.185,17.439,12.879,28.276,12.879
		c10.839,0,21.146-4.694,28.276-12.88c2.722-3.123,2.396-7.86-0.728-10.581C349.325,333.765,344.586,334.089,341.866,337.214z
		 M457.221,184.829c19.471-15.752,31.694-38.333,31.694-63.379c0-47.49-43.931-86.127-97.929-86.127
		c-56.821,0-85.616,14.251-126.664,28.77c-5.367,1.898-11.279,1.898-16.645,0.001c-41.27-14.599-69.893-28.772-126.664-28.772
		c-15.056,0-29.5,2.923-42.932,8.688c-3.806,1.633-5.568,6.043-3.934,9.85c1.633,3.806,6.043,5.568,9.85,3.934
		c11.551-4.957,24.005-7.471,37.016-7.471c53.719,0,79.454,12.98,121.663,27.913c8.592,3.037,18.056,3.038,26.648-0.001
		c41.972-14.843,67.829-27.912,121.662-27.912c45.728,0,82.929,31.907,82.929,71.127c0,41.795-43.977,79.481-101.305,69.356
		c-14.735-2.858-28.331-9.127-39.412-18.371c-5.223-4.358-12.84-4.404-18.111-0.111c-33.154,27-84.987,27.027-118.174,0
		c-5.271-4.293-12.888-4.245-18.11,0.111c-11.082,9.244-24.678,15.514-39.413,18.371c-56.45,10.103-101.304-26.935-101.304-69.356
		c0-16.044,6.093-31.193,17.62-43.811c2.794-3.058,2.58-7.802-0.479-10.596c-3.058-2.794-7.802-2.58-10.596,0.479
		c-32.055,35.087-28.074,86.385,10.148,117.307C23.213,224.603,0,286.226,0,331.771c0,30.704,21.592,57.917,54.17,68.865
		c15.142,49.192,82.387,70.749,130.635,41.268c36.164,46.412,106.304,46.314,142.391,0c27.331,16.699,63.012,17.692,91.165,3.511
		c3.699-1.863,5.188-6.373,3.324-10.072c-1.864-3.7-6.376-5.186-10.072-3.324c-25.594,12.892-58.733,10.725-81.8-6.425
		c-3.491-2.595-8.406-1.674-10.752,1.916c-29.787,45.569-96.37,45.514-126.121,0c-2.361-3.611-7.281-4.494-10.752-1.916
		c-40.188,29.878-104.082,11.804-114.563-32.619c-0.623-2.642-2.625-4.74-5.235-5.487C34.044,379.369,15,356.979,15,331.771
		c0-42.868,22.155-101.138,52.164-138.421c19.199,11.16,42.329,16.134,66.046,13.544v45.733c0,27.193,22.176,50.301,49.957,49.815
		c21.839-0.418,40.945-15.46,46.462-36.578c0.756-2.896,3.388-4.918,6.398-4.918h39.944c3.011,0,5.642,2.021,6.397,4.918
		c5.598,21.421,25.173,36.587,47.397,36.587c27.301,0,49.023-22.936,49.023-49.824v-45.733c23.674,2.585,46.811-2.363,66.046-13.544
		C474.845,230.633,497,288.903,497,331.771c0,25.208-19.045,47.599-47.391,55.717c-2.609,0.747-4.611,2.846-5.234,5.487
		c-1.448,6.141-4.05,12.021-7.731,17.479c-2.316,3.435-1.41,8.096,2.023,10.412c3.469,2.337,8.118,1.379,10.412-2.023
		c3.857-5.72,6.792-11.827,8.752-18.208C490.406,389.686,512,362.473,512,331.771C512,286.226,488.787,224.603,457.221,184.829z
		 M363.789,252.626c0,19.021-15.657,35.278-34.67,34.817c-15.153-0.29-28.409-10.724-32.236-25.371
		c-2.48-9.495-11.078-16.127-20.911-16.127h-39.944c-9.831,0-18.43,6.631-20.911,16.126c-3.827,14.648-17.083,25.082-32.236,25.372
		c-19.055,0.461-34.67-15.833-34.67-34.817v-48.411c14.711-3.724,28.305-10.467,39.72-19.864c38.497,30.942,97.567,31.001,136.139,0
		c11.415,9.397,25.009,16.14,39.72,19.864V252.626z M214.378,358.354c-4.284,4.915-10.468,7.733-16.968,7.733
		c-6.5,0-12.685-2.818-16.968-7.733c-2.721-3.122-7.459-3.447-10.582-0.727c-3.123,2.722-3.448,7.459-0.727,10.582
		c7.133,8.184,17.439,12.878,28.276,12.878c10.837,0,21.143-4.693,28.276-12.878c2.722-3.122,2.396-7.86-0.726-10.582
		C221.838,354.905,217.1,355.231,214.378,358.354z M409.593,320.21c-4.149-0.271-7.712,2.836-7.997,6.968
		c-0.284,4.133,2.836,7.713,6.968,7.997c10.811,0.746,21.428-3.215,29.102-10.888c7.662-7.663,11.631-18.271,10.888-29.101
		c-0.283-4.133-3.868-7.243-7.996-6.969c-4.132,0.283-7.252,3.863-6.969,7.996c0.446,6.504-1.934,12.87-6.53,17.467
		C422.462,318.279,416.104,320.663,409.593,320.21z M256,150.489c7.764,0,15.146-3.362,20.256-9.225
		c2.722-3.123,2.395-7.86-0.727-10.582c-3.123-2.721-7.86-2.396-10.582,0.727c-2.26,2.593-5.52,4.08-8.947,4.08
		c-3.427,0-6.688-1.487-8.947-4.08c-2.721-3.122-7.459-3.448-10.581-0.727c-3.123,2.721-3.448,7.459-0.727,10.582
		C240.853,147.127,248.236,150.489,256,150.489z M69.705,291.826c-4.123-0.279-7.712,2.837-7.996,6.969
		c-0.743,10.831,3.225,21.438,10.888,29.1c7.659,7.66,18.275,11.637,29.101,10.889c4.132-0.283,7.252-3.863,6.969-7.996
		c-0.284-4.133-3.864-7.24-7.996-6.969c-6.51,0.437-12.871-1.934-17.467-6.53c-4.596-4.596-6.976-10.962-6.53-17.466
		C76.957,295.69,73.837,292.11,69.705,291.826z M311.258,120.249c0-3.455,2.811-6.266,6.265-6.266s6.265,2.811,6.265,6.266
		c0,4.143,3.357,7.5,7.5,7.5c4.143,0,7.5-3.357,7.5-7.5c0-11.726-9.539-21.266-21.265-21.266c-11.726,0-21.265,9.54-21.265,21.266
		c0,4.143,3.357,7.5,7.5,7.5C307.9,127.749,311.258,124.392,311.258,120.249z M188.212,120.249c0-3.455,2.811-6.266,6.265-6.266
		s6.265,2.811,6.265,6.266c0,4.143,3.358,7.5,7.5,7.5s7.5-3.357,7.5-7.5c0-11.726-9.54-21.266-21.265-21.266
		c-11.725,0-21.265,9.54-21.265,21.266c0,4.143,3.358,7.5,7.5,7.5C184.854,127.749,188.212,124.392,188.212,120.249z"/>
</g>
<g>
</g>
<g>
</g>
<g>
</g>
<g>
</g>
<g>
</g>
<g>
</g>
<g>
</g>
<g>
</g>
<g>
</g>
<g>
</g>
<g>
</g>
<g>
</g>
<g>
</g>
<g>
</g>
<g>
</g>
</svg>
