<?xml version="1.0" encoding="iso-8859-1"?>
<!-- Generator: Adobe Illustrator 23.1.0, SVG Export Plug-In . SVG Version: 6.00 Build 0)  -->
<svg version="1.1" id="Capa_1" xmlns="http://www.w3.org/2000/svg" xmlns:xlink="http://www.w3.org/1999/xlink" x="0px" y="0px"
	 viewBox="0 0 512 512" style="enable-background:new 0 0 512 512;" xml:space="preserve">
<g>
	<circle style="fill:#E0B799;" cx="256" cy="268.152" r="208.097"/>
	<path style="fill:#D99A84;" d="M382.757,433.183c-262.304-35.659-272.7-239.459-223.654-349.223
		c-66.118,34.855-111.2,104.253-111.2,184.191c0,114.929,93.168,208.097,208.097,208.097
		C303.707,476.249,347.656,460.184,382.757,433.183z"/>
	<path style="fill:#D99A84;" d="M459.339,223.778c-12.825-59.04-50.701-108.726-101.946-137.376
		c-8.571,14.002-13.513,30.466-13.513,48.085c0,50.943,41.297,92.24,92.24,92.24C444.14,226.727,451.921,225.701,459.339,223.778z"
		/>
	
		<ellipse transform="matrix(0.7071 -0.7071 0.7071 0.7071 -114.6315 259.5592)" style="fill:#FFFFFF;" cx="256" cy="268.152" rx="157.744" ry="157.744"/>
	<path style="fill:#FBF1CF;" d="M98.256,268.152c0,87.12,70.625,157.744,157.744,157.744c18.502,0,36.255-3.196,52.751-9.048
		c-145.006-46.437-181.439-158.816-170.966-253.125C113.19,191.543,98.256,228.101,98.256,268.152z"/>
	<path style="fill:#D99A84;" d="M130.617,172.419c28.825-37.696,74.265-62.011,125.383-62.011l-17.784-73.03
		c-80.209-15.611-97.974,57.651-143.73,57.651L130.617,172.419z"/>
	<circle style="fill:#E0B799;" cx="75.88" cy="134.487" r="68.38"/>
	<circle style="fill:#F6EE86;" cx="75.88" cy="134.487" r="28.32"/>
	<path style="fill:#D99A84;" d="M381.383,172.419c-28.825-37.696-74.265-62.011-125.383-62.011l17.784-73.03
		c80.209-15.611,97.973,57.651,143.73,57.651L381.383,172.419z"/>
	<circle style="fill:#E0B799;" cx="436.12" cy="134.487" r="68.38"/>
	<circle style="fill:#F6EE86;" cx="436.12" cy="134.487" r="28.32"/>
	<ellipse style="fill:#F6EE86;" cx="256" cy="78.655" rx="39.192" ry="53.403"/>
	<path style="fill:#F6EE86;" d="M264.706,403.885h-17.413c-8.875,0-16.377,6.573-17.545,15.37l-6.301,47.477
		c-1.408,10.607,6.845,20.027,17.545,20.027h30.016c10.7,0,18.953-9.421,17.545-20.027l-6.301-47.477
		C281.084,410.457,273.581,403.885,264.706,403.885z"/>
	<path style="fill:#4E5660;" d="M239.655,284.497l-61.56-61.56c-9.026-9.027-9.026-23.663,0-32.689
		c9.027-9.027,23.663-9.027,32.69,0l61.56,61.56c9.026,9.027,9.026,23.663,0,32.689C263.32,293.522,248.682,293.524,239.655,284.497
		z"/>
	<path style="fill:#EDA1AB;" d="M239.656,284.497c-9.027-9.027-9.028-23.662-0.001-32.688l39.192-39.193
		c9.027-9.027,23.662-9.028,32.688-0.001c9.027,9.027,9.028,23.662,0.001,32.688l-39.191,39.193
		C263.318,293.522,248.683,293.524,239.656,284.497z"/>
	<path d="M436.12,98.666c-19.751,0-35.82,16.069-35.82,35.82c0,19.751,16.069,35.82,35.82,35.82c19.751,0,35.82-16.069,35.82-35.82
		C471.94,114.735,455.871,98.666,436.12,98.666z M436.12,155.307c-11.48,0-20.82-9.34-20.82-20.82c0-11.48,9.34-20.82,20.82-20.82
		s20.82,9.34,20.82,20.82C456.94,145.967,447.601,155.307,436.12,155.307z M375.467,275.652h7.644c4.142,0,7.5-3.357,7.5-7.5
		c0-4.143-3.358-7.5-7.5-7.5h-7.644c-4.143,0-7.5,3.357-7.5,7.5C367.967,272.295,371.324,275.652,375.467,275.652z M136.533,260.652
		h-7.644c-4.143,0-7.5,3.357-7.5,7.5c0,4.143,3.357,7.5,7.5,7.5h7.644c4.143,0,7.5-3.357,7.5-7.5
		C144.033,264.01,140.676,260.652,136.533,260.652z M273.543,207.312L256,224.856l-39.912-39.912
		c-11.965-11.963-31.33-11.967-43.297,0c-11.937,11.938-11.937,31.359,0,43.297c0.174,0.174,61.689,61.687,61.579,61.577
		c11.962,11.941,31.314,11.946,43.278-0.018l39.191-39.192c11.936-11.937,11.936-31.358-0.001-43.295
		C304.877,195.348,285.509,195.346,273.543,207.312z M234.352,246.506c-4.03,4.031-6.694,8.916-8.002,14.078l-42.95-42.95
		c-6.089-6.088-6.089-15.994,0-22.083c6.101-6.101,15.979-6.104,22.082,0.001l39.912,39.912L234.352,246.506z M306.232,240
		l-39.191,39.192c-6.087,6.09-15.994,6.09-22.081,0.001c-6.088-6.088-6.089-15.993-0.001-22.081l39.191-39.192
		c6.102-6.102,15.979-6.105,22.081-0.001C312.32,224.007,312.32,233.913,306.232,240z M75.88,98.666
		c-19.751,0-35.82,16.069-35.82,35.82c0,19.751,16.069,35.82,35.82,35.82s35.82-16.069,35.82-35.82
		C111.7,114.735,95.631,98.666,75.88,98.666z M75.88,155.307c-11.48,0-20.82-9.34-20.82-20.82c0-11.48,9.34-20.82,20.82-20.82
		s20.82,9.34,20.82,20.82C96.7,145.967,87.36,155.307,75.88,155.307z M496.731,88.83c-2.495-3.307-7.198-3.967-10.504-1.471
		c-3.307,2.494-3.965,7.197-1.471,10.504C492.767,108.48,497,121.145,497,134.486c0,33.569-27.31,60.88-60.88,60.88
		c-33.569,0-60.88-27.311-60.88-60.88c0-43.065,43.699-72.483,83.508-56.538c3.846,1.538,8.21-0.327,9.751-4.173
		c1.54-3.846-0.328-8.211-4.173-9.751c-24.58-9.846-53.771-6.44-75.911,11.511c-4.543-3.447-9.116-7.394-13.886-11.511
		c-21.039-18.165-47.092-40.64-91.951-35.569c-15.829-14.288-37.33-14.286-53.157,0c-54.65-6.177-81.205,28.392-105.837,47.08
		C110.541,64.96,93.941,58.606,75.88,58.606C34.04,58.606,0,92.646,0,134.486c0,32.612,20.683,60.482,49.619,71.19
		c-6.11,20.197-9.217,41.174-9.217,62.476c0,61.459,26.345,120.164,72.278,161.063c3.094,2.754,7.834,2.48,10.589-0.614
		c2.754-3.094,2.479-7.834-0.614-10.589c-42.74-38.056-67.253-92.678-67.253-149.86c0-20.024,2.945-39.735,8.74-58.697
		c13.185,2.056,26.608,0.628,39.07-4.202c-8.179,19.842-12.457,41.179-12.457,62.9c0,78.482,55.02,145.153,130.052,161.467
		l-4.667,35.159c-23.445-4.713-45.634-13.516-66.069-26.248c-3.513-2.191-8.141-1.116-10.331,2.399
		c-2.19,3.516-1.116,8.141,2.399,10.331c23.523,14.657,49.208,24.473,76.403,29.23c4.38,8.604,13.129,13.769,22.449,13.769h30.016
		c9.303,0,18.057-5.149,22.446-13.763c101.758-17.85,178.143-106.628,178.143-212.344c0-21.304-3.1-42.283-9.209-62.479
		C510.201,187.973,527.195,129.208,496.731,88.83z M364.727,75.378c4.39,3.791,8.626,7.433,12.931,10.791
		c-12.335,14.899-18.68,33.978-17.18,54.022c-18.582-15.151-40.337-26.202-63.53-32.144c8.56-20.361,7.604-46.006-3.167-65.303
		C326.251,42.2,345.785,59.025,364.727,75.378z M256,32.752c17.476,0,31.692,20.592,31.692,45.903S273.476,124.559,256,124.559
		s-31.692-20.592-31.692-45.903S238.524,32.752,256,32.752z M218.224,42.736c-10.769,19.287-11.737,44.934-3.171,65.311
		c-23.193,5.941-44.948,16.993-63.529,32.143c1.498-20.051-4.848-39.122-17.175-54.015
		C157.804,67.859,178.154,42.053,218.224,42.736z M75.88,195.366c-33.569,0-60.88-27.311-60.88-60.88
		c0-33.569,27.311-60.88,60.88-60.88c33.569,0,60.88,27.311,60.88,60.88C136.76,168.056,109.449,195.366,75.88,195.366z
		 M271.008,479.26h-30.016c-6.126,0-10.929-5.373-10.11-11.54l6.302-47.478c0.67-5.049,5.017-8.857,10.11-8.857h17.412
		c5.094,0,9.44,3.808,10.11,8.857l6.302,47.478C281.923,473.779,277.241,479.26,271.008,479.26z M288.934,414.757
		c-3.019-10.682-12.858-18.372-24.228-18.372h-1.299c0.168-1.119,0.058-0.934,0.093-8.766c0-4.143-3.357-7.5-7.5-7.5
		c-4.143,0-7.5,3.357-7.5,7.5c0.035,7.85-0.075,7.648,0.093,8.766h-1.299c-11.371,0-21.21,7.69-24.228,18.372
		c-67.841-15.204-117.31-75.676-117.31-146.604c0-27.794,7.657-54.914,22.132-78.489c6.484-6.115,11.893-13.351,15.913-21.403
		c20.822-23.366,48.7-39.796,79.021-46.652c7.102,9.35,16.129,15.312,26.002,17.253c-0.545,1.797-0.233,2.586-0.324,9.824
		c0,4.143,3.357,7.5,7.5,7.5c4.143,0,7.5-3.357,7.5-7.5c-0.09-7.186,0.223-8.02-0.324-9.824c9.874-1.941,18.9-7.902,26.003-17.253
		c30.32,6.856,58.199,23.286,79.021,46.652c4.02,8.052,9.429,15.288,15.913,21.403c14.475,23.576,22.132,50.695,22.132,78.489
		C406.244,339.075,356.782,399.552,288.934,414.757z M295.857,464.76l-4.664-35.137c75.024-16.312,130.051-82.988,130.051-161.471
		c0-21.721-4.28-43.058-12.459-62.9c12.441,4.823,25.865,6.263,39.072,4.203c5.795,18.96,8.74,38.672,8.74,58.697
		C456.597,364.71,388.139,446.125,295.857,464.76z"/>
</g>
<g>
</g>
<g>
</g>
<g>
</g>
<g>
</g>
<g>
</g>
<g>
</g>
<g>
</g>
<g>
</g>
<g>
</g>
<g>
</g>
<g>
</g>
<g>
</g>
<g>
</g>
<g>
</g>
<g>
</g>
</svg>
