<?xml version="1.0" encoding="iso-8859-1"?>
<!-- Generator: Adobe Illustrator 23.1.0, SVG Export Plug-In . SVG Version: 6.00 Build 0)  -->
<svg version="1.1" id="Capa_1" xmlns="http://www.w3.org/2000/svg" xmlns:xlink="http://www.w3.org/1999/xlink" x="0px" y="0px"
	 viewBox="0 0 512 512" style="enable-background:new 0 0 512 512;" xml:space="preserve">
<g>
	<rect x="70.936" y="140.499" style="fill:#E0B799;" width="154.534" height="47.832"/>
	<path style="fill:#D99A84;" d="M118.369,188.331H225.47v-47.832h-84.276C131.714,155.299,124.013,171.345,118.369,188.331z"/>
	<rect x="70.936" y="323.635" style="fill:#E0B799;" width="154.534" height="47.832"/>
	<path style="fill:#D99A84;" d="M141.194,371.467h84.276v-47.832H118.369C124.013,340.621,131.714,356.667,141.194,371.467z"/>
	<path style="fill:#3A4351;" d="M28.649,428.06l16.775-8.372c15.633-7.802,25.512-23.772,25.512-41.244v-244.92
		c0-17.472-9.878-33.442-25.512-41.244l-16.775-8.372C18.929,79.055,7.5,86.124,7.5,96.988v317.99
		C7.5,425.842,18.929,432.911,28.649,428.06z"/>
	<circle style="fill:#4E5660;" cx="321.868" cy="255.983" r="182.632"/>
	<path style="fill:#3A4351;" d="M466.87,367.012C250.587,400.989,181.263,164.206,241.106,92.147
		c-60.353,29.808-101.87,91.968-101.87,163.836c0,100.865,81.767,182.632,182.632,182.632
		C380.961,438.615,433.489,410.541,466.87,367.012z"/>
	<circle style="fill:#FBF1CF;" cx="321.868" cy="255.983" r="141.538"/>
	<path style="fill:#F7DFB7;" d="M239.765,140.68c-35.977,25.664-59.435,67.743-59.435,115.303
		c0,78.169,63.369,141.538,141.538,141.538c37.337,0,71.291-14.464,96.582-38.086C291.386,344.71,233.788,223.64,239.765,140.68z"/>
	<path style="fill:#A2DDFD;" d="M318.364,114.489c-75.386,1.832-136.158,62.605-137.99,137.99L318.364,114.489z"/>
	<path style="fill:#7ACDF9;" d="M180.374,252.479l62.662-62.662c-3.297-17.073-4.378-33.757-3.271-49.132
		C204.676,165.717,181.495,206.362,180.374,252.479z"/>
	<path style="fill:#EDA1AB;" d="M463.362,259.487l-137.991,137.99C400.757,395.645,461.53,334.872,463.362,259.487z"/>
	<path style="fill:#E1796E;" d="M373.745,349.103l-48.374,48.374c35.955-0.874,68.58-15.162,93.077-38.042
		C402.45,357.581,387.553,354.041,373.745,349.103z"/>
	<g>
		<g>
			<ellipse style="fill:#EDA1AB;" cx="237.688" cy="257.877" rx="31.061" ry="24.735"/>
			<ellipse style="fill:#EDA1AB;" cx="406.048" cy="257.877" rx="31.061" ry="24.735"/>
		</g>
	</g>
	<path style="fill:#4E5660;" d="M316.629,259.107c3.043,2.539,7.435,2.539,10.479,0c5.089-4.246,11.457-6.997,18.398-7.544
		c10.169-0.802,19.466,3.008,26.019,9.562c10.57,10.57,13.565,37.259,38.559,43.905c5.855,1.557,6.991,9.396,1.849,12.6
		c-22.577,14.066-57.885,20.51-90.065-13.257c-32.18,33.767-67.488,27.323-90.065,13.257c-5.142-3.204-4.006-11.043,1.849-12.6
		c24.994-6.646,27.99-33.335,38.559-43.905c6.553-6.553,15.85-10.364,26.019-9.562C305.172,252.11,311.539,254.861,316.629,259.107z
		"/>
	<path d="M470.906,255.983c0-82.18-66.858-149.038-149.038-149.038c-82.334,0-149.038,67.025-149.038,149.038
		c0,82.18,66.858,149.038,149.038,149.038C403.992,405.021,470.906,338.206,470.906,255.983z M298.21,124.036L189.921,232.325
		C199.753,177.341,243.226,133.868,298.21,124.036z M345.526,387.93l57.199-57.199c5.102-2.082,9.538-4.471,13.173-6.736
		c4.547-2.833,7.118-7.921,6.773-13.21l31.144-31.144C443.983,334.625,400.51,378.098,345.526,387.93z M327.298,299.199
		c-2.957-3.102-7.905-3.099-10.859,0c-32.748,34.36-65.824,20.959-79.591,12.723c19.097-5.656,27.127-21.435,33.025-33.022
		c2.574-5.059,5.006-9.836,7.642-12.471c9.026-9.028,23.873-10.267,34.31-1.563c5.818,4.855,14.268,4.855,20.088,0
		c10.407-8.682,25.26-7.491,34.309,1.563c2.635,2.635,5.067,7.412,7.642,12.471c5.898,11.587,13.931,27.365,33.026,33.022
		C393.122,320.156,360.045,333.561,327.298,299.199z M455.902,256.34l-42.062,42.062c-0.589-0.241-1.197-0.452-1.828-0.62
		c-13.538-3.6-19.254-14.829-24.781-25.688c-3.13-6.148-6.086-11.956-10.402-16.272c-14.451-14.453-38.068-16.206-54.524-2.475
		c-0.262,0.219-0.61,0.218-0.87,0.001c-16.494-13.761-40.107-11.945-54.526,2.473c-4.316,4.317-7.272,10.125-10.402,16.273
		c-5.527,10.859-11.243,22.088-24.779,25.688c-12.321,3.275-14.49,19.607-3.888,26.213c30.056,18.727,65.326,17.144,94.03-9.12
		c15.281,13.983,33.255,22.127,53.881,21.617l-53.524,53.525c-73.925,0.227-134.395-59.89-134.395-134.034
		c0-0.119,0.004-0.238,0.005-0.357l133.677-133.676C395.275,121.723,456.055,181.703,455.902,256.34z M321.868,65.851
		c-57.979,0-109.971,26.095-144.874,67.147H78.427c-0.193-20.237-11.514-38.377-29.654-47.432l-16.775-8.372
		C17.274,69.85,0,80.57,0,96.988v7.17c0,4.143,3.357,7.5,7.5,7.5s7.5-3.357,7.5-7.5v-7.17c0-5.289,5.566-8.736,10.301-6.371
		l16.774,8.372c13.176,6.576,21.361,19.809,21.361,34.534v244.92c0,14.726-8.186,27.958-21.36,34.534l-16.775,8.372
		C20.575,423.708,15,420.279,15,414.978V140.29c0-4.143-3.357-7.5-7.5-7.5s-7.5,3.357-7.5,7.5v274.689
		c0,16.417,17.273,27.139,31.998,19.793l16.776-8.372c18.139-9.054,29.46-27.195,29.653-47.432h98.567
		c65.246,76.742,178.513,89.476,258.865,29.201c3.314-2.486,3.984-7.188,1.499-10.501c-2.486-3.314-7.188-3.984-10.501-1.499
		c-30.476,22.862-66.78,34.946-104.989,34.946c-96.568,0-175.132-78.563-175.132-175.132S225.3,80.851,321.868,80.851
		S497,159.415,497,255.983c0,42.899-15.668,84.173-44.116,116.219c-2.75,3.098-2.469,7.838,0.629,10.588
		c3.099,2.751,7.838,2.468,10.588-0.629C494.989,347.367,512,302.556,512,255.983C512,151.144,426.707,65.851,321.868,65.851z
		 M78.437,195.831h63.058c-13.005,38.895-13.027,81.343,0,120.305H78.437V195.831z M147.234,331.135
		c5.004,11.583,11.129,22.571,18.235,32.832H78.437v-32.832H147.234z M147.234,180.831H78.437v-32.832h87.032
		C158.363,158.26,152.238,169.247,147.234,180.831z M255.79,213.869c-4.142,0-7.5,3.357-7.5,7.5v12.697c0,4.143,3.358,7.5,7.5,7.5
		c4.143,0,7.5-3.357,7.5-7.5v-12.697C263.29,217.226,259.933,213.869,255.79,213.869z M387.946,213.869c-4.143,0-7.5,3.357-7.5,7.5
		v12.697c0,4.143,3.357,7.5,7.5,7.5c4.143,0,7.5-3.357,7.5-7.5v-12.697C395.446,217.226,392.089,213.869,387.946,213.869z"/>
</g>
<g>
</g>
<g>
</g>
<g>
</g>
<g>
</g>
<g>
</g>
<g>
</g>
<g>
</g>
<g>
</g>
<g>
</g>
<g>
</g>
<g>
</g>
<g>
</g>
<g>
</g>
<g>
</g>
<g>
</g>
</svg>
