<?xml version="1.0" encoding="iso-8859-1"?>
<!-- Generator: Adobe Illustrator 23.1.0, SVG Export Plug-In . SVG Version: 6.00 Build 0)  -->
<svg version="1.1" id="Capa_1" xmlns="http://www.w3.org/2000/svg" xmlns:xlink="http://www.w3.org/1999/xlink" x="0px" y="0px"
	 viewBox="0 0 512.044 512.044" style="enable-background:new 0 0 512.044 512.044;" xml:space="preserve">
<g>
	<path style="fill:#FBF1CF;" d="M326.663,43.078c-4.496,1.228-9.259-0.591-11.776-4.514C302.899,19.88,281.944,7.5,258.096,7.5
		c-23.847,0-44.802,12.38-56.791,31.064c-2.517,3.923-7.279,5.741-11.775,4.514c-38.363-10.477-78.18,18.232-78.18,59.89
		c0,32.711,25.398,59.664,57.695,61.849c5.464,0.37,10.288,3.687,12.393,8.743l35.369,84.916l36.689-81.068
		c1.791-3.957,7.41-3.957,9.201,0l36.689,81.068l35.369-84.916c2.106-5.055,6.929-8.373,12.393-8.743
		c32.322-2.184,57.696-29.167,57.696-61.849C404.843,61.299,365.019,32.603,326.663,43.078z"/>
	<path style="fill:#F7DFB7;" d="M237.862,211.952c-9.834-19.964-16.89-46.516-20.835-65.705
		c-1.439-7.003-7.278-12.134-14.376-12.983c-39.488-4.72-50.118-66.893-25.227-92.217c-34.193-2.258-66.074,24.645-66.074,61.921
		c0,32.77,25.49,59.761,57.869,61.86c5.402,0.35,10.138,3.734,12.219,8.731l35.369,84.916L237.862,211.952z"/>
	<path style="fill:#A2DDFD;" d="M316.789,220.852H199.404c-8.999,0-16.294,7.295-16.294,16.294v40.723h149.972v-40.723
		C333.083,228.147,325.787,220.852,316.789,220.852z"/>
	<path style="fill:#CDE9FA;" d="M335.573,487.505H180.62c-13.014,0-23.563-10.55-23.563-23.563v-162.51
		c0-13.014,10.55-23.563,23.563-23.563h154.954c13.014,0,23.563,10.55,23.563,23.563v162.51
		C359.137,476.956,348.587,487.505,335.573,487.505z"/>
	<path style="fill:#A2DDFD;" d="M207.958,277.869H180.62c-13.014,0-23.563,10.55-23.563,23.563v162.51
		c0,13.013,10.55,23.563,23.563,23.563h65.226C215.703,452.25,200.413,366.207,207.958,277.869z"/>
	<path style="fill:#A2DDFD;" d="M157.056,448.84v15.102c0,13.013,10.55,23.563,23.563,23.563h154.954
		c13.014,0,23.563-10.55,23.563-23.563V448.84H157.056z"/>
	<path style="fill:#7ACDF9;" d="M157.056,448.84v15.102c0,13.013,10.55,23.563,23.563,23.563h65.226
		c-8.13-9.509-15.176-22.719-20.989-38.665H157.056z"/>
	
		<ellipse transform="matrix(0.9738 -0.2276 0.2276 0.9738 -71.6054 67.7799)" style="fill:#EDA1AB;" cx="258.096" cy="344.377" rx="22.113" ry="22.113"/>
	<path style="fill:#FBF1CF;" d="M374.701,401.18c22.966,0,52.793,40.206,69.283,71.515c5.084,9.652,0.078,21.597-10.375,24.72
		c-14.598,4.362-34.158,7.085-58.908,7.085s-44.31-2.723-58.908-7.085c-10.453-3.123-15.458-15.068-10.375-24.72
		C321.908,441.386,351.734,401.18,374.701,401.18z"/>
	<path style="fill:#F7DFB7;" d="M348.518,414.216c-16.302,14.424-32.472,38.298-43.101,58.479
		c-5.084,9.652-0.078,21.597,10.375,24.72c14.598,4.362,34.158,7.085,58.908,7.085c5.314,0,10.374-0.133,15.212-0.373
		C348.066,491.908,333.464,445.068,348.518,414.216z"/>
	<g>
		<g>
			<ellipse style="fill:#EDA1AB;" cx="175.477" cy="125.989" rx="30.834" ry="24.555"/>
			<ellipse style="fill:#EDA1AB;" cx="342.607" cy="125.989" rx="30.834" ry="24.555"/>
		</g>
	</g>
	<g>
		<circle style="fill:#F7DFB7;" cx="357.601" cy="452.84" r="7.754"/>
		<circle style="fill:#F7DFB7;" cx="399.382" cy="471.04" r="7.754"/>
	</g>
	
		<ellipse transform="matrix(0.9262 -0.377 0.377 0.9262 -11.9409 25.6217)" style="fill:#F7DFB7;" cx="59.478" cy="43.313" rx="24.475" ry="24.475"/>
	<circle style="fill:#FBF1CF;" cx="108.257" cy="211.787" r="20.647"/>
	<circle style="fill:#FBF1CF;" cx="452.566" cy="31.975" r="24.475"/>
	<path d="M91.453,43.313c0-17.632-14.344-31.976-31.975-31.976c-17.631,0-31.976,14.344-31.976,31.976s14.344,31.976,31.976,31.976
		C77.109,75.288,91.453,60.944,91.453,43.313z M59.478,60.288c-9.36,0-16.976-7.615-16.976-16.976s7.615-16.976,16.976-16.976
		c9.36,0,16.975,7.615,16.975,16.976S68.838,60.288,59.478,60.288z M108.257,183.641c-15.521,0-28.147,12.626-28.147,28.146
		s12.627,28.148,28.147,28.148s28.147-12.627,28.147-28.148S123.777,183.641,108.257,183.641z M108.257,224.935
		c-7.25,0-13.147-5.898-13.147-13.148c0-7.249,5.897-13.146,13.147-13.146c7.249,0,13.147,5.898,13.147,13.146
		C121.404,219.037,115.506,224.935,108.257,224.935z M185.947,90.049v12c0,4.143,3.358,7.5,7.5,7.5s7.5-3.357,7.5-7.5v-12
		c0-4.142-3.358-7.5-7.5-7.5S185.947,85.906,185.947,90.049z M326.954,80.309c-11.803,0-21.406,9.603-21.406,21.406
		c0,4.143,3.358,7.5,7.5,7.5c4.142,0,7.5-3.357,7.5-7.5c0-3.532,2.874-6.406,6.406-6.406c3.532,0,6.406,2.874,6.406,6.406
		c0,4.143,3.358,7.5,7.5,7.5c4.142,0,7.5-3.357,7.5-7.5C348.36,89.911,338.757,80.309,326.954,80.309z M270.682,97.049
		c-2.939,3.372-7.181,5.306-11.64,5.306c-4.459,0-8.701-1.934-11.64-5.306c-2.721-3.122-7.459-3.447-10.582-0.726
		c-3.123,2.722-3.448,7.459-0.727,10.582c5.788,6.642,14.152,10.45,22.948,10.45s17.16-3.809,22.948-10.45
		c2.721-3.123,2.396-7.86-0.727-10.582C278.141,93.601,273.403,93.926,270.682,97.049z M280.209,394.632h-44.226
		c-4.142,0-7.5,3.357-7.5,7.5c0,4.143,3.358,7.5,7.5,7.5h44.226c4.142,0,7.5-3.357,7.5-7.5
		C287.709,397.989,284.351,394.632,280.209,394.632z M452.566,0c-17.631,0-31.975,14.344-31.975,31.976s14.344,31.976,31.975,31.976
		c17.631,0,31.976-14.344,31.976-31.976S470.197,0,452.566,0z M452.566,48.951c-9.36,0-16.975-7.615-16.975-16.976
		c0-9.36,7.615-16.976,16.975-16.976c9.36,0,16.976,7.615,16.976,16.976C469.541,41.336,461.926,48.951,452.566,48.951z
		 M374.701,393.681c-2.617,0-5.309,0.401-8.064,1.157v-93.406c0-15.423-11.3-28.251-26.054-30.654v-33.633
		c0-10.008-6.214-18.587-14.984-22.096l16.081-38.606c0.988-2.374,3.278-3.962,5.974-4.144c36.275-2.451,64.69-32.905,64.69-69.332
		c0-17.202-6.271-33.647-17.656-46.306c-2.77-3.08-7.512-3.332-10.592-0.561c-3.079,2.77-3.331,7.512-0.56,10.592
		c9.034,10.043,13.809,22.587,13.809,36.274c0,28.564-22.271,52.445-50.701,54.365c-8.412,0.568-15.62,5.682-18.811,13.343
		l-17.775,42.676h-22.859l-17.668-39.037c-4.446-9.821-18.409-9.845-22.867,0l-17.667,39.037h-22.859l-17.775-42.675
		c-3.19-7.662-10.398-12.775-18.811-13.344c-28.431-1.923-50.702-25.803-50.702-54.365c0-36.292,34.658-61.949,68.704-52.656
		c7.696,2.105,15.759-0.989,20.065-7.697c23.634-36.835,77.354-36.785,100.956,0.001c4.304,6.708,12.368,9.8,20.064,7.697
		c9.281-2.534,19.102-2.524,28.402,0.025c3.995,1.098,8.121-1.254,9.217-5.248c1.096-3.995-1.254-8.121-5.249-9.217
		c-11.891-3.264-24.45-3.273-36.323-0.03c-1.339,0.364-2.742-0.168-3.486-1.328c-29.539-46.038-96.706-45.977-126.205-0.001
		c-0.745,1.161-2.144,1.695-3.488,1.328c-43.487-11.878-87.656,20.832-87.656,67.126c0,36.424,28.415,66.878,64.69,69.332
		c2.697,0.182,4.986,1.77,5.975,4.144l16.08,38.606c-8.77,3.509-14.985,12.088-14.985,22.096v33.633
		c-14.754,2.403-26.054,15.23-26.054,30.654v162.51c0,12.432,7.38,23.637,18.801,28.547c3.806,1.636,8.217-0.125,9.852-3.929
		c1.636-3.806-0.123-8.216-3.928-9.852c-5.908-2.539-9.725-8.335-9.725-14.766v-7.603h141.461c-2.533,4.236-4.961,8.543-7.235,12.86
		c-1.786,3.391-2.736,7.083-2.85,10.805h-88.839c-4.142,0-7.5,3.357-7.5,7.5c0,4.143,3.358,7.5,7.5,7.5h93.3
		c3.177,4.573,7.809,7.97,13.251,9.597c33.186,9.916,88.877,9.93,122.111,0c14.98-4.476,22.148-21.572,14.863-35.401
		C436.741,442.85,404.335,393.681,374.701,393.681z M258.097,185.432l12.635,27.92h-25.271L258.097,185.432z M190.61,237.145
		c0-4.849,3.945-8.794,8.794-8.794c96.769,0.002,75.921,0.002,117.384,0c4.849,0,8.794,3.945,8.794,8.794v33.224h-22.143V254.36
		c0-4.143-3.358-7.5-7.5-7.5c-4.142,0-7.5,3.357-7.5,7.5v16.009h-22.843V254.36c0-4.143-3.358-7.5-7.5-7.5
		c-4.142,0-7.5,3.357-7.5,7.5v16.009h-22.843V254.36c0-4.143-3.358-7.5-7.5-7.5s-7.5,3.357-7.5,7.5v16.009H190.61V237.145z
		 M164.557,441.34V301.433c0-8.857,7.206-16.063,16.063-16.063h154.954c8.857,0,16.063,7.206,16.063,16.063v100.773
		c-13.725,9.516-26.539,25.421-35.985,39.134H164.557z M431.461,490.228c-30.395,9.083-83.112,9.087-113.522,0
		c-5.922-1.768-8.77-8.561-5.886-14.038c17.236-32.728,45.05-67.51,62.647-67.51c17.597,0,45.411,34.782,62.647,67.51
		C440.227,481.66,437.392,488.458,431.461,490.228z M258.097,314.764c-16.329,0-29.613,13.284-29.613,29.613
		c0,16.329,13.284,29.613,29.613,29.613c16.329,0,29.613-13.284,29.613-29.613C287.709,328.048,274.425,314.764,258.097,314.764z
		 M258.097,358.99c-8.058,0-14.613-6.556-14.613-14.613c0-8.058,6.555-14.613,14.613-14.613c8.058,0,14.613,6.556,14.613,14.613
		C272.709,352.435,266.154,358.99,258.097,358.99z"/>
</g>
<g>
</g>
<g>
</g>
<g>
</g>
<g>
</g>
<g>
</g>
<g>
</g>
<g>
</g>
<g>
</g>
<g>
</g>
<g>
</g>
<g>
</g>
<g>
</g>
<g>
</g>
<g>
</g>
<g>
</g>
</svg>
