<?xml version="1.0" encoding="iso-8859-1"?>
<!-- Generator: Adobe Illustrator 23.1.0, SVG Export Plug-In . SVG Version: 6.00 Build 0)  -->
<svg version="1.1" id="Capa_1" xmlns="http://www.w3.org/2000/svg" xmlns:xlink="http://www.w3.org/1999/xlink" x="0px" y="0px"
	 viewBox="0 0 512.002 512.002" style="enable-background:new 0 0 512.002 512.002;" xml:space="preserve">
<g>
	<path style="fill:#FBF1CF;" d="M336.006,156.893c-3.053-35.982-65.447-70.979-129.276-79.776
		c-11.883-1.638-23.156,5.779-26.346,17.342c-16.044,58.17-146.335,45.077-125.098,148.443l280.719-3.352V156.893z"/>
	<path style="fill:#F7DFB7;" d="M388.14,267.525c23.937-52.28-14.539-103.322-52.134-110.632
		c-32.721,91.7-392.841-7.785-296.803,211.213l347.946,2.993L388.14,267.525z"/>
	<path style="fill:#CDE9FA;" d="M7.537,283.592c4.442,70.037,33.784,113.944,83.71,140.404c14.08,7.462,29.869,11.111,45.805,11.111
		h153.684c15.936,0,31.725-3.648,45.805-11.111c49.926-26.46,79.268-70.367,83.71-140.404c0.662-10.433-7.732-19.219-18.185-19.219
		H25.723C15.269,264.373,6.876,273.159,7.537,283.592z"/>
	<path style="fill:#A2DDFD;" d="M25.723,264.373c-10.454,0-18.847,8.786-18.185,19.219c4.442,70.037,33.784,113.944,83.71,140.404
		c14.08,7.462,29.869,11.111,45.805,11.111h55.653c-44.089-23.196-68.188-91.431-59.085-170.734H25.723z"/>
	<path style="fill:#A2DDFD;" d="M402.066,264.373H25.723c-10.454,0-18.847,8.786-18.185,19.219
		c0.575,9.063,1.575,17.679,2.974,25.885h406.765c1.399-8.207,2.4-16.823,2.974-25.885
		C420.913,273.159,412.52,264.373,402.066,264.373z"/>
	<path style="fill:#7ACDF9;" d="M133.62,264.373H25.723c-10.454,0-18.847,8.786-18.185,19.219
		c0.575,9.063,1.575,17.679,2.974,25.885h121.483C131.327,295.038,131.836,279.918,133.62,264.373z"/>
	<path style="fill:#F6EE86;" d="M424.376,230.459c33.83,13.222,46.629,32.465,74.171,41.419c4.874,1.585,7.266,7.032,5.219,11.731
		c-6.034,13.851-20.043,31.414-30.07,41.441c-10.027,10.027-27.59,24.037-41.441,30.071c-4.699,2.047-10.147-0.345-11.731-5.22
		c-8.954-27.543-28.197-40.341-41.419-74.171L424.376,230.459z"/>
	<path style="fill:#E0B799;" d="M434.084,247.814l-37.624,37.624c-5.737,5.737-15.127,5.438-20.487-0.653l-80.697-91.705
		c-8.896-10.109-8.409-25.39,1.113-34.912l10.423-10.423c9.522-9.522,24.803-10.009,34.912-1.113l91.705,80.697
		C439.521,232.687,439.821,242.077,434.084,247.814z"/>
	<path style="fill:#D99A84;" d="M328.664,140.554c-7.757-1.163-15.921,1.26-21.851,7.19l-10.423,10.423
		c-9.522,9.522-10.009,24.803-1.113,34.912l47.641,54.14C326.588,212.963,323.98,161.198,328.664,140.554z"/>
	<path style="fill:#D99A84;" d="M399.982,281.916l11.954-11.954c-4.955-16.232-13.135-26.731-24.427-31.25
		c-12.518-5.011-27.721-2.417-45.321,7.68l9.881,11.23c9.872-5.224,21.19-8.927,30.03-5.392
		C390.575,255.621,396.579,265.607,399.982,281.916z"/>
	<path style="fill:#D99A84;" d="M416.146,212.117l-13.768-12.116c-23.32,3.736-40.886,0.509-51.348-9.594
		c-3.955-3.82-15.393-17.584-11.679-45.609c-4.235-2.928-9.128-4.415-14.039-4.5c-3.836,25.007,1.755,47.207,15.603,60.582
		C360.174,219.483,390.024,218.167,416.146,212.117z"/>
	<path style="fill:#4E5660;" d="M296.389,158.167c-9.522,9.522-10.009,24.803-1.113,34.912l16.347,18.577l48.679-48.679
		l-18.577-16.347c-10.109-8.896-25.39-8.408-34.912,1.113L296.389,158.167z"/>
	<path style="fill:#3A4351;" d="M328.664,140.554c-7.758-1.163-15.921,1.26-21.851,7.19l-10.423,10.423
		c-9.522,9.522-10.009,24.803-1.113,34.912l16.347,18.577l16.987-16.987C325.72,172.61,326.091,151.891,328.664,140.554z"/>
	<g>
		<g>
			<ellipse style="fill:#FFFFFF;" cx="134.249" cy="386.864" rx="29.387" ry="23.403"/>
			<ellipse style="fill:#FFFFFF;" cx="293.539" cy="386.864" rx="29.387" ry="23.403"/>
			<path style="fill:#4E5660;" d="M237.588,368.883c0-14.643-10.608-16.019-23.693-16.019s-23.693,1.376-23.693,16.019
				c0,14.643,10.608,26.513,23.693,26.513S237.588,383.525,237.588,368.883z"/>
		</g>
	</g>
	<path d="M500.865,264.746c-21.06-6.846-33.414-20.647-56.065-33.009c-1.149-3.849-3.361-7.352-6.416-10.04L346.68,141
		c-3.257-2.866-6.938-4.976-10.819-6.339c-9.209-14.842-26.226-28.862-49.468-40.697c-23.337-11.883-51.265-20.504-78.638-24.276
		c-15.551-2.134-30.427,7.648-34.6,22.777c-6.233,22.597-35.09,33.915-62.55,47.422c-3.717,1.828-5.249,6.323-3.421,10.04
		c1.819,3.698,6.305,5.257,10.04,3.421c28.239-13.885,62.16-27.05,70.391-56.895c2.181-7.909,9.963-13.027,18.092-11.906
		c45.646,6.29,89.987,26.503,110.743,49.332c-5.491,1.436-10.672,4.294-14.942,8.563l-10.422,10.423
		c-8.75,8.749-11.584,21.329-8.348,32.558C220.85,202.56,119.083,199.025,60.943,230.63c-2.734-25.813,5.686-44.624,26.549-60.058
		c3.33-2.463,4.033-7.159,1.569-10.489c-2.464-3.332-7.16-4.031-10.49-1.569c-27.334,20.22-37.42,46.062-31.533,81.018
		c-6.66,5.033-12.467,10.769-17.248,17.341c-1.705,0.281-13.495-1.846-22.866,8.138c-4.88,5.2-7.321,11.968-6.871,19.057
		c4.107,64.76,29.433,115.684,87.683,146.556c14.792,7.84,31.845,11.983,49.317,11.983h153.684c17.473,0,34.526-4.143,49.316-11.983
		c3.449-1.827,6.837-3.756,10.071-5.731c3.535-2.16,4.65-6.776,2.49-10.311c-2.16-3.535-6.777-4.647-10.311-2.49
		c-2.975,1.817-6.095,3.593-9.275,5.278c-12.635,6.697-27.26,10.237-42.292,10.237H137.052c-15.032,0-29.657-3.54-42.292-10.237
		c-39.082-20.713-64.89-52.494-75.191-100.392h373.968c3.698,5.323,7.34,10.438,10.553,15.642
		c-7.277,23.414-18.701,42.619-34.884,58.605c-2.947,2.911-2.977,7.66-0.065,10.606c2.904,2.939,7.65,2.984,10.606,0.066
		c14.263-14.088,25.453-30.961,33.429-50.305c3.49,10.438,13.794,14.011,22.075,10.406c14.738-6.419,33.01-20.903,43.749-31.644
		c10.74-10.738,25.224-29.01,31.645-43.751C514.46,277.838,509.929,267.69,500.865,264.746z M301.693,163.47l10.422-10.423
		c6.708-6.706,17.538-7.052,24.655-0.786l12.575,11.065L311.972,200.7c-12.564-14.415-10.172-11.25-12.79-14.918
		C294.799,178.788,295.684,169.478,301.693,163.47z M290.367,198.853l51.055,58.019H49.705
		C96.818,212.274,220.067,219.71,290.367,198.853z M16.92,301.977c-0.848-6.061-1.485-12.338-1.898-18.859
		c-0.385-6.066,4.514-11.245,10.7-11.245c19.78,0,316.656,0,328.898,0l15.722,17.867c2.689,3.055,6.191,5.267,10.04,6.415
		c1.103,2.021,2.217,3.952,3.337,5.822H16.92z M391.156,280.134c-2.743,2.747-7.125,2.456-9.553-0.304l-59.701-67.846l38.727-38.728
		l67.846,59.702c2.766,2.432,3.047,6.81,0.305,9.553v-0.001L391.156,280.134z M496.892,280.614
		c-5.39,12.373-18.416,29.052-28.499,39.134c-10.082,10.083-26.761,23.109-39.133,28.498c-0.639,0.277-1.387,0.003-1.603-0.662
		c-7.066-21.739-19.594-34.242-30.938-53.103c4.649-2.492,5.657-4.695,17.95-16.643c6.742,8.206,12.103,16.379,16.561,25.277
		c1.845,3.684,6.345,5.212,10.065,3.346c3.703-1.855,5.201-6.361,3.346-10.064c-5.102-10.183-11.467-19.79-19.321-29.209
		l14.069-14.069c0-0.001,0-0.001,0-0.001c1.498-1.498,2.749-3.205,3.736-5.046c18.87,11.348,31.396,23.882,53.106,30.94
		C496.892,279.227,497.17,279.974,496.892,280.614z M131.662,346.923v12c0,4.143,3.358,7.5,7.5,7.5c4.142,0,7.5-3.357,7.5-7.5v-12
		c0-4.143-3.358-7.5-7.5-7.5C135.02,339.423,131.662,342.781,131.662,346.923z M213.894,345.364c-8.152,0-14.697,0.566-20.146,3.329
		c-5.04,2.556-11.048,8.133-11.048,20.19c0,18.755,13.994,34.013,31.194,34.013s31.193-15.258,31.193-34.013
		c0-12.057-6.008-17.634-11.047-20.19C228.592,345.93,222.046,345.364,213.894,345.364z M213.894,387.895
		c-8.929,0-16.194-8.529-16.194-19.013c0-5.907,0.655-8.519,16.194-8.519c15.538,0,16.193,2.611,16.193,8.519
		C230.088,379.366,222.824,387.895,213.894,387.895z M281.126,346.923v12c0,4.143,3.357,7.5,7.5,7.5c4.143,0,7.5-3.357,7.5-7.5v-12
		c0-4.143-3.357-7.5-7.5-7.5C284.483,339.423,281.126,342.781,281.126,346.923z"/>
</g>
<g>
</g>
<g>
</g>
<g>
</g>
<g>
</g>
<g>
</g>
<g>
</g>
<g>
</g>
<g>
</g>
<g>
</g>
<g>
</g>
<g>
</g>
<g>
</g>
<g>
</g>
<g>
</g>
<g>
</g>
</svg>
