<?xml version="1.0" encoding="iso-8859-1"?>
<!-- Generator: Adobe Illustrator 23.1.0, SVG Export Plug-In . SVG Version: 6.00 Build 0)  -->
<svg version="1.1" id="Capa_1" xmlns="http://www.w3.org/2000/svg" xmlns:xlink="http://www.w3.org/1999/xlink" x="0px" y="0px"
	 viewBox="0 0 512.008 512.008" style="enable-background:new 0 0 512.008 512.008;" xml:space="preserve">
<g>
	<path style="fill:#9FE6E6;" d="M390.743,490.873c16.702,0,29.315-15.233,26.11-31.625
		c-14.736-75.385-81.149-132.272-160.848-132.272c-79.699,0-146.112,56.887-160.848,132.272
		c-3.204,16.392,9.408,31.625,26.11,31.625H390.743z"/>
	<polygon style="fill:#FFFFFF;" points="328.853,351.548 328.853,404.454 294.152,448.721 256.005,490.873 217.858,448.721 
		183.157,404.454 183.157,351.548 	"/>
	<path style="fill:#7CCADC;" d="M200.892,336.483c-53.767,19.196-94.575,65.671-105.735,122.765
		c-3.204,16.392,9.408,31.625,26.11,31.625h111.782C199.063,464.297,183.153,376.341,200.892,336.483z"/>
	<path style="fill:#FBF1CF;" d="M256.005,490.873c-7.707-22.527-39.18-85.176-78.469-124.793l-24.719,58.128
		c-3.387,7.964,0.573,17.144,8.697,20.126C190.178,454.854,242.388,476.154,256.005,490.873z"/>
	<path style="fill:#FBF1CF;" d="M256.005,490.873c7.707-22.527,39.18-85.176,78.469-124.793l24.719,58.128
		c3.387,7.964-0.573,17.144-8.697,20.126C321.832,454.854,269.622,476.154,256.005,490.873z"/>
	<path style="fill:#FFD3BD;" d="M7.505,222.409c0,37.227,31.872,67.405,78.706,67.405c37.227,0,67.405-30.178,67.405-67.405
		s-30.178-67.405-67.405-67.405C39.377,155.004,7.505,185.182,7.505,222.409z"/>
	<path style="fill:#FFBE9D;" d="M504.505,222.409c0,37.227-31.872,67.405-78.706,67.405c-37.227,0-67.405-30.178-67.405-67.405
		s30.178-67.405,67.405-67.405C472.633,155.004,504.505,185.182,504.505,222.409z"/>
	<path style="fill:#FFD3BD;" d="M457.187,248.169c0,111.11-90.072,149.662-201.182,149.662S54.823,359.278,54.823,248.169
		c0-111.11,82.27-201.182,201.182-201.182S457.187,137.059,457.187,248.169z"/>
	<path style="fill:#FFBE9D;" d="M173.04,63.386C100.53,94.244,54.823,165.358,54.823,248.169
		c0,111.11,90.072,149.661,201.182,149.661c44.514,0,85.644-6.197,118.965-20.759C117.396,397.83,104.047,150.962,173.04,63.386z"/>
	<g>
		<g>
			<ellipse style="fill:#EDA1AB;" cx="140.56" cy="247.934" rx="42.597" ry="33.922"/>
			<ellipse style="fill:#EDA1AB;" cx="371.449" cy="247.934" rx="42.597" ry="33.922"/>
		</g>
	</g>
	<path style="fill:#4E5660;" d="M263.414,34.289C376.18-14.238,459.866,82.993,465.008,152.677
		c1.222,16.558-18.686,25.803-30.586,14.224c-49.595-48.26-120.519-85.093-169.585-59.849c-5.558,2.86-12.108,2.86-17.666,0
		c-49.065-25.244-119.989,11.589-169.585,59.849c-11.899,11.579-31.807,2.334-30.586-14.224
		C52.144,82.993,135.83-14.238,248.596,34.289C253.32,36.322,258.69,36.322,263.414,34.289z"/>
	<path style="fill:#4E5660;" d="M256.005,296.768c70.713,71.051,140.496,16.485,142.836-33.597
		c0.285-6.096-6.365-10.207-11.609-7.086c-37.824,22.51-87.004-42.25-131.227-14.148c-44.223-28.102-93.403,36.658-131.227,14.148
		c-5.244-3.121-11.894,0.99-11.609,7.086C115.509,313.253,185.292,367.819,256.005,296.768z"/>
	<path d="M371.721,65.222c-3.786-1.684-8.218,0.023-9.899,3.808c-1.683,3.785,0.022,8.218,3.808,9.899
		c7.882,3.503,27.798,17.147,36.526,26.707c2.797,3.063,7.541,3.272,10.596,0.482c3.06-2.793,3.275-7.537,0.482-10.596
		C402.842,84.142,380.886,69.295,371.721,65.222z M472.169,158.468c0.356-2.056,0.479-4.18,0.319-6.343
		c-1.018-13.811-4.976-28.813-11.445-43.384c-1.68-3.785-6.114-5.492-9.898-3.812c-3.786,1.681-5.492,6.112-3.811,9.898
		c5.776,13.013,9.302,26.291,10.195,38.402c0.699,9.462-10.758,15.223-17.875,8.296c-27.02-26.292-58.067-47.271-87.425-59.072
		c-34.832-14.002-66.238-14.716-90.823-2.07c-3.38,1.74-7.418,1.74-10.802,0c-24.584-12.649-55.991-11.932-90.822,2.07
		c-29.357,11.801-60.405,32.78-87.425,59.072c-7.087,6.899-18.581,1.259-17.875-8.297c2.914-39.488,31.377-83.104,69.216-106.063
		c25.715-15.603,67.747-29.306,121.935-5.986c6.592,2.836,14.153,2.837,20.747,0c33.314-14.337,65.724-16.353,96.337-5.988
		c25.71,8.704,49.627,26.554,67.343,50.26c2.478,3.319,7.18,3.999,10.497,1.519c3.318-2.479,3.998-7.18,1.518-10.497
		c-13.806-18.475-37.946-43.098-74.548-55.489C333.779,9.557,296.755,11.777,260.45,27.4c-2.824,1.215-6.065,1.215-8.89,0
		c-60.06-25.846-106.914-10.49-135.645,6.941c-44.43,26.96-73.318,76.1-76.394,117.783c-0.16,2.163-0.038,4.287,0.319,6.343
		c-57.403,30.612-52.418,110.881,12.632,133.374c10.29,40.401,35.657,69.394,72.933,88.072
		c-19.031,22.361-31.979,49.082-37.611,77.896c-3.219,16.463,5.882,32.638,21.637,38.459c3.91,1.443,8.207-0.573,9.635-4.436
		c1.436-3.886-0.551-8.199-4.436-9.635c-8.819-3.259-13.914-12.306-12.115-21.512c5.416-27.705,18.24-53.304,37.182-74.353
		c5.859,2.349,11.979,4.481,18.354,6.396l-12.137,28.542c-4.964,11.673,0.618,25.552,13.014,30.102
		c26.101,9.58,54.616,21.655,73.323,31.998h-84.817c-4.143,0-7.5,3.357-7.5,7.5c0,4.143,3.357,7.5,7.5,7.5h243.308
		c21.441,0,37.578-19.558,33.471-40.563c-5.632-28.815-18.58-55.535-37.611-77.896c37.275-18.677,62.643-47.669,72.933-88.072
		C524.679,269.316,529.487,189.037,472.169,158.468z M49.054,274.208c-44.465-21.832-45.601-79.302-2.381-102.395
		c3.215,3.28,7.224,5.629,11.697,6.845C47.564,211.23,45.169,245.992,49.054,274.208z M164.098,437.292
		c-4.118-1.51-6.08-6.15-4.378-10.149l12.968-30.495c7.957,1.875,16.269,3.445,24.923,4.714
		c17.156,23.175,31.755,48.844,41.299,68.557C213.62,455.946,177.553,442.232,164.098,437.292z M217.706,403.71
		c24.434,2.162,52.142,2.164,76.598,0c-16.374,23.871-29.925,49.011-38.299,67.392C247.631,452.723,234.081,427.582,217.706,403.71z
		 M314.4,401.362c8.654-1.269,16.967-2.839,24.923-4.714l12.969,30.496c1.706,4.014-0.273,8.642-4.38,10.148
		c-13.455,4.939-49.522,18.654-74.813,32.627C282.644,450.206,297.245,424.536,314.4,401.362z M409.493,460.687
		c2.291,11.73-6.736,22.685-18.75,22.685H279.758c18.707-10.342,47.222-22.417,73.322-31.998
		c12.39-4.548,17.98-18.425,13.015-30.102l-12.138-28.542c6.375-1.916,12.496-4.047,18.355-6.396
		C391.253,407.383,404.077,432.98,409.493,460.687z M256.005,390.33c-106.391,0-193.682-35.372-193.682-142.162
		c0-24.552,4.137-48.247,12.282-70.494c2.986-1.223,5.778-3.03,8.212-5.398c47.297-46.022,115.399-81.98,160.922-58.555
		c7.68,3.952,16.849,3.951,24.53,0c45.525-23.423,113.627,12.532,160.923,58.555c2.434,2.368,5.225,4.173,8.211,5.395
		c8.146,22.249,12.283,45.944,12.283,70.497C449.687,355.125,362.135,390.33,256.005,390.33z M462.956,274.208
		c3.869-28.106,1.533-62.855-9.32-95.559c4.66-1.266,8.588-3.66,11.701-6.837C508.522,194.89,507.467,252.353,462.956,274.208z
		 M128.903,70.567c-3.35,2.437-4.091,7.127-1.654,10.477c2.436,3.35,7.125,4.092,10.477,1.654
		c7.109-5.17,26.212-16.997,52.088-16.997c0.552,0,1.107,0.005,1.665,0.017c0.051,0.001,0.101,0.001,0.15,0.001
		c4.073,0,7.415-3.262,7.496-7.352c0.081-4.142-3.211-7.564-7.352-7.646C160.474,50.118,137.39,64.395,128.903,70.567z
		 M165.386,222.779c4.143,0,7.5-3.357,7.5-7.5v-17.413c0-4.143-3.357-7.5-7.5-7.5c-4.143,0-7.5,3.357-7.5,7.5v17.413
		C157.886,219.422,161.243,222.779,165.386,222.779z M346.624,222.779c4.143,0,7.5-3.357,7.5-7.5v-17.413c0-4.143-3.357-7.5-7.5-7.5
		c-4.143,0-7.5,3.357-7.5,7.5v17.413C339.124,219.422,342.482,222.779,346.624,222.779z M383.397,249.64
		c-31.849,18.957-80.524-41.053-127.392-16.368c-46.852-24.682-95.539,35.32-127.392,16.368c-10.366-6.169-23.5,1.827-22.937,13.881
		c1.384,29.612,22.861,58.206,52.23,69.535c27.977,10.791,63.061,6.49,98.098-25.873c42.176,38.955,79.302,33.123,98.097,25.874
		c29.369-11.329,50.848-39.923,52.232-69.536C406.895,251.471,393.768,243.47,383.397,249.64z M348.703,319.062
		c-16.173,6.238-49.031,10.951-87.382-27.585c-2.932-2.944-7.701-2.944-10.633,0c-38.35,38.536-71.208,33.823-87.383,27.585
		c-23.613-9.109-41.548-32.762-42.644-56.241c-0.007-0.133,0.072-0.236,0.281-0.29c42.329,25.188,91.225-39.566,131.04-14.264
		c2.455,1.561,5.59,1.561,8.045,0c39.805-25.301,88.715,39.47,131.039,14.248c0.003,0,0.295,0.072,0.283,0.306
		C390.253,286.3,372.317,309.952,348.703,319.062z"/>
</g>
<g>
</g>
<g>
</g>
<g>
</g>
<g>
</g>
<g>
</g>
<g>
</g>
<g>
</g>
<g>
</g>
<g>
</g>
<g>
</g>
<g>
</g>
<g>
</g>
<g>
</g>
<g>
</g>
<g>
</g>
</svg>
