<?xml version="1.0" encoding="iso-8859-1"?>
<!-- Generator: Adobe Illustrator 23.1.0, SVG Export Plug-In . SVG Version: 6.00 Build 0)  -->
<svg version="1.1" id="Capa_1" xmlns="http://www.w3.org/2000/svg" xmlns:xlink="http://www.w3.org/1999/xlink" x="0px" y="0px"
	 viewBox="0 0 511.983 511.983" style="enable-background:new 0 0 511.983 511.983;" xml:space="preserve">
<g>
	<path style="fill:#FBF1CF;" d="M304.878,37.756c-17.986-0.388-33.373,10.969-39.024,26.93c-1.743,4.923-6.573,8.175-11.785,7.842
		c-26.907-1.72-50.964,19.255-51.792,47.234c-0.785,26.521,20.191,49.149,46.7,50.249c25.521,1.059,46.915-17.489,50.383-41.781
		c0.745-5.216,4.907-9.257,10.127-9.967c20.031-2.725,35.616-20.235,34.916-41.449C343.702,55.533,326.167,38.215,304.878,37.756z"
		/>
	<path style="fill:#F7DFB7;" d="M240.247,73.656c-20.827,4.763-37.287,23.049-37.97,46.106c-0.785,26.521,20.191,49.149,46.7,50.249
		c21.391,0.888,39.876-12.003,47.343-30.502C239.427,150.839,227.707,93.969,240.247,73.656z"/>
	
		<ellipse transform="matrix(0.2298 -0.9732 0.9732 0.2298 43.7911 177.1744)" style="fill:#FBF1CF;" cx="133.83" cy="60.921" rx="30.627" ry="30.627"/>
	<path style="fill:#FBF1CF;" d="M161.192,278.354c-1.19-12.134-5.205-23.432-11.363-33.252
		c12.592-13.386,20.033-31.672,19.11-51.705c-1.668-36.183-31.01-65.539-67.192-67.215c-40.534-1.878-73.987,30.43-73.987,70.55
		c0,7.95,1.314,15.592,3.737,22.722c1.611,4.741,0.516,9.961-2.925,13.598C15.514,246.852,7.5,265.468,7.5,285.965
		c0,36.691,25.657,67.37,60.005,75.121c4.255,0.96,7.72,4.05,9.289,8.119c10.1,26.188,35.706,44.668,65.571,44.165
		c36.676-0.619,66.789-30.412,67.777-67.08C211.002,314.322,190.107,287.108,161.192,278.354z"/>
	<path style="fill:#F7DFB7;" d="M161.192,278.354c-0.093-0.948-0.209-1.888-0.336-2.825
		C60.394,268.636,37.997,179.973,53.357,142.346c-15.629,12.955-25.598,32.5-25.598,54.387c0,7.949,1.314,15.591,3.737,22.722
		c1.611,4.741,0.516,9.961-2.925,13.598C15.514,246.852,7.5,265.468,7.5,285.965c0,36.69,25.657,67.37,60.005,75.121
		c4.255,0.96,7.72,4.05,9.29,8.12c10.1,26.188,35.706,44.669,65.57,44.165c36.676-0.618,66.789-30.412,67.777-67.08
		C211.002,314.323,190.107,287.108,161.192,278.354z"/>
	<path style="fill:#F6EE86;" d="M320.608,414.561c-10.628,19.662-19.345,41.236-24.218,56.88c-2.88,9.245-13.83,13.169-21.897,7.813
		c-36.371-24.146-80.229-62.654-102.707-85.133c-22.478-22.478-60.987-66.337-85.133-102.707
		c-5.356-8.067-1.432-19.017,7.813-21.897c15.643-4.873,37.217-13.59,56.88-24.218L320.608,414.561z"/>
	<path style="fill:#A2DDFD;" d="M307.935,422.69L143.217,257.972c-5.382-5.382-5.382-14.107,0-19.489l20.868-20.868
		c5.382-5.382,14.107-5.382,19.489,0l164.718,164.718c5.382,5.382,5.382,14.107,0,19.489l-20.868,20.868
		C322.042,428.072,313.316,428.072,307.935,422.69z"/>
	<path style="fill:#7ACDF9;" d="M240.189,274.232l-56.616-56.616c-5.382-5.382-14.107-5.382-19.489,0l-20.868,20.868
		c-5.382,5.382-5.382,14.107,0,19.489l99.012,99.012C229.65,334.742,223.907,299.896,240.189,274.232z"/>
	<path style="fill:#CDE9FA;" d="M324.948,293.929l-52.97-52.97c-6.807-6.807-17.22-8.463-25.803-4.105l-28.759,14.604l97.033,97.033
		l14.604-28.759C333.411,311.149,331.755,300.736,324.948,293.929z"/>
	<path style="fill:#E0B799;" d="M496.22,75.645l-5.958-5.958c-11.04-11.04-28.94-11.04-39.98,0L275.494,244.475l45.937,45.937
		L496.22,115.624C507.26,104.584,507.26,86.685,496.22,75.645z"/>
	<path style="fill:#D99A84;" d="M320.146,199.824l-44.652,44.652l45.938,45.937l10.945-10.945
		C318.648,258.059,314.243,226.381,320.146,199.824z"/>
	<path style="fill:#D99A84;" d="M360.584,210.143c25.202-15.213,20.247-39.909,13.681-64.438l-11.982,11.982
		c4.733,19.812,4.635,31.625-9.224,39.991c-9.211,5.559-22.874,9.348-38.702,7.935l-12.735,12.735
		C323.983,223.182,345.564,219.209,360.584,210.143z"/>
	<path style="fill:#D99A84;" d="M428.948,129.629c-15.28,23.138-15.54,41.118-11.987,65.254l13.074-13.074
		c-1.373-15.999,0.703-28.469,11.062-44.156c14.127-21.392,36.085-26.48,54.29-21.196l0.832-0.832
		c3.448-3.448,5.819-7.566,7.113-11.934C475.065,93.285,445.158,105.082,428.948,129.629z"/>
	<path d="M248.667,177.505c28.872,1.224,54.004-19.392,58.119-48.215c0.265-1.856,1.792-3.333,3.714-3.595
		c24.416-3.322,42.215-24.443,41.401-49.128c-0.839-25.42-21.422-45.762-46.861-46.309c-20.767-0.459-39.337,12.383-46.255,31.924
		c-0.628,1.775-2.398,2.982-4.236,2.862c-15.069-0.968-30.169,4.367-41.434,14.627c-11.368,10.353-17.878,24.512-18.333,39.869
		C193.872,150.231,218.045,176.234,248.667,177.505z M209.774,119.983c0.334-11.255,5.106-21.633,13.439-29.222
		c8.115-7.39,19.118-11.463,30.377-10.749c8.525,0.56,16.467-4.729,19.333-12.824c4.673-13.2,17.1-21.942,31.07-21.942
		c0.24,0,0.481,0.003,0.723,0.008c17.184,0.371,31.625,14.64,32.192,31.808c0.56,16.971-11.663,31.489-28.431,33.771
		c-8.532,1.16-15.333,7.879-16.542,16.338c-3.003,21.037-21.324,36.248-42.647,35.349
		C226.833,161.586,209.107,142.505,209.774,119.983z M133.83,99.048c21.023,0,38.127-17.104,38.127-38.127
		c0-21.023-17.104-38.127-38.127-38.127c-21.023,0-38.127,17.103-38.127,38.127C95.703,81.944,112.807,99.048,133.83,99.048z
		 M133.83,37.794c12.752,0,23.127,10.375,23.127,23.127c0,12.752-10.375,23.127-23.127,23.127
		c-12.752,0-23.127-10.375-23.127-23.127C110.703,48.169,121.078,37.794,133.83,37.794z M501.523,70.341l-5.958-5.958
		c-13.946-13.945-36.64-13.945-50.586,0L275.416,233.947c-9.081-7.672-21.886-9.24-32.637-3.78l-23.909,12.141l-29.994-29.994
		c-3.52-3.52-8.056-5.655-12.946-6.131c6.861-56.322-47.419-101.74-102.116-83.633c-3.933,1.302-6.065,5.545-4.763,9.478
		c1.302,3.932,5.543,6.064,9.477,4.763c46.997-15.557,92.634,26.997,81.255,74.615c-1.641,1.449,1.303-1.338-21.87,21.776
		c-3.67,3.67-5.813,8.448-6.162,13.576c-13.336,6.254-27.499,11.856-39.516,15.601c-14.032,4.37-19.958,20.964-11.831,33.205
		c22.901,34.495,60.974,78.871,86.726,104.506c-32.482,15.303-70.727-0.863-83.339-33.561c-2.496-6.471-7.967-11.231-14.636-12.736
		C38.606,346.875,15,319.536,15,285.965c0-17.835,6.754-34.796,19.019-47.757c5.342-5.646,7.096-13.755,4.579-21.165
		c-7.15-21.044-2.811-45.134,12.867-62.542c2.772-3.078,2.524-7.82-0.554-10.593c-3.078-2.773-7.821-2.523-10.592,0.554
		c-19.438,21.583-24.761,51.391-15.925,77.405c0.723,2.128,0.236,4.439-1.272,6.031C8.212,243.656,0,264.279,0,285.965
		c0,39.978,27.932,73.879,65.854,82.438c1.777,0.4,3.252,1.71,3.942,3.502c16.654,43.18,68.103,62.082,108.725,39.149
		c23.061,21.67,59.433,52.946,91.823,74.449c12.259,8.141,28.84,2.185,33.206-11.831c3.743-12.017,9.347-26.184,15.603-39.525
		c4.947-0.341,9.798-2.379,13.572-6.152l20.867-20.867c8.316-8.316,8.319-21.779,0-30.096l-29.995-29.995l12.141-23.908
		c5.459-10.75,3.89-23.554-3.78-32.636l40.327-40.327c2.929-2.93,2.929-7.678,0-10.607c-2.929-2.928-7.678-2.928-10.606,0
		l-40.249,40.249l-35.331-35.33L455.586,74.99c8.099-8.1,21.275-8.1,29.373,0l5.958,5.957c8.098,8.099,8.098,21.275,0,29.373
		L386.959,214.279c-2.929,2.93-2.929,7.678,0,10.607c2.929,2.928,7.678,2.928,10.606,0l103.958-103.959
		C515.47,106.981,515.47,84.288,501.523,70.341z M289.23,469.21c-1.399,4.491-6.701,6.376-10.588,3.796
		c-37.906-25.166-81.499-64.135-101.552-84.189c-20.053-20.052-59.022-63.645-84.188-101.552c-2.582-3.889-0.696-9.188,3.795-10.588
		c12.045-3.752,26.096-9.259,39.455-15.425c1.767,2.271,0.528,0.684,29.974,30.237c-6.191,4.97-13.586,9.674-17.766,11.874
		c-3.665,1.93-5.072,6.466-3.142,10.131c1.923,3.654,6.454,5.078,10.13,3.143c4.849-2.553,13.852-8.201,21.436-14.488l38.183,38.183
		l-19.02,19.02c-2.929,2.93-2.929,7.678,0,10.607c2.93,2.929,7.678,2.928,10.607,0l19.021-19.02l38.183,38.183
		c-6.287,7.584-11.934,16.586-14.487,21.436c-1.93,3.665-0.523,8.201,3.142,10.131c3.68,1.938,8.209,0.508,10.13-3.142
		c2.201-4.18,6.904-11.574,11.874-17.765c29.473,29.366,27.995,28.234,30.237,29.973C298.487,443.116,292.981,457.168,289.23,469.21
		z M342.988,387.638c2.455,2.454,2.454,6.428,0,8.881l-20.867,20.867c-2.442,2.443-6.428,2.455-8.882,0
		C138.296,241.974,147.674,252.965,146.874,249.757c-0.532-2.45,0.181-4.505,1.646-5.969l20.868-20.868
		c2.454-2.453,6.426-2.454,8.881,0.001C186.691,231.341,336.338,380.988,342.988,387.638z M319.644,299.232
		c4.525,4.525,5.619,11.399,2.722,17.104l-9.924,19.543l-82.414-82.413l19.543-9.924c5.704-2.897,12.579-1.804,17.103,2.722
		C270.253,249.841,311.653,291.24,319.644,299.232z"/>
</g>
<g>
</g>
<g>
</g>
<g>
</g>
<g>
</g>
<g>
</g>
<g>
</g>
<g>
</g>
<g>
</g>
<g>
</g>
<g>
</g>
<g>
</g>
<g>
</g>
<g>
</g>
<g>
</g>
<g>
</g>
</svg>
