<?xml version="1.0" encoding="iso-8859-1"?>
<!-- Generator: Adobe Illustrator 23.1.0, SVG Export Plug-In . SVG Version: 6.00 Build 0)  -->
<svg version="1.1" id="Capa_1" xmlns="http://www.w3.org/2000/svg" xmlns:xlink="http://www.w3.org/1999/xlink" x="0px" y="0px"
	 viewBox="0 0 511.959 511.959" style="enable-background:new 0 0 511.959 511.959;" xml:space="preserve">
<g>
	<path style="fill:#4E5660;" d="M499.938,266.876L499.938,266.876c-1.624-18.568-17.994-32.303-36.561-30.679l-98.055,8.579
		l87.176-40.651c16.893-7.877,24.201-27.957,16.324-44.849v0c-7.877-16.892-27.957-24.201-44.849-16.324l-94.806,44.209
		l78.185-78.185c13.18-13.18,13.18-34.548,0-47.728h0c-13.18-13.18-34.548-13.18-47.727,0l-86.271,86.27l42.92-92.042
		c7.877-16.893,0.569-36.972-16.324-44.849l0,0c-16.893-7.877-36.972-0.569-44.849,16.324l-48.042,103.026l-21.431-58.882
		c-7.897-21.698-31.889-32.886-53.587-24.988h0c-21.698,7.897-32.886,31.889-24.988,53.587l27.367,75.19
		c4.577,12.575,1.454,26.663-8.009,36.125l-63.014,63.014l175.679,175.679L369.297,319.48c5.165-5.165,11.986-8.346,19.263-8.982
		l80.7-7.06C487.827,301.813,501.562,285.444,499.938,266.876z"/>
	<path style="fill:#3A4351;" d="M63.396,274.023l175.679,175.679l38.701-38.7c-115.653-59.522-99.413-167.452-95.961-209.783
		c0.398-4.877-0.659-9.74-2.968-14.054c-13.827-25.827-37.299-95.828-27.175-143.235c-6.421-0.831-13.128-0.19-19.631,2.177h0
		c-21.698,7.897-32.886,31.889-24.988,53.587l27.367,75.19c4.577,12.575,1.454,26.663-8.009,36.125L63.396,274.023z"/>
	<path style="fill:#4E5660;" d="M212.501,496.469c-29.433-25.466-61.935-54.299-100.14-92.503
		c-38.218-38.219-67.045-70.716-92.503-100.141c-11.841-13.685-10.345-34.377,3.34-46.217c13.685-11.84,34.376-10.346,46.217,3.34
		c24.655,28.496,52.536,59.932,89.284,96.681c36.735,36.735,68.176,64.621,96.68,89.285c13.685,11.84,15.18,32.533,3.339,46.217
		C246.88,506.813,226.184,508.31,212.501,496.469z"/>
	<g>
		<g>
			<path style="fill:#EDA1AB;" d="M183.058,256.144c-9.497,9.507-26.873,7.545-38.811-4.38c-11.938-11.926-13.917-29.3-4.42-38.807
				c9.497-9.507,26.874-7.546,38.812,4.38C190.576,229.263,192.555,246.637,183.058,256.144z"/>
			<path style="fill:#EDA1AB;" d="M256.989,330.001c-9.497,9.507-7.518,26.881,4.419,38.807
				c11.938,11.926,29.314,13.887,38.811,4.38c9.497-9.507,7.519-26.881-4.419-38.807
				C283.863,322.456,266.486,320.495,256.989,330.001z"/>
			<path style="fill:#FFFFFF;" d="M248.986,306.458c13.081-13.095,4.824-23.802-6.878-35.492
				c-11.702-11.69-22.417-19.936-35.499-6.842c-13.081,13.094-14.199,33.186-2.497,44.876
				C215.814,320.69,235.904,319.552,248.986,306.458z"/>
		</g>
	</g>
	<path d="M254.291,311.759C254.292,311.759,254.292,311.759,254.291,311.759c19.611-19.632,1.717-37.508-6.883-46.099
		c-7.088-7.082-13.237-12.265-20.205-14.539c-9.109-2.976-17.823-0.384-25.9,7.702c-15.982,15.999-17.1,40.889-2.492,55.482
		C213.252,328.733,238.047,328.019,254.291,311.759z M211.915,269.425c3.478-3.482,6.027-4.484,8.129-4.484
		c5.403,0,12.692,7.264,16.763,11.331c12.111,12.1,14.64,17.11,6.873,24.886h0c-9.829,9.837-25.258,11.535-34.267,2.537
		C200.656,294.945,201.778,279.572,211.915,269.425z M264.791,413.379l-16.997,16.997
		c-64.05-56.011-111.351-103.898-164.853-165.292l48.772-48.772c11.476-11.476,15.304-28.744,9.753-43.994L114.1,97.128
		c-6.486-17.817,2.685-37.489,20.506-43.974c17.817-6.485,37.488,2.684,43.974,20.506l21.431,58.882
		c2.281,6.267,11.03,6.645,13.845,0.604l37.92-81.319c1.75-3.754,0.126-8.217-3.628-9.967c-3.754-1.751-8.216-0.127-9.967,3.627
		l-30.268,64.909l-15.238-41.867c-9.322-25.609-37.59-38.793-63.2-29.471c-25.608,9.321-38.793,37.587-29.471,63.2l27.367,75.19
		c3.565,9.795,1.107,20.886-6.264,28.256l-48.111,48.111c-14.744-14.679-38.592-15.822-54.705-1.88
		c-16.791,14.527-18.631,40.007-4.105,56.797C79.991,384.79,131.375,436.195,207.593,502.14
		c16.633,14.394,42.079,12.909,56.796-4.102c14.562-16.827,12.729-42.233-4.102-56.796c-0.381-0.329-0.768-0.666-1.149-0.996
		l16.259-16.26c2.929-2.93,2.929-7.678,0-10.607C272.469,410.451,267.72,410.451,264.791,413.379z M253.046,488.224
		c-9.15,10.576-25.1,11.692-35.637,2.574c0,0,0-0.001-0.001-0.001c-74.021-64.045-125.097-114.69-191.878-191.879
		c-9.116-10.535-7.96-26.523,2.575-35.639c10.551-9.128,26.499-7.987,35.638,2.576c62.621,72.376,111.555,121.686,186.729,186.73
		C261.031,461.72,262.186,477.663,253.046,488.224z M507.41,266.223c-1.985-22.7-21.963-39.486-44.686-37.497l-55.682,4.871
		l48.626-22.675c20.662-9.634,29.587-34.151,19.952-54.816c-9.612-20.611-34.204-29.563-54.816-19.95l-56.257,26.232l48.108-48.108
		c16.12-16.12,16.122-42.213,0-58.335c-16.122-16.12-42.212-16.12-58.334,0l-56.194,56.194l24.944-53.492
		c9.635-20.662,0.713-45.181-19.952-54.817c-15.457-7.208-34.043-4.051-46.248,7.856c-2.964,2.893-3.023,7.641-0.13,10.606
		c2.892,2.965,7.641,3.022,10.606,0.131c7.765-7.577,19.595-9.586,29.433-4.999c13.148,6.133,18.828,21.733,12.696,34.883
		l-42.92,92.042c-1.538,3.299-0.486,7.226,2.496,9.314c2.981,2.087,7.031,1.733,9.605-0.84l86.27-86.271
		c10.234-10.234,26.887-10.234,37.121,0c10.258,10.257,10.259,26.862,0,37.12l-78.185,78.185c-2.574,2.574-2.928,6.624-0.84,9.605
		c2.088,2.981,6.015,4.034,9.313,2.495l94.806-44.208c13.118-6.113,28.766-0.42,34.882,12.696
		c6.131,13.149,0.453,28.75-12.696,34.883l-87.176,40.65c-3.299,1.538-5.017,5.223-4.075,8.738c0.942,3.516,4.27,5.85,7.898,5.53
		l98.055-8.578c14.441-1.271,27.171,9.407,28.436,23.86c1.265,14.45-9.407,27.173-23.861,28.436l-80.699,7.06
		c-9.02,0.789-17.512,4.75-23.912,11.15L290.271,387.9c-2.929,2.93-2.929,7.678,0,10.607c2.93,2.929,7.678,2.928,10.606,0
		l73.724-73.724c3.911-3.911,9.101-6.331,14.613-6.813l80.699-7.061C492.621,308.923,509.396,288.936,507.41,266.223z
		 M202.752,245.442c2.921,2.934,7.671,2.946,10.607,0.023c4.081-4.063,6.336-9.474,6.349-15.233c0.013-5.76-2.219-11.18-6.282-15.26
		c-8.398-8.436-22.048-8.478-30.494-0.067c-2.936,2.922-2.946,7.671-0.023,10.606c2.923,2.935,7.672,2.944,10.606,0.023
		c4.137-4.116,11.206-1.146,11.193,4.665c-0.004,1.753-0.69,3.399-1.932,4.636C199.84,237.757,199.83,242.506,202.752,245.442z
		 M299.98,316.666c2.935-2.923,2.944-7.672,0.021-10.607c-2.923-2.934-7.672-2.944-10.607-0.02l-8.501,8.469
		c-2.935,2.923-2.944,7.672-0.021,10.606c1.465,1.471,3.389,2.207,5.313,2.207c1.915,0,3.83-0.729,5.293-2.187L299.98,316.666z"/>
</g>
<g>
</g>
<g>
</g>
<g>
</g>
<g>
</g>
<g>
</g>
<g>
</g>
<g>
</g>
<g>
</g>
<g>
</g>
<g>
</g>
<g>
</g>
<g>
</g>
<g>
</g>
<g>
</g>
<g>
</g>
</svg>
