<?xml version="1.0" encoding="iso-8859-1"?>
<!-- Generator: Adobe Illustrator 23.1.0, SVG Export Plug-In . SVG Version: 6.00 Build 0)  -->
<svg version="1.1" id="Capa_1" xmlns="http://www.w3.org/2000/svg" xmlns:xlink="http://www.w3.org/1999/xlink" x="0px" y="0px"
	 viewBox="0 0 511.992 511.992" style="enable-background:new 0 0 511.992 511.992;" xml:space="preserve">
<g>
	
		<ellipse transform="matrix(0.7071 -0.7071 0.7071 0.7071 -38.7445 211.7176)" style="fill:#A2DDFD;" cx="236.193" cy="152.628" rx="145.135" ry="145.135"/>
	
		<ellipse transform="matrix(0.7071 -0.7071 0.7071 0.7071 -38.7445 211.7176)" style="fill:#7ACDF9;" cx="236.193" cy="152.628" rx="113.174" ry="113.174"/>
	<path style="fill:#CDE9FA;" d="M357.614,504.492h-242.84c-13.098,0-23.715-10.618-23.715-23.715V281.852h290.271v198.925
		C381.329,493.874,370.711,504.492,357.614,504.492z"/>
	<path style="fill:#A2DDFD;" d="M381.329,339.3v-57.448H91.058v198.925c0,13.098,10.618,23.715,23.715,23.715h85.038
		c-18.932-34.974-28.656-102.467-28.857-159.768c-0.017-4.846,4.549-8.401,9.234-7.162c1.521,0.402,3.042,0.807,4.557,1.211
		c17.486,4.657,35.568,9.474,51.448,9.474c15.881,0,33.962-4.816,51.448-9.474c14.933-3.978,30.374-8.09,40.911-8.09
		c5.693,0,12.511,1.759,19.728,3.62c9.163,2.363,19.549,5.043,30.929,5.043C379.921,339.345,380.624,339.321,381.329,339.3z"/>
	<path style="fill:#3A4351;" d="M290.003,504.492h-107.62v-48.56c0-11.972,9.706-21.678,21.678-21.678h64.264
		c11.972,0,21.678,9.705,21.678,21.678V504.492z"/>
	<path style="fill:#4E5660;" d="M290.003,504.492h-107.62v-16.823c0-10.105,8.191-18.296,18.296-18.296h71.028
		c10.105,0,18.296,8.191,18.296,18.296V504.492z"/>
	<path style="fill:#3A4351;" d="M251.653,197.175c10.513,10.513,25.625,21.619,48.634,30.363
		c12.547,4.768,12.158,22.693-0.646,26.722c-32.773,10.31-63.963,6.004-87.52-17.553c-23.556-23.556-27.863-54.747-17.553-87.52
		c4.028-12.804,21.953-13.194,26.722-0.646C230.035,171.55,241.141,186.662,251.653,197.175z"/>
	<path style="fill:#3A4351;" d="M386.436,95.746c-10.513,10.513-21.619,25.625-30.363,48.634
		c-4.769,12.548-22.694,12.158-26.722-0.646c-10.31-32.773-6.004-63.963,17.553-87.52c23.556-23.556,54.747-27.863,87.52-17.553
		c12.804,4.028,13.194,21.953,0.646,26.722C412.061,74.127,396.949,85.233,386.436,95.746z"/>
	<path style="fill:#4E5660;" d="M388.843,159.414c-14.31,0-32.152,2.726-53.763,12.434c-11.785,5.294-23.719-7.17-17.746-18.626
		c15.287-29.321,39.445-47.617,71.509-47.617c32.063,0,56.222,18.296,71.509,47.617c5.973,11.456-5.962,23.92-17.746,18.626
		C420.995,162.14,403.152,159.414,388.843,159.414z"/>
	<path style="fill:#4E5660;" d="M371.723,223.412c45.32,0,64.89,62.122,39.14,83.752c-29.973,25.177-55.964,3.518-82.31,3.518
		c-26.346,0-65.87,17.564-92.36,17.564s-66.014-17.564-92.359-17.564s-52.337,21.659-82.31-3.518
		c-25.75-21.63-6.18-83.752,39.14-83.752H371.723z"/>
	<g>
		<g>
			<ellipse style="fill:#FFFFFF;" cx="156.637" cy="396.495" rx="29.355" ry="23.377"/>
			<ellipse style="fill:#FFFFFF;" cx="315.75" cy="396.495" rx="29.355" ry="23.377"/>
			<path style="fill:#4E5660;" d="M236.193,371.657c-11.646,0-22.017-7.826-28.54,1.825c-6.617,9.79,8.202,24.97,28.54,24.97
				s35.156-15.18,28.539-24.97C258.21,363.832,247.839,371.657,236.193,371.657z"/>
		</g>
	</g>
	<path style="fill:#3A4351;" d="M100.664,223.412c-45.32,0-64.89,62.122-39.14,83.752c29.973,25.177,55.964,3.518,82.31,3.518
		c9.595,0,20.94,2.333,32.765,5.295c-20.242-15.758-27.142-56.612-13.321-92.565H100.664z"/>
	<path d="M236.194,364.157c-9.783,0-25.037-9.25-34.753,5.126c-3.672,5.433-3.846,12.188-0.477,18.531
		c5.672,10.679,20.159,18.138,35.23,18.138c15.071,0,29.559-7.459,35.229-18.138c3.369-6.344,3.195-13.099-0.477-18.532
		C261.24,354.923,245.965,364.157,236.194,364.157z M236.194,390.952c-15.671,0-24.298-10.359-22.326-13.27
		c1.246-1.845,2.051-2.097,9.68-0.351c10.592,2.424,14.572,2.454,25.291,0c7.854-1.8,8.488-1.413,9.68,0.351
		C260.456,380.551,251.961,390.952,236.194,390.952z M181.046,361.546c-1.843,2.115-4.504,3.329-7.301,3.329
		c-2.796,0-5.458-1.214-7.302-3.33c-2.721-3.122-7.458-3.447-10.581-0.727c-3.123,2.722-3.448,7.459-0.727,10.582
		c4.693,5.386,11.477,8.475,18.61,8.475c7.134,0,13.917-3.089,18.61-8.476c2.721-3.123,2.395-7.86-0.728-10.581
		C188.504,358.098,183.767,358.422,181.046,361.546z M467.001,149.754c-16.346-31.351-41.903-49.438-72.4-51.454
		c11.614-10.806,25.762-19.305,43.133-25.907c19.208-7.3,18.516-34.729-1.06-40.887c-34.876-10.972-66.787-5.548-90.582,15.21
		c-56.515-58.62-148.979-62.513-210.153-9.186c-3.123,2.722-3.447,7.459-0.725,10.581c2.722,3.124,7.46,3.448,10.582,0.726
		C201.058,0.665,284.682,4.265,335.627,57.48c-3.783,4.59-7.01,9.439-9.674,14.527c-22.758-25.276-55.447-40.054-89.76-40.054
		c-66.54,0-120.674,54.135-120.674,120.675c0,22.368,6.301,44.359,17.942,63.284h-19.512
		c-22.848-44.088-20.634-98.877,9.124-141.713c2.363-3.402,1.521-8.076-1.881-10.438c-3.402-2.365-8.076-1.521-10.438,1.88
		c-31.449,45.272-35.228,102.562-13.41,150.376c-49.536,2.826-71.387,71.066-40.644,96.89c9.264,7.782,18.228,11.631,26.858,13.151
		v154.719c0,17.212,14.003,31.215,31.215,31.215h216.978c4.143,0,7.5-3.357,7.5-7.5c0-4.143-3.357-7.5-7.5-7.5h-34.248
		c0-8.925,0-29.33,0-41.06c0-16.089-13.089-29.178-29.178-29.178h-64.264c-16.089,0-29.178,13.089-29.178,29.178
		c0,11.295,0,32.055,0,41.06h-60.11c-8.941,0-16.215-7.274-16.215-16.215V326.633c16.5-1.405,31.503-8.45,45.276-8.45
		c24.856,0,64.703,17.563,92.36,17.563c27.693,0,67.464-17.563,92.359-17.563c13.684,0,28.864,7.052,45.275,8.451v154.144
		c0,6.365-3.75,12.17-9.555,14.79c-3.775,1.704-5.454,6.146-3.75,9.922c1.706,3.78,6.151,5.452,9.922,3.75
		c11.167-5.041,18.383-16.213,18.383-28.462V326.059c8.63-1.52,17.594-5.369,26.858-13.152
		c30.504-25.624,9.205-94.022-40.617-96.888c7.123-15.529,11.502-31.974,13.08-49.095c17.87-0.132,34.82,4.324,51.382,11.765
		C457.858,186.921,476.237,167.468,467.001,149.754z M189.884,455.933c0-7.817,6.36-14.178,14.178-14.178h64.264
		c7.817,0,14.178,6.36,14.178,14.178v8.317c-3.287-1.522-6.943-2.377-10.796-2.377H200.68c-3.854,0-7.509,0.855-10.796,2.376
		V455.933z M189.884,487.669c0-5.953,4.843-10.796,10.796-10.796h71.028c5.953,0,10.796,4.843,10.796,10.796v9.323h-92.62V487.669z
		 M352.207,61.518c25.688-25.69,57.663-22.719,79.965-15.702c5.995,1.886,6.163,10.303,0.233,12.557
		c-23.879,9.075-43.815,22.032-59.556,41.246c-15.248,2.937-29.031,10.127-40.74,21.193
		C329.555,96.686,337.079,76.651,352.207,61.518z M130.519,152.628c0-58.269,47.405-105.675,105.674-105.675
		c32.595,0,63.524,15.227,83.488,40.908c-4.045,14.536-4.18,30.559-0.307,47.665c-3.127,4.385-6.032,9.13-8.691,14.229
		c-9.054,17.362,8.506,37.379,27.979,28.712c-3.396,13.493-9.439,26.219-17.848,37.445h-28.759
		c-29.703-13.845-50.449-35.025-63.755-70.035c-3.34-8.788-11.586-14.303-20.957-14.014c-9.312,0.271-17.134,6.189-19.93,15.073
		c-7.939,25.234-7.406,48.808,1.419,68.976h-37.25C137.8,197.549,130.519,175.751,130.519,152.628z M262.216,215.912h-56.641
		c-10.141-18.013-11.487-40.205-3.852-64.474c1.881-5.977,10.295-6.187,12.557-0.233C224.334,177.662,239.286,199.5,262.216,215.912
		z M406.038,301.421c-26.666,22.399-49.258,1.762-77.485,1.762c-14.137,0-31.346,4.584-47.989,9.017
		c-42.403,11.295-46.359,11.289-88.741,0c-16.643-4.433-33.852-9.017-47.989-9.017c-28.453,0-50.774,20.679-77.486-1.762
		c-20.436-17.166-3.932-70.509,34.316-70.509c1.8,0,273.045,0.002,271.059,0C409.942,230.912,426.481,284.25,406.038,301.421z
		 M338.927,215.912c8.246-13.362,13.812-28.199,16.347-43.727c5.972-1.845,11.854-3.203,17.685-4.075
		c-1.861,16.769-6.726,32.798-14.523,47.802H338.927z M445.678,165.006c-38.87-17.462-74.796-17.465-113.671,0
		c-5.338,2.4-10.686-3.208-8.023-8.316c10.366-19.883,30.033-43.584,64.858-43.584c34.825,0,54.492,23.701,64.858,43.583
		C456.364,161.799,451.019,167.402,445.678,165.006z M305.944,361.545c-1.844,2.116-4.506,3.33-7.302,3.33
		c-2.796,0-5.457-1.213-7.3-3.329c-2.723-3.124-7.46-3.449-10.582-0.728c-3.123,2.721-3.449,7.458-0.729,10.582
		c4.692,5.387,11.476,8.476,18.61,8.476c7.134,0,13.917-3.089,18.61-8.475c2.722-3.123,2.396-7.86-0.727-10.582
		C313.401,358.097,308.664,358.422,305.944,361.545z"/>
</g>
<g>
</g>
<g>
</g>
<g>
</g>
<g>
</g>
<g>
</g>
<g>
</g>
<g>
</g>
<g>
</g>
<g>
</g>
<g>
</g>
<g>
</g>
<g>
</g>
<g>
</g>
<g>
</g>
<g>
</g>
</svg>
