<?xml version="1.0" encoding="iso-8859-1"?>
<!-- Generator: Adobe Illustrator 23.1.0, SVG Export Plug-In . SVG Version: 6.00 Build 0)  -->
<svg version="1.1" id="Capa_1" xmlns="http://www.w3.org/2000/svg" xmlns:xlink="http://www.w3.org/1999/xlink" x="0px" y="0px"
	 viewBox="0 0 512.034 512.034" style="enable-background:new 0 0 512.034 512.034;" xml:space="preserve">
<g>
	<path style="fill:#E0B799;" d="M389.575,320.143H122.458l-14.87,94.546c-5.536,35.195,21.671,67.016,57.299,67.016h182.259
		c35.628,0,62.835-31.82,57.299-67.016L389.575,320.143z"/>
	<path style="fill:#D99A84;" d="M392.231,337.031l-2.656-16.888H122.458l-14.87,94.546c-5.536,35.195,21.671,67.016,57.299,67.016
		h80.327c-39.795-32.01-50.021-92.131-49.505-136.913c0.05-4.305,3.567-7.76,7.873-7.76H392.231z"/>
	<g>
		<path style="fill:#7CCADC;" d="M252.579,191.122c-6.429-31.538-47.669-97.299-132.691-131.505
			c-9.439-3.797-18.498,6.279-13.823,15.316c20.908,40.421,51.28,110.264,55.623,150.074L252.579,191.122z"/>
		<path style="fill:#9FE6E6;" d="M239.939,258.472c0,22.832-21.337,41.341-47.657,41.341c-67.29,0-61.674-100.666-177.339-93.375
			c-6.74,0.425-10.083-7.965-4.881-12.272C119.133,103.863,239.939,191.116,239.939,258.472z"/>
		<path style="fill:#7CCADC;" d="M185.717,177.636c-4.035,25.125-6.274,49.216-6.274,70.395c0,19.82,8.142,37.828,21.349,51.112
			c22.257-3.482,39.147-20.36,39.147-40.671C239.939,230.151,218.58,198.314,185.717,177.636z"/>
		<path style="fill:#7CCADC;" d="M259.453,191.122c6.429-31.538,47.669-97.299,132.691-131.505
			c9.439-3.797,18.498,6.279,13.823,15.316c-20.908,40.421-51.28,110.264-55.623,150.074L259.453,191.122z"/>
		<path style="fill:#9FE6E6;" d="M272.094,258.472c0,22.832,21.337,41.341,47.657,41.341c67.29,0,61.674-100.666,177.339-93.375
			c6.74,0.425,10.083-7.965,4.881-12.272C392.899,103.863,272.094,191.116,272.094,258.472z"/>
		<path style="fill:#7CCADC;" d="M272.094,258.471c0,20.311,16.89,37.189,39.147,40.671c13.206-13.284,21.349-31.292,21.349-51.112
			c0-21.179-2.239-45.27-6.274-70.395C293.453,198.314,272.094,230.151,272.094,258.471z"/>
		<path style="fill:#9FE6E6;" d="M199.443,248.03c0-61.131,19.708-148.838,47.698-211.929c3.414-7.695,14.338-7.695,17.752,0
			C292.882,99.192,312.59,186.9,312.59,248.03c0,29.767-25.329,53.898-56.574,53.898
			C224.771,301.929,199.443,277.798,199.443,248.03z"/>
	</g>
	<path style="fill:#4E5660;" d="M414.63,320.143H97.402c-14.393,0-26.062-11.668-26.062-26.062v-11.632
		c0-14.394,11.668-26.062,26.062-26.062H414.63c14.394,0,26.062,11.668,26.062,26.062v11.632
		C440.692,308.475,429.024,320.143,414.63,320.143z"/>
	<g>
		<path style="fill:#D99A84;" d="M225.683,359.843h-13.279c-4.143,0-7.5-3.357-7.5-7.5c0-4.143,3.357-7.5,7.5-7.5h13.279
			c4.143,0,7.5,3.357,7.5,7.5C233.183,356.486,229.826,359.843,225.683,359.843z"/>
		<path style="fill:#D99A84;" d="M362.152,363.382h-11.426c-4.143,0-7.5-3.357-7.5-7.5c0-4.143,3.357-7.5,7.5-7.5h11.426
			c4.143,0,7.5,3.357,7.5,7.5C369.652,360.025,366.294,363.382,362.152,363.382z"/>
	</g>
	<g>
		<g>
			<ellipse style="fill:#FFFFFF;" cx="176.371" cy="420.084" rx="29.387" ry="23.403"/>
			<ellipse style="fill:#FFFFFF;" cx="335.661" cy="420.084" rx="29.387" ry="23.403"/>
			<path style="fill:#4E5660;" d="M279.71,402.103c0-14.643-10.608-16.019-23.694-16.019c-13.085,0-23.693,1.376-23.693,16.019
				c0,14.643,10.608,26.513,23.693,26.513C269.102,428.615,279.71,416.745,279.71,402.103z"/>
		</g>
	</g>
	<path d="M256.016,207.384c4.143,0,7.5-3.357,7.5-7.5v-50.809c0-4.143-3.357-7.5-7.5-7.5s-7.5,3.357-7.5,7.5v50.809
		C248.516,204.027,251.874,207.384,256.016,207.384z M338.249,392.144v-12c0-4.143-3.357-7.5-7.5-7.5c-4.143,0-7.5,3.357-7.5,7.5v12
		c0,4.143,3.357,7.5,7.5,7.5C334.891,399.644,338.249,396.287,338.249,392.144z M506.755,188.387
		c-9.378-7.764-18.888-14.278-28.443-19.659l1.795-1.795c2.929-2.93,2.929-7.678,0-10.607c-2.93-2.928-7.678-2.928-10.607,0
		l-5.287,5.287c-13.706-6.132-27.419-10.035-40.888-12.007v-5.73c0-4.143-3.357-7.5-7.5-7.5c-4.143,0-7.5,3.357-7.5,7.5v4.312
		c-9.578-0.412-18.977,0.127-28.106,1.501c9.36-23.566,21.072-49.388,32.411-71.31c7.862-15.196-7.391-32.109-23.283-25.72
		c-12.885,5.184-24.581,11.001-35.169,17.135l-4.679-4.679c-2.93-2.928-7.678-2.928-10.607,0c-2.929,2.93-2.929,7.678,0,10.607
		l2.173,2.173c-17.311,11.414-31.095,23.425-41.704,34.226c-7.63-27.984-17.025-55.2-27.611-79.061
		c-6.055-13.645-25.412-13.637-31.463,0.001c-10.586,23.861-19.981,51.077-27.611,79.061c-10.61-10.801-24.393-22.812-41.704-34.226
		l2.173-2.172c2.929-2.93,2.929-7.678,0-10.607c-2.93-2.928-7.678-2.928-10.607,0l-4.679,4.679
		c-10.588-6.133-22.283-11.951-35.168-17.135c-15.871-6.385-31.155,10.506-23.284,25.72c11.333,21.91,23.039,47.716,32.396,71.273
		c-9.391-1.422-18.636-1.933-28.091-1.53v-4.246c0-4.143-3.357-7.5-7.5-7.5s-7.5,3.357-7.5,7.5v5.665
		c-13.873,2.042-27.564,6.096-40.887,12.072l-5.288-5.288c-2.93-2.928-7.678-2.928-10.607,0c-2.929,2.93-2.929,7.678,0,10.607
		l1.802,1.802c-9.755,5.496-19.267,12.049-28.451,19.653c-10.767,8.915-3.898,26.408,10.136,25.534
		c48.438-3.048,74.086,13.504,94.73,34.965H97.402c-18.506,0-33.561,15.056-33.561,33.561v11.632
		c0,18.507,15.056,33.563,33.561,33.563h16.284l-13.507,85.881c-4.94,31.414,13.267,61.741,43.292,72.109
		c3.905,1.35,8.183-0.717,9.537-4.641c1.353-3.915-0.726-8.186-4.641-9.537c-23.146-7.993-37.181-31.377-33.37-55.602l13.874-88.211
		h254.292l13.874,88.211c4.823,30.657-18.9,58.351-49.89,58.351H181.827c-4.143,0-7.5,3.357-7.5,7.5s3.357,7.5,7.5,7.5h165.319
		c40.25,0,70.953-35.976,64.708-75.681l-13.507-85.881h16.284c18.506,0,33.562-15.056,33.562-33.563v-11.632
		c0-18.506-15.056-33.561-33.562-33.561h-12.779c9.999-10.458,21.583-20.18,36.901-26.704c3.811-1.623,5.584-6.028,3.961-9.84
		c-1.623-3.809-6.026-5.584-9.84-3.961c-22.943,9.773-38.021,25.189-51.233,40.505h-61.569c0.176-12.106-0.891-31.929-3.924-54.663
		c25.733-21.316,58.889-32.688,92.176-31.078v0.329c0,4.143,3.357,7.5,7.5,7.5c3.714,0,6.789-2.702,7.387-6.245
		c10.561,1.732,21.02,4.757,31.275,9.037c-0.659,6.938,7.761,10.996,12.756,6.029c9.807,5.188,19.38,11.545,28.618,19.056
		c-9.084-0.495-17.803-0.354-25.94,0.421c-4.124,0.393-7.148,4.054-6.755,8.177c0.395,4.157,4.092,7.15,8.178,6.755
		c7.863-0.748,16.365-0.843,25.277-0.282C510.645,214.788,517.53,197.311,506.755,188.387z M253.996,39.144
		c0.481-1.086,1.364-1.313,2.021-1.313c0.656,0,1.539,0.227,2.021,1.313c30.094,67.834,48.05,158.114,47.035,209.744h-98.111
		C205.967,198.36,223.418,108.068,253.996,39.144z M112.726,71.487c-1.019-1.968,0.04-3.465,0.542-4.017
		c0.604-0.664,1.903-1.668,3.821-0.895c11.057,4.449,21.18,9.387,30.434,14.591c-0.935,2.64-0.355,5.697,1.758,7.81
		c2.931,2.929,7.678,2.928,10.607,0l0.237-0.237c21.274,13.652,37.076,28.34,48.118,40.547c-3.92,16.049-7.234,32.173-9.824,47.903
		c-14.813-10.855-31.495-18.92-49.069-23.791C139.328,127.047,125.783,96.727,112.726,71.487z M16.173,198.851
		c9.238-7.511,18.809-13.868,28.615-19.057c4.987,4.963,13.42,0.918,12.758-6.03c10.253-4.279,20.711-7.303,31.275-9.034
		c0.598,3.544,3.673,6.245,7.387,6.245c4.143,0,7.5-3.357,7.5-7.5v-0.328c33.245-1.608,66.409,9.733,92.176,31.077
		c-3.041,22.795-4.099,42.61-3.924,54.663H130.39C106.503,221.291,77.319,195.514,16.173,198.851z M414.63,263.887
		c10.235,0,18.562,8.327,18.562,18.561v11.632c0,10.235-8.326,18.563-18.562,18.563H97.402c-10.235,0-18.562-8.327-18.562-18.563
		v-11.632c0-10.234,8.326-18.561,18.562-18.561C115.641,263.887,396.517,263.887,414.63,263.887z M313.613,177.198
		c-2.59-15.732-5.904-31.86-9.825-47.912c11.042-12.207,26.844-26.894,48.118-40.547l0.237,0.237c2.931,2.929,7.678,2.928,10.608,0
		c2.112-2.113,2.693-5.17,1.758-7.81c9.254-5.204,19.377-10.143,30.435-14.591c1.916-0.772,3.216,0.229,3.82,0.895
		c0.502,0.552,1.561,2.049,0.542,4.017c-13.061,25.248-26.61,55.579-36.635,81.936C344.609,158.425,327.978,166.687,313.613,177.198
		z M287.21,402.102c0-12.057-6.008-17.634-11.047-20.189c-5.449-2.763-11.995-3.329-20.146-3.329s-14.697,0.566-20.146,3.329
		c-5.039,2.556-11.047,8.133-11.047,20.189c0,18.755,13.993,34.014,31.193,34.014S287.21,420.857,287.21,402.102z M239.823,402.102
		c0-5.907,0.655-8.519,16.193-8.519s16.193,2.611,16.193,8.519c0,10.484-7.265,19.014-16.193,19.014
		C247.088,421.116,239.823,412.586,239.823,402.102z M181.284,399.644c4.143,0,7.5-3.357,7.5-7.5v-12c0-4.143-3.357-7.5-7.5-7.5
		c-4.143,0-7.5,3.357-7.5,7.5v12C173.784,396.287,177.141,399.644,181.284,399.644z"/>
</g>
<g>
</g>
<g>
</g>
<g>
</g>
<g>
</g>
<g>
</g>
<g>
</g>
<g>
</g>
<g>
</g>
<g>
</g>
<g>
</g>
<g>
</g>
<g>
</g>
<g>
</g>
<g>
</g>
<g>
</g>
</svg>
